<svg version="1.1" viewBox="0.0 0.0 903.7585301837271 674.0866141732283" fill="none" stroke="none" stroke-linecap="square" stroke-miterlimit="10" xmlns:xlink="http://www.w3.org/1999/xlink" xmlns="http://www.w3.org/2000/svg"><clipPath id="p.0"><path d="m0 0l903.75854 0l0 674.0866l-903.75854 0l0 -674.0866z" clip-rule="nonzero"/></clipPath><g clip-path="url(#p.0)"><path fill="#ffffff" d="m0 0l903.75854 0l0 674.0866l-903.75854 0z" fill-rule="evenodd"/><path fill="#000000" fill-opacity="0.0" d="m506.51572 285.21396l176.97635 0l0 77.5748l-176.97635 0z" fill-rule="evenodd"/><path fill="#3c78d8" d="m518.4688 299.6758q-1.578125 0 -1.578125 1.03125q0 1.234375 1.46875 1.234375q2.765625 0 5.53125 -0.015625l-0.359375 14.71875q-0.015625 1.171875 1.03125 1.203125q1.25 0.015625 1.28125 -1.1875l0.34375 -14.75l4.9375 -0.015625q1.578125 0 1.546875 -1.078125q-0.015625 -1.140625 -1.546875 -1.140625l-12.65625 0zm16.296875 4.75q-1.078125 0 -1.109375 1.09375l-0.265625 10.953125q-0.03125 1.265625 1.015625 1.28125q1.234375 0.03125 1.265625 -1.25l0.203125 -7.6875q1.09375 -1.09375 2.421875 -1.34375q1.359375 -0.28125 2.421875 0.4375q1.34375 0.921875 1.859375 -0.578125q0.3125 -0.953125 -1.46875 -1.84375q-1.0 -0.5 -2.5625 -0.484375q-1.28125 0.03125 -2.59375 1.015625q0 -0.21875 0 -0.421875q0 -1.171875 -1.1875 -1.171875zm19.84375 0.765625q-1.125 -0.46875 -1.71875 0.921875l-3.21875 7.390625l-3.921875 -7.46875q-0.734375 -1.390625 -1.828125 -0.8125q-1.03125 0.5625 -0.28125 1.9375l4.875 9.03125l-2.328125 5.390625q-0.8125 1.859375 0.421875 2.359375q1.03125 0.421875 1.84375 -1.453125l6.6875 -15.4375q0.59375 -1.375 -0.53125 -1.859375zm4.8203125 -0.203125q-1.1875 -0.03125 -1.21875 1.53125l-0.203125 9.828125q-0.03125 1.484375 1.21875 1.5q1.109375 0 1.125 -1.59375l0.171875 -9.75q0.015625 -1.5 -1.09375 -1.515625zm0.078125 -5.328125q-0.390625 0 -0.71875 0.203125q-0.3125 0.21875 -0.515625 0.5625q-0.1875 0.328125 -0.1875 0.703125q0 0.390625 0.203125 0.734375q0.203125 0.328125 0.515625 0.515625q0.3125 0.1875 0.671875 0.203125q0.03125 0 0.0625 0q0.375 0.015625 0.65625 -0.140625q0.28125 -0.125 0.515625 -0.4375q0.265625 -0.34375 0.296875 -0.765625q0 -0.0625 0 -0.109375q0 -0.375 -0.15625 -0.6875q-0.1875 -0.375 -0.5625 -0.578125q-0.328125 -0.203125 -0.734375 -0.203125q-0.015625 0 -0.046875 0zm6.0078125 4.765625q-1.078125 0 -1.109375 1.09375l-0.265625 10.90625q-0.03125 1.25 1.015625 1.28125q1.25 0.015625 1.296875 -1.265625l0.1875 -7.09375q1.859375 -1.859375 3.484375 -1.734375q1.9375 0.140625 1.859375 3.375l-0.140625 5.546875q-0.046875 1.421875 1.234375 1.3125q1.109375 -0.09375 1.125 -1.515625l0.09375 -5.859375q0.078125 -5.34375 -4.34375 -5.34375q-2.0 0 -3.265625 1.15625q0 -0.359375 0.015625 -0.6875q0.03125 -1.171875 -1.1875 -1.171875zm18.9375 5.796875q-0.421875 2.453125 -0.640625 2.859375q-0.96875 2.15625 -3.53125 1.9375q-2.328125 -0.1875 -2.0 -3.3125q0.28125 -2.734375 1.703125 -3.625q1.265625 -0.78125 2.78125 -0.78125q1.765625 0.015625 1.828125 1.5q0.046875 0.328125 -0.140625 1.421875zm1.5625 -3.90625q-0.15625 -0.015625 -0.265625 -0.015625q-0.71875 -1.71875 -3.921875 -1.390625q-4.671875 0.484375 -5.640625 5.078125q-1.453125 6.859375 3.71875 7.359375q3.078125 0.296875 4.078125 -1.296875l-0.1875 1.9375q-0.3125 3.140625 -2.90625 3.59375q-1.53125 0.25 -3.71875 -0.265625q-1.109375 -0.28125 -1.328125 0.75q-0.203125 0.90625 0.640625 1.3125q0.734375 0.34375 2.859375 0.5q6.171875 0.4375 6.71875 -5.859375l0.890625 -10.109375q0.125 -1.40625 -0.9375 -1.59375zm14.800781 -7.9375q-1.046875 0 -1.078125 1.09375l-0.125 5.546875q-1.359375 0.015625 -2.703125 0.015625q-1.125 0 -1.125 1.171875q0 1.15625 1.015625 1.15625q1.375 0 2.75 0l-0.203125 9.109375q-0.03125 1.265625 1.03125 1.28125q1.265625 0.03125 1.265625 -1.25l0.203125 -9.140625q1.25 0 2.515625 0q1.359375 0 1.359375 -1.203125q0 -1.171875 -1.4375 -1.171875l-2.375 0.015625q0.078125 -2.46875 0.109375 -5.453125q0 -1.171875 -1.203125 -1.171875zm12.277344 8.96875q2.46875 -0.046875 2.453125 4.125q-0.015625 2.203125 -0.9375 3.203125q-0.875 0.9375 -2.15625 0.9375q-1.125 0 -1.984375 -0.9375q-0.84375 -0.921875 -0.84375 -2.75q0 -1.921875 1.171875 -3.515625q0.75 -1.03125 2.296875 -1.0625zm-0.09375 -2.390625q-2.5625 -0.015625 -4.109375 2.015625q-1.5625 2.0625 -1.5625 4.734375q0 2.828125 1.3125 4.390625q1.453125 1.71875 3.53125 1.734375q2.890625 0.015625 4.296875 -1.78125q1.25 -1.484375 1.265625 -4.34375q0 -6.71875 -4.734375 -6.75z" fill-rule="nonzero"/><path fill="#3c78d8" d="m521.42194 346.7102q1.09375 -0.015625 3.515625 -1.25q0.234375 1.5625 1.703125 1.25q1.28125 -0.25 0.28125 -1.96875q-0.6875 -1.171875 -0.640625 -3.984375q0.0625 -3.53125 0.328125 -5.0q0.28125 -1.5 -1.125 -1.8125q-0.71875 -0.15625 -1.0625 0.125q-3.0625 -0.96875 -5.875 1.34375q-2.453125 2.0 -2.421875 5.671875q0.03125 5.640625 5.296875 5.625zm1.359375 -2.359375q-0.890625 0.328125 -1.90625 0.265625q-2.421875 -0.171875 -2.46875 -3.75q0.109375 -2.765625 2.203125 -4.265625q0.515625 -0.390625 1.375 -0.609375q1.25 -0.296875 2.375 0.421875q-0.53125 1.890625 -0.109375 6.9375q-1.046875 0.84375 -1.46875 1.0zm14.515625 -0.765625q-1.375 0.9375 -2.96875 0.875q-1.546875 -0.0625 -2.421875 -1.21875q-0.9375 -1.296875 -0.90625 -2.875q0.03125 -1.65625 0.921875 -2.953125q0.78125 -1.125 1.765625 -1.421875q1.734375 -0.5625 3.09375 0.46875q1.140625 0.84375 1.6875 0.4375q0.796875 -0.578125 0.09375 -1.703125q-0.46875 -0.71875 -1.890625 -1.203125q-1.15625 -0.375 -2.546875 -0.265625q-2.390625 0.171875 -3.9375 2.40625q-1.28125 1.84375 -1.28125 4.734375q0 2.609375 1.796875 4.34375q1.4375 1.390625 3.625 1.40625q2.765625 0.015625 4.046875 -1.09375q1.0 -0.875 0.609375 -1.53125q-0.65625 -1.109375 -1.6875 -0.40625zm6.046875 -16.40625q-1.078125 0.015625 -1.109375 1.09375l-0.390625 17.0q-0.015625 1.265625 1.03125 1.28125q1.234375 0.03125 1.28125 -1.25l0.265625 -6.765625q1.828125 -2.1875 3.984375 -2.0q1.90625 0.15625 1.875 3.265625l-0.03125 5.609375q-0.015625 1.421875 1.25 1.3125q1.109375 -0.09375 1.125 -1.515625l0.046875 -5.9375q0.046875 -5.34375 -4.359375 -5.34375q-2.4375 0 -3.890625 1.359375l0.109375 -6.9375q0.03125 -1.171875 -1.1875 -1.171875zm14.222656 6.609375q-1.1875 -0.03125 -1.21875 1.53125l-0.203125 9.828125q-0.03125 1.484375 1.21875 1.5q1.109375 0 1.125 -1.59375l0.171875 -9.75q0.015625 -1.5 -1.09375 -1.515625zm0.078125 -5.328125q-0.390625 0 -0.71875 0.203125q-0.3125 0.21875 -0.515625 0.5625q-0.1875 0.328125 -0.1875 0.703125q0 0.390625 0.203125 0.734375q0.203125 0.328125 0.515625 0.515625q0.3125 0.1875 0.671875 0.203125q0.03125 0 0.0625 0q0.375 0.015625 0.65625 -0.140625q0.28125 -0.125 0.515625 -0.4375q0.265625 -0.34375 0.296875 -0.765625q0 -0.0625 0 -0.109375q0 -0.375 -0.15625 -0.6875q-0.1875 -0.375 -0.5625 -0.578125q-0.328125 -0.203125 -0.734375 -0.203125q-0.015625 0 -0.046875 0zm6.1015625 12.515625l7.875 -1.140625q1.265625 -0.171875 1.3125 -1.609375q0.046875 -1.796875 -1.390625 -3.203125q-1.515625 -1.5 -4.234375 -1.328125q-2.59375 0.15625 -4.234375 2.515625q-1.3125 1.890625 -1.3125 4.296875q0 2.9375 2.078125 4.640625q1.6875 1.390625 3.921875 1.40625q3.046875 0.03125 4.921875 -1.640625q1.0625 -0.953125 0.515625 -2.03125q-0.234375 -0.46875 -0.796875 -0.359375q-0.5 0.109375 -1.296875 0.984375q-0.8125 0.921875 -3.203125 0.9375q-1.640625 0.015625 -2.953125 -1.140625q-1.140625 -1.0 -1.203125 -2.328125zm0.265625 -1.9375q0.328125 -1.15625 0.84375 -1.796875q1.171875 -1.4375 2.78125 -1.4375q1.171875 -0.015625 2.203125 0.640625q0.890625 0.578125 1.0625 1.59375l-6.890625 1.0zm11.2421875 -5.25q-0.984375 0.421875 -0.421875 1.90625l3.6875 9.609375q0.5 1.28125 1.421875 1.28125q0.890625 0 1.375 -1.28125l3.6875 -9.609375q0.5625 -1.484375 -0.421875 -1.90625q-1.171875 -0.484375 -1.703125 1.0l-2.96875 8.21875l-2.953125 -8.21875q-0.53125 -1.484375 -1.703125 -1.0zm13.3125 7.1875l7.875 -1.140625q1.265625 -0.171875 1.3125 -1.609375q0.046875 -1.796875 -1.390625 -3.203125q-1.515625 -1.5 -4.234375 -1.328125q-2.59375 0.15625 -4.234375 2.515625q-1.3125 1.890625 -1.3125 4.296875q0 2.9375 2.078125 4.640625q1.6875 1.390625 3.921875 1.40625q3.046875 0.03125 4.921875 -1.640625q1.0625 -0.953125 0.515625 -2.03125q-0.234375 -0.46875 -0.796875 -0.359375q-0.5 0.109375 -1.296875 0.984375q-0.8125 0.921875 -3.203125 0.9375q-1.640625 0.015625 -2.953125 -1.140625q-1.140625 -1.0 -1.203125 -2.328125zm0.265625 -1.9375q0.328125 -1.15625 0.84375 -1.796875q1.171875 -1.4375 2.78125 -1.4375q1.171875 -0.015625 2.203125 0.640625q0.890625 0.578125 1.0625 1.59375l-6.890625 1.0z" fill-rule="nonzero"/><path fill="#000000" fill-opacity="0.0" d="m444.83963 473.81723l160.97635 0l0 48.472443l-160.97635 0z" fill-rule="evenodd"/><path fill="#3c78d8" d="m457.48026 487.98224q-1.0625 0 -1.078125 1.046875l-0.40625 16.234375q-0.03125 1.203125 1.03125 1.234375q0.234375 0 0.40625 -0.046875q1.09375 0.0625 3.5625 0.03125q4.1875 -0.0625 5.640625 -1.234375q3.15625 -2.53125 3.328125 -5.703125q0.265625 -4.359375 -4.296875 -8.25q-3.203125 -2.734375 -7.390625 -3.21875q-0.140625 -0.015625 -0.28125 -0.03125q-0.234375 -0.0625 -0.515625 -0.0625zm1.15625 2.75q3.109375 0.171875 5.546875 2.453125q3.609375 3.3125 3.421875 6.234375q-0.109375 1.671875 -1.703125 3.453125q-1.1875 1.3125 -5.046875 1.40625l-2.53125 -0.046875l0.3125 -13.5zm16.101562 2.859375q-1.1875 -0.03125 -1.21875 1.53125l-0.203125 9.828125q-0.03125 1.484375 1.21875 1.5q1.109375 0 1.125 -1.59375l0.171875 -9.75q0.015625 -1.5 -1.09375 -1.515625zm0.078125 -5.328125q-0.390625 0 -0.71875 0.203125q-0.3125 0.21875 -0.515625 0.5625q-0.1875 0.328125 -0.1875 0.703125q0 0.390625 0.203125 0.734375q0.203125 0.328125 0.515625 0.515625q0.3125 0.1875 0.671875 0.203125q0.03125 0 0.0625 0q0.375 0.015625 0.65625 -0.140625q0.28125 -0.125 0.515625 -0.4375q0.265625 -0.34375 0.296875 -0.765625q0 -0.0625 0 -0.109375q0 -0.375 -0.15625 -0.6875q-0.1875 -0.375 -0.5625 -0.578125q-0.328125 -0.203125 -0.734375 -0.203125q-0.015625 0 -0.046875 0zm8.9765625 18.25q1.09375 -0.015625 3.515625 -1.25q0.234375 1.5625 1.703125 1.25q1.28125 -0.25 0.28125 -1.96875q-0.6875 -1.171875 -0.640625 -3.984375q0.0625 -3.53125 0.328125 -5.0q0.28125 -1.5 -1.125 -1.8125q-0.71875 -0.15625 -1.0625 0.125q-3.0625 -0.96875 -5.875 1.34375q-2.453125 2.0 -2.421875 5.671875q0.03125 5.640625 5.296875 5.625zm1.359375 -2.359375q-0.890625 0.328125 -1.90625 0.265625q-2.421875 -0.171875 -2.46875 -3.75q0.109375 -2.765625 2.203125 -4.265625q0.515625 -0.390625 1.375 -0.609375q1.25 -0.296875 2.375 0.421875q-0.53125 1.890625 -0.109375 6.9375q-1.046875 0.84375 -1.46875 1.0zm14.328125 -5.328125q-0.421875 2.453125 -0.640625 2.859375q-0.96875 2.15625 -3.53125 1.9375q-2.328125 -0.1875 -2.0 -3.3125q0.28125 -2.734375 1.703125 -3.625q1.265625 -0.78125 2.78125 -0.78125q1.765625 0.015625 1.828125 1.5q0.046875 0.328125 -0.140625 1.421875zm1.5625 -3.90625q-0.15625 -0.015625 -0.265625 -0.015625q-0.71875 -1.71875 -3.921875 -1.390625q-4.671875 0.484375 -5.640625 5.078125q-1.453125 6.859375 3.71875 7.359375q3.078125 0.296875 4.078125 -1.296875l-0.1875 1.9375q-0.3125 3.140625 -2.90625 3.59375q-1.53125 0.25 -3.71875 -0.265625q-1.109375 -0.28125 -1.328125 0.75q-0.203125 0.90625 0.640625 1.3125q0.734375 0.34375 2.859375 0.5q6.171875 0.4375 6.71875 -5.859375l0.890625 -10.109375q0.125 -1.40625 -0.9375 -1.59375zm4.8007812 -1.890625q-1.078125 0 -1.109375 1.09375l-0.265625 10.953125q-0.03125 1.265625 1.015625 1.28125q1.234375 0.03125 1.265625 -1.25l0.203125 -7.6875q1.09375 -1.09375 2.421875 -1.34375q1.359375 -0.28125 2.421875 0.4375q1.3437195 0.921875 1.8593445 -0.578125q0.3125 -0.953125 -1.46875 -1.84375q-0.9999695 -0.5 -2.5624695 -0.484375q-1.28125 0.03125 -2.59375 1.015625q0 -0.21875 0 -0.421875q0 -1.171875 -1.1875 -1.171875zm14.4999695 13.484375q1.09375 -0.015625 3.515625 -1.25q0.234375 1.5625 1.703125 1.25q1.28125 -0.25 0.28125 -1.96875q-0.6875 -1.171875 -0.640625 -3.984375q0.0625 -3.53125 0.328125 -5.0q0.28125 -1.5 -1.125 -1.8125q-0.71875 -0.15625 -1.0625 0.125q-3.0625 -0.96875 -5.875 1.34375q-2.453125 2.0 -2.421875 5.671875q0.03125 5.640625 5.296875 5.625zm1.359375 -2.359375q-0.890625 0.328125 -1.90625 0.265625q-2.421875 -0.171875 -2.46875 -3.75q0.109375 -2.765625 2.203125 -4.265625q0.515625 -0.390625 1.375 -0.609375q1.25 -0.296875 2.375 0.421875q-0.53125 1.890625 -0.109375 6.9375q-1.046875 0.84375 -1.46875 1.0zm7.734375 -11.125q-1.078125 0 -1.09375 1.09375l-0.28125 10.859375q-0.03125 1.265625 1.03125 1.28125q1.21875 0.03125 1.25 -1.25l0.203125 -6.484375q0.625 -2.4375 2.65625 -2.359375q1.796875 0.046875 1.734375 3.390625l-0.125 5.375q-0.03125 1.421875 1.171875 1.3125q1.09375 -0.09375 1.125 -1.515625l0.140625 -5.875q0.015625 -0.671875 0.046875 -0.71875q0.78125 -2.015625 2.921875 -1.953125q1.859375 0.046875 1.8125 3.515625l-0.078125 5.40625q-0.015625 1.421875 1.25 1.296875q1.09375 -0.09375 1.125 -1.515625l0.09375 -5.8125q0.078125 -5.34375 -4.359375 -5.34375q-2.40625 -0.015625 -3.609375 1.71875q-0.84375 -1.75 -3.28125 -1.71875q-1.5 0 -2.546875 0.9375l0.015625 -0.46875q0.015625 -1.171875 -1.203125 -1.171875zm20.519531 11.140625q-1.078125 -0.078125 -2.109375 -0.78125q-0.84375 -0.5625 -1.5 -0.140625q-0.53125 0.359375 -0.484375 1.125q0.046875 0.703125 0.859375 1.171875q0.921875 0.53125 1.546875 0.71875q1.03125 0.28125 2.671875 0.28125q1.953125 -0.015625 3.125 -0.8125q1.453125 -0.96875 1.640625 -2.484375q0.171875 -1.46875 -1.015625 -2.90625q-0.5 -0.609375 -1.796875 -1.203125q-0.9375 -0.4375 -2.0625 -0.5625q-1.40625 -0.15625 -1.625 -0.78125q-0.234375 -0.734375 0.34375 -1.390625q0.671875 -0.796875 2.09375 -0.875q1.328125 -0.046875 2.0 0.609375q1.359375 1.3125 2.03125 0.765625q0.546875 -0.4375 0.4375 -1.140625q-0.171875 -1.0625 -1.84375 -1.890625q-1.28125 -0.625 -3.0 -0.46875q-1.515625 0.140625 -2.6875 0.984375q-0.984375 0.703125 -1.484375 2.046875q-0.46875 1.21875 -0.1875 2.390625q0.359375 1.5 2.765625 1.84375q2.328125 0.328125 2.984375 1.03125q0.984375 1.046875 0.515625 1.78125q-0.59375 0.859375 -3.21875 0.6875z" fill-rule="nonzero"/><path fill="#000000" fill-opacity="0.0" d="m112.08113 124.273605l260.25195 0l0 77.5748l-260.25195 0z" fill-rule="evenodd"/><path fill="#3c78d8" d="m131.29988 156.53235q1.0625 0.09375 1.78125 -2.046875l3.4375 -10.046875l2.0625 10.625q0.390625 2.03125 1.75 1.875q1.265625 -0.15625 0.90625 -1.828125l-3.015625 -14.65625q-0.421875 -1.96875 -1.5 -1.984375q-1.171875 -0.046875 -1.78125 1.90625l-3.5 11.453125q-2.859375 -12.046875 -2.859375 -12.046875q-0.296875 -1.265625 -1.40625 -1.09375q-1.078125 0.15625 -1.453125 1.75l-3.234375 13.796875q-0.421875 1.828125 0.6875 2.453125q1.234375 0.703125 1.640625 -1.140625l2.453125 -10.953125l2.515625 10.03125q0.4375 1.84375 1.515625 1.90625q0 0 0 0zm16.875 0.4375q1.09375 -0.015625 3.515625 -1.25q0.234375 1.5625 1.703125 1.25q1.28125 -0.25 0.28125 -1.96875q-0.6875 -1.171875 -0.640625 -3.984375q0.0625 -3.53125 0.328125 -5.0q0.28125 -1.5 -1.125 -1.8125q-0.71875 -0.15625 -1.0625 0.125q-3.0625 -0.96875 -5.875 1.34375q-2.453125 2.0 -2.421875 5.671875q0.03125 5.640625 5.296875 5.625zm1.359375 -2.359375q-0.890625 0.328125 -1.90625 0.265625q-2.421875 -0.171875 -2.46875 -3.75q0.109375 -2.765625 2.203125 -4.265625q0.515625 -0.390625 1.375 -0.609375q1.25 -0.296875 2.375 0.421875q-0.53125 1.890625 -0.109375 6.9375q-1.046875 0.84375 -1.46875 1.0zm10.78125 -17.171875q-1.046875 0 -1.078125 1.09375l-0.125 5.546875q-1.359375 0.015625 -2.703125 0.015625q-1.125 0 -1.125 1.171875q0 1.15625 1.015625 1.15625q1.375 0 2.75 0l-0.203125 9.109375q-0.03125 1.265625 1.03125 1.28125q1.265625 0.03125 1.265625 -1.25l0.203125 -9.140625q1.25 0 2.515625 0q1.359375 0 1.359375 -1.203125q0 -1.171875 -1.4375 -1.171875l-2.375 0.015625q0.078125 -2.46875 0.109375 -5.453125q0 -1.171875 -1.203125 -1.171875zm8.761719 0q-1.078125 0.015625 -1.109375 1.09375l-0.390625 17.0q-0.015625 1.265625 1.03125 1.28125q1.234375 0.03125 1.28125 -1.25l0.265625 -6.765625q1.828125 -2.1875 3.984375 -2.0q1.90625 0.15625 1.875 3.265625l-0.03125 5.609375q-0.015625 1.421875 1.25 1.3125q1.109375 -0.09375 1.125 -1.515625l0.046875 -5.9375q0.046875 -5.34375 -4.359375 -5.34375q-2.4375 0 -3.890625 1.359375l0.109375 -6.9375q0.03125 -1.171875 -1.1875 -1.171875zm13.675781 13.796875l7.875 -1.140625q1.265625 -0.171875 1.3125 -1.609375q0.046875 -1.796875 -1.390625 -3.203125q-1.515625 -1.5 -4.234375 -1.328125q-2.59375 0.15625 -4.234375 2.515625q-1.3125 1.890625 -1.3125 4.296875q0 2.9375 2.078125 4.640625q1.6875 1.390625 3.921875 1.40625q3.046875 0.03125 4.921875 -1.640625q1.0625 -0.953125 0.515625 -2.03125q-0.234375 -0.46875 -0.796875 -0.359375q-0.5 0.109375 -1.296875 0.984375q-0.8125 0.921875 -3.203125 0.9375q-1.640625 0.015625 -2.953125 -1.140625q-1.140625 -1.0 -1.203125 -2.328125zm0.265625 -1.9375q0.328125 -1.15625 0.84375 -1.796875q1.171875 -1.4375 2.78125 -1.4375q1.171875 -0.015625 2.203125 0.640625q0.890625 0.578125 1.0625 1.59375l-6.890625 1.0zm12.5703125 -5.8125q-1.078125 0 -1.09375 1.09375l-0.28125 10.859375q-0.03125 1.265625 1.03125 1.28125q1.21875 0.03125 1.25 -1.25l0.203125 -6.484375q0.625 -2.4375 2.65625 -2.359375q1.796875 0.046875 1.734375 3.390625l-0.125 5.375q-0.03125 1.421875 1.171875 1.3125q1.09375 -0.09375 1.125 -1.515625l0.140625 -5.875q0.015625 -0.671875 0.046875 -0.71875q0.78125 -2.015625 2.921875 -1.953125q1.859375 0.046875 1.8125 3.515625l-0.078125 5.40625q-0.015625 1.421875 1.25 1.296875q1.09375 -0.09375 1.125 -1.515625l0.09375 -5.8125q0.078125 -5.34375 -4.359375 -5.34375q-2.40625 -0.015625 -3.609375 1.71875q-0.84375 -1.75 -3.28125 -1.71875q-1.5 0 -2.546875 0.9375l0.015625 -0.46875q0.015625 -1.171875 -1.203125 -1.171875zm21.832031 13.484375q1.09375 -0.015625 3.515625 -1.25q0.234375 1.5625 1.703125 1.25q1.28125 -0.25 0.28125 -1.96875q-0.6875 -1.171875 -0.640625 -3.984375q0.0625 -3.53125 0.328125 -5.0q0.28125 -1.5 -1.125 -1.8125q-0.71875 -0.15625 -1.0625 0.125q-3.0625 -0.96875 -5.875 1.34375q-2.453125 2.0 -2.421875 5.671875q0.03125 5.640625 5.296875 5.625zm1.359375 -2.359375q-0.890625 0.328125 -1.90625 0.265625q-2.421875 -0.171875 -2.46875 -3.75q0.109375 -2.765625 2.203125 -4.265625q0.515625 -0.390625 1.375 -0.609375q1.25 -0.296875 2.375 0.421875q-0.53125 1.890625 -0.109375 6.9375q-1.046875 0.84375 -1.46875 1.0zm10.78125 -17.171875q-1.046875 0 -1.078125 1.09375l-0.125 5.546875q-1.359375 0.015625 -2.703125 0.015625q-1.125 0 -1.125 1.171875q0 1.15625 1.015625 1.15625q1.375 0 2.75 0l-0.203125 9.109375q-0.03125 1.265625 1.03125 1.28125q1.265625 0.03125 1.265625 -1.25l0.203125 -9.140625q1.25 0 2.515625 0q1.359375 0 1.359375 -1.203125q0 -1.171875 -1.4375 -1.171875l-2.375 0.015625q0.078125 -2.46875 0.109375 -5.453125q0 -1.171875 -1.203125 -1.171875zm9.121094 6.609375q-1.1875 -0.03125 -1.21875 1.53125l-0.203125 9.828125q-0.03125 1.484375 1.21875 1.5q1.109375 0 1.125 -1.59375l0.171875 -9.75q0.015625 -1.5 -1.09375 -1.515625zm0.078125 -5.328125q-0.390625 0 -0.71875 0.203125q-0.3125 0.21875 -0.515625 0.5625q-0.1875 0.328125 -0.1875 0.703125q0 0.390625 0.203125 0.734375q0.203125 0.328125 0.515625 0.515625q0.3125 0.1875 0.671875 0.203125q0.03125 0 0.0625 0q0.375 0.015625 0.65625 -0.140625q0.28125 -0.125 0.515625 -0.4375q0.265625 -0.34375 0.296875 -0.765625q0 -0.0625 0 -0.109375q0 -0.375 -0.15625 -0.6875q-0.1875 -0.375 -0.5625 -0.578125q-0.328125 -0.203125 -0.734375 -0.203125q-0.015625 0 -0.046875 0zm12.5703125 15.125q-1.375 0.9375 -2.96875 0.875q-1.546875 -0.0625 -2.421875 -1.21875q-0.9375 -1.296875 -0.90625 -2.875q0.03125 -1.65625 0.921875 -2.953125q0.78125 -1.125 1.765625 -1.421875q1.734375 -0.5625 3.09375 0.46875q1.140625 0.84375 1.6875 0.4375q0.796875 -0.578125 0.09375 -1.703125q-0.46875 -0.71875 -1.890625 -1.203125q-1.15625 -0.375 -2.546875 -0.265625q-2.390625 0.171875 -3.9375 2.40625q-1.28125 1.84375 -1.28125 4.734375q0 2.609375 1.796875 4.34375q1.4375 1.390625 3.625 1.40625q2.765625 0.015625 4.046875 -1.09375q1.0 -0.875 0.609375 -1.53125q-0.65625 -1.109375 -1.6875 -0.40625zm8.73439 3.125q1.09375 -0.015625 3.515625 -1.25q0.234375 1.5625 1.703125 1.25q1.28125 -0.25 0.28125 -1.96875q-0.6875 -1.171875 -0.640625 -3.984375q0.0625 -3.53125 0.328125 -5.0q0.28125 -1.5 -1.125 -1.8125q-0.71875 -0.15625 -1.0625 0.125q-3.0625 -0.96875 -5.875 1.34375q-2.4531403 2.0 -2.4218903 5.671875q0.03125 5.640625 5.2968903 5.625zm1.359375 -2.359375q-0.890625 0.328125 -1.90625 0.265625q-2.421875 -0.171875 -2.46875 -3.75q0.109375 -2.765625 2.203125 -4.265625q0.515625 -0.390625 1.375 -0.609375q1.25 -0.296875 2.375 0.421875q-0.53125 1.890625 -0.109375 6.9375q-1.046875 0.84375 -1.46875 1.0zm8.53125 -17.171875q-1.046875 0.03125 -1.078125 1.09375l-0.390625 17.0q-0.03125 1.265625 1.03125 1.28125q1.265625 0.03125 1.265625 -1.25l0.375 -16.953125q0.015625 -1.171875 -1.203125 -1.171875z" fill-rule="nonzero"/><path fill="#3c78d8" d="m124.503006 170.59798q-1.046875 1.765625 -0.578125 3.609375q0.796875 3.28125 5.15625 3.21875q4.5 -0.078125 4.96875 1.640625q0.4375 1.625 -1.125 3.140625q-0.796875 0.765625 -3.046875 1.171875q-1.265625 0.21875 -2.796875 -0.125q-1.125 -0.28125 -1.890625 -0.96875q-1.0 -0.875 -1.671875 -0.6875q-0.59375 0.171875 -0.703125 0.953125q-0.09375 0.703125 0.84375 1.53125q0.65625 0.578125 1.59375 0.953125q1.390625 0.59375 3.5 0.578125q2.859375 0 4.78125 -1.125q2.90625 -1.671875 3.0625 -4.578125q0.109375 -1.890625 -1.375 -3.40625q-1.171875 -1.21875 -3.6875 -1.296875q-2.828125 -0.09375 -3.53125 -0.203125q-1.890625 -0.265625 -1.6875 -2.390625q0.09375 -1.046875 1.21875 -1.921875q1.046875 -0.8125 3.0 -0.9375q1.265625 -0.0625 2.90625 0.5625q1.125 0.453125 1.5625 0.234375q0.671875 -0.328125 0.640625 -0.921875q-0.046875 -0.71875 -1.75 -1.46875q-1.21875 -0.53125 -2.9375 -0.609375q-1.96875 -0.0625 -3.65625 0.75q-2.015625 0.984375 -2.796875 2.296875zm24.46875 2.453125q-1.125 -0.46875 -1.71875 0.921875l-3.21875 7.390625l-3.921875 -7.46875q-0.734375 -1.390625 -1.828125 -0.8125q-1.03125 0.5625 -0.28125 1.9375l4.875 9.03125l-2.328125 5.390625q-0.8125 1.859375 0.421875 2.359375q1.03125 0.421875 1.84375 -1.453125l6.6875 -15.4375q0.59375 -1.375 -0.53125 -1.859375zm3.9609375 -0.765625q-1.078125 0 -1.09375 1.09375l-0.28125 10.859375q-0.03125 1.265625 1.03125 1.28125q1.21875 0.03125 1.25 -1.25l0.203125 -6.484375q0.625 -2.4375 2.65625 -2.359375q1.796875 0.046875 1.734375 3.390625l-0.125 5.375q-0.03125 1.421875 1.171875 1.3125q1.09375 -0.09375 1.125 -1.515625l0.140625 -5.875q0.015625 -0.671875 0.046875 -0.71875q0.78125 -2.015625 2.921875 -1.953125q1.859375 0.046875 1.8125 3.515625l-0.078125 5.40625q-0.015625 1.421875 1.25 1.296875q1.09375 -0.09375 1.125 -1.515625l0.09375 -5.8125q0.078125 -5.34375 -4.359375 -5.34375q-2.40625 -0.015625 -3.609375 1.71875q-0.84375 -1.75 -3.28125 -1.71875q-1.5 0 -2.546875 0.9375l0.015625 -0.46875q0.015625 -1.171875 -1.203125 -1.171875zm19.019531 -6.046875q-1.046875 0 -1.078125 1.09375l-0.390625 17.0q-0.03125 1.265625 1.03125 1.28125q1.171875 0.03125 1.265625 -1.09375q1.78125 1.1875 3.8125 1.1875q2.0 -0.015625 3.59375 -1.5625q1.6875 -1.671875 1.828125 -4.03125q0.171875 -3.15625 -1.625 -5.25q-1.71875 -2.0 -4.25 -2.0q-1.40625 0 -2.46875 0.59375q-0.34375 0.203125 -0.65625 0.40625l0.140625 -6.453125q0.015625 -1.171875 -1.203125 -1.171875zm4.640625 17.171875q-1.5 0.203125 -3.75 -1.46875l0.109375 -5.375q1.9375 -1.890625 3.859375 -1.421875q1.25 0.296875 2.109375 1.234375q1.046875 1.15625 1.0 3.171875q-0.03125 1.359375 -0.96875 2.625q-0.78125 1.03125 -2.359375 1.234375zm13.238281 -8.203125q2.46875 -0.046875 2.453125 4.125q-0.015625 2.203125 -0.9375 3.203125q-0.875 0.9375 -2.15625 0.9375q-1.125 0 -1.984375 -0.9375q-0.84375 -0.921875 -0.84375 -2.75q0 -1.921875 1.171875 -3.515625q0.75 -1.03125 2.296875 -1.0625zm-0.09375 -2.390625q-2.5625 -0.015625 -4.109375 2.015625q-1.5625 2.0625 -1.5625 4.734375q0 2.828125 1.3125 4.390625q1.453125 1.71875 3.53125 1.734375q2.890625 0.015625 4.296875 -1.78125q1.25 -1.484375 1.265625 -4.34375q0 -6.71875 -4.734375 -6.75zm9.496094 -6.578125q-1.046875 0.03125 -1.078125 1.09375l-0.390625 17.0q-0.03125 1.265625 1.03125 1.28125q1.265625 0.03125 1.265625 -1.25l0.375 -16.953125q0.015625 -1.171875 -1.203125 -1.171875zm7.6523438 17.1875q-1.078125 -0.078125 -2.109375 -0.78125q-0.84375 -0.5625 -1.5 -0.140625q-0.53125 0.359375 -0.484375 1.125q0.046875 0.703125 0.859375 1.171875q0.921875 0.53125 1.546875 0.71875q1.03125 0.28125 2.671875 0.28125q1.953125 -0.015625 3.125 -0.8125q1.453125 -0.96875 1.640625 -2.484375q0.171875 -1.46875 -1.015625 -2.90625q-0.5 -0.609375 -1.796875 -1.203125q-0.9375 -0.4375 -2.0625 -0.5625q-1.40625 -0.15625 -1.625 -0.78125q-0.234375 -0.734375 0.34375 -1.390625q0.671875 -0.796875 2.09375 -0.875q1.328125 -0.046875 2.0 0.609375q1.359375 1.3125 2.03125 0.765625q0.546875 -0.4375 0.4375 -1.140625q-0.171875 -1.0625 -1.84375 -1.890625q-1.28125 -0.625 -3.0 -0.46875q-1.515625 0.140625 -2.6875 0.984375q-0.984375 0.703125 -1.484375 2.046875q-0.46875 1.21875 -0.1875 2.390625q0.359375 1.5 2.765625 1.84375q2.328125 0.328125 2.984375 1.03125q0.984375 1.046875 0.515625 1.78125q-0.59375 0.859375 -3.21875 0.6875z" fill-rule="nonzero"/><path fill="#000000" fill-opacity="0.0" d="m259.2283 15.136483l297.1024 0l0 48.472443l-297.1024 0z" fill-rule="evenodd"/><path fill="#000000" d="m270.82205 29.379608q-1.0625 0 -1.09375 1.03125l-0.390625 16.0625q-0.03125 1.203125 1.03125 1.21875q1.265625 0.03125 1.28125 -1.203125l0.140625 -6.265625q0.296875 0.03125 0.640625 0.015625q4.921875 -0.265625 6.1875 -1.828125q2.125 -2.6875 0.984375 -5.671875q-1.140625 -2.9375 -5.234375 -3.359375q-1.234375 -0.109375 -3.0625 0.046875q-0.21875 -0.046875 -0.484375 -0.046875zm1.15625 2.359375q0.953125 -0.109375 1.640625 -0.109375q2.65625 -0.03125 3.609375 1.75q0.796875 1.53125 -0.203125 3.28125q-1.03125 1.78125 -5.1875 1.34375l0.140625 -6.265625zm15.4765625 5.53125q2.46875 -0.046875 2.453125 4.125q-0.015625 2.203125 -0.9375 3.203125q-0.875 0.9375 -2.15625 0.9375q-1.125 0 -1.984375 -0.9375q-0.84375 -0.921875 -0.84375 -2.75q0 -1.921875 1.171875 -3.515625q0.75 -1.03125 2.296875 -1.0625zm-0.09375 -2.390625q-2.5625 -0.015625 -4.109375 2.015625q-1.5625 2.0625 -1.5625 4.734375q0 2.828125 1.3125 4.390625q1.453125 1.71875 3.53125 1.734375q2.890625 0.015625 4.296875 -1.78125q1.25 -1.484375 1.265625 -4.34375q0 -6.71875 -4.734375 -6.75zm15.558594 1.578125q-0.265625 -1.546875 -1.203125 -1.546875q-0.796875 0 -1.28125 1.546875l-2.609375 8.125l-1.359375 -8.125q-0.28125 -1.6875 -1.3125 -1.53125q-1.078125 0.171875 -0.796875 1.640625l1.84375 9.765625q0.265625 1.4375 1.484375 1.4375q0.96875 0 1.46875 -1.4375l2.265625 -6.4375l1.234375 6.4375q0.28125 1.4375 1.484375 1.4375q0.984375 0 1.46875 -1.4375l3.390625 -9.765625q0.5 -1.453125 -0.71875 -1.640625q-0.859375 -0.125 -1.390625 1.53125l-2.59375 8.125l-1.375 -8.125zm9.871094 5.640625l7.875 -1.140625q1.265625 -0.171875 1.3125 -1.609375q0.046875 -1.796875 -1.390625 -3.203125q-1.515625 -1.5 -4.234375 -1.328125q-2.59375 0.15625 -4.234375 2.515625q-1.3125 1.890625 -1.3125 4.296875q0 2.9375 2.078125 4.640625q1.6875 1.390625 3.921875 1.40625q3.046875 0.03125 4.921875 -1.640625q1.0625 -0.953125 0.515625 -2.03125q-0.234375 -0.46875 -0.796875 -0.359375q-0.5 0.109375 -1.296875 0.984375q-0.8125 0.921875 -3.203125 0.9375q-1.640625 0.015625 -2.953125 -1.140625q-1.140625 -1.0 -1.203125 -2.328125zm0.265625 -1.9375q0.328125 -1.15625 0.84375 -1.796875q1.171875 -1.4375 2.78125 -1.4375q1.171875 -0.015625 2.203125 0.640625q0.890625 0.578125 1.0625 1.59375l-6.890625 1.0zm12.7890625 -5.8125q-1.078125 0 -1.109375 1.09375l-0.265625 10.953125q-0.03125 1.265625 1.015625 1.28125q1.234375 0.03125 1.265625 -1.25l0.203125 -7.6875q1.09375 -1.09375 2.421875 -1.34375q1.359375 -0.28125 2.421875 0.4375q1.34375 0.921875 1.859375 -0.578125q0.3125 -0.953125 -1.46875 -1.84375q-1.0 -0.5 -2.5625 -0.484375q-1.28125 0.03125 -2.59375 1.015625q0 -0.21875 0 -0.421875q0 -1.171875 -1.1875 -1.171875zm21.53125 -6.046875q-1.046875 0 -1.078125 1.09375l-0.125 5.546875q-1.359375 0.015625 -2.703125 0.015625q-1.125 0 -1.125 1.171875q0 1.15625 1.015625 1.15625q1.375 0 2.75 0l-0.203125 9.109375q-0.03125 1.265625 1.03125 1.28125q1.265625 0.03125 1.265625 -1.25l0.203125 -9.140625q1.25 0 2.515625 0q1.359375 0 1.359375 -1.203125q0 -1.171875 -1.4375 -1.171875l-2.375 0.015625q0.078125 -2.46875 0.109375 -5.453125q0 -1.171875 -1.203125 -1.171875zm12.277344 8.96875q2.46875 -0.046875 2.453125 4.125q-0.015625 2.203125 -0.9375 3.203125q-0.875 0.9375 -2.15625 0.9375q-1.125 0 -1.984375 -0.9375q-0.84375 -0.921875 -0.84375 -2.75q0 -1.921875 1.171875 -3.515625q0.75 -1.03125 2.296875 -1.0625zm-0.09375 -2.390625q-2.5625 -0.015625 -4.109375 2.015625q-1.5625 2.0625 -1.5625 4.734375q0 2.828125 1.3125 4.390625q1.453125 1.71875 3.53125 1.734375q2.890625 0.015625 4.296875 -1.78125q1.25 -1.484375 1.265625 -4.34375q0 -6.71875 -4.734375 -6.75zm23.558594 -3.671875q-0.703125 -1.953125 -1.703125 -1.953125q-1.0 0 -1.703125 1.953125l-5.21875 14.53125q-0.5625 1.609375 0.59375 1.953125q1.125 0.3125 1.6875 -1.296875l1.828125 -5.09375l5.625 0l1.84375 5.09375q0.578125 1.625 1.6875 1.296875q1.15625 -0.34375 0.59375 -1.953125l-5.234375 -14.53125zm-1.703125 2.296875l1.953125 5.390625l-3.90625 0.03125l1.953125 -5.421875zm11.7890625 0.84375q-1.078125 0 -1.109375 1.09375l-0.265625 10.90625q-0.03125 1.25 1.015625 1.28125q1.25 0.015625 1.296875 -1.265625l0.1875 -7.09375q1.859375 -1.859375 3.484375 -1.734375q1.9375 0.140625 1.859375 3.375l-0.140625 5.546875q-0.046875 1.421875 1.234375 1.3125q1.109375 -0.09375 1.125 -1.515625l0.09375 -5.859375q0.078125 -5.34375 -4.34375 -5.34375q-2.0 0 -3.265625 1.15625q0 -0.359375 0.015625 -0.6875q0.03125 -1.171875 -1.1875 -1.171875zm15.53125 13.484375q1.09375 -0.015625 3.515625 -1.25q0.234375 1.5625 1.703125 1.25q1.28125 -0.25 0.28125 -1.96875q-0.6875 -1.171875 -0.640625 -3.984375q0.0625 -3.53125 0.328125 -5.0q0.28125 -1.5 -1.125 -1.8125q-0.71875 -0.15625 -1.0625 0.125q-3.0625 -0.96875 -5.875 1.34375q-2.453125 2.0 -2.421875 5.671875q0.03125 5.640625 5.296875 5.625zm1.359375 -2.359375q-0.890625 0.328125 -1.90625 0.265625q-2.421875 -0.171875 -2.46875 -3.75q0.109375 -2.765625 2.203125 -4.265625q0.515625 -0.390625 1.375 -0.609375q1.25 -0.296875 2.375 0.421875q-0.53125 1.890625 -0.109375 6.9375q-1.046875 0.84375 -1.46875 1.0zm8.53125 -17.171875q-1.046875 0.03125 -1.078125 1.09375l-0.390625 17.0q-0.03125 1.265625 1.03125 1.28125q1.265625 0.03125 1.265625 -1.25l0.375 -16.953125q0.015625 -1.171875 -1.203125 -1.171875zm14.308594 6.8125q-1.125 -0.46875 -1.71875 0.921875l-3.21875 7.390625l-3.921875 -7.46875q-0.734375 -1.390625 -1.828125 -0.8125q-1.03125 0.5625 -0.28125 1.9375l4.875 9.03125l-2.328125 5.390625q-0.8125 1.859375 0.421875 2.359375q1.03125 0.421875 1.84375 -1.453125l6.6875 -15.4375q0.59375 -1.375 -0.53125 -1.859375zm5.8359375 10.375q-1.078125 -0.078125 -2.109375 -0.78125q-0.84375 -0.5625 -1.5 -0.140625q-0.53125 0.359375 -0.484375 1.125q0.046875 0.703125 0.859375 1.171875q0.921875 0.53125 1.546875 0.71875q1.03125 0.28125 2.671875 0.28125q1.953125 -0.015625 3.125 -0.8125q1.453125 -0.96875 1.640625 -2.484375q0.171875 -1.46875 -1.015625 -2.90625q-0.5 -0.609375 -1.796875 -1.203125q-0.9375 -0.4375 -2.0625 -0.5625q-1.40625 -0.15625 -1.625 -0.78125q-0.234375 -0.734375 0.34375 -1.390625q0.671875 -0.796875 2.09375 -0.875q1.328125 -0.046875 2.0 0.609375q1.359375 1.3125 2.03125 0.765625q0.546875 -0.4375 0.4375 -1.140625q-0.171875 -1.0625 -1.84375 -1.890625q-1.28125 -0.625 -3.0 -0.46875q-1.515625 0.140625 -2.6875 0.984375q-0.984375 0.703125 -1.484375 2.046875q-0.46875 1.21875 -0.1875 2.390625q0.359375 1.5 2.765625 1.84375q2.328125 0.328125 2.984375 1.03125q0.984375 1.046875 0.515625 1.78125q-0.59375 0.859375 -3.21875 0.6875zm10.121094 -3.390625l7.875 -1.140625q1.265625 -0.171875 1.3125 -1.609375q0.046875 -1.796875 -1.390625 -3.203125q-1.515625 -1.5 -4.234375 -1.328125q-2.59375 0.15625 -4.234375 2.515625q-1.3125 1.890625 -1.3125 4.296875q0 2.9375 2.078125 4.640625q1.6875 1.390625 3.921875 1.40625q3.046875 0.03125 4.921875 -1.640625q1.0625 -0.953125 0.515625 -2.03125q-0.234375 -0.46875 -0.796875 -0.359375q-0.5 0.109375 -1.296875 0.984375q-0.8125 0.921875 -3.203125 0.9375q-1.640625 0.015625 -2.953125 -1.140625q-1.140625 -1.0 -1.203125 -2.328125zm0.265625 -1.9375q0.328125 -1.15625 0.84375 -1.796875q1.171875 -1.4375 2.78125 -1.4375q1.171875 -0.015625 2.203125 0.640625q0.890625 0.578125 1.0625 1.59375l-6.890625 1.0z" fill-rule="nonzero"/><path fill="#000000" fill-opacity="0.0" d="m711.7638 326.16534l205.92126 0l0 77.5748l-205.92126 0z" fill-rule="evenodd"/><path fill="#000000" d="m723.35754 340.40848q-1.0625 0 -1.09375 1.03125l-0.390625 16.0625q-0.03125 1.203125 1.03125 1.21875q1.265625 0.03125 1.28125 -1.203125l0.140625 -6.265625q0.296875 0.03125 0.640625 0.015625q4.921875 -0.265625 6.1875 -1.828125q2.125 -2.6875 0.984375 -5.671875q-1.140625 -2.9375 -5.234375 -3.359375q-1.234375 -0.109375 -3.0625 0.046875q-0.21875 -0.046875 -0.484375 -0.046875zm1.15625 2.359375q0.953125 -0.109375 1.640625 -0.109375q2.65625 -0.03125 3.609375 1.75q0.796875 1.53125 -0.203125 3.28125q-1.03125 1.78125 -5.1875 1.34375l0.140625 -6.265625zm15.4765625 5.53125q2.46875 -0.046875 2.453125 4.125q-0.015625 2.203125 -0.9375 3.203125q-0.875 0.9375 -2.15625 0.9375q-1.125 0 -1.984375 -0.9375q-0.84375 -0.921875 -0.84375 -2.75q0 -1.921875 1.171875 -3.515625q0.75 -1.03125 2.296875 -1.0625zm-0.09375 -2.390625q-2.5625 -0.015625 -4.109375 2.015625q-1.5625 2.0625 -1.5625 4.734375q0 2.828125 1.3125 4.390625q1.453125 1.71875 3.53125 1.734375q2.890625 0.015625 4.296875 -1.78125q1.25 -1.484375 1.265625 -4.34375q0 -6.71875 -4.734375 -6.75zm15.558594 1.578125q-0.265625 -1.546875 -1.203125 -1.546875q-0.796875 0 -1.28125 1.546875l-2.609375 8.125l-1.359375 -8.125q-0.28125 -1.6875 -1.3125 -1.53125q-1.078125 0.171875 -0.796875 1.640625l1.84375 9.765625q0.265625 1.4375 1.484375 1.4375q0.96875 0 1.46875 -1.4375l2.265625 -6.4375l1.234375 6.4375q0.28125 1.4375 1.484375 1.4375q0.984375 0 1.46875 -1.4375l3.390625 -9.765625q0.5 -1.453125 -0.71875 -1.640625q-0.859375 -0.125 -1.390625 1.53125l-2.59375 8.125l-1.375 -8.125zm9.871094 5.640625l7.875 -1.140625q1.265625 -0.171875 1.3125 -1.609375q0.046875 -1.796875 -1.390625 -3.203125q-1.515625 -1.5 -4.234375 -1.328125q-2.59375 0.15625 -4.234375 2.515625q-1.3125 1.890625 -1.3125 4.296875q0 2.9375 2.078125 4.640625q1.6875 1.390625 3.921875 1.40625q3.046875 0.03125 4.921875 -1.640625q1.0625 -0.953125 0.515625 -2.03125q-0.234375 -0.46875 -0.796875 -0.359375q-0.5 0.109375 -1.296875 0.984375q-0.8125 0.921875 -3.203125 0.9375q-1.640625 0.015625 -2.953125 -1.140625q-1.140625 -1.0 -1.203125 -2.328125zm0.265625 -1.9375q0.328125 -1.15625 0.84375 -1.796875q1.171875 -1.4375 2.78125 -1.4375q1.171875 -0.015625 2.203125 0.640625q0.890625 0.578125 1.0625 1.59375l-6.890625 1.0zm12.7890625 -5.8125q-1.078125 0 -1.109375 1.09375l-0.265625 10.953125q-0.03125 1.265625 1.015625 1.28125q1.234375 0.03125 1.265625 -1.25l0.203125 -7.6875q1.09375 -1.09375 2.421875 -1.34375q1.359375 -0.28125 2.421875 0.4375q1.34375 0.921875 1.859375 -0.578125q0.3125 -0.953125 -1.46875 -1.84375q-1.0 -0.5 -2.5625 -0.484375q-1.28125 0.03125 -2.59375 1.015625q0 -0.21875 0 -0.421875q0 -1.171875 -1.1875 -1.171875zm21.53125 -6.046875q-1.046875 0 -1.078125 1.09375l-0.125 5.546875q-1.359375 0.015625 -2.703125 0.015625q-1.125 0 -1.125 1.171875q0 1.15625 1.015625 1.15625q1.375 0 2.75 0l-0.203125 9.109375q-0.03125 1.265625 1.03125 1.28125q1.265625 0.03125 1.265625 -1.25l0.203125 -9.140625q1.25 0 2.515625 0q1.359375 0 1.359375 -1.203125q0 -1.171875 -1.4375 -1.171875l-2.375 0.015625q0.078125 -2.46875 0.109375 -5.453125q0 -1.171875 -1.203125 -1.171875zm12.277344 8.96875q2.46875 -0.046875 2.453125 4.125q-0.015625 2.203125 -0.9375 3.203125q-0.875 0.9375 -2.15625 0.9375q-1.125 0 -1.984375 -0.9375q-0.84375 -0.921875 -0.84375 -2.75q0 -1.921875 1.171875 -3.515625q0.75 -1.03125 2.296875 -1.0625zm-0.09375 -2.390625q-2.5625 -0.015625 -4.109375 2.015625q-1.5625 2.0625 -1.5625 4.734375q0 2.828125 1.3125 4.390625q1.453125 1.71875 3.53125 1.734375q2.890625 0.015625 4.296875 -1.78125q1.25 -1.484375 1.265625 -4.34375q0 -6.71875 -4.734375 -6.75z" fill-rule="nonzero"/><path fill="#000000" d="m727.1544 372.42725q1.328125 -0.875 2.890625 -0.53125q1.046875 0.25 1.859375 0.796875q0.875 0.609375 1.703125 -0.15625q0.453125 -0.453125 0.40625 -1.3125q-0.046875 -0.65625 -1.53125 -1.421875q-1.953125 -1.0 -4.390625 -0.609375q-2.5625 0.40625 -4.859375 3.640625q-1.5625 2.234375 -1.5625 6.5625q-0.015625 3.625 1.703125 5.875q1.6875 2.234375 4.515625 2.328125q2.15625 0.078125 4.015625 -0.703125q2.265625 -0.921875 2.359375 -1.8125q0.171875 -1.578125 -0.953125 -1.796875q-0.65625 -0.140625 -2.328125 0.921875q-1.140625 0.75 -3.265625 0.65625q-1.484375 -0.078125 -2.375 -1.421875q-1.125 -1.71875 -1.125 -4.328125q0 -2.828125 0.96875 -4.484375q0.859375 -1.46875 1.96875 -2.203125zm14.8046875 4.671875q2.46875 -0.046875 2.453125 4.125q-0.015625 2.203125 -0.9375 3.203125q-0.875 0.9375 -2.15625 0.9375q-1.125 0 -1.984375 -0.9375q-0.84375 -0.921875 -0.84375 -2.75q0 -1.921875 1.171875 -3.515625q0.75 -1.03125 2.296875 -1.0625zm-0.09375 -2.390625q-2.5625 -0.015625 -4.109375 2.015625q-1.5625 2.0625 -1.5625 4.734375q0 2.828125 1.3125 4.390625q1.453125 1.71875 3.53125 1.734375q2.890625 0.015625 4.296875 -1.78125q1.25 -1.484375 1.265625 -4.34375q0 -6.71875 -4.734375 -6.75zm8.699219 -0.53125q-1.078125 0 -1.09375 1.09375l-0.28125 10.859375q-0.03125 1.265625 1.03125 1.28125q1.21875 0.03125 1.25 -1.25l0.203125 -6.484375q0.625 -2.4375 2.65625 -2.359375q1.796875 0.046875 1.734375 3.390625l-0.125 5.375q-0.03125 1.421875 1.171875 1.3125q1.09375 -0.09375 1.125 -1.515625l0.140625 -5.875q0.015625 -0.671875 0.046875 -0.71875q0.78125 -2.015625 2.921875 -1.953125q1.859375 0.046875 1.8125 3.515625l-0.078125 5.40625q-0.015625 1.421875 1.25 1.296875q1.09375 -0.09375 1.125 -1.515625l0.09375 -5.8125q0.078125 -5.34375 -4.359375 -5.34375q-2.40625 -0.015625 -3.609375 1.71875q-0.84375 -1.75 -3.28125 -1.71875q-1.5 0 -2.546875 0.9375l0.015625 -0.46875q0.015625 -1.171875 -1.203125 -1.171875zm18.644531 0q-1.078125 0 -1.09375 1.09375l-0.28125 10.859375q-0.03125 1.265625 1.03125 1.28125q1.21875 0.03125 1.25 -1.25l0.203125 -6.484375q0.625 -2.4375 2.65625 -2.359375q1.796875 0.046875 1.734375 3.390625l-0.125 5.375q-0.03125 1.421875 1.171875 1.3125q1.09375 -0.09375 1.125 -1.515625l0.140625 -5.875q0.015625 -0.671875 0.046875 -0.71875q0.78125 -2.015625 2.921875 -1.953125q1.859375 0.046875 1.8125 3.515625l-0.078125 5.40625q-0.015625 1.421875 1.25 1.296875q1.09375 -0.09375 1.125 -1.515625l0.09375 -5.8125q0.078125 -5.34375 -4.359375 -5.34375q-2.40625 -0.015625 -3.609375 1.71875q-0.84375 -1.75 -3.28125 -1.71875q-1.5 0 -2.546875 0.9375l0.015625 -0.46875q0.015625 -1.171875 -1.203125 -1.171875zm26.003906 13.71875q1.0625 0 1.078125 -1.09375l0.28125 -10.9375q0.03125 -1.265625 -1.03125 -1.296875q-1.234375 -0.015625 -1.28125 1.265625l-0.140625 5.921875q-0.046875 1.921875 -1.578125 2.6875q-1.6875 0.84375 -2.90625 0.03125q-0.890625 -0.625 -0.859375 -3.453125l0.015625 -5.125q0.03125 -1.40625 -1.21875 -1.296875q-1.09375 0.09375 -1.125 1.5l-0.046875 5.765625q-0.046875 5.328125 4.359375 5.34375q2.0 0 3.265625 -1.171875l0 0.703125q-0.03125 1.15625 1.1875 1.15625zm5.3398438 -13.71875q-1.078125 0 -1.109375 1.09375l-0.265625 10.90625q-0.03125 1.25 1.015625 1.28125q1.25 0.015625 1.296875 -1.265625l0.1875 -7.09375q1.859375 -1.859375 3.484375 -1.734375q1.9375 0.140625 1.859375 3.375l-0.140625 5.546875q-0.046875 1.421875 1.234375 1.3125q1.109375 -0.09375 1.125 -1.515625l0.09375 -5.859375q0.078125 -5.34375 -4.34375 -5.34375q-2.0 0 -3.265625 1.15625q0 -0.359375 0.015625 -0.6875q0.03125 -1.171875 -1.1875 -1.171875zm13.203125 0.5625q-1.1875 -0.03125 -1.21875 1.53125l-0.203125 9.828125q-0.03125 1.484375 1.21875 1.5q1.109375 0 1.125 -1.59375l0.171875 -9.75q0.015625 -1.5 -1.09375 -1.515625zm0.078125 -5.328125q-0.390625 0 -0.71875 0.203125q-0.3125 0.21875 -0.515625 0.5625q-0.1875 0.328125 -0.1875 0.703125q0 0.390625 0.203125 0.734375q0.203125 0.328125 0.515625 0.515625q0.3125 0.1875 0.671875 0.203125q0.03125 0 0.0625 0q0.375 0.015625 0.65625 -0.140625q0.28125 -0.125 0.515625 -0.4375q0.265625 -0.34375 0.296875 -0.765625q0 -0.0625 0 -0.109375q0 -0.375 -0.15625 -0.6875q-0.1875 -0.375 -0.5625 -0.578125q-0.328125 -0.203125 -0.734375 -0.203125q-0.015625 0 -0.046875 0zm12.5703125 15.125q-1.375 0.9375 -2.96875 0.875q-1.546875 -0.0625 -2.421875 -1.21875q-0.9375 -1.296875 -0.90625 -2.875q0.03125 -1.65625 0.921875 -2.953125q0.78125 -1.125 1.765625 -1.421875q1.734375 -0.5625 3.09375 0.46875q1.140625 0.84375 1.6875 0.4375q0.796875 -0.578125 0.09375 -1.703125q-0.46875 -0.71875 -1.890625 -1.203125q-1.15625 -0.375 -2.546875 -0.265625q-2.390625 0.171875 -3.9375 2.40625q-1.28125 1.84375 -1.28125 4.734375q0 2.609375 1.796875 4.34375q1.4375 1.390625 3.625 1.40625q2.765625 0.015625 4.046875 -1.09375q1.0 -0.875 0.609375 -1.53125q-0.65625 -1.109375 -1.6875 -0.40625zm8.734375 3.125q1.09375 -0.015625 3.515625 -1.25q0.234375 1.5625 1.703125 1.25q1.28125 -0.25 0.28125 -1.96875q-0.6875 -1.171875 -0.640625 -3.984375q0.0625 -3.53125 0.328125 -5.0q0.28125 -1.5 -1.125 -1.8125q-0.71875 -0.15625 -1.0625 0.125q-3.0625 -0.96875 -5.875 1.34375q-2.453125 2.0 -2.421875 5.671875q0.03125 5.640625 5.296875 5.625zm1.359375 -2.359375q-0.890625 0.328125 -1.90625 0.265625q-2.421875 -0.171875 -2.46875 -3.75q0.109375 -2.765625 2.203125 -4.265625q0.515625 -0.390625 1.375 -0.609375q1.25 -0.296875 2.375 0.421875q-0.53125 1.890625 -0.109375 6.9375q-1.046875 0.84375 -1.46875 1.0zm10.78125 -17.171875q-1.046875 0 -1.078125 1.09375l-0.125 5.546875q-1.359375 0.015625 -2.703125 0.015625q-1.125 0 -1.125 1.171875q0 1.15625 1.015625 1.15625q1.375 0 2.75 0l-0.203125 9.109375q-0.03125 1.265625 1.03125 1.28125q1.265625 0.03125 1.265625 -1.25l0.203125 -9.140625q1.25 0 2.515625 0q1.359375 0 1.359375 -1.203125q0 -1.171875 -1.4375 -1.171875l-2.375 0.015625q0.078125 -2.46875 0.109375 -5.453125q0 -1.171875 -1.203125 -1.171875zm8.574219 13.796875l7.875 -1.140625q1.265625 -0.171875 1.3125 -1.609375q0.046875 -1.796875 -1.390625 -3.203125q-1.515625 -1.5 -4.234375 -1.328125q-2.59375 0.15625 -4.234375 2.515625q-1.3125 1.890625 -1.3125 4.296875q0 2.9375 2.078125 4.640625q1.6875 1.390625 3.921875 1.40625q3.046875 0.03125 4.921875 -1.640625q1.0625 -0.953125 0.515625 -2.03125q-0.234375 -0.46875 -0.796875 -0.359375q-0.5 0.109375 -1.296875 0.984375q-0.8125 0.921875 -3.203125 0.9375q-1.640625 0.015625 -2.953125 -1.140625q-1.140625 -1.0 -1.203125 -2.328125zm0.265625 -1.9375q0.328125 -1.15625 0.84375 -1.796875q1.171875 -1.4375 2.78125 -1.4375q1.171875 -0.015625 2.203125 0.640625q0.890625 0.578125 1.0625 1.59375l-6.890625 1.0z" fill-rule="nonzero"/><path fill="#000000" fill-opacity="0.0" d="m243.93176 176.27034l110.01575 188.31496" fill-rule="evenodd"/><path stroke="#3c78d8" stroke-width="3.0" stroke-linejoin="round" stroke-linecap="butt" d="m243.93176 176.27034l110.01575 188.31496" fill-rule="evenodd"/><path fill="#000000" fill-opacity="0.0" d="m353.93964 652.2677l0 -581.4488" fill-rule="evenodd"/><path stroke="#000000" stroke-width="3.0" stroke-linejoin="round" stroke-linecap="butt" d="m353.93964 652.2677l0 -571.16754" fill-rule="evenodd"/><path fill="#000000" stroke="#000000" stroke-width="3.0" stroke-linecap="butt" d="m353.93964 81.10016l3.3737488 3.3737488l-3.3737488 -9.269302l-3.3737488 9.269302z" fill-rule="evenodd"/><path fill="#000000" fill-opacity="0.0" d="m33.212597 364.95276l678.5512 0" fill-rule="evenodd"/><path stroke="#000000" stroke-width="3.0" stroke-linejoin="round" stroke-linecap="butt" d="m33.212597 364.95276l668.26996 0" fill-rule="evenodd"/><path fill="#000000" stroke="#000000" stroke-width="3.0" stroke-linecap="butt" d="m701.48254 364.95276l-3.3737793 3.3737488l9.269287 -3.3737488l-9.269287 -3.3737488z" fill-rule="evenodd"/><path fill="#000000" fill-opacity="0.0" d="m353.2152 364.53806c25.716522 68.1727 97.50876 118.25885 153.89697 103.31799c16.309265 -4.3213806 31.991272 -18.12735 41.97168 -35.762085c10.193054 -18.010406 9.994751 -43.717438 9.994751 -66.232086" fill-rule="evenodd"/><path stroke="#3c78d8" stroke-width="3.0" stroke-linejoin="round" stroke-linecap="butt" d="m353.2152 364.53806c25.716522 68.1727 97.50876 118.25885 153.897 103.31799c16.309235 -4.3213806 31.991241 -18.12732 41.97165 -35.762054c5.0965576 -9.005249 7.595215 -19.9346 8.819763 -31.427002c0.30615234 -2.8730774 0.5326538 -5.781372 0.7001953 -8.703583c0.08380127 -1.4611206 0.15283203 -2.9256897 0.2097168 -4.3911133c0.028442383 -0.73269653 0.053894043 -1.4655762 0.076538086 -2.1983643l0.041503906 -1.5126648" fill-rule="evenodd"/><path stroke="#3c78d8" stroke-width="3.0" stroke-linecap="butt" d="m563.8866 383.90176l-4.843811 -13.654327l-5.066284 13.573364z" fill-rule="evenodd"/></g></svg>