<svg version="1.1" viewBox="0.0 0.0 745.1679790026246 495.0498687664042" fill="none" stroke="none" stroke-linecap="square" stroke-miterlimit="10" xmlns:xlink="http://www.w3.org/1999/xlink" xmlns="http://www.w3.org/2000/svg"><clipPath id="p.0"><path d="m0 0l745.16797 0l0 495.04987l-745.16797 0l0 -495.04987z" clip-rule="nonzero"/></clipPath><g clip-path="url(#p.0)"><path fill="#ffffff" d="m0 0l745.16797 0l0 495.04987l-745.16797 0z" fill-rule="evenodd"/><path fill="#000000" fill-opacity="0.0" d="m31.28084 250.84776l0 0c0 -123.259514 103.49626 -223.18109 231.16536 -223.18109l0 0c61.30887 0 120.10666 23.513655 163.45859 65.36823c43.3519 41.854584 67.70676 98.62157 67.70676 157.81287l0 0c0 123.25954 -103.49625 223.1811 -231.16534 223.1811l0 0c-127.6691 0 -231.16536 -99.92157 -231.16536 -223.1811z" fill-rule="evenodd"/><path stroke="#000000" stroke-width="3.0" stroke-linejoin="round" stroke-linecap="butt" d="m31.28084 250.84776l0 0c0 -123.259514 103.49626 -223.18109 231.16536 -223.18109l0 0c61.30887 0 120.10666 23.513655 163.45859 65.36823c43.3519 41.854584 67.70676 98.62157 67.70676 157.81287l0 0c0 123.25954 -103.49625 223.1811 -231.16534 223.1811l0 0c-127.6691 0 -231.16536 -99.92157 -231.16536 -223.1811z" fill-rule="evenodd"/><path fill="#000000" fill-opacity="0.0" d="m550.41754 124.593185l213.60632 0l0 84.031494l-213.60632 0z" fill-rule="evenodd"/><path fill="#3c78d8" d="m560.0738 154.13069q0 -0.859375 0.15625 -2.3125q0.171875 -1.453125 0.53125 -3.109375q0.359375 -1.671875 0.890625 -3.375q0.53125 -1.703125 1.265625 -3.09375q0.75 -1.40625 1.75 -2.34375q1.015625 -0.9375 2.28125 -0.9375q0.75 0 1.28125 0.28125q0.546875 0.28125 0.90625 0.75q0.359375 0.46875 0.515625 1.046875q0.15625 0.5625 0.15625 1.625q-1.03125 0 -1.390625 -0.3125q-0.359375 -0.3125 -0.59375 -0.59375q-0.234375 -0.296875 -0.421875 -0.46875q-0.171875 -0.1875 -0.421875 -0.1875q-0.640625 0 -1.265625 0.703125q-0.625 0.703125 -1.1875 1.890625q-0.546875 1.171875 -0.984375 2.65625q-0.4375 1.46875 -0.734375 2.875q-0.28125 1.40625 -0.4375 2.546875q-0.15625 1.140625 -0.15625 1.671875q0 0.75 0.0625 1.421875q0.078125 0.65625 0.296875 1.15625q0.234375 0.5 0.625 0.78125q0.390625 0.28125 1.1875 0.28125q0.90625 0 1.859375 -0.625q0.96875 -0.640625 1.8125 -1.578125q0.859375 -0.9375 1.484375 -2.0q0.625 -1.078125 0.984375 -2.078125q0.28125 -0.09375 0.484375 -0.109375q0.21875 -0.015625 0.296875 -0.015625q0.359375 0 0.8125 0.109375q0.453125 0.09375 0.453125 0.875q-0.171875 0.953125 -0.78125 1.921875q-0.609375 0.96875 -1.421875 1.890625q-0.796875 0.90625 -1.765625 1.671875q-0.953125 0.765625 -1.875 1.3125q-0.921875 0.546875 -1.78125 0.765625q-0.84375 0.234375 -1.359375 -0.03125q-0.90625 0 -1.609375 -0.546875q-0.703125 -0.5625 -1.125 -1.328125q-0.40625 -0.765625 -0.59375 -1.609375q-0.1875 -0.859375 -0.1875 -1.578125zm21.224121 4.015625q-0.125 -0.65625 -0.21875 -1.609375q-0.09375 -0.953125 -0.203125 -1.921875q-0.09375 -0.984375 -0.234375 -1.796875q-0.125 -0.8125 -0.015625 -0.796875q-0.96875 2.203125 -2.015625 3.78125q-1.03125 1.578125 -1.890625 2.3125q-0.859375 0.734375 -1.546875 0.703125q-0.6875 -0.03125 -1.125 -0.578125q-0.421875 -0.5625 -0.578125 -1.296875q-0.15625 -0.75 -0.203125 -1.390625q0 -0.640625 0.265625 -1.71875q0.265625 -1.078125 0.71875 -2.328125q0.453125 -1.25 1.0625 -2.546875q0.625 -1.3125 1.34375 -2.375q0.734375 -1.078125 1.5625 -1.828125q0.84375 -0.75 1.71875 -0.75q1.3125 -0.203125 1.984375 0.625q0.671875 0.828125 0.296875 2.546875q0 1.65625 0.140625 2.859375q0.140625 1.203125 0.3125 2.328125q0.171875 1.109375 0.3125 2.359375q0.140625 1.234375 0.140625 2.96875q0 0.375 -0.109375 0.765625q-0.109375 0.390625 -1.0 0.390625q-0.25 0 -0.484375 -0.25q-0.234375 -0.25 -0.234375 -0.453125zm-1.390625 -11.546875q0.015625 0.015625 -0.28125 0.234375q-0.296875 0.203125 -0.828125 0.953125q-0.515625 0.734375 -1.078125 1.8125q-0.5625 1.0625 -1.0625 2.171875q-0.484375 1.109375 -0.84375 2.09375q-0.34375 0.96875 -0.46875 1.5625q0 0.609375 0.03125 0.625q0.046875 0.015625 0.34375 -0.296875q0.3125 -0.3125 0.828125 -1.0625q0.53125 -0.765625 1.03125 -1.640625q0.5 -0.875 0.953125 -1.6875q0.453125 -0.828125 0.703125 -1.34375q0.21875 -0.515625 0.34375 -0.953125q0.125 -0.453125 0.203125 -0.859375q0.09375 -0.40625 0.109375 -0.8125q0.015625 -0.421875 0.015625 -0.796875zm5.69928 11.953125q-0.296875 -3.59375 -0.515625 -7.109375q-0.21875 -3.53125 -0.484375 -7.34375q0 -1.046875 1.078125 -1.046875l0.21875 0q0.328125 0 0.5 0.34375q0.171875 0.328125 0.296875 0.9375q0.125 0.59375 0.265625 1.734375q0.140625 1.140625 0.34375 2.96875q0.21875 1.8125 0.265625 2.71875q-0.03125 0.015625 0.28125 -1.65625q0.3125 -1.671875 0.8125 -3.078125q0.515625 -1.421875 1.46875 -2.546875q0.96875 -1.125 2.859375 -1.671875q1.21875 0.203125 1.84375 1.296875q0.640625 1.078125 1.0 2.5625q0.359375 1.46875 0.484375 3.171875q0.125 1.703125 0.15625 3.25q0.03125 1.53125 0.03125 2.734375q0 1.203125 0.046875 1.8125q-0.140625 0.359375 -0.359375 0.59375q-0.21875 0.21875 -0.515625 0.3125q-0.296875 0.09375 -0.609375 0.03125q-0.3125 -0.078125 -0.625 -0.546875q0 -0.390625 -0.0625 -1.265625q-0.046875 -0.875 -0.125 -2.0625q-0.078125 -1.1875 -0.171875 -2.515625q-0.09375 -1.34375 -0.15625 -2.53125q-0.0625 -1.203125 -0.125 -2.078125q-0.046875 -0.890625 -0.0625 -1.078125q-0.40625 -0.71875 -0.765625 -0.796875q-0.34375 -0.09375 -0.765625 0.28125q-0.421875 0.359375 -0.890625 1.28125q-0.46875 0.90625 -0.90625 2.109375q-0.4375 1.1875 -0.828125 2.515625q-0.390625 1.3125 -0.671875 2.53125q-0.28125 1.21875 -0.46875 2.21875q-0.1875 1.0 -0.265625 1.59375q-0.140625 0.328125 -0.46875 0.5625q-0.3125 0.21875 -0.65625 0.328125q-0.34375 0.09375 -0.765625 0.03125q-0.421875 -0.0625 -0.6875 -0.59375zm25.026733 0.0625q-0.125 -2.046875 -0.09375 -4.375q0.046875 -2.34375 0.125 -5.015625q0.078125 -2.6875 0.140625 -5.8125q0.0625 -3.140625 0.015625 -7.265625q0.65625 0 0.984375 -0.03125q0.328125 -0.046875 0.65625 0q0.328125 0.03125 0.609375 0.25q0.296875 0.21875 0.296875 0.765625q0 0.984375 -0.0625 2.25q-0.0625 1.265625 -0.171875 2.765625q-0.09375 1.484375 -0.171875 3.203125q-0.0625 1.71875 -0.0625 2.40625q0.21875 -0.265625 1.015625 -1.046875q0.8125 -0.78125 1.5625 -1.265625q0.75 -0.5 1.484375 -0.625q0.75 -0.125 1.4375 -0.078125q0.890625 0 1.46875 0.5q0.578125 0.484375 0.859375 1.1875q0.28125 0.6875 0.390625 1.5q0.109375 0.8125 0.109375 1.5625q0 0.546875 -0.0625 1.171875q-0.0625 0.625 -0.3125 1.359375q-0.25 0.734375 -0.765625 1.53125q-0.515625 0.78125 -1.40625 1.640625q-0.890625 0.859375 -2.234375 1.765625q-1.328125 0.90625 -3.25 1.859375q-0.703125 0.21875 -1.125 0.265625q-0.40625 0.03125 -0.65625 0.015625q-0.25 -0.015625 -0.515625 -0.078125q-0.265625 -0.078125 -0.265625 -0.40625zm1.609375 -1.71875q-0.15625 -0.296875 0.421875 -0.5625q0.578125 -0.28125 1.34375 -0.703125q0.765625 -0.4375 1.65625 -1.046875q0.890625 -0.609375 1.625 -1.40625q0.734375 -0.796875 1.25 -1.765625q0.515625 -0.984375 0.609375 -2.140625q0 -0.296875 -0.09375 -0.65625q-0.09375 -0.375 -0.28125 -0.671875q-0.1875 -0.296875 -0.4375 -0.484375q-0.25 -0.1875 -0.578125 -0.1875q-0.859375 0 -1.625 0.484375q-0.765625 0.46875 -1.4375 1.21875q-0.671875 0.75 -1.203125 1.625q-0.53125 0.859375 -0.828125 1.515625l-0.421875 4.78125zm11.651672 -3.59375q0.046875 0.28125 -0.25 0.34375q-0.28125 0.046875 -0.640625 0.015625q-0.359375 -0.03125 -0.71875 -0.234375q-0.359375 -0.21875 -0.359375 -0.765625q0 -0.34375 0.140625 -0.484375q0.140625 -0.140625 0.34375 -0.3125q0.515625 -0.421875 0.890625 -1.109375q0.375 -0.703125 0.703125 -1.53125q0.34375 -0.84375 0.734375 -1.71875q0.390625 -0.875 0.921875 -1.59375q0.53125 -0.734375 1.34375 -1.203125q0.8125 -0.46875 2.0 -0.4375q0.515625 0 1.125 0.234375q0.609375 0.234375 1.125 0.625q0.515625 0.390625 0.875 0.96875q0.375 0.5625 0.375 1.171875q0.21875 0.390625 -0.28125 0.90625q-0.484375 0.515625 -1.171875 0.984375q-0.671875 0.46875 -1.5 0.96875q-0.8125 0.484375 -1.578125 0.90625q-0.765625 0.40625 -1.3125 0.71875q-0.546875 0.296875 -0.640625 0.359375q-0.0625 0.140625 -0.140625 0.453125q-0.0625 0.3125 -0.109375 0.59375q-0.03125 0.28125 -0.046875 0.515625q-0.015625 0.234375 -0.015625 0.34375q0 0.515625 -0.046875 1.09375q-0.03125 0.578125 0.046875 1.03125q0.078125 0.453125 0.3125 0.703125q0.234375 0.234375 0.875 0.234375q0.75 0 1.421875 -0.390625q0.6875 -0.390625 1.296875 -0.984375q0.625 -0.59375 1.15625 -1.3125q0.53125 -0.71875 0.953125 -1.359375q0.4375 -0.640625 0.84375 -1.125q0.40625 -0.5 0.828125 -0.5q0.328125 0 0.796875 0.140625q0.46875 0.125 0.46875 0.78125q0 0.578125 -0.421875 1.296875q-0.40625 0.703125 -1.046875 1.453125q-0.625 0.75 -1.4375 1.484375q-0.8125 0.734375 -1.640625 1.328125q-0.828125 0.578125 -1.671875 0.953125q-0.828125 0.375 -1.53125 0.375q-1.34375 0 -2.03125 -0.671875q-0.6875 -0.671875 -0.96875 -1.609375q-0.265625 -0.9375 -0.28125 -1.9375q-0.015625 -1.015625 0.265625 -1.703125zm4.890625 -6.765625q-0.28125 0 -0.703125 0.359375q-0.40625 0.359375 -0.8125 0.953125q-0.40625 0.578125 -0.65625 1.15625q-0.25 0.5625 -0.265625 0.515625q-0.078125 -0.015625 0.609375 -0.28125q0.6875 -0.28125 1.375 -0.703125q0.703125 -0.4375 1.171875 -0.859375q0.46875 -0.421875 0.46875 -0.6875q0 -0.046875 -0.09375 -0.125q-0.09375 -0.078125 -0.296875 -0.15625q-0.1875 -0.078125 -0.40625 -0.125q-0.21875 -0.046875 -0.390625 -0.046875zm23.688416 11.796875q-0.171875 -0.46875 -0.484375 -1.296875q-0.3125 -0.84375 -0.703125 -1.875q-0.390625 -1.046875 -0.828125 -2.21875q-0.4375 -1.171875 -0.828125 -2.203125q-0.390625 -1.046875 -0.703125 -1.875q-0.3125 -0.84375 -0.453125 -1.21875q-0.15625 -0.234375 -0.296875 -0.578125q-0.140625 -0.359375 -0.140625 -0.734375q0 -0.390625 0.1875 -0.734375q0.1875 -0.359375 0.6875 -0.546875q0.515625 0 0.828125 0.28125q0.3125 0.28125 0.453125 0.625l2.5625 7.46875q-0.328125 -0.03125 -0.21875 -0.984375q0.109375 -0.96875 0.203125 -2.03125q0.109375 -1.0625 0.203125 -2.015625q0.09375 -0.953125 0.140625 -1.3125q0.03125 -0.25 0.046875 -0.609375q0.03125 -0.359375 0.140625 -0.734375q0.125 -0.375 0.40625 -0.703125q0.28125 -0.34375 0.828125 -0.34375q0.328125 0 0.546875 0.09375q0.21875 0.078125 0.4375 0.46875l4.25 7.234375l0 -7.703125q1.375 0 1.765625 0.515625q0.390625 0.5 0.453125 1.125q0.078125 0.625 0 1.265625q-0.078125 0.625 -0.046875 1.078125q0 0.1875 0.015625 0.796875q0.03125 0.59375 0.0625 1.375q0.046875 0.78125 0.078125 1.671875q0.03125 0.890625 0.0625 1.671875q0.046875 0.78125 0.0625 1.390625q0.03125 0.59375 0.03125 0.71875q0.25 0.71875 -0.125 1.046875q-0.359375 0.328125 -0.84375 0.25q-0.484375 -0.078125 -0.90625 -0.375q-0.421875 -0.296875 -0.5625 -0.671875l-4.609375 -7.796875q-0.109375 2.5625 -0.296875 5.203125q-0.171875 2.625 -0.328125 4.453125q-0.15625 0.609375 -0.546875 0.65625q-0.375 0.046875 -0.65625 -0.078125q-0.28125 -0.140625 -0.484375 -0.34375q-0.203125 -0.21875 -0.390625 -0.40625zm11.426392 -12.0625l0 -0.234375q0 -0.515625 0.34375 -0.6875q0.359375 -0.1875 0.71875 -0.1875q0.25 0 0.5625 0.0625q0.3125 0.0625 0.5 0.5625q0.09375 0.4375 0.171875 1.140625q0.078125 0.703125 0.1875 1.53125q0.109375 0.828125 0.21875 1.765625q0.125 0.921875 0.234375 1.734375q0.125 0.796875 0.234375 1.421875q0.125 0.625 -0.203125 0.71875q-0.390625 -2.140625 -0.15625 -4.03125q0.25 -1.890625 0.96875 -3.15625q0.71875 -1.265625 1.984375 -1.765625q1.28125 -0.5 3.109375 -0.21875q1.1875 0 1.1875 1.265625q0 0.640625 -0.625 0.8125q-0.609375 0.15625 -1.171875 0.203125q-0.5625 0.03125 -1.015625 0.078125q-0.453125 0.046875 -0.609375 0.1875q-0.84375 0.484375 -1.1875 1.484375q-0.34375 1.0 -0.5 2.453125q-0.15625 1.4375 -0.21875 3.203125q-0.0625 1.75 -0.34375 3.609375q0 0.4375 -0.359375 0.671875q-0.34375 0.21875 -0.75 0.21875q-0.40625 0 -0.78125 -0.171875q-0.359375 -0.1875 -0.625 -0.609375l-1.875 -12.0625zm11.818787 11.984375q0 -1.6875 -0.0625 -3.546875q-0.0625 -1.875 -0.140625 -3.78125q-0.0625 -1.921875 -0.03125 -3.78125q0.03125 -1.875 0.265625 -3.6875q0.28125 -0.1875 0.53125 -0.203125q0.265625 -0.03125 0.359375 -0.03125q0.484375 0 0.84375 0.203125q0.375 0.1875 0.375 0.828125q0 1.546875 -0.015625 3.359375q-0.015625 1.796875 -0.03125 3.65625q0 1.859375 0 3.6875q0 1.828125 0.046875 3.296875q0.046875 0.65625 -0.296875 0.90625q-0.34375 0.234375 -0.765625 0.234375q-0.4375 0 -0.796875 -0.234375q-0.34375 -0.25 -0.28125 -0.90625zm-0.578125 -18.625q0 -0.5625 0.359375 -0.75q0.375 -0.1875 0.734375 -0.1875q0.796875 0 0.984375 0.515625q0.203125 0.5 0.203125 1.125q-0.265625 0.484375 -0.625 0.671875q-0.359375 0.171875 -0.765625 0.078125q-0.390625 -0.109375 -0.640625 -0.484375q-0.25 -0.375 -0.25 -0.96875zm5.462158 8.34375q0.125 0.1875 -0.109375 0.328125q-0.21875 0.125 -0.453125 0.265625q-0.21875 0.125 -0.5 0.203125q-0.28125 0.078125 -0.578125 0.015625q-0.359375 0 -0.515625 -0.3125q-0.171875 -0.328125 -0.25 -0.609375q-0.09375 -0.296875 -0.109375 -0.59375q-0.03125 -0.3125 0.046875 -0.671875l2.453125 -1.40625l0.15625 -6.453125q0.109375 -0.796875 0.6875 -0.671875q0.578125 0.109375 0.9375 0.1875q0.0625 0 0.234375 0.0625q0.1875 0.046875 0.46875 0.25q-0.0625 0.9375 -0.125 1.765625q-0.0625 0.8125 -0.125 1.625q-0.046875 0.8125 -0.0625 1.578125q-0.015625 0.765625 0 0.890625l3.453125 -0.96875q0.46875 -0.140625 0.59375 0.21875q0.140625 0.359375 0.203125 0.625q0.078125 0.25 0.125 0.65625q0.046875 0.390625 0.046875 0.390625l-4.5 1.859375q0.046875 -0.015625 0.078125 0.875q0.046875 0.875 0.09375 2.09375q0.046875 1.203125 0.09375 2.59375q0.0625 1.390625 0.109375 2.59375q0.0625 1.1875 0.078125 2.09375q0.03125 0.90625 0.03125 1.15625q-0.078125 1.171875 -0.75 1.171875q-0.65625 0 -1.375 -0.59375l-0.4375 -11.21875zm7.9867554 0q0.125 0.1875 -0.109375 0.328125q-0.21875 0.125 -0.453125 0.265625q-0.21875 0.125 -0.5 0.203125q-0.28125 0.078125 -0.578125 0.015625q-0.359375 0 -0.515625 -0.3125q-0.171875 -0.328125 -0.25 -0.609375q-0.09375 -0.296875 -0.109375 -0.59375q-0.03125 -0.3125 0.046875 -0.671875l2.453125 -1.40625l0.15625 -6.453125q0.109375 -0.796875 0.6875 -0.671875q0.578125 0.109375 0.9375 0.1875q0.0625 0 0.234375 0.0625q0.1875 0.046875 0.46875 0.25q-0.0625 0.9375 -0.125 1.765625q-0.0625 0.8125 -0.125 1.625q-0.046875 0.8125 -0.0625 1.578125q-0.015625 0.765625 0 0.890625l3.453125 -0.96875q0.46875 -0.140625 0.59375 0.21875q0.140625 0.359375 0.203125 0.625q0.078125 0.25 0.125 0.65625q0.046875 0.390625 0.046875 0.390625l-4.5 1.859375q0.046875 -0.015625 0.078125 0.875q0.046875 0.875 0.09375 2.09375q0.046875 1.203125 0.09375 2.59375q0.0625 1.390625 0.109375 2.59375q0.0625 1.1875 0.078125 2.09375q0.03125 0.90625 0.03125 1.15625q-0.078125 1.171875 -0.75 1.171875q-0.65625 0 -1.375 -0.59375l-0.4375 -11.21875zm8.111816 5.328125q0.046875 0.28125 -0.25 0.34375q-0.28125 0.046875 -0.640625 0.015625q-0.359375 -0.03125 -0.71875 -0.234375q-0.359375 -0.21875 -0.359375 -0.765625q0 -0.34375 0.140625 -0.484375q0.140625 -0.140625 0.34375 -0.3125q0.515625 -0.421875 0.890625 -1.109375q0.375 -0.703125 0.703125 -1.53125q0.34375 -0.84375 0.734375 -1.71875q0.390625 -0.875 0.921875 -1.59375q0.53125 -0.734375 1.34375 -1.203125q0.8125 -0.46875 2.0 -0.4375q0.515625 0 1.125 0.234375q0.609375 0.234375 1.125 0.625q0.515625 0.390625 0.875 0.96875q0.375 0.5625 0.375 1.171875q0.21875 0.390625 -0.28125 0.90625q-0.484375 0.515625 -1.171875 0.984375q-0.671875 0.46875 -1.5 0.96875q-0.8125 0.484375 -1.578125 0.90625q-0.765625 0.40625 -1.3125 0.71875q-0.546875 0.296875 -0.640625 0.359375q-0.0625 0.140625 -0.140625 0.453125q-0.0625 0.3125 -0.109375 0.59375q-0.03125 0.28125 -0.046875 0.515625q-0.015625 0.234375 -0.015625 0.34375q0 0.515625 -0.046875 1.09375q-0.03125 0.578125 0.046875 1.03125q0.078125 0.453125 0.3125 0.703125q0.234375 0.234375 0.875 0.234375q0.75 0 1.421875 -0.390625q0.6875 -0.390625 1.296875 -0.984375q0.625 -0.59375 1.15625 -1.3125q0.53125 -0.71875 0.953125 -1.359375q0.4375 -0.640625 0.84375 -1.125q0.40625 -0.5 0.828125 -0.5q0.328125 0 0.796875 0.140625q0.46875 0.125 0.46875 0.78125q0 0.578125 -0.421875 1.296875q-0.40625 0.703125 -1.046875 1.453125q-0.625 0.75 -1.4375 1.484375q-0.8125 0.734375 -1.640625 1.328125q-0.828125 0.578125 -1.671875 0.953125q-0.828125 0.375 -1.53125 0.375q-1.34375 0 -2.03125 -0.671875q-0.6875 -0.671875 -0.96875 -1.609375q-0.265625 -0.9375 -0.28125 -1.9375q-0.015625 -1.015625 0.265625 -1.703125zm4.890625 -6.765625q-0.28125 0 -0.703125 0.359375q-0.40625 0.359375 -0.8125 0.953125q-0.40625 0.578125 -0.65625 1.15625q-0.25 0.5625 -0.265625 0.515625q-0.078125 -0.015625 0.609375 -0.28125q0.6875 -0.28125 1.375 -0.703125q0.703125 -0.4375 1.171875 -0.859375q0.46875 -0.421875 0.46875 -0.6875q0 -0.046875 -0.09375 -0.125q-0.09375 -0.078125 -0.296875 -0.15625q-0.1875 -0.078125 -0.40625 -0.125q-0.21875 -0.046875 -0.390625 -0.046875zm8.297241 12.015625q-0.296875 -3.59375 -0.515625 -7.109375q-0.21875 -3.53125 -0.484375 -7.34375q0 -1.046875 1.078125 -1.046875l0.21875 0q0.328125 0 0.5 0.34375q0.171875 0.328125 0.296875 0.9375q0.125 0.59375 0.265625 1.734375q0.140625 1.140625 0.34375 2.96875q0.21875 1.8125 0.265625 2.71875q-0.03125 0.015625 0.28125 -1.65625q0.3125 -1.671875 0.8125 -3.078125q0.515625 -1.421875 1.46875 -2.546875q0.96875 -1.125 2.859375 -1.671875q1.21875 0.203125 1.84375 1.296875q0.640625 1.078125 1.0 2.5625q0.359375 1.46875 0.484375 3.171875q0.125 1.703125 0.15625 3.25q0.03125 1.53125 0.03125 2.734375q0 1.203125 0.046875 1.8125q-0.140625 0.359375 -0.359375 0.59375q-0.21875 0.21875 -0.515625 0.3125q-0.296875 0.09375 -0.609375 0.03125q-0.3125 -0.078125 -0.625 -0.546875q0 -0.390625 -0.0625 -1.265625q-0.046875 -0.875 -0.125 -2.0625q-0.078125 -1.1875 -0.171875 -2.515625q-0.09375 -1.34375 -0.15625 -2.53125q-0.0625 -1.203125 -0.125 -2.078125q-0.046875 -0.890625 -0.0625 -1.078125q-0.40625 -0.71875 -0.765625 -0.796875q-0.34375 -0.09375 -0.765625 0.28125q-0.421875 0.359375 -0.890625 1.28125q-0.46875 0.90625 -0.90625 2.109375q-0.4375 1.1875 -0.828125 2.515625q-0.390625 1.3125 -0.671875 2.53125q-0.28125 1.21875 -0.46875 2.21875q-0.1875 1.0 -0.265625 1.59375q-0.140625 0.328125 -0.46875 0.5625q-0.3125 0.21875 -0.65625 0.328125q-0.34375 0.09375 -0.765625 0.03125q-0.421875 -0.0625 -0.6875 -0.59375z" fill-rule="nonzero"/><path fill="#3c78d8" d="m560.6363 189.42757q0.1875 -1.203125 0.25 -2.984375q0.0625 -1.78125 0.046875 -3.796875q0 -2.015625 -0.078125 -4.171875q-0.078125 -2.171875 -0.21875 -4.09375q-0.125 -1.9375 -0.296875 -3.453125q-0.171875 -1.53125 -0.390625 -2.65625q0.46875 -0.3125 0.6875 -0.4375q0.21875 -0.125 0.5625 -0.125q0.28125 0 0.53125 0.125q0.25 0.109375 0.40625 0.53125q0.515625 5.15625 0.703125 10.34375q0.203125 5.1875 0.3125 10.328125q0 0.234375 0 0.734375q0 0.484375 -0.203125 0.6875q-0.5 0.234375 -0.90625 0.234375q-0.390625 -0.015625 -0.703125 -0.21875q-0.3125 -0.203125 -0.515625 -0.453125q-0.1875 -0.265625 -0.1875 -0.59375zm4.373596 0.828125q0 -1.6875 -0.0625 -3.546875q-0.0625 -1.875 -0.140625 -3.78125q-0.0625 -1.921875 -0.03125 -3.78125q0.03125 -1.875 0.265625 -3.6875q0.28125 -0.1875 0.53125 -0.203125q0.265625 -0.03125 0.359375 -0.03125q0.484375 0 0.84375 0.203125q0.375 0.1875 0.375 0.828125q0 1.546875 -0.015625 3.359375q-0.015625 1.796875 -0.03125 3.65625q0 1.859375 0 3.6875q0 1.828125 0.046875 3.296875q0.046875 0.65625 -0.296875 0.90625q-0.34375 0.234375 -0.765625 0.234375q-0.4375 0 -0.796875 -0.234375q-0.34375 -0.25 -0.28125 -0.90625zm-0.578125 -18.625q0 -0.5625 0.359375 -0.75q0.375 -0.1875 0.734375 -0.1875q0.796875 0 0.984375 0.515625q0.203125 0.5 0.203125 1.125q-0.265625 0.484375 -0.625 0.671875q-0.359375 0.171875 -0.765625 0.078125q-0.390625 -0.109375 -0.640625 -0.484375q-0.25 -0.375 -0.25 -0.96875zm5.290283 -1.03125q0.859375 -0.796875 1.390625 -0.609375q0.546875 0.1875 0.734375 0.90625q0.1875 0.71875 0.21875 1.71875q0.03125 0.984375 -0.015625 2.203125q-0.03125 1.21875 -0.140625 2.578125q-0.109375 1.34375 -0.1875 2.625q-0.078125 1.28125 -0.109375 2.4375q-0.015625 1.15625 -0.234375 1.9375l0 -0.3125q0 0.296875 -0.203125 0.09375q1.3125 -1.328125 2.359375 -2.828125q1.0625 -1.5 1.921875 -2.828125q0.859375 -1.328125 1.546875 -2.359375q0.6875 -1.03125 1.421875 -1.5q0.609375 0 1.03125 0.203125q0.4375 0.1875 0.4375 0.921875q0 0.078125 -0.015625 0.203125q0 0.109375 0 0.234375q-0.703125 1.421875 -1.5 2.78125q-0.78125 1.359375 -1.71875 2.640625q-0.921875 1.265625 -2.0 2.40625q-1.0625 1.140625 -2.5 1.765625q0.34375 0.03125 0.328125 0.09375q0 0.0625 0 0.0625q0 0.046875 0.328125 0.28125q0.328125 0.234375 0.96875 0.515625q0.640625 0.28125 1.4375 0.5625q0.796875 0.28125 1.578125 0.484375q0.78125 0.203125 1.4375 0.328125q0.65625 0.125 1.421875 0.125q0 0.5 0.015625 0.8125q0.015625 0.296875 -0.046875 0.65625q-0.0625 0.359375 -0.265625 0.75q-0.1875 0.390625 -0.734375 0.390625l-0.09375 0q-0.3125 0 -0.140625 -0.375l-6.984375 -2.453125q-0.015625 0.984375 -0.21875 1.984375q-0.1875 1.0 -0.515625 1.59375q-0.3125 0.59375 -0.828125 0.546875q-0.515625 -0.03125 -0.890625 -0.71875l0.765625 -20.859375zm12.552795 14.703125q0.046875 0.28125 -0.25 0.34375q-0.28125 0.046875 -0.640625 0.015625q-0.359375 -0.03125 -0.71875 -0.234375q-0.359375 -0.21875 -0.359375 -0.765625q0 -0.34375 0.140625 -0.484375q0.140625 -0.140625 0.34375 -0.3125q0.515625 -0.421875 0.890625 -1.109375q0.375 -0.703125 0.703125 -1.53125q0.34375 -0.84375 0.734375 -1.71875q0.390625 -0.875 0.921875 -1.59375q0.53125 -0.734375 1.34375 -1.203125q0.8125 -0.46875 2.0 -0.4375q0.515625 0 1.125 0.234375q0.609375 0.234375 1.125 0.625q0.515625 0.390625 0.875 0.96875q0.375 0.5625 0.375 1.171875q0.21875 0.390625 -0.28125 0.90625q-0.484375 0.515625 -1.171875 0.984375q-0.671875 0.46875 -1.5 0.96875q-0.8125 0.484375 -1.578125 0.90625q-0.765625 0.40625 -1.3125 0.71875q-0.546875 0.296875 -0.640625 0.359375q-0.0625 0.140625 -0.140625 0.453125q-0.0625 0.3125 -0.109375 0.59375q-0.03125 0.28125 -0.046875 0.515625q-0.015625 0.234375 -0.015625 0.34375q0 0.515625 -0.046875 1.09375q-0.03125 0.578125 0.046875 1.03125q0.078125 0.453125 0.3125 0.703125q0.234375 0.234375 0.875 0.234375q0.75 0 1.421875 -0.390625q0.6875 -0.390625 1.296875 -0.984375q0.625 -0.59375 1.15625 -1.3125q0.53125 -0.71875 0.953125 -1.359375q0.4375 -0.640625 0.84375 -1.125q0.40625 -0.5 0.828125 -0.5q0.328125 0 0.796875 0.140625q0.46875 0.125 0.46875 0.78125q0 0.578125 -0.421875 1.296875q-0.40625 0.703125 -1.046875 1.453125q-0.625 0.75 -1.4375 1.484375q-0.8125 0.734375 -1.640625 1.328125q-0.828125 0.578125 -1.671875 0.953125q-0.828125 0.375 -1.53125 0.375q-1.34375 0 -2.03125 -0.671875q-0.6875 -0.671875 -0.96875 -1.609375q-0.265625 -0.9375 -0.28125 -1.9375q-0.015625 -1.015625 0.265625 -1.703125zm4.890625 -6.765625q-0.28125 0 -0.703125 0.359375q-0.40625 0.359375 -0.8125 0.953125q-0.40625 0.578125 -0.65625 1.15625q-0.25 0.5625 -0.265625 0.515625q-0.078125 -0.015625 0.609375 -0.28125q0.6875 -0.28125 1.375 -0.703125q0.703125 -0.4375 1.171875 -0.859375q0.46875 -0.421875 0.46875 -0.6875q0 -0.046875 -0.09375 -0.125q-0.09375 -0.078125 -0.296875 -0.15625q-0.1875 -0.078125 -0.40625 -0.125q-0.21875 -0.046875 -0.390625 -0.046875zm20.125916 1.4375q0.125 0.1875 -0.109375 0.328125q-0.21875 0.125 -0.453125 0.265625q-0.21875 0.125 -0.5 0.203125q-0.28125 0.078125 -0.578125 0.015625q-0.359375 0 -0.515625 -0.3125q-0.171875 -0.328125 -0.25 -0.609375q-0.09375 -0.296875 -0.109375 -0.59375q-0.03125 -0.3125 0.046875 -0.671875l2.453125 -1.40625l0.15625 -6.453125q0.109375 -0.796875 0.6875 -0.671875q0.578125 0.109375 0.9375 0.1875q0.0625 0 0.234375 0.0625q0.1875 0.046875 0.46875 0.25q-0.0625 0.9375 -0.125 1.765625q-0.0625 0.8125 -0.125 1.625q-0.046875 0.8125 -0.0625 1.578125q-0.015625 0.765625 0 0.890625l3.453125 -0.96875q0.46875 -0.140625 0.59375 0.21875q0.140625 0.359375 0.203125 0.625q0.078125 0.25 0.125 0.65625q0.046875 0.390625 0.046875 0.390625l-4.5 1.859375q0.046875 -0.015625 0.078125 0.875q0.046875 0.875 0.09375 2.09375q0.046875 1.203125 0.09375 2.59375q0.0625 1.390625 0.109375 2.59375q0.0625 1.1875 0.078125 2.09375q0.03125 0.90625 0.03125 1.15625q-0.078125 1.171875 -0.75 1.171875q-0.65625 0 -1.375 -0.59375l-0.4375 -11.21875zm16.393066 -0.28125q-0.484375 -0.1875 -1.265625 0.375q-0.765625 0.5625 -1.546875 1.71875q-0.765625 1.140625 -1.484375 2.640625q-0.71875 1.484375 -1.359375 2.84375q-0.625 1.359375 -1.171875 2.40625q-0.546875 1.03125 -1.203125 1.203125q-0.484375 0 -0.796875 -0.21875q-0.296875 -0.21875 -0.296875 -0.890625l0 -18.296875q0 -0.546875 0.375 -0.640625q0.390625 -0.109375 0.6875 -0.078125q0.3125 0.03125 0.59375 0.171875q0.296875 0.125 0.484375 0.4375l0.078125 14.203125q-0.234375 -0.078125 0 -0.890625q0.234375 -0.828125 0.578125 -1.8125q0.359375 -1.0 0.828125 -2.0q0.46875 -1.015625 1.1875 -1.84375q0.734375 -0.84375 1.796875 -1.3125q1.0625 -0.484375 2.46875 -0.34375q1.046875 0 1.703125 0.6875q0.671875 0.671875 0.703125 1.734375l0.25 10.40625q0 0.140625 -0.0625 0.421875q-0.046875 0.28125 -0.3125 0.515625q-0.265625 0.234375 -0.6875 0.28125q-0.40625 0.0625 -1.234375 -0.265625l-0.3125 -11.453125zm4.349304 10.5625q0 -1.6875 -0.0625 -3.546875q-0.0625 -1.875 -0.140625 -3.78125q-0.0625 -1.921875 -0.03125 -3.78125q0.03125 -1.875 0.265625 -3.6875q0.28125 -0.1875 0.53125 -0.203125q0.265625 -0.03125 0.359375 -0.03125q0.484375 0 0.84375 0.203125q0.375 0.1875 0.375 0.828125q0 1.546875 -0.015625 3.359375q-0.015625 1.796875 -0.03125 3.65625q0 1.859375 0 3.6875q0 1.828125 0.046875 3.296875q0.046875 0.65625 -0.296875 0.90625q-0.34375 0.234375 -0.765625 0.234375q-0.4375 0 -0.796875 -0.234375q-0.34375 -0.25 -0.28125 -0.90625zm-0.578125 -18.625q0 -0.5625 0.359375 -0.75q0.375 -0.1875 0.734375 -0.1875q0.796875 0 0.984375 0.515625q0.203125 0.5 0.203125 1.125q-0.265625 0.484375 -0.625 0.671875q-0.359375 0.171875 -0.765625 0.078125q-0.390625 -0.109375 -0.640625 -0.484375q-0.25 -0.375 -0.25 -0.96875zm6.993408 18.765625q0.015625 0 0.453125 -0.5q0.453125 -0.5 1.203125 -1.046875q0.75 -0.546875 1.53125 -1.1875q0.796875 -0.65625 1.265625 -1.1875q0.46875 -0.546875 0.484375 -0.71875q0.015625 -0.171875 -0.375 -0.234375q-0.84375 -0.140625 -1.4375 0.015625q-0.578125 0.140625 -1.09375 0.34375q-0.5 0.203125 -1.0 0.40625q-0.5 0.1875 -1.125 0.140625q-1.359375 0 -1.875 -0.859375q-0.515625 -0.875 -0.515625 -2.203125q0 -1.3125 0.578125 -2.5q0.59375 -1.1875 1.5 -2.03125q0.921875 -0.859375 2.109375 -1.375q1.1875 -0.515625 2.4375 -0.515625q0.515625 0 1.03125 0.125q0.515625 0.109375 0.515625 0.96875q0 0.515625 -0.4375 0.96875q-0.421875 0.453125 -0.984375 0.453125q-0.109375 0 -0.28125 -0.0625q-0.15625 -0.0625 -0.265625 -0.140625q-0.09375 -0.078125 -0.109375 -0.203125q-0.015625 -0.140625 -0.078125 0.09375q-0.703125 -0.203125 -1.375 0.203125q-0.671875 0.40625 -1.25 1.140625q-0.578125 0.734375 -0.921875 1.609375q-0.328125 0.859375 -0.328125 1.5q0 0.171875 0.046875 0.234375q0.046875 0.0625 0.15625 0.109375q0.109375 0.03125 0.3125 0.046875q0.203125 0.015625 0.453125 0.015625q0.453125 0 0.953125 -0.140625q0.5 -0.15625 1.0 -0.359375q0.515625 -0.21875 1.078125 -0.375q0.578125 -0.171875 1.203125 -0.171875q0.359375 0 0.734375 0.1875q0.390625 0.1875 0.6875 0.5q0.3125 0.3125 0.53125 0.734375q0.234375 0.40625 0.25 0.84375q0.1875 0.453125 -0.09375 1.15625q-0.28125 0.703125 -0.8125 1.421875q-0.515625 0.703125 -1.234375 1.40625q-0.71875 0.703125 -1.453125 1.296875q-0.71875 0.578125 -1.46875 0.953125q-0.734375 0.390625 -1.3125 0.359375q-0.796875 0 -0.953125 -0.484375q-0.140625 -0.484375 0.265625 -0.9375zm8.152405 -0.8125q0.5 -0.53125 0.828125 -0.703125q0.328125 -0.1875 0.859375 -0.1875q1.109375 0 1.109375 1.078125q0 0.25 -0.125 0.515625q-0.125 0.25 -0.3125 0.484375q-0.171875 0.234375 -0.5 0.390625q-0.3125 0.15625 -0.4375 -0.046875q-0.125 0.25 -0.46875 0.140625q-0.34375 -0.109375 -0.5625 -0.328125q-0.21875 -0.21875 -0.359375 -0.53125q-0.125 -0.3125 -0.03125 -0.8125zm3.421875 0.015625q0.53125 -0.546875 0.875 -0.71875q0.34375 -0.1875 0.84375 -0.1875q1.109375 0 1.109375 1.078125q0 0.234375 -0.125 0.5q-0.109375 0.265625 -0.3125 0.5q-0.203125 0.234375 -0.515625 0.390625q-0.3125 0.15625 -0.4375 -0.0625q-0.09375 0.265625 -0.453125 0.15625q-0.359375 -0.109375 -0.59375 -0.328125q-0.21875 -0.234375 -0.328125 -0.53125q-0.09375 -0.296875 -0.0625 -0.796875zm3.484375 -0.03125q0.484375 -0.515625 0.8125 -0.6875q0.328125 -0.1875 0.859375 -0.1875q1.109375 0 1.109375 1.078125q0 0.25 -0.125 0.515625q-0.125 0.25 -0.328125 0.484375q-0.1875 0.21875 -0.46875 0.390625q-0.28125 0.15625 -0.4375 0.015625q-0.140625 0.1875 -0.484375 0.078125q-0.328125 -0.109375 -0.578125 -0.328125q-0.234375 -0.21875 -0.359375 -0.53125q-0.109375 -0.328125 0 -0.828125z" fill-rule="nonzero"/><path fill="#000000" fill-opacity="0.0" d="m187.90565 87.64829l239.2126 0l0 51.71653l-239.2126 0z" fill-rule="evenodd"/><path fill="#000000" d="m211.21815 104.670166q0.171875 -0.03125 0.125 0.59375q-0.03125 0.609375 -0.34375 1.609375q-0.3125 1.0 -0.671875 2.265625q-0.34375 1.265625 -0.765625 2.53125q-0.421875 1.25 -0.84375 2.359375q-0.421875 1.109375 -0.90625 1.8125q-0.484375 0.703125 -1.09375 0.828125q-0.609375 0.125 -1.015625 -0.984375q-0.1875 -0.34375 -0.5625 -1.140625q-0.375 -0.8125 -0.875 -1.78125q-0.5 -0.984375 -1.046875 -2.078125q-0.53125 -1.09375 -1.015625 -2.0625q-0.484375 -0.984375 -0.890625 -1.765625q-0.40625 -0.796875 -0.578125 -1.15625q-0.296875 -0.53125 -0.484375 -0.78125q-0.171875 -0.265625 -0.078125 -0.265625q0 1.390625 0.203125 3.5625q0.203125 2.171875 0.453125 4.421875q0.25 2.234375 0.453125 4.421875q0.21875 2.1875 0.21875 3.96875q0.15625 0.375 -0.125 0.734375q-0.265625 0.34375 -0.6875 0.484375q-0.421875 0.140625 -0.90625 0.015625q-0.484375 -0.109375 -0.859375 -0.671875q-0.25 -2.4375 -0.265625 -4.84375q0 -2.421875 -0.03125 -4.828125q-0.03125 -2.421875 -0.21875 -4.828125q-0.171875 -2.421875 -0.71875 -4.84375q-0.046875 -0.75 0.296875 -0.953125q0.34375 -0.21875 0.734375 -0.21875q0.734375 0 1.3125 0.34375q0.59375 0.34375 1.03125 0.84375q0.453125 0.484375 0.78125 1.0625q0.34375 0.5625 0.609375 1.0q0.21875 0.359375 0.578125 1.078125l0.84375 1.703125q0.46875 0.9375 0.96875 1.96875q0.5 1.015625 0.96875 1.953125q0.46875 0.921875 0.84375 1.625q0.390625 0.6875 0.359375 1.03125q-0.09375 -0.03125 -0.140625 -0.109375q-0.046875 -0.09375 0.078125 -0.40625q0.140625 -0.3125 0.375 -1.0625q0.234375 -0.75 0.671875 -2.078125q0.453125 -1.328125 1.09375 -3.359375q0.65625 -2.03125 1.609375 -4.984375q0.140625 -0.296875 0.53125 -0.4375q0.390625 -0.140625 0.703125 -0.140625q0.46875 0 0.640625 0.296875q0.171875 0.28125 0.234375 0.734375q0.234375 2.234375 0.375 4.640625q0.15625 2.40625 0.390625 4.859375q0.234375 2.453125 0.578125 4.859375q0.34375 2.40625 1.0625 4.921875l-2.640625 1.03125l-1.359375 -17.78125zm12.774139 16.53125q-0.125 -0.65625 -0.21875 -1.609375q-0.09375 -0.953125 -0.203125 -1.921875q-0.09375 -0.984375 -0.234375 -1.796875q-0.125 -0.8125 -0.015625 -0.796875q-0.96875 2.203125 -2.015625 3.78125q-1.03125 1.578125 -1.890625 2.3125q-0.859375 0.734375 -1.546875 0.703125q-0.6875 -0.03125 -1.125 -0.578125q-0.421875 -0.5625 -0.578125 -1.296875q-0.15625 -0.75 -0.203125 -1.390625q0 -0.640625 0.265625 -1.71875q0.265625 -1.078125 0.71875 -2.328125q0.453125 -1.25 1.0625 -2.546875q0.625 -1.3125 1.34375 -2.375q0.734375 -1.078125 1.5625 -1.828125q0.84375 -0.75 1.71875 -0.75q1.3125 -0.203125 1.984375 0.625q0.671875 0.828125 0.296875 2.546875q0 1.65625 0.140625 2.859375q0.140625 1.203125 0.3125 2.328125q0.171875 1.109375 0.3125 2.359375q0.140625 1.234375 0.140625 2.96875q0 0.375 -0.109375 0.765625q-0.109375 0.390625 -1.0 0.390625q-0.25 0 -0.484375 -0.25q-0.234375 -0.25 -0.234375 -0.453125zm-1.390625 -11.546875q0.015625 0.015625 -0.28125 0.234375q-0.296875 0.203125 -0.828125 0.953125q-0.515625 0.734375 -1.078125 1.8125q-0.5625 1.0625 -1.0625 2.171875q-0.484375 1.109375 -0.84375 2.09375q-0.34375 0.96875 -0.46875 1.5625q0 0.609375 0.03125 0.625q0.046875 0.015625 0.34375 -0.296875q0.3125 -0.3125 0.828125 -1.0625q0.53125 -0.765625 1.03125 -1.640625q0.5 -0.875 0.953125 -1.6875q0.453125 -0.828125 0.703125 -1.34375q0.21875 -0.515625 0.34375 -0.953125q0.125 -0.453125 0.203125 -0.859375q0.09375 -0.40625 0.109375 -0.8125q0.015625 -0.421875 0.015625 -0.796875zm5.5274353 1.375q0.125 0.1875 -0.109375 0.328125q-0.21875 0.125 -0.453125 0.265625q-0.21875 0.125 -0.5 0.203125q-0.28125 0.078125 -0.578125 0.015625q-0.359375 0 -0.515625 -0.3125q-0.171875 -0.328125 -0.25 -0.609375q-0.09375 -0.296875 -0.109375 -0.59375q-0.03125 -0.3125 0.046875 -0.671875l2.453125 -1.40625l0.15625 -6.453125q0.109375 -0.796875 0.6875 -0.671875q0.578125 0.109375 0.9375 0.1875q0.0625 0 0.234375 0.0625q0.1875 0.046875 0.46875 0.25q-0.0625 0.9375 -0.125 1.765625q-0.0625 0.8125 -0.125 1.625q-0.046875 0.8125 -0.0625 1.578125q-0.015625 0.765625 0 0.890625l3.453125 -0.96875q0.46875 -0.140625 0.59375 0.21875q0.140625 0.359375 0.203125 0.625q0.078125 0.25 0.125 0.65625q0.046875 0.390625 0.046875 0.390625l-4.5 1.859375q0.046875 -0.015625 0.078125 0.875q0.046875 0.875 0.09375 2.09375q0.046875 1.203125 0.09375 2.59375q0.0625 1.390625 0.109375 2.59375q0.0625 1.1875 0.078125 2.09375q0.03125 0.90625 0.03125 1.15625q-0.078125 1.171875 -0.75 1.171875q-0.65625 0 -1.375 -0.59375l-0.4375 -11.21875zm16.393036 -0.28125q-0.484375 -0.1875 -1.265625 0.375q-0.765625 0.5625 -1.546875 1.71875q-0.765625 1.140625 -1.484375 2.640625q-0.71875 1.484375 -1.359375 2.84375q-0.625 1.359375 -1.171875 2.40625q-0.546875 1.03125 -1.203125 1.203125q-0.484375 0 -0.796875 -0.21875q-0.296875 -0.21875 -0.296875 -0.890625l0 -18.296875q0 -0.546875 0.375 -0.640625q0.390625 -0.109375 0.6875 -0.078125q0.3125 0.03125 0.59375 0.171875q0.296875 0.125 0.484375 0.4375l0.078125 14.203125q-0.234375 -0.078125 0 -0.890625q0.234375 -0.828125 0.578125 -1.8125q0.359375 -1.0 0.828125 -2.0q0.46875 -1.015625 1.1875 -1.84375q0.734375 -0.84375 1.796875 -1.3125q1.0625 -0.484375 2.46875 -0.34375q1.046875 0 1.703125 0.6875q0.671875 0.671875 0.703125 1.734375l0.25 10.40625q0 0.140625 -0.0625 0.421875q-0.046875 0.28125 -0.3125 0.515625q-0.265625 0.234375 -0.6875 0.28125q-0.40625 0.0625 -1.234375 -0.265625l-0.3125 -11.453125zm4.989929 5.609375q0.046875 0.28125 -0.25 0.34375q-0.28125 0.046875 -0.640625 0.015625q-0.359375 -0.03125 -0.71875 -0.234375q-0.359375 -0.21875 -0.359375 -0.765625q0 -0.34375 0.140625 -0.484375q0.140625 -0.140625 0.34375 -0.3125q0.515625 -0.421875 0.890625 -1.109375q0.375 -0.703125 0.703125 -1.53125q0.34375 -0.84375 0.734375 -1.71875q0.390625 -0.875 0.921875 -1.59375q0.53125 -0.734375 1.34375 -1.203125q0.8125 -0.46875 2.0 -0.4375q0.515625 0 1.125 0.234375q0.60939026 0.234375 1.1250153 0.625q0.515625 0.390625 0.875 0.96875q0.375 0.5625 0.375 1.171875q0.21875 0.390625 -0.28125 0.90625q-0.484375 0.515625 -1.171875 0.984375q-0.67189026 0.46875 -1.5000153 0.96875q-0.8125 0.484375 -1.578125 0.90625q-0.765625 0.40625 -1.3125 0.71875q-0.546875 0.296875 -0.640625 0.359375q-0.0625 0.140625 -0.140625 0.453125q-0.0625 0.3125 -0.109375 0.59375q-0.03125 0.28125 -0.046875 0.515625q-0.015625 0.234375 -0.015625 0.34375q0 0.515625 -0.046875 1.09375q-0.03125 0.578125 0.046875 1.03125q0.078125 0.453125 0.3125 0.703125q0.234375 0.234375 0.875 0.234375q0.75 0 1.421875 -0.390625q0.6875 -0.390625 1.296875 -0.984375q0.625 -0.59375 1.1562653 -1.3125q0.53125 -0.71875 0.953125 -1.359375q0.4375 -0.640625 0.84375 -1.125q0.40625 -0.5 0.828125 -0.5q0.328125 0 0.796875 0.140625q0.46875 0.125 0.46875 0.78125q0 0.578125 -0.421875 1.296875q-0.40625 0.703125 -1.046875 1.453125q-0.625 0.75 -1.4375 1.484375q-0.8125 0.734375 -1.6406403 1.328125q-0.828125 0.578125 -1.671875 0.953125q-0.828125 0.375 -1.53125 0.375q-1.34375 0 -2.03125 -0.671875q-0.6875 -0.671875 -0.96875 -1.609375q-0.265625 -0.9375 -0.28125 -1.9375q-0.015625 -1.015625 0.265625 -1.703125zm4.890625 -6.765625q-0.28125 0 -0.703125 0.359375q-0.40625 0.359375 -0.8125 0.953125q-0.40625 0.578125 -0.65625 1.15625q-0.25 0.5625 -0.265625 0.515625q-0.078125 -0.015625 0.609375 -0.28125q0.6875 -0.28125 1.375 -0.703125q0.703125 -0.4375 1.171875 -0.859375q0.46875 -0.421875 0.46875 -0.6875q0 -0.046875 -0.09375 -0.125q-0.09375 -0.078125 -0.296875 -0.15625q-0.1875 -0.078125 -0.40625 -0.125q-0.21875 -0.046875 -0.390625 -0.046875zm8.281662 12.671875q-0.125 -1.203125 -0.1875 -2.453125q-0.046875 -1.265625 -0.09375 -2.734375q-0.046875 -1.46875 -0.125 -3.046875q-0.0625 -1.59375 -0.140625 -3.015625q-0.078125 -1.421875 -0.203125 -2.578125q-0.109375 -1.15625 -0.234375 -1.890625q0 -0.84375 0.390625 -0.984375q0.40625 -0.15625 0.84375 -0.15625q0.0625 0 0.265625 0q0.203125 0 0.546875 0.078125q0.328125 1.0625 0.390625 2.328125q0.0625 1.265625 0.09375 2.71875q0.046875 1.453125 0.078125 3.015625q0.046875 1.546875 -0.21875 2.984375q-0.046875 -2.125 0.203125 -3.484375q0.265625 -1.375 0.484375 -2.21875q0.234375 -0.84375 0.453125 -1.3125q0.234375 -0.484375 0.59375 -0.671875q0.359375 -0.1875 0.703125 -0.171875q0.359375 0.015625 0.765625 0.015625q0.65625 0 1.046875 0.46875q0.390625 0.46875 0.5625 1.109375q0.1875 0.625 0.28125 1.3125q0.09375 0.6875 0.171875 1.328125q0.078125 0.625 0.15625 1.078125q0.078125 0.453125 -0.171875 0.53125q0.359375 -1.734375 0.828125 -2.96875q0.46875 -1.234375 0.8125 -1.984375q0.359375 -0.75 0.671875 -1.125q0.3125 -0.390625 0.640625 -0.484375q0.328125 -0.09375 0.53125 -0.03125q0.203125 0.0625 0.3125 0.0625q0.953125 0 1.453125 0.96875q0.421875 1.234375 0.578125 2.328125q0.171875 1.078125 0.203125 2.078125q0.03125 0.984375 0.015625 1.859375q-0.015625 0.875 0.046875 1.6875q0.0625 0.796875 0.265625 1.5625q0.21875 0.75 0.859375 1.671875q-0.375 0.734375 -0.671875 0.9375q-0.296875 0.203125 -0.796875 0.203125q-0.46875 0 -0.796875 -0.296875q-0.3125 -0.296875 -0.5 -0.671875q-0.1875 -0.390625 -0.28125 -0.734375q-0.078125 -0.359375 -0.171875 -0.671875q-0.109375 -3.75 -0.3125 -5.59375q-0.203125 -1.84375 -0.34375 -1.875q-0.125 -0.03125 -0.75 1.640625q-0.609375 1.65625 -1.640625 5.59375q-0.203125 0.34375 -0.46875 0.390625q-0.265625 0.03125 -0.46875 0.03125q-0.1875 0 -0.34375 0q-0.15625 -0.015625 -0.671875 0.03125q-0.6875 -4.171875 -1.046875 -5.515625q-0.34375 -1.359375 -0.5 -1.21875q-0.140625 0.125 -0.671875 2.46875q-0.53125 2.328125 -1.4375 6.921875l-2.0 0.484375zm22.561676 -1.0625q-0.125 -0.65625 -0.21875 -1.609375q-0.09375 -0.953125 -0.203125 -1.921875q-0.09375 -0.984375 -0.234375 -1.796875q-0.125 -0.8125 -0.015625 -0.796875q-0.96875 2.203125 -2.015625 3.78125q-1.03125 1.578125 -1.890625 2.3125q-0.859375 0.734375 -1.546875 0.703125q-0.6875 -0.03125 -1.125 -0.578125q-0.421875 -0.5625 -0.578125 -1.296875q-0.15625 -0.75 -0.203125 -1.390625q0 -0.640625 0.265625 -1.71875q0.265625 -1.078125 0.71875 -2.328125q0.453125 -1.25 1.0625 -2.546875q0.625 -1.3125 1.34375 -2.375q0.734375 -1.078125 1.5625 -1.828125q0.84375 -0.75 1.71875 -0.75q1.3125 -0.203125 1.984375 0.625q0.671875 0.828125 0.296875 2.546875q0 1.65625 0.140625 2.859375q0.140625 1.203125 0.3125 2.328125q0.171875 1.109375 0.3125 2.359375q0.140625 1.234375 0.140625 2.96875q0 0.375 -0.109375 0.765625q-0.109375 0.390625 -1.0 0.390625q-0.25 0 -0.484375 -0.25q-0.234375 -0.25 -0.234375 -0.453125zm-1.390625 -11.546875q0.015625 0.015625 -0.28125 0.234375q-0.296875 0.203125 -0.828125 0.953125q-0.515625 0.734375 -1.078125 1.8125q-0.5625 1.0625 -1.0625 2.171875q-0.484375 1.109375 -0.84375 2.09375q-0.34375 0.96875 -0.46875 1.5625q0 0.609375 0.03125 0.625q0.046875 0.015625 0.34375 -0.296875q0.3125 -0.3125 0.828125 -1.0625q0.53125 -0.765625 1.03125 -1.640625q0.5 -0.875 0.953125 -1.6875q0.453125 -0.828125 0.703125 -1.34375q0.21875 -0.515625 0.34375 -0.953125q0.125 -0.453125 0.203125 -0.859375q0.09375 -0.40625 0.109375 -0.8125q0.015625 -0.421875 0.015625 -0.796875zm5.5274353 1.375q0.125 0.1875 -0.109375 0.328125q-0.21875 0.125 -0.453125 0.265625q-0.21875 0.125 -0.5 0.203125q-0.28125 0.078125 -0.578125 0.015625q-0.359375 0 -0.515625 -0.3125q-0.171875 -0.328125 -0.25 -0.609375q-0.09375 -0.296875 -0.109375 -0.59375q-0.03125 -0.3125 0.046875 -0.671875l2.453125 -1.40625l0.15625 -6.453125q0.109375 -0.796875 0.6875 -0.671875q0.578125 0.109375 0.9375 0.1875q0.0625 0 0.234375 0.0625q0.1875 0.046875 0.46875 0.25q-0.0625 0.9375 -0.125 1.765625q-0.0625 0.8125 -0.125 1.625q-0.046875 0.8125 -0.0625 1.578125q-0.015625 0.765625 0 0.890625l3.453125 -0.96875q0.46875 -0.140625 0.59375 0.21875q0.140625 0.359375 0.203125 0.625q0.078125 0.25 0.125 0.65625q0.046875 0.390625 0.046875 0.390625l-4.5 1.859375q0.046875 -0.015625 0.078125 0.875q0.046875 0.875 0.09375 2.09375q0.046875 1.203125 0.09375 2.59375q0.0625 1.390625 0.109375 2.59375q0.0625 1.1875 0.078125 2.09375q0.03125 0.90625 0.03125 1.15625q-0.078125 1.171875 -0.75 1.171875q-0.65625 0 -1.375 -0.59375l-0.4375 -11.21875zm7.471161 10.28125q0 -1.6875 -0.0625 -3.546875q-0.0625 -1.875 -0.140625 -3.78125q-0.0625 -1.921875 -0.03125 -3.78125q0.03125 -1.875 0.265625 -3.6875q0.28125 -0.1875 0.53125 -0.203125q0.265625 -0.03125 0.359375 -0.03125q0.484375 0 0.84375 0.203125q0.375 0.1875 0.375 0.828125q0 1.546875 -0.015625 3.359375q-0.015625 1.796875 -0.03125 3.65625q0 1.859375 0 3.6875q0 1.828125 0.046875 3.296875q0.046875 0.65625 -0.296875 0.90625q-0.34375 0.234375 -0.765625 0.234375q-0.4375 0 -0.796875 -0.234375q-0.34375 -0.25 -0.28125 -0.90625zm-0.578125 -18.625q0 -0.5625 0.359375 -0.75q0.375 -0.1875 0.734375 -0.1875q0.796875 0 0.984375 0.515625q0.203125 0.5 0.203125 1.125q-0.265625 0.484375 -0.625 0.671875q-0.359375 0.171875 -0.765625 0.078125q-0.390625 -0.109375 -0.640625 -0.484375q-0.25 -0.375 -0.25 -0.96875zm4.524658 13.15625q0.078125 -0.953125 0.15625 -2.0625q0.078125 -1.125 0.25 -2.234375q0.1875 -1.125 0.46875 -2.140625q0.28125 -1.015625 0.765625 -1.84375q0.5 -0.84375 1.265625 -1.359375q0.78125 -0.515625 1.859375 -0.484375q0.859375 0 1.296875 0.671875q0.4375 0.671875 0.59375 1.515625q0.15625 0.828125 0.15625 1.671875q0.015625 0.84375 0.015625 1.765625q-1.125 0 -1.546875 -0.5625q-0.421875 -0.5625 -0.625 -1.203125q-0.1875 -0.65625 -0.28125 -1.28125l0.3125 -0.78125q-0.046875 0.390625 -0.109375 0.25q-0.046875 -0.15625 -0.046875 0.109375q-0.25 0 -0.546875 0.40625q-0.296875 0.390625 -0.609375 1.125q-0.3125 0.71875 -0.546875 1.65625q-0.234375 0.921875 -0.390625 1.828125q-0.140625 0.890625 -0.234375 1.640625q-0.078125 0.734375 -0.078125 1.15625q-0.0625 0.65625 -0.015625 1.4375q0.0625 0.765625 0.296875 1.40625q0.234375 0.625 0.625 1.0625q0.40625 0.421875 1.015625 0.5625q0.84375 0 1.359375 -0.21875q0.515625 -0.21875 0.828125 -0.59375q0.328125 -0.390625 0.515625 -0.90625q0.1875 -0.515625 0.375 -1.09375q0.203125 -0.59375 0.421875 -1.1875q0.234375 -0.609375 0.75 -1.265625q0.625 -0.15625 0.890625 0.03125q0.28125 0.171875 0.359375 0.4375q0.09375 0.25 0.09375 0.515625l0 0.296875q0 1.171875 -0.390625 2.265625q-0.390625 1.078125 -1.15625 1.921875q-0.75 0.84375 -1.796875 1.375q-1.046875 0.515625 -2.390625 0.515625q-1.21875 0 -2.0 -0.75q-0.765625 -0.75 -1.171875 -1.75q-0.40625 -1.0 -0.578125 -2.0625q-0.15625 -1.078125 -0.15625 -1.84375zm13.709473 5.609375q0.015625 0 0.453125 -0.5q0.453125 -0.5 1.203125 -1.046875q0.75 -0.546875 1.53125 -1.1875q0.796875 -0.65625 1.265625 -1.1875q0.46875 -0.546875 0.484375 -0.71875q0.015625 -0.171875 -0.375 -0.234375q-0.84375 -0.140625 -1.4375 0.015625q-0.578125 0.140625 -1.09375 0.34375q-0.5 0.203125 -1.0 0.40625q-0.5 0.1875 -1.125 0.140625q-1.359375 0 -1.875 -0.859375q-0.515625 -0.875 -0.515625 -2.203125q0 -1.3125 0.578125 -2.5q0.59375 -1.1875 1.5 -2.03125q0.921875 -0.859375 2.109375 -1.375q1.1875 -0.515625 2.4375 -0.515625q0.515625 0 1.03125 0.125q0.515625 0.109375 0.515625 0.96875q0 0.515625 -0.4375 0.96875q-0.421875 0.453125 -0.984375 0.453125q-0.109375 0 -0.28125 -0.0625q-0.15625 -0.0625 -0.265625 -0.140625q-0.09375 -0.078125 -0.109375 -0.203125q-0.015625 -0.140625 -0.078125 0.09375q-0.703125 -0.203125 -1.375 0.203125q-0.671875 0.40625 -1.25 1.140625q-0.578125 0.734375 -0.921875 1.609375q-0.328125 0.859375 -0.328125 1.5q0 0.171875 0.046875 0.234375q0.046875 0.0625 0.15625 0.109375q0.109375 0.03125 0.3125 0.046875q0.203125 0.015625 0.453125 0.015625q0.453125 0 0.953125 -0.140625q0.5 -0.15625 1.0 -0.359375q0.515625 -0.21875 1.078125 -0.375q0.578125 -0.171875 1.203125 -0.171875q0.359375 0 0.734375 0.1875q0.390625 0.1875 0.6875 0.5q0.3125 0.3125 0.53125 0.734375q0.234375 0.40625 0.25 0.84375q0.1875 0.453125 -0.09375 1.15625q-0.28125 0.703125 -0.8125 1.421875q-0.515625 0.703125 -1.234375 1.40625q-0.71875 0.703125 -1.453125 1.296875q-0.71875 0.578125 -1.46875 0.953125q-0.734375 0.390625 -1.3125 0.359375q-0.796875 0 -0.953125 -0.484375q-0.140625 -0.484375 0.265625 -0.9375z" fill-rule="nonzero"/><path fill="#000000" fill-opacity="0.0" d="m197.0369 214.90814l239.21259 0l0 116.346466l-239.21259 0z" fill-rule="evenodd"/><path fill="#000000" d="m206.42752 233.80501q0.171875 -0.40625 0.359375 -0.59375q0.1875 -0.1875 0.390625 -0.375q0.203125 -0.203125 0.421875 -0.390625q0.21875 -0.1875 0.640625 -0.40625q0.46875 0.359375 0.625 0.65625q0.171875 0.28125 0.390625 0.859375q0.234375 0.578125 0.53125 1.546875q0.296875 0.96875 0.796875 2.578125q0.5 1.609375 1.234375 3.96875q0.75 2.359375 1.46875 5.640625q-0.296875 -0.171875 -0.046875 -0.875q0.25 -0.703125 0.640625 -1.828125q0.390625 -1.125 0.84375 -2.515625q0.46875 -1.390625 0.90625 -2.8125q0.4375 -1.421875 0.84375 -2.703125q0.40625 -1.296875 0.6875 -2.21875q0.0625 -0.3125 0.09375 -0.671875q0.046875 -0.359375 0.140625 -0.703125q0.109375 -0.359375 0.390625 -0.65625q0.296875 -0.296875 0.859375 -0.296875q0.625 -0.265625 1.03125 0.4375q0.421875 0.6875 0.75 1.703125q0.328125 1.0 0.6875 2.328125q0.375 1.328125 0.828125 2.75q0.453125 1.40625 1.0 2.796875q0.546875 1.390625 0.765625 1.734375l3.453125 -14.0625q0.0625 -0.34375 0.328125 -0.5625q0.265625 -0.21875 0.609375 -0.21875q0.34375 0 0.625 0.265625q0.296875 0.25 0.578125 0.890625l-3.65625 14.75q0 0.328125 -0.09375 0.8125q-0.078125 0.484375 -0.21875 0.953125q-0.140625 0.453125 -0.359375 0.859375q-0.203125 0.40625 -0.625 0.53125q-0.421875 0.125 -0.796875 -0.234375q-0.375 -0.359375 -0.6875 -1.15625q-1.453125 -2.578125 -2.609375 -5.390625q-1.15625 -2.8125 -1.703125 -4.671875l-2.953125 9.671875q-0.15625 1.171875 -0.484375 1.921875q-0.3125 0.75 -0.734375 1.15625q-0.421875 0.40625 -0.875 0.5q-0.453125 0.09375 -0.84375 0.046875q-0.375 -0.046875 -0.734375 -0.34375q-0.359375 -0.296875 0.203125 -0.375q-0.859375 -0.609375 -1.3125 -1.78125q-0.4375 -1.171875 -0.796875 -2.515625q-0.34375 -1.359375 -0.6875 -2.828125q-0.34375 -1.46875 -0.71875 -2.890625q-0.375 -1.4375 -0.890625 -2.734375q-0.5 -1.296875 -1.296875 -2.546875zm24.53772 2.78125l0 -0.234375q0 -0.515625 0.34375 -0.6875q0.359375 -0.1875 0.71875 -0.1875q0.25 0 0.5625 0.0625q0.3125 0.0625 0.5 0.5625q0.09375 0.4375 0.171875 1.140625q0.078125 0.703125 0.1875 1.53125q0.109375 0.828125 0.21875 1.765625q0.125 0.921875 0.234375 1.734375q0.125 0.796875 0.234375 1.421875q0.125 0.625 -0.203125 0.71875q-0.390625 -2.140625 -0.15625 -4.03125q0.25 -1.890625 0.96875 -3.15625q0.71875 -1.265625 1.984375 -1.765625q1.28125 -0.5 3.109375 -0.21875q1.1875 0 1.1875 1.265625q0 0.640625 -0.625 0.8125q-0.609375 0.15625 -1.171875 0.203125q-0.5625 0.03125 -1.015625 0.078125q-0.453125 0.046875 -0.609375 0.1875q-0.84375 0.484375 -1.1875 1.484375q-0.34375 1.0 -0.5 2.453125q-0.15625 1.4375 -0.21875 3.203125q-0.0625 1.75 -0.34375 3.609375q0 0.4375 -0.359375 0.671875q-0.34375 0.21875 -0.75 0.21875q-0.40625 0 -0.78125 -0.171875q-0.359375 -0.1875 -0.625 -0.609375l-1.875 -12.0625zm11.818787 11.984375q0 -1.6875 -0.0625 -3.546875q-0.0625 -1.875 -0.140625 -3.78125q-0.0625 -1.921875 -0.03125 -3.78125q0.03125 -1.875 0.265625 -3.6875q0.28125 -0.1875 0.53125 -0.203125q0.265625 -0.03125 0.359375 -0.03125q0.484375 0 0.84375 0.203125q0.375 0.1875 0.375 0.828125q0 1.546875 -0.015625 3.359375q-0.015625 1.796875 -0.03125 3.65625q0 1.859375 0 3.6875q0 1.828125 0.046875 3.296875q0.046875 0.65625 -0.296875 0.90625q-0.34375 0.234375 -0.765625 0.234375q-0.4375 0 -0.796875 -0.234375q-0.34375 -0.25 -0.28125 -0.90625zm-0.578125 -18.625q0 -0.5625 0.359375 -0.75q0.375 -0.1875 0.734375 -0.1875q0.796875 0 0.984375 0.515625q0.203125 0.5 0.203125 1.125q-0.265625 0.484375 -0.625 0.671875q-0.359375 0.171875 -0.765625 0.078125q-0.390625 -0.109375 -0.640625 -0.484375q-0.25 -0.375 -0.25 -0.96875zm5.462158 8.34375q0.125 0.1875 -0.109375 0.328125q-0.21875 0.125 -0.453125 0.265625q-0.21875 0.125 -0.5 0.203125q-0.28125 0.078125 -0.578125 0.015625q-0.359375 0 -0.515625 -0.3125q-0.171875 -0.328125 -0.25 -0.609375q-0.09375 -0.296875 -0.109375 -0.59375q-0.03125 -0.3125 0.046875 -0.671875l2.453125 -1.40625l0.15625 -6.453125q0.109375 -0.796875 0.6875 -0.671875q0.578125 0.109375 0.9375 0.1875q0.0625 0 0.234375 0.0625q0.1875 0.046875 0.46875 0.25q-0.0625 0.9375 -0.125 1.765625q-0.0625 0.8125 -0.125 1.625q-0.046875 0.8125 -0.0625 1.578125q-0.015625 0.765625 0 0.890625l3.453125 -0.96875q0.46875 -0.140625 0.59375 0.21875q0.140625 0.359375 0.203125 0.625q0.078125 0.25 0.125 0.65625q0.046875 0.390625 0.046875 0.390625l-4.5 1.859375q0.046875 -0.015625 0.078125 0.875q0.046875 0.875 0.09375 2.09375q0.046875 1.203125 0.09375 2.59375q0.0625 1.390625 0.109375 2.59375q0.0625 1.1875 0.078125 2.09375q0.03125 0.90625 0.03125 1.15625q-0.078125 1.171875 -0.75 1.171875q-0.65625 0 -1.375 -0.59375l-0.4375 -11.21875zm8.111786 5.328125q0.046875 0.28125 -0.25 0.34375q-0.28125 0.046875 -0.640625 0.015625q-0.359375 -0.03125 -0.71875 -0.234375q-0.359375 -0.21875 -0.359375 -0.765625q0 -0.34375 0.140625 -0.484375q0.140625 -0.140625 0.34375 -0.3125q0.515625 -0.421875 0.890625 -1.109375q0.375 -0.703125 0.703125 -1.53125q0.34375 -0.84375 0.734375 -1.71875q0.390625 -0.875 0.921875 -1.59375q0.53125 -0.734375 1.34375 -1.203125q0.8125 -0.46875 2.0 -0.4375q0.515625 0 1.125 0.234375q0.609375 0.234375 1.125 0.625q0.515625 0.390625 0.875 0.96875q0.375 0.5625 0.375 1.171875q0.21875 0.390625 -0.28125 0.90625q-0.484375 0.515625 -1.171875 0.984375q-0.671875 0.46875 -1.5 0.96875q-0.8125 0.484375 -1.578125 0.90625q-0.765625 0.40625 -1.3125 0.71875q-0.546875 0.296875 -0.640625 0.359375q-0.0625 0.140625 -0.140625 0.453125q-0.0625 0.3125 -0.109375 0.59375q-0.03125 0.28125 -0.046875 0.515625q-0.015625 0.234375 -0.015625 0.34375q0 0.515625 -0.046875 1.09375q-0.03125 0.578125 0.046875 1.03125q0.078125 0.453125 0.3125 0.703125q0.234375 0.234375 0.875 0.234375q0.75 0 1.421875 -0.390625q0.6875 -0.390625 1.296875 -0.984375q0.625 -0.59375 1.15625 -1.3125q0.53125 -0.71875 0.953125 -1.359375q0.4375 -0.640625 0.84375 -1.125q0.40625 -0.5 0.828125 -0.5q0.328125 0 0.796875 0.140625q0.46875 0.125 0.46875 0.78125q0 0.578125 -0.421875 1.296875q-0.40625 0.703125 -1.046875 1.453125q-0.625 0.75 -1.4375 1.484375q-0.8125 0.734375 -1.640625 1.328125q-0.828125 0.578125 -1.671875 0.953125q-0.828125 0.375 -1.53125 0.375q-1.34375 0 -2.03125 -0.671875q-0.6875 -0.671875 -0.96875 -1.609375q-0.265625 -0.9375 -0.28125 -1.9375q-0.015625 -1.015625 0.265625 -1.703125zm4.890625 -6.765625q-0.28125 0 -0.703125 0.359375q-0.40625 0.359375 -0.8125 0.953125q-0.40625 0.578125 -0.65625 1.15625q-0.25 0.5625 -0.265625 0.515625q-0.078125 -0.015625 0.609375 -0.28125q0.6875 -0.28125 1.375 -0.703125q0.703125 -0.4375 1.171875 -0.859375q0.46875 -0.421875 0.46875 -0.6875q0 -0.046875 -0.09375 -0.125q-0.09375 -0.078125 -0.296875 -0.15625q-0.1875 -0.078125 -0.40625 -0.125q-0.21875 -0.046875 -0.390625 -0.046875zm6.8597717 6.9375q0 -0.203125 0.171875 -0.546875q0.171875 -0.359375 0.4375 -0.53125q1.203125 -0.078125 2.328125 -0.46875q1.125 -0.40625 2.265625 -0.890625q1.140625 -0.484375 2.28125 -0.90625q1.140625 -0.421875 2.265625 -0.421875q0.359375 0 0.5 0.265625q0.15625 0.25 0.203125 0.484375q0.0625 0.21875 0.0625 0.421875l0 0.171875q0 0.140625 -0.03125 0.28125q-0.015625 0.140625 -0.015625 0.4375l-7.921875 2.390625q-0.09375 0.0625 -0.4375 0.078125q-0.328125 0 -0.453125 0l-0.203125 0.03125q-0.234375 0 -0.515625 -0.03125q-0.28125 -0.03125 -0.609375 -0.171875q-0.328125 -0.140625 -0.328125 -0.59375zm19.193756 4.671875q-0.125 -0.65625 -0.21875 -1.609375q-0.09375 -0.953125 -0.203125 -1.921875q-0.09375 -0.984375 -0.234375 -1.796875q-0.125 -0.8125 -0.015625 -0.796875q-0.96875 2.203125 -2.015625 3.78125q-1.03125 1.578125 -1.890625 2.3125q-0.859375 0.734375 -1.546875 0.703125q-0.6875 -0.03125 -1.125 -0.578125q-0.421875 -0.5625 -0.578125 -1.296875q-0.15625 -0.75 -0.203125 -1.390625q0 -0.640625 0.265625 -1.71875q0.265625 -1.078125 0.71875 -2.328125q0.453125 -1.25 1.0625 -2.546875q0.625 -1.3125 1.34375 -2.375q0.734375 -1.078125 1.5625 -1.828125q0.84375 -0.75 1.71875 -0.75q1.3125 -0.203125 1.984375 0.625q0.671875 0.828125 0.296875 2.546875q0 1.65625 0.140625 2.859375q0.140625 1.203125 0.3125 2.328125q0.171875 1.109375 0.3125 2.359375q0.140625 1.234375 0.140625 2.96875q0 0.375 -0.109375 0.765625q-0.109375 0.390625 -1.0 0.390625q-0.25 0 -0.484375 -0.25q-0.234375 -0.25 -0.234375 -0.453125zm-1.390625 -11.546875q0.015625 0.015625 -0.28125 0.234375q-0.296875 0.203125 -0.828125 0.953125q-0.515625 0.734375 -1.078125 1.8125q-0.5625 1.0625 -1.0625 2.171875q-0.484375 1.109375 -0.84375 2.09375q-0.34375 0.96875 -0.46875 1.5625q0 0.609375 0.03125 0.625q0.046875 0.015625 0.34375 -0.296875q0.3125 -0.3125 0.828125 -1.0625q0.53125 -0.765625 1.03125 -1.640625q0.5 -0.875 0.953125 -1.6875q0.453125 -0.828125 0.703125 -1.34375q0.21875 -0.515625 0.34375 -0.953125q0.125 -0.453125 0.203125 -0.859375q0.09375 -0.40625 0.109375 -0.8125q0.015625 -0.421875 0.015625 -0.796875zm5.0118103 12.015625q-0.125 -2.046875 -0.09375 -4.375q0.046875 -2.34375 0.125 -5.015625q0.078125 -2.6875 0.140625 -5.8125q0.0625 -3.140625 0.015625 -7.265625q0.65625 0 0.984375 -0.03125q0.328125 -0.046875 0.65625 0q0.328125 0.03125 0.609375 0.25q0.296875 0.21875 0.296875 0.765625q0 0.984375 -0.0625 2.25q-0.0625 1.265625 -0.171875 2.765625q-0.09375 1.484375 -0.171875 3.203125q-0.0625 1.71875 -0.0625 2.40625q0.21875 -0.265625 1.015625 -1.046875q0.8125 -0.78125 1.5625 -1.265625q0.75 -0.5 1.484375 -0.625q0.75 -0.125 1.4375 -0.078125q0.890625 0 1.46875 0.5q0.578125 0.484375 0.859375 1.1875q0.28125 0.6875 0.390625 1.5q0.109375 0.8125 0.109375 1.5625q0 0.546875 -0.0625 1.171875q-0.0625 0.625 -0.3125 1.359375q-0.25 0.734375 -0.765625 1.53125q-0.515625 0.78125 -1.40625 1.640625q-0.890625 0.859375 -2.234375 1.765625q-1.328125 0.90625 -3.25 1.859375q-0.703125 0.21875 -1.125 0.265625q-0.40625 0.03125 -0.65625 0.015625q-0.25 -0.015625 -0.515625 -0.078125q-0.265625 -0.078125 -0.265625 -0.40625zm1.609375 -1.71875q-0.15625 -0.296875 0.421875 -0.5625q0.578125 -0.28125 1.34375 -0.703125q0.765625 -0.4375 1.65625 -1.046875q0.890625 -0.609375 1.625 -1.40625q0.734375 -0.796875 1.25 -1.765625q0.515625 -0.984375 0.609375 -2.140625q0 -0.296875 -0.09375 -0.65625q-0.09375 -0.375 -0.28125 -0.671875q-0.1875 -0.296875 -0.4375 -0.484375q-0.25 -0.1875 -0.578125 -0.1875q-0.859375 0 -1.625 0.484375q-0.765625 0.46875 -1.4375 1.21875q-0.671875 0.75 -1.203125 1.625q-0.53125 0.859375 -0.828125 1.515625l-0.421875 4.78125zm11.136017 0.53125q0.1875 -1.203125 0.25 -2.984375q0.0625 -1.78125 0.046875 -3.796875q0 -2.015625 -0.078125 -4.171875q-0.078125 -2.171875 -0.21875 -4.09375q-0.125 -1.9375 -0.296875 -3.453125q-0.171875 -1.53125 -0.390625 -2.65625q0.46875 -0.3125 0.6875 -0.4375q0.21875 -0.125 0.5625 -0.125q0.28125 0 0.53125 0.125q0.25 0.109375 0.40625 0.53125q0.515625 5.15625 0.703125 10.34375q0.203125 5.1875 0.3125 10.328125q0 0.234375 0 0.734375q0 0.484375 -0.203125 0.6875q-0.5 0.234375 -0.90625 0.234375q-0.390625 -0.015625 -0.703125 -0.21875q-0.3125 -0.203125 -0.515625 -0.453125q-0.1875 -0.265625 -0.1875 -0.59375zm5.0141907 -4.125q0.046875 0.28125 -0.25 0.34375q-0.28125 0.046875 -0.640625 0.015625q-0.359375 -0.03125 -0.71875 -0.234375q-0.359375 -0.21875 -0.359375 -0.765625q0 -0.34375 0.140625 -0.484375q0.140625 -0.140625 0.34375 -0.3125q0.515625 -0.421875 0.890625 -1.109375q0.375 -0.703125 0.703125 -1.53125q0.34375 -0.84375 0.734375 -1.71875q0.390625 -0.875 0.921875 -1.59375q0.53125 -0.734375 1.34375 -1.203125q0.8125 -0.46875 2.0 -0.4375q0.515625 0 1.125 0.234375q0.609375 0.234375 1.125 0.625q0.515625 0.390625 0.875 0.96875q0.375 0.5625 0.375 1.171875q0.21875 0.390625 -0.28125 0.90625q-0.484375 0.515625 -1.171875 0.984375q-0.671875 0.46875 -1.5 0.96875q-0.8125 0.484375 -1.578125 0.90625q-0.765625 0.40625 -1.3125 0.71875q-0.546875 0.296875 -0.640625 0.359375q-0.0625 0.140625 -0.140625 0.453125q-0.0625 0.3125 -0.109375 0.59375q-0.03125 0.28125 -0.046875 0.515625q-0.015625 0.234375 -0.015625 0.34375q0 0.515625 -0.046875 1.09375q-0.03125 0.578125 0.046875 1.03125q0.078125 0.453125 0.3125 0.703125q0.234375 0.234375 0.875 0.234375q0.75 0 1.421875 -0.390625q0.6875 -0.390625 1.296875 -0.984375q0.625 -0.59375 1.15625 -1.3125q0.53125 -0.71875 0.953125 -1.359375q0.4375 -0.640625 0.84375 -1.125q0.40625 -0.5 0.828125 -0.5q0.328125 0 0.796875 0.140625q0.46875 0.125 0.46875 0.78125q0 0.578125 -0.421875 1.296875q-0.40625 0.703125 -1.046875 1.453125q-0.625 0.75 -1.4375 1.484375q-0.8125 0.734375 -1.640625 1.328125q-0.828125 0.578125 -1.671875 0.953125q-0.828125 0.375 -1.53125 0.375q-1.34375 0 -2.03125 -0.671875q-0.6875 -0.671875 -0.96875 -1.609375q-0.265625 -0.9375 -0.28125 -1.9375q-0.015625 -1.015625 0.265625 -1.703125zm4.890625 -6.765625q-0.28125 0 -0.703125 0.359375q-0.40625 0.359375 -0.8125 0.953125q-0.40625 0.578125 -0.65625 1.15625q-0.25 0.5625 -0.265625 0.515625q-0.078125 -0.015625 0.609375 -0.28125q0.6875 -0.28125 1.375 -0.703125q0.703125 -0.4375 1.171875 -0.859375q0.46875 -0.421875 0.46875 -0.6875q0 -0.046875 -0.09375 -0.125q-0.09375 -0.078125 -0.296875 -0.15625q-0.1875 -0.078125 -0.40625 -0.125q-0.21875 -0.046875 -0.390625 -0.046875z" fill-rule="nonzero"/><path fill="#000000" d="m206.69315 277.57065q-0.1875 -1.203125 -0.1875 -2.359375q0 -1.171875 0.140625 -2.359375q0.140625 -1.1875 0.421875 -2.453125q0.28125 -1.28125 0.640625 -2.703125q0 -0.34375 0.203125 -0.6875q0.21875 -0.34375 0.53125 -0.53125q0.3125 -0.203125 0.65625 -0.328125q0.34375 -0.140625 0.671875 -0.140625q0.71875 0 1.265625 0.4375q0.546875 0.421875 0.953125 0.984375q0.40625 0.5625 0.6875 1.171875q0.28125 0.59375 0.484375 1.046875q0.21875 0.984375 0.3125 2.171875q0.09375 1.1875 0.015625 2.421875q-0.078125 1.21875 -0.390625 2.421875q-0.296875 1.1875 -0.84375 2.21875q-0.546875 1.03125 -1.4375 1.75q-0.890625 0.703125 -2.15625 0.875q-0.828125 0 -1.234375 -0.515625q-0.390625 -0.515625 -0.5625 -1.171875q-0.15625 -0.65625 -0.171875 -1.265625q0 -0.625 0 -0.984375zm2.140625 -0.109375q0 0.25 0 0.46875q0.015625 0.203125 0.046875 0.40625q0.03125 0.203125 0.09375 0.4375q0.078125 0.234375 -0.0625 0.453125l0 -0.203125q0.46875 0 0.828125 -0.328125q0.359375 -0.34375 0.640625 -0.953125q0.28125 -0.609375 0.484375 -1.390625q0.203125 -0.796875 0.3125 -1.5625q0.125 -0.78125 0.15625 -1.453125q0.046875 -0.6875 0.046875 -1.078125l0 -0.53125q0 -0.3125 -0.03125 -0.71875q-0.03125 -0.421875 -0.09375 -0.859375q-0.046875 -0.4375 -0.171875 -0.75q-0.109375 -0.328125 -0.234375 -0.453125q-0.109375 -0.140625 -0.328125 -0.140625q-0.453125 -0.140625 -0.71875 0.03125q-0.265625 0.171875 -0.484375 0.703125q-0.21875 0.53125 -0.34375 1.375q-0.125 0.84375 -0.15625 1.90625q-0.015625 1.046875 0 2.25q0.015625 1.1875 0.015625 2.390625zm6.919098 3.40625q-0.296875 -3.59375 -0.515625 -7.109375q-0.21875 -3.53125 -0.484375 -7.34375q0 -1.046875 1.078125 -1.046875l0.21875 0q0.328125 0 0.5 0.34375q0.171875 0.328125 0.296875 0.9375q0.125 0.59375 0.265625 1.734375q0.140625 1.140625 0.34375 2.96875q0.21875 1.8125 0.265625 2.71875q-0.03125 0.015625 0.28125 -1.65625q0.3125 -1.671875 0.8125 -3.078125q0.515625 -1.421875 1.46875 -2.546875q0.96875 -1.125 2.859375 -1.671875q1.21875 0.203125 1.84375 1.296875q0.640625 1.078125 1.0 2.5625q0.359375 1.46875 0.484375 3.171875q0.125 1.703125 0.15625 3.25q0.03125 1.53125 0.03125 2.734375q0 1.203125 0.046875 1.8125q-0.140625 0.359375 -0.359375 0.59375q-0.21875 0.21875 -0.515625 0.3125q-0.296875 0.09375 -0.609375 0.03125q-0.3125 -0.078125 -0.625 -0.546875q0 -0.390625 -0.0625 -1.265625q-0.046875 -0.875 -0.125 -2.0625q-0.078125 -1.1875 -0.171875 -2.515625q-0.09375 -1.34375 -0.15625 -2.53125q-0.0625 -1.203125 -0.125 -2.078125q-0.046875 -0.890625 -0.0625 -1.078125q-0.40625 -0.71875 -0.765625 -0.796875q-0.34375 -0.09375 -0.765625 0.28125q-0.421875 0.359375 -0.890625 1.28125q-0.46875 0.90625 -0.90625 2.109375q-0.4375 1.1875 -0.828125 2.515625q-0.390625 1.3125 -0.671875 2.53125q-0.28125 1.21875 -0.46875 2.21875q-0.1875 1.0 -0.265625 1.59375q-0.140625 0.328125 -0.46875 0.5625q-0.3125 0.21875 -0.65625 0.328125q-0.34375 0.09375 -0.765625 0.03125q-0.421875 -0.0625 -0.6875 -0.59375zm31.995483 -0.40625q-0.125 -0.65625 -0.21875 -1.609375q-0.09375 -0.953125 -0.203125 -1.921875q-0.09375 -0.984375 -0.234375 -1.796875q-0.125 -0.8125 -0.015625 -0.796875q-0.96875 2.203125 -2.015625 3.78125q-1.03125 1.578125 -1.890625 2.3125q-0.859375 0.734375 -1.546875 0.703125q-0.6875 -0.03125 -1.125 -0.578125q-0.421875 -0.5625 -0.578125 -1.296875q-0.15625 -0.75 -0.203125 -1.390625q0 -0.640625 0.265625 -1.71875q0.265625 -1.078125 0.71875 -2.328125q0.453125 -1.25 1.0625 -2.546875q0.625 -1.3125 1.34375 -2.375q0.734375 -1.078125 1.5625 -1.828125q0.84375 -0.75 1.71875 -0.75q1.3125 -0.203125 1.984375 0.625q0.671875 0.828125 0.296875 2.546875q0 1.65625 0.140625 2.859375q0.140625 1.203125 0.3125 2.328125q0.171875 1.109375 0.3125 2.359375q0.140625 1.234375 0.140625 2.96875q0 0.375 -0.109375 0.765625q-0.109375 0.390625 -1.0 0.390625q-0.25 0 -0.484375 -0.25q-0.234375 -0.25 -0.234375 -0.453125zm-1.390625 -11.546875q0.015625 0.015625 -0.28125 0.234375q-0.296875 0.203125 -0.828125 0.953125q-0.515625 0.734375 -1.078125 1.8125q-0.5625 1.0625 -1.0625 2.171875q-0.484375 1.109375 -0.84375 2.09375q-0.34375 0.96875 -0.46875 1.5625q0 0.609375 0.03125 0.625q0.046875 0.015625 0.34375 -0.296875q0.3125 -0.3125 0.828125 -1.0625q0.53125 -0.765625 1.03125 -1.640625q0.5 -0.875 0.953125 -1.6875q0.453125 -0.828125 0.703125 -1.34375q0.21875 -0.515625 0.34375 -0.953125q0.125 -0.453125 0.203125 -0.859375q0.09375 -0.40625 0.109375 -0.8125q0.015625 -0.421875 0.015625 -0.796875z" fill-rule="nonzero"/><path fill="#000000" d="m206.70877 307.1019q0.078125 -0.953125 0.15625 -2.0625q0.078125 -1.125 0.25 -2.234375q0.1875 -1.125 0.46875 -2.140625q0.28125 -1.015625 0.765625 -1.84375q0.5 -0.84375 1.265625 -1.359375q0.78125 -0.515625 1.859375 -0.484375q0.859375 0 1.296875 0.671875q0.4375 0.671875 0.59375 1.515625q0.15625 0.828125 0.15625 1.671875q0.015625 0.84375 0.015625 1.765625q-1.125 0 -1.546875 -0.5625q-0.421875 -0.5625 -0.625 -1.203125q-0.1875 -0.65625 -0.28125 -1.28125l0.3125 -0.78125q-0.046875 0.390625 -0.109375 0.25q-0.046875 -0.15625 -0.046875 0.109375q-0.25 0 -0.546875 0.40625q-0.296875 0.390625 -0.609375 1.125q-0.3125 0.71875 -0.546875 1.65625q-0.234375 0.921875 -0.390625 1.828125q-0.140625 0.890625 -0.234375 1.640625q-0.078125 0.734375 -0.078125 1.15625q-0.0625 0.65625 -0.015625 1.4375q0.0625 0.765625 0.296875 1.40625q0.234375 0.625 0.625 1.0625q0.40625 0.421875 1.015625 0.5625q0.84375 0 1.359375 -0.21875q0.515625 -0.21875 0.828125 -0.59375q0.328125 -0.390625 0.515625 -0.90625q0.1875 -0.515625 0.375 -1.09375q0.203125 -0.59375 0.421875 -1.1875q0.234375 -0.609375 0.75 -1.265625q0.625 -0.15625 0.890625 0.03125q0.28125 0.171875 0.359375 0.4375q0.09375 0.25 0.09375 0.515625l0 0.296875q0 1.171875 -0.390625 2.265625q-0.390625 1.078125 -1.15625 1.921875q-0.75 0.84375 -1.796875 1.375q-1.046875 0.515625 -2.390625 0.515625q-1.21875 0 -2.0 -0.75q-0.765625 -0.75 -1.171875 -1.75q-0.40625 -1.0 -0.578125 -2.0625q-0.15625 -1.078125 -0.15625 -1.84375zm11.225098 2.46875q-0.1875 -1.203125 -0.1875 -2.359375q0 -1.171875 0.140625 -2.359375q0.140625 -1.1875 0.421875 -2.453125q0.28125 -1.28125 0.640625 -2.703125q0 -0.34375 0.203125 -0.6875q0.21875 -0.34375 0.53125 -0.53125q0.3125 -0.203125 0.65625 -0.328125q0.34375 -0.140625 0.671875 -0.140625q0.71875 0 1.265625 0.4375q0.546875 0.421875 0.953125 0.984375q0.40625 0.5625 0.6875 1.171875q0.28125 0.59375 0.484375 1.046875q0.21875 0.984375 0.3125 2.171875q0.09375 1.1875 0.015625 2.421875q-0.078125 1.21875 -0.390625 2.421875q-0.296875 1.1875 -0.84375 2.21875q-0.546875 1.03125 -1.4375 1.75q-0.890625 0.703125 -2.15625 0.875q-0.828125 0 -1.234375 -0.515625q-0.390625 -0.515625 -0.5625 -1.171875q-0.15625 -0.65625 -0.171875 -1.265625q0 -0.625 0 -0.984375zm2.140625 -0.109375q0 0.25 0 0.46875q0.015625 0.203125 0.046875 0.40625q0.03125 0.203125 0.09375 0.4375q0.078125 0.234375 -0.0625 0.453125l0 -0.203125q0.46875 0 0.828125 -0.328125q0.359375 -0.34375 0.640625 -0.953125q0.28125 -0.609375 0.484375 -1.390625q0.203125 -0.796875 0.3125 -1.5625q0.125 -0.78125 0.15625 -1.453125q0.046875 -0.6875 0.046875 -1.078125l0 -0.53125q0 -0.3125 -0.03125 -0.71875q-0.03125 -0.421875 -0.09375 -0.859375q-0.046875 -0.4375 -0.171875 -0.75q-0.109375 -0.328125 -0.234375 -0.453125q-0.109375 -0.140625 -0.328125 -0.140625q-0.453125 -0.140625 -0.71875 0.03125q-0.265625 0.171875 -0.484375 0.703125q-0.21875 0.53125 -0.34375 1.375q-0.125 0.84375 -0.15625 1.90625q-0.015625 1.046875 0 2.25q0.015625 1.1875 0.015625 2.390625zm6.903473 4.0625q-0.125 -1.203125 -0.1875 -2.453125q-0.046875 -1.265625 -0.09375 -2.734375q-0.046875 -1.46875 -0.125 -3.046875q-0.0625 -1.59375 -0.140625 -3.015625q-0.078125 -1.421875 -0.203125 -2.578125q-0.109375 -1.15625 -0.234375 -1.890625q0 -0.84375 0.390625 -0.984375q0.40625 -0.15625 0.84375 -0.15625q0.0625 0 0.265625 0q0.203125 0 0.546875 0.078125q0.328125 1.0625 0.390625 2.328125q0.0625 1.265625 0.09375 2.71875q0.046875 1.453125 0.078125 3.015625q0.046875 1.546875 -0.21875 2.984375q-0.046875 -2.125 0.203125 -3.484375q0.265625 -1.375 0.484375 -2.21875q0.234375 -0.84375 0.453125 -1.3125q0.234375 -0.484375 0.59375 -0.671875q0.359375 -0.1875 0.703125 -0.171875q0.359375 0.015625 0.765625 0.015625q0.65625 0 1.046875 0.46875q0.390625 0.46875 0.5625 1.109375q0.1875 0.625 0.28125 1.3125q0.09375 0.6875 0.171875 1.328125q0.078125 0.625 0.15625 1.078125q0.078125 0.453125 -0.171875 0.53125q0.359375 -1.734375 0.828125 -2.96875q0.46875 -1.234375 0.8125 -1.984375q0.359375 -0.75 0.671875 -1.125q0.3125 -0.390625 0.640625 -0.484375q0.328125 -0.09375 0.53125 -0.03125q0.203125 0.0625 0.3125 0.0625q0.953125 0 1.453125 0.96875q0.421875 1.234375 0.578125 2.328125q0.171875 1.078125 0.203125 2.078125q0.03125 0.984375 0.015625 1.859375q-0.015625 0.875 0.046875 1.6875q0.0625 0.796875 0.265625 1.5625q0.21875 0.75 0.859375 1.671875q-0.375 0.734375 -0.671875 0.9375q-0.296875 0.203125 -0.796875 0.203125q-0.46875 0 -0.796875 -0.296875q-0.3125 -0.296875 -0.5 -0.671875q-0.1875 -0.390625 -0.28125 -0.734375q-0.078125 -0.359375 -0.171875 -0.671875q-0.109375 -3.75 -0.3125 -5.59375q-0.203125 -1.84375 -0.34375 -1.875q-0.125 -0.03125 -0.75 1.640625q-0.609375 1.65625 -1.640625 5.59375q-0.203125 0.34375 -0.46875 0.390625q-0.265625 0.03125 -0.46875 0.03125q-0.1875 0 -0.34375 0q-0.15625 -0.015625 -0.671875 0.03125q-0.6875 -4.171875 -1.046875 -5.515625q-0.34375 -1.359375 -0.5 -1.21875q-0.140625 0.125 -0.671875 2.46875q-0.53125 2.328125 -1.4375 6.921875l-2.0 0.484375zm15.249176 6.40625q0.296875 -2.75 0.328125 -5.203125q0.046875 -2.4375 -0.03125 -4.8125q-0.0625 -2.390625 -0.1875 -4.828125q-0.125 -2.453125 -0.15625 -5.25q0.09375 -0.484375 0.296875 -0.828125q0.21875 -0.34375 1.03125 -0.171875q0.796875 0.171875 0.9375 0.8125q0.140625 0.640625 0.078125 1.28125q-0.046875 0.640625 -0.140625 1.203125q-0.09375 0.5625 -0.265625 0.515625q0.453125 -0.5 1.40625 -1.15625q0.953125 -0.65625 1.984375 -1.1875q1.046875 -0.53125 2.203125 -0.796875q1.171875 -0.265625 2.359375 0q1.484375 0.34375 2.109375 1.078125q0.640625 0.734375 0.5 1.65625q-0.125 0.921875 -0.796875 1.9375q-0.65625 1.0 -1.578125 1.984375q-0.921875 0.984375 -2.0625 1.9375q-1.140625 0.9375 -2.21875 1.75q-1.0625 0.796875 -2.0 1.40625q-0.9375 0.59375 -1.296875 0.796875q-0.015625 0.09375 -0.0625 0.75q-0.03125 0.65625 -0.078125 1.484375q-0.03125 0.828125 -0.078125 1.734375q-0.03125 0.921875 -0.078125 1.75q-0.03125 0.84375 -0.078125 1.484375q-0.03125 0.65625 -0.03125 1.25q-0.34375 0.109375 -0.5 0.140625q-0.15625 0.046875 -0.359375 0.046875q-0.1875 0.015625 -0.40625 0.03125q-0.203125 0.03125 -0.25 -0.15625q-0.25 0.140625 -0.421875 -0.15625q-0.15625 -0.28125 -0.15625 -0.484375zm2.265625 -14.171875q-0.0625 0.328125 -0.03125 0.828125q0.046875 0.5 0.109375 1.078125q0.0625 0.578125 0.140625 1.125q0.078125 0.546875 -0.125 0.578125q0.578125 -0.703125 1.890625 -1.484375q1.328125 -0.78125 2.53125 -1.65625q1.203125 -0.890625 2.125 -1.953125q0.921875 -1.0625 1.203125 -2.359375q0.0625 -0.328125 -0.015625 -0.40625q-0.0625 -0.078125 -0.421875 -0.125q-0.890625 -0.203125 -2.09375 0.125q-1.203125 0.328125 -2.34375 0.984375q-1.140625 0.65625 -1.96875 1.53125q-0.8125 0.859375 -1.0 1.734375zm18.453308 4.703125q0.1875 0.125 -0.265625 0.703125q-0.4375 0.5625 -1.0 1.125q-0.5625 0.546875 -1.21875 1.0q-0.65625 0.453125 -1.21875 0.453125q-1.046875 0 -1.671875 -0.890625q-0.609375 -0.90625 -0.90625 -2.1875q-0.296875 -1.28125 -0.40625 -2.796875q-0.109375 -1.515625 -0.140625 -2.953125q-0.015625 -1.4375 -0.015625 -2.59375q0 -1.15625 -0.09375 -1.859375q0.234375 -0.515625 0.515625 -0.609375q0.28125 -0.09375 0.578125 -0.09375q0.28125 0 0.546875 0.09375q0.28125 0.09375 0.546875 0.5625q0 0.40625 0 1.078125q0.015625 0.65625 0.0625 1.5q0.0625 0.84375 0.109375 1.78125q0.0625 0.921875 0.09375 1.75q0.046875 0.828125 0.078125 1.5q0.046875 0.65625 0.0625 0.9375q0.03125 0.1875 0.0625 0.59375q0.046875 0.40625 0.125 0.84375q0.09375 0.4375 0.171875 0.671875q0.09375 0.234375 0.078125 0.21875q0.21875 0 0.546875 -0.265625q0.328125 -0.28125 0.6875 -0.765625q0.375 -0.5 0.703125 -1.109375q0.328125 -0.609375 0.59375 -1.171875q0.265625 -0.5625 0.390625 -1.0q0.140625 -0.453125 0.15625 -0.609375q0.046875 -0.421875 0.09375 -1.234375q0.0625 -0.8125 0.078125 -1.75q0.03125 -0.9375 0.046875 -1.765625q0.015625 -0.828125 0.015625 -1.6875l2.234375 0.109375q0.03125 2.5 -0.03125 4.203125q-0.046875 1.703125 -0.015625 3.1875q0.03125 1.46875 0.21875 2.84375q0.203125 1.375 0.828125 3.09375q-0.296875 0.296875 -0.609375 0.46875q-0.296875 0.1875 -0.5 0.1875q-0.90625 0 -1.203125 -0.5625q-0.28125 -0.578125 -0.359375 -1.203125q-0.078125 -0.640625 -0.109375 -1.15625q-0.03125 -0.515625 0.140625 -0.640625zm4.990753 -8.171875q0.125 0.1875 -0.109375 0.328125q-0.21875 0.125 -0.453125 0.265625q-0.21875 0.125 -0.5 0.203125q-0.28125 0.078125 -0.578125 0.015625q-0.359375 0 -0.515625 -0.3125q-0.171875 -0.328125 -0.25 -0.609375q-0.09375 -0.296875 -0.109375 -0.59375q-0.03125 -0.3125 0.046875 -0.671875l2.453125 -1.40625l0.15625 -6.453125q0.109375 -0.796875 0.6875 -0.671875q0.578125 0.109375 0.9375 0.1875q0.0625 0 0.234375 0.0625q0.1875 0.046875 0.46875 0.25q-0.0625 0.9375 -0.125 1.765625q-0.0625 0.8125 -0.125 1.625q-0.046875 0.8125 -0.0625 1.578125q-0.015625 0.765625 0 0.890625l3.453125 -0.96875q0.46875 -0.140625 0.59375 0.21875q0.140625 0.359375 0.203125 0.625q0.078125 0.25 0.125 0.65625q0.046875 0.390625 0.046875 0.390625l-4.5 1.859375q0.046875 -0.015625 0.078125 0.875q0.046875 0.875 0.09375 2.09375q0.046875 1.203125 0.09375 2.59375q0.0625 1.390625 0.109375 2.59375q0.0625 1.1875 0.078125 2.09375q0.03125 0.90625 0.03125 1.15625q-0.078125 1.171875 -0.75 1.171875q-0.65625 0 -1.375 -0.59375l-0.4375 -11.21875zm8.111786 5.328125q0.046875 0.28125 -0.25 0.34375q-0.28125 0.046875 -0.640625 0.015625q-0.359375 -0.03125 -0.71875 -0.234375q-0.359375 -0.21875 -0.359375 -0.765625q0 -0.34375 0.140625 -0.484375q0.140625 -0.140625 0.34375 -0.3125q0.515625 -0.421875 0.890625 -1.109375q0.375 -0.703125 0.703125 -1.53125q0.34375 -0.84375 0.734375 -1.71875q0.390625 -0.875 0.921875 -1.59375q0.53125 -0.734375 1.34375 -1.203125q0.8125 -0.46875 2.0 -0.4375q0.515625 0 1.125 0.234375q0.609375 0.234375 1.125 0.625q0.515625 0.390625 0.875 0.96875q0.375 0.5625 0.375 1.171875q0.21875 0.390625 -0.28125 0.90625q-0.484375 0.515625 -1.171875 0.984375q-0.671875 0.46875 -1.5 0.96875q-0.8125 0.484375 -1.578125 0.90625q-0.765625 0.40625 -1.3125 0.71875q-0.546875 0.296875 -0.640625 0.359375q-0.0625 0.140625 -0.140625 0.453125q-0.0625 0.3125 -0.109375 0.59375q-0.03125 0.28125 -0.046875 0.515625q-0.015625 0.234375 -0.015625 0.34375q0 0.515625 -0.046875 1.09375q-0.03125 0.578125 0.046875 1.03125q0.078125 0.453125 0.3125 0.703125q0.234375 0.234375 0.875 0.234375q0.75 0 1.421875 -0.390625q0.6875 -0.390625 1.296875 -0.984375q0.625 -0.59375 1.15625 -1.3125q0.53125 -0.71875 0.953125 -1.359375q0.4375 -0.640625 0.84375 -1.125q0.40625 -0.5 0.828125 -0.5q0.328125 0 0.796875 0.140625q0.46875 0.125 0.46875 0.78125q0 0.578125 -0.421875 1.296875q-0.40625 0.703125 -1.046875 1.453125q-0.625 0.75 -1.4375 1.484375q-0.8125 0.734375 -1.640625 1.328125q-0.828125 0.578125 -1.671875 0.953125q-0.828125 0.375 -1.53125 0.375q-1.34375 0 -2.03125 -0.671875q-0.6875 -0.671875 -0.96875 -1.609375q-0.265625 -0.9375 -0.28125 -1.9375q-0.015625 -1.015625 0.265625 -1.703125zm4.890625 -6.765625q-0.28125 0 -0.703125 0.359375q-0.40625 0.359375 -0.8125 0.953125q-0.40625 0.578125 -0.65625 1.15625q-0.25 0.5625 -0.265625 0.515625q-0.078125 -0.015625 0.609375 -0.28125q0.6875 -0.28125 1.375 -0.703125q0.703125 -0.4375 1.171875 -0.859375q0.46875 -0.421875 0.46875 -0.6875q0 -0.046875 -0.09375 -0.125q-0.09375 -0.078125 -0.296875 -0.15625q-0.1875 -0.078125 -0.40625 -0.125q-0.21875 -0.046875 -0.390625 -0.046875zm7.1878967 -0.265625l0 -0.234375q0 -0.515625 0.34375 -0.6875q0.359375 -0.1875 0.71875 -0.1875q0.25 0 0.5625 0.0625q0.3125 0.0625 0.5 0.5625q0.09375 0.4375 0.171875 1.140625q0.078125 0.703125 0.1875 1.53125q0.109375 0.828125 0.21875 1.765625q0.125 0.921875 0.234375 1.734375q0.125 0.796875 0.234375 1.421875q0.125 0.625 -0.203125 0.71875q-0.390625 -2.140625 -0.15625 -4.03125q0.25 -1.890625 0.96875 -3.15625q0.71875 -1.265625 1.984375 -1.765625q1.28125 -0.5 3.109375 -0.21875q1.1875 0 1.1875 1.265625q0 0.640625 -0.625 0.8125q-0.609375 0.15625 -1.171875 0.203125q-0.5625 0.03125 -1.015625 0.078125q-0.453125 0.046875 -0.609375 0.1875q-0.84375 0.484375 -1.1875 1.484375q-0.34375 1.0 -0.5 2.453125q-0.15625 1.4375 -0.21875 3.203125q-0.0625 1.75 -0.34375 3.609375q0 0.4375 -0.359375 0.671875q-0.34375 0.21875 -0.75 0.21875q-0.40625 0 -0.78125 -0.171875q-0.359375 -0.1875 -0.625 -0.609375l-1.875 -12.0625z" fill-rule="nonzero"/><path fill="#000000" fill-opacity="0.0" d="m604.99475 233.20998c20.867615 0 41.725586 -1.0971222 62.5932 -1.0971222" fill-rule="evenodd"/><path stroke="#000000" stroke-width="2.0" stroke-linejoin="round" stroke-linecap="butt" d="m604.99475 233.20998c20.867615 0 41.725586 -1.0971222 62.5932 -1.0971222" fill-rule="evenodd"/><path fill="#000000" fill-opacity="0.0" d="m559.3002 216.50835c9.095642 0 18.367676 1.7588959 27.287048 0c5.0299683 -0.9918976 11.112793 -3.2980804 15.380188 -0.48919678c4.864197 3.2017517 2.480713 11.366867 2.480713 17.137299c0 4.8967133 3.5083008 11.227631 0 14.6901245c-4.7959595 4.733383 -13.559082 0.48921204 -20.341675 0.48921204c-7.944824 0 -16.708557 4.4878845 -23.813782 0.9795685c-3.5985107 -1.776825 -1.9850464 -7.780197 -1.9850464 -11.751389c0 -7.0355988 -1.6967773 -14.7612915 1.4882202 -21.055618" fill-rule="evenodd"/><path stroke="#3c78d8" stroke-width="2.0" stroke-linejoin="round" stroke-linecap="butt" d="m559.3002 216.50835c9.095642 0 18.367676 1.7588959 27.287048 0c5.0299683 -0.9918976 11.112793 -3.2980804 15.380188 -0.48919678c4.864197 3.2017517 2.480713 11.366867 2.480713 17.137299c0 4.8967133 3.5083008 11.227631 0 14.6901245c-4.7959595 4.733383 -13.559082 0.48921204 -20.341675 0.48921204c-7.944824 0 -16.708557 4.4878845 -23.813782 0.9795685c-3.5985107 -1.776825 -1.9850464 -7.780197 -1.9850464 -11.751389c0 -7.0355988 -1.6967773 -14.7612915 1.4882202 -21.055618" fill-rule="evenodd"/><path fill="#000000" fill-opacity="0.0" d="m559.3002 261.77768c9.095642 0 18.367676 1.7589111 27.287048 0c5.0299683 -0.99191284 11.112793 -3.2980957 15.380188 -0.48919678c4.864197 3.2017517 2.480713 11.366882 2.480713 17.137299c0 4.8967285 3.5083008 11.227631 0 14.6901245c-4.7959595 4.733368 -13.559082 0.48919678 -20.341675 0.48919678c-7.944824 0 -16.708557 4.4878845 -23.813782 0.97958374c-3.5985107 -1.776825 -1.9850464 -7.780182 -1.9850464 -11.751404c0 -7.0355835 -1.6967773 -14.761261 1.4882202 -21.055603" fill-rule="evenodd"/><path stroke="#3c78d8" stroke-width="2.0" stroke-linejoin="round" stroke-linecap="butt" d="m559.3002 261.77768c9.095642 0 18.367676 1.7589111 27.287048 0c5.0299683 -0.99191284 11.112793 -3.2980957 15.380188 -0.48919678c4.864197 3.2017517 2.480713 11.366882 2.480713 17.137299c0 4.8967285 3.5083008 11.227631 0 14.6901245c-4.7959595 4.733368 -13.559082 0.48919678 -20.341675 0.48919678c-7.944824 0 -16.708557 4.4878845 -23.813782 0.97958374c-3.5985107 -1.776825 -1.9850464 -7.780182 -1.9850464 -11.751404c0 -7.0355835 -1.6967773 -14.761261 1.4882202 -21.055603" fill-rule="evenodd"/><path fill="#000000" fill-opacity="0.0" d="m559.3002 308.14514c9.095642 0 18.367676 1.7589111 27.287048 0c5.0299683 -0.99191284 11.112793 -3.2980957 15.380188 -0.48919678c4.864197 3.2017517 2.480713 11.366852 2.480713 17.137299c0 4.896698 3.5083008 11.227631 0 14.6901245c-4.7959595 4.733368 -13.559082 0.48919678 -20.341675 0.48919678c-7.944824 0 -16.708557 4.4878845 -23.813782 0.97958374c-3.5985107 -1.776825 -1.9850464 -7.7802124 -1.9850464 -11.751404c0 -7.0355835 -1.6967773 -14.7612915 1.4882202 -21.055603" fill-rule="evenodd"/><path stroke="#3c78d8" stroke-width="2.0" stroke-linejoin="round" stroke-linecap="butt" d="m559.3002 308.14514c9.095642 0 18.367676 1.7589111 27.287048 0c5.0299683 -0.99191284 11.112793 -3.2980957 15.380188 -0.48919678c4.864197 3.2017517 2.480713 11.366852 2.480713 17.137299c0 4.896698 3.5083008 11.227631 0 14.6901245c-4.7959595 4.733368 -13.559082 0.48919678 -20.341675 0.48919678c-7.944824 0 -16.708557 4.4878845 -23.813782 0.97958374c-3.5985107 -1.776825 -1.9850464 -7.7802124 -1.9850464 -11.751404c0 -7.0355835 -1.6967773 -14.7612915 1.4882202 -21.055603" fill-rule="evenodd"/><path fill="#000000" fill-opacity="0.0" d="m669.0429 216.50835c9.095703 0 18.367676 1.7588959 27.28711 0c5.0299683 -0.9918976 11.112793 -3.2980804 15.380127 -0.48919678c4.864258 3.2017517 2.480774 11.366867 2.480774 17.137299c0 4.8967133 3.5083008 11.227631 0 14.6901245c-4.7960205 4.733383 -13.559082 0.48921204 -20.341675 0.48921204c-7.944824 0 -16.708557 4.4878845 -23.813782 0.9795685c-3.5985107 -1.776825 -1.9850464 -7.780197 -1.9850464 -11.751389c0 -7.0355988 -1.6967773 -14.7612915 1.4882202 -21.055618" fill-rule="evenodd"/><path stroke="#3c78d8" stroke-width="2.0" stroke-linejoin="round" stroke-linecap="butt" d="m669.0429 216.50835c9.095703 0 18.367676 1.7588959 27.28711 0c5.0299683 -0.9918976 11.112793 -3.2980804 15.380127 -0.48919678c4.864258 3.2017517 2.480774 11.366867 2.480774 17.137299c0 4.8967133 3.5083008 11.227631 0 14.6901245c-4.7960205 4.733383 -13.559082 0.48921204 -20.341675 0.48921204c-7.944824 0 -16.708557 4.4878845 -23.813782 0.9795685c-3.5985107 -1.776825 -1.9850464 -7.780197 -1.9850464 -11.751389c0 -7.0355988 -1.6967773 -14.7612915 1.4882202 -21.055618" fill-rule="evenodd"/><path fill="#000000" fill-opacity="0.0" d="m669.0429 283.74063c9.095703 0 18.367676 1.7589111 27.28711 0c5.0299683 -0.99191284 11.112793 -3.2980957 15.380127 -0.48919678c4.864258 3.2017517 2.480774 11.366852 2.480774 17.137299c0 4.8967285 3.5083008 11.227631 0 14.6901245c-4.7960205 4.733368 -13.559082 0.48919678 -20.341675 0.48919678c-7.944824 0 -16.708557 4.4878845 -23.813782 0.97958374c-3.5985107 -1.776825 -1.9850464 -7.7802124 -1.9850464 -11.751404c0 -7.0355835 -1.6967773 -14.761261 1.4882202 -21.055603" fill-rule="evenodd"/><path stroke="#3c78d8" stroke-width="2.0" stroke-linejoin="round" stroke-linecap="butt" d="m669.0429 283.74063c9.095703 0 18.367676 1.7589111 27.28711 0c5.0299683 -0.99191284 11.112793 -3.2980957 15.380127 -0.48919678c4.864258 3.2017517 2.480774 11.366852 2.480774 17.137299c0 4.8967285 3.5083008 11.227631 0 14.6901245c-4.7960205 4.733368 -13.559082 0.48919678 -20.341675 0.48919678c-7.944824 0 -16.708557 4.4878845 -23.813782 0.97958374c-3.5985107 -1.776825 -1.9850464 -7.7802124 -1.9850464 -11.751404c0 -7.0355835 -1.6967773 -14.761261 1.4882202 -21.055603" fill-rule="evenodd"/><path fill="#000000" fill-opacity="0.0" d="m604.67865 276.66397c21.48529 6.3416443 42.00641 15.914246 63.4917 22.25592" fill-rule="evenodd"/><path stroke="#000000" stroke-width="2.0" stroke-linejoin="round" stroke-linecap="butt" d="m604.67865 276.66397c21.48529 6.3416443 42.00641 15.914246 63.4917 22.25592" fill-rule="evenodd"/><path fill="#000000" fill-opacity="0.0" d="m603.4907 325.29126c20.965698 -8.403381 43.460632 -12.965637 64.42633 -21.369019" fill-rule="evenodd"/><path stroke="#000000" stroke-width="2.0" stroke-linejoin="round" stroke-linecap="butt" d="m603.4907 325.29126c20.965698 -8.403381 43.460632 -12.965637 64.42633 -21.369019" fill-rule="evenodd"/><path fill="#000000" fill-opacity="0.0" d="m668.14435 232.70341c-6.742859 -5.0551453 -13.32666 -10.510345 -20.86615 -14.275589" fill-rule="evenodd"/><path stroke="#000000" stroke-width="2.0" stroke-linejoin="round" stroke-linecap="butt" d="m668.14435 232.70341c-6.742859 -5.0551453 -13.32666 -10.510345 -20.86615 -14.275589" fill-rule="evenodd"/><path fill="#000000" fill-opacity="0.0" d="m668.1434 232.70403c-5.3859253 5.38591 -11.85498 9.772751 -18.669312 13.175858" fill-rule="evenodd"/><path stroke="#000000" stroke-width="2.0" stroke-linejoin="round" stroke-linecap="butt" d="m668.1434 232.70403c-5.3859253 5.38591 -11.85498 9.772751 -18.669312 13.175858" fill-rule="evenodd"/><path fill="#000000" fill-opacity="0.0" d="m668.2651 298.72964c-4.215454 -5.2712097 -10.160217 -9.336914 -13.175842 -15.375305" fill-rule="evenodd"/><path stroke="#000000" stroke-width="2.0" stroke-linejoin="round" stroke-linecap="butt" d="m668.2651 298.72964c-4.215454 -5.2712097 -10.160217 -9.336914 -13.175842 -15.375305" fill-rule="evenodd"/><path fill="#000000" fill-opacity="0.0" d="m669.09424 298.92682c-6.3118896 1.9255981 -12.915527 2.7903442 -19.227478 4.7159424" fill-rule="evenodd"/><path stroke="#000000" stroke-width="2.0" stroke-linejoin="round" stroke-linecap="butt" d="m669.09424 298.92682c-6.3118896 1.9255981 -12.915527 2.7903442 -19.227478 4.7159424" fill-rule="evenodd"/><path fill="#000000" fill-opacity="0.0" d="m668.26465 303.8399c-3.2966309 5.6037292 -8.644043 9.65564 -13.175415 14.276398" fill-rule="evenodd"/><path stroke="#000000" stroke-width="2.0" stroke-linejoin="round" stroke-linecap="butt" d="m668.26465 303.8399c-3.2966309 5.6037292 -8.644043 9.65564 -13.175415 14.276398" fill-rule="evenodd"/><path fill="#000000" fill-opacity="0.0" d="m154.2231 284.60574c0 -10.3403015 -2.2273712 -20.821442 0 -31.020935c5.4910736 -25.144623 31.627472 -48.97072 61.49344 -60.366608c41.557602 -15.857025 120.00734 -14.486633 137.26509 18.446243c11.359802 21.677841 21.891449 45.634903 17.56955 68.74907c-5.421875 28.9971 -34.65323 58.71924 -70.2782 69.588715c-38.822327 11.845001 -95.62407 16.701263 -125.18637 -5.8695374c-20.090149 -15.338837 -21.963257 -41.187164 -21.963257 -62.879517" fill-rule="evenodd"/><path stroke="#000000" stroke-width="3.0" stroke-linejoin="round" stroke-linecap="butt" d="m154.2231 284.60574c0 -10.3403015 -2.2273712 -20.821442 0 -31.020935c5.4910736 -25.144623 31.627472 -48.97072 61.49344 -60.366608c41.557602 -15.857025 120.00734 -14.486633 137.26509 18.446243c11.359802 21.677841 21.891449 45.634903 17.56955 68.74907c-5.421875 28.9971 -34.65323 58.71924 -70.2782 69.588715c-38.822327 11.845001 -95.62407 16.701263 -125.18637 -5.8695374c-20.090149 -15.338837 -21.963257 -41.187164 -21.963257 -62.879517" fill-rule="evenodd"/><path fill="#000000" fill-opacity="0.0" d="m332.12073 223.91573c52.371002 -24.486633 98.85248 -65.62392 158.04462 -71.97626c18.449677 -1.9799652 36.9682 4.235092 55.56189 4.235092" fill-rule="evenodd"/><path stroke="#3c78d8" stroke-width="3.0" stroke-linejoin="round" stroke-linecap="butt" d="m332.12073 223.91573c52.371002 -24.486633 98.85248 -65.62392 158.04462 -71.97626c18.449677 -1.9799652 36.9682 4.235092 55.56189 4.235092" fill-rule="evenodd"/><path fill="#000000" fill-opacity="0.0" d="m546.2546 158.0315c-4.497986 -7.8674316 -11.660645 -14.6138 -19.766418 -18.666672" fill-rule="evenodd"/><path stroke="#3c78d8" stroke-width="3.0" stroke-linejoin="round" stroke-linecap="butt" d="m546.2546 158.0315c-4.497986 -7.8674316 -11.660645 -14.6138 -19.766418 -18.666672" fill-rule="evenodd"/><path fill="#000000" fill-opacity="0.0" d="m545.15485 156.93439c-6.9692383 1.3925171 -12.544128 7.0533295 -17.569519 12.078735" fill-rule="evenodd"/><path stroke="#3c78d8" stroke-width="3.0" stroke-linejoin="round" stroke-linecap="butt" d="m545.15485 156.93439c-6.9692383 1.3925171 -12.544128 7.0533295 -17.569519 12.078735" fill-rule="evenodd"/><path fill="#000000" fill-opacity="0.0" d="m669.0441 303.8404c-6.460388 -1.3468323 -12.666443 -3.7640991 -19.126831 -5.110962" fill-rule="evenodd"/><path stroke="#000000" stroke-width="2.0" stroke-linejoin="round" stroke-linecap="butt" d="m669.0441 303.8404c-6.460388 -1.3468323 -12.666443 -3.7640991 -19.126831 -5.110962" fill-rule="evenodd"/></g></svg>