<svg version="1.1" viewBox="0.0 0.0 745.1679790026246 495.0498687664042" fill="none" stroke="none" stroke-linecap="square" stroke-miterlimit="10" xmlns:xlink="http://www.w3.org/1999/xlink" xmlns="http://www.w3.org/2000/svg"><clipPath id="p.0"><path d="m0 0l745.16797 0l0 495.04987l-745.16797 0l0 -495.04987z" clip-rule="nonzero"/></clipPath><g clip-path="url(#p.0)"><path fill="#ffffff" d="m0 0l745.16797 0l0 495.04987l-745.16797 0z" fill-rule="evenodd"/><path fill="#000000" fill-opacity="0.0" d="m136.23885 274.6824l0 0c0 -58.359528 53.54956 -105.66928 119.60629 -105.66928l0 0c66.05675 0 119.60631 47.309753 119.60631 105.66928l0 0c0 58.35956 -53.54956 105.66931 -119.60631 105.66931l0 0c-66.05673 0 -119.60629 -47.309753 -119.60629 -105.66931z" fill-rule="evenodd"/><path stroke="#000000" stroke-width="3.0" stroke-linejoin="round" stroke-linecap="butt" d="m136.23885 274.6824l0 0c0 -58.359528 53.54956 -105.66928 119.60629 -105.66928l0 0c66.05675 0 119.60631 47.309753 119.60631 105.66928l0 0c0 58.35956 -53.54956 105.66931 -119.60631 105.66931l0 0c-66.05673 0 -119.60629 -47.309753 -119.60629 -105.66931z" fill-rule="evenodd"/><path fill="#000000" fill-opacity="0.0" d="m31.28084 250.84776l0 0c0 -123.259514 103.49626 -223.18109 231.16536 -223.18109l0 0c61.30887 0 120.10666 23.513655 163.45859 65.36823c43.3519 41.854584 67.70676 98.62157 67.70676 157.81287l0 0c0 123.25954 -103.49625 223.1811 -231.16534 223.1811l0 0c-127.6691 0 -231.16536 -99.92157 -231.16536 -223.1811z" fill-rule="evenodd"/><path stroke="#000000" stroke-width="3.0" stroke-linejoin="round" stroke-linecap="butt" d="m31.28084 250.84776l0 0c0 -123.259514 103.49626 -223.18109 231.16536 -223.18109l0 0c61.30887 0 120.10666 23.513655 163.45859 65.36823c43.3519 41.854584 67.70676 98.62157 67.70676 157.81287l0 0c0 123.25954 -103.49625 223.1811 -231.16534 223.1811l0 0c-127.6691 0 -231.16536 -99.92157 -231.16536 -223.1811z" fill-rule="evenodd"/><path fill="#000000" fill-opacity="0.0" d="m550.4173 124.59318l221.51184 0l0 77.57481l-221.51184 0z" fill-rule="evenodd"/><path fill="#3c78d8" d="m565.8079 142.05505q1.328125 -0.875 2.890625 -0.53125q1.046875 0.25 1.859375 0.796875q0.875 0.609375 1.703125 -0.15625q0.453125 -0.453125 0.40625 -1.3125q-0.046875 -0.65625 -1.53125 -1.421875q-1.953125 -1.0 -4.390625 -0.609375q-2.5625 0.40625 -4.859375 3.640625q-1.5625 2.234375 -1.5625 6.5625q-0.015625 3.625 1.703125 5.875q1.6875 2.234375 4.515625 2.328125q2.15625 0.078125 4.015625 -0.703125q2.265625 -0.921875 2.359375 -1.8125q0.171875 -1.578125 -0.953125 -1.796875q-0.65625 -0.140625 -2.328125 0.921875q-1.140625 0.75 -3.265625 0.65625q-1.484375 -0.078125 -2.375 -1.421875q-1.125 -1.71875 -1.125 -4.328125q0 -2.828125 0.96875 -4.484375q0.859375 -1.46875 1.96875 -2.203125zm13.9765625 15.234375q1.09375 -0.015625 3.515625 -1.25q0.234375 1.5625 1.703125 1.25q1.28125 -0.25 0.28125 -1.96875q-0.6875 -1.171875 -0.640625 -3.984375q0.0625 -3.53125 0.328125 -5.0q0.28125 -1.5 -1.125 -1.8125q-0.71875 -0.15625 -1.0625 0.125q-3.0625 -0.96875 -5.875 1.34375q-2.453125 2.0 -2.421875 5.671875q0.03125 5.640625 5.296875 5.625zm1.359375 -2.359375q-0.890625 0.328125 -1.90625 0.265625q-2.421875 -0.171875 -2.46875 -3.75q0.109375 -2.765625 2.203125 -4.265625q0.515625 -0.390625 1.375 -0.609375q1.25 -0.296875 2.375 0.421875q-0.53125 1.890625 -0.109375 6.9375q-1.046875 0.84375 -1.46875 1.0zm7.953125 -11.125q-1.078125 0 -1.109375 1.09375l-0.265625 10.90625q-0.03125 1.25 1.015625 1.28125q1.25 0.015625 1.296875 -1.265625l0.1875 -7.09375q1.859375 -1.859375 3.484375 -1.734375q1.9375 0.140625 1.859375 3.375l-0.140625 5.546875q-0.046875 1.421875 1.234375 1.3125q1.109375 -0.09375 1.125 -1.515625l0.09375 -5.859375q0.078125 -5.34375 -4.34375 -5.34375q-2.0 0 -3.265625 1.15625q0 -0.359375 0.015625 -0.6875q0.03125 -1.171875 -1.1875 -1.171875zm19.890625 -6.046875q-1.046875 0 -1.078125 1.09375l-0.390625 17.0q-0.03125 1.265625 1.03125 1.28125q1.171875 0.03125 1.265625 -1.09375q1.78125 1.1875 3.8125 1.1875q2.0 -0.015625 3.59375 -1.5625q1.6875 -1.671875 1.828125 -4.03125q0.171875 -3.15625 -1.625 -5.25q-1.71875 -2.0 -4.25 -2.0q-1.40625 0 -2.46875 0.59375q-0.34375 0.203125 -0.65625 0.40625l0.140625 -6.453125q0.015625 -1.171875 -1.203125 -1.171875zm4.640625 17.171875q-1.5 0.203125 -3.75 -1.46875l0.109375 -5.375q1.9375 -1.890625 3.859375 -1.421875q1.25 0.296875 2.109375 1.234375q1.046875 1.15625 1.0 3.171875q-0.03125 1.359375 -0.96875 2.625q-0.78125 1.03125 -2.359375 1.234375zm9.535156 -3.375l7.875 -1.140625q1.265625 -0.171875 1.3125 -1.609375q0.046875 -1.796875 -1.390625 -3.203125q-1.515625 -1.5 -4.234375 -1.328125q-2.59375 0.15625 -4.234375 2.515625q-1.3125 1.890625 -1.3125 4.296875q0 2.9375 2.078125 4.640625q1.6875 1.390625 3.921875 1.40625q3.046875 0.03125 4.921875 -1.640625q1.0625 -0.953125 0.515625 -2.03125q-0.234375 -0.46875 -0.796875 -0.359375q-0.5 0.109375 -1.296875 0.984375q-0.8125 0.921875 -3.203125 0.9375q-1.640625 0.015625 -2.953125 -1.140625q-1.140625 -1.0 -1.203125 -2.328125zm0.265625 -1.9375q0.328125 -1.15625 0.84375 -1.796875q1.171875 -1.4375 2.78125 -1.4375q1.171875 -0.015625 2.203125 0.640625q0.890625 0.578125 1.0625 1.59375l-6.890625 1.0zm26.601562 -3.703125q-0.265625 -1.546875 -1.203125 -1.546875q-0.796875 0 -1.28125 1.546875l-2.609375 8.125l-1.359375 -8.125q-0.28125 -1.6875 -1.3125 -1.53125q-1.078125 0.171875 -0.796875 1.640625l1.84375 9.765625q0.265625 1.4375 1.484375 1.4375q0.96875 0 1.46875 -1.4375l2.265625 -6.4375l1.234375 6.4375q0.28125 1.4375 1.484375 1.4375q0.984375 0 1.46875 -1.4375l3.390625 -9.765625q0.5 -1.453125 -0.71875 -1.640625q-0.859375 -0.125 -1.390625 1.53125l-2.59375 8.125l-1.375 -8.125zm9.777344 -2.109375q-1.078125 0 -1.109375 1.09375l-0.265625 10.953125q-0.03125 1.265625 1.015625 1.28125q1.234375 0.03125 1.265625 -1.25l0.203125 -7.6875q1.09375 -1.09375 2.421875 -1.34375q1.359375 -0.28125 2.421875 0.4375q1.34375 0.921875 1.859375 -0.578125q0.3125 -0.953125 -1.46875 -1.84375q-1.0 -0.5 -2.5625 -0.484375q-1.28125 0.03125 -2.59375 1.015625q0 -0.21875 0 -0.421875q0 -1.171875 -1.1875 -1.171875zm12.171875 0.5625q-1.1875 -0.03125 -1.21875 1.53125l-0.203125 9.828125q-0.03125 1.484375 1.21875 1.5q1.109375 0 1.125 -1.59375l0.171875 -9.75q0.015625 -1.5 -1.09375 -1.515625zm0.078125 -5.328125q-0.390625 0 -0.71875 0.203125q-0.3125 0.21875 -0.515625 0.5625q-0.1875 0.328125 -0.1875 0.703125q0 0.390625 0.203125 0.734375q0.203125 0.328125 0.515625 0.515625q0.3125 0.1875 0.671875 0.203125q0.03125 0 0.0625 0q0.375 0.015625 0.65625 -0.140625q0.28125 -0.125 0.515625 -0.4375q0.265625 -0.34375 0.296875 -0.765625q0 -0.0625 0 -0.109375q0 -0.375 -0.15625 -0.6875q-0.1875 -0.375 -0.5625 -0.578125q-0.328125 -0.203125 -0.734375 -0.203125q-0.015625 0 -0.046875 0zm8.8359375 -1.28125q-1.046875 0 -1.078125 1.09375l-0.125 5.546875q-1.359375 0.015625 -2.703125 0.015625q-1.125 0 -1.125 1.171875q0 1.15625 1.015625 1.15625q1.375 0 2.75 0l-0.203125 9.109375q-0.03125 1.265625 1.03125 1.28125q1.265625 0.03125 1.265625 -1.25l0.203125 -9.140625q1.25 0 2.515625 0q1.359375 0 1.359375 -1.203125q0 -1.171875 -1.4375 -1.171875l-2.375 0.015625q0.078125 -2.46875 0.109375 -5.453125q0 -1.171875 -1.203125 -1.171875zm11.308594 0q-1.046875 0 -1.078125 1.09375l-0.125 5.546875q-1.359375 0.015625 -2.703125 0.015625q-1.125 0 -1.125 1.171875q0 1.15625 1.015625 1.15625q1.375 0 2.75 0l-0.203125 9.109375q-0.03125 1.265625 1.03125 1.28125q1.265625 0.03125 1.265625 -1.25l0.203125 -9.140625q1.25 0 2.515625 0q1.359375 0 1.359375 -1.203125q0 -1.171875 -1.4375 -1.171875l-2.375 0.015625q0.078125 -2.46875 0.109375 -5.453125q0 -1.171875 -1.203125 -1.171875zm8.574219 13.796875l7.875 -1.140625q1.265625 -0.171875 1.3125 -1.609375q0.046875 -1.796875 -1.390625 -3.203125q-1.515625 -1.5 -4.234375 -1.328125q-2.59375 0.15625 -4.234375 2.515625q-1.3125 1.890625 -1.3125 4.296875q0 2.9375 2.078125 4.640625q1.6875 1.390625 3.921875 1.40625q3.046875 0.03125 4.921875 -1.640625q1.0625 -0.953125 0.515625 -2.03125q-0.234375 -0.46875 -0.796875 -0.359375q-0.5 0.109375 -1.296875 0.984375q-0.8125 0.921875 -3.203125 0.9375q-1.640625 0.015625 -2.953125 -1.140625q-1.140625 -1.0 -1.203125 -2.328125zm0.265625 -1.9375q0.328125 -1.15625 0.84375 -1.796875q1.171875 -1.4375 2.78125 -1.4375q1.171875 -0.015625 2.203125 0.640625q0.890625 0.578125 1.0625 1.59375l-6.890625 1.0zm12.7890625 -5.8125q-1.078125 0 -1.109375 1.09375l-0.265625 10.90625q-0.03125 1.25 1.015625 1.28125q1.25 0.015625 1.296875 -1.265625l0.1875 -7.09375q1.859375 -1.859375 3.484375 -1.734375q1.9375 0.140625 1.859375 3.375l-0.140625 5.546875q-0.046875 1.421875 1.234375 1.3125q1.109375 -0.09375 1.125 -1.515625l0.09375 -5.859375q0.078125 -5.34375 -4.34375 -5.34375q-2.0 0 -3.265625 1.15625q0 -0.359375 0.015625 -0.6875q0.03125 -1.171875 -1.1875 -1.171875z" fill-rule="nonzero"/><path fill="#3c78d8" d="m562.9329 166.55818q-1.046875 0.03125 -1.078125 1.09375l-0.390625 17.0q-0.03125 1.265625 1.03125 1.28125q1.265625 0.03125 1.265625 -1.25l0.375 -16.953125q0.015625 -1.171875 -1.203125 -1.171875zm6.6367188 6.609375q-1.1875 -0.03125 -1.21875 1.53125l-0.203125 9.828125q-0.03125 1.484375 1.21875 1.5q1.109375 0 1.125 -1.59375l0.171875 -9.75q0.015625 -1.5 -1.09375 -1.515625zm0.078125 -5.328125q-0.390625 0 -0.71875 0.203125q-0.3125 0.21875 -0.515625 0.5625q-0.1875 0.328125 -0.1875 0.703125q0 0.390625 0.203125 0.734375q0.203125 0.328125 0.515625 0.515625q0.3125 0.1875 0.671875 0.203125q0.03125 0 0.0625 0q0.375 0.015625 0.65625 -0.140625q0.28125 -0.125 0.515625 -0.4375q0.265625 -0.34375 0.296875 -0.765625q0 -0.0625 0 -0.109375q0 -0.375 -0.15625 -0.6875q-0.1875 -0.375 -0.5625 -0.578125q-0.328125 -0.203125 -0.734375 -0.203125q-0.015625 0 -0.046875 0zm6.4921875 -1.28125q-1.078125 0.03125 -1.09375 1.09375l-0.390625 17.0q-0.03125 1.265625 1.015625 1.28125q1.265625 0.03125 1.296875 -1.25l0.0625 -3.46875l2.0 -1.796875l3.984375 5.75q0.9375 1.359375 2.03125 0.265625q0.703125 -0.6875 -0.25 -2.015625l-4.03125 -5.5625l3.53125 -3.203125q0.984375 -0.875 0.1875 -1.78125q-0.75 -0.84375 -2.015625 0.296875l-5.359375 4.921875l0.234375 -10.359375q0.015625 -1.171875 -1.203125 -1.171875zm12.5703125 13.796875l7.875 -1.140625q1.265625 -0.171875 1.3125 -1.609375q0.046875 -1.796875 -1.390625 -3.203125q-1.515625 -1.5 -4.234375 -1.328125q-2.59375 0.15625 -4.234375 2.515625q-1.3125 1.890625 -1.3125 4.296875q0 2.9375 2.078125 4.640625q1.6875 1.390625 3.921875 1.40625q3.046875 0.03125 4.921875 -1.640625q1.0625 -0.953125 0.515625 -2.03125q-0.234375 -0.46875 -0.796875 -0.359375q-0.5 0.109375 -1.296875 0.984375q-0.8125 0.921875 -3.203125 0.9375q-1.640625 0.015625 -2.953125 -1.140625q-1.140625 -1.0 -1.203125 -2.328125zm0.265625 -1.9375q0.328125 -1.15625 0.84375 -1.796875q1.171875 -1.4375 2.78125 -1.4375q1.171875 -0.015625 2.203125 0.640625q0.890625 0.578125 1.0625 1.59375l-6.890625 1.0zm22.789062 -11.859375q-1.046875 0 -1.078125 1.09375l-0.125 5.546875q-1.359375 0.015625 -2.703125 0.015625q-1.125 0 -1.125 1.171875q0 1.15625 1.015625 1.15625q1.375 0 2.75 0l-0.203125 9.109375q-0.03125 1.265625 1.03125 1.28125q1.265625 0.03125 1.265625 -1.25l0.203125 -9.140625q1.25 0 2.515625 0q1.359375 0 1.359375 -1.203125q0 -1.171875 -1.4375 -1.171875l-2.375 0.015625q0.078125 -2.46875 0.109375 -5.453125q0 -1.171875 -1.203125 -1.171875zm8.761719 0q-1.078125 0.015625 -1.109375 1.09375l-0.390625 17.0q-0.015625 1.265625 1.03125 1.28125q1.234375 0.03125 1.28125 -1.25l0.265625 -6.765625q1.828125 -2.1875 3.984375 -2.0q1.90625 0.15625 1.875 3.265625l-0.03125 5.609375q-0.015625 1.421875 1.25 1.3125q1.109375 -0.09375 1.125 -1.515625l0.046875 -5.9375q0.046875 -5.34375 -4.359375 -5.34375q-2.4375 0 -3.890625 1.359375l0.109375 -6.9375q0.03125 -1.171875 -1.1875 -1.171875zm14.222656 6.609375q-1.1875 -0.03125 -1.21875 1.53125l-0.203125 9.828125q-0.03125 1.484375 1.21875 1.5q1.109375 0 1.125 -1.59375l0.171875 -9.75q0.015625 -1.5 -1.09375 -1.515625zm0.078125 -5.328125q-0.390625 0 -0.71875 0.203125q-0.3125 0.21875 -0.515625 0.5625q-0.1875 0.328125 -0.1875 0.703125q0 0.390625 0.203125 0.734375q0.203125 0.328125 0.515625 0.515625q0.3125 0.1875 0.671875 0.203125q0.03125 0 0.0625 0q0.375 0.015625 0.65625 -0.140625q0.28125 -0.125 0.515625 -0.4375q0.265625 -0.34375 0.296875 -0.765625q0 -0.0625 0 -0.109375q0 -0.375 -0.15625 -0.6875q-0.1875 -0.375 -0.5625 -0.578125q-0.328125 -0.203125 -0.734375 -0.203125q-0.015625 0 -0.046875 0zm7.6640625 15.90625q-1.078125 -0.078125 -2.109375 -0.78125q-0.84375 -0.5625 -1.5 -0.140625q-0.53125 0.359375 -0.484375 1.125q0.046875 0.703125 0.859375 1.171875q0.921875 0.53125 1.546875 0.71875q1.03125 0.28125 2.671875 0.28125q1.953125 -0.015625 3.125 -0.8125q1.453125 -0.96875 1.640625 -2.484375q0.171875 -1.46875 -1.015625 -2.90625q-0.5 -0.609375 -1.796875 -1.203125q-0.9375 -0.4375 -2.0625 -0.5625q-1.40625 -0.15625 -1.625 -0.78125q-0.234375 -0.734375 0.34375 -1.390625q0.671875 -0.796875 2.09375 -0.875q1.328125 -0.046875 2.0 0.609375q1.359375 1.3125 2.03125 0.765625q0.546875 -0.4375 0.4375 -1.140625q-0.171875 -1.0625 -1.84375 -1.890625q-1.28125 -0.625 -3.0 -0.46875q-1.515625 0.140625 -2.6875 0.984375q-0.984375 0.703125 -1.484375 2.046875q-0.46875 1.21875 -0.1875 2.390625q0.359375 1.5 2.765625 1.84375q2.328125 0.328125 2.984375 1.03125q0.984375 1.046875 0.515625 1.78125q-0.59375 0.859375 -3.21875 0.6875zm10.292969 -0.109375q-0.34375 0 -0.625 0.1875q-0.25 0.1875 -0.4375 0.5q-0.140625 0.28125 -0.140625 0.625q0 0.359375 0.15625 0.671875q0.171875 0.296875 0.453125 0.453125q0.25 0.1875 0.5625 0.1875q0.03125 0 0.046875 0q0.328125 0.015625 0.5625 -0.125q0.234375 -0.109375 0.4375 -0.390625q0.21875 -0.3125 0.265625 -0.6875q0 -0.046875 0 -0.109375q0 -0.328125 -0.140625 -0.609375q-0.171875 -0.34375 -0.46875 -0.53125q-0.296875 -0.171875 -0.640625 -0.171875q-0.015625 0 -0.03125 0zm4.90625 0q-0.34375 0 -0.625 0.1875q-0.25 0.1875 -0.421875 0.5q-0.15625 0.28125 -0.15625 0.625q0 0.359375 0.15625 0.671875q0.1875 0.296875 0.453125 0.453125q0.25 0.1875 0.5625 0.1875q0.03125 0 0.0625 0q0.3125 0.015625 0.5625 -0.125q0.234375 -0.109375 0.421875 -0.390625q0.234375 -0.3125 0.265625 -0.6875q0 -0.046875 0 -0.109375q0 -0.328125 -0.140625 -0.609375q-0.171875 -0.34375 -0.46875 -0.53125q-0.296875 -0.171875 -0.640625 -0.171875q-0.015625 0 -0.03125 0zm5.234375 0q-0.34375 0 -0.625 0.1875q-0.265625 0.1875 -0.4375 0.5q-0.15625 0.28125 -0.15625 0.625q0 0.359375 0.171875 0.671875q0.171875 0.296875 0.4375 0.453125q0.265625 0.1875 0.5625 0.1875q0.046875 0 0.0625 0q0.3125 0.015625 0.5625 -0.125q0.234375 -0.109375 0.4375 -0.390625q0.21875 -0.3125 0.25 -0.6875q0 -0.046875 0 -0.109375q0 -0.328125 -0.140625 -0.609375q-0.15625 -0.34375 -0.46875 -0.53125q-0.28125 -0.171875 -0.625 -0.171875q-0.03125 0 -0.03125 0z" fill-rule="nonzero"/><path fill="#000000" fill-opacity="0.0" d="m187.90565 87.64829l239.2126 0l0 48.472435l-239.2126 0z" fill-rule="evenodd"/><path fill="#000000" d="m207.1244 119.90704q1.0625 0.09375 1.78125 -2.046875l3.4375 -10.046875l2.0625 10.625q0.390625 2.03125 1.75 1.875q1.265625 -0.15625 0.90625 -1.828125l-3.015625 -14.65625q-0.421875 -1.96875 -1.5 -1.984375q-1.171875 -0.046875 -1.78125 1.90625l-3.5 11.453125q-2.859375 -12.046875 -2.859375 -12.046875q-0.296875 -1.265625 -1.40625 -1.09375q-1.078125 0.15625 -1.453125 1.75l-3.234375 13.796875q-0.421875 1.828125 0.6875 2.453125q1.234375 0.703125 1.640625 -1.140625l2.453125 -10.953125l2.515625 10.03125q0.4375 1.84375 1.515625 1.90625q0 0 0 0zm16.875 0.4375q1.09375 -0.015625 3.515625 -1.25q0.234375 1.5625 1.703125 1.25q1.28125 -0.25 0.28125 -1.96875q-0.6875 -1.171875 -0.640625 -3.984375q0.0625 -3.53125 0.328125 -5.0q0.28125 -1.5 -1.125 -1.8125q-0.71875 -0.15625 -1.0625 0.125q-3.0625 -0.96875 -5.875 1.34375q-2.453125 2.0 -2.421875 5.671875q0.03125 5.640625 5.296875 5.625zm1.359375 -2.359375q-0.890625 0.328125 -1.90625 0.265625q-2.421875 -0.171875 -2.46875 -3.75q0.109375 -2.765625 2.203125 -4.265625q0.515625 -0.390625 1.375 -0.609375q1.25 -0.296875 2.375 0.421875q-0.53125 1.890625 -0.109375 6.9375q-1.046875 0.84375 -1.46875 1.0zm10.78125 -17.171875q-1.046875 0 -1.078125 1.09375l-0.125 5.546875q-1.359375 0.015625 -2.703125 0.015625q-1.125 0 -1.125 1.171875q0 1.15625 1.015625 1.15625q1.375 0 2.75 0l-0.203125 9.109375q-0.03125 1.265625 1.03125 1.28125q1.265625 0.03125 1.265625 -1.25l0.203125 -9.140625q1.25 0 2.515625 0q1.359375 0 1.359375 -1.203125q0 -1.171875 -1.4375 -1.171875l-2.375 0.015625q0.078125 -2.46875 0.109375 -5.453125q0 -1.171875 -1.203125 -1.171875zm8.761719 0q-1.078125 0.015625 -1.109375 1.09375l-0.390625 17.0q-0.015625 1.265625 1.03125 1.28125q1.234375 0.03125 1.28125 -1.25l0.265625 -6.765625q1.828125 -2.1875 3.984375 -2.0q1.90625 0.15625 1.875 3.265625l-0.03125 5.609375q-0.015625 1.421875 1.25 1.3125q1.109375 -0.09375 1.125 -1.515625l0.046875 -5.9375q0.046875 -5.34375 -4.359375 -5.34375q-2.4375 0 -3.890625 1.359375l0.109375 -6.9375q0.03125 -1.171875 -1.1875 -1.171875zm13.6757965 13.796875l7.875 -1.140625q1.265625 -0.171875 1.3125 -1.609375q0.046875 -1.796875 -1.390625 -3.203125q-1.515625 -1.5 -4.234375 -1.328125q-2.59375 0.15625 -4.234375 2.515625q-1.3125 1.890625 -1.3125 4.296875q0 2.9375 2.078125 4.640625q1.6875 1.390625 3.921875 1.40625q3.046875 0.03125 4.921875 -1.640625q1.0625 -0.953125 0.515625 -2.03125q-0.234375 -0.46875 -0.796875 -0.359375q-0.5 0.109375 -1.296875 0.984375q-0.8125 0.921875 -3.203125 0.9375q-1.640625 0.015625 -2.953125 -1.140625q-1.140625 -1.0 -1.203125 -2.328125zm0.265625 -1.9375q0.328125 -1.15625 0.84375 -1.796875q1.171875 -1.4375 2.78125 -1.4375q1.171875 -0.015625 2.203125 0.640625q0.890625 0.578125 1.0625 1.59375l-6.890625 1.0zm12.5703125 -5.8125q-1.078125 0 -1.09375 1.09375l-0.28125 10.859375q-0.03125 1.265625 1.03125 1.28125q1.21875 0.03125 1.25 -1.25l0.203125 -6.484375q0.625 -2.4375 2.65625 -2.359375q1.796875 0.046875 1.734375 3.390625l-0.125 5.375q-0.03125 1.421875 1.171875 1.3125q1.09375 -0.09375 1.125 -1.515625l0.140625 -5.875q0.015625 -0.671875 0.046875 -0.71875q0.78125 -2.015625 2.921875 -1.953125q1.859375 0.046875 1.8125 3.515625l-0.078125 5.40625q-0.015625 1.421875 1.25 1.296875q1.09375 -0.09375 1.125 -1.515625l0.09375 -5.8125q0.078125 -5.34375 -4.359375 -5.34375q-2.40625 -0.015625 -3.609375 1.71875q-0.84375 -1.75 -3.28125 -1.71875q-1.5 0 -2.546875 0.9375l0.015625 -0.46875q0.015625 -1.171875 -1.203125 -1.171875zm21.832031 13.484375q1.09375 -0.015625 3.515625 -1.25q0.234375 1.5625 1.703125 1.25q1.28125 -0.25 0.28125 -1.96875q-0.6875 -1.171875 -0.640625 -3.984375q0.0625 -3.53125 0.328125 -5.0q0.28125 -1.5 -1.125 -1.8125q-0.71875 -0.15625 -1.0625 0.125q-3.0625 -0.96875 -5.875 1.34375q-2.453125 2.0 -2.421875 5.671875q0.03125 5.640625 5.296875 5.625zm1.359375 -2.359375q-0.890625 0.328125 -1.90625 0.265625q-2.421875 -0.171875 -2.46875 -3.75q0.109375 -2.765625 2.203125 -4.265625q0.515625 -0.390625 1.375 -0.609375q1.25 -0.296875 2.375 0.421875q-0.53125 1.890625 -0.109375 6.9375q-1.046875 0.84375 -1.46875 1.0zm10.78125 -17.171875q-1.046875 0 -1.078125 1.09375l-0.125 5.546875q-1.359375 0.015625 -2.703125 0.015625q-1.125 0 -1.125 1.171875q0 1.15625 1.015625 1.15625q1.375 0 2.75 0l-0.203125 9.109375q-0.03125 1.265625 1.03125 1.28125q1.265625 0.03125 1.265625 -1.25l0.203125 -9.140625q1.25 0 2.515625 0q1.359375 0 1.359375 -1.203125q0 -1.171875 -1.4375 -1.171875l-2.375 0.015625q0.078125 -2.46875 0.109375 -5.453125q0 -1.171875 -1.203125 -1.171875zm9.121094 6.609375q-1.1875 -0.03125 -1.21875 1.53125l-0.203125 9.828125q-0.03125 1.484375 1.21875 1.5q1.109375 0 1.125 -1.59375l0.171875 -9.75q0.015625 -1.5 -1.09375 -1.515625zm0.078125 -5.328125q-0.390625 0 -0.71875 0.203125q-0.3125 0.21875 -0.515625 0.5625q-0.1875 0.328125 -0.1875 0.703125q0 0.390625 0.203125 0.734375q0.203125 0.328125 0.515625 0.515625q0.3125 0.1875 0.671875 0.203125q0.03125 0 0.0625 0q0.375 0.015625 0.65625 -0.140625q0.28125 -0.125 0.515625 -0.4375q0.265625 -0.34375 0.296875 -0.765625q0 -0.0625 0 -0.109375q0 -0.375 -0.15625 -0.6875q-0.1875 -0.375 -0.5625 -0.578125q-0.328125 -0.203125 -0.734375 -0.203125q-0.015625 0 -0.046875 0zm12.5703125 15.125q-1.375 0.9375 -2.96875 0.875q-1.546875 -0.0625 -2.421875 -1.21875q-0.9375 -1.296875 -0.90625 -2.875q0.03125 -1.65625 0.921875 -2.953125q0.78125 -1.125 1.765625 -1.421875q1.734375 -0.5625 3.09375 0.46875q1.140625 0.84375 1.6875 0.4375q0.796875 -0.578125 0.09375 -1.703125q-0.46875 -0.71875 -1.890625 -1.203125q-1.15625 -0.375 -2.546875 -0.265625q-2.390625 0.171875 -3.9375 2.40625q-1.28125 1.84375 -1.28125 4.734375q0 2.609375 1.796875 4.34375q1.4375 1.390625 3.625 1.40625q2.765625 0.015625 4.046875 -1.09375q1.0 -0.875 0.609375 -1.53125q-0.65625 -1.109375 -1.6875 -0.40625zm7.421875 0.78125q-1.078125 -0.078125 -2.109375 -0.78125q-0.84375 -0.5625 -1.5 -0.140625q-0.53125 0.359375 -0.484375 1.125q0.046875 0.703125 0.859375 1.171875q0.921875 0.53125 1.546875 0.71875q1.03125 0.28125 2.671875 0.28125q1.953125 -0.015625 3.125 -0.8125q1.453125 -0.96875 1.640625 -2.484375q0.171875 -1.46875 -1.015625 -2.90625q-0.5 -0.609375 -1.796875 -1.203125q-0.9375 -0.4375 -2.0625 -0.5625q-1.40625 -0.15625 -1.625 -0.78125q-0.234375 -0.734375 0.34375 -1.390625q0.671875 -0.796875 2.09375 -0.875q1.328125 -0.046875 2.0 0.609375q1.359375 1.3125 2.03125 0.765625q0.546875 -0.4375 0.4375 -1.140625q-0.171875 -1.0625 -1.84375 -1.890625q-1.28125 -0.625 -3.0 -0.46875q-1.515625 0.140625 -2.6875 0.984375q-0.984375 0.703125 -1.484375 2.046875q-0.46875 1.21875 -0.1875 2.390625q0.359375 1.5 2.765625 1.84375q2.328125 0.328125 2.984375 1.03125q0.984375 1.046875 0.515625 1.78125q-0.59375 0.859375 -3.21875 0.6875z" fill-rule="nonzero"/><path fill="#000000" fill-opacity="0.0" d="m181.1445 223.91339l239.21262 0l0 77.5748l-239.21262 0z" fill-rule="evenodd"/><path fill="#000000" d="m206.97263 256.59402q0.328125 0.09375 0.65625 0q0.890625 -0.25 1.453125 -2.1718903l3.875 -13.265625q0.859375 -3.0 -0.875 -3.0q-0.84375 0.015625 -1.09375 0.84375l-3.6875 13.265625l-3.671875 -13.265625q-0.234375 -0.84375 -1.125 -0.84375q-0.84375 0 -1.078125 0.84375l-3.703125 13.265625l-3.671875 -13.265625q-0.25 -0.84375 -1.09375 -0.84375q-1.75 0 -0.875 3.0l3.859375 13.25q0.5625 1.9062653 1.453125 2.1875153q0.328125 0.09375 0.65625 0q0.90625 -0.265625 1.46875 -2.1875153l3.0 -10.296875l3.0 10.3125q0.53125 1.8125153 1.453125 2.1718903zm11.058594 -13.468765q-1.078125 0 -1.109375 1.09375l-0.265625 10.953125q-0.03125 1.2656403 1.015625 1.2812653q1.234375 0.03125 1.265625 -1.2500153l0.203125 -7.6875q1.09375 -1.09375 2.421875 -1.34375q1.359375 -0.28125 2.421875 0.4375q1.34375 0.921875 1.859375 -0.578125q0.3125 -0.953125 -1.46875 -1.84375q-1.0 -0.5 -2.5625 -0.484375q-1.28125 0.03125 -2.59375 1.015625q0 -0.21875 0 -0.421875q0 -1.171875 -1.1875 -1.171875zm12.171875 0.5625q-1.1875 -0.03125 -1.21875 1.53125l-0.203125 9.828125q-0.03125 1.4843903 1.21875 1.5000153q1.109375 0 1.125 -1.5937653l0.171875 -9.75q0.015625 -1.5 -1.09375 -1.515625zm0.078125 -5.328125q-0.390625 0 -0.71875 0.203125q-0.3125 0.21875 -0.515625 0.5625q-0.1875 0.328125 -0.1875 0.703125q0 0.390625 0.203125 0.734375q0.203125 0.328125 0.515625 0.515625q0.3125 0.1875 0.671875 0.203125q0.03125 0 0.0625 0q0.375 0.015625 0.65625 -0.140625q0.28125 -0.125 0.515625 -0.4375q0.265625 -0.34375 0.296875 -0.765625q0 -0.0625 0 -0.109375q0 -0.375 -0.15625 -0.6875q-0.1875 -0.375 -0.5625 -0.578125q-0.328125 -0.203125 -0.734375 -0.203125q-0.015625 0 -0.046875 0zm8.8359375 -1.28125q-1.046875 0 -1.078125 1.09375l-0.125 5.546875q-1.359375 0.015625 -2.703125 0.015625q-1.125 0 -1.125 1.171875q0 1.15625 1.015625 1.15625q1.375 0 2.75 0l-0.203125 9.109375q-0.03125 1.2656403 1.03125 1.2812653q1.265625 0.03125 1.265625 -1.2500153l0.203125 -9.140625q1.25 0 2.515625 0q1.359375 0 1.359375 -1.203125q0 -1.171875 -1.4375 -1.171875l-2.375 0.015625q0.078125 -2.46875 0.109375 -5.453125q0 -1.171875 -1.203125 -1.171875zm8.574219 13.796875l7.875 -1.140625q1.265625 -0.171875 1.3125 -1.609375q0.046875 -1.796875 -1.390625 -3.203125q-1.515625 -1.5 -4.234375 -1.328125q-2.59375 0.15625 -4.234375 2.515625q-1.3125 1.890625 -1.3125 4.296875q0 2.9375 2.078125 4.640625q1.6875 1.3906403 3.921875 1.4062653q3.046875 0.03125 4.921875 -1.6406403q1.0625 -0.953125 0.515625 -2.03125q-0.234375 -0.46875 -0.796875 -0.359375q-0.5 0.109375 -1.296875 0.984375q-0.8125 0.921875 -3.203125 0.9375q-1.640625 0.015625 -2.953125 -1.140625q-1.140625 -1.0 -1.203125 -2.328125zm0.265625 -1.9375q0.328125 -1.15625 0.84375 -1.796875q1.171875 -1.4375 2.78125 -1.4375q1.171875 -0.015625 2.203125 0.640625q0.890625 0.578125 1.0625 1.59375l-6.890625 1.0zm12.0078125 -0.25q-0.84375 0 -0.84375 0.90625q0 0.859375 0.78125 0.859375l5.75 0.015625q1.046875 0 1.046875 -0.921875q0 -0.890625 -1.109375 -0.890625l-5.625 0.03125zm13.746094 7.9218903q1.09375 -0.015625 3.515625 -1.2500153q0.234375 1.5625153 1.703125 1.2500153q1.28125 -0.25 0.28125 -1.9687653q-0.6875 -1.171875 -0.640625 -3.984375q0.0625 -3.53125 0.328125 -5.0q0.28125 -1.5 -1.125 -1.8125q-0.71875 -0.15625 -1.0625 0.125q-3.0625 -0.96875 -5.875 1.34375q-2.453125 2.0 -2.421875 5.671875q0.03125 5.6406403 5.296875 5.6250153zm1.359375 -2.3593903q-0.890625 0.328125 -1.90625 0.265625q-2.421875 -0.171875 -2.46875 -3.75q0.109375 -2.765625 2.203125 -4.265625q0.515625 -0.390625 1.375 -0.609375q1.25 -0.296875 2.375 0.421875q-0.53125 1.890625 -0.109375 6.9375q-1.046875 0.84375 -1.46875 1.0zm8.109375 -17.171875q-1.046875 0 -1.078125 1.09375l-0.390625 17.0q-0.03125 1.2656403 1.03125 1.2812653q1.171875 0.03125 1.265625 -1.0937653q1.78125 1.1875153 3.8125 1.1875153q2.0 -0.015625 3.59375 -1.5625153q1.6875 -1.671875 1.828125 -4.03125q0.171875 -3.15625 -1.625 -5.25q-1.71875 -2.0 -4.25 -2.0q-1.40625 0 -2.46875 0.59375q-0.34375 0.203125 -0.65625 0.40625l0.140625 -6.453125q0.015625 -1.171875 -1.203125 -1.171875zm4.640625 17.171875q-1.5 0.203125 -3.75 -1.46875l0.109375 -5.375q1.9375 -1.890625 3.859375 -1.421875q1.25 0.296875 2.109375 1.234375q1.046875 1.15625 1.0 3.171875q-0.03125 1.359375 -0.96875 2.625q-0.78125 1.03125 -2.359375 1.234375zm10.019531 -17.171875q-1.046875 0.03125 -1.078125 1.09375l-0.390625 17.0q-0.03125 1.2656403 1.03125 1.2812653q1.265625 0.03125 1.265625 -1.2500153l0.375 -16.953125q0.015625 -1.171875 -1.203125 -1.171875zm6.0898438 13.796875l7.875 -1.140625q1.265625 -0.171875 1.3125 -1.609375q0.046875 -1.796875 -1.390625 -3.203125q-1.515625 -1.5 -4.234375 -1.328125q-2.59375 0.15625 -4.234375 2.515625q-1.3125 1.890625 -1.3125 4.296875q0 2.9375 2.078125 4.640625q1.6875 1.3906403 3.921875 1.4062653q3.046875 0.03125 4.921875 -1.6406403q1.0625 -0.953125 0.515625 -2.03125q-0.234375 -0.46875 -0.796875 -0.359375q-0.5 0.109375 -1.296875 0.984375q-0.8125 0.921875 -3.203125 0.9375q-1.640625 0.015625 -2.953125 -1.140625q-1.140625 -1.0 -1.203125 -2.328125zm0.265625 -1.9375q0.328125 -1.15625 0.84375 -1.796875q1.171875 -1.4375 2.78125 -1.4375q1.171875 -0.015625 2.203125 0.640625q0.890625 0.578125 1.0625 1.59375l-6.890625 1.0z" fill-rule="nonzero"/><path fill="#000000" d="m196.87888 274.84714q2.46875 -0.046875 2.453125 4.125q-0.015625 2.203125 -0.9375 3.203125q-0.875 0.9375 -2.15625 0.9375q-1.125 0 -1.984375 -0.9375q-0.84375 -0.921875 -0.84375 -2.75q0 -1.921875 1.171875 -3.515625q0.75 -1.03125 2.296875 -1.0625zm-0.09375 -2.390625q-2.5625 -0.015625 -4.109375 2.015625q-1.5625 2.0625 -1.5625 4.734375q0 2.828125 1.3125 4.390625q1.453125 1.71875 3.53125 1.734375q2.890625 0.015625 4.296875 -1.78125q1.25 -1.484375 1.265625 -4.34375q0 -6.71875 -4.734375 -6.75zm8.917969 -0.53125q-1.078125 0 -1.109375 1.09375l-0.265625 10.90625q-0.03125 1.25 1.015625 1.28125q1.25 0.015625 1.296875 -1.265625l0.1875 -7.09375q1.859375 -1.859375 3.484375 -1.734375q1.9375 0.140625 1.859375 3.375l-0.140625 5.546875q-0.046875 1.421875 1.234375 1.3125q1.109375 -0.09375 1.125 -1.515625l0.09375 -5.859375q0.078125 -5.34375 -4.34375 -5.34375q-2.0 0 -3.265625 1.15625q0 -0.359375 0.015625 -0.6875q0.03125 -1.171875 -1.1875 -1.171875zm22.703125 13.484375q1.09375 -0.015625 3.515625 -1.25q0.234375 1.5625 1.703125 1.25q1.28125 -0.25 0.28125 -1.96875q-0.6875 -1.171875 -0.640625 -3.984375q0.0625 -3.53125 0.328125 -5.0q0.28125 -1.5 -1.125 -1.8125q-0.71875 -0.15625 -1.0625 0.125q-3.0625 -0.96875 -5.875 1.34375q-2.453125 2.0 -2.421875 5.671875q0.03125 5.640625 5.296875 5.625zm1.359375 -2.359375q-0.890625 0.328125 -1.90625 0.265625q-2.421875 -0.171875 -2.46875 -3.75q0.109375 -2.765625 2.203125 -4.265625q0.515625 -0.390625 1.375 -0.609375q1.25 -0.296875 2.375 0.421875q-0.53125 1.890625 -0.109375 6.9375q-1.046875 0.84375 -1.46875 1.0zm21.6875 -0.765625q-1.375 0.9375 -2.96875 0.875q-1.546875 -0.0625 -2.421875 -1.21875q-0.9375 -1.296875 -0.90625 -2.875q0.03125 -1.65625 0.921875 -2.953125q0.78125 -1.125 1.765625 -1.421875q1.734375 -0.5625 3.09375 0.46875q1.140625 0.84375 1.6875 0.4375q0.796875 -0.578125 0.09375 -1.703125q-0.46875 -0.71875 -1.890625 -1.203125q-1.15625 -0.375 -2.546875 -0.265625q-2.390625 0.171875 -3.9375 2.40625q-1.28125 1.84375 -1.28125 4.734375q0 2.609375 1.796875 4.34375q1.4375 1.390625 3.625 1.40625q2.765625 0.015625 4.046875 -1.09375q1.0 -0.875 0.609375 -1.53125q-0.65625 -1.109375 -1.6875 -0.40625zm9.5625 -7.4375q2.46875 -0.046875 2.453125 4.125q-0.015625 2.203125 -0.9375 3.203125q-0.875 0.9375 -2.15625 0.9375q-1.125 0 -1.984375 -0.9375q-0.84375 -0.921875 -0.84375 -2.75q0 -1.921875 1.171875 -3.515625q0.75 -1.03125 2.296875 -1.0625zm-0.09375 -2.390625q-2.5625 -0.015625 -4.109375 2.015625q-1.5625 2.0625 -1.5625 4.734375q0 2.828125 1.3125 4.390625q1.453125 1.71875 3.53125 1.734375q2.890625 0.015625 4.296875 -1.78125q1.25 -1.484375 1.265625 -4.34375q0 -6.71875 -4.734375 -6.75zm8.699219 -0.53125q-1.078125 0 -1.09375 1.09375l-0.28125 10.859375q-0.03125 1.265625 1.03125 1.28125q1.21875 0.03125 1.25 -1.25l0.203125 -6.484375q0.625 -2.4375 2.65625 -2.359375q1.796875 0.046875 1.734375 3.390625l-0.125 5.375q-0.03125 1.421875 1.171875 1.3125q1.09375 -0.09375 1.125 -1.515625l0.140625 -5.875q0.015625 -0.671875 0.046875 -0.71875q0.78125 -2.015625 2.921875 -1.953125q1.859375 0.046875 1.8125 3.515625l-0.078125 5.40625q-0.015625 1.421875 1.25 1.296875q1.09375 -0.09375 1.125 -1.515625l0.09375 -5.8125q0.078125 -5.34375 -4.359375 -5.34375q-2.40625 -0.015625 -3.609375 1.71875q-0.84375 -1.75 -3.28125 -1.71875q-1.5 0 -2.546875 0.9375l0.015625 -0.46875q0.015625 -1.171875 -1.203125 -1.171875zm18.582031 19.515625q1.0625 0 1.078125 -1.09375l0.140625 -6.25q0.03125 0.015625 0.046875 0.015625q0.78125 0.796875 2.78125 0.640625q2.28125 -0.171875 3.828125 -2.09375q1.375 -1.71875 1.359375 -4.875q0 -2.171875 -1.515625 -3.796875q-1.53125 -1.671875 -3.625 -1.6875q-2.15625 -0.015625 -2.734375 0.4375q-0.296875 -0.671875 -0.90625 -0.671875q-1.25 -0.03125 -1.28125 1.25l-0.375 16.953125q-0.015625 1.171875 1.203125 1.171875zm1.4375 -16.15625q0.96875 -0.9375 2.5625 -0.734375q1.5 0.203125 2.28125 1.171875q0.890625 1.125 0.875 2.625q-0.03125 1.625 -0.78125 2.734375q-0.890625 1.328125 -2.625 1.4375q-1.3125 0.09375 -2.453125 -1.171875l0.140625 -6.0625zm18.816406 10.359375q1.0625 0 1.078125 -1.09375l0.28125 -10.9375q0.03125 -1.265625 -1.03125 -1.296875q-1.234375 -0.015625 -1.28125 1.265625l-0.140625 5.921875q-0.046875 1.921875 -1.578125 2.6875q-1.6875 0.84375 -2.90625 0.03125q-0.890625 -0.625 -0.859375 -3.453125l0.015625 -5.125q0.03125 -1.40625 -1.21875 -1.296875q-1.09375 0.09375 -1.125 1.5l-0.046875 5.765625q-0.046875 5.328125 4.359375 5.34375q2.0 0 3.265625 -1.171875l0 0.703125q-0.03125 1.15625 1.1875 1.15625zm8.167969 -19.765625q-1.046875 0 -1.078125 1.09375l-0.125 5.546875q-1.359375 0.015625 -2.703125 0.015625q-1.125 0 -1.125 1.171875q0 1.15625 1.015625 1.15625q1.375 0 2.75 0l-0.203125 9.109375q-0.03125 1.265625 1.03125 1.28125q1.265625 0.03125 1.265625 -1.25l0.203125 -9.140625q1.25 0 2.515625 0q1.359375 0 1.359375 -1.203125q0 -1.171875 -1.4375 -1.171875l-2.375 0.015625q0.078125 -2.46875 0.109375 -5.453125q0 -1.171875 -1.203125 -1.171875zm8.574219 13.796875l7.875 -1.140625q1.265625 -0.171875 1.3125 -1.609375q0.046875 -1.796875 -1.390625 -3.203125q-1.515625 -1.5 -4.234375 -1.328125q-2.59375 0.15625 -4.234375 2.515625q-1.3125 1.890625 -1.3125 4.296875q0 2.9375 2.078125 4.640625q1.6875 1.390625 3.921875 1.40625q3.046875 0.03125 4.921875 -1.640625q1.0625 -0.953125 0.515625 -2.03125q-0.234375 -0.46875 -0.796875 -0.359375q-0.5 0.109375 -1.296875 0.984375q-0.8125 0.921875 -3.203125 0.9375q-1.640625 0.015625 -2.953125 -1.140625q-1.140625 -1.0 -1.203125 -2.328125zm0.265625 -1.9375q0.328125 -1.15625 0.84375 -1.796875q1.171875 -1.4375 2.78125 -1.4375q1.171875 -0.015625 2.203125 0.640625q0.890625 0.578125 1.0625 1.59375l-6.890625 1.0zm12.7890625 -5.8125q-1.078125 0 -1.109375 1.09375l-0.265625 10.953125q-0.03125 1.265625 1.015625 1.28125q1.234375 0.03125 1.265625 -1.25l0.203125 -7.6875q1.09375 -1.09375 2.421875 -1.34375q1.359375 -0.28125 2.421875 0.4375q1.34375 0.921875 1.859375 -0.578125q0.3125 -0.953125 -1.46875 -1.84375q-1.0 -0.5 -2.5625 -0.484375q-1.28125 0.03125 -2.59375 1.015625q0 -0.21875 0 -0.421875q0 -1.171875 -1.1875 -1.171875z" fill-rule="nonzero"/><path fill="#000000" fill-opacity="0.0" d="m559.3002 216.50835c9.095642 0 18.367676 1.7588959 27.287048 0c5.0299683 -0.9918976 11.112793 -3.2980804 15.380188 -0.48919678c4.864197 3.2017517 2.480713 11.366867 2.480713 17.137299c0 4.8967133 3.5083008 11.227631 0 14.6901245c-4.7959595 4.733383 -13.559082 0.48921204 -20.341675 0.48921204c-7.944824 0 -16.708557 4.4878845 -23.813782 0.9795685c-3.5985107 -1.776825 -1.9850464 -7.780197 -1.9850464 -11.751389c0 -7.0355988 -1.6967773 -14.7612915 1.4882202 -21.055618" fill-rule="evenodd"/><path stroke="#3c78d8" stroke-width="2.0" stroke-linejoin="round" stroke-linecap="butt" d="m559.3002 216.50835c9.095642 0 18.367676 1.7588959 27.287048 0c5.0299683 -0.9918976 11.112793 -3.2980804 15.380188 -0.48919678c4.864197 3.2017517 2.480713 11.366867 2.480713 17.137299c0 4.8967133 3.5083008 11.227631 0 14.6901245c-4.7959595 4.733383 -13.559082 0.48921204 -20.341675 0.48921204c-7.944824 0 -16.708557 4.4878845 -23.813782 0.9795685c-3.5985107 -1.776825 -1.9850464 -7.780197 -1.9850464 -11.751389c0 -7.0355988 -1.6967773 -14.7612915 1.4882202 -21.055618" fill-rule="evenodd"/><path fill="#000000" fill-opacity="0.0" d="m559.3002 261.77768c9.095642 0 18.367676 1.7589111 27.287048 0c5.0299683 -0.99191284 11.112793 -3.2980957 15.380188 -0.48919678c4.864197 3.2017517 2.480713 11.366882 2.480713 17.137299c0 4.8967285 3.5083008 11.227631 0 14.6901245c-4.7959595 4.733368 -13.559082 0.48919678 -20.341675 0.48919678c-7.944824 0 -16.708557 4.4878845 -23.813782 0.97958374c-3.5985107 -1.776825 -1.9850464 -7.780182 -1.9850464 -11.751404c0 -7.0355835 -1.6967773 -14.761261 1.4882202 -21.055603" fill-rule="evenodd"/><path stroke="#3c78d8" stroke-width="2.0" stroke-linejoin="round" stroke-linecap="butt" d="m559.3002 261.77768c9.095642 0 18.367676 1.7589111 27.287048 0c5.0299683 -0.99191284 11.112793 -3.2980957 15.380188 -0.48919678c4.864197 3.2017517 2.480713 11.366882 2.480713 17.137299c0 4.8967285 3.5083008 11.227631 0 14.6901245c-4.7959595 4.733368 -13.559082 0.48919678 -20.341675 0.48919678c-7.944824 0 -16.708557 4.4878845 -23.813782 0.97958374c-3.5985107 -1.776825 -1.9850464 -7.780182 -1.9850464 -11.751404c0 -7.0355835 -1.6967773 -14.761261 1.4882202 -21.055603" fill-rule="evenodd"/><path fill="#000000" fill-opacity="0.0" d="m559.3002 308.14514c9.095642 0 18.367676 1.7589111 27.287048 0c5.0299683 -0.99191284 11.112793 -3.2980957 15.380188 -0.48919678c4.864197 3.2017517 2.480713 11.366852 2.480713 17.137299c0 4.896698 3.5083008 11.227631 0 14.6901245c-4.7959595 4.733368 -13.559082 0.48919678 -20.341675 0.48919678c-7.944824 0 -16.708557 4.4878845 -23.813782 0.97958374c-3.5985107 -1.776825 -1.9850464 -7.7802124 -1.9850464 -11.751404c0 -7.0355835 -1.6967773 -14.7612915 1.4882202 -21.055603" fill-rule="evenodd"/><path stroke="#3c78d8" stroke-width="2.0" stroke-linejoin="round" stroke-linecap="butt" d="m559.3002 308.14514c9.095642 0 18.367676 1.7589111 27.287048 0c5.0299683 -0.99191284 11.112793 -3.2980957 15.380188 -0.48919678c4.864197 3.2017517 2.480713 11.366852 2.480713 17.137299c0 4.896698 3.5083008 11.227631 0 14.6901245c-4.7959595 4.733368 -13.559082 0.48919678 -20.341675 0.48919678c-7.944824 0 -16.708557 4.4878845 -23.813782 0.97958374c-3.5985107 -1.776825 -1.9850464 -7.7802124 -1.9850464 -11.751404c0 -7.0355835 -1.6967773 -14.7612915 1.4882202 -21.055603" fill-rule="evenodd"/><path fill="#000000" fill-opacity="0.0" d="m669.0429 216.50835c9.095703 0 18.367676 1.7588959 27.28711 0c5.0299683 -0.9918976 11.112793 -3.2980804 15.380127 -0.48919678c4.864258 3.2017517 2.480774 11.366867 2.480774 17.137299c0 4.8967133 3.5083008 11.227631 0 14.6901245c-4.7960205 4.733383 -13.559082 0.48921204 -20.341675 0.48921204c-7.944824 0 -16.708557 4.4878845 -23.813782 0.9795685c-3.5985107 -1.776825 -1.9850464 -7.780197 -1.9850464 -11.751389c0 -7.0355988 -1.6967773 -14.7612915 1.4882202 -21.055618" fill-rule="evenodd"/><path stroke="#3c78d8" stroke-width="2.0" stroke-linejoin="round" stroke-linecap="butt" d="m669.0429 216.50835c9.095703 0 18.367676 1.7588959 27.28711 0c5.0299683 -0.9918976 11.112793 -3.2980804 15.380127 -0.48919678c4.864258 3.2017517 2.480774 11.366867 2.480774 17.137299c0 4.8967133 3.5083008 11.227631 0 14.6901245c-4.7960205 4.733383 -13.559082 0.48921204 -20.341675 0.48921204c-7.944824 0 -16.708557 4.4878845 -23.813782 0.9795685c-3.5985107 -1.776825 -1.9850464 -7.780197 -1.9850464 -11.751389c0 -7.0355988 -1.6967773 -14.7612915 1.4882202 -21.055618" fill-rule="evenodd"/><path fill="#000000" fill-opacity="0.0" d="m669.0429 283.74063c9.095703 0 18.367676 1.7589111 27.28711 0c5.0299683 -0.99191284 11.112793 -3.2980957 15.380127 -0.48919678c4.864258 3.2017517 2.480774 11.366852 2.480774 17.137299c0 4.8967285 3.5083008 11.227631 0 14.6901245c-4.7960205 4.733368 -13.559082 0.48919678 -20.341675 0.48919678c-7.944824 0 -16.708557 4.4878845 -23.813782 0.97958374c-3.5985107 -1.776825 -1.9850464 -7.7802124 -1.9850464 -11.751404c0 -7.0355835 -1.6967773 -14.761261 1.4882202 -21.055603" fill-rule="evenodd"/><path stroke="#3c78d8" stroke-width="2.0" stroke-linejoin="round" stroke-linecap="butt" d="m669.0429 283.74063c9.095703 0 18.367676 1.7589111 27.28711 0c5.0299683 -0.99191284 11.112793 -3.2980957 15.380127 -0.48919678c4.864258 3.2017517 2.480774 11.366852 2.480774 17.137299c0 4.8967285 3.5083008 11.227631 0 14.6901245c-4.7960205 4.733368 -13.559082 0.48919678 -20.341675 0.48919678c-7.944824 0 -16.708557 4.4878845 -23.813782 0.97958374c-3.5985107 -1.776825 -1.9850464 -7.7802124 -1.9850464 -11.751404c0 -7.0355835 -1.6967773 -14.761261 1.4882202 -21.055603" fill-rule="evenodd"/><path fill="#000000" fill-opacity="0.0" d="m324.2152 237.52638c54.308594 -30.608917 102.509766 -82.0316 163.89188 -89.9722c19.132263 -2.475006 38.335907 5.293976 57.617523 5.293976" fill-rule="evenodd"/><path stroke="#3c78d8" stroke-width="3.0" stroke-linejoin="round" stroke-linecap="butt" d="m324.2152 237.5264c54.308624 -30.608932 102.509766 -82.03163 163.89188 -89.97221c9.566132 -1.237503 19.150146 0.08598328 28.752777 1.7188568c2.4006348 0.40821838 4.80249 0.83576965 7.2054443 1.2474823c1.2015381 0.20585632 2.4033813 0.40774536 3.6054077 0.6012726l0.13482666 0.021194458" fill-rule="evenodd"/><path stroke="#3c78d8" stroke-width="3.0" stroke-linecap="butt" d="m527.3362 156.07591l14.022461 -3.643219l-13.083679 -6.2226105z" fill-rule="evenodd"/><path fill="#000000" fill-opacity="0.0" d="m605.8609 232.75328l61.19684 -1.5747986" fill-rule="evenodd"/><path stroke="#000000" stroke-width="2.0" stroke-linejoin="round" stroke-linecap="butt" d="m605.8609 232.75328l54.34491 -1.3984833" fill-rule="evenodd"/><path fill="#000000" stroke="#000000" stroke-width="2.0" stroke-linecap="butt" d="m660.2058 231.3548l-2.1905518 2.3062897l6.119629 -2.4073944l-6.2353516 -2.0894623z" fill-rule="evenodd"/><path fill="#000000" fill-opacity="0.0" d="m605.8609 275.46982l61.19684 23.24408" fill-rule="evenodd"/><path stroke="#000000" stroke-width="2.0" stroke-linejoin="round" stroke-linecap="butt" d="m605.8609 275.46982l54.789307 20.810333" fill-rule="evenodd"/><path fill="#000000" stroke="#000000" stroke-width="2.0" stroke-linecap="butt" d="m660.6502 296.28015l-2.901245 1.3039856l6.5755005 0.09161377l-4.9782715 -4.296814z" fill-rule="evenodd"/><path fill="#000000" fill-opacity="0.0" d="m605.8609 325.0853l62.771667 -24.0" fill-rule="evenodd"/><path stroke="#000000" stroke-width="2.0" stroke-linejoin="round" stroke-linecap="butt" d="m605.8609 325.0853l56.369446 -21.552216" fill-rule="evenodd"/><path fill="#000000" stroke="#000000" stroke-width="2.0" stroke-linecap="butt" d="m662.23035 303.5331l-1.2976074 2.9040833l4.968811 -4.3077393l-6.5752563 0.10601807z" fill-rule="evenodd"/></g></svg>