<svg version="1.1" viewBox="0.0 0.0 868.2782152230972 233.35958005249344" fill="none" stroke="none" stroke-linecap="square" stroke-miterlimit="10" xmlns:xlink="http://www.w3.org/1999/xlink" xmlns="http://www.w3.org/2000/svg"><clipPath id="p.0"><path d="m0 0l868.2782 0l0 233.35957l-868.2782 0l0 -233.35957z" clip-rule="nonzero"/></clipPath><g clip-path="url(#p.0)"><path fill="#ffffff" d="m0 0l868.2782 0l0 233.35957l-868.2782 0z" fill-rule="evenodd"/><path fill="#000000" fill-opacity="0.0" d="m53.93176 96.65286l0 0c0 -5.3808975 4.3620796 -9.742973 9.742977 -9.742973l273.36444 0c2.5839844 0 5.0621643 1.0264893 6.8893127 2.8536453c1.827179 1.8271637 2.8536682 4.3053284 2.8536682 6.889328l0 38.970734c0 5.380905 -4.362091 9.742981 -9.742981 9.742981l-273.36444 0l0 0c-5.3808975 0 -9.742977 -4.362076 -9.742977 -9.742981z" fill-rule="evenodd"/><path stroke="#3c78d8" stroke-width="3.0" stroke-linejoin="round" stroke-linecap="butt" d="m53.93176 96.65286l0 0c0 -5.3808975 4.3620796 -9.742973 9.742977 -9.742973l273.36444 0c2.5839844 0 5.0621643 1.0264893 6.8893127 2.8536453c1.827179 1.8271637 2.8536682 4.3053284 2.8536682 6.889328l0 38.970734c0 5.380905 -4.362091 9.742981 -9.742981 9.742981l-273.36444 0l0 0c-5.3808975 0 -9.742977 -4.362076 -9.742977 -9.742981z" fill-rule="evenodd"/><path fill="#3c78d8" d="m75.3514 111.7301q1.03125 -0.6875 2.25 -0.40625q0.8125 0.1875 1.4375 0.609375q0.6875 0.46875 1.328125 -0.125q0.359375 -0.34375 0.3125 -1.015625q-0.03125 -0.515625 -1.1875 -1.109375q-1.515625 -0.765625 -3.421875 -0.46875q-1.984375 0.3125 -3.765625 2.828125q-1.21875 1.734375 -1.21875 5.109375q-0.015625 2.8125 1.3125 4.5625q1.3125 1.71875 3.515625 1.796875q1.6875 0.0625 3.125 -0.53125q1.765625 -0.71875 1.84375 -1.421875q0.125 -1.21875 -0.75 -1.390625q-0.515625 -0.109375 -1.8125 0.71875q-0.890625 0.59375 -2.53125 0.5q-1.15625 -0.046875 -1.859375 -1.09375q-0.859375 -1.328125 -0.859375 -3.359375q0 -2.203125 0.75 -3.5q0.65625 -1.140625 1.53125 -1.703125zm14.100494 12.015625q0.828125 0 0.84375 -0.84375l0.21875 -8.5q0.015625 -0.984375 -0.796875 -1.015625q-0.96875 0 -1.0 0.984375l-0.109375 4.609375q-0.046875 1.484375 -1.234375 2.09375q-1.296875 0.65625 -2.25 0.015625q-0.6875 -0.484375 -0.671875 -2.6875l0.015625 -3.984375q0.015625 -1.09375 -0.953125 -1.0q-0.859375 0.078125 -0.875 1.171875l-0.03125 4.46875q-0.03125 4.140625 3.390625 4.15625q1.546875 0 2.546875 -0.90625l-0.015625 0.546875q-0.015625 0.890625 0.921875 0.890625zm3.9828644 -10.65625q-0.828125 0 -0.859375 0.84375l-0.203125 8.453125q-0.03125 0.96875 0.796875 0.984375q0.9375 0.03125 0.96875 -0.96875l0.15625 -5.03125q0.5 -1.90625 2.0625 -1.84375q1.40625 0.046875 1.359375 2.640625l-0.09375 4.1875q-0.03125 1.078125 0.90625 1.0q0.84375 -0.0625 0.875 -1.171875l0.109375 -4.5625q0.015625 -0.53125 0.03125 -0.5625q0.609375 -1.5625 2.28125 -1.515625q1.4375 0.03125 1.390625 2.734375l-0.046875 4.203125q-0.015625 1.09375 0.96875 1.0q0.859375 -0.0625 0.875 -1.171875l0.0625 -4.53125q0.0625 -4.140625 -3.390625 -4.140625q-1.859375 -0.015625 -2.796875 1.328125q-0.65625 -1.359375 -2.546875 -1.328125q-1.171875 0 -1.984375 0.734375l0.015625 -0.375q0.015625 -0.90625 -0.9375 -0.90625zm20.21196 10.65625q0.828125 0 0.84375 -0.84375l0.21875 -8.5q0.015625 -0.984375 -0.796875 -1.015625q-0.96875 0 -1.0 0.984375l-0.109375 4.609375q-0.046875 1.484375 -1.234375 2.09375q-1.296875 0.65625 -2.25 0.015625q-0.6875 -0.484375 -0.671875 -2.6875l0.015625 -3.984375q0.015625 -1.09375 -0.953125 -1.0q-0.859375 0.078125 -0.875 1.171875l-0.03125 4.46875q-0.03125 4.140625 3.390625 4.15625q1.546875 0 2.546875 -0.90625l-0.015625 0.546875q-0.015625 0.890625 0.921875 0.890625zm4.6078644 -15.359375q-0.828125 0.03125 -0.84375 0.859375l-0.3125 13.21875q-0.015625 0.96875 0.8125 0.984375q0.984375 0.015625 0.984375 -0.96875l0.28125 -13.1875q0.03125 -0.90625 -0.921875 -0.90625zm6.969803 15.1875q0.84375 -0.015625 2.734375 -0.96875q0.17188263 1.203125 1.3125076 0.96875q1.0 -0.203125 0.21875 -1.53125q-0.53125 -0.921875 -0.484375 -3.109375q0.046875 -2.734375 0.25 -3.875q0.21875 -1.171875 -0.875 -1.40625q-0.5625076 -0.125 -0.8281326 0.09375q-2.390625 -0.75 -4.578125 1.046875q-1.890625 1.546875 -1.875 4.40625q0.03125 4.375 4.125 4.375zm1.046875 -1.84375q-0.6875 0.265625 -1.484375 0.203125q-1.875 -0.125 -1.90625 -2.90625q0.078125 -2.140625 1.703125 -3.3125q0.40625 -0.3125 1.078125 -0.46875q0.96875 -0.234375 1.84375 0.3125q-0.421875 1.484375 -0.09375 5.390625q-0.8125 0.671875 -1.140625 0.78125zm8.390511 -13.34375q-0.828125 0 -0.84375 0.859375l-0.09375 4.296875q-1.0625 0.015625 -2.109375 0.015625q-0.859375 0 -0.859375 0.921875q0 0.890625 0.78125 0.890625q1.0625 0 2.140625 0l-0.171875 7.09375q-0.015625 0.96875 0.8125 0.984375q0.984375 0.015625 0.984375 -0.96875l0.15625 -7.109375q0.984375 0 1.953125 0q1.0625 0 1.0625 -0.9375q0 -0.90625 -1.125 -0.90625l-1.84375 0.015625q0.0625 -1.921875 0.078125 -4.25q0 -0.90625 -0.921875 -0.90625zm7.0875397 5.140625q-0.921875 -0.03125 -0.953125 1.1875l-0.15625 7.640625q-0.015625 1.15625 0.953125 1.15625q0.859375 0 0.875 -1.234375l0.125 -7.578125q0.015625 -1.15625 -0.84375 -1.171875zm0.0625 -4.140625q-0.3125 0 -0.5625 0.171875q-0.234375 0.15625 -0.390625 0.421875q-0.15625 0.25 -0.15625 0.546875q0 0.3125 0.15625 0.578125q0.15625 0.25 0.40625 0.390625q0.234375 0.15625 0.515625 0.15625q0.03125 0 0.0625 0q0.28125 0.015625 0.5 -0.109375q0.21875 -0.09375 0.40625 -0.328125q0.203125 -0.265625 0.234375 -0.59375q0 -0.046875 0 -0.09375q0 -0.28125 -0.140625 -0.53125q-0.140625 -0.296875 -0.421875 -0.453125q-0.265625 -0.15625 -0.578125 -0.15625q-0.015625 0 -0.03125 0zm3.4632263 4.140625q-0.765625 0.328125 -0.328125 1.484375l2.859375 7.46875q0.40625 0.984375 1.109375 0.984375q0.6875 0 1.078125 -0.984375l2.859375 -7.46875q0.4375 -1.15625 -0.328125 -1.484375q-0.90625 -0.375 -1.328125 0.78125l-2.296875 6.375l-2.296875 -6.375q-0.421875 -1.15625 -1.328125 -0.78125zm10.354309 5.59375l6.125 -0.890625q0.96875 -0.140625 1.0 -1.25q0.046875 -1.40625 -1.0625 -2.5q-1.1875 -1.15625 -3.296875 -1.03125q-2.015625 0.125 -3.296875 1.953125q-1.015625 1.46875 -1.015625 3.34375q0 2.28125 1.625 3.609375q1.296875 1.078125 3.03125 1.09375q2.375 0.015625 3.828125 -1.28125q0.828125 -0.734375 0.40625 -1.578125q-0.1875 -0.359375 -0.625 -0.265625q-0.390625 0.078125 -1.0 0.75q-0.640625 0.71875 -2.5 0.734375q-1.265625 0.015625 -2.296875 -0.890625q-0.875 -0.78125 -0.921875 -1.796875zm0.203125 -1.515625q0.25 -0.890625 0.65625 -1.390625q0.90625 -1.125 2.171875 -1.125q0.890625 -0.015625 1.703125 0.5q0.6875 0.453125 0.828125 1.234375l-5.359375 0.78125zm15.530243 -8.21875q-1.234375 0 -1.234375 0.8125q0 0.953125 1.15625 0.953125q2.140625 0 4.296875 -0.015625l-0.28125 11.453125q-0.015625 0.90625 0.796875 0.921875q0.96875 0.015625 1.0 -0.90625l0.265625 -11.46875l3.84375 -0.015625q1.21875 0 1.203125 -0.828125q-0.03125 -0.90625 -1.203125 -0.90625l-9.84375 0zm13.164795 4.140625q-0.921875 -0.03125 -0.953125 1.1875l-0.15625 7.640625q-0.015625 1.15625 0.953125 1.15625q0.859375 0 0.875 -1.234375l0.125 -7.578125q0.015625 -1.15625 -0.84375 -1.171875zm0.0625 -4.140625q-0.3125 0 -0.5625 0.171875q-0.234375 0.15625 -0.390625 0.421875q-0.15625 0.25 -0.15625 0.546875q0 0.3125 0.15625 0.578125q0.15625 0.25 0.40625 0.390625q0.234375 0.15625 0.515625 0.15625q0.03125 0 0.0625 0q0.28125 0.015625 0.5 -0.109375q0.21875 -0.09375 0.40625 -0.328125q0.203125 -0.265625 0.234375 -0.59375q0 -0.046875 0 -0.09375q0 -0.28125 -0.140625 -0.53125q-0.140625 -0.296875 -0.421875 -0.453125q-0.265625 -0.15625 -0.578125 -0.15625q-0.015625 0 -0.03125 0zm4.4944763 3.703125q-0.828125 0 -0.859375 0.84375l-0.203125 8.453125q-0.03125 0.96875 0.796875 0.984375q0.9375 0.03125 0.96875 -0.96875l0.15625 -5.03125q0.5 -1.90625 2.0625 -1.84375q1.40625 0.046875 1.359375 2.640625l-0.09375 4.1875q-0.03125 1.078125 0.90625 1.0q0.84375 -0.0625 0.875 -1.171875l0.109375 -4.5625q0.015625 -0.53125 0.03125 -0.5625q0.609375 -1.5625 2.28125 -1.515625q1.4375 0.03125 1.390625 2.734375l-0.046875 4.203125q-0.015625 1.09375 0.96875 1.0q0.859375 -0.0625 0.875 -1.171875l0.0625 -4.53125q0.0625 -4.140625 -3.390625 -4.140625q-1.859375 -0.015625 -2.796875 1.328125q-0.65625 -1.359375 -2.546875 -1.328125q-1.171875 0 -1.984375 0.734375l0.015625 -0.375q0.015625 -0.90625 -0.9375 -0.90625zm14.74321 6.03125l6.125 -0.890625q0.96875 -0.140625 1.0 -1.25q0.046875 -1.40625 -1.0625 -2.5q-1.1875 -1.15625 -3.296875 -1.03125q-2.015625 0.125 -3.296875 1.953125q-1.015625 1.46875 -1.015625 3.34375q0 2.28125 1.625 3.609375q1.296875 1.078125 3.03125 1.09375q2.375 0.015625 3.828125 -1.28125q0.828125 -0.734375 0.40625 -1.578125q-0.1875 -0.359375 -0.625 -0.265625q-0.390625 0.078125 -1.0 0.75q-0.640625 0.71875 -2.5 0.734375q-1.265625 0.015625 -2.296875 -0.890625q-0.875 -0.78125 -0.921875 -1.796875zm0.203125 -1.515625q0.25 -0.890625 0.65625 -1.390625q0.90625 -1.125 2.171875 -1.125q0.890625 -0.015625 1.703125 0.5q0.6875 0.453125 0.828125 1.234375l-5.359375 0.78125zm11.236481 4.140625q-0.84375 -0.046875 -1.640625 -0.59375q-0.65625 -0.453125 -1.171875 -0.109375q-0.421875 0.265625 -0.390625 0.875q0.046875 0.546875 0.6875 0.90625q0.703125 0.40625 1.203125 0.546875q0.796875 0.21875 2.078125 0.21875q1.5 -0.015625 2.421875 -0.625q1.125 -0.75 1.265625 -1.921875q0.140625 -1.15625 -0.78125 -2.265625q-0.390625 -0.46875 -1.390625 -0.9375q-0.734375 -0.34375 -1.609375 -0.4375q-1.09375 -0.125 -1.265625 -0.609375q-0.171875 -0.5625 0.265625 -1.078125q0.53125 -0.625 1.625 -0.6875q1.03125 -0.03125 1.5625 0.484375q1.0625 1.015625 1.578125 0.59375q0.421875 -0.34375 0.34375 -0.890625q-0.140625 -0.828125 -1.4375 -1.46875q-1.0 -0.484375 -2.328125 -0.375q-1.1875 0.109375 -2.09375 0.765625q-0.765625 0.546875 -1.15625 1.59375q-0.359375 0.953125 -0.140625 1.859375q0.28125 1.171875 2.15625 1.4375q1.796875 0.25 2.3125 0.796875q0.765625 0.828125 0.390625 1.390625q-0.453125 0.671875 -2.484375 0.53125zm9.988419 -13.359375q-0.828125 0 -0.84375 0.859375l-0.09375 4.296875q-1.0625 0.015625 -2.109375 0.015625q-0.859375 0 -0.859375 0.921875q0 0.890625 0.78125 0.890625q1.0625 0 2.140625 0l-0.171875 7.09375q-0.015625 0.96875 0.8125 0.984375q0.984375 0.015625 0.984375 -0.96875l0.15625 -7.109375q0.984375 0 1.953125 0q1.0625 0 1.0625 -0.9375q0 -0.90625 -1.125 -0.90625l-1.84375 0.015625q0.0625 -1.921875 0.078125 -4.25q0 -0.90625 -0.921875 -0.90625zm6.6656647 10.734375l6.125 -0.890625q0.96875 -0.140625 1.0 -1.25q0.046875 -1.40625 -1.0625 -2.5q-1.1875 -1.15625 -3.296875 -1.03125q-2.015625 0.125 -3.296875 1.953125q-1.015625 1.46875 -1.015625 3.34375q0 2.28125 1.625 3.609375q1.296875 1.078125 3.03125 1.09375q2.375 0.015625 3.828125 -1.28125q0.828125 -0.734375 0.40625 -1.578125q-0.1875 -0.359375 -0.625 -0.265625q-0.390625 0.078125 -1.0 0.75q-0.640625 0.71875 -2.5 0.734375q-1.265625 0.015625 -2.296875 -0.890625q-0.875 -0.78125 -0.921875 -1.796875zm0.203125 -1.515625q0.25 -0.890625 0.65625 -1.390625q0.90625 -1.125 2.171875 -1.125q0.890625 -0.015625 1.703125 0.5q0.6875 0.453125 0.828125 1.234375l-5.359375 0.78125zm9.720856 10.65625q0.828125 0 0.84375 -0.859375l0.109375 -4.859375q0.015625 0.015625 0.03125 0.03125q0.609375 0.609375 2.15625 0.484375q1.78125 -0.125 2.984375 -1.625q1.0625 -1.328125 1.0625 -3.78125q0 -1.703125 -1.1875 -2.96875q-1.1875 -1.296875 -2.8125 -1.296875q-1.671875 -0.015625 -2.140625 0.328125q-0.21875 -0.515625 -0.703125 -0.515625q-0.96875 -0.03125 -0.984375 0.96875l-0.296875 13.1875q-0.015625 0.90625 0.9375 0.90625zm1.109375 -12.5625q0.765625 -0.734375 2.0 -0.5625q1.171875 0.15625 1.765625 0.90625q0.703125 0.859375 0.6875 2.046875q-0.015625 1.25 -0.609375 2.125q-0.6875 1.015625 -2.046875 1.109375q-1.015625 0.078125 -1.90625 -0.90625l0.109375 -4.71875zm10.381149 6.046875q-0.84375 -0.046875 -1.640625 -0.59375q-0.65625 -0.453125 -1.171875 -0.109375q-0.421875 0.265625 -0.390625 0.875q0.046875 0.546875 0.6875 0.90625q0.703125 0.40625 1.203125 0.546875q0.796875 0.21875 2.078125 0.21875q1.5 -0.015625 2.4218597 -0.625q1.125 -0.75 1.265625 -1.921875q0.140625 -1.15625 -0.78125 -2.265625q-0.390625 -0.46875 -1.3906097 -0.9375q-0.734375 -0.34375 -1.609375 -0.4375q-1.09375 -0.125 -1.265625 -0.609375q-0.171875 -0.5625 0.265625 -1.078125q0.53125 -0.625 1.625 -0.6875q1.03125 -0.03125 1.5624847 0.484375q1.0625 1.015625 1.578125 0.59375q0.421875 -0.34375 0.34375 -0.890625q-0.140625 -0.828125 -1.4375 -1.46875q-0.99998474 -0.484375 -2.3281097 -0.375q-1.1875 0.109375 -2.09375 0.765625q-0.765625 0.546875 -1.15625 1.59375q-0.359375 0.953125 -0.140625 1.859375q0.28125 1.171875 2.15625 1.4375q1.796875 0.25 2.3125 0.796875q0.76560974 0.828125 0.390625 1.390625q-0.453125 0.671875 -2.484375 0.53125zm13.688431 -12.46875q-0.84375 0.015625 -0.859375 0.796875l-0.296875 12.46875q-0.03125 0.921875 0.78125 0.9375q0.984375 0 1.015625 -0.9375l0.109375 -5.234375l7.875 0q-0.0625 2.609375 -0.125 5.234375q-0.015625 0.921875 0.8125 0.9375q0.984375 0.015625 0.984375 -0.921875l0.28125 -12.421875q0.015625 -0.859375 -0.921875 -0.859375q-0.828125 0.03125 -0.84375 0.8125l-0.140625 5.3125l-7.875 0l0.125 -5.28125q0.015625 -0.84375 -0.921875 -0.84375zm14.501099 4.25q-0.921875 -0.03125 -0.953125 1.1875l-0.15625 7.640625q-0.015625 1.15625 0.953125 1.15625q0.859375 0 0.875 -1.234375l0.125 -7.578125q0.015625 -1.15625 -0.84375 -1.171875zm0.0625 -4.140625q-0.3125 0 -0.5625 0.171875q-0.234375 0.15625 -0.390625 0.421875q-0.15625 0.25 -0.15625 0.546875q0 0.3125 0.15625 0.578125q0.15625 0.25 0.40625 0.390625q0.234375 0.15625 0.515625 0.15625q0.03125 0 0.0625 0q0.28125 0.015625 0.5 -0.109375q0.21875 -0.09375 0.40625 -0.328125q0.203125 -0.265625 0.234375 -0.59375q0 -0.046875 0 -0.09375q0 -0.28125 -0.140625 -0.53125q-0.140625 -0.296875 -0.421875 -0.453125q-0.265625 -0.15625 -0.578125 -0.15625q-0.015625 0 -0.03125 0zm5.9632263 12.359375q-0.84375 -0.046875 -1.640625 -0.59375q-0.65625 -0.453125 -1.171875 -0.109375q-0.421875 0.265625 -0.390625 0.875q0.046875 0.546875 0.6875 0.90625q0.703125 0.40625 1.203125 0.546875q0.796875 0.21875 2.078125 0.21875q1.5 -0.015625 2.421875 -0.625q1.125 -0.75 1.265625 -1.921875q0.140625 -1.15625 -0.78125 -2.265625q-0.390625 -0.46875 -1.390625 -0.9375q-0.734375 -0.34375 -1.609375 -0.4375q-1.09375 -0.125 -1.265625 -0.609375q-0.171875 -0.5625 0.265625 -1.078125q0.53125 -0.625 1.625 -0.6875q1.03125 -0.03125 1.5625 0.484375q1.0625 1.015625 1.578125 0.59375q0.421875 -0.34375 0.34375 -0.890625q-0.140625 -0.828125 -1.4375 -1.46875q-1.0 -0.484375 -2.328125 -0.375q-1.1875 0.109375 -2.09375 0.765625q-0.765625 0.546875 -1.15625 1.59375q-0.359375 0.953125 -0.140625 1.859375q0.28125 1.171875 2.15625 1.4375q1.796875 0.25 2.3125 0.796875q0.765625 0.828125 0.390625 1.390625q-0.453125 0.671875 -2.484375 0.53125zm9.988434 -13.359375q-0.828125 0 -0.84375 0.859375l-0.09375 4.296875q-1.0625 0.015625 -2.109375 0.015625q-0.859375 0 -0.859375 0.921875q0 0.890625 0.78125 0.890625q1.0625 0 2.140625 0l-0.171875 7.09375q-0.015625 0.96875 0.8125 0.984375q0.984375 0.015625 0.984375 -0.96875l0.15625 -7.109375q0.984375 0 1.953125 0q1.0625 0 1.0625 -0.9375q0 -0.90625 -1.125 -0.90625l-1.84375 0.015625q0.0625 -1.921875 0.078125 -4.25q0 -0.90625 -0.921875 -0.90625zm9.540649 6.96875q1.921875 -0.03125 1.90625 3.21875q-0.015625 1.703125 -0.734375 2.484375q-0.671875 0.71875 -1.671875 0.71875q-0.875 0 -1.546875 -0.71875q-0.65625 -0.71875 -0.65625 -2.140625q0 -1.484375 0.90625 -2.734375q0.59375 -0.796875 1.796875 -0.828125zm-0.078125 -1.859375q-1.984375 -0.015625 -3.1875 1.578125q-1.21875 1.59375 -1.21875 3.671875q0 2.203125 1.015625 3.40625q1.125 1.34375 2.75 1.359375q2.25 0.015625 3.34375 -1.375q0.96875 -1.171875 0.984375 -3.390625q0 -5.21875 -3.6875 -5.25zm6.935913 -0.40625q-0.84375 0 -0.859375 0.84375l-0.203125 8.53125q-0.03125 0.96875 0.78125 0.984375q0.953125 0.015625 0.984375 -0.96875l0.15625 -5.984375q0.859375 -0.84375 1.890625 -1.046875q1.046875 -0.203125 1.875 0.34375q1.046875 0.71875 1.453125 -0.453125q0.234375 -0.734375 -1.140625 -1.421875q-0.78125 -0.390625 -2.0 -0.375q-0.984375 0.015625 -2.015625 0.78125q0 -0.171875 0 -0.328125q0 -0.90625 -0.921875 -0.90625zm15.432495 0.59375q-0.875 -0.359375 -1.34375 0.71875l-2.5 5.734375l-3.046875 -5.796875q-0.578125 -1.078125 -1.421875 -0.625q-0.796875 0.421875 -0.21875 1.5l3.796875 7.015625l-1.8125 4.1875q-0.640625 1.453125 0.3125 1.84375q0.8125 0.328125 1.4375 -1.125l5.203125 -12.0q0.46875 -1.078125 -0.40625 -1.453125z" fill-rule="nonzero"/><path fill="#000000" fill-opacity="0.0" d="m427.49344 116.87314l0 0c0 -39.407906 31.946411 -71.354324 71.35434 -71.354324l0 0c18.924316 0 37.07361 7.517666 50.45514 20.899197c13.381531 13.381538 20.89917 31.530792 20.89917 50.45513l0 0c0 39.407913 -31.946411 71.35434 -71.35431 71.35434l0 0c-39.40793 0 -71.35434 -31.946426 -71.35434 -71.35434z" fill-rule="evenodd"/><path stroke="#000000" stroke-width="3.0" stroke-linejoin="round" stroke-linecap="butt" d="m427.49344 116.87314l0 0c0 -39.407906 31.946411 -71.354324 71.35434 -71.354324l0 0c18.924316 0 37.07361 7.517666 50.45514 20.899197c13.381531 13.381538 20.89917 31.530792 20.89917 50.45513l0 0c0 39.407913 -31.946411 71.35434 -71.35431 71.35434l0 0c-39.40793 0 -71.35434 -31.946426 -71.35434 -71.35434z" fill-rule="evenodd"/><path fill="#000000" d="m470.01965 101.498764q-0.09375 0 -0.171875 0.015625q-0.125 -0.015625 -0.296875 -0.015625q-0.71875 0 -0.734375 0.671875l-0.25 10.5625q-0.03125 0.796875 0.671875 0.8125q0.0625 0 0.125 0q0.078125 0.015625 0.171875 0.015625l5.46875 -0.03125q1.109375 -0.015625 1.078125 -0.734375q-0.015625 -0.90625 -1.125 -0.890625l-4.84375 0.015625l0.109375 -4.390625l4.40625 -0.015625q1.09375 -0.015625 1.078125 -0.734375q-0.03125 -0.890625 -1.125 -0.890625l-4.328125 0.03125l0.078125 -2.796875q2.578125 -0.015625 5.15625 -0.03125q1.109375 0 1.078125 -0.71875q-0.015625 -0.90625 -1.125 -0.90625l-5.421875 0.03125zm8.1796875 3.5625q-0.671875 0.28125 -0.296875 1.265625l2.46875 6.40625q0.328125 0.859375 0.9375 0.859375q0.59375 0 0.921875 -0.859375l2.46875 -6.40625q0.375 -0.984375 -0.296875 -1.265625q-0.765625 -0.328125 -1.125 0.65625l-1.984375 5.484375l-1.96875 -5.484375q-0.359375 -0.984375 -1.125 -0.65625zm10.78125 8.609375q0.734375 0 2.34375 -0.828125q0.15625 1.03125 1.140625 0.828125q0.84375 -0.171875 0.1875 -1.3125q-0.453125 -0.78125 -0.421875 -2.65625q0.03125 -2.359375 0.21875 -3.328125q0.171875 -1.0 -0.765625 -1.21875q-0.46875 -0.109375 -0.703125 0.09375q-2.046875 -0.65625 -3.921875 0.890625q-1.625 1.328125 -1.609375 3.78125q0.03125 3.765625 3.53125 3.75zm0.90625 -1.578125q-0.59375 0.21875 -1.265625 0.171875q-1.625 -0.109375 -1.640625 -2.5q0.0625 -1.828125 1.453125 -2.84375q0.34375 -0.25 0.921875 -0.390625q0.828125 -0.203125 1.59375 0.265625q-0.359375 1.265625 -0.078125 4.625q-0.703125 0.578125 -0.984375 0.671875zm5.6875 -11.4375q-0.703125 0.015625 -0.71875 0.71875l-0.265625 11.34375q-0.015625 0.84375 0.6875 0.859375q0.84375 0.015625 0.859375 -0.84375l0.234375 -11.3125q0.015625 -0.765625 -0.796875 -0.765625zm8.7578125 13.171875q0.703125 0 0.71875 -0.734375l0.1875 -7.296875q0.015625 -0.84375 -0.6875 -0.859375q-0.828125 0 -0.84375 0.84375l-0.09375 3.953125q-0.046875 1.28125 -1.0625 1.796875q-1.125 0.5625 -1.9375 0.015625q-0.59375 -0.421875 -0.578125 -2.3125l0.015625 -3.40625q0.015625 -0.9375 -0.8125 -0.875q-0.734375 0.078125 -0.75 1.015625l-0.03125 3.828125q-0.03125 3.5625 2.90625 3.578125q1.328125 0 2.1875 -0.78125l-0.015625 0.453125q-0.015625 0.78125 0.796875 0.78125zm5.5390625 -0.15625q0.734375 0 2.34375 -0.828125q0.15625 1.03125 1.140625 0.828125q0.84375 -0.171875 0.1875 -1.3125q-0.453125 -0.78125 -0.421875 -2.65625q0.03125 -2.359375 0.21875 -3.328125q0.171875 -1.0 -0.765625 -1.21875q-0.46875 -0.109375 -0.703125 0.09375q-2.046875 -0.65625 -3.921875 0.890625q-1.625 1.328125 -1.609375 3.78125q0.03125 3.765625 3.53125 3.75zm0.90625 -1.578125q-0.59375 0.21875 -1.265625 0.171875q-1.625 -0.109375 -1.640625 -2.5q0.0625 -1.828125 1.453125 -2.84375q0.34375 -0.25 0.921875 -0.390625q0.828125 -0.203125 1.59375 0.265625q-0.359375 1.265625 -0.078125 4.625q-0.703125 0.578125 -0.984375 0.671875zm7.1875 -11.4375q-0.703125 0 -0.71875 0.71875l-0.078125 3.703125q-0.90625 0 -1.8125 0q-0.734375 0 -0.734375 0.796875q0 0.765625 0.671875 0.765625q0.90625 0 1.828125 0l-0.140625 6.078125q-0.015625 0.84375 0.6875 0.859375q0.84375 0.015625 0.859375 -0.84375l0.125 -6.09375q0.84375 0 1.671875 0q0.921875 0 0.921875 -0.796875q0 -0.796875 -0.96875 -0.78125l-1.578125 0q0.046875 -1.640625 0.0625 -3.640625q0 -0.765625 -0.796875 -0.765625zm5.7265625 9.1875l5.25 -0.75q0.828125 -0.125 0.859375 -1.078125q0.046875 -1.203125 -0.921875 -2.140625q-1.015625 -1.0 -2.8125 -0.890625q-1.734375 0.109375 -2.828125 1.6875q-0.875 1.25 -0.875 2.859375q0 1.953125 1.390625 3.09375q1.109375 0.9375 2.609375 0.953125q2.03125 0.015625 3.28125 -1.109375q0.703125 -0.625 0.34375 -1.359375q-0.15625 -0.3125 -0.53125 -0.234375q-0.34375 0.078125 -0.859375 0.65625q-0.546875 0.609375 -2.140625 0.625q-1.09375 0.015625 -1.96875 -0.765625q-0.765625 -0.65625 -0.796875 -1.546875zm0.171875 -1.28125q0.21875 -0.78125 0.5625 -1.203125q0.78125 -0.96875 1.859375 -0.96875q0.765625 0 1.453125 0.4375q0.59375 0.375 0.71875 1.0625l-4.59375 0.671875z" fill-rule="nonzero"/><path fill="#000000" d="m460.172 120.373764q-0.71875 0 -0.734375 0.6875l-0.265625 10.703125q-0.015625 0.796875 0.6875 0.8125q0.84375 0.015625 0.859375 -0.796875l0.09375 -4.1875q0.203125 0.03125 0.4375 0.015625q3.28125 -0.1875 4.109375 -1.21875q1.421875 -1.796875 0.65625 -3.78125q-0.75 -1.96875 -3.484375 -2.234375q-0.8125 -0.078125 -2.046875 0.03125q-0.140625 -0.03125 -0.3125 -0.03125zm0.765625 1.5625q0.640625 -0.0625 1.09375 -0.078125q1.765625 -0.015625 2.40625 1.171875q0.53125 1.03125 -0.140625 2.1875q-0.6875 1.1875 -3.453125 0.90625l0.09375 -4.1875zm7.78125 1.75q-0.71875 0 -0.734375 0.71875l-0.171875 7.3125q-0.03125 0.84375 0.671875 0.859375q0.828125 0.015625 0.84375 -0.84375l0.140625 -5.125q0.734375 -0.734375 1.609375 -0.90625q0.90625 -0.171875 1.609375 0.296875q0.90625 0.609375 1.25 -0.390625q0.203125 -0.625 -0.984375 -1.21875q-0.671875 -0.34375 -1.703125 -0.328125q-0.859375 0.015625 -1.734375 0.6875q0 -0.15625 0 -0.296875q0 -0.765625 -0.796875 -0.765625zm10.21875 1.9375q1.65625 -0.03125 1.640625 2.75q0 1.46875 -0.625 2.140625q-0.578125 0.625 -1.4375 0.625q-0.75 0 -1.328125 -0.625q-0.5625 -0.609375 -0.5625 -1.84375q0 -1.265625 0.78125 -2.328125q0.515625 -0.6875 1.53125 -0.71875zm-0.0625 -1.59375q-1.703125 -0.015625 -2.734375 1.34375q-1.046875 1.375 -1.046875 3.15625q0 1.890625 0.875 2.921875q0.96875 1.15625 2.359375 1.171875q1.921875 0.015625 2.859375 -1.1875q0.84375 -1.0 0.84375 -2.90625q0.015625 -4.46875 -3.15625 -4.5zm6.0546875 -4.375q-0.703125 0 -0.71875 0.71875l-0.265625 11.34375q-0.015625 0.84375 0.6875 0.859375q0.78125 0.015625 0.84375 -0.734375q1.1875 0.796875 2.546875 0.78125q1.328125 0 2.390625 -1.03125q1.140625 -1.125 1.21875 -2.703125q0.125 -2.09375 -1.078125 -3.484375q-1.140625 -1.34375 -2.828125 -1.34375q-0.9375 0 -1.640625 0.40625q-0.234375 0.125 -0.4375 0.265625l0.078125 -4.3125q0.015625 -0.765625 -0.796875 -0.765625zm3.09375 11.4375q-1.0 0.140625 -2.5 -0.984375l0.078125 -3.578125q1.296875 -1.25 2.578125 -0.953125q0.828125 0.203125 1.390625 0.828125q0.703125 0.765625 0.671875 2.109375q-0.015625 0.921875 -0.640625 1.765625q-0.515625 0.671875 -1.578125 0.8125zm8.2734375 1.578125q0.734375 0 2.34375 -0.828125q0.15625 1.03125 1.140625 0.828125q0.84375 -0.171875 0.1875 -1.3125q-0.453125 -0.78125 -0.421875 -2.65625q0.03125 -2.359375 0.21875 -3.328125q0.171875 -1.0 -0.765625 -1.21875q-0.46875 -0.109375 -0.703125 0.09375q-2.046875 -0.65625 -3.921875 0.890625q-1.625 1.328125 -1.609375 3.78125q0.03125 3.765625 3.53125 3.75zm0.90625 -1.578125q-0.59375 0.21875 -1.265625 0.171875q-1.625 -0.109375 -1.640625 -2.5q0.0625 -1.828125 1.453125 -2.84375q0.34375 -0.25 0.921875 -0.390625q0.828125 -0.203125 1.59375 0.265625q-0.359375 1.265625 -0.078125 4.625q-0.703125 0.578125 -0.984375 0.671875zm5.40625 -11.4375q-0.703125 0 -0.71875 0.71875l-0.265625 11.34375q-0.015625 0.84375 0.6875 0.859375q0.78125 0.015625 0.84375 -0.734375q1.1875 0.796875 2.546875 0.78125q1.328125 0 2.390625 -1.03125q1.140625 -1.125 1.21875 -2.703125q0.125 -2.09375 -1.078125 -3.484375q-1.140625 -1.34375 -2.828125 -1.34375q-0.9375 0 -1.640625 0.40625q-0.234375 0.125 -0.4375 0.265625l0.078125 -4.3125q0.015625 -0.765625 -0.796875 -0.765625zm3.09375 11.4375q-1.0 0.140625 -2.5 -0.984375l0.078125 -3.578125q1.296875 -1.25 2.578125 -0.953125q0.828125 0.203125 1.390625 0.828125q0.703125 0.765625 0.671875 2.109375q-0.015625 0.921875 -0.640625 1.765625q-0.515625 0.671875 -1.578125 0.8125zm6.7265625 -7.046875q-0.796875 -0.015625 -0.8125 1.03125l-0.140625 6.546875q-0.015625 1.0 0.8125 1.0q0.734375 0 0.75 -1.0625l0.109375 -6.5q0.015625 -1.0 -0.71875 -1.015625zm0.046875 -3.546875q-0.265625 0 -0.484375 0.140625q-0.203125 0.140625 -0.328125 0.359375q-0.125 0.21875 -0.125 0.46875q0 0.28125 0.125 0.5q0.140625 0.21875 0.34375 0.34375q0.203125 0.125 0.453125 0.140625q0.015625 0 0.046875 0q0.234375 0 0.4375 -0.09375q0.1875 -0.09375 0.34375 -0.296875q0.171875 -0.21875 0.1875 -0.515625q0 -0.03125 0 -0.078125q0 -0.234375 -0.109375 -0.453125q-0.125 -0.25 -0.359375 -0.390625q-0.234375 -0.125 -0.5 -0.125q-0.015625 0 -0.03125 0zm4.390625 -0.84375q-0.703125 0.015625 -0.71875 0.71875l-0.265625 11.34375q-0.015625 0.84375 0.6875 0.859375q0.84375 0.015625 0.859375 -0.84375l0.234375 -11.3125q0.015625 -0.765625 -0.796875 -0.765625zm4.4296875 4.390625q-0.796875 -0.015625 -0.8125 1.03125l-0.140625 6.546875q-0.015625 1.0 0.8125 1.0q0.734375 0 0.75 -1.0625l0.109375 -6.5q0.015625 -1.0 -0.71875 -1.015625zm0.046875 -3.546875q-0.265625 0 -0.484375 0.140625q-0.203125 0.140625 -0.328125 0.359375q-0.125 0.21875 -0.125 0.46875q0 0.28125 0.125 0.5q0.140625 0.21875 0.34375 0.34375q0.203125 0.125 0.453125 0.140625q0.015625 0 0.046875 0q0.234375 0 0.4375 -0.09375q0.1875 -0.09375 0.34375 -0.296875q0.171875 -0.21875 0.1875 -0.515625q0 -0.03125 0 -0.078125q0 -0.234375 -0.109375 -0.453125q-0.125 -0.25 -0.359375 -0.390625q-0.234375 -0.125 -0.5 -0.125q-0.015625 0 -0.03125 0zm5.890625 -0.84375q-0.703125 0 -0.71875 0.71875l-0.078125 3.703125q-0.90625 0 -1.8125 0q-0.734375 0 -0.734375 0.796875q0 0.765625 0.671875 0.765625q0.90625 0 1.828125 0l-0.140625 6.078125q-0.015625 0.84375 0.6875 0.859375q0.84375 0.015625 0.859375 -0.84375l0.125 -6.09375q0.84375 0 1.671875 0q0.921875 0 0.921875 -0.796875q0 -0.796875 -0.96875 -0.78125l-1.578125 0q0.046875 -1.640625 0.0625 -3.640625q0 -0.765625 -0.796875 -0.765625zm11.1953125 4.53125q-0.75 -0.3125 -1.140625 0.609375l-2.140625 4.9375l-2.625 -4.984375q-0.484375 -0.921875 -1.21875 -0.53125q-0.6875 0.359375 -0.1875 1.28125l3.25 6.015625l-1.546875 3.609375q-0.546875 1.234375 0.28125 1.578125q0.6875 0.28125 1.21875 -0.96875l4.46875 -10.296875q0.390625 -0.921875 -0.359375 -1.25z" fill-rule="nonzero"/><path fill="#000000" fill-opacity="0.0" d="m645.3202 92.517296l0 0c0 -6.58696 5.3397827 -11.926743 11.926758 -11.926743l187.98901 0c3.163208 0 6.1967773 1.2565613 8.433533 3.4932632c2.2366943 2.2366943 3.493225 5.2703094 3.493225 8.433479l0 47.70556c0 6.58696 -5.3397827 11.926758 -11.926758 11.926758l-187.98901 0c-6.586975 0 -11.926758 -5.339798 -11.926758 -11.926758z" fill-rule="evenodd"/><path stroke="#3c78d8" stroke-width="3.0" stroke-linejoin="round" stroke-linecap="butt" d="m645.3202 92.517296l0 0c0 -6.58696 5.3397827 -11.926743 11.926758 -11.926743l187.98901 0c3.163208 0 6.1967773 1.2565613 8.433533 3.4932632c2.2366943 2.2366943 3.493225 5.2703094 3.493225 8.433479l0 47.70556c0 6.58696 -5.3397827 11.926758 -11.926758 11.926758l-187.98901 0c-6.586975 0 -11.926758 -5.339798 -11.926758 -11.926758z" fill-rule="evenodd"/><path fill="#3c78d8" d="m665.77405 98.46195q-0.828125 0 -0.84375 0.796875l-0.3125 12.484375q-0.015625 0.921875 0.796875 0.953125q0.984375 0.015625 1.0 -0.9375l0.109375 -4.875q0.234375 0.03125 0.5 0.015625q3.828125 -0.21875 4.8125 -1.421875q1.65625 -2.09375 0.765625 -4.40625q-0.890625 -2.296875 -4.078125 -2.609375q-0.953125 -0.09375 -2.375 0.03125q-0.171875 -0.03125 -0.375 -0.03125zm0.90625 1.828125q0.734375 -0.078125 1.265625 -0.09375q2.0625 -0.015625 2.8125 1.375q0.609375 1.1875 -0.171875 2.546875q-0.796875 1.390625 -4.015625 1.046875l0.109375 -4.875zm9.070068 2.03125q-0.84375 0 -0.859375 0.84375l-0.203125 8.53125q-0.03125 0.96875 0.78125 0.984375q0.953125 0.015625 0.984375 -0.96875l0.15625 -5.984375q0.859375 -0.84375 1.890625 -1.046875q1.046875 -0.203125 1.875 0.34375q1.046875 0.71875 1.453125 -0.453125q0.234375 -0.734375 -1.140625 -1.421875q-0.78125 -0.390625 -2.0 -0.375q-0.984375 0.015625 -2.015625 0.78125q0 -0.171875 0 -0.328125q0 -0.90625 -0.921875 -0.90625zm11.91687 2.265625q1.921875 -0.03125 1.90625 3.21875q-0.015625 1.703125 -0.734375 2.484375q-0.671875 0.71875 -1.671875 0.71875q-0.875 0 -1.546875 -0.71875q-0.65625 -0.71875 -0.65625 -2.140625q0 -1.484375 0.90625 -2.734375q0.59375 -0.796875 1.796875 -0.828125zm-0.078125 -1.859375q-1.984375 -0.015625 -3.1875 1.578125q-1.21875 1.59375 -1.21875 3.671875q0 2.203125 1.015625 3.40625q1.125 1.34375 2.75 1.359375q2.25 0.015625 3.34375 -1.375q0.96875 -1.171875 0.984375 -3.390625q0 -5.21875 -3.6875 -5.25zm7.060974 -5.109375q-0.828125 0 -0.84375 0.859375l-0.3125 13.21875q-0.015625 0.96875 0.8125 0.984375q0.90625 0.015625 0.984375 -0.84375q1.375 0.921875 2.96875 0.90625q1.546875 0 2.78125 -1.203125q1.328125 -1.296875 1.421875 -3.140625q0.140625 -2.453125 -1.25 -4.078125q-1.34375 -1.546875 -3.3125 -1.546875q-1.09375 0 -1.90625 0.453125q-0.28125 0.15625 -0.515625 0.3125l0.09375 -5.015625q0.03125 -0.90625 -0.921875 -0.90625zm3.609375 13.34375q-1.171875 0.15625 -2.921875 -1.140625l0.078125 -4.171875q1.515625 -1.46875 3.015625 -1.109375q0.96875 0.234375 1.625 0.96875q0.828125 0.890625 0.78125 2.453125q-0.015625 1.0625 -0.75 2.046875q-0.609375 0.796875 -1.828125 0.953125zm9.646118 1.84375q0.84375 -0.015625 2.734375 -0.96875q0.171875 1.203125 1.3125 0.96875q1.0 -0.203125 0.21875 -1.53125q-0.53125 -0.921875 -0.484375 -3.109375q0.046875 -2.734375 0.25 -3.875q0.21875 -1.171875 -0.875 -1.40625q-0.5625 -0.125 -0.828125 0.09375q-2.390625 -0.75 -4.578125 1.046875q-1.890625 1.546875 -1.875 4.40625q0.03125 4.375 4.125 4.375zm1.046875 -1.84375q-0.6875 0.265625 -1.484375 0.203125q-1.875 -0.125 -1.90625 -2.90625q0.078125 -2.140625 1.703125 -3.3125q0.40625 -0.3125 1.078125 -0.46875q0.96875 -0.234375 1.84375 0.3125q-0.421875 1.484375 -0.09375 5.390625q-0.8125 0.671875 -1.140625 0.78125zm6.312378 -13.34375q-0.828125 0 -0.84375 0.859375l-0.3125 13.21875q-0.015625 0.96875 0.8125 0.984375q0.90625 0.015625 0.984375 -0.84375q1.375 0.921875 2.96875 0.90625q1.546875 0 2.78125 -1.203125q1.328125 -1.296875 1.421875 -3.140625q0.140625 -2.453125 -1.25 -4.078125q-1.34375 -1.546875 -3.3125 -1.546875q-1.09375 0 -1.90625 0.453125q-0.28125 0.15625 -0.515625 0.3125l0.09375 -5.015625q0.03125 -0.90625 -0.921875 -0.90625zm3.609375 13.34375q-1.171875 0.15625 -2.921875 -1.140625l0.078125 -4.171875q1.515625 -1.46875 3.015625 -1.109375q0.96875 0.234375 1.625 0.96875q0.828125 0.890625 0.78125 2.453125q-0.015625 1.0625 -0.75 2.046875q-0.609375 0.796875 -1.828125 0.953125zm7.833679 -8.203125q-0.921875 -0.03125 -0.953125 1.1875l-0.15625 7.640625q-0.015625 1.15625 0.953125 1.15625q0.859375 0 0.875 -1.234375l0.125 -7.578125q0.015625 -1.15625 -0.84375 -1.171875zm0.0625 -4.140625q-0.3125 0 -0.5625 0.171875q-0.234375 0.15625 -0.390625 0.421875q-0.15625 0.25 -0.15625 0.546875q0 0.3125 0.15625 0.578125q0.15625 0.25 0.40625 0.390625q0.234375 0.15625 0.515625 0.15625q0.03125 0 0.0625 0q0.28125 0.015625 0.5 -0.109375q0.21875 -0.09375 0.40625 -0.328125q0.203125 -0.265625 0.234375 -0.59375q0 -0.046875 0 -0.09375q0 -0.28125 -0.140625 -0.53125q-0.140625 -0.296875 -0.421875 -0.453125q-0.265625 -0.15625 -0.578125 -0.15625q-0.015625 0 -0.03125 0zm5.119507 -1.0q-0.828125 0.03125 -0.84375 0.859375l-0.3125 13.21875q-0.015625 0.96875 0.8125 0.984375q0.984375 0.015625 0.984375 -0.96875l0.28125 -13.1875q0.03125 -0.90625 -0.921875 -0.90625zm5.1572876 5.140625q-0.921875 -0.03125 -0.953125 1.1875l-0.15625 7.640625q-0.015625 1.15625 0.953125 1.15625q0.859375 0 0.875 -1.234375l0.125 -7.578125q0.015625 -1.15625 -0.84375 -1.171875zm0.0625 -4.140625q-0.3125 0 -0.5625 0.171875q-0.234375 0.15625 -0.390625 0.421875q-0.15625 0.25 -0.15625 0.546875q0 0.3125 0.15625 0.578125q0.15625 0.25 0.40625 0.390625q0.234375 0.15625 0.515625 0.15625q0.03125 0 0.0625 0q0.28125 0.015625 0.5 -0.109375q0.21875 -0.09375 0.40625 -0.328125q0.203125 -0.265625 0.234375 -0.59375q0 -0.046875 0 -0.09375q0 -0.28125 -0.140625 -0.53125q-0.140625 -0.296875 -0.421875 -0.453125q-0.265625 -0.15625 -0.578125 -0.15625q-0.015625 0 -0.03125 0zm6.869446 -1.0q-0.828125 0 -0.84375 0.859375l-0.09375 4.296875q-1.0625 0.015625 -2.109375 0.015625q-0.859375 0 -0.859375 0.921875q0 0.890625 0.78125 0.890625q1.0625 0 2.140625 0l-0.171875 7.09375q-0.015625 0.96875 0.8125 0.984375q0.984375 0.015625 0.984375 -0.96875l0.15625 -7.109375q0.984375 0 1.953125 0q1.0625 0 1.0625 -0.9375q0 -0.90625 -1.125 -0.90625l-1.84375 0.015625q0.0625 -1.921875 0.078125 -4.25q0 -0.90625 -0.921875 -0.90625zm13.056335 5.296875q-0.875 -0.359375 -1.34375 0.71875l-2.5 5.734375l-3.046875 -5.796875q-0.578125 -1.078125 -1.421875 -0.625q-0.796875 0.421875 -0.21875 1.5l3.796875 7.015625l-1.8125 4.1875q-0.640625 1.453125 0.3125 1.84375q0.8125 0.328125 1.4375 -1.125l5.203125 -12.0q0.46875 -1.078125 -0.40625 -1.453125zm11.770081 1.671875q1.921875 -0.03125 1.90625 3.21875q-0.015625 1.703125 -0.734375 2.484375q-0.671875 0.71875 -1.671875 0.71875q-0.875 0 -1.546875 -0.71875q-0.65625 -0.71875 -0.65625 -2.140625q0 -1.484375 0.90625 -2.734375q0.59375 -0.796875 1.796875 -0.828125zm-0.078125 -1.859375q-1.984375 -0.015625 -3.1875 1.578125q-1.21875 1.59375 -1.21875 3.671875q0 2.203125 1.015625 3.40625q1.125 1.34375 2.75 1.359375q2.25 0.015625 3.34375 -1.375q0.96875 -1.171875 0.984375 -3.390625q0 -5.21875 -3.6875 -5.25zm6.529663 0.046875q-1.078125 0 -1.09375 0.453125q0 0.4375 0 0.890625q0 0.453125 0.984375 0.453125l1.484375 0l-0.125 7.203125q-0.015625 0.984375 0.796875 1.0q1.0 0.015625 1.0 -0.96875l0.09375 -7.234375l2.25 0q1.203125 0 1.140625 -0.984375q-0.046875 -0.8125 -1.265625 -0.8125l-2.078125 0q-0.015625 -1.15625 0.234375 -2.015625q0.421875 -1.46875 2.109375 -1.296875q1.09375 0.09375 1.25 -0.78125q0.1875 -1.015625 -1.765625 -0.953125q-1.96875 0.0625 -2.65625 1.078125q-0.90625 1.265625 -0.953125 3.96875l-1.40625 0zm15.839294 -1.765625q-0.8125 1.375 -0.453125 2.8125q0.625 2.546875 4.015625 2.5q3.484375 -0.0625 3.859375 1.265625q0.34375 1.265625 -0.875 2.4375q-0.625 0.609375 -2.375 0.921875q-0.984375 0.171875 -2.15625 -0.109375q-0.875 -0.203125 -1.484375 -0.75q-0.78125 -0.671875 -1.296875 -0.53125q-0.453125 0.140625 -0.546875 0.734375q-0.0625 0.546875 0.65625 1.203125q0.515625 0.4375 1.25 0.75q1.078125 0.453125 2.71875 0.4375q2.21875 -0.015625 3.71875 -0.875q2.25 -1.296875 2.375 -3.5625q0.078125 -1.46875 -1.0625 -2.65625q-0.921875 -0.9375 -2.875 -1.0q-2.1875 -0.0625 -2.75 -0.15625q-1.46875 -0.203125 -1.3125 -1.84375q0.078125 -0.828125 0.953125 -1.5q0.8125 -0.640625 2.328125 -0.734375q0.984375 -0.046875 2.25 0.4375q0.890625 0.34375 1.234375 0.1875q0.515625 -0.25 0.484375 -0.71875q-0.03125 -0.5625 -1.359375 -1.15625q-0.9375 -0.40625 -2.28125 -0.453125q-1.515625 -0.0625 -2.828125 0.578125q-1.578125 0.75 -2.1875 1.78125zm14.763611 -3.390625q-0.828125 0 -0.84375 0.859375l-0.09375 4.296875q-1.0625 0.015625 -2.109375 0.015625q-0.859375 0 -0.859375 0.921875q0 0.890625 0.78125 0.890625q1.0625 0 2.140625 0l-0.171875 7.09375q-0.015625 0.96875 0.8125 0.984375q0.984375 0.015625 0.984375 -0.96875l0.15625 -7.109375q0.984375 0 1.953125 0q1.0625 0 1.0625 -0.9375q0 -0.90625 -1.125 -0.90625l-1.84375 0.015625q0.0625 -1.921875 0.078125 -4.25q0 -0.90625 -0.921875 -0.90625zm8.900024 15.1875q0.84375 -0.015625 2.734375 -0.96875q0.171875 1.203125 1.3125 0.96875q1.0 -0.203125 0.21875 -1.53125q-0.53125 -0.921875 -0.484375 -3.109375q0.046875 -2.734375 0.25 -3.875q0.21875 -1.171875 -0.875 -1.40625q-0.5625 -0.125 -0.828125 0.09375q-2.390625 -0.75 -4.578125 1.046875q-1.890625 1.546875 -1.875 4.40625q0.03125 4.375 4.125 4.375zm1.046875 -1.84375q-0.6875 0.265625 -1.484375 0.203125q-1.875 -0.125 -1.90625 -2.90625q0.078125 -2.140625 1.703125 -3.3125q0.40625 -0.3125 1.078125 -0.46875q0.96875 -0.234375 1.84375 0.3125q-0.421875 1.484375 -0.09375 5.390625q-0.8125 0.671875 -1.140625 0.78125zm8.390503 -13.34375q-0.828125 0 -0.84375 0.859375l-0.09375 4.296875q-1.0625 0.015625 -2.109375 0.015625q-0.859375 0 -0.859375 0.921875q0 0.890625 0.78125 0.890625q1.0625 0 2.140625 0l-0.171875 7.09375q-0.015625 0.96875 0.8125 0.984375q0.984375 0.015625 0.984375 -0.96875l0.15625 -7.109375q0.984375 0 1.953125 0q1.0625 0 1.0625 -0.9375q0 -0.90625 -1.125 -0.90625l-1.84375 0.015625q0.0625 -1.921875 0.078125 -4.25q0 -0.90625 -0.921875 -0.90625zm6.6656494 10.734375l6.125 -0.890625q0.96875 -0.140625 1.0 -1.25q0.046875 -1.40625 -1.0625 -2.5q-1.1875 -1.15625 -3.296875 -1.03125q-2.015625 0.125 -3.296875 1.953125q-1.015625 1.46875 -1.015625 3.34375q0 2.28125 1.625 3.609375q1.296875 1.078125 3.03125 1.09375q2.375 0.015625 3.828125 -1.28125q0.828125 -0.734375 0.40625 -1.578125q-0.1875 -0.359375 -0.625 -0.265625q-0.390625 0.078125 -1.0 0.75q-0.640625 0.71875 -2.5 0.734375q-1.265625 0.015625 -2.296875 -0.890625q-0.875 -0.78125 -0.921875 -1.796875zm0.203125 -1.515625q0.25 -0.890625 0.65625 -1.390625q0.90625 -1.125 2.171875 -1.125q0.890625 -0.015625 1.703125 0.5q0.6875 0.453125 0.828125 1.234375l-5.359375 0.78125z" fill-rule="nonzero"/><path fill="#3c78d8" d="m664.7447 120.46195q-0.828125 0 -0.84375 0.796875l-0.3125 12.484367q-0.015625 0.921875 0.796875 0.953125q0.984375 0.015625 1.0 -0.9375l0.109375 -4.875q0.234375 0.03125 0.5 0.015625q3.828125 -0.21875 4.8125 -1.4218674q1.65625 -2.09375 0.765625 -4.40625q-0.890625 -2.296875 -4.078125 -2.609375q-0.953125 -0.09375 -2.375 0.03125q-0.171875 -0.03125 -0.375 -0.03125zm0.90625 1.828125q0.734375 -0.078125 1.265625 -0.09375q2.0625 -0.015625 2.8125 1.375q0.609375 1.1875 -0.171875 2.546875q-0.796875 1.390625 -4.015625 1.046875l0.109375 -4.875zm11.382568 12.515617q0.84375 -0.015625 2.734375 -0.96875q0.171875 1.203125 1.3125 0.96875q1.0 -0.203125 0.21875 -1.53125q-0.53125 -0.921875 -0.484375 -3.109375q0.046875 -2.7343674 0.25 -3.8749924q0.21875 -1.171875 -0.875 -1.40625q-0.5625 -0.125 -0.828125 0.09375q-2.390625 -0.75 -4.578125 1.046875q-1.890625 1.546875 -1.875 4.4062424q0.03125 4.375 4.125 4.375zm1.046875 -1.84375q-0.6875 0.265625 -1.484375 0.203125q-1.875 -0.125 -1.90625 -2.90625q0.078125 -2.140625 1.703125 -3.3124924q0.40625 -0.3125 1.078125 -0.46875q0.96875 -0.234375 1.84375 0.3125q-0.421875 1.4843674 -0.09375 5.3906174q-0.8125 0.671875 -1.140625 0.78125zm6.187378 -8.640617q-0.84375 0 -0.859375 0.84375l-0.203125 8.531242q-0.03125 0.96875 0.78125 0.984375q0.953125 0.015625 0.984375 -0.96875l0.15625 -5.9843674q0.859375 -0.84375 1.890625 -1.046875q1.046875 -0.203125 1.875 0.34375q1.046875 0.71875 1.453125 -0.453125q0.234375 -0.734375 -1.140625 -1.421875q-0.78125 -0.390625 -2.0 -0.375q-0.984375 0.015625 -2.015625 0.78125q0 -0.171875 0 -0.328125q0 -0.90625 -0.921875 -0.90625zm11.16687 -4.703125q-0.828125 0 -0.84375 0.859375l-0.09375 4.296875q-1.0625 0.015625 -2.109375 0.015625q-0.859375 0 -0.859375 0.921875q0 0.890625 0.78125 0.890625q1.0625 0 2.140625 0l-0.171875 7.0937424q-0.015625 0.96875 0.8125 0.984375q0.984375 0.015625 0.984375 -0.96875l0.15625 -7.1093674q0.984375 0 1.953125 0q1.0625 0 1.0625 -0.9375q0 -0.90625 -1.125 -0.90625l-1.84375 0.015625q0.0625 -1.921875 0.078125 -4.25q0 -0.90625 -0.921875 -0.90625zm7.0875244 5.140625q-0.921875 -0.03125 -0.953125 1.1875l-0.15625 7.6406174q-0.015625 1.15625 0.953125 1.15625q0.859375 0 0.875 -1.234375l0.125 -7.5781174q0.015625 -1.15625 -0.84375 -1.171875zm0.0625 -4.140625q-0.3125 0 -0.5625 0.171875q-0.234375 0.15625 -0.390625 0.421875q-0.15625 0.25 -0.15625 0.546875q0 0.3125 0.15625 0.578125q0.15625 0.25 0.40625 0.390625q0.234375 0.15625 0.515625 0.15625q0.03125 0 0.0625 0q0.28125 0.015625 0.5 -0.109375q0.21875 -0.09375 0.40625 -0.328125q0.203125 -0.265625 0.234375 -0.59375q0 -0.046875 0 -0.09375q0 -0.28125 -0.140625 -0.53125q-0.140625 -0.296875 -0.421875 -0.453125q-0.265625 -0.15625 -0.578125 -0.15625q-0.015625 0 -0.03125 0zm6.869507 -1.0q-0.828125 0 -0.84375 0.859375l-0.09375 4.296875q-1.0625 0.015625 -2.109375 0.015625q-0.859375 0 -0.859375 0.921875q0 0.890625 0.78125 0.890625q1.0625 0 2.140625 0l-0.171875 7.0937424q-0.015625 0.96875 0.8125 0.984375q0.984375 0.015625 0.984375 -0.96875l0.15625 -7.1093674q0.984375 0 1.953125 0q1.0625 0 1.0625 -0.9375q0 -0.90625 -1.125 -0.90625l-1.84375 0.015625q0.0625 -1.921875 0.078125 -4.25q0 -0.90625 -0.921875 -0.90625zm7.0875244 5.140625q-0.921875 -0.03125 -0.953125 1.1875l-0.15625 7.6406174q-0.015625 1.15625 0.953125 1.15625q0.859375 0 0.875 -1.234375l0.125 -7.5781174q0.015625 -1.15625 -0.84375 -1.171875zm0.0625 -4.140625q-0.3125 0 -0.5625 0.171875q-0.234375 0.15625 -0.390625 0.421875q-0.15625 0.25 -0.15625 0.546875q0 0.3125 0.15625 0.578125q0.15625 0.25 0.40625 0.390625q0.234375 0.15625 0.515625 0.15625q0.03125 0 0.0625 0q0.28125 0.015625 0.5 -0.109375q0.21875 -0.09375 0.40625 -0.328125q0.203125 -0.265625 0.234375 -0.59375q0 -0.046875 0 -0.09375q0 -0.28125 -0.140625 -0.53125q-0.140625 -0.296875 -0.421875 -0.453125q-0.265625 -0.15625 -0.578125 -0.15625q-0.015625 0 -0.03125 0zm7.619507 5.96875q1.921875 -0.03125 1.90625 3.2187424q-0.015625 1.703125 -0.734375 2.484375q-0.671875 0.71875 -1.671875 0.71875q-0.875 0 -1.546875 -0.71875q-0.65625 -0.71875 -0.65625 -2.140625q0 -1.484375 0.90625 -2.7343674q0.59375 -0.796875 1.796875 -0.828125zm-0.078125 -1.859375q-1.984375 -0.015625 -3.1875 1.578125q-1.21875 1.59375 -1.21875 3.6718674q0 2.203125 1.015625 3.40625q1.125 1.34375 2.75 1.359375q2.25 0.015625 3.34375 -1.375q0.96875 -1.171875 0.984375 -3.390625q0 -5.2187424 -3.6875 -5.2499924zm6.935913 -0.40625q-0.84375 0 -0.859375 0.84375l-0.203125 8.484367q-0.03125 0.96875 0.78125 0.984375q0.984375 0.015625 1.0 -0.96875l0.15625 -5.515625q1.4375 -1.4531174 2.703125 -1.3593674q1.515625 0.109375 1.453125 2.6249924l-0.109375 4.3125q-0.03125 1.109375 0.953125 1.015625q0.859375 -0.078125 0.875 -1.171875l0.078125 -4.5625q0.0625 -4.1406174 -3.375 -4.1406174q-1.546875 0 -2.546875 0.890625q0.015625 -0.265625 0.015625 -0.53125q0.03125 -0.90625 -0.921875 -0.90625zm15.668518 -3.8125q-0.84375 0.015625 -0.859375 0.796875l-0.296875 12.468742q-0.03125 0.921875 0.78125 0.9375q0.984375 0 1.015625 -0.9375l0.109375 -5.234375l7.875 0q-0.0625 2.609375 -0.125 5.234375q-0.015625 0.921875 0.8125 0.9375q0.984375 0.015625 0.984375 -0.921875l0.28125 -12.421867q0.015625 -0.859375 -0.921875 -0.859375q-0.828125 0.03125 -0.84375 0.8125l-0.140625 5.3125l-7.875 0l0.125 -5.28125q0.015625 -0.84375 -0.921875 -0.84375zm14.501099 4.25q-0.921875 -0.03125 -0.953125 1.1875l-0.15625 7.6406174q-0.015625 1.15625 0.953125 1.15625q0.859375 0 0.875 -1.234375l0.125 -7.5781174q0.015625 -1.15625 -0.84375 -1.171875zm0.0625 -4.140625q-0.3125 0 -0.5625 0.171875q-0.234375 0.15625 -0.390625 0.421875q-0.15625 0.25 -0.15625 0.546875q0 0.3125 0.15625 0.578125q0.15625 0.25 0.40625 0.390625q0.234375 0.15625 0.515625 0.15625q0.03125 0 0.0625 0q0.28125 0.015625 0.5 -0.109375q0.21875 -0.09375 0.40625 -0.328125q0.203125 -0.265625 0.234375 -0.59375q0 -0.046875 0 -0.09375q0 -0.28125 -0.140625 -0.53125q-0.140625 -0.296875 -0.421875 -0.453125q-0.265625 -0.15625 -0.578125 -0.15625q-0.015625 0 -0.03125 0zm5.963257 12.359367q-0.84375 -0.046875 -1.640625 -0.59375q-0.65625 -0.453125 -1.171875 -0.109375q-0.421875 0.265625 -0.390625 0.875q0.046875 0.546875 0.6875 0.90625q0.703125 0.40625 1.203125 0.546875q0.796875 0.21875 2.078125 0.21875q1.5 -0.015625 2.421875 -0.625q1.125 -0.75 1.265625 -1.921875q0.140625 -1.15625 -0.78125 -2.265625q-0.390625 -0.46875 -1.390625 -0.9375q-0.734375 -0.34375 -1.609375 -0.4375q-1.09375 -0.125 -1.265625 -0.609375q-0.171875 -0.5624924 0.265625 -1.0781174q0.53125 -0.625 1.625 -0.6875q1.03125 -0.03125 1.5625 0.484375q1.0625 1.015625 1.578125 0.59375q0.421875 -0.34375 0.34375 -0.890625q-0.140625 -0.828125 -1.4375 -1.46875q-1.0 -0.484375 -2.328125 -0.375q-1.1875 0.109375 -2.09375 0.765625q-0.765625 0.546875 -1.15625 1.59375q-0.359375 0.953125 -0.140625 1.8593674q0.28125 1.171875 2.15625 1.4375q1.796875 0.25 2.3125 0.796875q0.765625 0.828125 0.390625 1.390625q-0.453125 0.671875 -2.484375 0.53125zm9.988403 -13.359367q-0.828125 0 -0.84375 0.859375l-0.09375 4.296875q-1.0625 0.015625 -2.109375 0.015625q-0.859375 0 -0.859375 0.921875q0 0.890625 0.78125 0.890625q1.0625 0 2.140625 0l-0.171875 7.0937424q-0.015625 0.96875 0.8125 0.984375q0.984375 0.015625 0.984375 -0.96875l0.15625 -7.1093674q0.984375 0 1.953125 0q1.0625 0 1.0625 -0.9375q0 -0.90625 -1.125 -0.90625l-1.84375 0.015625q0.0625 -1.921875 0.078125 -4.25q0 -0.90625 -0.921875 -0.90625zm9.540649 6.96875q1.921875 -0.03125 1.90625 3.2187424q-0.015625 1.703125 -0.734375 2.484375q-0.671875 0.71875 -1.671875 0.71875q-0.875 0 -1.546875 -0.71875q-0.65625 -0.71875 -0.65625 -2.140625q0 -1.484375 0.90625 -2.7343674q0.59375 -0.796875 1.796875 -0.828125zm-0.078125 -1.859375q-1.984375 -0.015625 -3.1875 1.578125q-1.21875 1.59375 -1.21875 3.6718674q0 2.203125 1.015625 3.40625q1.125 1.34375 2.75 1.359375q2.25 0.015625 3.34375 -1.375q0.96875 -1.171875 0.984375 -3.390625q0 -5.2187424 -3.6875 -5.2499924zm6.935913 -0.40625q-0.84375 0 -0.859375 0.84375l-0.203125 8.531242q-0.03125 0.96875 0.78125 0.984375q0.953125 0.015625 0.984375 -0.96875l0.15625 -5.9843674q0.859375 -0.84375 1.890625 -1.046875q1.046875 -0.203125 1.875 0.34375q1.046875 0.71875 1.453125 -0.453125q0.234375 -0.734375 -1.140625 -1.421875q-0.78125 -0.390625 -2.0 -0.375q-0.984375 0.015625 -2.015625 0.78125q0 -0.171875 0 -0.328125q0 -0.90625 -0.921875 -0.90625zm15.432495 0.59375q-0.875 -0.359375 -1.34375 0.71875l-2.5 5.7343674l-3.046875 -5.7968674q-0.578125 -1.078125 -1.421875 -0.625q-0.796875 0.421875 -0.21875 1.5l3.796875 7.0156174l-1.8125 4.1875q-0.640625 1.453125 0.3125 1.84375q0.8125 0.328125 1.4375 -1.125l5.203125 -11.999992q0.46875 -1.078125 -0.40625 -1.453125zm7.6763916 -0.578125q-0.03125 0.90625 0.828125 0.90625l2.484375 0.015625l-1.125 3.8124924l-1.828125 0q-1.234375 0 -1.25 0.6875q-0.015625 0.890625 0.828125 0.890625l1.796875 0l-0.5625 1.90625q-0.328125 1.171875 0.3125 1.375q0.859375 0.28125 1.09375 -0.53125l0.8125 -2.734375l4.5625 0.015625l-0.5625 1.875q-0.328125 1.171875 0.3125 1.375q0.859375 0.28125 1.109375 -0.53125l0.796875 -2.71875q1.328125 0 2.65625 0q1.21875 0 1.265625 -0.859375q0.015625 -0.765625 -1.046875 -0.765625l-2.390625 0l1.125 -3.7812424q0.953125 0 1.921875 0q1.234375 0 1.265625 -0.875q0.03125 -0.765625 -1.046875 -0.765625l-1.671875 0l0.625 -2.046875q0.34375 -1.1875 -0.484375 -1.453125q-0.71875 -0.25 -1.03125 0.78125l-0.796875 2.734375q-2.265625 0 -4.53125 0l0.609375 -2.0625q0.34375 -1.1875 -0.46875 -1.453125q-0.734375 -0.25 -1.03125 0.78125l-0.796875 2.75q-1.265625 0 -2.546875 0q-1.21875 0 -1.234375 0.671875zm3.875 4.7187424l1.125 -3.7968674l4.53125 0l-1.109375 3.7968674l-4.546875 0zm16.191711 -7.5781174q0.015625 -0.8125 -0.5 -0.921875q-0.609375 -0.15625 -1.34375 0.546875l-1.8125 1.703125q-0.65625 0.609375 -0.171875 1.25q0.578125 0.796875 1.453125 -0.03125l0.671875 -0.640625l-0.015625 9.671867q-0.6875 0 -1.359375 0q-0.90625 0 -0.90625 0.90625q0 0.765625 0.8125 0.765625l4.140625 0q0.90625 0 0.90625 -0.8125q0 -0.859375 -0.9375 -0.859375q-0.484375 0 -1.0 0q0.0625 -11.578117 0.0625 -11.578117z" fill-rule="nonzero"/><path fill="#000000" fill-opacity="0.0" d="m8.824147 172.24341l0 0c0 -5.38089 4.3620796 -9.742966 9.742976 -9.742966l318.4668 0c2.5839844 0 5.0621643 1.0264893 6.8893127 2.853653c1.827179 1.8271637 2.8536682 4.3053284 2.8536682 6.8893127l0 38.97075c0 5.38089 -4.362091 9.742981 -9.742981 9.742981l-318.4668 0c-5.3808966 0 -9.742976 -4.362091 -9.742976 -9.742981z" fill-rule="evenodd"/><path stroke="#3c78d8" stroke-width="3.0" stroke-linejoin="round" stroke-linecap="butt" d="m8.824147 172.24341l0 0c0 -5.38089 4.3620796 -9.742966 9.742976 -9.742966l318.4668 0c2.5839844 0 5.0621643 1.0264893 6.8893127 2.853653c1.827179 1.8271637 2.8536682 4.3053284 2.8536682 6.8893127l0 38.97075c0 5.38089 -4.362091 9.742981 -9.742981 9.742981l-318.4668 0c-5.3808966 0 -9.742976 -4.362091 -9.742976 -9.742981z" fill-rule="evenodd"/><path fill="#3c78d8" d="m25.929415 184.82066q-0.828125 0 -0.84375 0.796875l-0.3125 12.484375q-0.015625 0.921875 0.796875 0.953125q0.984375 0.015625 1.0 -0.9375l0.109375 -4.875q0.234375 0.03125 0.5 0.015625q3.828125 -0.21875 4.8125 -1.421875q1.6562519 -2.09375 0.7656269 -4.40625q-0.8906269 -2.296875 -4.078127 -2.609375q-0.953125 -0.09375 -2.375 0.03125q-0.171875 -0.03125 -0.375 -0.03125zm0.90625 1.828125q0.734375 -0.078125 1.265625 -0.09375q2.0625 -0.015625 2.8125 1.375q0.609375 1.1875 -0.171875 2.546875q-0.796875 1.390625 -4.015625 1.046875l0.109375 -4.875zm12.023226 4.296875q1.921875 -0.03125 1.90625 3.21875q-0.015625 1.703125 -0.734375 2.484375q-0.671875 0.71875 -1.671875 0.71875q-0.875 0 -1.546875 -0.71875q-0.65625 -0.71875 -0.65625 -2.140625q0 -1.484375 0.90625 -2.734375q0.59375 -0.796875 1.796875 -0.828125zm-0.078125 -1.859375q-1.984375 -0.015625 -3.1875 1.578125q-1.21875 1.59375 -1.21875 3.671875q0 2.203125 1.015625 3.40625q1.125 1.34375 2.75 1.359375q2.25 0.015625 3.34375 -1.375q0.96875 -1.171875 0.984375 -3.390625q0 -5.21875 -3.6875 -5.25zm8.232803 8.25q-0.84375 -0.046875 -1.640625 -0.59375q-0.65625 -0.453125 -1.171875 -0.109375q-0.421875 0.265625 -0.390625 0.875q0.046875 0.546875 0.6875 0.90625q0.703125 0.40625 1.203125 0.546875q0.796875 0.21875 2.078125 0.21875q1.5 -0.015625 2.421875 -0.625q1.125 -0.75 1.265625 -1.921875q0.140625 -1.15625 -0.78125 -2.265625q-0.390625 -0.46875 -1.390625 -0.9375q-0.734375 -0.34375 -1.609375 -0.4375q-1.09375 -0.125 -1.265625 -0.609375q-0.171875 -0.5625 0.265625 -1.078125q0.53125 -0.625 1.625 -0.6875q1.03125 -0.03125 1.5625 0.484375q1.0625 1.015625 1.578125 0.59375q0.421875 -0.34375 0.34375 -0.890625q-0.140625 -0.828125 -1.4375 -1.46875q-1.0 -0.484375 -2.328125 -0.375q-1.1875 0.109375 -2.09375 0.765625q-0.765625 0.546875 -1.15625 1.59375q-0.359375 0.953125 -0.140625 1.859375q0.28125 1.171875 2.15625 1.4375q1.796875 0.25 2.3125 0.796875q0.765625 0.828125 0.390625 1.390625q-0.453125 0.671875 -2.484375 0.53125zm9.082169 0q-0.84375 -0.046875 -1.640625 -0.59375q-0.65625 -0.453125 -1.171875 -0.109375q-0.421875 0.265625 -0.390625 0.875q0.046875 0.546875 0.6875 0.90625q0.703125 0.40625 1.203125 0.546875q0.796875 0.21875 2.078125 0.21875q1.5 -0.015625 2.421875 -0.625q1.125 -0.75 1.265625 -1.921875q0.140625 -1.15625 -0.78125 -2.265625q-0.390625 -0.46875 -1.390625 -0.9375q-0.734375 -0.34375 -1.609375 -0.4375q-1.09375 -0.125 -1.265625 -0.609375q-0.171875 -0.5625 0.265625 -1.078125q0.53125 -0.625 1.625 -0.6875q1.03125 -0.03125 1.5625 0.484375q1.0625 1.015625 1.578125 0.59375q0.421875 -0.34375 0.34375 -0.890625q-0.140625 -0.828125 -1.4375 -1.46875q-1.0 -0.484375 -2.328125 -0.375q-1.1875 0.109375 -2.09375 0.765625q-0.765625 0.546875 -1.15625 1.59375q-0.359375 0.953125 -0.140625 1.859375q0.28125 1.171875 2.15625 1.4375q1.796875 0.25 2.3125 0.796875q0.765625 0.828125 0.390625 1.390625q-0.453125 0.671875 -2.484375 0.53125zm8.28529 -8.21875q-0.9218712 -0.03125 -0.9531212 1.1875l-0.15625 7.640625q-0.015625 1.15625 0.9531212 1.15625q0.859375 0 0.875 -1.234375l0.125 -7.578125q0.015625 -1.15625 -0.84375 -1.171875zm0.0625 -4.140625q-0.3125 0 -0.5624962 0.171875q-0.234375 0.15625 -0.390625 0.421875q-0.15625 0.25 -0.15625 0.546875q0 0.3125 0.15625 0.578125q0.15625 0.25 0.40625 0.390625q0.23437119 0.15625 0.5156212 0.15625q0.03125 0 0.0625 0q0.28125 0.015625 0.5 -0.109375q0.21875 -0.09375 0.40625 -0.328125q0.203125 -0.265625 0.234375 -0.59375q0 -0.046875 0 -0.09375q0 -0.28125 -0.140625 -0.53125q-0.140625 -0.296875 -0.421875 -0.453125q-0.265625 -0.15625 -0.578125 -0.15625q-0.015625 0 -0.03125 0zm4.7913513 -1.0q-0.828125 0 -0.84375 0.859375l-0.3125 13.21875q-0.015625 0.96875 0.8125 0.984375q0.90625 0.015625 0.984375 -0.84375q1.375 0.921875 2.96875 0.90625q1.546875 0 2.78125 -1.203125q1.328125 -1.296875 1.421875 -3.140625q0.140625 -2.453125 -1.25 -4.078125q-1.34375 -1.546875 -3.3125 -1.546875q-1.09375 0 -1.90625 0.453125q-0.28125 0.15625 -0.515625 0.3125l0.09375 -5.015625q0.03125 -0.90625 -0.921875 -0.90625zm3.609375 13.34375q-1.171875 0.15625 -2.921875 -1.140625l0.078125 -4.171875q1.515625 -1.46875 3.015625 -1.109375q0.96875 0.234375 1.625 0.96875q0.828125 0.890625 0.78125 2.453125q-0.015625 1.0625 -0.75 2.046875q-0.609375 0.796875 -1.828125 0.953125zm7.786789 -13.34375q-0.828125 0.03125 -0.84375 0.859375l-0.3125 13.21875q-0.015625 0.96875 0.8125 0.984375q0.984375 0.015625 0.984375 -0.96875l0.28125 -13.1875q0.03125 -0.90625 -0.921875 -0.90625zm4.735428 10.734375l6.125 -0.890625q0.96875 -0.140625 1.0 -1.25q0.046875 -1.40625 -1.0625 -2.5q-1.1875 -1.15625 -3.296875 -1.03125q-2.015625 0.125 -3.296875 1.953125q-1.015625 1.46875 -1.015625 3.34375q0 2.28125 1.625 3.609375q1.296875 1.078125 3.03125 1.09375q2.375 0.015625 3.828125 -1.28125q0.828125 -0.734375 0.40625 -1.578125q-0.1875 -0.359375 -0.625 -0.265625q-0.390625 0.078125 -1.0 0.75q-0.640625 0.71875 -2.5 0.734375q-1.265625 0.015625 -2.296875 -0.890625q-0.875 -0.78125 -0.921875 -1.796875zm0.203125 -1.515625q0.25 -0.890625 0.65625 -1.390625q0.90625 -1.125 2.171875 -1.125q0.890625 -0.015625 1.703125 0.5q0.6875 0.453125 0.828125 1.234375l-5.359375 0.78125zm15.889618 -5.828125q-0.8125 1.375 -0.453125 2.8125q0.625 2.546875 4.015625 2.5q3.484375 -0.0625 3.859375 1.265625q0.34375 1.265625 -0.875 2.4375q-0.625 0.609375 -2.375 0.921875q-0.984375 0.171875 -2.15625 -0.109375q-0.875 -0.203125 -1.484375 -0.75q-0.78125 -0.671875 -1.296875 -0.53125q-0.453125 0.140625 -0.546875 0.734375q-0.0625 0.546875 0.65625 1.203125q0.515625 0.4375 1.25 0.75q1.078125 0.453125 2.71875 0.4375q2.21875 -0.015625 3.71875 -0.875q2.25 -1.296875 2.375 -3.5625q0.078125 -1.46875 -1.0625 -2.65625q-0.921875 -0.9375 -2.875 -1.0q-2.1875 -0.0625 -2.75 -0.15625q-1.46875 -0.203125 -1.3125 -1.84375q0.078125 -0.828125 0.953125 -1.5q0.8125 -0.640625 2.328125 -0.734375q0.984375 -0.046875 2.25 0.4375q0.890625 0.34375 1.234375 0.1875q0.515625 -0.25 0.484375 -0.71875q-0.03125 -0.5625 -1.359375 -1.15625q-0.9375 -0.40625 -2.28125 -0.453125q-1.515625 -0.0625 -2.828125 0.578125q-1.578125 0.75 -2.1875 1.78125zm14.763611 -3.390625q-0.828125 0 -0.84375 0.859375l-0.09375 4.296875q-1.0625 0.015625 -2.109375 0.015625q-0.859375 0 -0.859375 0.921875q0 0.890625 0.78125 0.890625q1.0625 0 2.140625 0l-0.171875 7.09375q-0.015625 0.96875 0.8125 0.984375q0.984375 0.015625 0.984375 -0.96875l0.15625 -7.109375q0.984375 0 1.953125 0q1.0625 0 1.0625 -0.9375q0 -0.90625 -1.125 -0.90625l-1.84375 0.015625q0.0625 -1.921875 0.078125 -4.25q0 -0.90625 -0.921875 -0.90625zm8.90004 15.1875q0.84375 -0.015625 2.734375 -0.96875q0.171875 1.203125 1.3125 0.96875q1.0 -0.203125 0.21875 -1.53125q-0.53125 -0.921875 -0.484375 -3.109375q0.046875 -2.734375 0.25 -3.875q0.21875 -1.171875 -0.875 -1.40625q-0.5625 -0.125 -0.828125 0.09375q-2.390625 -0.75 -4.578125 1.046875q-1.890625 1.546875 -1.875 4.40625q0.03125 4.375 4.125 4.375zm1.046875 -1.84375q-0.6875 0.265625 -1.484375 0.203125q-1.875 -0.125 -1.90625 -2.90625q0.078125 -2.140625 1.703125 -3.3125q0.40625 -0.3125 1.078125 -0.46875q0.96875 -0.234375 1.84375 0.3125q-0.421875 1.484375 -0.09375 5.390625q-0.8125 0.671875 -1.140625 0.78125zm8.390503 -13.34375q-0.828125 0 -0.84375 0.859375l-0.09375 4.296875q-1.0625 0.015625 -2.109375 0.015625q-0.859375 0 -0.859375 0.921875q0 0.890625 0.78125 0.890625q1.0625 0 2.140625 0l-0.171875 7.09375q-0.015625 0.96875 0.8125 0.984375q0.984375 0.015625 0.984375 -0.96875l0.15625 -7.109375q0.984375 0 1.953125 0q1.0625 0 1.0625 -0.9375q0 -0.90625 -1.125 -0.90625l-1.84375 0.015625q0.0625 -1.921875 0.078125 -4.25q0 -0.90625 -0.921875 -0.90625zm6.6656647 10.734375l6.125 -0.890625q0.96875 -0.140625 1.0 -1.25q0.046875 -1.40625 -1.0625 -2.5q-1.1875 -1.15625 -3.296875 -1.03125q-2.015625 0.125 -3.296875 1.953125q-1.015625 1.46875 -1.015625 3.34375q0 2.28125 1.625 3.609375q1.296875 1.078125 3.03125 1.09375q2.375 0.015625 3.828125 -1.28125q0.828125 -0.734375 0.40625 -1.578125q-0.1875 -0.359375 -0.625 -0.265625q-0.390625 0.078125 -1.0 0.75q-0.640625 0.71875 -2.5 0.734375q-1.265625 0.015625 -2.296875 -0.890625q-0.875 -0.78125 -0.921875 -1.796875zm0.203125 -1.515625q0.25 -0.890625 0.65625 -1.390625q0.90625 -1.125 2.171875 -1.125q0.890625 -0.015625 1.703125 0.5q0.6875 0.453125 0.828125 1.234375l-5.359375 0.78125zm15.248993 -8.375q-0.828125 0 -0.84375 0.796875l-0.3125 12.484375q-0.015625 0.921875 0.796875 0.953125q0.984375 0.015625 1.0 -0.9375l0.109375 -4.875q0.234375 0.03125 0.5 0.015625q3.828125 -0.21875 4.8125 -1.421875q1.65625 -2.09375 0.765625 -4.40625q-0.890625 -2.296875 -4.078125 -2.609375q-0.953125 -0.09375 -2.375 0.03125q-0.171875 -0.03125 -0.375 -0.03125zm0.90625 1.828125q0.734375 -0.078125 1.265625 -0.09375q2.0625 -0.015625 2.8125 1.375q0.609375 1.1875 -0.171875 2.546875q-0.796875 1.390625 -4.015625 1.046875l0.109375 -4.875zm11.382599 12.515625q0.84375 -0.015625 2.734375 -0.96875q0.171875 1.203125 1.3125 0.96875q1.0 -0.203125 0.21875 -1.53125q-0.53125 -0.921875 -0.484375 -3.109375q0.046875 -2.734375 0.25 -3.875q0.21875 -1.171875 -0.875 -1.40625q-0.5625 -0.125 -0.828125 0.09375q-2.390625 -0.75 -4.578125 1.046875q-1.890625 1.546875 -1.875 4.40625q0.03125 4.375 4.125 4.375zm1.046875 -1.84375q-0.6875 0.265625 -1.484375 0.203125q-1.875 -0.125 -1.90625 -2.90625q0.078125 -2.140625 1.703125 -3.3125q0.40625 -0.3125 1.078125 -0.46875q0.96875 -0.234375 1.84375 0.3125q-0.421875 1.484375 -0.09375 5.390625q-0.8125 0.671875 -1.140625 0.78125zm6.187378 -8.640625q-0.84375 0 -0.859375 0.84375l-0.203125 8.53125q-0.03125 0.96875 0.78125 0.984375q0.953125 0.015625 0.984375 -0.96875l0.15625 -5.984375q0.859375 -0.84375 1.890625 -1.046875q1.046875 -0.203125 1.875 0.34375q1.046875 0.71875 1.453125 -0.453125q0.234375 -0.734375 -1.140625 -1.421875q-0.78125 -0.390625 -2.0 -0.375q-0.984375 0.015625 -2.015625 0.78125q0 -0.171875 0 -0.328125q0 -0.90625 -0.921875 -0.90625zm11.16687 -4.703125q-0.828125 0 -0.84375 0.859375l-0.09375 4.296875q-1.0625 0.015625 -2.109375 0.015625q-0.859375 0 -0.859375 0.921875q0 0.890625 0.78125 0.890625q1.0625 0 2.140625 0l-0.171875 7.09375q-0.015625 0.96875 0.8125 0.984375q0.984375 0.015625 0.984375 -0.96875l0.15625 -7.109375q0.984375 0 1.953125 0q1.0625 0 1.0625 -0.9375q0 -0.90625 -1.125 -0.90625l-1.84375 0.015625q0.0625 -1.921875 0.078125 -4.25q0 -0.90625 -0.921875 -0.90625zm7.0875397 5.140625q-0.921875 -0.03125 -0.953125 1.1875l-0.15625 7.640625q-0.015625 1.15625 0.953125 1.15625q0.859375 0 0.875 -1.234375l0.125 -7.578125q0.015625 -1.15625 -0.84375 -1.171875zm0.0625 -4.140625q-0.3125 0 -0.5625 0.171875q-0.234375 0.15625 -0.390625 0.421875q-0.15625 0.25 -0.15625 0.546875q0 0.3125 0.15625 0.578125q0.15625 0.25 0.40625 0.390625q0.234375 0.15625 0.515625 0.15625q0.03125 0 0.0625 0q0.28125 0.015625 0.5 -0.109375q0.21875 -0.09375 0.40625 -0.328125q0.203125 -0.265625 0.234375 -0.59375q0 -0.046875 0 -0.09375q0 -0.28125 -0.140625 -0.53125q-0.140625 -0.296875 -0.421875 -0.453125q-0.265625 -0.15625 -0.578125 -0.15625q-0.015625 0 -0.03125 0zm6.8694763 -1.0q-0.828125 0 -0.84375 0.859375l-0.09375 4.296875q-1.0625 0.015625 -2.109375 0.015625q-0.859375 0 -0.859375 0.921875q0 0.890625 0.78125 0.890625q1.0625 0 2.140625 0l-0.171875 7.09375q-0.015625 0.96875 0.8125 0.984375q0.984375 0.015625 0.984375 -0.96875l0.15625 -7.109375q0.984375 0 1.953125 0q1.0625 0 1.0625 -0.9375q0 -0.90625 -1.125 -0.90625l-1.84375 0.015625q0.0625 -1.921875 0.078125 -4.25q0 -0.90625 -0.921875 -0.90625zm7.0875397 5.140625q-0.921875 -0.03125 -0.953125 1.1875l-0.15625 7.640625q-0.015625 1.15625 0.953125 1.15625q0.859375 0 0.875 -1.234375l0.125 -7.578125q0.015625 -1.15625 -0.84375 -1.171875zm0.0625 -4.140625q-0.3125 0 -0.5625 0.171875q-0.234375 0.15625 -0.390625 0.421875q-0.15625 0.25 -0.15625 0.546875q0 0.3125 0.15625 0.578125q0.15625 0.25 0.40625 0.390625q0.234375 0.15625 0.515625 0.15625q0.03125 0 0.0625 0q0.28125 0.015625 0.5 -0.109375q0.21875 -0.09375 0.40625 -0.328125q0.203125 -0.265625 0.234375 -0.59375q0 -0.046875 0 -0.09375q0 -0.28125 -0.140625 -0.53125q-0.140625 -0.296875 -0.421875 -0.453125q-0.265625 -0.15625 -0.578125 -0.15625q-0.015625 0 -0.03125 0zm7.6194763 5.96875q1.921875 -0.03125 1.90625 3.21875q-0.015625 1.703125 -0.734375 2.484375q-0.671875 0.71875 -1.671875 0.71875q-0.875 0 -1.546875 -0.71875q-0.65625 -0.71875 -0.65625 -2.140625q0 -1.484375 0.90625 -2.734375q0.59375 -0.796875 1.796875 -0.828125zm-0.078125 -1.859375q-1.984375 -0.015625 -3.1875 1.578125q-1.21875 1.59375 -1.21875 3.671875q0 2.203125 1.015625 3.40625q1.125 1.34375 2.75 1.359375q2.25 0.015625 3.34375 -1.375q0.96875 -1.171875 0.984375 -3.390625q0 -5.21875 -3.6875 -5.25zm6.9359283 -0.40625q-0.84375 0 -0.859375 0.84375l-0.203125 8.484375q-0.03125 0.96875 0.78125 0.984375q0.984375 0.015625 1.0 -0.96875l0.15625 -5.515625q1.4375 -1.453125 2.703125 -1.359375q1.515625 0.109375 1.453125 2.625l-0.109375 4.3125q-0.03125 1.109375 0.953125 1.015625q0.859375 -0.078125 0.875 -1.171875l0.078125 -4.5625q0.0625 -4.140625 -3.375 -4.140625q-1.546875 0 -2.546875 0.890625q0.015625 -0.265625 0.015625 -0.53125q0.03125 -0.90625 -0.921875 -0.90625zm15.668518 -3.8125q-0.84375 0.015625 -0.859375 0.796875l-0.296875 12.46875q-0.03125 0.921875 0.78125 0.9375q0.984375 0 1.015625 -0.9375l0.109375 -5.234375l7.875 0q-0.0625 2.609375 -0.125 5.234375q-0.015625 0.921875 0.8125 0.9375q0.984375 0.015625 0.984375 -0.921875l0.28125 -12.421875q0.015625 -0.859375 -0.921875 -0.859375q-0.828125 0.03125 -0.84375 0.8125l-0.140625 5.3125l-7.875 0l0.125 -5.28125q0.015625 -0.84375 -0.921875 -0.84375zm14.501114 4.25q-0.921875 -0.03125 -0.953125 1.1875l-0.15625 7.640625q-0.015625 1.15625 0.953125 1.15625q0.859375 0 0.875 -1.234375l0.125 -7.578125q0.015625 -1.15625 -0.84375 -1.171875zm0.0625 -4.140625q-0.3125 0 -0.5625 0.171875q-0.234375 0.15625 -0.390625 0.421875q-0.15625 0.25 -0.15625 0.546875q0 0.3125 0.15625 0.578125q0.15625 0.25 0.40625 0.390625q0.234375 0.15625 0.515625 0.15625q0.03125 0 0.0625 0q0.28125 0.015625 0.5 -0.109375q0.21875 -0.09375 0.40625 -0.328125q0.203125 -0.265625 0.234375 -0.59375q0 -0.046875 0 -0.09375q0 -0.28125 -0.140625 -0.53125q-0.140625 -0.296875 -0.421875 -0.453125q-0.265625 -0.15625 -0.578125 -0.15625q-0.015625 0 -0.03125 0zm5.9632416 12.359375q-0.84375 -0.046875 -1.640625 -0.59375q-0.65625 -0.453125 -1.171875 -0.109375q-0.42189026 0.265625 -0.390625 0.875q0.046875 0.546875 0.6875 0.90625q0.703125 0.40625 1.203125 0.546875q0.796875 0.21875 2.078125 0.21875q1.5 -0.015625 2.421875 -0.625q1.125 -0.75 1.265625 -1.921875q0.140625 -1.15625 -0.78125 -2.265625q-0.390625 -0.46875 -1.390625 -0.9375q-0.734375 -0.34375 -1.609375 -0.4375q-1.09375 -0.125 -1.265625 -0.609375q-0.171875 -0.5625 0.265625 -1.078125q0.53125 -0.625 1.625 -0.6875q1.03125 -0.03125 1.5625 0.484375q1.0625 1.015625 1.578125 0.59375q0.421875 -0.34375 0.34375 -0.890625q-0.140625 -0.828125 -1.4375 -1.46875q-1.0 -0.484375 -2.328125 -0.375q-1.1875 0.109375 -2.09375 0.765625q-0.765625 0.546875 -1.15625 1.59375q-0.359375 0.953125 -0.140625 1.859375q0.28125 1.171875 2.15625 1.4375q1.796875 0.25 2.3125 0.796875q0.765625 0.828125 0.390625 1.390625q-0.453125 0.671875 -2.484375 0.53125zm9.988403 -13.359375q-0.828125 0 -0.84375 0.859375l-0.09375 4.296875q-1.0625 0.015625 -2.109375 0.015625q-0.859375 0 -0.859375 0.921875q0 0.890625 0.78125 0.890625q1.0625 0 2.140625 0l-0.171875 7.09375q-0.015625 0.96875 0.8125 0.984375q0.984375 0.015625 0.984375 -0.96875l0.15625 -7.109375q0.984375 0 1.953125 0q1.0625 0 1.0625 -0.9375q0 -0.90625 -1.125 -0.90625l-1.84375 0.015625q0.0625 -1.921875 0.078125 -4.25q0 -0.90625 -0.921875 -0.90625zm9.54068 6.96875q1.921875 -0.03125 1.90625 3.21875q-0.015625 1.703125 -0.734375 2.484375q-0.671875 0.71875 -1.671875 0.71875q-0.875 0 -1.546875 -0.71875q-0.65625 -0.71875 -0.65625 -2.140625q0 -1.484375 0.90625 -2.734375q0.59375 -0.796875 1.796875 -0.828125zm-0.078125 -1.859375q-1.984375 -0.015625 -3.1875 1.578125q-1.21875 1.59375 -1.21875 3.671875q0 2.203125 1.015625 3.40625q1.125 1.34375 2.75 1.359375q2.25 0.015625 3.34375 -1.375q0.96875 -1.171875 0.984375 -3.390625q0 -5.21875 -3.6875 -5.25zm6.935913 -0.40625q-0.84375 0 -0.859375 0.84375l-0.203125 8.53125q-0.03125 0.96875 0.78125 0.984375q0.953125 0.015625 0.984375 -0.96875l0.15625 -5.984375q0.859375 -0.84375 1.890625 -1.046875q1.046875 -0.203125 1.875 0.34375q1.046875 0.71875 1.453125 -0.453125q0.234375 -0.734375 -1.140625 -1.421875q-0.78125 -0.390625 -2.0 -0.375q-0.984375 0.015625 -2.015625 0.78125q0 -0.171875 0 -0.328125q0 -0.90625 -0.921875 -0.90625zm15.432495 0.59375q-0.875 -0.359375 -1.34375 0.71875l-2.5 5.734375l-3.046875 -5.796875q-0.578125 -1.078125 -1.421875 -0.625q-0.796875 0.421875 -0.21875 1.5l3.796875 7.015625l-1.8125 4.1875q-0.640625 1.453125 0.3125 1.84375q0.8125 0.328125 1.4375 -1.125l5.203125 -12.0q0.46875 -1.078125 -0.40625 -1.453125zm7.676361 -0.578125q-0.03125 0.90625 0.828125 0.90625l2.484375 0.015625l-1.125 3.8125l-1.828125 0q-1.234375 0 -1.25 0.6875q-0.015625 0.890625 0.828125 0.890625l1.796875 0l-0.5625 1.90625q-0.328125 1.171875 0.3125 1.375q0.859375 0.28125 1.09375 -0.53125l0.8125 -2.734375l4.5625 0.015625l-0.5625 1.875q-0.328125 1.171875 0.3125 1.375q0.859375 0.28125 1.109375 -0.53125l0.796875 -2.71875q1.328125 0 2.65625 0q1.21875 0 1.265625 -0.859375q0.015625 -0.765625 -1.046875 -0.765625l-2.390625 0l1.125 -3.78125q0.953125 0 1.921875 0q1.234375 0 1.265625 -0.875q0.03125 -0.765625 -1.046875 -0.765625l-1.671875 0l0.625 -2.046875q0.34375 -1.1875 -0.484375 -1.453125q-0.71875 -0.25 -1.03125 0.78125l-0.796875 2.734375q-2.265625 0 -4.53125 0l0.609375 -2.0625q0.34375 -1.1875 -0.46875 -1.453125q-0.734375 -0.25 -1.03125 0.78125l-0.796875 2.75q-1.265625 0 -2.546875 0q-1.21875 0 -1.234375 0.671875zm3.875 4.71875l1.125 -3.796875l4.53125 0l-1.109375 3.796875l-4.546875 0zm16.191742 -7.578125q0.015625 -0.8125 -0.5 -0.921875q-0.609375 -0.15625 -1.34375 0.546875l-1.8125 1.703125q-0.65625 0.609375 -0.171875 1.25q0.578125 0.796875 1.453125 -0.03125l0.671875 -0.640625l-0.015625 9.671875q-0.6875 0 -1.359375 0q-0.90625 0 -0.90625 0.90625q0 0.765625 0.8125 0.765625l4.140625 0q0.90625 0 0.90625 -0.8125q0 -0.859375 -0.9375 -0.859375q-0.484375 0 -1.0 0q0.0625 -11.578125 0.0625 -11.578125z" fill-rule="nonzero"/><path fill="#000000" fill-opacity="0.0" d="m204.07349 21.580519l0 0c0 -5.3808975 4.362091 -9.742976 9.742981 -9.742976l123.22272 0c2.5839844 0 5.0621643 1.0264893 6.8893127 2.853652c1.827179 1.8271618 2.8536682 4.3053265 2.8536682 6.889324l0 38.97074c0 5.3809013 -4.362091 9.742977 -9.742981 9.742977l-123.22272 0c-5.38089 0 -9.742981 -4.362076 -9.742981 -9.742977z" fill-rule="evenodd"/><path stroke="#3c78d8" stroke-width="3.0" stroke-linejoin="round" stroke-linecap="butt" d="m204.07349 21.580519l0 0c0 -5.3808975 4.362091 -9.742976 9.742981 -9.742976l123.22272 0c2.5839844 0 5.0621643 1.0264893 6.8893127 2.853652c1.827179 1.8271618 2.8536682 4.3053265 2.8536682 6.889324l0 38.97074c0 5.3809013 -4.362091 9.742977 -9.742981 9.742977l-123.22272 0c-5.38089 0 -9.742981 -4.362076 -9.742981 -9.742977z" fill-rule="evenodd"/><path fill="#3c78d8" d="m227.6737 34.15776q-0.828125 0 -0.84375 0.796875l-0.3125 12.484375q-0.015625 0.921875 0.796875 0.953125q0.984375 0.015625 1.0 -0.9375l0.109375 -4.875q0.234375 0.03125 0.5 0.015625q3.828125 -0.21875 4.8125 -1.421875q1.65625 -2.09375 0.765625 -4.40625q-0.890625 -2.296875 -4.078125 -2.609375q-0.953125 -0.09375 -2.375 0.03125q-0.171875 -0.03125 -0.375 -0.03125zm0.90625 1.828125q0.734375 -0.078125 1.265625 -0.09375q2.0625 -0.015625 2.8125 1.375q0.609375 1.1875 -0.171875 2.546875q-0.796875 1.390625 -4.015625 1.046875l0.109375 -4.875zm11.382599 12.515625q0.84375 -0.015625 2.734375 -0.96875q0.171875 1.203125 1.3125 0.96875q1.0 -0.203125 0.21875 -1.53125q-0.53125 -0.921875 -0.484375 -3.109375q0.046875 -2.734375 0.25 -3.875q0.21875 -1.171875 -0.875 -1.40625q-0.5625 -0.125 -0.828125 0.09375q-2.390625 -0.75 -4.578125 1.046875q-1.890625 1.546875 -1.875 4.40625q0.03125 4.375 4.125 4.375zm1.046875 -1.84375q-0.6875 0.265625 -1.484375 0.203125q-1.875 -0.125 -1.90625 -2.90625q0.078125 -2.140625 1.703125 -3.3125q0.40625 -0.3125 1.078125 -0.46875q0.96875 -0.234375 1.84375 0.3125q-0.421875 1.484375 -0.09375 5.390625q-0.8125 0.671875 -1.140625 0.78125zm6.187378 -8.640625q-0.84375 0 -0.859375 0.84375l-0.203125 8.53125q-0.03125 0.96875 0.78125 0.984375q0.953125 0.015625 0.984375 -0.96875l0.15625 -5.984375q0.859375 -0.84375 1.890625 -1.046875q1.046875 -0.203125 1.875 0.34375q1.046875 0.71875 1.453125 -0.453125q0.234375 -0.734375 -1.140625 -1.421875q-0.78125 -0.390625 -2.0 -0.375q-0.984375 0.015625 -2.015625 0.78125q0 -0.171875 0 -0.328125q0 -0.90625 -0.921875 -0.90625zm11.276245 10.484375q0.84375 -0.015625 2.734375 -0.96875q0.171875 1.203125 1.3125 0.96875q1.0 -0.203125 0.21875 -1.53125q-0.53125 -0.921875 -0.484375 -3.109375q0.046875 -2.734375 0.25 -3.875q0.21875 -1.171875 -0.875 -1.40625q-0.5625 -0.125 -0.828125 0.09375q-2.390625 -0.75 -4.578125 1.046875q-1.890625 1.546875 -1.875 4.40625q0.03125 4.375 4.125 4.375zm1.046875 -1.84375q-0.6875 0.265625 -1.484375 0.203125q-1.875 -0.125 -1.90625 -2.90625q0.078125 -2.140625 1.703125 -3.3125q0.40625 -0.3125 1.078125 -0.46875q0.96875 -0.234375 1.84375 0.3125q-0.421875 1.484375 -0.09375 5.390625q-0.8125 0.671875 -1.140625 0.78125zm6.015503 -8.640625q-0.828125 0 -0.859375 0.84375l-0.203125 8.453125q-0.03125 0.96875 0.796875 0.984375q0.9375 0.03125 0.96875 -0.96875l0.15625 -5.03125q0.5 -1.90625 2.0625 -1.84375q1.40625 0.046875 1.359375 2.640625l-0.09375 4.1875q-0.03125 1.078125 0.90625 1.0q0.84375 -0.0625 0.875 -1.171875l0.109375 -4.5625q0.015625 -0.53125 0.03125 -0.5625q0.609375 -1.5625 2.28125 -1.515625q1.4375 0.03125 1.390625 2.734375l-0.046875 4.203125q-0.015625 1.09375 0.96875 1.0q0.859375 -0.0625 0.875 -1.171875l0.0625 -4.53125q0.0625 -4.140625 -3.390625 -4.140625q-1.859375 -0.015625 -2.796875 1.328125q-0.65625 -1.359375 -2.546875 -1.328125q-1.171875 0 -1.984375 0.734375l0.015625 -0.375q0.015625 -0.90625 -0.9375 -0.90625zm14.743225 6.03125l6.125 -0.890625q0.96875 -0.140625 1.0 -1.25q0.046875 -1.40625 -1.0625 -2.5q-1.1875 -1.15625 -3.296875 -1.03125q-2.015625 0.125 -3.296875 1.953125q-1.015625 1.46875 -1.015625 3.34375q0 2.28125 1.625 3.609375q1.296875 1.078125 3.03125 1.09375q2.375 0.015625 3.828125 -1.28125q0.828125 -0.734375 0.40625 -1.578125q-0.1875 -0.359375 -0.625 -0.265625q-0.390625 0.078125 -1.0 0.75q-0.640625 0.71875 -2.5 0.734375q-1.265625 0.015625 -2.296875 -0.890625q-0.875 -0.78125 -0.921875 -1.796875zm0.203125 -1.515625q0.25 -0.890625 0.65625 -1.390625q0.90625 -1.125 2.171875 -1.125q0.890625 -0.015625 1.703125 0.5q0.6875 0.453125 0.828125 1.234375l-5.359375 0.78125zm12.142731 -9.21875q-0.828125 0 -0.84375 0.859375l-0.09375 4.296875q-1.0625 0.015625 -2.109375 0.015625q-0.859375 0 -0.859375 0.921875q0 0.890625 0.78125 0.890625q1.0625 0 2.140625 0l-0.171875 7.09375q-0.015625 0.96875 0.8125 0.984375q0.984375 0.015625 0.984375 -0.96875l0.15625 -7.109375q0.984375 0 1.953125 0q1.0625 0 1.0625 -0.9375q0 -0.90625 -1.125 -0.90625l-1.84375 0.015625q0.0625 -1.921875 0.078125 -4.25q0 -0.90625 -0.921875 -0.90625zm6.6656494 10.734375l6.125 -0.890625q0.96875 -0.140625 1.0 -1.25q0.046875 -1.40625 -1.0625 -2.5q-1.1875 -1.15625 -3.296875 -1.03125q-2.015625 0.125 -3.296875 1.953125q-1.015625 1.46875 -1.015625 3.34375q0 2.28125 1.625 3.609375q1.296875 1.078125 3.03125 1.09375q2.375 0.015625 3.828125 -1.28125q0.828125 -0.734375 0.40625 -1.578125q-0.1875 -0.359375 -0.625 -0.265625q-0.390625 0.078125 -1.0 0.75q-0.640625 0.71875 -2.5 0.734375q-1.265625 0.015625 -2.296875 -0.890625q-0.875 -0.78125 -0.921875 -1.796875zm0.203125 -1.515625q0.25 -0.890625 0.65625 -1.390625q0.90625 -1.125 2.171875 -1.125q0.890625 -0.015625 1.703125 0.5q0.6875 0.453125 0.828125 1.234375l-5.359375 0.78125zm9.939606 -4.515625q-0.84375 0 -0.859375 0.84375l-0.203125 8.53125q-0.03125 0.96875 0.78125 0.984375q0.953125 0.015625 0.984375 -0.96875l0.15625 -5.984375q0.859375 -0.84375 1.890625 -1.046875q1.046875 -0.203125 1.875 0.34375q1.046875 0.71875 1.453125 -0.453125q0.234375 -0.734375 -1.140625 -1.421875q-0.78125 -0.390625 -2.0 -0.375q-0.984375 0.015625 -2.015625 0.78125q0 -0.171875 0 -0.328125q0 -0.90625 -0.921875 -0.90625zm10.26062 8.65625q-0.84375 -0.046875 -1.640625 -0.59375q-0.65625 -0.453125 -1.171875 -0.109375q-0.421875 0.265625 -0.390625 0.875q0.046875 0.546875 0.6875 0.90625q0.703125 0.40625 1.203125 0.546875q0.796875 0.21875 2.078125 0.21875q1.5 -0.015625 2.421875 -0.625q1.125 -0.75 1.265625 -1.921875q0.140625 -1.15625 -0.78125 -2.265625q-0.390625 -0.46875 -1.390625 -0.9375q-0.734375 -0.34375 -1.609375 -0.4375q-1.09375 -0.125 -1.265625 -0.609375q-0.171875 -0.5625 0.265625 -1.078125q0.53125 -0.625 1.625 -0.6875q1.03125 -0.03125 1.5625 0.484375q1.0625 1.015625 1.578125 0.59375q0.421875 -0.34375 0.34375 -0.890625q-0.140625 -0.828125 -1.4375 -1.46875q-1.0 -0.484375 -2.328125 -0.375q-1.1875 0.109375 -2.09375 0.765625q-0.765625 0.546875 -1.15625 1.59375q-0.359375 0.953125 -0.140625 1.859375q0.28125 1.171875 2.15625 1.4375q1.796875 0.25 2.3125 0.796875q0.765625 0.828125 0.390625 1.390625q-0.453125 0.671875 -2.484375 0.53125z" fill-rule="nonzero"/><path fill="#000000" fill-opacity="0.0" d="m346.78217 116.13823l80.724396 0.724411" fill-rule="evenodd"/><path stroke="#000000" stroke-width="3.0" stroke-linejoin="round" stroke-linecap="butt" d="m346.78217 116.13824l70.44354 0.63214874" fill-rule="evenodd"/><path fill="#000000" stroke="#000000" stroke-width="3.0" stroke-linecap="butt" d="m417.2257 116.770386l-3.4038696 3.343338l9.299194 -3.2904358l-9.238647 -3.456787z" fill-rule="evenodd"/><path fill="#000000" fill-opacity="0.0" d="m570.2021 116.87314l75.1181 -0.50393677" fill-rule="evenodd"/><path stroke="#000000" stroke-width="3.0" stroke-linejoin="round" stroke-linecap="butt" d="m570.2021 116.873146l64.8371 -0.43496704" fill-rule="evenodd"/><path fill="#000000" stroke="#000000" stroke-width="3.0" stroke-linecap="butt" d="m635.0392 116.43818l-3.3510742 3.396309l9.246521 -3.4358597l-9.291748 -3.311493z" fill-rule="evenodd"/><path fill="#000000" fill-opacity="0.0" d="m348.1391 41.920364c33.273712 2.4422379 65.21713 17.394375 91.928345 35.039436" fill-rule="evenodd"/><path stroke="#000000" stroke-width="3.0" stroke-linejoin="round" stroke-linecap="butt" d="m348.1391 41.920364c16.636871 1.2211151 32.94113 5.56971 48.42511 11.818661c7.741974 3.1244698 15.27887 6.7240334 22.549774 10.645298c3.6354065 1.9606247 7.2043457 4.0016785 10.699127 6.103981c0.43685913 0.2627945 0.8725586 0.52653503 1.3070374 0.79120636l0.27020264 0.16557312" fill-rule="evenodd"/><path fill="#000000" stroke="#000000" stroke-width="3.0" stroke-linecap="butt" d="m431.39035 71.44509l-4.6569824 1.0377274l9.63266 2.1245575l-6.013397 -7.819275z" fill-rule="evenodd"/><path fill="#000000" fill-opacity="0.0" d="m348.1391 193.43935c23.321533 -1.9260101 47.893097 -3.658844 68.66968 -13.473389c9.782318 -4.6210327 17.054504 -12.9861145 26.91632 -17.465515" fill-rule="evenodd"/><path stroke="#000000" stroke-width="3.0" stroke-linejoin="round" stroke-linecap="butt" d="m348.1391 193.43935c23.321533 -1.9259949 47.893097 -3.6588287 68.66968 -13.473389c4.891144 -2.3105316 9.154755 -5.5570374 13.428345 -8.785873c1.0684204 -0.80718994 2.1373901 -1.6132965 3.21698 -2.4033813c0.26989746 -0.19752502 0.5404968 -0.39405823 0.81185913 -0.5893402l0.6175232 -0.44000244" fill-rule="evenodd"/><path fill="#000000" stroke="#000000" stroke-width="3.0" stroke-linecap="butt" d="m434.88348 167.74736l-1.1795654 4.6230927l6.2496033 -7.6318207l-9.693115 1.8291321z" fill-rule="evenodd"/></g></svg>