<svg version="1.1" viewBox="0.0 0.0 930.5958005249344 682.2755905511812" fill="none" stroke="none" stroke-linecap="square" stroke-miterlimit="10" xmlns:xlink="http://www.w3.org/1999/xlink" xmlns="http://www.w3.org/2000/svg"><clipPath id="p.0"><path d="m0 0l930.5958 0l0 682.2756l-930.5958 0l0 -682.2756z" clip-rule="nonzero"/></clipPath><g clip-path="url(#p.0)"><path fill="#000000" fill-opacity="0.0" d="m0 0l930.5958 0l0 682.2756l-930.5958 0z" fill-rule="evenodd"/><path fill="#000000" d="m912.6221 632.6142l-65.22839 -23.383057l0 -562.4623l65.22839 -23.383057z" fill-rule="evenodd"/><path stroke="#000000" stroke-width="1.0" stroke-linejoin="round" stroke-linecap="butt" d="m912.6221 632.6142l-65.22839 -23.383057l0 -562.4623l65.22839 -23.383057z" fill-rule="evenodd"/><path fill="#434343" d="m441.8504 21.141708l62.550323 34.17323l346.23788 0l62.550354 -34.17323z" fill-rule="evenodd"/><path stroke="#000000" stroke-width="1.0" stroke-linejoin="round" stroke-linecap="butt" d="m441.8504 21.141708l62.550323 34.17323l346.23788 0l62.550354 -34.17323z" fill-rule="evenodd"/><path fill="#000000" d="m49.850395 47.385826l65.22835 16.307087l0 576.61414l-65.22835 16.307129z" fill-rule="evenodd"/><path stroke="#000000" stroke-width="1.0" stroke-linejoin="round" stroke-linecap="butt" d="m49.850395 47.385826l65.22835 16.307087l0 576.61414l-65.22835 16.307129z" fill-rule="evenodd"/><path fill="#434343" d="m49.850395 656.60895l64.637024 -35.68506l349.4976 0l64.637054 35.68506z" fill-rule="evenodd"/><path stroke="#000000" stroke-width="1.0" stroke-linejoin="round" stroke-linecap="butt" d="m49.850395 656.60895l64.637024 -35.68506l349.4976 0l64.637054 35.68506z" fill-rule="evenodd"/><path fill="#ff9900" d="m144.86876 579.84644l0 0c0 4.7944336 29.478714 8.681152 65.84253 8.681152c36.363815 0 65.842514 -3.8867188 65.842514 -8.681152l0 52.08661c0 4.7944946 -29.478699 8.681152 -65.842514 8.681152c-36.363815 0 -65.84253 -3.8866577 -65.84253 -8.681152z" fill-rule="evenodd"/><path fill="#ffc166" d="m144.86876 579.84644l0 0c0 -4.7944336 29.478714 -8.681091 65.84253 -8.681091c36.363815 0 65.842514 3.8866577 65.842514 8.681091l0 0c0 4.7944336 -29.478699 8.681152 -65.842514 8.681152c-36.363815 0 -65.84253 -3.8867188 -65.84253 -8.681152z" fill-rule="evenodd"/><path fill="#000000" fill-opacity="0.0" d="m276.5538 579.84644l0 0c0 4.7944336 -29.478699 8.681152 -65.842514 8.681152c-36.363815 0 -65.84253 -3.8867188 -65.84253 -8.681152l0 0c0 -4.7944336 29.478714 -8.681091 65.84253 -8.681091c36.363815 0 65.842514 3.8866577 65.842514 8.681091l0 52.08661c0 4.7944946 -29.478699 8.681152 -65.842514 8.681152c-36.363815 0 -65.84253 -3.8866577 -65.84253 -8.681152l0 -52.08661" fill-rule="evenodd"/><path fill="#ff9900" d="m144.86876 511.27954l0 0c0 4.7944336 29.478714 8.681091 65.84253 8.681091c36.363815 0 65.842514 -3.8866577 65.842514 -8.681091l0 52.08661c0 4.7944336 -29.478699 8.681091 -65.842514 8.681091c-36.363815 0 -65.84253 -3.8866577 -65.84253 -8.681091z" fill-rule="evenodd"/><path fill="#ffc166" d="m144.86876 511.27954l0 0c0 -4.794464 29.478714 -8.681122 65.84253 -8.681122c36.363815 0 65.842514 3.8866577 65.842514 8.681122l0 0c0 4.7944336 -29.478699 8.681091 -65.842514 8.681091c-36.363815 0 -65.84253 -3.8866577 -65.84253 -8.681091z" fill-rule="evenodd"/><path fill="#000000" fill-opacity="0.0" d="m276.5538 511.27954l0 0c0 4.7944336 -29.478699 8.681091 -65.842514 8.681091c-36.363815 0 -65.84253 -3.8866577 -65.84253 -8.681091l0 0c0 -4.794464 29.478714 -8.681122 65.84253 -8.681122c36.363815 0 65.842514 3.8866577 65.842514 8.681122l0 52.08661c0 4.7944336 -29.478699 8.681091 -65.842514 8.681091c-36.363815 0 -65.84253 -3.8866577 -65.84253 -8.681091l0 -52.08661" fill-rule="evenodd"/><path fill="#ff9900" d="m144.86876 441.83072l0 0c0 4.7944336 29.478714 8.681091 65.84253 8.681091c36.363815 0 65.842514 -3.8866577 65.842514 -8.681091l0 52.08661c0 4.7944336 -29.478699 8.681091 -65.842514 8.681091c-36.363815 0 -65.84253 -3.8866577 -65.84253 -8.681091z" fill-rule="evenodd"/><path fill="#ffc166" d="m144.86876 441.83072l0 0c0 -4.794464 29.478714 -8.681122 65.84253 -8.681122c36.363815 0 65.842514 3.8866577 65.842514 8.681122l0 0c0 4.7944336 -29.478699 8.681091 -65.842514 8.681091c-36.363815 0 -65.84253 -3.8866577 -65.84253 -8.681091z" fill-rule="evenodd"/><path fill="#000000" fill-opacity="0.0" d="m276.5538 441.83072l0 0c0 4.7944336 -29.478699 8.681091 -65.842514 8.681091c-36.363815 0 -65.84253 -3.8866577 -65.84253 -8.681091l0 0c0 -4.794464 29.478714 -8.681122 65.84253 -8.681122c36.363815 0 65.842514 3.8866577 65.842514 8.681122l0 52.08661c0 4.7944336 -29.478699 8.681091 -65.842514 8.681091c-36.363815 0 -65.84253 -3.8866577 -65.84253 -8.681091l0 -52.08661" fill-rule="evenodd"/><path fill="#ff9900" d="m144.86876 372.3819l0 0c0 4.7944336 29.478714 8.681091 65.84253 8.681091c36.363815 0 65.842514 -3.8866577 65.842514 -8.681091l0 52.08661c0 4.7944336 -29.478699 8.681091 -65.842514 8.681091c-36.363815 0 -65.84253 -3.8866577 -65.84253 -8.681091z" fill-rule="evenodd"/><path fill="#ffc166" d="m144.86876 372.3819l0 0c0 -4.7944336 29.478714 -8.681122 65.84253 -8.681122c36.363815 0 65.842514 3.8866882 65.842514 8.681122l0 0c0 4.7944336 -29.478699 8.681091 -65.842514 8.681091c-36.363815 0 -65.84253 -3.8866577 -65.84253 -8.681091z" fill-rule="evenodd"/><path fill="#000000" fill-opacity="0.0" d="m276.5538 372.3819l0 0c0 4.7944336 -29.478699 8.681091 -65.842514 8.681091c-36.363815 0 -65.84253 -3.8866577 -65.84253 -8.681091l0 0c0 -4.7944336 29.478714 -8.681122 65.84253 -8.681122c36.363815 0 65.842514 3.8866882 65.842514 8.681122l0 52.08661c0 4.7944336 -29.478699 8.681091 -65.842514 8.681091c-36.363815 0 -65.84253 -3.8866577 -65.84253 -8.681091l0 -52.08661" fill-rule="evenodd"/><path fill="#ff9900" d="m144.86876 184.8517l0 0c0 4.794449 29.478714 8.681107 65.84253 8.681107c36.363815 0 65.842514 -3.8866577 65.842514 -8.681107l0 52.086624c0 4.7944336 -29.478699 8.681091 -65.842514 8.681091c-36.363815 0 -65.84253 -3.8866577 -65.84253 -8.681091z" fill-rule="evenodd"/><path fill="#ffc166" d="m144.86876 184.8517l0 0c0 -4.7944336 29.478714 -8.681091 65.84253 -8.681091c36.363815 0 65.842514 3.8866577 65.842514 8.681091l0 0c0 4.794449 -29.478699 8.681107 -65.842514 8.681107c-36.363815 0 -65.84253 -3.8866577 -65.84253 -8.681107z" fill-rule="evenodd"/><path fill="#000000" fill-opacity="0.0" d="m276.5538 184.8517l0 0c0 4.794449 -29.478699 8.681107 -65.842514 8.681107c-36.363815 0 -65.84253 -3.8866577 -65.84253 -8.681107l0 0c0 -4.7944336 29.478714 -8.681091 65.84253 -8.681091c36.363815 0 65.842514 3.8866577 65.842514 8.681091l0 52.086624c0 4.7944336 -29.478699 8.681091 -65.842514 8.681091c-36.363815 0 -65.84253 -3.8866577 -65.84253 -8.681091l0 -52.086624" fill-rule="evenodd"/><path fill="#ff9900" d="m144.86876 70.350395l0 0c0 4.794441 29.478714 8.681099 65.84253 8.681099c36.363815 0 65.842514 -3.8866577 65.842514 -8.681099l0 52.08661c0 4.794441 -29.478699 8.681099 -65.842514 8.681099c-36.363815 0 -65.84253 -3.8866577 -65.84253 -8.681099z" fill-rule="evenodd"/><path fill="#ffc166" d="m144.86876 70.350395l0 0c0 -4.794441 29.478714 -8.681103 65.84253 -8.681103c36.363815 0 65.842514 3.8866615 65.842514 8.681103l0 0c0 4.794441 -29.478699 8.681099 -65.842514 8.681099c-36.363815 0 -65.84253 -3.8866577 -65.84253 -8.681099z" fill-rule="evenodd"/><path fill="#000000" fill-opacity="0.0" d="m276.5538 70.350395l0 0c0 4.794441 -29.478699 8.681099 -65.842514 8.681099c-36.363815 0 -65.84253 -3.8866577 -65.84253 -8.681099l0 0c0 -4.794441 29.478714 -8.681103 65.84253 -8.681103c36.363815 0 65.842514 3.8866615 65.842514 8.681103l0 52.08661c0 4.794441 -29.478699 8.681099 -65.842514 8.681099c-36.363815 0 -65.84253 -3.8866577 -65.84253 -8.681099l0 -52.08661" fill-rule="evenodd"/><path fill="#a64d79" d="m330.9449 581.29395l0 0c0 4.7944336 29.478699 8.681091 65.84253 8.681091c36.3638 0 65.8425 -3.8866577 65.8425 -8.681091l0 52.08661c0 4.7944336 -29.478699 8.681152 -65.8425 8.681152c-36.36383 0 -65.84253 -3.8867188 -65.84253 -8.681152z" fill-rule="evenodd"/><path fill="#c994ae" d="m330.9449 581.29395l0 0c0 -4.7944336 29.478699 -8.681091 65.84253 -8.681091c36.3638 0 65.8425 3.8866577 65.8425 8.681091l0 0c0 4.7944336 -29.478699 8.681091 -65.8425 8.681091c-36.36383 0 -65.84253 -3.8866577 -65.84253 -8.681091z" fill-rule="evenodd"/><path fill="#000000" fill-opacity="0.0" d="m462.6299 581.29395l0 0c0 4.7944336 -29.478699 8.681091 -65.8425 8.681091c-36.36383 0 -65.84253 -3.8866577 -65.84253 -8.681091l0 0c0 -4.7944336 29.478699 -8.681091 65.84253 -8.681091c36.3638 0 65.8425 3.8866577 65.8425 8.681091l0 52.08661c0 4.7944336 -29.478699 8.681152 -65.8425 8.681152c-36.36383 0 -65.84253 -3.8867188 -65.84253 -8.681152l0 -52.08661" fill-rule="evenodd"/><path fill="#a64d79" d="m330.9449 512.72705l0 0c0 4.7944336 29.478699 8.681091 65.84253 8.681091c36.3638 0 65.8425 -3.8866577 65.8425 -8.681091l0 52.08661c0 4.7944336 -29.478699 8.681091 -65.8425 8.681091c-36.36383 0 -65.84253 -3.8866577 -65.84253 -8.681091z" fill-rule="evenodd"/><path fill="#c994ae" d="m330.9449 512.72705l0 0c0 -4.794464 29.478699 -8.681122 65.84253 -8.681122c36.3638 0 65.8425 3.8866577 65.8425 8.681122l0 0c0 4.7944336 -29.478699 8.681091 -65.8425 8.681091c-36.36383 0 -65.84253 -3.8866577 -65.84253 -8.681091z" fill-rule="evenodd"/><path fill="#000000" fill-opacity="0.0" d="m462.6299 512.72705l0 0c0 4.7944336 -29.478699 8.681091 -65.8425 8.681091c-36.36383 0 -65.84253 -3.8866577 -65.84253 -8.681091l0 0c0 -4.794464 29.478699 -8.681122 65.84253 -8.681122c36.3638 0 65.8425 3.8866577 65.8425 8.681122l0 52.08661c0 4.7944336 -29.478699 8.681091 -65.8425 8.681091c-36.36383 0 -65.84253 -3.8866577 -65.84253 -8.681091l0 -52.08661" fill-rule="evenodd"/><path fill="#a64d79" d="m330.9449 300.80054l0 0c0 4.7944336 29.478699 8.681091 65.84253 8.681091c36.3638 0 65.8425 -3.8866577 65.8425 -8.681091l0 52.08661c0 4.7944336 -29.478699 8.681091 -65.8425 8.681091c-36.36383 0 -65.84253 -3.8866577 -65.84253 -8.681091z" fill-rule="evenodd"/><path fill="#c994ae" d="m330.9449 300.80054l0 0c0 -4.794464 29.478699 -8.681122 65.84253 -8.681122c36.3638 0 65.8425 3.8866577 65.8425 8.681122l0 0c0 4.7944336 -29.478699 8.681091 -65.8425 8.681091c-36.36383 0 -65.84253 -3.8866577 -65.84253 -8.681091z" fill-rule="evenodd"/><path fill="#000000" fill-opacity="0.0" d="m462.6299 300.80054l0 0c0 4.7944336 -29.478699 8.681091 -65.8425 8.681091c-36.36383 0 -65.84253 -3.8866577 -65.84253 -8.681091l0 0c0 -4.794464 29.478699 -8.681122 65.84253 -8.681122c36.3638 0 65.8425 3.8866577 65.8425 8.681122l0 52.08661c0 4.7944336 -29.478699 8.681091 -65.8425 8.681091c-36.36383 0 -65.84253 -3.8866577 -65.84253 -8.681091l0 -52.08661" fill-rule="evenodd"/><path fill="#a64d79" d="m330.94357 161.82152l0 0c0 4.794449 29.478699 8.681107 65.84253 8.681107c36.3638 0 65.8425 -3.8866577 65.8425 -8.681107l0 52.086624c0 4.7944336 -29.478699 8.681091 -65.8425 8.681091c-36.36383 0 -65.84253 -3.8866577 -65.84253 -8.681091z" fill-rule="evenodd"/><path fill="#c994ae" d="m330.94357 161.82152l0 0c0 -4.7944336 29.478699 -8.681091 65.84253 -8.681091c36.3638 0 65.8425 3.8866577 65.8425 8.681091l0 0c0 4.794449 -29.478699 8.681107 -65.8425 8.681107c-36.36383 0 -65.84253 -3.8866577 -65.84253 -8.681107z" fill-rule="evenodd"/><path fill="#000000" fill-opacity="0.0" d="m462.6286 161.82152l0 0c0 4.794449 -29.478699 8.681107 -65.8425 8.681107c-36.36383 0 -65.84253 -3.8866577 -65.84253 -8.681107l0 0c0 -4.7944336 29.478699 -8.681091 65.84253 -8.681091c36.3638 0 65.8425 3.8866577 65.8425 8.681091l0 52.086624c0 4.7944336 -29.478699 8.681091 -65.8425 8.681091c-36.36383 0 -65.84253 -3.8866577 -65.84253 -8.681091l0 -52.086624" fill-rule="evenodd"/><path fill="#a64d79" d="m330.9449 71.7979l0 0c0 4.794441 29.478699 8.681107 65.84253 8.681107c36.3638 0 65.8425 -3.8866653 65.8425 -8.681107l0 52.086617c0 4.794441 -29.478699 8.681099 -65.8425 8.681099c-36.36383 0 -65.84253 -3.8866577 -65.84253 -8.681099z" fill-rule="evenodd"/><path fill="#c994ae" d="m330.9449 71.7979l0 0c0 -4.794441 29.478699 -8.681099 65.84253 -8.681099c36.3638 0 65.8425 3.8866577 65.8425 8.681099l0 0c0 4.794441 -29.478699 8.681107 -65.8425 8.681107c-36.36383 0 -65.84253 -3.8866653 -65.84253 -8.681107z" fill-rule="evenodd"/><path fill="#000000" fill-opacity="0.0" d="m462.6299 71.7979l0 0c0 4.794441 -29.478699 8.681107 -65.8425 8.681107c-36.36383 0 -65.84253 -3.8866653 -65.84253 -8.681107l0 0c0 -4.794441 29.478699 -8.681099 65.84253 -8.681099c36.3638 0 65.8425 3.8866577 65.8425 8.681099l0 52.086617c0 4.794441 -29.478699 8.681099 -65.8425 8.681099c-36.36383 0 -65.84253 -3.8866577 -65.84253 -8.681099l0 -52.086617" fill-rule="evenodd"/><path fill="#ff9900" d="m508.47507 581.29395l0 0c0 4.7944336 29.478668 8.681091 65.8425 8.681091c36.36383 0 65.84253 -3.8866577 65.84253 -8.681091l0 52.08661c0 4.7944336 -29.478699 8.681152 -65.84253 8.681152c-36.36383 0 -65.8425 -3.8867188 -65.8425 -8.681152z" fill-rule="evenodd"/><path fill="#ffc166" d="m508.47507 581.29395l0 0c0 -4.7944336 29.478668 -8.681091 65.8425 -8.681091c36.36383 0 65.84253 3.8866577 65.84253 8.681091l0 0c0 4.7944336 -29.478699 8.681091 -65.84253 8.681091c-36.36383 0 -65.8425 -3.8866577 -65.8425 -8.681091z" fill-rule="evenodd"/><path fill="#000000" fill-opacity="0.0" d="m640.1601 581.29395l0 0c0 4.7944336 -29.478699 8.681091 -65.84253 8.681091c-36.36383 0 -65.8425 -3.8866577 -65.8425 -8.681091l0 0c0 -4.7944336 29.478668 -8.681091 65.8425 -8.681091c36.36383 0 65.84253 3.8866577 65.84253 8.681091l0 52.08661c0 4.7944336 -29.478699 8.681152 -65.84253 8.681152c-36.36383 0 -65.8425 -3.8867188 -65.8425 -8.681152l0 -52.08661" fill-rule="evenodd"/><path fill="#ff9900" d="m508.47507 512.72705l0 0c0 4.7944336 29.478668 8.681091 65.8425 8.681091c36.36383 0 65.84253 -3.8866577 65.84253 -8.681091l0 52.08661c0 4.7944336 -29.478699 8.681091 -65.84253 8.681091c-36.36383 0 -65.8425 -3.8866577 -65.8425 -8.681091z" fill-rule="evenodd"/><path fill="#ffc166" d="m508.47507 512.72705l0 0c0 -4.794464 29.478668 -8.681122 65.8425 -8.681122c36.36383 0 65.84253 3.8866577 65.84253 8.681122l0 0c0 4.7944336 -29.478699 8.681091 -65.84253 8.681091c-36.36383 0 -65.8425 -3.8866577 -65.8425 -8.681091z" fill-rule="evenodd"/><path fill="#000000" fill-opacity="0.0" d="m640.1601 512.72705l0 0c0 4.7944336 -29.478699 8.681091 -65.84253 8.681091c-36.36383 0 -65.8425 -3.8866577 -65.8425 -8.681091l0 0c0 -4.794464 29.478668 -8.681122 65.8425 -8.681122c36.36383 0 65.84253 3.8866577 65.84253 8.681122l0 52.08661c0 4.7944336 -29.478699 8.681091 -65.84253 8.681091c-36.36383 0 -65.8425 -3.8866577 -65.8425 -8.681091l0 -52.08661" fill-rule="evenodd"/><path fill="#ff9900" d="m508.47507 71.7979l0 0c0 4.794441 29.478668 8.681107 65.8425 8.681107c36.36383 0 65.84253 -3.8866653 65.84253 -8.681107l0 52.086617c0 4.794441 -29.478699 8.681099 -65.84253 8.681099c-36.36383 0 -65.8425 -3.8866577 -65.8425 -8.681099z" fill-rule="evenodd"/><path fill="#ffc166" d="m508.47507 71.7979l0 0c0 -4.794441 29.478668 -8.681099 65.8425 -8.681099c36.36383 0 65.84253 3.8866577 65.84253 8.681099l0 0c0 4.794441 -29.478699 8.681107 -65.84253 8.681107c-36.36383 0 -65.8425 -3.8866653 -65.8425 -8.681107z" fill-rule="evenodd"/><path fill="#000000" fill-opacity="0.0" d="m640.1601 71.7979l0 0c0 4.794441 -29.478699 8.681107 -65.84253 8.681107c-36.36383 0 -65.8425 -3.8866653 -65.8425 -8.681107l0 0c0 -4.794441 29.478668 -8.681099 65.8425 -8.681099c36.36383 0 65.84253 3.8866577 65.84253 8.681099l0 52.086617c0 4.794441 -29.478699 8.681099 -65.84253 8.681099c-36.36383 0 -65.8425 -3.8866577 -65.8425 -8.681099l0 -52.086617" fill-rule="evenodd"/><path fill="#999999" d="m686.00525 580.7034l0 0c0 4.7944336 29.478699 8.681091 65.84253 8.681091c36.36383 0 65.84253 -3.8866577 65.84253 -8.681091l0 52.08661c0 4.7944336 -29.478699 8.681091 -65.84253 8.681091c-36.36383 0 -65.84253 -3.8866577 -65.84253 -8.681091z" fill-rule="evenodd"/><path fill="#c1c1c1" d="m686.00525 580.7034l0 0c0 -4.7944336 29.478699 -8.681091 65.84253 -8.681091c36.36383 0 65.84253 3.8866577 65.84253 8.681091l0 0c0 4.7944336 -29.478699 8.681091 -65.84253 8.681091c-36.36383 0 -65.84253 -3.8866577 -65.84253 -8.681091z" fill-rule="evenodd"/><path fill="#000000" fill-opacity="0.0" d="m817.6903 580.7034l0 0c0 4.7944336 -29.478699 8.681091 -65.84253 8.681091c-36.36383 0 -65.84253 -3.8866577 -65.84253 -8.681091l0 0c0 -4.7944336 29.478699 -8.681091 65.84253 -8.681091c36.36383 0 65.84253 3.8866577 65.84253 8.681091l0 52.08661c0 4.7944336 -29.478699 8.681091 -65.84253 8.681091c-36.36383 0 -65.84253 -3.8866577 -65.84253 -8.681091l0 -52.08661" fill-rule="evenodd"/><path fill="#999999" d="m686.00525 512.1365l0 0c0 4.7944336 29.478699 8.681091 65.84253 8.681091c36.36383 0 65.84253 -3.8866577 65.84253 -8.681091l0 52.08661c0 4.7944336 -29.478699 8.681091 -65.84253 8.681091c-36.36383 0 -65.84253 -3.8866577 -65.84253 -8.681091z" fill-rule="evenodd"/><path fill="#c1c1c1" d="m686.00525 512.1365l0 0c0 -4.7944336 29.478699 -8.681091 65.84253 -8.681091c36.36383 0 65.84253 3.8866577 65.84253 8.681091l0 0c0 4.7944336 -29.478699 8.681091 -65.84253 8.681091c-36.36383 0 -65.84253 -3.8866577 -65.84253 -8.681091z" fill-rule="evenodd"/><path fill="#000000" fill-opacity="0.0" d="m817.6903 512.1365l0 0c0 4.7944336 -29.478699 8.681091 -65.84253 8.681091c-36.36383 0 -65.84253 -3.8866577 -65.84253 -8.681091l0 0c0 -4.7944336 29.478699 -8.681091 65.84253 -8.681091c36.36383 0 65.84253 3.8866577 65.84253 8.681091l0 52.08661c0 4.7944336 -29.478699 8.681091 -65.84253 8.681091c-36.36383 0 -65.84253 -3.8866577 -65.84253 -8.681091l0 -52.08661" fill-rule="evenodd"/><path fill="#999999" d="m686.00525 302.75067l0 0c0 4.7944336 29.478699 8.681091 65.84253 8.681091c36.36383 0 65.84253 -3.8866577 65.84253 -8.681091l0 52.08661c0 4.7944336 -29.478699 8.681091 -65.84253 8.681091c-36.36383 0 -65.84253 -3.8866577 -65.84253 -8.681091z" fill-rule="evenodd"/><path fill="#c1c1c1" d="m686.00525 302.75067l0 0c0 -4.794464 29.478699 -8.681122 65.84253 -8.681122c36.36383 0 65.84253 3.8866577 65.84253 8.681122l0 0c0 4.7944336 -29.478699 8.681091 -65.84253 8.681091c-36.36383 0 -65.84253 -3.8866577 -65.84253 -8.681091z" fill-rule="evenodd"/><path fill="#000000" fill-opacity="0.0" d="m817.6903 302.75067l0 0c0 4.7944336 -29.478699 8.681091 -65.84253 8.681091c-36.36383 0 -65.84253 -3.8866577 -65.84253 -8.681091l0 0c0 -4.794464 29.478699 -8.681122 65.84253 -8.681122c36.36383 0 65.84253 3.8866577 65.84253 8.681122l0 52.08661c0 4.7944336 -29.478699 8.681091 -65.84253 8.681091c-36.36383 0 -65.84253 -3.8866577 -65.84253 -8.681091l0 -52.08661" fill-rule="evenodd"/><path fill="#999999" d="m686.0079 225.56955l0 0c0 4.794449 29.478699 8.681107 65.84253 8.681107c36.36383 0 65.84253 -3.8866577 65.84253 -8.681107l0 52.08661c0 4.794464 -29.478699 8.681122 -65.84253 8.681122c-36.36383 0 -65.84253 -3.8866577 -65.84253 -8.681122z" fill-rule="evenodd"/><path fill="#c1c1c1" d="m686.0079 225.56955l0 0c0 -4.7944336 29.478699 -8.681091 65.84253 -8.681091c36.36383 0 65.84253 3.8866577 65.84253 8.681091l0 0c0 4.794449 -29.478699 8.681107 -65.84253 8.681107c-36.36383 0 -65.84253 -3.8866577 -65.84253 -8.681107z" fill-rule="evenodd"/><path fill="#000000" fill-opacity="0.0" d="m817.69293 225.56955l0 0c0 4.794449 -29.478699 8.681107 -65.84253 8.681107c-36.36383 0 -65.84253 -3.8866577 -65.84253 -8.681107l0 0c0 -4.7944336 29.478699 -8.681091 65.84253 -8.681091c36.36383 0 65.84253 3.8866577 65.84253 8.681091l0 52.08661c0 4.794464 -29.478699 8.681122 -65.84253 8.681122c-36.36383 0 -65.84253 -3.8866577 -65.84253 -8.681122l0 -52.08661" fill-rule="evenodd"/><path fill="#999999" d="m686.0079 148.38846l0 0c0 4.7944336 29.478699 8.681091 65.84253 8.681091c36.36383 0 65.84253 -3.8866577 65.84253 -8.681091l0 52.08661c0 4.7944336 -29.478699 8.681107 -65.84253 8.681107c-36.36383 0 -65.84253 -3.886673 -65.84253 -8.681107z" fill-rule="evenodd"/><path fill="#c1c1c1" d="m686.0079 148.38846l0 0c0 -4.794449 29.478699 -8.681107 65.84253 -8.681107c36.36383 0 65.84253 3.8866577 65.84253 8.681107l0 0c0 4.7944336 -29.478699 8.681091 -65.84253 8.681091c-36.36383 0 -65.84253 -3.8866577 -65.84253 -8.681091z" fill-rule="evenodd"/><path fill="#000000" fill-opacity="0.0" d="m817.69293 148.38846l0 0c0 4.7944336 -29.478699 8.681091 -65.84253 8.681091c-36.36383 0 -65.84253 -3.8866577 -65.84253 -8.681091l0 0c0 -4.794449 29.478699 -8.681107 65.84253 -8.681107c36.36383 0 65.84253 3.8866577 65.84253 8.681107l0 52.08661c0 4.7944336 -29.478699 8.681107 -65.84253 8.681107c-36.36383 0 -65.84253 -3.886673 -65.84253 -8.681107l0 -52.08661" fill-rule="evenodd"/><path fill="#999999" d="m686.00525 71.20735l0 0c0 4.794441 29.478699 8.681099 65.84253 8.681099c36.36383 0 65.84253 -3.8866577 65.84253 -8.681099l0 52.08661c0 4.794449 -29.478699 8.681107 -65.84253 8.681107c-36.36383 0 -65.84253 -3.8866577 -65.84253 -8.681107z" fill-rule="evenodd"/><path fill="#c1c1c1" d="m686.00525 71.20735l0 0c0 -4.794441 29.478699 -8.681107 65.84253 -8.681107c36.36383 0 65.84253 3.8866653 65.84253 8.681107l0 0c0 4.794441 -29.478699 8.681099 -65.84253 8.681099c-36.36383 0 -65.84253 -3.8866577 -65.84253 -8.681099z" fill-rule="evenodd"/><path fill="#000000" fill-opacity="0.0" d="m817.6903 71.20735l0 0c0 4.794441 -29.478699 8.681099 -65.84253 8.681099c-36.36383 0 -65.84253 -3.8866577 -65.84253 -8.681099l0 0c0 -4.794441 29.478699 -8.681107 65.84253 -8.681107c36.36383 0 65.84253 3.8866653 65.84253 8.681107l0 52.08661c0 4.794449 -29.478699 8.681107 -65.84253 8.681107c-36.36383 0 -65.84253 -3.8866577 -65.84253 -8.681107l0 -52.08661" fill-rule="evenodd"/><path fill="#000000" fill-opacity="0.0" d="m210.71129 131.1181l0 62.4252" fill-rule="evenodd"/><path stroke="#000000" stroke-width="12.0" stroke-linejoin="round" stroke-linecap="butt" d="m210.71129 131.1181l0 62.4252" fill-rule="evenodd"/><path fill="#000000" fill-opacity="0.0" d="m210.71129 245.61942l0 135.43307" fill-rule="evenodd"/><path stroke="#000000" stroke-width="12.0" stroke-linejoin="round" stroke-linecap="butt" d="m210.71129 245.61942l0 135.43307" fill-rule="evenodd"/><path fill="#000000" fill-opacity="0.0" d="m396.7874 132.56561l0 37.95276" fill-rule="evenodd"/><path stroke="#000000" stroke-width="12.0" stroke-linejoin="round" stroke-linecap="butt" d="m396.7874 132.56561l0 37.95276" fill-rule="evenodd"/><path fill="#000000" fill-opacity="0.0" d="m396.7861 222.58923l0 86.897644" fill-rule="evenodd"/><path stroke="#000000" stroke-width="12.0" stroke-linejoin="round" stroke-linecap="butt" d="m396.7861 222.58923l0 86.897644" fill-rule="evenodd"/><path fill="#000000" fill-opacity="0.0" d="m396.7874 361.56824l0 159.84253" fill-rule="evenodd"/><path stroke="#000000" stroke-width="12.0" stroke-linejoin="round" stroke-linecap="butt" d="m396.7874 361.56824l0 159.84253" fill-rule="evenodd"/><path fill="#000000" fill-opacity="0.0" d="m574.31757 132.56561l0 388.8504" fill-rule="evenodd"/><path stroke="#000000" stroke-width="12.0" stroke-linejoin="round" stroke-linecap="butt" d="m574.31757 132.56561l0 388.8504" fill-rule="evenodd"/><path fill="#000000" fill-opacity="0.0" d="m751.8478 131.97507l0 25.102356" fill-rule="evenodd"/><path stroke="#000000" stroke-width="12.0" stroke-linejoin="round" stroke-linecap="butt" d="m751.8478 131.97507l0 25.102356" fill-rule="evenodd"/><path fill="#000000" fill-opacity="0.0" d="m751.8504 209.15617l0 25.102356" fill-rule="evenodd"/><path stroke="#000000" stroke-width="12.0" stroke-linejoin="round" stroke-linecap="butt" d="m751.8504 209.15617l0 25.102356" fill-rule="evenodd"/><path fill="#000000" fill-opacity="0.0" d="m751.8504 286.33728l0 25.102356" fill-rule="evenodd"/><path stroke="#000000" stroke-width="12.0" stroke-linejoin="round" stroke-linecap="butt" d="m751.8504 286.33728l0 25.102356" fill-rule="evenodd"/><path fill="#000000" fill-opacity="0.0" d="m751.8478 363.51837l0 157.29132" fill-rule="evenodd"/><path stroke="#000000" stroke-width="12.0" stroke-linejoin="round" stroke-linecap="butt" d="m751.8478 363.51837l0 157.29132" fill-rule="evenodd"/></g></svg>