<svg version="1.1" viewBox="0.0 0.0 717.8425196850394 361.0734908136483" fill="none" stroke="none" stroke-linecap="square" stroke-miterlimit="10" xmlns:xlink="http://www.w3.org/1999/xlink" xmlns="http://www.w3.org/2000/svg"><clipPath id="p.0"><path d="m0 0l717.8425 0l0 361.0735l-717.8425 0l0 -361.0735z" clip-rule="nonzero"/></clipPath><g clip-path="url(#p.0)"><path fill="#ffffff" d="m0 0l717.8425 0l0 361.0735l-717.8425 0z" fill-rule="evenodd"/><path fill="#000000" fill-opacity="0.0" d="m304.9895 150.5328l0 0c0 -39.57316 32.693787 -71.65354 73.02362 -71.65354l0 0c19.367065 0 37.940918 7.5491943 51.635498 20.98684c13.69458 13.437645 21.388123 31.66301 21.388123 50.666702l0 0c0 39.573166 -32.693787 71.65355 -73.02362 71.65355l0 0c-40.329834 0 -73.02362 -32.080383 -73.02362 -71.65355z" fill-rule="evenodd"/><path stroke="#000000" stroke-width="3.0" stroke-linejoin="round" stroke-linecap="butt" d="m304.9895 150.5328l0 0c0 -39.57316 32.693787 -71.65354 73.02362 -71.65354l0 0c19.367065 0 37.940918 7.5491943 51.635498 20.98684c13.69458 13.437645 21.388123 31.66301 21.388123 50.666702l0 0c0 39.573166 -32.693787 71.65355 -73.02362 71.65355l0 0c-40.329834 0 -73.02362 -32.080383 -73.02362 -71.65355z" fill-rule="evenodd"/><path fill="#000000" fill-opacity="0.0" d="m15.0874405 87.972176l0 0c0 -17.977882 14.573952 -32.551834 32.55183 -32.551834l425.76248 0c8.63327 0 16.912964 3.4295616 23.017609 9.53421c6.104645 6.1046524 9.53421 14.384338 9.53421 23.017624l0 130.20343c0 17.977875 -14.573944 32.551834 -32.55182 32.551834l-425.76248 0l0 0c-17.977879 0 -32.55183 -14.573959 -32.55183 -32.551834z" fill-rule="evenodd"/><path stroke="#cc0000" stroke-width="3.0" stroke-linejoin="round" stroke-linecap="butt" stroke-dasharray="12.0,9.0" d="m15.0874405 87.972176l0 0c0 -17.977882 14.573952 -32.551834 32.55183 -32.551834l425.76248 0c8.63327 0 16.912964 3.4295616 23.017609 9.53421c6.104645 6.1046524 9.53421 14.384338 9.53421 23.017624l0 130.20343c0 17.977875 -14.573944 32.551834 -32.55182 32.551834l-425.76248 0l0 0c-17.977879 0 -32.55183 -14.573959 -32.55183 -32.551834z" fill-rule="evenodd"/><path fill="#000000" fill-opacity="0.0" d="m40.25197 125.50419l0 0c0 -6.917473 5.6077156 -12.525185 12.525185 -12.525185l129.05988 0c3.3218842 0 6.507721 1.3196106 8.856644 3.668541c2.3489227 2.3489304 3.6685333 5.5347595 3.6685333 8.856644l0 50.099236c0 6.917465 -5.607712 12.525192 -12.525177 12.525192l-129.05988 0c-6.917469 0 -12.525185 -5.607727 -12.525185 -12.525192z" fill-rule="evenodd"/><path stroke="#3c78d8" stroke-width="3.0" stroke-linejoin="round" stroke-linecap="butt" d="m40.25197 125.50419l0 0c0 -6.917473 5.6077156 -12.525185 12.525185 -12.525185l129.05988 0c3.3218842 0 6.507721 1.3196106 8.856644 3.668541c2.3489227 2.3489304 3.6685333 5.5347595 3.6685333 8.856644l0 50.099236c0 6.917465 -5.607712 12.525192 -12.525177 12.525192l-129.05988 0c-6.917469 0 -12.525185 -5.607727 -12.525185 -12.525192z" fill-rule="evenodd"/><path fill="#000000" fill-opacity="0.0" d="m561.6693 129.19972l0 0c0 -6.917465 5.607727 -12.525185 12.5252075 -12.525185l114.414185 0c3.3218994 0 6.5077515 1.3196182 8.856628 3.668541c2.348938 2.3489304 3.668579 5.5347595 3.668579 8.856644l0 50.099243c0 6.917465 -5.607727 12.525177 -12.5252075 12.525177l-114.414185 0l0 0c-6.9174805 0 -12.5252075 -5.607712 -12.5252075 -12.525177z" fill-rule="evenodd"/><path stroke="#3c78d8" stroke-width="3.0" stroke-linejoin="round" stroke-linecap="butt" d="m561.6693 129.19972l0 0c0 -6.917465 5.607727 -12.525185 12.5252075 -12.525185l114.414185 0c3.3218994 0 6.5077515 1.3196182 8.856628 3.668541c2.348938 2.3489304 3.668579 5.5347595 3.668579 8.856644l0 50.099243c0 6.917465 -5.607727 12.525177 -12.5252075 12.525177l-114.414185 0l0 0c-6.9174805 0 -12.5252075 -5.607712 -12.5252075 -12.525177z" fill-rule="evenodd"/><path fill="#000000" fill-opacity="0.0" d="m113.09974 295.06583l0 0c0 -5.6853027 4.608856 -10.294159 10.294167 -10.294159l60.67151 0c2.7301788 0 5.3485413 1.0845337 7.279068 3.0150757c1.930542 1.930542 3.015091 4.548889 3.015091 7.2790833l0 41.175446c0 5.6853027 -4.608856 10.294159 -10.294159 10.294159l-60.67151 0l0 0c-5.6853104 0 -10.294167 -4.608856 -10.294167 -10.294159z" fill-rule="evenodd"/><path stroke="#3c78d8" stroke-width="3.0" stroke-linejoin="round" stroke-linecap="butt" d="m113.09974 295.06583l0 0c0 -5.6853027 4.608856 -10.294159 10.294167 -10.294159l60.67151 0c2.7301788 0 5.3485413 1.0845337 7.279068 3.0150757c1.930542 1.930542 3.015091 4.548889 3.015091 7.2790833l0 41.175446c0 5.6853027 -4.608856 10.294159 -10.294159 10.294159l-60.67151 0l0 0c-5.6853104 0 -10.294167 -4.608856 -10.294167 -10.294159z" fill-rule="evenodd"/><path fill="#000000" fill-opacity="0.0" d="m44.945118 124.08158l182.83464 0l0 48.472435l-182.83464 0z" fill-rule="evenodd"/><path fill="#3c78d8" d="m56.538868 138.3247q-1.0625 0 -1.09375 1.03125l-0.390625 16.0625q-0.03125 1.203125 1.03125 1.21875q1.265625 0.03125 1.28125 -1.203125l0.140625 -6.265625q0.296875 0.03125 0.640625 0.015625q4.921875 -0.265625 6.187496 -1.828125q2.125 -2.6875 0.984375 -5.671875q-1.140625 -2.9375 -5.234371 -3.359375q-1.234375 -0.109375 -3.0625 0.046875q-0.21875 -0.046875 -0.484375 -0.046875zm1.15625 2.359375q0.953125 -0.109375 1.640625 -0.109375q2.65625 -0.03125 3.609375 1.75q0.796875 1.53125 -0.203125 3.28125q-1.03125 1.78125 -5.1875 1.34375l0.140625 -6.265625zm14.648434 16.09375q1.09375 -0.015625 3.515625 -1.25q0.234375 1.5625 1.703125 1.25q1.28125 -0.25 0.28125 -1.96875q-0.6875 -1.171875 -0.640625 -3.984375q0.0625 -3.53125 0.328125 -5.0q0.28125 -1.5 -1.125 -1.8125q-0.71875 -0.15625 -1.0625 0.125q-3.0625 -0.96875 -5.875 1.34375q-2.453125 2.0 -2.421875 5.671875q0.03125 5.640625 5.296875 5.625zm1.359375 -2.359375q-0.890625 0.328125 -1.90625 0.265625q-2.421875 -0.171875 -2.46875 -3.75q0.109375 -2.765625 2.203125 -4.265625q0.515625 -0.390625 1.375 -0.609375q1.25 -0.296875 2.375 0.421875q-0.53125 1.890625 -0.109375 6.9375q-1.046875 0.84375 -1.46875 1.0zm7.953125 -11.125q-1.078125 0 -1.109375 1.09375l-0.265625 10.953125q-0.03125 1.265625 1.015625 1.28125q1.234375 0.03125 1.265625 -1.25l0.203125 -7.6875q1.09375 -1.09375 2.421875 -1.34375q1.359375 -0.28125 2.421875 0.4375q1.34375 0.921875 1.859375 -0.578125q0.3125 -0.953125 -1.46875 -1.84375q-1.0 -0.5 -2.5625 -0.484375q-1.28125 0.03125 -2.59375 1.015625q0 -0.21875 0 -0.421875q0 -1.171875 -1.1875 -1.171875zm14.5 13.484375q1.09375 -0.015625 3.515625 -1.25q0.234375 1.5625 1.703125 1.25q1.28125 -0.25 0.28125 -1.96875q-0.6875 -1.171875 -0.640625 -3.984375q0.0625 -3.53125 0.328125 -5.0q0.28125 -1.5 -1.125 -1.8125q-0.71875 -0.15625 -1.0625 0.125q-3.0625 -0.96875 -5.875 1.34375q-2.453125 2.0 -2.421875 5.671875q0.03125 5.640625 5.296875 5.625zm1.359375 -2.359375q-0.890625 0.328125 -1.90625 0.265625q-2.421875 -0.171875 -2.46875 -3.75q0.109375 -2.765625 2.203125 -4.265625q0.515625 -0.390625 1.375 -0.609375q1.25 -0.296875 2.375 0.421875q-0.53125 1.890625 -0.109375 6.9375q-1.046875 0.84375 -1.46875 1.0zm7.734375 -11.125q-1.078125 0 -1.09375 1.09375l-0.28125 10.859375q-0.03125 1.265625 1.03125 1.28125q1.21875 0.03125 1.25 -1.25l0.203125 -6.484375q0.625 -2.4375 2.65625 -2.359375q1.796875 0.046875 1.734375 3.390625l-0.125 5.375q-0.03125 1.421875 1.171875 1.3125q1.09375 -0.09375 1.125 -1.515625l0.140625 -5.875q0.015625 -0.671875 0.046875 -0.71875q0.78125 -2.015625 2.921875 -1.953125q1.859375 0.046875 1.8125 3.515625l-0.078125 5.40625q-0.015625 1.421875 1.25 1.296875q1.09375 -0.09375 1.125 -1.515625l0.09375 -5.8125q0.078125 -5.34375 -4.359375 -5.34375q-2.40625 -0.015625 -3.609375 1.71875q-0.84375 -1.75 -3.28125 -1.71875q-1.5 0 -2.546875 0.9375l0.015625 -0.46875q0.015625 -1.171875 -1.203125 -1.171875zm18.957031 7.75l7.875 -1.140625q1.265625 -0.171875 1.3125 -1.609375q0.046875 -1.796875 -1.390625 -3.203125q-1.515625 -1.5 -4.234375 -1.328125q-2.59375 0.15625 -4.234375 2.515625q-1.3125 1.890625 -1.3125 4.296875q0 2.9375 2.078125 4.640625q1.6875 1.390625 3.921875 1.40625q3.046875 0.03125 4.921875 -1.640625q1.0625 -0.953125 0.515625 -2.03125q-0.234375 -0.46875 -0.796875 -0.359375q-0.5 0.109375 -1.296875 0.984375q-0.8125 0.921875 -3.203125 0.9375q-1.640625 0.015625 -2.953125 -1.140625q-1.140625 -1.0 -1.203125 -2.328125zm0.265625 -1.9375q0.328125 -1.15625 0.84375 -1.796875q1.171875 -1.4375 2.78125 -1.4375q1.171875 -0.015625 2.203125 0.640625q0.890625 0.578125 1.0625 1.59375l-6.890625 1.0zm15.6171875 -11.859375q-1.046875 0 -1.078125 1.09375l-0.125 5.546875q-1.359375 0.015625 -2.703125 0.015625q-1.125 0 -1.125 1.171875q0 1.15625 1.015625 1.15625q1.375 0 2.75 0l-0.203125 9.109375q-0.03125 1.265625 1.03125 1.28125q1.265625 0.03125 1.265625 -1.25l0.203125 -9.140625q1.25 0 2.515625 0q1.359375 0 1.359375 -1.203125q0 -1.171875 -1.4375 -1.171875l-2.375 0.015625q0.078125 -2.46875 0.109375 -5.453125q0 -1.171875 -1.203125 -1.171875zm8.574219 13.796875l7.875 -1.140625q1.265625 -0.171875 1.3125 -1.609375q0.046875 -1.796875 -1.390625 -3.203125q-1.515625 -1.5 -4.234375 -1.328125q-2.59375 0.15625 -4.234375 2.515625q-1.3125 1.890625 -1.3125 4.296875q0 2.9375 2.078125 4.640625q1.6875 1.390625 3.921875 1.40625q3.046875 0.03125 4.921875 -1.640625q1.0625 -0.953125 0.515625 -2.03125q-0.234375 -0.46875 -0.796875 -0.359375q-0.5 0.109375 -1.296875 0.984375q-0.8125 0.921875 -3.203125 0.9375q-1.640625 0.015625 -2.953125 -1.140625q-1.140625 -1.0 -1.203125 -2.328125zm0.265625 -1.9375q0.328125 -1.15625 0.84375 -1.796875q1.171875 -1.4375 2.78125 -1.4375q1.171875 -0.015625 2.203125 0.640625q0.890625 0.578125 1.0625 1.59375l-6.890625 1.0zm12.7890625 -5.8125q-1.078125 0 -1.109375 1.09375l-0.265625 10.953125q-0.03125 1.265625 1.015625 1.28125q1.234375 0.03125 1.265625 -1.25l0.203125 -7.6875q1.09375 -1.09375 2.421875 -1.34375q1.359375 -0.28125 2.421875 0.4375q1.34375 0.921875 1.859375 -0.578125q0.3125 -0.953125 -1.46875 -1.84375q-1.0 -0.5 -2.5625 -0.484375q-1.28125 0.03125 -2.59375 1.015625q0 -0.21875 0 -0.421875q0 -1.171875 -1.1875 -1.171875zm13.1875 11.140625q-1.078125 -0.078125 -2.109375 -0.78125q-0.84375 -0.5625 -1.5 -0.140625q-0.53125 0.359375 -0.484375 1.125q0.046875 0.703125 0.859375 1.171875q0.921875 0.53125 1.546875 0.71875q1.03125 0.28125 2.671875 0.28125q1.953125 -0.015625 3.125 -0.8125q1.453125 -0.96875 1.640625 -2.484375q0.171875 -1.46875 -1.015625 -2.90625q-0.5 -0.609375 -1.796875 -1.203125q-0.9375 -0.4375 -2.0625 -0.5625q-1.40625 -0.15625 -1.625 -0.78125q-0.234375 -0.734375 0.34375 -1.390625q0.671875 -0.796875 2.09375 -0.875q1.328125 -0.046875 2.0 0.609375q1.359375 1.3125 2.03125 0.765625q0.546875 -0.4375 0.4375 -1.140625q-0.171875 -1.0625 -1.84375 -1.890625q-1.28125 -0.625 -3.0 -0.46875q-1.515625 0.140625 -2.6875 0.984375q-0.984375 0.703125 -1.484375 2.046875q-0.46875 1.21875 -0.1875 2.390625q0.359375 1.5 2.765625 1.84375q2.328125 0.328125 2.984375 1.03125q0.984375 1.046875 0.515625 1.78125q-0.59375 0.859375 -3.21875 0.6875z" fill-rule="nonzero"/><path fill="#000000" fill-opacity="0.0" d="m116.81875 289.59518l85.95275 0l0 48.472443l-85.95275 0z" fill-rule="evenodd"/><path fill="#3c78d8" d="m129.45937 303.7602q-1.0625 0 -1.078125 1.046875l-0.40624237 16.234375q-0.03125 1.203125 1.0312424 1.234375q0.234375 0 0.40625 -0.046875q1.09375 0.0625 3.5625 0.03125q4.1875 -0.0625 5.640625 -1.234375q3.15625 -2.53125 3.328125 -5.703125q0.265625 -4.359375 -4.296875 -8.25q-3.203125 -2.734375 -7.390625 -3.21875q-0.140625 -0.015625 -0.28125 -0.03125q-0.234375 -0.0625 -0.515625 -0.0625zm1.15625 2.75q3.109375 0.171875 5.546875 2.453125q3.609375 3.3125 3.421875 6.234375q-0.109375 1.671875 -1.703125 3.453125q-1.1875 1.3125 -5.046875 1.40625l-2.53125 -0.046875l0.3125 -13.5zm18.429688 15.78125q1.09375 -0.015625 3.515625 -1.25q0.234375 1.5625 1.703125 1.25q1.28125 -0.25 0.28125 -1.96875q-0.6875 -1.171875 -0.640625 -3.984375q0.0625 -3.53125 0.328125 -5.0q0.28125 -1.5 -1.125 -1.8125q-0.71875 -0.15625 -1.0625 0.125q-3.0625 -0.96875 -5.875 1.34375q-2.453125 2.0 -2.421875 5.671875q0.03125 5.640625 5.296875 5.625zm1.359375 -2.359375q-0.890625 0.328125 -1.90625 0.265625q-2.421875 -0.171875 -2.46875 -3.75q0.109375 -2.765625 2.203125 -4.265625q0.515625 -0.390625 1.375 -0.609375q1.25 -0.296875 2.375 0.421875q-0.53125 1.890625 -0.109375 6.9375q-1.046875 0.84375 -1.46875 1.0zm10.78125 -17.171875q-1.046875 0 -1.078125 1.09375l-0.125 5.546875q-1.359375 0.015625 -2.703125 0.015625q-1.125 0 -1.125 1.171875q0 1.15625 1.015625 1.15625q1.375 0 2.75 0l-0.203125 9.109375q-0.03125 1.265625 1.03125 1.28125q1.265625 0.03125 1.265625 -1.25l0.203125 -9.140625q1.25 0 2.515625 0q1.359375 0 1.359375 -1.203125q0 -1.171875 -1.4375 -1.171875l-2.375 0.015625q0.078125 -2.46875 0.109375 -5.453125q0 -1.171875 -1.203125 -1.171875zm11.449219 19.53125q1.09375 -0.015625 3.515625 -1.25q0.234375 1.5625 1.703125 1.25q1.28125 -0.25 0.28125 -1.96875q-0.6875 -1.171875 -0.640625 -3.984375q0.0625 -3.53125 0.328125 -5.0q0.28125 -1.5 -1.125 -1.8125q-0.71875 -0.15625 -1.0625 0.125q-3.0625 -0.96875 -5.875 1.34375q-2.453125 2.0 -2.421875 5.671875q0.03125 5.640625 5.296875 5.625zm1.359375 -2.359375q-0.890625 0.328125 -1.90625 0.265625q-2.421875 -0.171875 -2.46875 -3.75q0.109375 -2.765625 2.203125 -4.265625q0.515625 -0.390625 1.375 -0.609375q1.25 -0.296875 2.375 0.421875q-0.53125 1.890625 -0.109375 6.9375q-1.046875 0.84375 -1.46875 1.0z" fill-rule="nonzero"/><path fill="#000000" fill-opacity="0.0" d="m328.10757 109.531494l122.92914 0l0 77.5748l-122.92914 0z" fill-rule="evenodd"/><path fill="#000000" d="m347.32632 141.79025q1.0625 0.09375 1.78125 -2.046875l3.4375 -10.046875l2.0625 10.625q0.390625 2.03125 1.75 1.875q1.265625 -0.15625 0.90625 -1.828125l-3.015625 -14.656258q-0.421875 -1.96875 -1.5 -1.984375q-1.171875 -0.046875 -1.78125 1.90625l-3.5 11.453133q-2.859375 -12.046883 -2.859375 -12.046883q-0.296875 -1.265625 -1.40625 -1.09375q-1.078125 0.15625 -1.453125 1.75l-3.234375 13.796883q-0.421875 1.828125 0.6875 2.453125q1.234375 0.703125 1.640625 -1.140625l2.453125 -10.953125l2.515625 10.03125q0.4375 1.84375 1.515625 1.90625q0 0 0 0zm17.703125 -10.125q2.46875 -0.046875 2.453125 4.125q-0.015625 2.203125 -0.9375 3.203125q-0.875 0.9375 -2.15625 0.9375q-1.125 0 -1.984375 -0.9375q-0.84375 -0.921875 -0.84375 -2.75q0 -1.921875 1.171875 -3.515625q0.75 -1.03125 2.296875 -1.0625zm-0.09375 -2.390625q-2.5625 -0.015625 -4.109375 2.015625q-1.5625 2.0625 -1.5625 4.734375q0 2.828125 1.3125 4.390625q1.453125 1.71875 3.53125 1.734375q2.890625 0.015625 4.296875 -1.78125q1.25 -1.484375 1.265625 -4.34375q0 -6.71875 -4.734375 -6.75zm17.730469 -6.5781326q-1.0625 0.03125 -1.078125 1.09375l-0.171875 6.7656326q-0.453125 -0.3125 -1.0 -0.640625q-1.0625 -0.59375 -2.46875 -0.59375q-2.625 0 -4.25 2.0q-1.71875 2.125 -1.625 5.25q0.09375 2.296875 1.828125 4.03125q1.5625 1.546875 3.59375 1.5625q1.96875 0 3.703125 -1.09375q0.078125 0.984375 1.015625 1.0q1.265625 0.03125 1.28125 -1.25l0.359375 -16.953133q0.03125 -1.171875 -1.1875 -1.171875zm-1.4375 15.718758q-2.09375 1.640625 -3.734375 1.453125q-1.5625 -0.171875 -2.359375 -1.234375q-1.0 -1.296875 -0.96875 -2.625q0.046875 -2.078125 0.96875 -3.234375q0.65625 -0.8125 2.140625 -1.171875q2.015625 -0.5 4.078125 1.640625q0 2.734375 -0.125 5.171875zm6.8164062 -1.921875l7.875 -1.140625q1.265625 -0.171875 1.3125 -1.609375q0.046875 -1.796875 -1.390625 -3.203125q-1.515625 -1.5 -4.234375 -1.328125q-2.59375 0.15625 -4.234375 2.515625q-1.3125 1.890625 -1.3125 4.296875q0 2.9375 2.078125 4.640625q1.6875 1.390625 3.921875 1.40625q3.046875 0.03125 4.921875 -1.640625q1.0625 -0.953125 0.515625 -2.03125q-0.234375 -0.46875 -0.796875 -0.359375q-0.5 0.109375 -1.296875 0.984375q-0.8125 0.921875 -3.203125 0.9375q-1.640625 0.015625 -2.953125 -1.140625q-1.140625 -1.0 -1.203125 -2.328125zm0.265625 -1.9375q0.328125 -1.15625 0.84375 -1.796875q1.171875 -1.4375 2.78125 -1.4375q1.171875 -0.015625 2.203125 0.640625q0.890625 0.578125 1.0625 1.59375l-6.890625 1.0zm13.3671875 -11.859383q-1.046875 0.03125 -1.078125 1.09375l-0.390625 17.000008q-0.03125 1.265625 1.03125 1.28125q1.265625 0.03125 1.265625 -1.25l0.375 -16.953133q0.015625 -1.171875 -1.203125 -1.171875z" fill-rule="nonzero"/><path fill="#000000" d="m339.70132 152.57463q-1.0625 0 -1.09375 1.03125l-0.390625 16.0625q-0.03125 1.203125 1.03125 1.21875q1.265625 0.03125 1.28125 -1.203125l0.140625 -6.265625q0.296875 0.03125 0.640625 0.015625q4.921875 -0.265625 6.1875 -1.828125q2.125 -2.6875 0.984375 -5.671875q-1.140625 -2.9375 -5.234375 -3.359375q-1.234375 -0.109375 -3.0625 0.046875q-0.21875 -0.046875 -0.484375 -0.046875zm1.15625 2.359375q0.953125 -0.109375 1.640625 -0.109375q2.65625 -0.03125 3.609375 1.75q0.796875 1.53125 -0.203125 3.28125q-1.03125 1.78125 -5.1875 1.34375l0.140625 -6.265625zm11.6796875 2.609375q-1.078125 0 -1.109375 1.09375l-0.265625 10.953125q-0.03125 1.265625 1.015625 1.28125q1.234375 0.03125 1.265625 -1.25l0.203125 -7.6875q1.09375 -1.09375 2.421875 -1.34375q1.359375 -0.28125 2.421875 0.4375q1.34375 0.921875 1.859375 -0.578125q0.3125 -0.953125 -1.46875 -1.84375q-1.0 -0.5 -2.5625 -0.484375q-1.28125 0.03125 -2.59375 1.015625q0 -0.21875 0 -0.421875q0 -1.171875 -1.1875 -1.171875zm11.625 7.75l7.875 -1.140625q1.265625 -0.171875 1.3125 -1.609375q0.046875 -1.796875 -1.390625 -3.203125q-1.515625 -1.5 -4.234375 -1.328125q-2.59375 0.15625 -4.234375 2.515625q-1.3125 1.890625 -1.3125 4.296875q0 2.9375 2.078125 4.640625q1.6875 1.390625 3.921875 1.40625q3.046875 0.03125 4.921875 -1.640625q1.0625 -0.953125 0.515625 -2.03125q-0.234375 -0.46875 -0.796875 -0.359375q-0.5 0.109375 -1.296875 0.984375q-0.8125 0.921875 -3.203125 0.9375q-1.640625 0.015625 -2.953125 -1.140625q-1.140625 -1.0 -1.203125 -2.328125zm0.265625 -1.9375q0.328125 -1.15625 0.84375 -1.796875q1.171875 -1.4375 2.78125 -1.4375q1.171875 -0.015625 2.203125 0.640625q0.890625 0.578125 1.0625 1.59375l-6.890625 1.0zm21.601562 -11.859375q-1.0625 0.03125 -1.078125 1.09375l-0.171875 6.765625q-0.453125 -0.3125 -1.0 -0.640625q-1.0625 -0.59375 -2.46875 -0.59375q-2.625 0 -4.25 2.0q-1.71875 2.125 -1.625 5.25q0.09375 2.296875 1.828125 4.03125q1.5625 1.546875 3.59375 1.5625q1.96875 0 3.703125 -1.09375q0.078125 0.984375 1.015625 1.0q1.265625 0.03125 1.28125 -1.25l0.359375 -16.953125q0.03125 -1.171875 -1.1875 -1.171875zm-1.4375 15.71875q-2.09375 1.640625 -3.734375 1.453125q-1.5625 -0.171875 -2.359375 -1.234375q-1.0 -1.296875 -0.96875 -2.625q0.046875 -2.078125 0.96875 -3.234375q0.65625 -0.8125 2.140625 -1.171875q2.015625 -0.5 4.078125 1.640625q0 2.734375 -0.125 5.171875zm7.3632812 -9.109375q-1.1875 -0.03125 -1.21875 1.53125l-0.203125 9.828125q-0.03125 1.484375 1.21875 1.5q1.109375 0 1.125 -1.59375l0.171875 -9.75q0.015625 -1.5 -1.09375 -1.515625zm0.078125 -5.328125q-0.390625 0 -0.71875 0.203125q-0.3125 0.21875 -0.515625 0.5625q-0.1875 0.328125 -0.1875 0.703125q0 0.390625 0.203125 0.734375q0.203125 0.328125 0.515625 0.515625q0.3125 0.1875 0.671875 0.203125q0.03125 0 0.0625 0q0.375 0.015625 0.65625 -0.140625q0.28125 -0.125 0.515625 -0.4375q0.265625 -0.34375 0.296875 -0.765625q0 -0.0625 0 -0.109375q0 -0.375 -0.15625 -0.6875q-0.1875 -0.375 -0.5625 -0.578125q-0.328125 -0.203125 -0.734375 -0.203125q-0.015625 0 -0.046875 0zm12.5703125 15.125q-1.375 0.9375 -2.96875 0.875q-1.546875 -0.0625 -2.421875 -1.21875q-0.9375 -1.296875 -0.90625 -2.875q0.03125 -1.65625 0.921875 -2.953125q0.78125 -1.125 1.765625 -1.421875q1.734375 -0.5625 3.09375 0.46875q1.140625 0.84375 1.6875 0.4375q0.796875 -0.578125 0.09375 -1.703125q-0.46875 -0.71875 -1.890625 -1.203125q-1.15625 -0.375 -2.546875 -0.265625q-2.390625 0.171875 -3.9375 2.40625q-1.28125 1.84375 -1.28125 4.734375q0 2.609375 1.796875 4.34375q1.4375 1.390625 3.625 1.40625q2.765625 0.015625 4.046875 -1.09375q1.0 -0.875 0.609375 -1.53125q-0.65625 -1.109375 -1.6875 -0.40625zm8.59375 -16.40625q-1.046875 0 -1.078125 1.09375l-0.125 5.546875q-1.359375 0.015625 -2.703125 0.015625q-1.125 0 -1.125 1.171875q0 1.15625 1.015625 1.15625q1.375 0 2.75 0l-0.203125 9.109375q-0.03125 1.265625 1.03125 1.28125q1.265625 0.03125 1.265625 -1.25l0.203125 -9.140625q1.25 0 2.515625 0q1.359375 0 1.359375 -1.203125q0 -1.171875 -1.4375 -1.171875l-2.375 0.015625q0.078125 -2.46875 0.109375 -5.453125q0 -1.171875 -1.203125 -1.171875z" fill-rule="nonzero"/><path fill="#000000" fill-opacity="0.0" d="m194.35957 152.60104c36.907913 0 73.7198 2.5931702 110.6277 2.5931702" fill-rule="evenodd"/><path stroke="#000000" stroke-width="3.0" stroke-linejoin="round" stroke-linecap="butt" d="m194.35957 152.60104c18.453949 0 36.88391 0.6483002 55.313858 1.2966003c9.214966 0.3241272 18.429932 0.6482849 27.647919 0.89138794c4.6089783 0.12155151 9.2187195 0.22285461 13.829559 0.2937622c1.1527405 0.017715454 2.3055115 0.033554077 3.458374 0.047317505l0.09692383 9.765625E-4" fill-rule="evenodd"/><path fill="#000000" stroke="#000000" stroke-width="3.0" stroke-linecap="butt" d="m294.7062 155.13109l-3.3944092 3.3529816l9.289856 -3.3167725l-9.248413 -3.430603z" fill-rule="evenodd"/><path fill="#000000" fill-opacity="0.0" d="m565.32184 127.290855l182.83466 0l0 48.472435l-182.83466 0z" fill-rule="evenodd"/><path fill="#3c78d8" d="m576.9156 141.53398q-1.0625 0 -1.09375 1.03125l-0.390625 16.0625q-0.03125 1.203125 1.03125 1.21875q1.265625 0.03125 1.28125 -1.203125l0.140625 -6.265625q0.296875 0.03125 0.640625 0.015625q4.921875 -0.265625 6.1875 -1.828125q2.125 -2.6875 0.984375 -5.671875q-1.140625 -2.9375 -5.234375 -3.359375q-1.234375 -0.109375 -3.0625 0.046875q-0.21875 -0.046875 -0.484375 -0.046875zm1.15625 2.359375q0.953125 -0.109375 1.640625 -0.109375q2.65625 -0.03125 3.609375 1.75q0.796875 1.53125 -0.203125 3.28125q-1.03125 1.78125 -5.1875 1.34375l0.140625 -6.265625zm11.6796875 2.609375q-1.078125 0 -1.109375 1.09375l-0.265625 10.953125q-0.03125 1.265625 1.015625 1.28125q1.234375 0.03125 1.265625 -1.25l0.203125 -7.6875q1.09375 -1.09375 2.421875 -1.34375q1.359375 -0.28125 2.421875 0.4375q1.34375 0.921875 1.859375 -0.578125q0.3125 -0.953125 -1.46875 -1.84375q-1.0 -0.5 -2.5625 -0.484375q-1.28125 0.03125 -2.59375 1.015625q0 -0.21875 0 -0.421875q0 -1.171875 -1.1875 -1.171875zm11.625 7.75l7.875 -1.140625q1.265625 -0.171875 1.3125 -1.609375q0.046875 -1.796875 -1.390625 -3.203125q-1.515625 -1.5 -4.234375 -1.328125q-2.59375 0.15625 -4.234375 2.515625q-1.3125 1.890625 -1.3125 4.296875q0 2.9375 2.078125 4.640625q1.6875 1.390625 3.921875 1.40625q3.046875 0.03125 4.921875 -1.640625q1.0625 -0.953125 0.515625 -2.03125q-0.234375 -0.46875 -0.796875 -0.359375q-0.5 0.109375 -1.296875 0.984375q-0.8125 0.921875 -3.203125 0.9375q-1.640625 0.015625 -2.953125 -1.140625q-1.140625 -1.0 -1.203125 -2.328125zm0.265625 -1.9375q0.328125 -1.15625 0.84375 -1.796875q1.171875 -1.4375 2.78125 -1.4375q1.171875 -0.015625 2.203125 0.640625q0.890625 0.578125 1.0625 1.59375l-6.890625 1.0zm21.601562 -11.859375q-1.0625 0.03125 -1.078125 1.09375l-0.171875 6.765625q-0.453125 -0.3125 -1.0 -0.640625q-1.0625 -0.59375 -2.46875 -0.59375q-2.625 0 -4.25 2.0q-1.71875 2.125 -1.625 5.25q0.09375 2.296875 1.828125 4.03125q1.5625 1.546875 3.59375 1.5625q1.96875 0 3.703125 -1.09375q0.078125 0.984375 1.015625 1.0q1.265625 0.03125 1.28125 -1.25l0.359375 -16.953125q0.03125 -1.171875 -1.1875 -1.171875zm-1.4375 15.71875q-2.09375 1.640625 -3.734375 1.453125q-1.5625 -0.171875 -2.359375 -1.234375q-1.0 -1.296875 -0.96875 -2.625q0.046875 -2.078125 0.96875 -3.234375q0.65625 -0.8125 2.140625 -1.171875q2.015625 -0.5 4.078125 1.640625q0 2.734375 -0.125 5.171875zm7.3632812 -9.109375q-1.1875 -0.03125 -1.21875 1.53125l-0.203125 9.828125q-0.03125 1.484375 1.21875 1.5q1.109375 0 1.125 -1.59375l0.171875 -9.75q0.015625 -1.5 -1.09375 -1.515625zm0.078125 -5.328125q-0.390625 0 -0.71875 0.203125q-0.3125 0.21875 -0.515625 0.5625q-0.1875 0.328125 -0.1875 0.703125q0 0.390625 0.203125 0.734375q0.203125 0.328125 0.515625 0.515625q0.3125 0.1875 0.671875 0.203125q0.03125 0 0.0625 0q0.375 0.015625 0.65625 -0.140625q0.28125 -0.125 0.515625 -0.4375q0.265625 -0.34375 0.296875 -0.765625q0 -0.0625 0 -0.109375q0 -0.375 -0.15625 -0.6875q-0.1875 -0.375 -0.5625 -0.578125q-0.328125 -0.203125 -0.734375 -0.203125q-0.015625 0 -0.046875 0zm12.5703125 15.125q-1.375 0.9375 -2.96875 0.875q-1.546875 -0.0625 -2.421875 -1.21875q-0.9375 -1.296875 -0.90625 -2.875q0.03125 -1.65625 0.921875 -2.953125q0.78125 -1.125 1.765625 -1.421875q1.734375 -0.5625 3.09375 0.46875q1.140625 0.84375 1.6875 0.4375q0.796875 -0.578125 0.09375 -1.703125q-0.46875 -0.71875 -1.890625 -1.203125q-1.15625 -0.375 -2.546875 -0.265625q-2.390625 0.171875 -3.9375 2.40625q-1.28125 1.84375 -1.28125 4.734375q0 2.609375 1.796875 4.34375q1.4375 1.390625 3.625 1.40625q2.765625 0.015625 4.046875 -1.09375q1.0 -0.875 0.609375 -1.53125q-0.65625 -1.109375 -1.6875 -0.40625zm8.59375 -16.40625q-1.046875 0 -1.078125 1.09375l-0.125 5.546875q-1.359375 0.015625 -2.703125 0.015625q-1.125 0 -1.125 1.171875q0 1.15625 1.015625 1.15625q1.375 0 2.75 0l-0.203125 9.109375q-0.03125 1.265625 1.03125 1.28125q1.265625 0.03125 1.265625 -1.25l0.203125 -9.140625q1.25 0 2.515625 0q1.359375 0 1.359375 -1.203125q0 -1.171875 -1.4375 -1.171875l-2.375 0.015625q0.078125 -2.46875 0.109375 -5.453125q0 -1.171875 -1.203125 -1.171875zm9.121094 6.609375q-1.1875 -0.03125 -1.21875 1.53125l-0.203125 9.828125q-0.03125 1.484375 1.21875 1.5q1.109375 0 1.125 -1.59375l0.171875 -9.75q0.015625 -1.5 -1.09375 -1.515625zm0.078125 -5.328125q-0.390625 0 -0.71875 0.203125q-0.3125 0.21875 -0.515625 0.5625q-0.1875 0.328125 -0.1875 0.703125q0 0.390625 0.203125 0.734375q0.203125 0.328125 0.515625 0.515625q0.3125 0.1875 0.671875 0.203125q0.03125 0 0.0625 0q0.375 0.015625 0.65625 -0.140625q0.28125 -0.125 0.515625 -0.4375q0.265625 -0.34375 0.296875 -0.765625q0 -0.0625 0 -0.109375q0 -0.375 -0.15625 -0.6875q-0.1875 -0.375 -0.5625 -0.578125q-0.328125 -0.203125 -0.734375 -0.203125q-0.015625 0 -0.046875 0zm9.8046875 7.6875q2.46875 -0.046875 2.453125 4.125q-0.015625 2.203125 -0.9375 3.203125q-0.875 0.9375 -2.15625 0.9375q-1.125 0 -1.984375 -0.9375q-0.84375 -0.921875 -0.84375 -2.75q0 -1.921875 1.171875 -3.515625q0.75 -1.03125 2.296875 -1.0625zm-0.09375 -2.390625q-2.5625 -0.015625 -4.109375 2.015625q-1.5625 2.0625 -1.5625 4.734375q0 2.828125 1.3125 4.390625q1.453125 1.71875 3.53125 1.734375q2.890625 0.015625 4.296875 -1.78125q1.25 -1.484375 1.265625 -4.34375q0 -6.71875 -4.734375 -6.75zm8.917969 -0.53125q-1.078125 0 -1.109375 1.09375l-0.265625 10.90625q-0.03125 1.25 1.015625 1.28125q1.25 0.015625 1.296875 -1.265625l0.1875 -7.09375q1.859375 -1.859375 3.484375 -1.734375q1.9375 0.140625 1.859375 3.375l-0.140625 5.546875q-0.046875 1.421875 1.234375 1.3125q1.109375 -0.09375 1.125 -1.515625l0.09375 -5.859375q0.078125 -5.34375 -4.34375 -5.34375q-2.0 0 -3.265625 1.15625q0 -0.359375 0.015625 -0.6875q0.03125 -1.171875 -1.1875 -1.171875z" fill-rule="nonzero"/><path fill="#000000" fill-opacity="0.0" d="m451.03674 152.95276c36.90793 0 73.71979 2.593155 110.627686 2.593155" fill-rule="evenodd"/><path stroke="#000000" stroke-width="3.0" stroke-linejoin="round" stroke-linecap="butt" d="m451.03674 152.95276c18.45398 0 36.88391 0.6482849 55.313843 1.2965851c9.214966 0.32414246 18.429993 0.6482849 27.64795 0.89138794c4.6089478 0.12156677 9.218689 0.22285461 13.82959 0.2937622c1.15271 0.017730713 2.305481 0.033554077 3.458313 0.047332764l0.09692383 9.765625E-4" fill-rule="evenodd"/><path fill="#000000" stroke="#000000" stroke-width="3.0" stroke-linecap="butt" d="m551.38336 155.4828l-3.3943481 3.3529663l9.289795 -3.3167725l-9.248413 -3.430603z" fill-rule="evenodd"/><path fill="#000000" fill-opacity="0.0" d="m113.09943 14.37891l240.09448 0l0 40.409447l-240.09448 0z" fill-rule="evenodd"/><path fill="#cc0000" d="m131.44318 39.847034l0 0l0 0q1.109375 -0.59375 0.125 -1.5l-3.796875 -3.546875q1.53125 -0.359375 2.078125 -0.96875q1.65625 -1.84375 0.765625 -4.125q-0.890625 -2.234375 -3.9375 -2.453125q-1.0625 -0.09375 -2.0625 0q-0.140625 -0.03125 -0.34375 -0.03125q-0.765625 0 -0.78125 0.75l-0.296875 11.625q-0.015625 0.875 0.75 0.890625q0.921875 0.015625 0.9375 -0.859375l0.09375 -4.53125q0.21875 0.03125 0.46875 0.015625q0.140625 -0.015625 0.28125 -0.015625l4.171875 4.140625q0.9375 0.9375 1.546875 0.609375zm-6.328125 -10.96875q0.59375 0 1.1875 0.015625q1.984375 0.03125 2.65625 1.15625q0.703125 1.1875 -0.15625 2.4375q-0.90625 1.328125 -3.796875 1.015625l0.109375 -4.625zm10.061188 7.484375l5.6875 -0.828125q0.90625 -0.125 0.9375 -1.171875q0.046875 -1.296875 -1.0 -2.3125q-1.09375 -1.078125 -3.046875 -0.953125q-1.875 0.109375 -3.0625 1.8125q-0.953125 1.359375 -0.953125 3.109375q0 2.109375 1.515625 3.34375q1.203125 1.0 2.8125 1.015625q2.203125 0.015625 3.5625 -1.1875q0.765625 -0.671875 0.375 -1.46875q-0.171875 -0.328125 -0.578125 -0.25q-0.359375 0.078125 -0.9375 0.703125q-0.59375 0.671875 -2.3125 0.6875q-1.1875 0 -2.140625 -0.828125q-0.8125 -0.71875 -0.859375 -1.671875zm0.1875 -1.40625q0.234375 -0.828125 0.609375 -1.296875q0.84375 -1.046875 2.015625 -1.046875q0.84375 0 1.578125 0.46875q0.640625 0.421875 0.78125 1.15625l-4.984375 0.71875zm9.64949 -8.5625q-0.75 0.015625 -0.765625 0.796875l-0.296875 12.265625q-0.015625 0.90625 0.75 0.921875q0.90625 0.015625 0.921875 -0.90625l0.265625 -12.234375q0.015625 -0.84375 -0.875 -0.84375zm4.402878 9.96875l5.6875 -0.828125q0.90625 -0.125 0.9375 -1.171875q0.046875 -1.296875 -1.0 -2.3125q-1.09375 -1.078125 -3.046875 -0.953125q-1.875 0.109375 -3.0625 1.8125q-0.953125 1.359375 -0.953125 3.109375q0 2.109375 1.515625 3.34375q1.203125 1.0 2.8125 1.015625q2.203125 0.015625 3.5625 -1.1875q0.765625 -0.671875 0.375 -1.46875q-0.171875 -0.328125 -0.578125 -0.25q-0.359375 0.078125 -0.9375 0.703125q-0.59375 0.671875 -2.3125 0.6875q-1.1875 0 -2.140625 -0.828125q-0.8125 -0.71875 -0.859375 -1.671875zm0.1875 -1.40625q0.234375 -0.828125 0.609375 -1.296875q0.84375 -1.046875 2.015625 -1.046875q0.84375 0 1.578125 0.46875q0.640625 0.421875 0.78125 1.15625l-4.984375 0.71875zm8.11824 -3.78125q-0.71875 0.296875 -0.3125 1.359375l2.671875 6.9375q0.359375 0.921875 1.015625 0.921875q0.65625 0 1.0 -0.921875l2.671875 -6.9375q0.40625 -1.0625 -0.3125 -1.359375q-0.84375 -0.359375 -1.234375 0.71875l-2.140625 5.921875l-2.125 -5.921875q-0.390625 -1.078125 -1.234375 -0.71875zm11.69278 9.3125q0.78125 0 2.53125 -0.890625q0.171875 1.109375 1.234375 0.890625q0.921875 -0.1875 0.203125 -1.421875q-0.5 -0.84375 -0.453125 -2.875q0.03125 -2.546875 0.234375 -3.59375q0.1875 -1.09375 -0.828125 -1.3125q-0.515625 -0.125 -0.75 0.09375q-2.21875 -0.703125 -4.25 0.953125q-1.765625 1.453125 -1.75 4.09375q0.03125 4.078125 3.828125 4.0625zm0.984375 -1.703125q-0.640625 0.25 -1.390625 0.1875q-1.75 -0.109375 -1.765625 -2.703125q0.078125 -1.984375 1.578125 -3.078125q0.375 -0.28125 1.0 -0.4375q0.890625 -0.21875 1.71875 0.296875q-0.390625 1.375 -0.09375 5.015625q-0.75 0.609375 -1.046875 0.71875zm5.7265015 -8.015625q-0.765625 0 -0.796875 0.78125l-0.1875 7.875q-0.03125 0.890625 0.734375 0.921875q0.90625 0.015625 0.9375 -0.90625l0.125 -5.125q1.34375 -1.34375 2.53125 -1.265625q1.390625 0.109375 1.328125 2.4375l-0.09375 4.015625q-0.03125 1.015625 0.890625 0.9375q0.796875 -0.0625 0.8125 -1.09375l0.078125 -4.234375q0.046875 -3.84375 -3.140625 -3.84375q-1.4375 0 -2.359375 0.828125q0 -0.25 0.015625 -0.5q0.015625 -0.828125 -0.875 -0.828125zm11.117065 -4.375q-0.75 0 -0.765625 0.796875l-0.09375 4.0q-0.984375 0 -1.953125 0q-0.8125 0 -0.8125 0.859375q0 0.828125 0.734375 0.828125q0.984375 0 1.984375 0l-0.15625 6.578125q-0.015625 0.90625 0.75 0.921875q0.90625 0.015625 0.921875 -0.90625l0.140625 -6.59375q0.90625 0 1.8125 0q0.984375 0 0.984375 -0.859375q0 -0.859375 -1.03125 -0.84375l-1.71875 0q0.0625 -1.78125 0.078125 -3.9375q0 -0.84375 -0.875 -0.84375zm13.343002 0q-0.75 0 -0.765625 0.796875l-0.09375 4.0q-0.984375 0 -1.953125 0q-0.8125 0 -0.8125 0.859375q0 0.828125 0.734375 0.828125q0.984375 0 1.984375 0l-0.15625 6.578125q-0.015625 0.90625 0.75 0.921875q0.90625 0.015625 0.921875 -0.90625l0.140625 -6.59375q0.90625 0 1.8125 0q0.984375 0 0.984375 -0.859375q0 -0.859375 -1.03125 -0.84375l-1.71875 0q0.0625 -1.78125 0.078125 -3.9375q0 -0.84375 -0.875 -0.84375zm8.867996 6.46875q1.78125 -0.03125 1.78125 2.984375q-0.015625 1.59375 -0.6875 2.3125q-0.625 0.671875 -1.546875 0.671875q-0.8125 0 -1.4375 -0.671875q-0.609375 -0.65625 -0.609375 -1.984375q0 -1.390625 0.84375 -2.53125q0.546875 -0.75 1.65625 -0.78125zm-0.078125 -1.71875q-1.84375 -0.015625 -2.953125 1.453125q-1.140625 1.484375 -1.140625 3.421875q0 2.03125 0.953125 3.15625q1.046875 1.25 2.5625 1.265625q2.078125 0.015625 3.09375 -1.28125q0.90625 -1.078125 0.90625 -3.140625q0.015625 -4.84375 -3.421875 -4.875zm11.337509 -3.765625q-1.140625 0 -1.140625 0.796875q0 0.953125 1.0625 0.953125l2.0 0l-0.234375 9.5l-1.8125 0q-1.140625 -0.015625 -1.140625 0.796875q0 0.953125 1.078125 0.953125l6.1875 0q1.109375 0 1.09375 -0.84375q-0.015625 -0.90625 -1.046875 -0.90625l-2.703125 0l0.234375 -9.5l2.53125 0q1.109375 0 1.09375 -0.84375q-0.015625 -0.90625 -1.03125 -0.90625l-6.171875 0zm9.749115 3.390625q-0.765625 0 -0.796875 0.78125l-0.1875 7.875q-0.03125 0.890625 0.734375 0.921875q0.90625 0.015625 0.9375 -0.90625l0.125 -5.125q1.34375 -1.34375 2.53125 -1.265625q1.390625 0.109375 1.328125 2.4375l-0.09375 4.015625q-0.03125 1.015625 0.890625 0.9375q0.796875 -0.0625 0.8125 -1.09375l0.078125 -4.234375q0.046875 -3.84375 -3.140625 -3.84375q-1.4375 0 -2.359375 0.828125q0 -0.25 0.015625 -0.5q0.015625 -0.828125 -0.875 -0.828125zm15.44519 -4.375q-0.765625 0.015625 -0.78125 0.796875l-0.125 4.875q-0.328125 -0.234375 -0.71875 -0.453125q-0.765625 -0.4375 -1.78125 -0.4375q-1.890625 0 -3.078125 1.453125q-1.234375 1.53125 -1.15625 3.78125q0.0625 1.65625 1.3125 2.921875q1.125 1.109375 2.59375 1.109375q1.421875 0.015625 2.671875 -0.78125q0.0625 0.703125 0.734375 0.71875q0.90625 0.015625 0.921875 -0.90625l0.265625 -12.234375q0.015625 -0.84375 -0.859375 -0.84375zm-1.03125 11.34375q-1.515625 1.1875 -2.703125 1.046875q-1.125 -0.125 -1.703125 -0.875q-0.71875 -0.9375 -0.703125 -1.90625q0.03125 -1.5 0.703125 -2.34375q0.46875 -0.578125 1.53125 -0.84375q1.46875 -0.359375 2.953125 1.203125q0 1.96875 -0.078125 3.71875zm10.006714 2.921875q0.75 0 0.78125 -0.78125l0.203125 -7.90625q0.015625 -0.90625 -0.75 -0.9375q-0.90625 0 -0.921875 0.921875l-0.109375 4.265625q-0.03125 1.390625 -1.140625 1.953125q-1.21875 0.609375 -2.09375 0.015625q-0.640625 -0.453125 -0.625 -2.5l0.015625 -3.6875q0.015625 -1.015625 -0.875 -0.9375q-0.796875 0.0625 -0.8125 1.078125l-0.046875 4.15625q-0.03125 3.859375 3.15625 3.859375q1.4375 0 2.359375 -0.828125l-0.015625 0.5q-0.015625 0.828125 0.875 0.828125zm8.589111 -2.421875q-1.0 0.671875 -2.140625 0.625q-1.125 -0.03125 -1.75 -0.875q-0.6875 -0.9375 -0.65625 -2.078125q0.015625 -1.203125 0.671875 -2.125q0.5625 -0.8125 1.265625 -1.03125q1.25 -0.40625 2.234375 0.34375q0.828125 0.59375 1.21875 0.3125q0.578125 -0.40625 0.0625 -1.21875q-0.34375 -0.53125 -1.359375 -0.875q-0.828125 -0.28125 -1.84375 -0.203125q-1.71875 0.125 -2.84375 1.75q-0.921875 1.328125 -0.921875 3.40625q0 1.890625 1.296875 3.140625q1.046875 1.0 2.625 1.015625q1.984375 0.015625 2.921875 -0.78125q0.71875 -0.640625 0.4375 -1.109375q-0.46875 -0.796875 -1.21875 -0.296875zm6.1978455 -11.84375q-0.75 0 -0.765625 0.796875l-0.09375 4.0q-0.984375 0 -1.953125 0q-0.8125 0 -0.8125 0.859375q0 0.828125 0.734375 0.828125q0.984375 0 1.984375 0l-0.15625 6.578125q-0.015625 0.90625 0.75 0.921875q0.90625 0.015625 0.921875 -0.90625l0.140625 -6.59375q0.90625 0 1.8125 0q0.984375 0 0.984375 -0.859375q0 -0.859375 -1.03125 -0.84375l-1.71875 0q0.0625 -1.78125 0.078125 -3.9375q0 -0.84375 -0.875 -0.84375zm6.586731 4.765625q-0.859375 -0.015625 -0.875 1.109375l-0.140625 7.09375q-0.03125 1.078125 0.875 1.078125q0.796875 0 0.8125 -1.140625l0.125 -7.046875q0.015625 -1.078125 -0.796875 -1.09375zm0.0625 -3.828125q-0.28125 0 -0.53125 0.140625q-0.21875 0.15625 -0.359375 0.40625q-0.140625 0.234375 -0.140625 0.5q0 0.296875 0.15625 0.53125q0.140625 0.234375 0.359375 0.375q0.234375 0.140625 0.484375 0.140625q0.03125 0 0.0625 0q0.25 0.015625 0.46875 -0.09375q0.203125 -0.09375 0.375 -0.3125q0.1875 -0.25 0.203125 -0.546875q0 -0.046875 0 -0.09375q0 -0.265625 -0.109375 -0.484375q-0.140625 -0.28125 -0.40625 -0.421875q-0.234375 -0.140625 -0.53125 -0.140625q-0.015625 0 -0.03125 0zm3.2160034 3.84375q-0.71875 0.296875 -0.3125 1.359375l2.671875 6.9375q0.359375 0.921875 1.015625 0.921875q0.65625 0 1.0 -0.921875l2.671875 -6.9375q0.40625 -1.0625 -0.3125 -1.359375q-0.84375 -0.359375 -1.234375 0.71875l-2.140625 5.921875l-2.125 -5.921875q-0.390625 -1.078125 -1.234375 -0.71875zm9.614655 5.1875l5.6875 -0.828125q0.90625 -0.125 0.9375 -1.171875q0.046875 -1.296875 -1.0 -2.3125q-1.09375 -1.078125 -3.046875 -0.953125q-1.875 0.109375 -3.0625 1.8125q-0.953125 1.359375 -0.953125 3.109375q0 2.109375 1.515625 3.34375q1.203125 1.0 2.8125 1.015625q2.203125 0.015625 3.5625 -1.1875q0.765625 -0.671875 0.375 -1.46875q-0.171875 -0.328125 -0.578125 -0.25q-0.359375 0.078125 -0.9375 0.703125q-0.59375 0.671875 -2.3125 0.6875q-1.1875 0 -2.140625 -0.828125q-0.8125 -0.71875 -0.859375 -1.671875zm0.1875 -1.40625q0.234375 -0.828125 0.609375 -1.296875q0.84375 -1.046875 2.015625 -1.046875q0.84375 0 1.578125 0.46875q0.640625 0.421875 0.78125 1.15625l-4.984375 0.71875zm15.858856 -6.203125q0.59375 0.015625 1.1875 0.03125q1.96875 0.0625 2.59375 1.28125q0.515625 1.03125 -0.296875 2.265625q-0.71875 1.0625 -3.59375 0.75l0.109375 -4.328125zm-0.84375 -1.65625q-0.765625 0 -0.78125 0.78125l-0.28125 11.78125q-0.015625 0.90625 0.734375 0.921875q0.09375 0 0.15625 -0.015625q2.21875 0.21875 4.53125 -0.359375q2.234375 -0.546875 2.78125 -1.96875q0.890625 -2.40625 -1.328125 -4.0625q-0.234375 -0.171875 -0.8125 -0.34375q0.265625 -0.171875 0.4375 -0.375q1.5625 -1.78125 0.890625 -3.703125q-0.78125 -2.25 -3.921875 -2.546875q-1.609375 -0.15625 -2.046875 -0.078125q-0.15625 -0.03125 -0.359375 -0.03125zm0.703125 7.65625q0.765625 -0.078125 2.015625 0.03125q1.34375 0.125 2.109375 0.640625q1.0 0.671875 0.8125 1.71875q-0.15625 0.875 -1.34375 1.296875q-1.0625 0.390625 -2.0 0.5q-0.8125 0.09375 -1.6875 0.03125l0.09375 -4.21875zm10.079407 -3.59375q-0.859375 -0.015625 -0.875 1.109375l-0.140625 7.09375q-0.03125 1.078125 0.875 1.078125q0.796875 0 0.8125 -1.140625l0.125 -7.046875q0.015625 -1.078125 -0.796875 -1.09375zm0.0625 -3.828125q-0.28125 0 -0.53125 0.140625q-0.21875 0.15625 -0.359375 0.40625q-0.140625 0.234375 -0.140625 0.5q0 0.296875 0.15625 0.53125q0.140625 0.234375 0.359375 0.375q0.234375 0.140625 0.484375 0.140625q0.03125 0 0.0625 0q0.25 0.015625 0.46875 -0.09375q0.203125 -0.09375 0.375 -0.3125q0.1875 -0.25 0.203125 -0.546875q0 -0.046875 0 -0.09375q0 -0.265625 -0.109375 -0.484375q-0.140625 -0.28125 -0.40625 -0.421875q-0.234375 -0.140625 -0.53125 -0.140625q-0.015625 0 -0.03125 0zm6.4816284 13.15625q0.78125 0 2.53125 -0.890625q0.171875 1.109375 1.234375 0.890625q0.921875 -0.1875 0.203125 -1.421875q-0.5 -0.84375 -0.453125 -2.875q0.03125 -2.546875 0.234375 -3.59375q0.1875 -1.09375 -0.828125 -1.3125q-0.515625 -0.125 -0.75 0.09375q-2.21875 -0.703125 -4.25 0.953125q-1.765625 1.453125 -1.75 4.09375q0.03125 4.078125 3.828125 4.0625zm0.984375 -1.703125q-0.640625 0.25 -1.390625 0.1875q-1.75 -0.109375 -1.765625 -2.703125q0.078125 -1.984375 1.578125 -3.078125q0.375 -0.28125 1.0 -0.4375q0.890625 -0.21875 1.71875 0.296875q-0.390625 1.375 -0.09375 5.015625q-0.75 0.609375 -1.046875 0.71875zm6.9296265 0.015625q-0.78125 -0.046875 -1.515625 -0.5625q-0.609375 -0.40625 -1.09375 -0.09375q-0.375 0.25 -0.34375 0.8125q0.03125 0.5 0.625 0.84375q0.65625 0.375 1.109375 0.5q0.75 0.21875 1.9375 0.203125q1.40625 0 2.25 -0.5625q1.046875 -0.703125 1.1875 -1.796875q0.125 -1.0625 -0.734375 -2.109375q-0.359375 -0.4375 -1.296875 -0.859375q-0.6875 -0.328125 -1.484375 -0.40625q-1.03125 -0.109375 -1.171875 -0.578125q-0.171875 -0.515625 0.234375 -1.0q0.5 -0.578125 1.515625 -0.625q0.953125 -0.03125 1.453125 0.4375q0.984375 0.953125 1.46875 0.546875q0.375 -0.3125 0.3125 -0.8125q-0.125 -0.78125 -1.328125 -1.359375q-0.9375 -0.46875 -2.171875 -0.359375q-1.09375 0.109375 -1.9375 0.71875q-0.71875 0.5 -1.078125 1.484375q-0.34375 0.875 -0.140625 1.71875q0.265625 1.078125 2.0 1.34375q1.671875 0.21875 2.15625 0.734375q0.703125 0.765625 0.375 1.296875q-0.421875 0.609375 -2.328125 0.484375z" fill-rule="nonzero"/><path fill="#000000" fill-opacity="0.0" d="m192.09973 287.99738c39.00052 -36.409897 78.495636 -72.95853 122.868774 -102.5853" fill-rule="evenodd"/><path stroke="#000000" stroke-width="3.0" stroke-linejoin="round" stroke-linecap="butt" d="m192.09973 287.99738c19.50026 -18.204956 39.12416 -36.444595 59.419662 -53.836334c10.147751 -8.695862 20.463394 -17.179764 31.015396 -25.34137c5.276001 -4.0808105 10.6111145 -8.081024 16.013885 -11.986893c1.3506775 -0.9764557 2.705597 -1.9470367 4.0648804 -2.9114838c0.679657 -0.48223877 1.3603821 -0.96292114 2.0422363 -1.4420624l1.8198853 -1.272644" fill-rule="evenodd"/><path fill="#000000" stroke="#000000" stroke-width="3.0" stroke-linecap="butt" d="m306.47568 191.20659l-0.885437 4.688324l5.7554626 -8.011063l-9.55835 2.4373016z" fill-rule="evenodd"/></g></svg>