<svg version="1.1" viewBox="0.0 0.0 717.8425196850394 361.0734908136483" fill="none" stroke="none" stroke-linecap="square" stroke-miterlimit="10" xmlns:xlink="http://www.w3.org/1999/xlink" xmlns="http://www.w3.org/2000/svg"><clipPath id="p.0"><path d="m0 0l717.8425 0l0 361.0735l-717.8425 0l0 -361.0735z" clip-rule="nonzero"/></clipPath><g clip-path="url(#p.0)"><path fill="#ffffff" d="m0 0l717.8425 0l0 361.0735l-717.8425 0z" fill-rule="evenodd"/><path fill="#000000" fill-opacity="0.0" d="m304.9895 150.5328l0 0c0 -39.57316 32.693787 -71.65354 73.02362 -71.65354l0 0c19.367065 0 37.940918 7.5491943 51.635498 20.98684c13.69458 13.437645 21.388123 31.66301 21.388123 50.666702l0 0c0 39.573166 -32.693787 71.65355 -73.02362 71.65355l0 0c-40.329834 0 -73.02362 -32.080383 -73.02362 -71.65355z" fill-rule="evenodd"/><path stroke="#000000" stroke-width="3.0" stroke-linejoin="round" stroke-linecap="butt" d="m304.9895 150.5328l0 0c0 -39.57316 32.693787 -71.65354 73.02362 -71.65354l0 0c19.367065 0 37.940918 7.5491943 51.635498 20.98684c13.69458 13.437645 21.388123 31.66301 21.388123 50.666702l0 0c0 39.573166 -32.693787 71.65355 -73.02362 71.65355l0 0c-40.329834 0 -73.02362 -32.080383 -73.02362 -71.65355z" fill-rule="evenodd"/><path fill="#000000" d="m357.0413 145.21593q0.9375 0.0625 1.59375 -1.828125l3.046875 -8.921875l1.828125 9.4375q0.359375 1.8125 1.546875 1.65625q1.125 -0.125 0.8125 -1.625l-2.6875 -13.015625q-0.359375 -1.75 -1.3125 -1.765625q-1.0625 -0.03125 -1.59375 1.703125l-3.109375 10.171875q-2.53125 -10.703125 -2.53125 -10.703125q-0.28125 -1.125 -1.25 -0.96875q-0.96875 0.140625 -1.296875 1.546875l-2.875 12.265625q-0.375 1.625 0.609375 2.171875q1.09375 0.625 1.453125 -1.0l2.1875 -9.75l2.234375 8.921875q0.390625 1.640625 1.34375 1.703125q0 0 0 0zm15.734985 -9.0q2.1875 -0.046875 2.1875 3.65625q-0.015625 1.96875 -0.84375 2.84375q-0.78125 0.84375 -1.90625 0.84375q-1.0 0 -1.78125 -0.84375q-0.75 -0.8125 -0.75 -2.4375q0 -1.703125 1.046875 -3.125q0.671875 -0.90625 2.046875 -0.9375zm-0.09375 -2.125q-2.265625 -0.015625 -3.640625 1.78125q-1.390625 1.84375 -1.390625 4.21875q0 2.5 1.15625 3.890625q1.296875 1.53125 3.15625 1.546875q2.5625 0.015625 3.8125 -1.578125q1.109375 -1.328125 1.125 -3.859375q0 -5.96875 -4.21875 -6.0zm15.762878 -5.84375q-0.9375 0.015625 -0.953125 0.96875l-0.15625 6.0q-0.40625 -0.28125 -0.890625 -0.5625q-0.9375 -0.515625 -2.1875 -0.515625q-2.328125 0 -3.78125 1.765625q-1.53125 1.890625 -1.4375 4.65625q0.078125 2.0625 1.625 3.59375q1.390625 1.375 3.1875 1.375q1.75 0.015625 3.296875 -0.96875q0.0625 0.875 0.90625 0.90625q1.109375 0.015625 1.125 -1.125l0.328125 -15.0625q0.015625 -1.03125 -1.0625 -1.03125zm-1.265625 13.96875q-1.875 1.453125 -3.328125 1.28125q-1.390625 -0.15625 -2.09375 -1.09375q-0.890625 -1.15625 -0.859375 -2.34375q0.03125 -1.84375 0.859375 -2.875q0.578125 -0.71875 1.890625 -1.03125q1.796875 -0.4375 3.640625 1.46875q0 2.421875 -0.109375 4.59375zm6.0594482 -1.71875l7.0 -1.0q1.109375 -0.15625 1.140625 -1.4375q0.0625 -1.59375 -1.21875 -2.84375q-1.359375 -1.328125 -3.765625 -1.1875q-2.3125 0.140625 -3.765625 2.234375q-1.171875 1.671875 -1.171875 3.828125q0 2.59375 1.859375 4.125q1.484375 1.21875 3.484375 1.25q2.703125 0.015625 4.375 -1.46875q0.9375 -0.84375 0.453125 -1.8125q-0.21875 -0.40625 -0.703125 -0.3125q-0.453125 0.09375 -1.15625 0.875q-0.71875 0.8125 -2.84375 0.84375q-1.46875 0 -2.625 -1.03125q-1.015625 -0.875 -1.0625 -2.0625zm0.21875 -1.71875q0.296875 -1.03125 0.75 -1.59375q1.046875 -1.28125 2.484375 -1.28125q1.03125 -0.015625 1.953125 0.5625q0.78125 0.515625 0.9375 1.421875l-6.125 0.890625zm11.887787 -10.53125q-0.9375 0.015625 -0.953125 0.96875l-0.359375 15.109375q-0.015625 1.109375 0.921875 1.140625q1.125 0.015625 1.125 -1.125l0.328125 -15.0625q0.015625 -1.03125 -1.0625 -1.03125z" fill-rule="nonzero"/><path fill="#000000" d="m344.0376 155.2003q-0.9375 0 -0.96875 0.921875l-0.34375 14.265625q-0.03125 1.0625 0.90625 1.078125q1.125 0.03125 1.15625 -1.0625l0.125 -5.5625q0.25 0.03125 0.5625 0q4.375 -0.234375 5.5 -1.625q1.890625 -2.375 0.875 -5.03125q-1.015625 -2.609375 -4.65625 -2.984375q-1.09375 -0.09375 -2.71875 0.046875q-0.1875 -0.046875 -0.4375 -0.046875zm1.03125 2.09375q0.84375 -0.09375 1.46875 -0.09375q2.34375 -0.03125 3.203125 1.5625q0.703125 1.359375 -0.1875 2.90625q-0.921875 1.578125 -4.609375 1.203125l0.125 -5.578125zm10.382721 2.328125q-0.96875 0 -0.984375 0.96875l-0.234375 9.734375q-0.03125 1.109375 0.90625 1.140625q1.09375 0.015625 1.125 -1.125l0.171875 -6.828125q0.984375 -0.96875 2.15625 -1.203125q1.203125 -0.234375 2.140625 0.40625q1.203125 0.8125 1.65625 -0.53125q0.28125 -0.84375 -1.296875 -1.625q-0.890625 -0.453125 -2.28125 -0.421875q-1.140625 0.015625 -2.296875 0.890625q0 -0.1875 0 -0.375q0 -1.03125 -1.0625 -1.03125zm10.341248 6.875l7.0 -1.0q1.109375 -0.15625 1.140625 -1.4375q0.0625 -1.59375 -1.21875 -2.84375q-1.359375 -1.328125 -3.765625 -1.1875q-2.3125 0.140625 -3.765625 2.234375q-1.171875 1.671875 -1.171875 3.828125q0 2.59375 1.859375 4.125q1.484375 1.21875 3.484375 1.25q2.703125 0.015625 4.375 -1.46875q0.9375 -0.84375 0.453125 -1.8125q-0.21875 -0.40625 -0.703125 -0.3125q-0.453125 0.09375 -1.15625 0.875q-0.71875 0.8125 -2.84375 0.84375q-1.46875 0 -2.625 -1.03125q-1.015625 -0.875 -1.0625 -2.0625zm0.21875 -1.71875q0.296875 -1.03125 0.75 -1.59375q1.046875 -1.28125 2.484375 -1.28125q1.03125 -0.015625 1.953125 0.5625q0.78125 0.515625 0.9375 1.421875l-6.125 0.890625zm19.200256 -10.53125q-0.9375 0.015625 -0.953125 0.96875l-0.15625 6.0q-0.40625 -0.28125 -0.890625 -0.5625q-0.9375 -0.515625 -2.1875 -0.515625q-2.328125 0 -3.78125 1.765625q-1.53125 1.890625 -1.4375 4.65625q0.078125 2.0625 1.625 3.59375q1.390625 1.375 3.1875 1.375q1.75 0.015625 3.296875 -0.96875q0.0625 0.875 0.90625 0.90625q1.109375 0.015625 1.125 -1.125l0.328125 -15.0625q0.015625 -1.03125 -1.0625 -1.03125zm-1.265625 13.96875q-1.875 1.453125 -3.328125 1.28125q-1.390625 -0.15625 -2.09375 -1.09375q-0.890625 -1.15625 -0.859375 -2.34375q0.03125 -1.84375 0.859375 -2.875q0.578125 -0.71875 1.890625 -1.03125q1.796875 -0.4375 3.640625 1.46875q0 2.421875 -0.109375 4.59375zm6.5281982 -8.109375q-1.046875 -0.015625 -1.078125 1.359375l-0.171875 8.75q-0.03125 1.3125 1.078125 1.3125q0.984375 0 1.0 -1.40625l0.140625 -8.65625q0.03125 -1.328125 -0.96875 -1.359375zm0.078125 -4.71875q-0.359375 0 -0.640625 0.1875q-0.28125 0.1875 -0.453125 0.484375q-0.171875 0.296875 -0.171875 0.625q0 0.359375 0.1875 0.65625q0.171875 0.296875 0.453125 0.46875q0.265625 0.15625 0.59375 0.171875q0.03125 0 0.0625 0q0.328125 0.015625 0.578125 -0.125q0.25 -0.109375 0.46875 -0.390625q0.21875 -0.296875 0.25 -0.671875q0 -0.046875 0 -0.109375q0 -0.3125 -0.140625 -0.59375q-0.171875 -0.34375 -0.484375 -0.53125q-0.3125 -0.171875 -0.65625 -0.171875q-0.03125 0 -0.046875 0zm11.180847 13.421875q-1.234375 0.84375 -2.65625 0.78125q-1.375 -0.046875 -2.140625 -1.078125q-0.84375 -1.15625 -0.8125 -2.546875q0.03125 -1.484375 0.828125 -2.625q0.6875 -1.0 1.5625 -1.28125q1.53125 -0.484375 2.75 0.421875q1.015625 0.75 1.5 0.390625q0.71875 -0.5 0.078125 -1.5q-0.421875 -0.65625 -1.671875 -1.078125q-1.03125 -0.328125 -2.265625 -0.234375q-2.125 0.15625 -3.5 2.140625q-1.140625 1.640625 -1.140625 4.203125q0 2.3125 1.59375 3.859375q1.28125 1.234375 3.21875 1.25q2.46875 0.015625 3.609375 -0.96875q0.890625 -0.78125 0.546875 -1.359375q-0.59375 -0.984375 -1.5 -0.375zm7.627533 -14.5625q-0.9375 0 -0.953125 0.96875l-0.125 4.921875q-1.203125 0.015625 -2.40625 0.015625q-0.984375 0 -0.984375 1.046875q0 1.015625 0.890625 1.015625q1.21875 0 2.453125 0l-0.1875 8.109375q-0.015625 1.109375 0.921875 1.140625q1.125 0.015625 1.125 -1.125l0.1875 -8.125q1.109375 0 2.21875 0q1.21875 0 1.21875 -1.0625q0 -1.046875 -1.28125 -1.03125l-2.109375 0.015625q0.078125 -2.203125 0.09375 -4.859375q0 -1.03125 -1.0625 -1.03125z" fill-rule="nonzero"/><path fill="#000000" fill-opacity="0.0" d="m40.25197 125.50419l0 0c0 -6.917473 5.6077156 -12.525185 12.525185 -12.525185l129.05988 0c3.3218842 0 6.507721 1.3196106 8.856644 3.668541c2.3489227 2.3489304 3.6685333 5.5347595 3.6685333 8.856644l0 50.099236c0 6.917465 -5.607712 12.525192 -12.525177 12.525192l-129.05988 0c-6.917469 0 -12.525185 -5.607727 -12.525185 -12.525192z" fill-rule="evenodd"/><path stroke="#3c78d8" stroke-width="3.0" stroke-linejoin="round" stroke-linecap="butt" d="m40.25197 125.50419l0 0c0 -6.917473 5.6077156 -12.525185 12.525185 -12.525185l129.05988 0c3.3218842 0 6.507721 1.3196106 8.856644 3.668541c2.3489227 2.3489304 3.6685333 5.5347595 3.6685333 8.856644l0 50.099236c0 6.917465 -5.607712 12.525192 -12.525177 12.525192l-129.05988 0c-6.917469 0 -12.525185 -5.607727 -12.525185 -12.525192z" fill-rule="evenodd"/><path fill="#3c78d8" d="m62.70639 142.2213q-0.9375 0 -0.96875 0.921875l-0.34375 14.265625q-0.03125 1.0625 0.90625 1.078125q1.125 0.03125 1.15625 -1.0625l0.125 -5.5625q0.25 0.03125 0.5625 0q4.375 -0.234375 5.5 -1.625q1.890625 -2.375 0.875 -5.03125q-1.015625 -2.609375 -4.65625 -2.984375q-1.09375 -0.09375 -2.71875 0.046875q-0.1875 -0.046875 -0.4375 -0.046875zm1.03125 2.09375q0.84375 -0.09375 1.46875 -0.09375q2.34375 -0.03125 3.203125 1.5625q0.703125 1.359375 -0.1875 2.90625q-0.921875 1.578125 -4.609375 1.203125l0.125 -5.578125zm13.023331 14.296875q0.96875 0 3.125 -1.09375q0.203125 1.375 1.515625 1.09375q1.125 -0.21875 0.25 -1.75q-0.609375 -1.03125 -0.5625 -3.53125q0.046875 -3.140625 0.28125 -4.4375q0.25 -1.34375 -1.0 -1.609375q-0.640625 -0.15625 -0.9375 0.109375q-2.734375 -0.859375 -5.234375 1.1875q-2.171875 1.78125 -2.140625 5.03125q0.03125 5.015625 4.703125 5.0zm1.203125 -2.09375q-0.78125 0.296875 -1.6875 0.234375q-2.15625 -0.140625 -2.1875 -3.328125q0.09375 -2.453125 1.9375 -3.796875q0.46875 -0.34375 1.234375 -0.53125q1.109375 -0.265625 2.109375 0.359375q-0.46875 1.6875 -0.09375 6.171875q-0.9375 0.765625 -1.3125 0.890625zm7.0702515 -9.875q-0.96875 0 -0.984375 0.96875l-0.234375 9.734375q-0.03125 1.109375 0.90625 1.140625q1.09375 0.015625 1.125 -1.125l0.171875 -6.828125q0.984375 -0.96875 2.15625 -1.203125q1.203125 -0.234375 2.140625 0.40625q1.203125 0.8125 1.65625 -0.53125q0.28125 -0.84375 -1.296875 -1.625q-0.890625 -0.453125 -2.28125 -0.421875q-1.140625 0.015625 -2.296875 0.890625q0 -0.1875 0 -0.375q0 -1.03125 -1.0625 -1.03125zm12.888123 11.96875q0.96875 0 3.125 -1.09375q0.203125 1.375 1.515625 1.09375q1.125 -0.21875 0.25 -1.75q-0.609375 -1.03125 -0.5625 -3.53125q0.046875 -3.140625 0.28125 -4.4375q0.25 -1.34375 -1.0 -1.609375q-0.640625 -0.15625 -0.9375 0.109375q-2.734375 -0.859375 -5.234375 1.1875q-2.171875 1.78125 -2.140625 5.03125q0.03125 5.015625 4.703125 5.0zm1.203125 -2.09375q-0.78125 0.296875 -1.6875 0.234375q-2.15625 -0.140625 -2.1875 -3.328125q0.09375 -2.453125 1.9375 -3.796875q0.46875 -0.34375 1.234375 -0.53125q1.109375 -0.265625 2.109375 0.359375q-0.46875 1.6875 -0.09375 6.171875q-0.9375 0.765625 -1.3125 0.890625zm6.8827515 -9.875q-0.96875 0 -0.984375 0.96875l-0.234375 9.65625q-0.03125 1.109375 0.90625 1.125q1.078125 0.03125 1.109375 -1.109375l0.171875 -5.765625q0.5625 -2.15625 2.375 -2.09375q1.59375 0.046875 1.53125 3.015625l-0.09375 4.78125q-0.03125 1.25 1.03125 1.15625q0.96875 -0.078125 1.0 -1.34375l0.125 -5.21875q0.015625 -0.609375 0.046875 -0.640625q0.6875 -1.78125 2.59375 -1.734375q1.640625 0.046875 1.59375 3.125l-0.0625 4.796875q-0.015625 1.265625 1.109375 1.15625q0.984375 -0.078125 1.0 -1.34375l0.078125 -5.171875q0.078125 -4.734375 -3.875 -4.75q-2.125 0 -3.1875 1.53125q-0.765625 -1.546875 -2.921875 -1.53125q-1.34375 0.015625 -2.265625 0.84375l0.015625 -0.421875q0.015625 -1.03125 -1.0625 -1.03125zm16.850128 6.875l7.0 -1.0q1.109375 -0.15625 1.140625 -1.4375q0.0625 -1.59375 -1.21875 -2.84375q-1.359375 -1.328125 -3.765625 -1.1875q-2.3125 0.140625 -3.765625 2.234375q-1.171875 1.671875 -1.171875 3.828125q0 2.59375 1.859375 4.125q1.484375 1.21875 3.484375 1.25q2.703125 0.015625 4.375 -1.46875q0.9375 -0.84375 0.453125 -1.8125q-0.21875 -0.40625 -0.703125 -0.3125q-0.453125 0.09375 -1.15625 0.875q-0.71875 0.8125 -2.84375 0.84375q-1.46875 0 -2.625 -1.03125q-1.015625 -0.875 -1.0625 -2.0625zm0.21875 -1.71875q0.296875 -1.03125 0.75 -1.59375q1.046875 -1.28125 2.484375 -1.28125q1.03125 -0.015625 1.953125 0.5625q0.78125 0.515625 0.9375 1.421875l-6.125 0.890625zm13.887772 -10.53125q-0.9375 0 -0.953125 0.96875l-0.125 4.921875q-1.203125 0.015625 -2.40625 0.015625q-0.984375 0 -0.984375 1.046875q0 1.015625 0.890625 1.015625q1.21875 0 2.453125 0l-0.1875 8.109375q-0.015625 1.109375 0.921875 1.140625q1.125 0.015625 1.125 -1.125l0.1875 -8.125q1.109375 0 2.21875 0q1.21875 0 1.21875 -1.0625q0 -1.046875 -1.28125 -1.03125l-2.109375 0.015625q0.078125 -2.203125 0.09375 -4.859375q0 -1.03125 -1.0625 -1.03125zm7.627762 12.25l7.0 -1.0q1.109375 -0.15625 1.140625 -1.4375q0.0625 -1.59375 -1.21875 -2.84375q-1.359375 -1.328125 -3.765625 -1.1875q-2.3125 0.140625 -3.765625 2.234375q-1.171875 1.671875 -1.171875 3.828125q0 2.59375 1.859375 4.125q1.484375 1.21875 3.484375 1.25q2.703125 0.015625 4.375 -1.46875q0.9375 -0.84375 0.453125 -1.8125q-0.21875 -0.40625 -0.703125 -0.3125q-0.453125 0.09375 -1.15625 0.875q-0.71875 0.8125 -2.84375 0.84375q-1.46875 0 -2.625 -1.03125q-1.015625 -0.875 -1.0625 -2.0625zm0.21875 -1.71875q0.296875 -1.03125 0.75 -1.59375q1.046875 -1.28125 2.484375 -1.28125q1.03125 -0.015625 1.953125 0.5625q0.78125 0.515625 0.9375 1.421875l-6.125 0.890625zm11.372147 -5.15625q-0.96875 0 -0.984375 0.96875l-0.234375 9.734375q-0.03125 1.109375 0.90625 1.140625q1.09375 0.015625 1.125 -1.125l0.171875 -6.828125q0.984375 -0.96875 2.15625 -1.203125q1.203125 -0.234375 2.140625 0.40625q1.203125 0.8125 1.65625 -0.53125q0.28125 -0.84375 -1.296875 -1.625q-0.890625 -0.453125 -2.28125 -0.421875q-1.140625 0.015625 -2.296875 0.890625q0 -0.1875 0 -0.375q0 -1.03125 -1.0625 -1.03125zm11.716248 9.890625q-0.953125 -0.0625 -1.875 -0.6875q-0.75 -0.515625 -1.328125 -0.125q-0.484375 0.3125 -0.4375 1.0q0.046875 0.625 0.765625 1.046875q0.8125 0.46875 1.375 0.625q0.921875 0.25 2.375 0.25q1.734375 -0.015625 2.78125 -0.71875q1.28125 -0.859375 1.453125 -2.203125q0.15625 -1.3125 -0.890625 -2.578125q-0.453125 -0.546875 -1.59375 -1.078125q-0.84375 -0.390625 -1.84375 -0.5q-1.25 -0.140625 -1.4375 -0.703125q-0.21875 -0.640625 0.296875 -1.234375q0.609375 -0.703125 1.859375 -0.765625q1.1875 -0.046875 1.78125 0.53125q1.21875 1.171875 1.8125 0.6875q0.46875 -0.390625 0.375 -1.015625q-0.140625 -0.953125 -1.625 -1.671875q-1.15625 -0.5625 -2.671875 -0.421875q-1.359375 0.125 -2.390625 0.859375q-0.875 0.625 -1.3125 1.828125q-0.421875 1.078125 -0.171875 2.125q0.328125 1.328125 2.453125 1.640625q2.0625 0.28125 2.65625 0.90625q0.875 0.9375 0.453125 1.59375q-0.515625 0.765625 -2.859375 0.609375z" fill-rule="nonzero"/><path fill="#000000" fill-opacity="0.0" d="m561.66406 125.48319l0 0c0 -6.917473 5.607727 -12.525185 12.5252075 -12.525185l114.414185 0c3.3218994 0 6.5077515 1.3196106 8.856628 3.668541c2.348938 2.3489227 3.668579 5.5347595 3.668579 8.856644l0 50.099236c0 6.917465 -5.607727 12.525177 -12.5252075 12.525177l-114.414185 0l0 0c-6.9174805 0 -12.5252075 -5.607712 -12.5252075 -12.525177z" fill-rule="evenodd"/><path stroke="#3c78d8" stroke-width="3.0" stroke-linejoin="round" stroke-linecap="butt" d="m561.66406 125.48319l0 0c0 -6.917473 5.607727 -12.525185 12.5252075 -12.525185l114.414185 0c3.3218994 0 6.5077515 1.3196106 8.856628 3.668541c2.348938 2.3489227 3.668579 5.5347595 3.668579 8.856644l0 50.099236c0 6.917465 -5.607727 12.525177 -12.5252075 12.525177l-114.414185 0l0 0c-6.9174805 0 -12.5252075 -5.607712 -12.5252075 -12.525177z" fill-rule="evenodd"/><path fill="#3c78d8" d="m583.242 142.2003q-0.9375 0 -0.96875 0.921875l-0.34375 14.265625q-0.03125 1.0625 0.90625 1.078125q1.125 0.03125 1.15625 -1.0625l0.125 -5.5625q0.25 0.03125 0.5625 0q4.375 -0.234375 5.5 -1.625q1.890625 -2.375 0.875 -5.03125q-1.015625 -2.609375 -4.65625 -2.984375q-1.09375 -0.09375 -2.71875 0.046875q-0.1875 -0.046875 -0.4375 -0.046875zm1.03125 2.09375q0.84375 -0.09375 1.46875 -0.09375q2.34375 -0.03125 3.203125 1.5625q0.703125 1.359375 -0.1875 2.90625q-0.921875 1.578125 -4.609375 1.203125l0.125 -5.578125zm10.38269 2.328125q-0.96875 0 -0.984375 0.96875l-0.234375 9.734375q-0.03125 1.109375 0.90625 1.140625q1.09375 0.015625 1.125 -1.125l0.171875 -6.828125q0.984375 -0.96875 2.15625 -1.203125q1.203125 -0.234375 2.140625 0.40625q1.203125 0.8125 1.65625 -0.53125q0.28125 -0.84375 -1.296875 -1.625q-0.890625 -0.453125 -2.28125 -0.421875q-1.140625 0.015625 -2.296875 0.890625q0 -0.1875 0 -0.375q0 -1.03125 -1.0625 -1.03125zm10.341248 6.875l7.0 -1.0q1.109375 -0.15625 1.140625 -1.4375q0.0625 -1.59375 -1.21875 -2.84375q-1.359375 -1.328125 -3.765625 -1.1875q-2.3125 0.140625 -3.765625 2.234375q-1.171875 1.671875 -1.171875 3.828125q0 2.59375 1.859375 4.125q1.484375 1.21875 3.484375 1.25q2.703125 0.015625 4.375 -1.46875q0.9375 -0.84375 0.453125 -1.8125q-0.21875 -0.40625 -0.703125 -0.3125q-0.453125 0.09375 -1.15625 0.875q-0.71875 0.8125 -2.84375 0.84375q-1.46875 0 -2.625 -1.03125q-1.015625 -0.875 -1.0625 -2.0625zm0.21875 -1.71875q0.296875 -1.03125 0.75 -1.59375q1.046875 -1.28125 2.484375 -1.28125q1.03125 -0.015625 1.953125 0.5625q0.78125 0.515625 0.9375 1.421875l-6.125 0.890625zm19.200317 -10.53125q-0.9375 0.015625 -0.953125 0.96875l-0.15625 6.0q-0.40625 -0.28125 -0.890625 -0.5625q-0.9375 -0.515625 -2.1875 -0.515625q-2.328125 0 -3.78125 1.765625q-1.53125 1.890625 -1.4375 4.65625q0.078125 2.0625 1.625 3.59375q1.390625 1.375 3.1875 1.375q1.75 0.015625 3.296875 -0.96875q0.0625 0.875 0.90625 0.90625q1.109375 0.015625 1.125 -1.125l0.328125 -15.0625q0.015625 -1.03125 -1.0625 -1.03125zm-1.265625 13.96875q-1.875 1.453125 -3.328125 1.28125q-1.390625 -0.15625 -2.09375 -1.09375q-0.890625 -1.15625 -0.859375 -2.34375q0.03125 -1.84375 0.859375 -2.875q0.578125 -0.71875 1.890625 -1.03125q1.796875 -0.4375 3.640625 1.46875q0 2.421875 -0.109375 4.59375zm6.5281982 -8.109375q-1.046875 -0.015625 -1.078125 1.359375l-0.171875 8.75q-0.03125 1.3125 1.078125 1.3125q0.984375 0 1.0 -1.40625l0.140625 -8.65625q0.03125 -1.328125 -0.96875 -1.359375zm0.078125 -4.71875q-0.359375 0 -0.640625 0.1875q-0.28125 0.1875 -0.453125 0.484375q-0.171875 0.296875 -0.171875 0.625q0 0.359375 0.1875 0.65625q0.171875 0.296875 0.453125 0.46875q0.265625 0.15625 0.59375 0.171875q0.03125 0 0.0625 0q0.328125 0.015625 0.578125 -0.125q0.25 -0.109375 0.46875 -0.390625q0.21875 -0.296875 0.25 -0.671875q0 -0.046875 0 -0.109375q0 -0.3125 -0.140625 -0.59375q-0.171875 -0.34375 -0.484375 -0.53125q-0.3125 -0.171875 -0.65625 -0.171875q-0.03125 0 -0.046875 0zm11.180786 13.421875q-1.234375 0.84375 -2.65625 0.78125q-1.375 -0.046875 -2.140625 -1.078125q-0.84375 -1.15625 -0.8125 -2.546875q0.03125 -1.484375 0.828125 -2.625q0.6875 -1.0 1.5625 -1.28125q1.53125 -0.484375 2.75 0.421875q1.015625 0.75 1.5 0.390625q0.71875 -0.5 0.078125 -1.5q-0.421875 -0.65625 -1.671875 -1.078125q-1.03125 -0.328125 -2.265625 -0.234375q-2.125 0.15625 -3.5 2.140625q-1.140625 1.640625 -1.140625 4.203125q0 2.3125 1.59375 3.859375q1.28125 1.234375 3.21875 1.25q2.46875 0.015625 3.609375 -0.96875q0.890625 -0.78125 0.546875 -1.359375q-0.59375 -0.984375 -1.5 -0.375zm7.6275635 -14.5625q-0.9375 0 -0.953125 0.96875l-0.125 4.921875q-1.203125 0.015625 -2.40625 0.015625q-0.984375 0 -0.984375 1.046875q0 1.015625 0.890625 1.015625q1.21875 0 2.453125 0l-0.1875 8.109375q-0.015625 1.109375 0.921875 1.140625q1.125 0.015625 1.125 -1.125l0.1875 -8.125q1.109375 0 2.21875 0q1.21875 0 1.21875 -1.0625q0 -1.046875 -1.28125 -1.03125l-2.109375 0.015625q0.078125 -2.203125 0.09375 -4.859375q0 -1.03125 -1.0625 -1.03125zm8.096497 5.859375q-1.046875 -0.015625 -1.078125 1.359375l-0.171875 8.75q-0.03125 1.3125 1.078125 1.3125q0.984375 0 1.0 -1.40625l0.140625 -8.65625q0.03125 -1.328125 -0.96875 -1.359375zm0.078125 -4.71875q-0.359375 0 -0.640625 0.1875q-0.28125 0.1875 -0.453125 0.484375q-0.171875 0.296875 -0.171875 0.625q0 0.359375 0.1875 0.65625q0.171875 0.296875 0.453125 0.46875q0.265625 0.15625 0.59375 0.171875q0.03125 0 0.0625 0q0.328125 0.015625 0.578125 -0.125q0.25 -0.109375 0.46875 -0.390625q0.21875 -0.296875 0.25 -0.671875q0 -0.046875 0 -0.109375q0 -0.3125 -0.140625 -0.59375q-0.171875 -0.34375 -0.484375 -0.53125q-0.3125 -0.171875 -0.65625 -0.171875q-0.03125 0 -0.046875 0zm8.712097 6.828125q2.1875 -0.046875 2.1875 3.65625q-0.015625 1.96875 -0.84375 2.84375q-0.78125 0.84375 -1.90625 0.84375q-1.0 0 -1.78125 -0.84375q-0.75 -0.8125 -0.75 -2.4375q0 -1.703125 1.046875 -3.125q0.671875 -0.90625 2.046875 -0.9375zm-0.09375 -2.125q-2.265625 -0.015625 -3.640625 1.78125q-1.390625 1.84375 -1.390625 4.21875q0 2.5 1.15625 3.890625q1.296875 1.53125 3.15625 1.546875q2.5625 0.015625 3.8125 -1.578125q1.109375 -1.328125 1.125 -3.859375q0 -5.96875 -4.21875 -6.0zm7.9347534 -0.46875q-0.96875 0 -0.984375 0.96875l-0.234375 9.6875q-0.03125 1.109375 0.90625 1.125q1.109375 0.03125 1.140625 -1.109375l0.171875 -6.296875q1.65625 -1.65625 3.09375 -1.5625q1.71875 0.125 1.65625 3.0l-0.125 4.9375q-0.03125 1.265625 1.09375 1.15625q0.984375 -0.078125 1.0 -1.34375l0.09375 -5.203125q0.0625 -4.734375 -3.875 -4.75q-1.765625 0 -2.90625 1.03125q0.015625 -0.3125 0.03125 -0.609375q0.03125 -1.03125 -1.0625 -1.03125z" fill-rule="nonzero"/><path fill="#000000" fill-opacity="0.0" d="m113.09974 295.06583l0 0c0 -5.6853027 4.608856 -10.294159 10.294167 -10.294159l60.67151 0c2.7301788 0 5.3485413 1.0845337 7.279068 3.0150757c1.930542 1.930542 3.015091 4.548889 3.015091 7.2790833l0 41.175446c0 5.6853027 -4.608856 10.294159 -10.294159 10.294159l-60.67151 0l0 0c-5.6853104 0 -10.294167 -4.608856 -10.294167 -10.294159z" fill-rule="evenodd"/><path stroke="#3c78d8" stroke-width="3.0" stroke-linejoin="round" stroke-linecap="butt" d="m113.09974 295.06583l0 0c0 -5.6853027 4.608856 -10.294159 10.294167 -10.294159l60.67151 0c2.7301788 0 5.3485413 1.0845337 7.279068 3.0150757c1.930542 1.930542 3.015091 4.548889 3.015091 7.2790833l0 41.175446c0 5.6853027 -4.608856 10.294159 -10.294159 10.294159l-60.67151 0l0 0c-5.6853104 0 -10.294167 -4.608856 -10.294167 -10.294159z" fill-rule="evenodd"/><path fill="#3c78d8" d="m133.32918 307.25854q-0.9375 0 -0.96875 0.921875l-0.34375 14.421875q-0.03125 1.078125 0.90625 1.09375q0.21875 0 0.375 -0.03125q0.96875 0.046875 3.15625 0.015625q3.71875 -0.046875 5.015625 -1.09375q2.796875 -2.25 2.953125 -5.0625q0.234375 -3.875 -3.8125 -7.328125q-2.84375 -2.4375 -6.578125 -2.859375q-0.125 -0.015625 -0.25 -0.03125q-0.203125 -0.046875 -0.453125 -0.046875zm1.03125 2.4375q2.75 0.15625 4.9375 2.1875q3.203125 2.9375 3.015625 5.53125q-0.09375 1.484375 -1.5 3.0625q-1.046875 1.171875 -4.484375 1.25l-2.25 -0.03125l0.28125 -12.0zm16.37645 14.015625q0.96875 0 3.125 -1.09375q0.203125 1.375 1.515625 1.09375q1.125 -0.21875 0.25 -1.75q-0.609375 -1.03125 -0.5625 -3.53125q0.046875 -3.140625 0.28125 -4.4375q0.25 -1.34375 -1.0 -1.609375q-0.640625 -0.15625 -0.9375 0.109375q-2.734375 -0.859375 -5.234375 1.1875q-2.171875 1.78125 -2.140625 5.03125q0.03125 5.015625 4.703125 5.0zm1.203125 -2.09375q-0.78125 0.296875 -1.6875 0.234375q-2.15625 -0.140625 -2.1875 -3.328125q0.09375 -2.453125 1.9375 -3.796875q0.46875 -0.34375 1.234375 -0.53125q1.109375 -0.265625 2.109375 0.359375q-0.46875 1.6875 -0.09375 6.171875q-0.9375 0.765625 -1.3125 0.890625zm9.585876 -15.25q-0.9375 0 -0.953125 0.96875l-0.125 4.921875q-1.203125 0.015625 -2.40625 0.015625q-0.984375 0 -0.984375 1.046875q0 1.015625 0.890625 1.015625q1.21875 0 2.453125 0l-0.1875 8.109375q-0.015625 1.109375 0.921875 1.140625q1.125 0.015625 1.125 -1.125l0.1875 -8.125q1.109375 0 2.21875 0q1.21875 0 1.21875 -1.0625q0 -1.046875 -1.28125 -1.03125l-2.109375 0.015625q0.078125 -2.203125 0.09375 -4.859375q0 -1.03125 -1.0625 -1.03125zm10.174637 17.34375q0.96875 0 3.125 -1.09375q0.203125 1.375 1.515625 1.09375q1.125 -0.21875 0.25 -1.75q-0.609375 -1.03125 -0.5625 -3.53125q0.046875 -3.140625 0.28125 -4.4375q0.25 -1.34375 -1.0 -1.609375q-0.640625 -0.15625 -0.9375 0.109375q-2.734375 -0.859375 -5.234375 1.1875q-2.171875 1.78125 -2.140625 5.03125q0.03125 5.015625 4.703125 5.0zm1.203125 -2.09375q-0.78125 0.296875 -1.6875 0.234375q-2.15625 -0.140625 -2.1875 -3.328125q0.09375 -2.453125 1.9375 -3.796875q0.46875 -0.34375 1.234375 -0.53125q1.109375 -0.265625 2.109375 0.359375q-0.46875 1.6875 -0.09375 6.171875q-0.9375 0.765625 -1.3125 0.890625z" fill-rule="nonzero"/><path fill="#000000" fill-opacity="0.0" d="m113.09943 14.37891l240.09448 0l0 40.409447l-240.09448 0z" fill-rule="evenodd"/><path fill="#cc0000" d="m131.44318 39.847034l0 0l0 0q1.109375 -0.59375 0.125 -1.5l-3.796875 -3.546875q1.53125 -0.359375 2.078125 -0.96875q1.65625 -1.84375 0.765625 -4.125q-0.890625 -2.234375 -3.9375 -2.453125q-1.0625 -0.09375 -2.0625 0q-0.140625 -0.03125 -0.34375 -0.03125q-0.765625 0 -0.78125 0.75l-0.296875 11.625q-0.015625 0.875 0.75 0.890625q0.921875 0.015625 0.9375 -0.859375l0.09375 -4.53125q0.21875 0.03125 0.46875 0.015625q0.140625 -0.015625 0.28125 -0.015625l4.171875 4.140625q0.9375 0.9375 1.546875 0.609375zm-6.328125 -10.96875q0.59375 0 1.1875 0.015625q1.984375 0.03125 2.65625 1.15625q0.703125 1.1875 -0.15625 2.4375q-0.90625 1.328125 -3.796875 1.015625l0.109375 -4.625zm10.061188 7.484375l5.6875 -0.828125q0.90625 -0.125 0.9375 -1.171875q0.046875 -1.296875 -1.0 -2.3125q-1.09375 -1.078125 -3.046875 -0.953125q-1.875 0.109375 -3.0625 1.8125q-0.953125 1.359375 -0.953125 3.109375q0 2.109375 1.515625 3.34375q1.203125 1.0 2.8125 1.015625q2.203125 0.015625 3.5625 -1.1875q0.765625 -0.671875 0.375 -1.46875q-0.171875 -0.328125 -0.578125 -0.25q-0.359375 0.078125 -0.9375 0.703125q-0.59375 0.671875 -2.3125 0.6875q-1.1875 0 -2.140625 -0.828125q-0.8125 -0.71875 -0.859375 -1.671875zm0.1875 -1.40625q0.234375 -0.828125 0.609375 -1.296875q0.84375 -1.046875 2.015625 -1.046875q0.84375 0 1.578125 0.46875q0.640625 0.421875 0.78125 1.15625l-4.984375 0.71875zm9.64949 -8.5625q-0.75 0.015625 -0.765625 0.796875l-0.296875 12.265625q-0.015625 0.90625 0.75 0.921875q0.90625 0.015625 0.921875 -0.90625l0.265625 -12.234375q0.015625 -0.84375 -0.875 -0.84375zm4.402878 9.96875l5.6875 -0.828125q0.90625 -0.125 0.9375 -1.171875q0.046875 -1.296875 -1.0 -2.3125q-1.09375 -1.078125 -3.046875 -0.953125q-1.875 0.109375 -3.0625 1.8125q-0.953125 1.359375 -0.953125 3.109375q0 2.109375 1.515625 3.34375q1.203125 1.0 2.8125 1.015625q2.203125 0.015625 3.5625 -1.1875q0.765625 -0.671875 0.375 -1.46875q-0.171875 -0.328125 -0.578125 -0.25q-0.359375 0.078125 -0.9375 0.703125q-0.59375 0.671875 -2.3125 0.6875q-1.1875 0 -2.140625 -0.828125q-0.8125 -0.71875 -0.859375 -1.671875zm0.1875 -1.40625q0.234375 -0.828125 0.609375 -1.296875q0.84375 -1.046875 2.015625 -1.046875q0.84375 0 1.578125 0.46875q0.640625 0.421875 0.78125 1.15625l-4.984375 0.71875zm8.11824 -3.78125q-0.71875 0.296875 -0.3125 1.359375l2.671875 6.9375q0.359375 0.921875 1.015625 0.921875q0.65625 0 1.0 -0.921875l2.671875 -6.9375q0.40625 -1.0625 -0.3125 -1.359375q-0.84375 -0.359375 -1.234375 0.71875l-2.140625 5.921875l-2.125 -5.921875q-0.390625 -1.078125 -1.234375 -0.71875zm11.69278 9.3125q0.78125 0 2.53125 -0.890625q0.171875 1.109375 1.234375 0.890625q0.921875 -0.1875 0.203125 -1.421875q-0.5 -0.84375 -0.453125 -2.875q0.03125 -2.546875 0.234375 -3.59375q0.1875 -1.09375 -0.828125 -1.3125q-0.515625 -0.125 -0.75 0.09375q-2.21875 -0.703125 -4.25 0.953125q-1.765625 1.453125 -1.75 4.09375q0.03125 4.078125 3.828125 4.0625zm0.984375 -1.703125q-0.640625 0.25 -1.390625 0.1875q-1.75 -0.109375 -1.765625 -2.703125q0.078125 -1.984375 1.578125 -3.078125q0.375 -0.28125 1.0 -0.4375q0.890625 -0.21875 1.71875 0.296875q-0.390625 1.375 -0.09375 5.015625q-0.75 0.609375 -1.046875 0.71875zm5.7265015 -8.015625q-0.765625 0 -0.796875 0.78125l-0.1875 7.875q-0.03125 0.890625 0.734375 0.921875q0.90625 0.015625 0.9375 -0.90625l0.125 -5.125q1.34375 -1.34375 2.53125 -1.265625q1.390625 0.109375 1.328125 2.4375l-0.09375 4.015625q-0.03125 1.015625 0.890625 0.9375q0.796875 -0.0625 0.8125 -1.09375l0.078125 -4.234375q0.046875 -3.84375 -3.140625 -3.84375q-1.4375 0 -2.359375 0.828125q0 -0.25 0.015625 -0.5q0.015625 -0.828125 -0.875 -0.828125zm11.117065 -4.375q-0.75 0 -0.765625 0.796875l-0.09375 4.0q-0.984375 0 -1.953125 0q-0.8125 0 -0.8125 0.859375q0 0.828125 0.734375 0.828125q0.984375 0 1.984375 0l-0.15625 6.578125q-0.015625 0.90625 0.75 0.921875q0.90625 0.015625 0.921875 -0.90625l0.140625 -6.59375q0.90625 0 1.8125 0q0.984375 0 0.984375 -0.859375q0 -0.859375 -1.03125 -0.84375l-1.71875 0q0.0625 -1.78125 0.078125 -3.9375q0 -0.84375 -0.875 -0.84375zm13.343002 0q-0.75 0 -0.765625 0.796875l-0.09375 4.0q-0.984375 0 -1.953125 0q-0.8125 0 -0.8125 0.859375q0 0.828125 0.734375 0.828125q0.984375 0 1.984375 0l-0.15625 6.578125q-0.015625 0.90625 0.75 0.921875q0.90625 0.015625 0.921875 -0.90625l0.140625 -6.59375q0.90625 0 1.8125 0q0.984375 0 0.984375 -0.859375q0 -0.859375 -1.03125 -0.84375l-1.71875 0q0.0625 -1.78125 0.078125 -3.9375q0 -0.84375 -0.875 -0.84375zm8.867996 6.46875q1.78125 -0.03125 1.78125 2.984375q-0.015625 1.59375 -0.6875 2.3125q-0.625 0.671875 -1.546875 0.671875q-0.8125 0 -1.4375 -0.671875q-0.609375 -0.65625 -0.609375 -1.984375q0 -1.390625 0.84375 -2.53125q0.546875 -0.75 1.65625 -0.78125zm-0.078125 -1.71875q-1.84375 -0.015625 -2.953125 1.453125q-1.140625 1.484375 -1.140625 3.421875q0 2.03125 0.953125 3.15625q1.046875 1.25 2.5625 1.265625q2.078125 0.015625 3.09375 -1.28125q0.90625 -1.078125 0.90625 -3.140625q0.015625 -4.84375 -3.421875 -4.875zm11.337509 -3.765625q-1.140625 0 -1.140625 0.796875q0 0.953125 1.0625 0.953125l2.0 0l-0.234375 9.5l-1.8125 0q-1.140625 -0.015625 -1.140625 0.796875q0 0.953125 1.078125 0.953125l6.1875 0q1.109375 0 1.09375 -0.84375q-0.015625 -0.90625 -1.046875 -0.90625l-2.703125 0l0.234375 -9.5l2.53125 0q1.109375 0 1.09375 -0.84375q-0.015625 -0.90625 -1.03125 -0.90625l-6.171875 0zm9.749115 3.390625q-0.765625 0 -0.796875 0.78125l-0.1875 7.875q-0.03125 0.890625 0.734375 0.921875q0.90625 0.015625 0.9375 -0.90625l0.125 -5.125q1.34375 -1.34375 2.53125 -1.265625q1.390625 0.109375 1.328125 2.4375l-0.09375 4.015625q-0.03125 1.015625 0.890625 0.9375q0.796875 -0.0625 0.8125 -1.09375l0.078125 -4.234375q0.046875 -3.84375 -3.140625 -3.84375q-1.4375 0 -2.359375 0.828125q0 -0.25 0.015625 -0.5q0.015625 -0.828125 -0.875 -0.828125zm15.44519 -4.375q-0.765625 0.015625 -0.78125 0.796875l-0.125 4.875q-0.328125 -0.234375 -0.71875 -0.453125q-0.765625 -0.4375 -1.78125 -0.4375q-1.890625 0 -3.078125 1.453125q-1.234375 1.53125 -1.15625 3.78125q0.0625 1.65625 1.3125 2.921875q1.125 1.109375 2.59375 1.109375q1.421875 0.015625 2.671875 -0.78125q0.0625 0.703125 0.734375 0.71875q0.90625 0.015625 0.921875 -0.90625l0.265625 -12.234375q0.015625 -0.84375 -0.859375 -0.84375zm-1.03125 11.34375q-1.515625 1.1875 -2.703125 1.046875q-1.125 -0.125 -1.703125 -0.875q-0.71875 -0.9375 -0.703125 -1.90625q0.03125 -1.5 0.703125 -2.34375q0.46875 -0.578125 1.53125 -0.84375q1.46875 -0.359375 2.953125 1.203125q0 1.96875 -0.078125 3.71875zm10.006714 2.921875q0.75 0 0.78125 -0.78125l0.203125 -7.90625q0.015625 -0.90625 -0.75 -0.9375q-0.90625 0 -0.921875 0.921875l-0.109375 4.265625q-0.03125 1.390625 -1.140625 1.953125q-1.21875 0.609375 -2.09375 0.015625q-0.640625 -0.453125 -0.625 -2.5l0.015625 -3.6875q0.015625 -1.015625 -0.875 -0.9375q-0.796875 0.0625 -0.8125 1.078125l-0.046875 4.15625q-0.03125 3.859375 3.15625 3.859375q1.4375 0 2.359375 -0.828125l-0.015625 0.5q-0.015625 0.828125 0.875 0.828125zm8.589111 -2.421875q-1.0 0.671875 -2.140625 0.625q-1.125 -0.03125 -1.75 -0.875q-0.6875 -0.9375 -0.65625 -2.078125q0.015625 -1.203125 0.671875 -2.125q0.5625 -0.8125 1.265625 -1.03125q1.25 -0.40625 2.234375 0.34375q0.828125 0.59375 1.21875 0.3125q0.578125 -0.40625 0.0625 -1.21875q-0.34375 -0.53125 -1.359375 -0.875q-0.828125 -0.28125 -1.84375 -0.203125q-1.71875 0.125 -2.84375 1.75q-0.921875 1.328125 -0.921875 3.40625q0 1.890625 1.296875 3.140625q1.046875 1.0 2.625 1.015625q1.984375 0.015625 2.921875 -0.78125q0.71875 -0.640625 0.4375 -1.109375q-0.46875 -0.796875 -1.21875 -0.296875zm6.1978455 -11.84375q-0.75 0 -0.765625 0.796875l-0.09375 4.0q-0.984375 0 -1.953125 0q-0.8125 0 -0.8125 0.859375q0 0.828125 0.734375 0.828125q0.984375 0 1.984375 0l-0.15625 6.578125q-0.015625 0.90625 0.75 0.921875q0.90625 0.015625 0.921875 -0.90625l0.140625 -6.59375q0.90625 0 1.8125 0q0.984375 0 0.984375 -0.859375q0 -0.859375 -1.03125 -0.84375l-1.71875 0q0.0625 -1.78125 0.078125 -3.9375q0 -0.84375 -0.875 -0.84375zm6.586731 4.765625q-0.859375 -0.015625 -0.875 1.109375l-0.140625 7.09375q-0.03125 1.078125 0.875 1.078125q0.796875 0 0.8125 -1.140625l0.125 -7.046875q0.015625 -1.078125 -0.796875 -1.09375zm0.0625 -3.828125q-0.28125 0 -0.53125 0.140625q-0.21875 0.15625 -0.359375 0.40625q-0.140625 0.234375 -0.140625 0.5q0 0.296875 0.15625 0.53125q0.140625 0.234375 0.359375 0.375q0.234375 0.140625 0.484375 0.140625q0.03125 0 0.0625 0q0.25 0.015625 0.46875 -0.09375q0.203125 -0.09375 0.375 -0.3125q0.1875 -0.25 0.203125 -0.546875q0 -0.046875 0 -0.09375q0 -0.265625 -0.109375 -0.484375q-0.140625 -0.28125 -0.40625 -0.421875q-0.234375 -0.140625 -0.53125 -0.140625q-0.015625 0 -0.03125 0zm3.2160034 3.84375q-0.71875 0.296875 -0.3125 1.359375l2.671875 6.9375q0.359375 0.921875 1.015625 0.921875q0.65625 0 1.0 -0.921875l2.671875 -6.9375q0.40625 -1.0625 -0.3125 -1.359375q-0.84375 -0.359375 -1.234375 0.71875l-2.140625 5.921875l-2.125 -5.921875q-0.390625 -1.078125 -1.234375 -0.71875zm9.614655 5.1875l5.6875 -0.828125q0.90625 -0.125 0.9375 -1.171875q0.046875 -1.296875 -1.0 -2.3125q-1.09375 -1.078125 -3.046875 -0.953125q-1.875 0.109375 -3.0625 1.8125q-0.953125 1.359375 -0.953125 3.109375q0 2.109375 1.515625 3.34375q1.203125 1.0 2.8125 1.015625q2.203125 0.015625 3.5625 -1.1875q0.765625 -0.671875 0.375 -1.46875q-0.171875 -0.328125 -0.578125 -0.25q-0.359375 0.078125 -0.9375 0.703125q-0.59375 0.671875 -2.3125 0.6875q-1.1875 0 -2.140625 -0.828125q-0.8125 -0.71875 -0.859375 -1.671875zm0.1875 -1.40625q0.234375 -0.828125 0.609375 -1.296875q0.84375 -1.046875 2.015625 -1.046875q0.84375 0 1.578125 0.46875q0.640625 0.421875 0.78125 1.15625l-4.984375 0.71875zm15.858856 -6.203125q0.59375 0.015625 1.1875 0.03125q1.96875 0.0625 2.59375 1.28125q0.515625 1.03125 -0.296875 2.265625q-0.71875 1.0625 -3.59375 0.75l0.109375 -4.328125zm-0.84375 -1.65625q-0.765625 0 -0.78125 0.78125l-0.28125 11.78125q-0.015625 0.90625 0.734375 0.921875q0.09375 0 0.15625 -0.015625q2.21875 0.21875 4.53125 -0.359375q2.234375 -0.546875 2.78125 -1.96875q0.890625 -2.40625 -1.328125 -4.0625q-0.234375 -0.171875 -0.8125 -0.34375q0.265625 -0.171875 0.4375 -0.375q1.5625 -1.78125 0.890625 -3.703125q-0.78125 -2.25 -3.921875 -2.546875q-1.609375 -0.15625 -2.046875 -0.078125q-0.15625 -0.03125 -0.359375 -0.03125zm0.703125 7.65625q0.765625 -0.078125 2.015625 0.03125q1.34375 0.125 2.109375 0.640625q1.0 0.671875 0.8125 1.71875q-0.15625 0.875 -1.34375 1.296875q-1.0625 0.390625 -2.0 0.5q-0.8125 0.09375 -1.6875 0.03125l0.09375 -4.21875zm10.079407 -3.59375q-0.859375 -0.015625 -0.875 1.109375l-0.140625 7.09375q-0.03125 1.078125 0.875 1.078125q0.796875 0 0.8125 -1.140625l0.125 -7.046875q0.015625 -1.078125 -0.796875 -1.09375zm0.0625 -3.828125q-0.28125 0 -0.53125 0.140625q-0.21875 0.15625 -0.359375 0.40625q-0.140625 0.234375 -0.140625 0.5q0 0.296875 0.15625 0.53125q0.140625 0.234375 0.359375 0.375q0.234375 0.140625 0.484375 0.140625q0.03125 0 0.0625 0q0.25 0.015625 0.46875 -0.09375q0.203125 -0.09375 0.375 -0.3125q0.1875 -0.25 0.203125 -0.546875q0 -0.046875 0 -0.09375q0 -0.265625 -0.109375 -0.484375q-0.140625 -0.28125 -0.40625 -0.421875q-0.234375 -0.140625 -0.53125 -0.140625q-0.015625 0 -0.03125 0zm6.4816284 13.15625q0.78125 0 2.53125 -0.890625q0.171875 1.109375 1.234375 0.890625q0.921875 -0.1875 0.203125 -1.421875q-0.5 -0.84375 -0.453125 -2.875q0.03125 -2.546875 0.234375 -3.59375q0.1875 -1.09375 -0.828125 -1.3125q-0.515625 -0.125 -0.75 0.09375q-2.21875 -0.703125 -4.25 0.953125q-1.765625 1.453125 -1.75 4.09375q0.03125 4.078125 3.828125 4.0625zm0.984375 -1.703125q-0.640625 0.25 -1.390625 0.1875q-1.75 -0.109375 -1.765625 -2.703125q0.078125 -1.984375 1.578125 -3.078125q0.375 -0.28125 1.0 -0.4375q0.890625 -0.21875 1.71875 0.296875q-0.390625 1.375 -0.09375 5.015625q-0.75 0.609375 -1.046875 0.71875zm6.9296265 0.015625q-0.78125 -0.046875 -1.515625 -0.5625q-0.609375 -0.40625 -1.09375 -0.09375q-0.375 0.25 -0.34375 0.8125q0.03125 0.5 0.625 0.84375q0.65625 0.375 1.109375 0.5q0.75 0.21875 1.9375 0.203125q1.40625 0 2.25 -0.5625q1.046875 -0.703125 1.1875 -1.796875q0.125 -1.0625 -0.734375 -2.109375q-0.359375 -0.4375 -1.296875 -0.859375q-0.6875 -0.328125 -1.484375 -0.40625q-1.03125 -0.109375 -1.171875 -0.578125q-0.171875 -0.515625 0.234375 -1.0q0.5 -0.578125 1.515625 -0.625q0.953125 -0.03125 1.453125 0.4375q0.984375 0.953125 1.46875 0.546875q0.375 -0.3125 0.3125 -0.8125q-0.125 -0.78125 -1.328125 -1.359375q-0.9375 -0.46875 -2.171875 -0.359375q-1.09375 0.109375 -1.9375 0.71875q-0.71875 0.5 -1.078125 1.484375q-0.34375 0.875 -0.140625 1.71875q0.265625 1.078125 2.0 1.34375q1.671875 0.21875 2.15625 0.734375q0.703125 0.765625 0.375 1.296875q-0.421875 0.609375 -2.328125 0.484375z" fill-rule="nonzero"/><path fill="#000000" fill-opacity="0.0" d="m192.09973 287.99738c39.00052 -36.409897 78.495636 -72.95853 122.868774 -102.5853" fill-rule="evenodd"/><path stroke="#000000" stroke-width="3.0" stroke-linejoin="round" stroke-linecap="butt" d="m192.09973 287.99738c19.50026 -18.204956 39.12416 -36.444595 59.419662 -53.836334c10.147751 -8.695862 20.463394 -17.179764 31.015396 -25.34137c5.276001 -4.0808105 10.6111145 -8.081024 16.013885 -11.986893c1.3506775 -0.9764557 2.705597 -1.9470367 4.0648804 -2.9114838c0.679657 -0.48223877 1.3603821 -0.96292114 2.0422363 -1.4420624l1.8198853 -1.272644" fill-rule="evenodd"/><path fill="#000000" stroke="#000000" stroke-width="3.0" stroke-linecap="butt" d="m306.47568 191.20659l-0.885437 4.688324l5.7554626 -8.011063l-9.55835 2.4373016z" fill-rule="evenodd"/><path fill="#000000" fill-opacity="0.0" d="m194.3622 150.5538l110.61418 -0.03149414" fill-rule="evenodd"/><path stroke="#000000" stroke-width="3.0" stroke-linejoin="round" stroke-linecap="butt" d="m194.3622 150.5538l100.33293 -0.028564453" fill-rule="evenodd"/><path fill="#000000" stroke="#000000" stroke-width="3.0" stroke-linecap="butt" d="m294.69513 150.52524l-3.3728027 3.37471l9.268341 -3.3763885l-9.270264 -3.371109z" fill-rule="evenodd"/><path fill="#000000" fill-opacity="0.0" d="m451.03674 150.5328l110.6142 0" fill-rule="evenodd"/><path stroke="#000000" stroke-width="3.0" stroke-linejoin="round" stroke-linecap="butt" d="m451.03674 150.5328l100.33295 0" fill-rule="evenodd"/><path fill="#000000" stroke="#000000" stroke-width="3.0" stroke-linecap="butt" d="m551.3696 150.5328l-3.3737183 3.3737488l9.269287 -3.3737488l-9.269287 -3.3737488z" fill-rule="evenodd"/><path fill="#000000" fill-opacity="0.0" d="m15.0874405 87.972176l0 0c0 -17.977882 14.573952 -32.551834 32.55183 -32.551834l425.76248 0c8.63327 0 16.912964 3.4295616 23.017609 9.53421c6.104645 6.1046524 9.53421 14.384338 9.53421 23.017624l0 130.20343c0 17.977875 -14.573944 32.551834 -32.55182 32.551834l-425.76248 0l0 0c-17.977879 0 -32.55183 -14.573959 -32.55183 -32.551834z" fill-rule="evenodd"/><path stroke="#cc0000" stroke-width="3.0" stroke-linejoin="round" stroke-linecap="butt" stroke-dasharray="12.0,9.0" d="m15.0874405 87.972176l0 0c0 -17.977882 14.573952 -32.551834 32.55183 -32.551834l425.76248 0c8.63327 0 16.912964 3.4295616 23.017609 9.53421c6.104645 6.1046524 9.53421 14.384338 9.53421 23.017624l0 130.20343c0 17.977875 -14.573944 32.551834 -32.55182 32.551834l-425.76248 0l0 0c-17.977879 0 -32.55183 -14.573959 -32.55183 -32.551834z" fill-rule="evenodd"/></g></svg>