<svg version="1.1" viewBox="0.0 0.0 717.8425196850394 361.0734908136483" fill="none" stroke="none" stroke-linecap="square" stroke-miterlimit="10" xmlns:xlink="http://www.w3.org/1999/xlink" xmlns="http://www.w3.org/2000/svg"><clipPath id="p.0"><path d="m0 0l717.8425 0l0 361.0735l-717.8425 0l0 -361.0735z" clip-rule="nonzero"/></clipPath><g clip-path="url(#p.0)"><path fill="#ffffff" d="m0 0l717.8425 0l0 361.0735l-717.8425 0z" fill-rule="evenodd"/><path fill="#000000" fill-opacity="0.0" d="m43.207348 125.50419l0 0c0 -6.917473 5.6077156 -12.525185 12.525185 -12.525185l126.09924 0c3.3218842 0 6.507721 1.3196106 8.856644 3.668541c2.3489227 2.3489304 3.6685333 5.5347595 3.6685333 8.856644l0 50.099236c0 6.917465 -5.607712 12.525192 -12.525177 12.525192l-126.09924 0c-6.917469 0 -12.525185 -5.607727 -12.525185 -12.525192z" fill-rule="evenodd"/><path stroke="#3c78d8" stroke-width="3.0" stroke-linejoin="round" stroke-linecap="butt" d="m43.207348 125.50419l0 0c0 -6.917473 5.6077156 -12.525185 12.525185 -12.525185l126.09924 0c3.3218842 0 6.507721 1.3196106 8.856644 3.668541c2.3489227 2.3489304 3.6685333 5.5347595 3.6685333 8.856644l0 50.099236c0 6.917465 -5.607712 12.525192 -12.525177 12.525192l-126.09924 0c-6.917469 0 -12.525185 -5.607727 -12.525185 -12.525192z" fill-rule="evenodd"/><path fill="#000000" fill-opacity="0.0" d="m15.0874405 87.972176l0 0c0 -17.977882 14.573952 -32.551834 32.55183 -32.551834l425.76248 0c8.63327 0 16.912964 3.4295616 23.017609 9.53421c6.104645 6.1046524 9.53421 14.384338 9.53421 23.017624l0 130.20343c0 17.977875 -14.573944 32.551834 -32.55182 32.551834l-425.76248 0l0 0c-17.977879 0 -32.55183 -14.573959 -32.55183 -32.551834z" fill-rule="evenodd"/><path stroke="#cc0000" stroke-width="3.0" stroke-linejoin="round" stroke-linecap="butt" stroke-dasharray="12.0,9.0" d="m15.0874405 87.972176l0 0c0 -17.977882 14.573952 -32.551834 32.55183 -32.551834l425.76248 0c8.63327 0 16.912964 3.4295616 23.017609 9.53421c6.104645 6.1046524 9.53421 14.384338 9.53421 23.017624l0 130.20343c0 17.977875 -14.573944 32.551834 -32.55182 32.551834l-425.76248 0l0 0c-17.977879 0 -32.55183 -14.573959 -32.55183 -32.551834z" fill-rule="evenodd"/><path fill="#000000" fill-opacity="0.0" d="m561.6693 129.19972l0 0c0 -6.917465 5.607727 -12.525185 12.5252075 -12.525185l114.414185 0c3.3218994 0 6.5077515 1.3196182 8.856628 3.668541c2.348938 2.3489304 3.668579 5.5347595 3.668579 8.856644l0 50.099243c0 6.917465 -5.607727 12.525177 -12.5252075 12.525177l-114.414185 0l0 0c-6.9174805 0 -12.5252075 -5.607712 -12.5252075 -12.525177z" fill-rule="evenodd"/><path stroke="#3c78d8" stroke-width="3.0" stroke-linejoin="round" stroke-linecap="butt" d="m561.6693 129.19972l0 0c0 -6.917465 5.607727 -12.525185 12.5252075 -12.525185l114.414185 0c3.3218994 0 6.5077515 1.3196182 8.856628 3.668541c2.348938 2.3489304 3.668579 5.5347595 3.668579 8.856644l0 50.099243c0 6.917465 -5.607727 12.525177 -12.5252075 12.525177l-114.414185 0l0 0c-6.9174805 0 -12.5252075 -5.607712 -12.5252075 -12.525177z" fill-rule="evenodd"/><path fill="#000000" fill-opacity="0.0" d="m113.09974 295.3652l0 0c0 -5.850586 4.7428207 -10.593384 10.593384 -10.593384l60.073067 0c2.8095398 0 5.504013 1.1160889 7.4906616 3.1027222c1.9866486 1.9866333 3.1027222 4.681122 3.1027222 7.4906616l0 42.372284c0 5.8505554 -4.742813 10.593384 -10.593384 10.593384l-60.073067 0l0 0c-5.850563 0 -10.593384 -4.7428284 -10.593384 -10.593384z" fill-rule="evenodd"/><path stroke="#3c78d8" stroke-width="3.0" stroke-linejoin="round" stroke-linecap="butt" d="m113.09974 295.3652l0 0c0 -5.850586 4.7428207 -10.593384 10.593384 -10.593384l60.073067 0c2.8095398 0 5.504013 1.1160889 7.4906616 3.1027222c1.9866486 1.9866333 3.1027222 4.681122 3.1027222 7.4906616l0 42.372284c0 5.8505554 -4.742813 10.593384 -10.593384 10.593384l-60.073067 0l0 0c-5.850563 0 -10.593384 -4.7428284 -10.593384 -10.593384z" fill-rule="evenodd"/><path fill="#000000" fill-opacity="0.0" d="m53.84035 125.06452l182.83466 0l0 51.71653l-182.83466 0z" fill-rule="evenodd"/><path fill="#3c78d8" d="m65.54348 159.0239q-0.5625 -4.1875 -0.703125 -8.578125q-0.125 -4.40625 0.25 -8.234375q0.125 0.21875 -0.109375 0.359375q-0.21875 0.125 -0.59375 0.125q-0.34375 0 -0.6250038 -0.265625q-0.265625 -0.28125 -0.265625 -0.6875l0 -0.078125q0 -0.09375 0.0625 -0.296875q0.25 -0.25 0.5312538 -0.8125q0.28125 -0.5625 0.625 -1.125q0.34375 -0.5625 0.71875 -1.078125q0.390625 -0.53125 0.828125 -0.53125q0.40625 0 0.59375 0.203125q0.203125 0.203125 0.296875 0.390625q0.09375 0.1875 0.15625 0.328125q0.078125 0.125 -0.0625 0.09375q0.625 -0.40625 1.59375 -0.75q0.984375 -0.359375 1.96875 -0.484375q1.0 -0.140625 1.953125 -0.046875q0.953125 0.09375 1.75 0.484375q0.8125 0.375 1.390625 1.109375q0.59375 0.71875 0.765625 1.859375q-0.03125 1.421875 -0.796875 2.625q-0.75 1.203125 -1.84375 2.171875q-1.09375 0.953125 -2.34375 1.6875q-1.25 0.71875 -2.28125 1.25q-1.03125 0.515625 -1.75 0.65625q-0.703125 0.140625 -0.328125 0l0 9.515625q0 0.484375 -0.34375 0.640625q-0.34375 0.140625 -0.578125 0.140625q-0.5625 0 -0.859375 -0.671875zm1.765625 -17.96875q-0.0625 0.671875 -0.1875 1.5625q-0.109375 0.890625 -0.171875 1.828125q-0.046875 0.9375 0.015625 1.8125q0.078125 0.859375 0.171875 1.125q0.734375 -0.3125 1.9375 -0.90625q1.203125 -0.609375 2.28125 -1.375q1.09375 -0.765625 1.953125 -1.65625q0.859375 -0.90625 1.25 -1.9375q0 -0.375 -0.375 -0.734375q-0.375 -0.359375 -0.96875 -0.625q-0.59375 -0.265625 -1.234375 -0.375q-0.640625 -0.109375 -1.0625 -0.109375q-0.203125 0 -0.765625 0.140625q-0.546875 0.140625 -1.15625 0.359375q-0.609375 0.203125 -1.109375 0.484375q-0.484375 0.265625 -0.578125 0.40625zm17.984283 17.5625q-0.125 -0.65625 -0.21875 -1.609375q-0.09375 -0.953125 -0.203125 -1.921875q-0.09375 -0.984375 -0.234375 -1.796875q-0.125 -0.8125 -0.015625 -0.796875q-0.96875 2.203125 -2.015625 3.78125q-1.03125 1.578125 -1.890625 2.3125q-0.859375 0.734375 -1.546875 0.703125q-0.6875 -0.03125 -1.125 -0.578125q-0.421875 -0.5625 -0.578125 -1.296875q-0.15625 -0.75 -0.203125 -1.390625q0 -0.640625 0.265625 -1.71875q0.265625 -1.078125 0.71875 -2.328125q0.453125 -1.25 1.0625 -2.546875q0.625 -1.3125 1.34375 -2.375q0.734375 -1.078125 1.5625 -1.828125q0.84375 -0.75 1.71875 -0.75q1.3125 -0.203125 1.984375 0.625q0.671875 0.828125 0.296875 2.546875q0 1.65625 0.140625 2.859375q0.140625 1.203125 0.3125 2.328125q0.171875 1.109375 0.3125 2.359375q0.140625 1.234375 0.140625 2.96875q0 0.375 -0.109375 0.765625q-0.109375 0.390625 -1.0 0.390625q-0.25 0 -0.484375 -0.25q-0.234375 -0.25 -0.234375 -0.453125zm-1.390625 -11.546875q0.015625 0.015625 -0.28125 0.234375q-0.296875 0.203125 -0.828125 0.953125q-0.515625 0.734375 -1.078125 1.8125q-0.5625 1.0625 -1.0625 2.171875q-0.484375 1.109375 -0.84375 2.09375q-0.34375 0.96875 -0.46875 1.5625q0 0.609375 0.03125 0.625q0.046875 0.015625 0.34375 -0.296875q0.3125 -0.3125 0.828125 -1.0625q0.53125 -0.765625 1.03125 -1.640625q0.5 -0.875 0.953125 -1.6875q0.453125 -0.828125 0.703125 -1.34375q0.21875 -0.515625 0.34375 -0.953125q0.125 -0.453125 0.203125 -0.859375q0.09375 -0.40625 0.109375 -0.8125q0.015625 -0.421875 0.015625 -0.796875zm4.5899353 -0.328125l0 -0.234375q0 -0.515625 0.34375 -0.6875q0.359375 -0.1875 0.71875 -0.1875q0.25 0 0.5625 0.0625q0.3125 0.0625 0.5 0.5625q0.09375 0.4375 0.171875 1.140625q0.078125 0.703125 0.1875 1.53125q0.109375 0.828125 0.21875 1.765625q0.125 0.921875 0.234375 1.734375q0.125 0.796875 0.234375 1.421875q0.125 0.625 -0.203125 0.71875q-0.390625 -2.140625 -0.15625 -4.03125q0.25 -1.890625 0.96875 -3.15625q0.71875 -1.265625 1.984375 -1.765625q1.28125 -0.5 3.109375 -0.21875q1.1875 0 1.1875 1.265625q0 0.640625 -0.625 0.8125q-0.609375 0.15625 -1.171875 0.203125q-0.5625 0.03125 -1.015625 0.078125q-0.453125 0.046875 -0.609375 0.1875q-0.84375 0.484375 -1.1875 1.484375q-0.34375 1.0 -0.5 2.453125q-0.15625 1.4375 -0.21875 3.203125q-0.0625 1.75 -0.34375 3.609375q0 0.4375 -0.359375 0.671875q-0.34375 0.21875 -0.75 0.21875q-0.40625 0 -0.78125 -0.171875q-0.359375 -0.1875 -0.625 -0.609375l-1.875 -12.0625zm18.787537 11.875q-0.125 -0.65625 -0.21875 -1.609375q-0.09375 -0.953125 -0.203125 -1.921875q-0.09375 -0.984375 -0.234375 -1.796875q-0.125 -0.8125 -0.015625 -0.796875q-0.96875 2.203125 -2.015625 3.78125q-1.03125 1.578125 -1.890625 2.3125q-0.859375 0.734375 -1.546875 0.703125q-0.6875 -0.03125 -1.125 -0.578125q-0.421875 -0.5625 -0.578125 -1.296875q-0.15625 -0.75 -0.203125 -1.390625q0 -0.640625 0.265625 -1.71875q0.265625 -1.078125 0.71875 -2.328125q0.453125 -1.25 1.0625 -2.546875q0.625 -1.3125 1.34375 -2.375q0.734375 -1.078125 1.5625 -1.828125q0.84375 -0.75 1.71875 -0.75q1.3125 -0.203125 1.984375 0.625q0.671875 0.828125 0.296875 2.546875q0 1.65625 0.140625 2.859375q0.140625 1.203125 0.3125 2.328125q0.171875 1.109375 0.3125 2.359375q0.140625 1.234375 0.140625 2.96875q0 0.375 -0.109375 0.765625q-0.109375 0.390625 -1.0 0.390625q-0.25 0 -0.484375 -0.25q-0.234375 -0.25 -0.234375 -0.453125zm-1.390625 -11.546875q0.015625 0.015625 -0.28125 0.234375q-0.296875 0.203125 -0.828125 0.953125q-0.515625 0.734375 -1.078125 1.8125q-0.5625 1.0625 -1.0625 2.171875q-0.484375 1.109375 -0.84375 2.09375q-0.34375 0.96875 -0.46875 1.5625q0 0.609375 0.03125 0.625q0.046875 0.015625 0.34375 -0.296875q0.3125 -0.3125 0.828125 -1.0625q0.53125 -0.765625 1.03125 -1.640625q0.5 -0.875 0.953125 -1.6875q0.453125 -0.828125 0.703125 -1.34375q0.21875 -0.515625 0.34375 -0.953125q0.125 -0.453125 0.203125 -0.859375q0.09375 -0.40625 0.109375 -0.8125q0.015625 -0.421875 0.015625 -0.796875zm5.6836853 12.609375q-0.125 -1.203125 -0.1875 -2.453125q-0.046875 -1.265625 -0.09375 -2.734375q-0.046875 -1.46875 -0.125 -3.046875q-0.0625 -1.59375 -0.140625 -3.015625q-0.078125 -1.421875 -0.203125 -2.578125q-0.109375 -1.15625 -0.234375 -1.890625q0 -0.84375 0.390625 -0.984375q0.40625 -0.15625 0.84375 -0.15625q0.0625 0 0.265625 0q0.203125 0 0.546875 0.078125q0.328125 1.0625 0.390625 2.328125q0.0625 1.265625 0.09375 2.71875q0.046875 1.453125 0.078125 3.015625q0.046875 1.546875 -0.21875 2.984375q-0.046875 -2.125 0.203125 -3.484375q0.265625 -1.375 0.484375 -2.21875q0.234375 -0.84375 0.453125 -1.3125q0.234375 -0.484375 0.59375 -0.671875q0.359375 -0.1875 0.703125 -0.171875q0.359375 0.015625 0.765625 0.015625q0.65625 0 1.046875 0.46875q0.390625 0.46875 0.5625 1.109375q0.1875 0.625 0.28125 1.3125q0.09375 0.6875 0.171875 1.328125q0.078125 0.625 0.15625 1.078125q0.078125 0.453125 -0.171875 0.53125q0.359375 -1.734375 0.828125 -2.96875q0.46875 -1.234375 0.8125 -1.984375q0.359375 -0.75 0.671875 -1.125q0.3125 -0.390625 0.640625 -0.484375q0.328125 -0.09375 0.53125 -0.03125q0.203125 0.0625 0.3125 0.0625q0.953125 0 1.453125 0.96875q0.421875 1.234375 0.578125 2.328125q0.171875 1.078125 0.203125 2.078125q0.03125 0.984375 0.015625 1.859375q-0.015625 0.875 0.046875 1.6875q0.0625 0.796875 0.265625 1.5625q0.21875 0.75 0.859375 1.671875q-0.375 0.734375 -0.671875 0.9375q-0.296875 0.203125 -0.796875 0.203125q-0.46875 0 -0.796875 -0.296875q-0.3125 -0.296875 -0.5 -0.671875q-0.1875 -0.390625 -0.28125 -0.734375q-0.078125 -0.359375 -0.171875 -0.671875q-0.109375 -3.75 -0.3125 -5.59375q-0.203125 -1.84375 -0.34375 -1.875q-0.125 -0.03125 -0.75 1.640625q-0.609375 1.65625 -1.640625 5.59375q-0.203125 0.34375 -0.46875 0.390625q-0.265625 0.03125 -0.46875 0.03125q-0.1875 0 -0.34375 0q-0.15625 -0.015625 -0.671875 0.03125q-0.6875 -4.171875 -1.046875 -5.515625q-0.34375 -1.359375 -0.5 -1.21875q-0.140625 0.125 -0.671875 2.46875q-0.53125 2.328125 -1.4375 6.921875l-2.0 0.484375zm16.233551 -5.90625q0.046875 0.28125 -0.25 0.34375q-0.28125 0.046875 -0.640625 0.015625q-0.359375 -0.03125 -0.71875 -0.234375q-0.359375 -0.21875 -0.359375 -0.765625q0 -0.34375 0.140625 -0.484375q0.140625 -0.140625 0.34375 -0.3125q0.515625 -0.421875 0.890625 -1.109375q0.375 -0.703125 0.703125 -1.53125q0.34374237 -0.84375 0.7343674 -1.71875q0.390625 -0.875 0.921875 -1.59375q0.53125 -0.734375 1.34375 -1.203125q0.8125 -0.46875 2.0 -0.4375q0.515625 0 1.125 0.234375q0.609375 0.234375 1.125 0.625q0.515625 0.390625 0.875 0.96875q0.375 0.5625 0.375 1.171875q0.21875 0.390625 -0.28125 0.90625q-0.484375 0.515625 -1.171875 0.984375q-0.671875 0.46875 -1.5 0.96875q-0.8125 0.484375 -1.578125 0.90625q-0.765625 0.40625 -1.3125 0.71875q-0.546875 0.296875 -0.640625 0.359375q-0.0625 0.140625 -0.140625 0.453125q-0.0625 0.3125 -0.109375 0.59375q-0.03125 0.28125 -0.046875 0.515625q-0.015625 0.234375 -0.015625 0.34375q0 0.515625 -0.046875 1.09375q-0.03125 0.578125 0.046875 1.03125q0.078125 0.453125 0.3125 0.703125q0.234375 0.234375 0.875 0.234375q0.75 0 1.421875 -0.390625q0.6875 -0.390625 1.296875 -0.984375q0.625 -0.59375 1.15625 -1.3125q0.53125 -0.71875 0.953125 -1.359375q0.4375 -0.640625 0.84375 -1.125q0.40625 -0.5 0.828125 -0.5q0.328125 0 0.796875 0.140625q0.46875 0.125 0.46875 0.78125q0 0.578125 -0.421875 1.296875q-0.40625 0.703125 -1.046875 1.453125q-0.625 0.75 -1.4375 1.484375q-0.8125 0.734375 -1.640625 1.328125q-0.828125 0.578125 -1.671875 0.953125q-0.828125 0.375 -1.53125 0.375q-1.34375 0 -2.03125 -0.671875q-0.6875 -0.671875 -0.9687424 -1.609375q-0.265625 -0.9375 -0.28125 -1.9375q-0.015625 -1.015625 0.265625 -1.703125zm4.8906174 -6.765625q-0.28125 0 -0.703125 0.359375q-0.40625 0.359375 -0.8125 0.953125q-0.40625 0.578125 -0.65625 1.15625q-0.25 0.5625 -0.265625 0.515625q-0.078125 -0.015625 0.609375 -0.28125q0.6875 -0.28125 1.375 -0.703125q0.703125 -0.4375 1.171875 -0.859375q0.46875 -0.421875 0.46875 -0.6875q0 -0.046875 -0.09375 -0.125q-0.09375 -0.078125 -0.296875 -0.15625q-0.1875 -0.078125 -0.40625 -0.125q-0.21875 -0.046875 -0.390625 -0.046875zm8.125397 1.4375q0.125 0.1875 -0.109375 0.328125q-0.21875 0.125 -0.453125 0.265625q-0.21875 0.125 -0.5 0.203125q-0.28125 0.078125 -0.578125 0.015625q-0.359375 0 -0.515625 -0.3125q-0.171875 -0.328125 -0.25 -0.609375q-0.09375 -0.296875 -0.109375 -0.59375q-0.03125 -0.3125 0.046875 -0.671875l2.453125 -1.40625l0.15625 -6.453125q0.109375 -0.796875 0.6875 -0.671875q0.578125 0.109375 0.9375 0.1875q0.0625 0 0.234375 0.0625q0.1875 0.046875 0.46875 0.25q-0.0625 0.9375 -0.125 1.765625q-0.0625 0.8125 -0.125 1.625q-0.046875 0.8125 -0.0625 1.578125q-0.015625 0.765625 0 0.890625l3.453125 -0.96875q0.46875 -0.140625 0.59375 0.21875q0.140625 0.359375 0.203125 0.625q0.078125 0.25 0.125 0.65625q0.046875 0.390625 0.046875 0.390625l-4.5 1.859375q0.046875 -0.015625 0.078125 0.875q0.046875 0.875 0.09375 2.09375q0.046875 1.203125 0.09375 2.59375q0.0625 1.390625 0.109375 2.59375q0.0625 1.1875 0.078125 2.09375q0.03125 0.90625 0.03125 1.15625q-0.078125 1.171875 -0.75 1.171875q-0.65625 0 -1.375 -0.59375l-0.4375 -11.21875zm8.111786 5.328125q0.046875 0.28125 -0.25 0.34375q-0.28125 0.046875 -0.640625 0.015625q-0.359375 -0.03125 -0.71875 -0.234375q-0.359375 -0.21875 -0.359375 -0.765625q0 -0.34375 0.140625 -0.484375q0.140625 -0.140625 0.34375 -0.3125q0.515625 -0.421875 0.890625 -1.109375q0.375 -0.703125 0.703125 -1.53125q0.34375 -0.84375 0.734375 -1.71875q0.390625 -0.875 0.921875 -1.59375q0.53125 -0.734375 1.34375 -1.203125q0.8125 -0.46875 2.0 -0.4375q0.515625 0 1.125 0.234375q0.609375 0.234375 1.125 0.625q0.515625 0.390625 0.875 0.96875q0.375 0.5625 0.375 1.171875q0.21875 0.390625 -0.28125 0.90625q-0.484375 0.515625 -1.171875 0.984375q-0.671875 0.46875 -1.5 0.96875q-0.8125 0.484375 -1.578125 0.90625q-0.765625 0.40625 -1.3125 0.71875q-0.546875 0.296875 -0.640625 0.359375q-0.0625 0.140625 -0.140625 0.453125q-0.0625 0.3125 -0.109375 0.59375q-0.03125 0.28125 -0.046875 0.515625q-0.015625 0.234375 -0.015625 0.34375q0 0.515625 -0.046875 1.09375q-0.03125 0.578125 0.046875 1.03125q0.078125 0.453125 0.3125 0.703125q0.234375 0.234375 0.875 0.234375q0.75 0 1.421875 -0.390625q0.6875 -0.390625 1.296875 -0.984375q0.625 -0.59375 1.15625 -1.3125q0.53125 -0.71875 0.953125 -1.359375q0.4375 -0.640625 0.84375 -1.125q0.40625 -0.5 0.828125 -0.5q0.328125 0 0.796875 0.140625q0.46875 0.125 0.46875 0.78125q0 0.578125 -0.421875 1.296875q-0.40625 0.703125 -1.046875 1.453125q-0.625 0.75 -1.4375 1.484375q-0.8125 0.734375 -1.640625 1.328125q-0.828125 0.578125 -1.671875 0.953125q-0.828125 0.375 -1.53125 0.375q-1.34375 0 -2.03125 -0.671875q-0.6875 -0.671875 -0.96875 -1.609375q-0.265625 -0.9375 -0.28125 -1.9375q-0.015625 -1.015625 0.265625 -1.703125zm4.890625 -6.765625q-0.28125 0 -0.703125 0.359375q-0.40625 0.359375 -0.8125 0.953125q-0.40625 0.578125 -0.65625 1.15625q-0.25 0.5625 -0.265625 0.515625q-0.078125 -0.015625 0.609375 -0.28125q0.6875 -0.28125 1.375 -0.703125q0.703125 -0.4375 1.171875 -0.859375q0.46875 -0.421875 0.46875 -0.6875q0 -0.046875 -0.09375 -0.125q-0.09375 -0.078125 -0.296875 -0.15625q-0.1875 -0.078125 -0.40625 -0.125q-0.21875 -0.046875 -0.390625 -0.046875zm7.1878967 -0.265625l0 -0.234375q0 -0.515625 0.34375 -0.6875q0.359375 -0.1875 0.71875 -0.1875q0.25 0 0.5625 0.0625q0.3125 0.0625 0.5 0.5625q0.09375 0.4375 0.171875 1.140625q0.078125 0.703125 0.1875 1.53125q0.109375 0.828125 0.21875 1.765625q0.125 0.921875 0.234375 1.734375q0.125 0.796875 0.234375 1.421875q0.125 0.625 -0.203125 0.71875q-0.390625 -2.140625 -0.15625 -4.03125q0.25 -1.890625 0.96875 -3.15625q0.71875 -1.265625 1.984375 -1.765625q1.28125 -0.5 3.109375 -0.21875q1.1875 0 1.1875 1.265625q0 0.640625 -0.625 0.8125q-0.609375 0.15625 -1.171875 0.203125q-0.5625 0.03125 -1.015625 0.078125q-0.453125 0.046875 -0.609375 0.1875q-0.84375 0.484375 -1.1875 1.484375q-0.34375 1.0 -0.5 2.453125q-0.15625 1.4375 -0.21875 3.203125q-0.0625 1.75 -0.34375 3.609375q0 0.4375 -0.359375 0.671875q-0.34375 0.21875 -0.75 0.21875q-0.40625 0 -0.78125 -0.171875q-0.359375 -0.1875 -0.625 -0.609375l-1.875 -12.0625zm13.865662 12.125q0.015625 0 0.453125 -0.5q0.453125 -0.5 1.203125 -1.046875q0.75 -0.546875 1.53125 -1.1875q0.796875 -0.65625 1.265625 -1.1875q0.46875 -0.546875 0.484375 -0.71875q0.015625 -0.171875 -0.375 -0.234375q-0.84375 -0.140625 -1.4375 0.015625q-0.578125 0.140625 -1.09375 0.34375q-0.5 0.203125 -1.0 0.40625q-0.5 0.1875 -1.125 0.140625q-1.359375 0 -1.875 -0.859375q-0.515625 -0.875 -0.515625 -2.203125q0 -1.3125 0.578125 -2.5q0.59375 -1.1875 1.5 -2.03125q0.921875 -0.859375 2.109375 -1.375q1.1875 -0.515625 2.4375 -0.515625q0.515625 0 1.03125 0.125q0.515625 0.109375 0.515625 0.96875q0 0.515625 -0.4375 0.96875q-0.421875 0.453125 -0.984375 0.453125q-0.109375 0 -0.28125 -0.0625q-0.15625 -0.0625 -0.265625 -0.140625q-0.09375 -0.078125 -0.109375 -0.203125q-0.015625 -0.140625 -0.078125 0.09375q-0.703125 -0.203125 -1.375 0.203125q-0.671875 0.40625 -1.25 1.140625q-0.578125 0.734375 -0.921875 1.609375q-0.328125 0.859375 -0.328125 1.5q0 0.171875 0.046875 0.234375q0.046875 0.0625 0.15625 0.109375q0.109375 0.03125 0.3125 0.046875q0.203125 0.015625 0.453125 0.015625q0.453125 0 0.953125 -0.140625q0.5 -0.15625 1.0 -0.359375q0.515625 -0.21875 1.078125 -0.375q0.578125 -0.171875 1.203125 -0.171875q0.359375 0 0.734375 0.1875q0.390625 0.1875 0.6875 0.5q0.3125 0.3125 0.53125 0.734375q0.234375 0.40625 0.25 0.84375q0.1875 0.453125 -0.09375 1.15625q-0.28125 0.703125 -0.8125 1.421875q-0.515625 0.703125 -1.234375 1.40625q-0.71875 0.703125 -1.453125 1.296875q-0.71875 0.578125 -1.46875 0.953125q-0.734375 0.390625 -1.3125 0.359375q-0.796875 0 -0.953125 -0.484375q-0.140625 -0.484375 0.265625 -0.9375z" fill-rule="nonzero"/><path fill="#000000" fill-opacity="0.0" d="m123.77361 289.59518l85.95275 0l0 51.716553l-85.95275 0z" fill-rule="evenodd"/><path fill="#3c78d8" d="m136.9611 323.27332q0 -0.671875 0.703125 -1.546875q0.703125 -0.890625 1.671875 -1.9375q0.96875 -1.046875 2.09375 -2.25q1.140625 -1.21875 2.09375 -2.5q0.953125 -1.296875 1.5625 -2.609375q0.625 -1.3125 0.625 -2.546875q0 -0.5625 -0.328125 -0.984375q-0.328125 -0.421875 -0.875 -0.75q-0.546875 -0.328125 -1.28125 -0.53125q-0.734375 -0.203125 -1.5 -0.3125q-0.765625 -0.109375 -1.453125 -0.140625q-0.671875 -0.046875 -1.15625 -0.046875q-0.109375 0 -0.328125 0.015625q-0.203125 0.015625 -0.40625 0.03125q-0.203125 0 -0.40625 0.03125q-0.1875 0.03125 -0.21875 -0.328125l-0.25 0.3125q0.296875 0.015625 0.28125 0.40625q-0.015625 0.390625 -0.03125 0.875q0 0.484375 0 1.015625l0 0.796875q0 2.625 0.1875 5.21875q0.203125 2.578125 0.203125 5.21875q0 0.140625 0 0.34375q0.015625 0.203125 -0.015625 0.453125q-0.03125 0.25 -0.265625 0.484375q-0.21875 0.21875 -0.625 0.21875q-0.25 0 -0.546875 -0.140625q-0.28125 -0.15625 -0.359375 -0.546875l-0.65625 -13.65625q0.1875 0.3125 -0.03125 0.40625q-0.21875 0.09375 -0.40625 0.203125q-0.1875 0.109375 -0.4375 0.25q-0.234375 0.140625 -0.40625 0.140625q0 -0.125 -0.078125 -0.046875q-0.0625 0.0625 -0.09375 0.0625q-0.21875 0 -0.546875 -0.125q-0.328125 -0.125 -0.328125 -0.640625q0 -0.515625 0.21875 -0.84375q0.21875 -0.328125 0.515625 -0.546875q0.3125 -0.234375 0.59375 -0.421875q0.296875 -0.203125 0.53125 -0.484375q0.234375 -0.28125 0.375 -0.703125q0.15625 -0.421875 0.15625 -1.515625q1.125 0 1.34375 0.3125q0.234375 0.296875 0.265625 0.609375q0.03125 0.296875 0.046875 0.40625q0.015625 0.109375 0.046875 0.125q0.6875 -0.03125 1.71875 0q1.046875 0.03125 2.203125 0.171875q1.15625 0.140625 2.296875 0.453125q1.15625 0.296875 2.09375 0.859375q0.9375 0.546875 1.5 1.4375q0.5625 0.890625 0.515625 2.1875q-0.359375 2.09375 -1.328125 3.984375q-0.96875 1.890625 -2.28125 3.625q-1.296875 1.71875 -2.8125 3.296875q-1.515625 1.5625 -3.109375 3.125q-0.171875 -0.296875 -0.203125 -0.125q-0.03125 0.15625 -0.125 0.15625q-0.40625 0 -0.6875 -0.265625q-0.265625 -0.28125 -0.265625 -0.6875zm19.489014 -0.125q-0.125 -0.65625 -0.21875 -1.609375q-0.09375 -0.953125 -0.203125 -1.921875q-0.09375 -0.984375 -0.234375 -1.796875q-0.125 -0.8125 -0.015625 -0.796875q-0.96875 2.203125 -2.015625 3.78125q-1.03125 1.578125 -1.890625 2.3125q-0.859375 0.734375 -1.546875 0.703125q-0.6875 -0.03125 -1.125 -0.578125q-0.421875 -0.5625 -0.578125 -1.296875q-0.15625 -0.75 -0.203125 -1.390625q0 -0.640625 0.265625 -1.71875q0.265625 -1.078125 0.71875 -2.328125q0.453125 -1.25 1.0625 -2.546875q0.625 -1.3125 1.34375 -2.375q0.734375 -1.078125 1.5625 -1.828125q0.84375 -0.75 1.71875 -0.75q1.3125 -0.203125 1.984375 0.625q0.671875 0.828125 0.296875 2.546875q0 1.65625 0.140625 2.859375q0.140625 1.203125 0.3125 2.328125q0.171875 1.109375 0.3125 2.359375q0.140625 1.234375 0.140625 2.96875q0 0.375 -0.109375 0.765625q-0.109375 0.390625 -1.0 0.390625q-0.25 0 -0.484375 -0.25q-0.234375 -0.25 -0.234375 -0.453125zm-1.390625 -11.546875q0.015625 0.015625 -0.28125 0.234375q-0.296875 0.203125 -0.828125 0.953125q-0.515625 0.734375 -1.078125 1.8125q-0.5625 1.0625 -1.0625 2.171875q-0.484375 1.109375 -0.84375 2.09375q-0.34375 0.96875 -0.46875 1.5625q0 0.609375 0.03125 0.625q0.046875 0.015625 0.34375 -0.296875q0.3125 -0.3125 0.828125 -1.0625q0.53125 -0.765625 1.03125 -1.640625q0.5 -0.875 0.953125 -1.6875q0.453125 -0.828125 0.703125 -1.34375q0.21875 -0.515625 0.34375 -0.953125q0.125 -0.453125 0.203125 -0.859375q0.09375 -0.40625 0.109375 -0.8125q0.015625 -0.421875 0.015625 -0.796875zm5.5274353 1.375q0.125 0.1875 -0.109375 0.328125q-0.21875 0.125 -0.453125 0.265625q-0.21875 0.125 -0.5 0.203125q-0.28125 0.078125 -0.578125 0.015625q-0.359375 0 -0.515625 -0.3125q-0.171875 -0.328125 -0.25 -0.609375q-0.09375 -0.296875 -0.109375 -0.59375q-0.03125 -0.3125 0.046875 -0.671875l2.453125 -1.40625l0.15625 -6.453125q0.109375 -0.796875 0.6875 -0.671875q0.578125 0.109375 0.9375 0.1875q0.0625 0 0.234375 0.0625q0.1875 0.046875 0.46875 0.25q-0.0625 0.9375 -0.125 1.765625q-0.0625 0.8125 -0.125 1.625q-0.046875 0.8125 -0.0625 1.578125q-0.015625 0.765625 0 0.890625l3.453125 -0.96875q0.46875 -0.140625 0.59375 0.21875q0.140625 0.359375 0.203125 0.625q0.078125 0.25 0.125 0.65625q0.046875 0.390625 0.046875 0.390625l-4.5 1.859375q0.046875 -0.015625 0.078125 0.875q0.046875 0.875 0.09375 2.09375q0.046875 1.203125 0.09375 2.59375q0.0625 1.390625 0.109375 2.59375q0.0625 1.1875 0.078125 2.09375q0.03125 0.90625 0.03125 1.15625q-0.078125 1.171875 -0.75 1.171875q-0.65625 0 -1.375 -0.59375l-0.4375 -11.21875zm14.439911 10.171875q-0.125 -0.65625 -0.21875 -1.609375q-0.09375 -0.953125 -0.203125 -1.921875q-0.09375 -0.984375 -0.234375 -1.796875q-0.125 -0.8125 -0.015625 -0.796875q-0.96875 2.203125 -2.015625 3.78125q-1.03125 1.578125 -1.890625 2.3125q-0.859375 0.734375 -1.546875 0.703125q-0.6875 -0.03125 -1.125 -0.578125q-0.421875 -0.5625 -0.578125 -1.296875q-0.15625 -0.75 -0.203125 -1.390625q0 -0.640625 0.265625 -1.71875q0.265625 -1.078125 0.71875 -2.328125q0.453125 -1.25 1.0625 -2.546875q0.625 -1.3125 1.34375 -2.375q0.734375 -1.078125 1.5625 -1.828125q0.84375 -0.75 1.71875 -0.75q1.3125 -0.203125 1.984375 0.625q0.671875 0.828125 0.296875 2.546875q0 1.65625 0.140625 2.859375q0.140625 1.203125 0.3125 2.328125q0.171875 1.109375 0.3125 2.359375q0.140625 1.234375 0.140625 2.96875q0 0.375 -0.109375 0.765625q-0.109375 0.390625 -1.0 0.390625q-0.25 0 -0.484375 -0.25q-0.234375 -0.25 -0.234375 -0.453125zm-1.390625 -11.546875q0.015625 0.015625 -0.28125 0.234375q-0.296875 0.203125 -0.828125 0.953125q-0.515625 0.734375 -1.078125 1.8125q-0.5625 1.0625 -1.0625 2.171875q-0.484375 1.109375 -0.84375 2.09375q-0.34375 0.96875 -0.46875 1.5625q0 0.609375 0.03125 0.625q0.046875 0.015625 0.34375 -0.296875q0.3125 -0.3125 0.828125 -1.0625q0.53125 -0.765625 1.03125 -1.640625q0.5 -0.875 0.953125 -1.6875q0.453125 -0.828125 0.703125 -1.34375q0.21875 -0.515625 0.34375 -0.953125q0.125 -0.453125 0.203125 -0.859375q0.09375 -0.40625 0.109375 -0.8125q0.015625 -0.421875 0.015625 -0.796875z" fill-rule="nonzero"/><path fill="#000000" fill-opacity="0.0" d="m334.70862 109.71916l122.92914 0l0 84.031494l-122.92914 0z" fill-rule="evenodd"/><path fill="#000000" d="m358.02112 126.741035q0.171875 -0.03125 0.125 0.59375q-0.03125 0.609375 -0.34375 1.6093674q-0.3125 1.0 -0.671875 2.265625q-0.34375 1.265625 -0.765625 2.53125q-0.421875 1.25 -0.84375 2.359375q-0.421875 1.109375 -0.90625 1.8125q-0.484375 0.703125 -1.09375 0.828125q-0.609375 0.125 -1.015625 -0.984375q-0.1875 -0.34375 -0.5625 -1.140625q-0.375 -0.8125 -0.875 -1.78125q-0.5 -0.984375 -1.046875 -2.078125q-0.53125 -1.09375 -1.015625 -2.0625q-0.484375 -0.984375 -0.890625 -1.765625q-0.40625 -0.796875 -0.578125 -1.1562424q-0.296875 -0.53125 -0.484375 -0.78125q-0.171875 -0.265625 -0.078125 -0.265625q0 1.3906174 0.203125 3.5624924q0.203125 2.171875 0.453125 4.421875q0.25 2.234375 0.453125 4.421875q0.21875 2.1875 0.21875 3.96875q0.15625 0.375 -0.125 0.734375q-0.265625 0.34375 -0.6875 0.484375q-0.421875 0.140625 -0.90625 0.015625q-0.484375 -0.109375 -0.859375 -0.671875q-0.25 -2.4375 -0.265625 -4.84375q0 -2.421875 -0.03125 -4.828125q-0.03125 -2.421875 -0.21875 -4.828125q-0.171875 -2.4218674 -0.71875 -4.8437424q-0.046875 -0.75 0.296875 -0.953125q0.34375 -0.21875 0.734375 -0.21875q0.734375 0 1.3125 0.34375q0.59375 0.34375 1.03125 0.84375q0.453125 0.484375 0.78125 1.0625q0.34375 0.5625 0.609375 1.0q0.21875 0.359375 0.578125 1.078125l0.84375 1.7031174q0.46875 0.9375 0.96875 1.96875q0.5 1.015625 0.96875 1.953125q0.46875 0.921875 0.84375 1.625q0.390625 0.6875 0.359375 1.03125q-0.09375 -0.03125 -0.140625 -0.109375q-0.046875 -0.09375 0.078125 -0.40625q0.140625 -0.3125 0.375 -1.0625q0.234375 -0.75 0.671875 -2.078125q0.453125 -1.328125 1.09375 -3.359375q0.65625 -2.0312424 1.609375 -4.9843674q0.140625 -0.296875 0.53125 -0.4375q0.390625 -0.140625 0.703125 -0.140625q0.46875 0 0.640625 0.296875q0.171875 0.28125 0.234375 0.734375q0.234375 2.234375 0.375 4.6406174q0.15625 2.40625 0.390625 4.859375q0.234375 2.453125 0.578125 4.859375q0.34375 2.40625 1.0625 4.921875l-2.640625 1.03125l-1.359375 -17.781242zm5.3678894 13.640617q-0.1875 -1.203125 -0.1875 -2.359375q0 -1.171875 0.140625 -2.359375q0.140625 -1.1875 0.421875 -2.453125q0.28125 -1.28125 0.640625 -2.703125q0 -0.34375 0.203125 -0.6875q0.21875 -0.34375 0.53125 -0.53125q0.3125 -0.203125 0.65625 -0.328125q0.34375 -0.140625 0.671875 -0.140625q0.71875 0 1.265625 0.4375q0.546875 0.421875 0.953125 0.984375q0.40625 0.5625 0.6875 1.171875q0.28125 0.59375 0.484375 1.046875q0.21875 0.984375 0.3125 2.171875q0.09375 1.1875 0.015625 2.421875q-0.078125 1.21875 -0.390625 2.421875q-0.296875 1.1875 -0.84375 2.21875q-0.546875 1.03125 -1.4375 1.75q-0.890625 0.703125 -2.15625 0.875q-0.828125 0 -1.234375 -0.515625q-0.390625 -0.515625 -0.5625 -1.171875q-0.15625 -0.65625 -0.171875 -1.265625q0 -0.625 0 -0.984375zm2.140625 -0.109375q0 0.25 0 0.46875q0.015625 0.203125 0.046875 0.40625q0.03125 0.203125 0.09375 0.4375q0.078125 0.234375 -0.0625 0.453125l0 -0.203125q0.46875 0 0.828125 -0.328125q0.359375 -0.34375 0.640625 -0.953125q0.28125 -0.609375 0.484375 -1.390625q0.203125 -0.796875 0.3125 -1.5625q0.125 -0.78125 0.15625 -1.453125q0.046875 -0.6875 0.046875 -1.078125l0 -0.53125q0 -0.3125 -0.03125 -0.71875q-0.03125 -0.421875 -0.09375 -0.859375q-0.046875 -0.4375 -0.171875 -0.75q-0.109375 -0.328125 -0.234375 -0.453125q-0.109375 -0.140625 -0.328125 -0.140625q-0.453125 -0.140625 -0.71875 0.03125q-0.265625 0.171875 -0.484375 0.703125q-0.21875 0.53125 -0.34375 1.375q-0.125 0.84375 -0.15625 1.90625q-0.015625 1.046875 0 2.25q0.015625 1.1875 0.015625 2.390625zm11.794098 -0.484375q0.25 0.125 -0.171875 0.9375q-0.421875 0.796875 -0.984375 1.546875q-0.5625 0.734375 -1.34375 1.296875q-0.78125 0.546875 -1.765625 0.546875q-0.46875 0 -0.78125 -0.125q-0.296875 -0.125 -0.515625 -0.359375q-0.203125 -0.234375 -0.359375 -0.515625q-0.15625 -0.28125 -0.421875 -0.671875q-0.078125 -1.375 -0.09375 -2.859375q-0.015625 -1.5 0.140625 -3.0q0.15625 -1.5 0.546875 -2.84375q0.40625 -1.359375 1.15625 -2.34375q0.75 -1.0 1.890625 -1.421875q1.15625 -0.4375 2.3125 -0.171875q0.03125 -0.25 -0.015625 -1.453125q-0.046875 -1.2031174 -0.15625 -2.5468674q-0.109375 -1.359375 -0.21875 -2.609375q-0.09375 -1.265625 -0.125 -2.109375q0 -0.484375 0.375 -0.671875q0.375 -0.1875 0.6875 -0.21875q0.3125 -0.03125 0.609375 0q0.3125 0.03125 0.671875 0.234375q-0.046875 3.4375 -0.03125 6.53125q0.03125 3.0781174 0.0625 6.1406174q0.046875 3.0625 0.09375 6.078125q0.0625 3.015625 0.0625 6.03125q0 0.328125 -0.0625 0.828125q-0.0625 0.515625 -0.84375 0.515625q-0.265625 0 -0.53125 -0.15625q-0.265625 -0.140625 -0.390625 -0.546875l0.203125 -6.0625zm-1.0 -7.78125q-0.640625 -0.03125 -1.234375 0.5625q-0.59375 0.59375 -1.078125 1.640625q-0.484375 1.046875 -0.796875 2.328125q-0.296875 1.265625 -0.375 2.4375q-0.0625 1.15625 0.140625 1.984375q0.203125 0.8125 0.515625 1.015625q0.3125 0 0.71875 -0.375q0.421875 -0.390625 0.8125 -1.046875q0.390625 -0.671875 0.6875 -1.515625q0.3125 -0.84375 0.53125 -1.625q0.21875 -0.796875 0.328125 -1.421875q0.109375 -0.640625 0.109375 -0.953125q0 -0.28125 0.015625 -0.828125q0.03125 -0.5625 -0.015625 -1.09375q-0.046875 -0.53125 -0.15625 -0.8125q-0.109375 -0.296875 -0.203125 -0.296875zm5.340454 6.421875q0.046875 0.28125 -0.25 0.34375q-0.28125 0.046875 -0.640625 0.015625q-0.359375 -0.03125 -0.71875 -0.234375q-0.359375 -0.21875 -0.359375 -0.765625q0 -0.34375 0.140625 -0.484375q0.140625 -0.140625 0.34375 -0.3125q0.515625 -0.421875 0.890625 -1.109375q0.375 -0.703125 0.703125 -1.53125q0.34375 -0.84375 0.734375 -1.71875q0.390625 -0.875 0.921875 -1.59375q0.53125 -0.734375 1.34375 -1.203125q0.8125 -0.46875 2.0 -0.4375q0.515625 0 1.125 0.234375q0.609375 0.234375 1.125 0.625q0.515625 0.390625 0.875 0.96875q0.375 0.5625 0.375 1.171875q0.21875 0.390625 -0.28125 0.90625q-0.484375 0.515625 -1.171875 0.984375q-0.671875 0.46875 -1.5 0.96875q-0.8125 0.484375 -1.578125 0.90625q-0.765625 0.40625 -1.3125 0.71875q-0.546875 0.296875 -0.640625 0.359375q-0.0625 0.140625 -0.140625 0.453125q-0.0625 0.3125 -0.109375 0.59375q-0.03125 0.28125 -0.046875 0.515625q-0.015625 0.234375 -0.015625 0.34375q0 0.515625 -0.046875 1.09375q-0.03125 0.578125 0.046875 1.03125q0.078125 0.453125 0.3125 0.703125q0.234375 0.234375 0.875 0.234375q0.75 0 1.421875 -0.390625q0.6875 -0.390625 1.296875 -0.984375q0.625 -0.59375 1.15625 -1.3125q0.53125 -0.71875 0.953125 -1.359375q0.4375 -0.640625 0.84375 -1.125q0.40625 -0.5 0.828125 -0.5q0.328125 0 0.796875 0.140625q0.46875 0.125 0.46875 0.78125q0 0.578125 -0.421875 1.296875q-0.40625 0.703125 -1.046875 1.453125q-0.625 0.75 -1.4375 1.484375q-0.8125 0.734375 -1.640625 1.328125q-0.828125 0.578125 -1.671875 0.953125q-0.828125 0.375 -1.53125 0.375q-1.34375 0 -2.03125 -0.671875q-0.6875 -0.671875 -0.96875 -1.609375q-0.265625 -0.9375 -0.28125 -1.9375q-0.015625 -1.015625 0.265625 -1.703125zm4.890625 -6.765625q-0.28125 0 -0.703125 0.359375q-0.40625 0.359375 -0.8125 0.953125q-0.40625 0.578125 -0.65625 1.15625q-0.25 0.5625 -0.265625 0.515625q-0.078125 -0.015625 0.609375 -0.28125q0.6875 -0.28125 1.375 -0.703125q0.703125 -0.4375 1.171875 -0.859375q0.46875 -0.421875 0.46875 -0.6875q0 -0.046875 -0.09375 -0.125q-0.09375 -0.078125 -0.296875 -0.15625q-0.1875 -0.078125 -0.40625 -0.125q-0.21875 -0.046875 -0.390625 -0.046875zm7.7347717 10.890625q0.1875 -1.203125 0.25 -2.984375q0.0625 -1.78125 0.046875 -3.796875q0 -2.015625 -0.078125 -4.171875q-0.078125 -2.171875 -0.21875 -4.0937424q-0.125 -1.9375 -0.296875 -3.453125q-0.171875 -1.53125 -0.390625 -2.65625q0.46875 -0.3125 0.6875 -0.4375q0.21875 -0.125 0.5625 -0.125q0.28125 0 0.53125 0.125q0.25 0.109375 0.40625 0.53125q0.515625 5.15625 0.703125 10.343742q0.203125 5.1875 0.3125 10.328125q0 0.234375 0 0.734375q0 0.484375 -0.203125 0.6875q-0.5 0.234375 -0.90625 0.234375q-0.390625 -0.015625 -0.703125 -0.21875q-0.3125 -0.203125 -0.515625 -0.453125q-0.1875 -0.265625 -0.1875 -0.59375z" fill-rule="nonzero"/><path fill="#000000" d="m346.41174 175.67853q-0.5625 -4.1875 -0.703125 -8.578125q-0.125 -4.40625 0.25 -8.234375q0.125 0.21875 -0.109375 0.359375q-0.21875 0.125 -0.59375 0.125q-0.34375 0 -0.625 -0.265625q-0.265625 -0.28125 -0.265625 -0.6875l0 -0.078125q0 -0.09375 0.0625 -0.296875q0.25 -0.25 0.53125 -0.8125q0.28125 -0.5625 0.625 -1.125q0.34375 -0.5625 0.71875 -1.078125q0.390625 -0.53125 0.828125 -0.53125q0.40625 0 0.59375 0.203125q0.203125 0.203125 0.296875 0.390625q0.09375 0.1875 0.15625 0.328125q0.078125 0.125 -0.0625 0.09375q0.625 -0.40625 1.59375 -0.75q0.984375 -0.359375 1.96875 -0.484375q1.0 -0.140625 1.953125 -0.046875q0.953125 0.09375 1.75 0.484375q0.8125 0.375 1.390625 1.109375q0.59375 0.71875 0.765625 1.859375q-0.03125 1.421875 -0.796875 2.625q-0.75 1.203125 -1.84375 2.171875q-1.09375 0.953125 -2.34375 1.6875q-1.25 0.71875 -2.28125 1.25q-1.03125 0.515625 -1.75 0.65625q-0.703125 0.140625 -0.328125 0l0 9.515625q0 0.484375 -0.34375 0.640625q-0.34375 0.140625 -0.578125 0.140625q-0.5625 0 -0.859375 -0.671875zm1.765625 -17.96875q-0.0625 0.671875 -0.1875 1.5625q-0.109375 0.890625 -0.171875 1.828125q-0.046875 0.9375 0.015625 1.8125q0.078125 0.859375 0.171875 1.125q0.734375 -0.3125 1.9375 -0.90625q1.203125 -0.609375 2.28125 -1.375q1.09375 -0.765625 1.953125 -1.65625q0.859375 -0.90625 1.25 -1.9375q0 -0.375 -0.375 -0.734375q-0.375 -0.359375 -0.96875 -0.625q-0.59375 -0.265625 -1.234375 -0.375q-0.640625 -0.109375 -1.0625 -0.109375q-0.203125 0 -0.765625 0.140625q-0.546875 0.140625 -1.15625 0.359375q-0.609375 0.203125 -1.109375 0.484375q-0.484375 0.265625 -0.578125 0.40625zm10.593658 5.6875l0 -0.234375q0 -0.515625 0.34375 -0.6875q0.359375 -0.1875 0.71875 -0.1875q0.25 0 0.5625 0.0625q0.3125 0.0625 0.5 0.5625q0.09375 0.4375 0.171875 1.140625q0.078125 0.703125 0.1875 1.53125q0.109375 0.828125 0.21875 1.765625q0.125 0.921875 0.234375 1.734375q0.125 0.796875 0.234375 1.421875q0.125 0.625 -0.203125 0.71875q-0.390625 -2.140625 -0.15625 -4.03125q0.25 -1.890625 0.96875 -3.15625q0.71875 -1.265625 1.984375 -1.765625q1.28125 -0.5 3.109375 -0.21875q1.1875 0 1.1875 1.265625q0 0.640625 -0.625 0.8125q-0.609375 0.15625 -1.171875 0.203125q-0.5625 0.03125 -1.015625 0.078125q-0.453125 0.046875 -0.609375 0.1875q-0.84375 0.484375 -1.1875 1.484375q-0.34375 1.0 -0.5 2.453125q-0.15625 1.4375 -0.21875 3.203125q-0.0625 1.75 -0.34375 3.609375q0 0.4375 -0.359375 0.671875q-0.34375 0.21875 -0.75 0.21875q-0.40625 0 -0.78125 -0.171875q-0.359375 -0.1875 -0.625 -0.609375l-1.875 -12.0625zm12.459412 7.03125q0.046875 0.28125 -0.25 0.34375q-0.28125 0.046875 -0.640625 0.015625q-0.359375 -0.03125 -0.71875 -0.234375q-0.359375 -0.21875 -0.359375 -0.765625q0 -0.34375 0.140625 -0.484375q0.140625 -0.140625 0.34375 -0.3125q0.515625 -0.421875 0.890625 -1.109375q0.375 -0.703125 0.703125 -1.53125q0.34375 -0.84375 0.734375 -1.71875q0.390625 -0.875 0.921875 -1.59375q0.53125 -0.734375 1.34375 -1.203125q0.8125 -0.46875 2.0 -0.4375q0.515625 0 1.125 0.234375q0.609375 0.234375 1.125 0.625q0.515625 0.390625 0.875 0.96875q0.375 0.5625 0.375 1.171875q0.21875 0.390625 -0.28125 0.90625q-0.484375 0.515625 -1.171875 0.984375q-0.671875 0.46875 -1.5 0.96875q-0.8125 0.484375 -1.578125 0.90625q-0.765625 0.40625 -1.3125 0.71875q-0.546875 0.296875 -0.640625 0.359375q-0.0625 0.140625 -0.140625 0.453125q-0.0625 0.3125 -0.109375 0.59375q-0.03125 0.28125 -0.046875 0.515625q-0.015625 0.234375 -0.015625 0.34375q0 0.515625 -0.046875 1.09375q-0.03125 0.578125 0.046875 1.03125q0.078125 0.453125 0.3125 0.703125q0.234375 0.234375 0.875 0.234375q0.75 0 1.421875 -0.390625q0.6875 -0.390625 1.296875 -0.984375q0.625 -0.59375 1.15625 -1.3125q0.53125 -0.71875 0.953125 -1.359375q0.4375 -0.640625 0.84375 -1.125q0.40625 -0.5 0.828125 -0.5q0.328125 0 0.796875 0.140625q0.46875 0.125 0.46875 0.78125q0 0.578125 -0.421875 1.296875q-0.40625 0.703125 -1.046875 1.453125q-0.625 0.75 -1.4375 1.484375q-0.8125 0.734375 -1.640625 1.328125q-0.828125 0.578125 -1.671875 0.953125q-0.828125 0.375 -1.53125 0.375q-1.34375 0 -2.03125 -0.671875q-0.6875 -0.671875 -0.96875 -1.609375q-0.265625 -0.9375 -0.28125 -1.9375q-0.015625 -1.015625 0.265625 -1.703125zm4.890625 -6.765625q-0.28125 0 -0.703125 0.359375q-0.40625 0.359375 -0.8125 0.953125q-0.40625 0.578125 -0.65625 1.15625q-0.25 0.5625 -0.265625 0.515625q-0.078125 -0.015625 0.609375 -0.28125q0.6875 -0.28125 1.375 -0.703125q0.703125 -0.4375 1.171875 -0.859375q0.46875 -0.421875 0.46875 -0.6875q0 -0.046875 -0.09375 -0.125q-0.09375 -0.078125 -0.296875 -0.15625q-0.1875 -0.078125 -0.40625 -0.125q-0.21875 -0.046875 -0.390625 -0.046875zm13.172272 8.125q0.25 0.125 -0.171875 0.9375q-0.421875 0.796875 -0.984375 1.546875q-0.5625 0.734375 -1.34375 1.296875q-0.78125 0.546875 -1.765625 0.546875q-0.46875 0 -0.78125 -0.125q-0.296875 -0.125 -0.515625 -0.359375q-0.203125 -0.234375 -0.359375 -0.515625q-0.15625 -0.28125 -0.421875 -0.671875q-0.078125 -1.375 -0.09375 -2.859375q-0.015625 -1.5 0.140625 -3.0q0.15625 -1.5 0.546875 -2.84375q0.40625 -1.359375 1.15625 -2.34375q0.75 -1.0 1.890625 -1.421875q1.15625 -0.4375 2.3125 -0.171875q0.03125 -0.25 -0.015625 -1.453125q-0.046875 -1.203125 -0.15625 -2.546875q-0.109375 -1.359375 -0.21875 -2.609375q-0.09375 -1.265625 -0.125 -2.109375q0 -0.484375 0.375 -0.671875q0.375 -0.1875 0.6875 -0.21875q0.3125 -0.03125 0.609375 0q0.3125 0.03125 0.671875 0.234375q-0.046875 3.4375 -0.03125 6.53125q0.03125 3.078125 0.0625 6.140625q0.046875 3.0625 0.09375 6.078125q0.0625 3.015625 0.0625 6.03125q0 0.328125 -0.0625 0.828125q-0.0625 0.515625 -0.84375 0.515625q-0.265625 0 -0.53125 -0.15625q-0.265625 -0.140625 -0.390625 -0.546875l0.203125 -6.0625zm-1.0 -7.78125q-0.640625 -0.03125 -1.234375 0.5625q-0.59375 0.59375 -1.078125 1.640625q-0.484375 1.046875 -0.796875 2.328125q-0.296875 1.265625 -0.375 2.4375q-0.0625 1.15625 0.140625 1.984375q0.203125 0.8125 0.515625 1.015625q0.3125 0 0.71875 -0.375q0.421875 -0.390625 0.8125 -1.046875q0.390625 -0.671875 0.6875 -1.515625q0.3125 -0.84375 0.53125 -1.625q0.21875 -0.796875 0.328125 -1.421875q0.109375 -0.640625 0.109375 -0.953125q0 -0.28125 0.015625 -0.828125q0.03125 -0.5625 -0.015625 -1.09375q-0.046875 -0.53125 -0.15625 -0.8125q-0.109375 -0.296875 -0.203125 -0.296875zm4.699829 11.375q0 -1.6875 -0.0625 -3.546875q-0.0625 -1.875 -0.140625 -3.78125q-0.0625 -1.921875 -0.03125 -3.78125q0.03125 -1.875 0.265625 -3.6875q0.28125 -0.1875 0.53125 -0.203125q0.265625 -0.03125 0.359375 -0.03125q0.484375 0 0.84375 0.203125q0.375 0.1875 0.375 0.828125q0 1.546875 -0.015625 3.359375q-0.015625 1.796875 -0.03125 3.65625q0 1.859375 0 3.6875q0 1.828125 0.046875 3.296875q0.046875 0.65625 -0.296875 0.90625q-0.34375 0.234375 -0.765625 0.234375q-0.4375 0 -0.796875 -0.234375q-0.34375 -0.25 -0.28125 -0.90625zm-0.578125 -18.625q0 -0.5625 0.359375 -0.75q0.375 -0.1875 0.734375 -0.1875q0.796875 0 0.984375 0.515625q0.203125 0.5 0.203125 1.125q-0.265625 0.484375 -0.625 0.671875q-0.359375 0.171875 -0.765625 0.078125q-0.390625 -0.109375 -0.640625 -0.484375q-0.25 -0.375 -0.25 -0.96875zm4.524658 13.15625q0.078125 -0.953125 0.15625 -2.0625q0.078125 -1.125 0.25 -2.234375q0.1875 -1.125 0.46875 -2.140625q0.28125 -1.015625 0.765625 -1.84375q0.5 -0.84375 1.265625 -1.359375q0.78125 -0.515625 1.859375 -0.484375q0.859375 0 1.296875 0.671875q0.4375 0.671875 0.59375 1.515625q0.15625 0.828125 0.15625 1.671875q0.015625 0.84375 0.015625 1.765625q-1.125 0 -1.546875 -0.5625q-0.421875 -0.5625 -0.625 -1.203125q-0.1875 -0.65625 -0.28125 -1.28125l0.3125 -0.78125q-0.046875 0.390625 -0.109375 0.25q-0.046875 -0.15625 -0.046875 0.109375q-0.25 0 -0.546875 0.40625q-0.296875 0.390625 -0.609375 1.125q-0.3125 0.71875 -0.546875 1.65625q-0.234375 0.921875 -0.390625 1.828125q-0.140625 0.890625 -0.234375 1.640625q-0.078125 0.734375 -0.078125 1.15625q-0.0625 0.65625 -0.015625 1.4375q0.0625 0.765625 0.296875 1.40625q0.234375 0.625 0.625 1.0625q0.40625 0.421875 1.015625 0.5625q0.84375 0 1.359375 -0.21875q0.515625 -0.21875 0.828125 -0.59375q0.328125 -0.390625 0.515625 -0.90625q0.1875 -0.515625 0.375 -1.09375q0.203125 -0.59375 0.421875 -1.1875q0.234375 -0.609375 0.75 -1.265625q0.625 -0.15625 0.890625 0.03125q0.28125 0.171875 0.359375 0.4375q0.09375 0.25 0.09375 0.515625l0 0.296875q0 1.171875 -0.390625 2.265625q-0.390625 1.078125 -1.15625 1.921875q-0.75 0.84375 -1.796875 1.375q-1.046875 0.515625 -2.390625 0.515625q-1.21875 0 -2.0 -0.75q-0.765625 -0.75 -1.171875 -1.75q-0.40625 -1.0 -0.578125 -2.0625q-0.15625 -1.078125 -0.15625 -1.84375zm12.178223 -4.8125q0.125 0.1875 -0.109375 0.328125q-0.21875 0.125 -0.453125 0.265625q-0.21875 0.125 -0.5 0.203125q-0.28125 0.078125 -0.578125 0.015625q-0.359375 0 -0.515625 -0.3125q-0.171875 -0.328125 -0.25 -0.609375q-0.09375 -0.296875 -0.109375 -0.59375q-0.03125 -0.3125 0.046875 -0.671875l2.453125 -1.40625l0.15625 -6.453125q0.109375 -0.796875 0.6875 -0.671875q0.578125 0.109375 0.9375 0.1875q0.0625 0 0.234375 0.0625q0.1875 0.046875 0.46875 0.25q-0.0625 0.9375 -0.125 1.765625q-0.0625 0.8125 -0.125 1.625q-0.046875 0.8125 -0.0625 1.578125q-0.015625 0.765625 0 0.890625l3.453125 -0.96875q0.46875 -0.140625 0.59375 0.21875q0.140625 0.359375 0.203125 0.625q0.078125 0.25 0.125 0.65625q0.046875 0.390625 0.046875 0.390625l-4.5 1.859375q0.046875 -0.015625 0.078125 0.875q0.046875 0.875 0.09375 2.09375q0.046875 1.203125 0.09375 2.59375q0.0625 1.390625 0.109375 2.59375q0.0625 1.1875 0.078125 2.09375q0.03125 0.90625 0.03125 1.15625q-0.078125 1.171875 -0.75 1.171875q-0.65625 0 -1.375 -0.59375l-0.4375 -11.21875z" fill-rule="nonzero"/><path fill="#000000" fill-opacity="0.0" d="m194.35957 152.60104c36.907913 0 73.7198 2.5931702 110.6277 2.5931702" fill-rule="evenodd"/><path stroke="#000000" stroke-width="3.0" stroke-linejoin="round" stroke-linecap="butt" d="m194.35957 152.60104c36.907913 0 73.7198 2.5931702 110.6277 2.5931702" fill-rule="evenodd"/><path fill="#000000" fill-opacity="0.0" d="m314.8714 184.84232c-8.450867 0 -17.700348 -1.5860901 -25.257233 2.1968536" fill-rule="evenodd"/><path stroke="#000000" stroke-width="3.0" stroke-linejoin="round" stroke-linecap="butt" d="m314.8714 184.84232c-8.450867 0 -17.700348 -1.5860901 -25.257233 2.1968536" fill-rule="evenodd"/><path fill="#000000" fill-opacity="0.0" d="m314.8714 185.93964c-1.2553711 6.2677765 -4.3937073 12.274399 -4.3937073 18.666656" fill-rule="evenodd"/><path stroke="#000000" stroke-width="3.0" stroke-linejoin="round" stroke-linecap="butt" d="m314.8714 185.93964c-1.2553711 6.2677765 -4.3937073 12.274399 -4.3937073 18.666656" fill-rule="evenodd"/><path fill="#000000" fill-opacity="0.0" d="m304.9895 150.5328l0 0c0 -39.57316 32.693787 -71.65354 73.02362 -71.65354l0 0c19.367065 0 37.940918 7.5491943 51.635498 20.98684c13.69458 13.437645 21.388123 31.66301 21.388123 50.666702l0 0c0 39.573166 -32.693787 71.65355 -73.02362 71.65355l0 0c-40.329834 0 -73.02362 -32.080383 -73.02362 -71.65355z" fill-rule="evenodd"/><path stroke="#000000" stroke-width="3.0" stroke-linejoin="round" stroke-linecap="butt" d="m304.9895 150.5328l0 0c0 -39.57316 32.693787 -71.65354 73.02362 -71.65354l0 0c19.367065 0 37.940918 7.5491943 51.635498 20.98684c13.69458 13.437645 21.388123 31.66301 21.388123 50.666702l0 0c0 39.573166 -32.693787 71.65355 -73.02362 71.65355l0 0c-40.329834 0 -73.02362 -32.080383 -73.02362 -71.65355z" fill-rule="evenodd"/><path fill="#000000" fill-opacity="0.0" d="m574.01544 127.290855l182.83466 0l0 51.71653l-182.83466 0z" fill-rule="evenodd"/><path fill="#3c78d8" d="m585.71857 161.25023q-0.5625 -4.1875 -0.703125 -8.578125q-0.125 -4.40625 0.25 -8.234375q0.125 0.21875 -0.109375 0.359375q-0.21875 0.125 -0.59375 0.125q-0.34375 0 -0.625 -0.265625q-0.265625 -0.28125 -0.265625 -0.6875l0 -0.078125q0 -0.09375 0.0625 -0.296875q0.25 -0.25 0.53125 -0.8125q0.28125 -0.5625 0.625 -1.125q0.34375 -0.5625 0.71875 -1.078125q0.390625 -0.53125 0.828125 -0.53125q0.40625 0 0.59375 0.203125q0.203125 0.203125 0.296875 0.390625q0.09375 0.1875 0.15625 0.328125q0.078125 0.125 -0.0625 0.09375q0.625 -0.40625 1.59375 -0.75q0.984375 -0.359375 1.96875 -0.484375q1.0 -0.140625 1.953125 -0.046875q0.953125 0.09375 1.75 0.484375q0.8125 0.375 1.390625 1.109375q0.59375 0.71875 0.765625 1.859375q-0.03125 1.421875 -0.796875 2.625q-0.75 1.203125 -1.84375 2.171875q-1.09375 0.953125 -2.34375 1.6875q-1.25 0.71875 -2.28125 1.25q-1.03125 0.515625 -1.75 0.65625q-0.703125 0.140625 -0.328125 0l0 9.515625q0 0.484375 -0.34375 0.640625q-0.34375 0.140625 -0.578125 0.140625q-0.5625 0 -0.859375 -0.671875zm1.765625 -17.96875q-0.0625 0.671875 -0.1875 1.5625q-0.109375 0.890625 -0.171875 1.828125q-0.046875 0.9375 0.015625 1.8125q0.078125 0.859375 0.171875 1.125q0.734375 -0.3125 1.9375 -0.90625q1.203125 -0.609375 2.28125 -1.375q1.09375 -0.765625 1.953125 -1.65625q0.859375 -0.90625 1.25 -1.9375q0 -0.375 -0.375 -0.734375q-0.375 -0.359375 -0.96875 -0.625q-0.59375 -0.265625 -1.234375 -0.375q-0.640625 -0.109375 -1.0625 -0.109375q-0.203125 0 -0.765625 0.140625q-0.546875 0.140625 -1.15625 0.359375q-0.609375 0.203125 -1.109375 0.484375q-0.484375 0.265625 -0.578125 0.40625zm10.593628 5.6875l0 -0.234375q0 -0.515625 0.34375 -0.6875q0.359375 -0.1875 0.71875 -0.1875q0.25 0 0.5625 0.0625q0.3125 0.0625 0.5 0.5625q0.09375 0.4375 0.171875 1.140625q0.078125 0.703125 0.1875 1.53125q0.109375 0.828125 0.21875 1.765625q0.125 0.921875 0.234375 1.734375q0.125 0.796875 0.234375 1.421875q0.125 0.625 -0.203125 0.71875q-0.390625 -2.140625 -0.15625 -4.03125q0.25 -1.890625 0.96875 -3.15625q0.71875 -1.265625 1.984375 -1.765625q1.28125 -0.5 3.109375 -0.21875q1.1875 0 1.1875 1.265625q0 0.640625 -0.625 0.8125q-0.609375 0.15625 -1.171875 0.203125q-0.5625 0.03125 -1.015625 0.078125q-0.453125 0.046875 -0.609375 0.1875q-0.84375 0.484375 -1.1875 1.484375q-0.34375 1.0 -0.5 2.453125q-0.15625 1.4375 -0.21875 3.203125q-0.0625 1.75 -0.34375 3.609375q0 0.4375 -0.359375 0.671875q-0.34375 0.21875 -0.75 0.21875q-0.40625 0 -0.78125 -0.171875q-0.359375 -0.1875 -0.625 -0.609375l-1.875 -12.0625zm12.459412 7.03125q0.046875 0.28125 -0.25 0.34375q-0.28125 0.046875 -0.640625 0.015625q-0.359375 -0.03125 -0.71875 -0.234375q-0.359375 -0.21875 -0.359375 -0.765625q0 -0.34375 0.140625 -0.484375q0.140625 -0.140625 0.34375 -0.3125q0.515625 -0.421875 0.890625 -1.109375q0.375 -0.703125 0.703125 -1.53125q0.34375 -0.84375 0.734375 -1.71875q0.390625 -0.875 0.921875 -1.59375q0.53125 -0.734375 1.34375 -1.203125q0.8125 -0.46875 2.0 -0.4375q0.515625 0 1.125 0.234375q0.609375 0.234375 1.125 0.625q0.515625 0.390625 0.875 0.96875q0.375 0.5625 0.375 1.171875q0.21875 0.390625 -0.28125 0.90625q-0.484375 0.515625 -1.171875 0.984375q-0.671875 0.46875 -1.5 0.96875q-0.8125 0.484375 -1.578125 0.90625q-0.765625 0.40625 -1.3125 0.71875q-0.546875 0.296875 -0.640625 0.359375q-0.0625 0.140625 -0.140625 0.453125q-0.0625 0.3125 -0.109375 0.59375q-0.03125 0.28125 -0.046875 0.515625q-0.015625 0.234375 -0.015625 0.34375q0 0.515625 -0.046875 1.09375q-0.03125 0.578125 0.046875 1.03125q0.078125 0.453125 0.3125 0.703125q0.234375 0.234375 0.875 0.234375q0.75 0 1.421875 -0.390625q0.6875 -0.390625 1.296875 -0.984375q0.625 -0.59375 1.15625 -1.3125q0.53125 -0.71875 0.953125 -1.359375q0.4375 -0.640625 0.84375 -1.125q0.40625 -0.5 0.828125 -0.5q0.328125 0 0.796875 0.140625q0.46875 0.125 0.46875 0.78125q0 0.578125 -0.421875 1.296875q-0.40625 0.703125 -1.046875 1.453125q-0.625 0.75 -1.4375 1.484375q-0.8125 0.734375 -1.640625 1.328125q-0.828125 0.578125 -1.671875 0.953125q-0.828125 0.375 -1.53125 0.375q-1.34375 0 -2.03125 -0.671875q-0.6875 -0.671875 -0.96875 -1.609375q-0.265625 -0.9375 -0.28125 -1.9375q-0.015625 -1.015625 0.265625 -1.703125zm4.890625 -6.765625q-0.28125 0 -0.703125 0.359375q-0.40625 0.359375 -0.8125 0.953125q-0.40625 0.578125 -0.65625 1.15625q-0.25 0.5625 -0.265625 0.515625q-0.078125 -0.015625 0.609375 -0.28125q0.6875 -0.28125 1.375 -0.703125q0.703125 -0.4375 1.171875 -0.859375q0.46875 -0.421875 0.46875 -0.6875q0 -0.046875 -0.09375 -0.125q-0.09375 -0.078125 -0.296875 -0.15625q-0.1875 -0.078125 -0.40625 -0.125q-0.21875 -0.046875 -0.390625 -0.046875zm13.172302 8.125q0.25 0.125 -0.171875 0.9375q-0.421875 0.796875 -0.984375 1.546875q-0.5625 0.734375 -1.34375 1.296875q-0.78125 0.546875 -1.765625 0.546875q-0.46875 0 -0.78125 -0.125q-0.296875 -0.125 -0.515625 -0.359375q-0.203125 -0.234375 -0.359375 -0.515625q-0.15625 -0.28125 -0.421875 -0.671875q-0.078125 -1.375 -0.09375 -2.859375q-0.015625 -1.5 0.140625 -3.0q0.15625 -1.5 0.546875 -2.84375q0.40625 -1.359375 1.15625 -2.34375q0.75 -1.0 1.890625 -1.421875q1.15625 -0.4375 2.3125 -0.171875q0.03125 -0.25 -0.015625 -1.453125q-0.046875 -1.203125 -0.15625 -2.546875q-0.109375 -1.359375 -0.21875 -2.609375q-0.09375 -1.265625 -0.125 -2.109375q0 -0.484375 0.375 -0.671875q0.375 -0.1875 0.6875 -0.21875q0.3125 -0.03125 0.609375 0q0.3125 0.03125 0.671875 0.234375q-0.046875 3.4375 -0.03125 6.53125q0.03125 3.078125 0.0625 6.140625q0.046875 3.0625 0.09375 6.078125q0.0625 3.015625 0.0625 6.03125q0 0.328125 -0.0625 0.828125q-0.0625 0.515625 -0.84375 0.515625q-0.265625 0 -0.53125 -0.15625q-0.265625 -0.140625 -0.390625 -0.546875l0.203125 -6.0625zm-1.0 -7.78125q-0.640625 -0.03125 -1.234375 0.5625q-0.59375 0.59375 -1.078125 1.640625q-0.484375 1.046875 -0.796875 2.328125q-0.296875 1.265625 -0.375 2.4375q-0.0625 1.15625 0.140625 1.984375q0.203125 0.8125 0.515625 1.015625q0.3125 0 0.71875 -0.375q0.421875 -0.390625 0.8125 -1.046875q0.390625 -0.671875 0.6875 -1.515625q0.3125 -0.84375 0.53125 -1.625q0.21875 -0.796875 0.328125 -1.421875q0.109375 -0.640625 0.109375 -0.953125q0 -0.28125 0.015625 -0.828125q0.03125 -0.5625 -0.015625 -1.09375q-0.046875 -0.53125 -0.15625 -0.8125q-0.109375 -0.296875 -0.203125 -0.296875zm4.699829 11.375q0 -1.6875 -0.0625 -3.546875q-0.0625 -1.875 -0.140625 -3.78125q-0.0625 -1.921875 -0.03125 -3.78125q0.03125 -1.875 0.265625 -3.6875q0.28125 -0.1875 0.53125 -0.203125q0.265625 -0.03125 0.359375 -0.03125q0.484375 0 0.84375 0.203125q0.375 0.1875 0.375 0.828125q0 1.546875 -0.015625 3.359375q-0.015625 1.796875 -0.03125 3.65625q0 1.859375 0 3.6875q0 1.828125 0.046875 3.296875q0.046875 0.65625 -0.296875 0.90625q-0.34375 0.234375 -0.765625 0.234375q-0.4375 0 -0.796875 -0.234375q-0.34375 -0.25 -0.28125 -0.90625zm-0.578125 -18.625q0 -0.5625 0.359375 -0.75q0.375 -0.1875 0.734375 -0.1875q0.796875 0 0.984375 0.515625q0.203125 0.5 0.203125 1.125q-0.265625 0.484375 -0.625 0.671875q-0.359375 0.171875 -0.765625 0.078125q-0.390625 -0.109375 -0.640625 -0.484375q-0.25 -0.375 -0.25 -0.96875zm4.524658 13.15625q0.078125 -0.953125 0.15625 -2.0625q0.078125 -1.125 0.25 -2.234375q0.1875 -1.125 0.46875 -2.140625q0.28125 -1.015625 0.765625 -1.84375q0.5 -0.84375 1.265625 -1.359375q0.78125 -0.515625 1.859375 -0.484375q0.859375 0 1.296875 0.671875q0.4375 0.671875 0.59375 1.515625q0.15625 0.828125 0.15625 1.671875q0.015625 0.84375 0.015625 1.765625q-1.125 0 -1.546875 -0.5625q-0.421875 -0.5625 -0.625 -1.203125q-0.1875 -0.65625 -0.28125 -1.28125l0.3125 -0.78125q-0.046875 0.390625 -0.109375 0.25q-0.046875 -0.15625 -0.046875 0.109375q-0.25 0 -0.546875 0.40625q-0.296875 0.390625 -0.609375 1.125q-0.3125 0.71875 -0.546875 1.65625q-0.234375 0.921875 -0.390625 1.828125q-0.140625 0.890625 -0.234375 1.640625q-0.078125 0.734375 -0.078125 1.15625q-0.0625 0.65625 -0.015625 1.4375q0.0625 0.765625 0.296875 1.40625q0.234375 0.625 0.625 1.0625q0.40625 0.421875 1.015625 0.5625q0.84375 0 1.359375 -0.21875q0.515625 -0.21875 0.828125 -0.59375q0.328125 -0.390625 0.515625 -0.90625q0.1875 -0.515625 0.375 -1.09375q0.203125 -0.59375 0.421875 -1.1875q0.234375 -0.609375 0.75 -1.265625q0.625 -0.15625 0.890625 0.03125q0.28125 0.171875 0.359375 0.4375q0.09375 0.25 0.09375 0.515625l0 0.296875q0 1.171875 -0.390625 2.265625q-0.390625 1.078125 -1.15625 1.921875q-0.75 0.84375 -1.796875 1.375q-1.046875 0.515625 -2.390625 0.515625q-1.21875 0 -2.0 -0.75q-0.765625 -0.75 -1.171875 -1.75q-0.40625 -1.0 -0.578125 -2.0625q-0.15625 -1.078125 -0.15625 -1.84375zm12.178223 -4.8125q0.125 0.1875 -0.109375 0.328125q-0.21875 0.125 -0.453125 0.265625q-0.21875 0.125 -0.5 0.203125q-0.28125 0.078125 -0.578125 0.015625q-0.359375 0 -0.515625 -0.3125q-0.171875 -0.328125 -0.25 -0.609375q-0.09375 -0.296875 -0.109375 -0.59375q-0.03125 -0.3125 0.046875 -0.671875l2.453125 -1.40625l0.15625 -6.453125q0.109375 -0.796875 0.6875 -0.671875q0.578125 0.109375 0.9375 0.1875q0.0625 0 0.234375 0.0625q0.1875 0.046875 0.46875 0.25q-0.0625 0.9375 -0.125 1.765625q-0.0625 0.8125 -0.125 1.625q-0.046875 0.8125 -0.0625 1.578125q-0.015625 0.765625 0 0.890625l3.453125 -0.96875q0.46875 -0.140625 0.59375 0.21875q0.140625 0.359375 0.203125 0.625q0.078125 0.25 0.125 0.65625q0.046875 0.390625 0.046875 0.390625l-4.5 1.859375q0.046875 -0.015625 0.078125 0.875q0.046875 0.875 0.09375 2.09375q0.046875 1.203125 0.09375 2.59375q0.0625 1.390625 0.109375 2.59375q0.0625 1.1875 0.078125 2.09375q0.03125 0.90625 0.03125 1.15625q-0.078125 1.171875 -0.75 1.171875q-0.65625 0 -1.375 -0.59375l-0.4375 -11.21875zm7.4711304 10.28125q0 -1.6875 -0.0625 -3.546875q-0.0625 -1.875 -0.140625 -3.78125q-0.0625 -1.921875 -0.03125 -3.78125q0.03125 -1.875 0.265625 -3.6875q0.28125 -0.1875 0.53125 -0.203125q0.265625 -0.03125 0.359375 -0.03125q0.484375 0 0.84375 0.203125q0.375 0.1875 0.375 0.828125q0 1.546875 -0.015625 3.359375q-0.015625 1.796875 -0.03125 3.65625q0 1.859375 0 3.6875q0 1.828125 0.046875 3.296875q0.046875 0.65625 -0.296875 0.90625q-0.34375 0.234375 -0.765625 0.234375q-0.4375 0 -0.796875 -0.234375q-0.34375 -0.25 -0.28125 -0.90625zm-0.578125 -18.625q0 -0.5625 0.359375 -0.75q0.375 -0.1875 0.734375 -0.1875q0.796875 0 0.984375 0.515625q0.203125 0.5 0.203125 1.125q-0.265625 0.484375 -0.625 0.671875q-0.359375 0.171875 -0.765625 0.078125q-0.390625 -0.109375 -0.640625 -0.484375q-0.25 -0.375 -0.25 -0.96875zm4.509033 15.625q-0.1875 -1.203125 -0.1875 -2.359375q0 -1.171875 0.140625 -2.359375q0.140625 -1.1875 0.421875 -2.453125q0.28125 -1.28125 0.640625 -2.703125q0 -0.34375 0.203125 -0.6875q0.21875 -0.34375 0.53125 -0.53125q0.3125 -0.203125 0.65625 -0.328125q0.34375 -0.140625 0.671875 -0.140625q0.71875 0 1.265625 0.4375q0.546875 0.421875 0.953125 0.984375q0.40625 0.5625 0.6875 1.171875q0.28125 0.59375 0.484375 1.046875q0.21875 0.984375 0.3125 2.171875q0.09375 1.1875 0.015625 2.421875q-0.078125 1.21875 -0.390625 2.421875q-0.296875 1.1875 -0.84375 2.21875q-0.546875 1.03125 -1.4375 1.75q-0.890625 0.703125 -2.15625 0.875q-0.828125 0 -1.234375 -0.515625q-0.390625 -0.515625 -0.5625 -1.171875q-0.15625 -0.65625 -0.171875 -1.265625q0 -0.625 0 -0.984375zm2.140625 -0.109375q0 0.25 0 0.46875q0.015625 0.203125 0.046875 0.40625q0.03125 0.203125 0.09375 0.4375q0.078125 0.234375 -0.0625 0.453125l0 -0.203125q0.46875 0 0.828125 -0.328125q0.359375 -0.34375 0.640625 -0.953125q0.28125 -0.609375 0.484375 -1.390625q0.203125 -0.796875 0.3125 -1.5625q0.125 -0.78125 0.15625 -1.453125q0.046875 -0.6875 0.046875 -1.078125l0 -0.53125q0 -0.3125 -0.03125 -0.71875q-0.03125 -0.421875 -0.09375 -0.859375q-0.046875 -0.4375 -0.171875 -0.75q-0.109375 -0.328125 -0.234375 -0.453125q-0.109375 -0.140625 -0.328125 -0.140625q-0.453125 -0.140625 -0.71875 0.03125q-0.265625 0.171875 -0.484375 0.703125q-0.21875 0.53125 -0.34375 1.375q-0.125 0.84375 -0.15625 1.90625q-0.015625 1.046875 0 2.25q0.015625 1.1875 0.015625 2.390625zm6.9191284 3.40625q-0.296875 -3.59375 -0.515625 -7.109375q-0.21875 -3.53125 -0.484375 -7.34375q0 -1.046875 1.078125 -1.046875l0.21875 0q0.328125 0 0.5 0.34375q0.171875 0.328125 0.296875 0.9375q0.125 0.59375 0.265625 1.734375q0.140625 1.140625 0.34375 2.96875q0.21875 1.8125 0.265625 2.71875q-0.03125 0.015625 0.28125 -1.65625q0.3125 -1.671875 0.8125 -3.078125q0.515625 -1.421875 1.46875 -2.546875q0.96875 -1.125 2.859375 -1.671875q1.21875 0.203125 1.84375 1.296875q0.640625 1.078125 1.0 2.5625q0.359375 1.46875 0.484375 3.171875q0.125 1.703125 0.15625 3.25q0.03125 1.53125 0.03125 2.734375q0 1.203125 0.046875 1.8125q-0.140625 0.359375 -0.359375 0.59375q-0.21875 0.21875 -0.515625 0.3125q-0.296875 0.09375 -0.609375 0.03125q-0.3125 -0.078125 -0.625 -0.546875q0 -0.390625 -0.0625 -1.265625q-0.046875 -0.875 -0.125 -2.0625q-0.078125 -1.1875 -0.171875 -2.515625q-0.09375 -1.34375 -0.15625 -2.53125q-0.0625 -1.203125 -0.125 -2.078125q-0.046875 -0.890625 -0.0625 -1.078125q-0.40625 -0.71875 -0.765625 -0.796875q-0.34375 -0.09375 -0.765625 0.28125q-0.421875 0.359375 -0.890625 1.28125q-0.46875 0.90625 -0.90625 2.109375q-0.4375 1.1875 -0.828125 2.515625q-0.390625 1.3125 -0.671875 2.53125q-0.28125 1.21875 -0.46875 2.21875q-0.1875 1.0 -0.265625 1.59375q-0.140625 0.328125 -0.46875 0.5625q-0.3125 0.21875 -0.65625 0.328125q-0.34375 0.09375 -0.765625 0.03125q-0.421875 -0.0625 -0.6875 -0.59375z" fill-rule="nonzero"/><path fill="#000000" fill-opacity="0.0" d="m451.03674 152.95276c36.90793 0 73.71979 2.593155 110.627686 2.593155" fill-rule="evenodd"/><path stroke="#000000" stroke-width="3.0" stroke-linejoin="round" stroke-linecap="butt" d="m451.03674 152.95276c36.90793 0 73.71979 2.593155 110.627686 2.593155" fill-rule="evenodd"/><path fill="#000000" fill-opacity="0.0" d="m113.09943 14.37891l240.09448 0l0 45.259842l-240.09448 0z" fill-rule="evenodd"/><path fill="#cc0000" d="m122.92755 26.29641q0.375 0 0.5 0.015625q0.140625 0.015625 0.28125 0.03125q0.140625 0.015625 0.265625 0.03125q0.140625 0.015625 0.140625 0.015625q0.140625 0 0.484375 0.0625q0.359375 0.046875 0.359375 0.546875l-0.03125 1.453125q-0.0625 -0.015625 0.375 -0.296875q0.4375 -0.296875 1.078125 -0.625q0.65625 -0.328125 1.46875 -0.546875q0.8125 -0.21875 1.890625 -0.109375q1.625 0.328125 2.40625 0.828125q0.78125 0.484375 0.828125 1.140625q0.0625 0.65625 -0.46875 1.3125q-0.515625 0.640625 -1.3125 1.265625q-0.78125 0.625 -1.75 1.234375q-0.953125 0.609375 -1.859375 1.1875q-0.90625 0.578125 -1.640625 1.0625q-0.71875 0.484375 -0.875 0.53125q0.046875 -0.0625 0.6875 0.265625q0.640625 0.328125 1.390625 0.71875q0.765625 0.375 1.59375 0.8125q0.828125 0.4375 1.546875 0.8125q0.71875 0.359375 1.296875 0.640625q0.578125 0.265625 0.828125 0.359375q0.21875 0.109375 0.4375 0.203125q0.15625 0.109375 0.359375 0.234375q0.21875 0.125 0.21875 0.40625q0 0.140625 -0.078125 0.34375q-0.078125 0.203125 -0.203125 0.359375q-0.125 0.15625 -0.3125 0.296875q-0.171875 0.140625 -0.390625 0.140625q-0.078125 0 -0.125 -0.125q-0.03125 -0.125 -0.078125 0.09375q-0.125 -0.046875 -0.390625 -0.15625q-0.25 -0.125 -0.515625 -0.265625q-0.25 -0.140625 -0.46875 -0.25q-0.21875 -0.109375 -0.28125 -0.125q-0.234375 -0.109375 -0.765625 -0.34375q-0.515625 -0.234375 -1.15625 -0.53125q-0.625 -0.3125 -1.34375 -0.65625q-0.703125 -0.359375 -1.34375 -0.671875q-0.625 -0.3125 -1.109375 -0.53125q-0.484375 -0.234375 -0.421875 -0.34375l0.125 6.46875l-1.59375 0l-0.046875 -17.296875zm2.015625 4.03125q-0.015625 0.28125 -0.0625 0.78125q-0.046875 0.5 -0.09375 1.046875q-0.046875 0.53125 -0.078125 1.0625q-0.03125 0.53125 -0.3125 0.84375q-0.1875 -0.21875 0.34375 -0.484375q0.53125 -0.28125 1.234375 -0.640625q0.71875 -0.375 1.53125 -0.828125q0.8125 -0.453125 1.515625 -0.9375q0.71875 -0.484375 1.234375 -0.921875q0.515625 -0.4375 0.625 -0.703125q0.109375 -0.28125 -0.109375 -0.5q-0.203125 -0.234375 -1.125 -0.390625q-0.5 -0.046875 -1.1875 0.0625q-0.6875 0.09375 -1.375 0.34375q-0.6875 0.234375 -1.28125 0.578125q-0.578125 0.328125 -0.859375 0.6875zm9.9505005 8.796875q0.046875 0.25 -0.1875 0.296875q-0.234375 0.046875 -0.53125 0.015625q-0.28125 -0.03125 -0.578125 -0.1875q-0.28125 -0.171875 -0.28125 -0.609375q0 -0.296875 0.125 -0.40625q0.109375 -0.109375 0.25 -0.25q0.4375 -0.34375 0.734375 -0.890625q0.296875 -0.5625 0.5625 -1.21875q0.28125 -0.671875 0.578125 -1.375q0.3125 -0.703125 0.734375 -1.28125q0.4375 -0.578125 1.09375 -0.953125q0.65625 -0.375 1.578125 -0.34375q0.421875 0 0.90625 0.1875q0.484375 0.171875 0.90625 0.484375q0.421875 0.3125 0.703125 0.78125q0.296875 0.453125 0.296875 0.9375q0.203125 0.3125 -0.203125 0.734375q-0.40625 0.40625 -0.953125 0.78125q-0.546875 0.375 -1.21875 0.765625q-0.65625 0.390625 -1.265625 0.71875q-0.59375 0.328125 -1.046875 0.578125q-0.4375 0.234375 -0.5 0.296875q-0.0625 0.125 -0.125 0.375q-0.046875 0.234375 -0.078125 0.46875q-0.03125 0.21875 -0.046875 0.40625q0 0.171875 0 0.28125q0 0.40625 -0.03125 0.875q-0.03125 0.46875 0.03125 0.828125q0.0625 0.34375 0.25 0.546875q0.1875 0.1875 0.6875 0.1875q0.59375 0 1.140625 -0.3125q0.5625 -0.3125 1.046875 -0.78125q0.5 -0.484375 0.921875 -1.046875q0.421875 -0.5625 0.765625 -1.078125q0.34375 -0.53125 0.671875 -0.921875q0.328125 -0.390625 0.671875 -0.390625q0.25 0 0.625 0.109375q0.390625 0.109375 0.390625 0.625q0 0.46875 -0.34375 1.046875q-0.328125 0.5625 -0.84375 1.171875q-0.5 0.609375 -1.15625 1.203125q-0.640625 0.578125 -1.3125 1.03125q-0.671875 0.453125 -1.34375 0.765625q-0.65625 0.296875 -1.203125 0.296875q-1.0625 0 -1.640625 -0.53125q-0.5625 -0.53125 -0.78125 -1.28125q-0.203125 -0.75 -0.21875 -1.546875q0 -0.796875 0.21875 -1.390625zm3.921875 -5.390625q-0.234375 0 -0.578125 0.296875q-0.328125 0.28125 -0.65625 0.75q-0.328125 0.453125 -0.53125 0.921875q-0.1875 0.453125 -0.203125 0.40625q-0.0625 -0.015625 0.484375 -0.234375q0.5625 -0.21875 1.109375 -0.5625q0.5625 -0.34375 0.9375 -0.671875q0.375 -0.328125 0.375 -0.546875q0 -0.03125 -0.078125 -0.09375q-0.0625 -0.0625 -0.21875 -0.125q-0.15625 -0.078125 -0.34375 -0.109375q-0.171875 -0.03125 -0.296875 -0.03125zm6.179886 8.703125q0.140625 -0.953125 0.1875 -2.375q0.0625 -1.421875 0.046875 -3.046875q-0.015625 -1.625 -0.078125 -3.34375q-0.0625 -1.71875 -0.171875 -3.265625q-0.09375 -1.546875 -0.234375 -2.765625q-0.125 -1.21875 -0.328125 -2.140625q0.390625 -0.25 0.578125 -0.34375q0.1875 -0.09375 0.453125 -0.09375q0.21875 0 0.40625 0.109375q0.203125 0.09375 0.328125 0.40625q0.421875 4.15625 0.578125 8.296875q0.15625 4.140625 0.234375 8.265625q0 0.1875 0 0.578125q0 0.390625 -0.140625 0.53125q-0.421875 0.21875 -0.734375 0.203125q-0.3125 -0.015625 -0.578125 -0.15625q-0.25 -0.15625 -0.40625 -0.375q-0.140625 -0.234375 -0.140625 -0.484375zm3.9992828 -3.3125q0.046875 0.25 -0.1875 0.296875q-0.234375 0.046875 -0.53125 0.015625q-0.28125 -0.03125 -0.578125 -0.1875q-0.28125 -0.171875 -0.28125 -0.609375q0 -0.296875 0.125 -0.40625q0.109375 -0.109375 0.25 -0.25q0.4375 -0.34375 0.734375 -0.890625q0.296875 -0.5625 0.5625 -1.21875q0.28125 -0.671875 0.578125 -1.375q0.3125 -0.703125 0.734375 -1.28125q0.4375 -0.578125 1.09375 -0.953125q0.65625 -0.375 1.578125 -0.34375q0.421875 0 0.90625 0.1875q0.484375 0.171875 0.90625 0.484375q0.421875 0.3125 0.703125 0.78125q0.296875 0.453125 0.296875 0.9375q0.203125 0.3125 -0.203125 0.734375q-0.40625 0.40625 -0.953125 0.78125q-0.546875 0.375 -1.21875 0.765625q-0.65625 0.390625 -1.265625 0.71875q-0.59375 0.328125 -1.046875 0.578125q-0.4375 0.234375 -0.5 0.296875q-0.0625 0.125 -0.125 0.375q-0.046875 0.234375 -0.078125 0.46875q-0.03125 0.21875 -0.046875 0.40625q0 0.171875 0 0.28125q0 0.40625 -0.03125 0.875q-0.03125 0.46875 0.03125 0.828125q0.0625 0.34375 0.25 0.546875q0.1875 0.1875 0.6875 0.1875q0.59375 0 1.140625 -0.3125q0.5625 -0.3125 1.046875 -0.78125q0.5 -0.484375 0.921875 -1.046875q0.421875 -0.5625 0.765625 -1.078125q0.34375 -0.53125 0.671875 -0.921875q0.328125 -0.390625 0.671875 -0.390625q0.25 0 0.625 0.109375q0.390625 0.109375 0.390625 0.625q0 0.46875 -0.34375 1.046875q-0.328125 0.5625 -0.84375 1.171875q-0.5 0.609375 -1.15625 1.203125q-0.640625 0.578125 -1.3125 1.03125q-0.671875 0.453125 -1.34375 0.765625q-0.65625 0.296875 -1.203125 0.296875q-1.0625 0 -1.640625 -0.53125q-0.5625 -0.53125 -0.78125 -1.28125q-0.203125 -0.75 -0.21875 -1.546875q0 -0.796875 0.21875 -1.390625zm3.921875 -5.390625q-0.234375 0 -0.578125 0.296875q-0.328125 0.28125 -0.65625 0.75q-0.328125 0.453125 -0.53125 0.921875q-0.1875 0.453125 -0.203125 0.40625q-0.0625 -0.015625 0.484375 -0.234375q0.5625 -0.21875 1.109375 -0.5625q0.5625 -0.34375 0.9375 -0.671875q0.375 -0.328125 0.375 -0.546875q0 -0.03125 -0.078125 -0.09375q-0.0625 -0.0625 -0.21875 -0.125q-0.15625 -0.078125 -0.34375 -0.109375q-0.171875 -0.03125 -0.296875 -0.03125zm5.461136 1.34375q0 -0.0625 -0.015625 -0.109375q0 -0.046875 0 -0.109375q0 -0.578125 0.390625 -0.65625q0.40625 -0.078125 0.640625 -0.078125q0.390625 0 0.734375 0.453125q0.359375 0.453125 0.71875 1.109375q0.375 0.640625 0.765625 1.390625q0.390625 0.75 0.78125 1.46875q0.40625 0.703125 0.8125 1.265625q0.40625 0.546875 0.328125 0.5625q0.03125 -1.421875 0.09375 -2.75q0.0625 -1.34375 0.09375 -2.25q0.03125 -0.90625 0.03125 -1.4375q0 -0.53125 -0.015625 -0.8125q0 -0.28125 -0.015625 -0.375q0 -0.09375 0 -0.15625q0 -0.5625 0.25 -0.703125q0.25 -0.15625 0.578125 -0.15625q0.3125 0 0.734375 0.125q0.4375 0.109375 0.4375 0.703125q0.0625 1.34375 0.015625 2.734375q-0.046875 1.390625 -0.15625 2.765625q-0.109375 1.359375 -0.171875 2.671875q-0.0625 1.296875 0 2.65625q-0.171875 0.1875 -0.375 0.265625q-0.1875 0.0625 -0.375 0.109375q-0.171875 0.046875 -0.34375 0.078125q-0.171875 0.015625 -0.296875 0.015625q-0.375 -0.078125 -0.859375 -0.65625q-0.46875 -0.578125 -1.015625 -1.40625q-0.546875 -0.828125 -1.140625 -1.828125q-0.578125 -1.015625 -1.109375 -1.953125q-0.53125 -0.9375 -0.9375 -1.703125q-0.390625 -0.78125 -0.578125 -1.234375zm14.404404 7.9375q-0.09375 -0.515625 -0.171875 -1.28125q-0.078125 -0.78125 -0.15625 -1.546875q-0.078125 -0.78125 -0.1875 -1.4375q-0.109375 -0.65625 -0.015625 -0.640625q-0.796875 1.765625 -1.625 3.046875q-0.828125 1.265625 -1.515625 1.859375q-0.671875 0.578125 -1.234375 0.546875q-0.5625 -0.03125 -0.90625 -0.46875q-0.328125 -0.4375 -0.453125 -1.03125q-0.125 -0.609375 -0.171875 -1.125q0 -0.515625 0.21875 -1.375q0.21875 -0.859375 0.578125 -1.859375q0.359375 -1.0 0.859375 -2.03125q0.5 -1.046875 1.078125 -1.90625q0.578125 -0.875 1.234375 -1.46875q0.671875 -0.59375 1.375 -0.59375q1.0625 -0.171875 1.59375 0.5q0.546875 0.671875 0.25 2.03125q0 1.328125 0.109375 2.296875q0.109375 0.953125 0.25 1.859375q0.140625 0.890625 0.25 1.890625q0.109375 0.984375 0.109375 2.375q0 0.296875 -0.09375 0.625q-0.078125 0.3125 -0.796875 0.3125q-0.21875 0 -0.40625 -0.203125q-0.171875 -0.21875 -0.171875 -0.375zm-1.125 -9.25q0.015625 0.03125 -0.21875 0.203125q-0.234375 0.15625 -0.65625 0.75q-0.40625 0.59375 -0.859375 1.453125q-0.453125 0.859375 -0.84375 1.75q-0.390625 0.875 -0.6875 1.671875q-0.28125 0.78125 -0.359375 1.234375q0 0.5 0.015625 0.515625q0.03125 0 0.28125 -0.234375q0.25 -0.25 0.65625 -0.84375q0.40625 -0.609375 0.8125 -1.3125q0.40625 -0.703125 0.765625 -1.359375q0.359375 -0.671875 0.5625 -1.078125q0.171875 -0.40625 0.28125 -0.765625q0.109375 -0.359375 0.171875 -0.671875q0.0625 -0.328125 0.0625 -0.65625q0.015625 -0.34375 0.015625 -0.65625zm4.5605927 9.578125q-0.234375 -2.859375 -0.421875 -5.6875q-0.171875 -2.84375 -0.375 -5.875q0 -0.84375 0.875 -0.84375l0.15625 0q0.265625 0 0.40625 0.28125q0.140625 0.265625 0.234375 0.75q0.109375 0.484375 0.21875 1.390625q0.125 0.890625 0.28125 2.359375q0.171875 1.46875 0.203125 2.1875q-0.03125 0 0.21875 -1.328125q0.25 -1.34375 0.65625 -2.46875q0.421875 -1.140625 1.1875 -2.03125q0.765625 -0.890625 2.296875 -1.328125q0.96875 0.15625 1.46875 1.03125q0.515625 0.859375 0.796875 2.046875q0.28125 1.171875 0.375 2.53125q0.109375 1.359375 0.125 2.609375q0.03125 1.234375 0.03125 2.203125q0 0.953125 0.046875 1.421875q-0.109375 0.3125 -0.296875 0.484375q-0.171875 0.171875 -0.40625 0.265625q-0.234375 0.078125 -0.5 0.03125q-0.25 -0.0625 -0.5 -0.453125q0 -0.3125 -0.046875 -1.015625q-0.03125 -0.71875 -0.09375 -1.65625q-0.0625 -0.953125 -0.140625 -2.015625q-0.078125 -1.078125 -0.125 -2.03125q-0.046875 -0.953125 -0.09375 -1.65625q-0.046875 -0.703125 -0.0625 -0.859375q-0.328125 -0.578125 -0.609375 -0.640625q-0.265625 -0.0625 -0.609375 0.234375q-0.328125 0.28125 -0.71875 1.015625q-0.375 0.734375 -0.71875 1.703125q-0.34375 0.953125 -0.65625 2.0q-0.3125 1.046875 -0.546875 2.03125q-0.21875 0.984375 -0.375 1.78125q-0.15625 0.78125 -0.1875 1.25q-0.125 0.296875 -0.390625 0.46875q-0.265625 0.171875 -0.546875 0.25q-0.28125 0.078125 -0.625 0.03125q-0.328125 -0.046875 -0.53125 -0.46875zm10.825607 -8.453125q0.09375 0.125 -0.078125 0.25q-0.15625 0.109375 -0.359375 0.21875q-0.1875 0.109375 -0.40625 0.15625q-0.21875 0.046875 -0.453125 0.015625q-0.28125 0 -0.421875 -0.25q-0.15625 -0.265625 -0.203125 -0.5q-0.0625 -0.234375 -0.078125 -0.453125q-0.03125 -0.234375 0.015625 -0.546875l1.96875 -1.125l0.125 -5.171875q0.109375 -0.609375 0.5625 -0.53125q0.46875 0.0625 0.75 0.15625q0.046875 0 0.171875 0.046875q0.125 0.03125 0.40625 0.125q-0.0625 0.828125 -0.125 1.484375q-0.046875 0.640625 -0.09375 1.296875q-0.03125 0.65625 -0.046875 1.265625q0 0.609375 0.015625 0.703125l2.765625 -0.765625q0.359375 -0.078125 0.46875 0.1875q0.109375 0.265625 0.15625 0.484375q0.0625 0.203125 0.09375 0.53125q0.046875 0.3125 0.046875 0.3125l-3.625 1.484375q0.046875 0 0.078125 0.703125q0.03125 0.6875 0.078125 1.65625q0.046875 0.96875 0.078125 2.09375q0.046875 1.109375 0.078125 2.078125q0.046875 0.953125 0.0625 1.6875q0.03125 0.71875 0.03125 0.921875q-0.078125 0.9375 -0.609375 0.9375q-0.53125 0 -1.09375 -0.484375l-0.359375 -8.96875zm15.98584 0q0.09375 0.125 -0.078125 0.25q-0.15625 0.109375 -0.359375 0.21875q-0.1875 0.109375 -0.40625 0.15625q-0.21875 0.046875 -0.453125 0.015625q-0.28125 0 -0.421875 -0.25q-0.15625 -0.265625 -0.203125 -0.5q-0.0625 -0.234375 -0.078125 -0.453125q-0.03125 -0.234375 0.015625 -0.546875l1.96875 -1.125l0.125 -5.171875q0.109375 -0.609375 0.5625 -0.53125q0.46875 0.0625 0.75 0.15625q0.046875 0 0.171875 0.046875q0.125 0.03125 0.40625 0.125q-0.0625 0.828125 -0.125 1.484375q-0.046875 0.640625 -0.09375 1.296875q-0.03125 0.65625 -0.046875 1.265625q0 0.609375 0.015625 0.703125l2.765625 -0.765625q0.359375 -0.078125 0.46875 0.1875q0.109375 0.265625 0.15625 0.484375q0.0625 0.203125 0.09375 0.53125q0.046875 0.3125 0.046875 0.3125l-3.625 1.484375q0.046875 0 0.078125 0.703125q0.03125 0.6875 0.078125 1.65625q0.046875 0.96875 0.078125 2.09375q0.046875 1.109375 0.078125 2.078125q0.046875 0.953125 0.0625 1.6875q0.03125 0.71875 0.03125 0.921875q-0.078125 0.9375 -0.609375 0.9375q-0.53125 0 -1.09375 -0.484375l-0.359375 -8.96875zm5.618393 5.8125q-0.140625 -0.953125 -0.140625 -1.875q0 -0.9375 0.109375 -1.890625q0.125 -0.96875 0.34375 -1.984375q0.234375 -1.015625 0.5 -2.140625q0 -0.28125 0.171875 -0.546875q0.171875 -0.28125 0.421875 -0.4375q0.265625 -0.171875 0.53125 -0.265625q0.265625 -0.109375 0.546875 -0.109375q0.5625 0 1.0 0.34375q0.4375 0.34375 0.765625 0.796875q0.328125 0.4375 0.546875 0.921875q0.234375 0.484375 0.390625 0.84375q0.1875 0.796875 0.25 1.75q0.078125 0.9375 0.015625 1.921875q-0.0625 0.984375 -0.296875 1.953125q-0.234375 0.96875 -0.6875 1.78125q-0.453125 0.8125 -1.171875 1.390625q-0.703125 0.5625 -1.71875 0.703125q-0.65625 0 -0.984375 -0.40625q-0.3125 -0.421875 -0.4375 -0.9375q-0.125 -0.515625 -0.140625 -1.015625q-0.015625 -0.515625 -0.015625 -0.796875zm1.71875 -0.09375q0 0.203125 0.015625 0.375q0.015625 0.171875 0.046875 0.34375q0.03125 0.15625 0.0625 0.34375q0.046875 0.1875 -0.046875 0.34375l0 -0.140625q0.375 0 0.65625 -0.265625q0.28125 -0.265625 0.5 -0.75q0.234375 -0.5 0.390625 -1.125q0.15625 -0.640625 0.25 -1.25q0.09375 -0.625 0.125 -1.171875q0.03125 -0.546875 0.03125 -0.859375l0 -0.421875q0 -0.265625 -0.015625 -0.59375q-0.015625 -0.328125 -0.078125 -0.671875q-0.046875 -0.34375 -0.140625 -0.59375q-0.078125 -0.265625 -0.171875 -0.375q-0.09375 -0.109375 -0.265625 -0.109375q-0.359375 -0.109375 -0.578125 0.03125q-0.21875 0.140625 -0.390625 0.5625q-0.171875 0.40625 -0.265625 1.09375q-0.09375 0.6875 -0.125 1.53125q-0.015625 0.828125 -0.015625 1.796875q0.015625 0.953125 0.015625 1.90625zm14.787933 -12.578125q0 -0.390625 0.21875 -0.546875q0.234375 -0.15625 0.453125 -0.15625q0.21875 -0.015625 0.390625 0.015625q0.1875 0.015625 0.53125 0.015625q0.1875 0.5 0.265625 1.265625q0.078125 0.75 0.140625 1.8125q0.078125 1.0625 0.109375 2.328125q0.03125 1.265625 0.0625 2.578125q0.03125 1.3125 0.03125 2.5625q0.015625 1.25 0.03125 2.28125q0.015625 1.03125 0.015625 1.765625l0 0.953125q-0.046875 0.59375 -0.34375 0.75q-0.296875 0.15625 -0.984375 -0.0625q-0.28125 -0.0625 -0.328125 -0.796875q-0.046875 -0.734375 -0.078125 -1.71875q-0.015625 -1.0 -0.03125 -2.28125q-0.015625 -1.28125 -0.046875 -2.640625q-0.015625 -1.359375 -0.046875 -2.703125q-0.03125 -1.34375 -0.078125 -2.453125q-0.03125 -1.109375 -0.109375 -1.875q-0.078125 -0.78125 -0.203125 -1.09375zm4.270035 15.3125q-0.234375 -2.859375 -0.421875 -5.6875q-0.171875 -2.84375 -0.375 -5.875q0 -0.84375 0.875 -0.84375l0.15625 0q0.265625 0 0.40625 0.28125q0.140625 0.265625 0.234375 0.75q0.109375 0.484375 0.21875 1.390625q0.125 0.890625 0.28125 2.359375q0.171875 1.46875 0.203125 2.1875q-0.03125 0 0.21875 -1.328125q0.25 -1.34375 0.65625 -2.46875q0.421875 -1.140625 1.1875 -2.03125q0.765625 -0.890625 2.296875 -1.328125q0.96875 0.15625 1.46875 1.03125q0.515625 0.859375 0.796875 2.046875q0.28125 1.171875 0.375 2.53125q0.109375 1.359375 0.125 2.609375q0.03125 1.234375 0.03125 2.203125q0 0.953125 0.046875 1.421875q-0.109375 0.3125 -0.296875 0.484375q-0.171875 0.171875 -0.40625 0.265625q-0.234375 0.078125 -0.5 0.03125q-0.25 -0.0625 -0.5 -0.453125q0 -0.3125 -0.046875 -1.015625q-0.03125 -0.71875 -0.09375 -1.65625q-0.0625 -0.953125 -0.140625 -2.015625q-0.078125 -1.078125 -0.125 -2.03125q-0.046875 -0.953125 -0.09375 -1.65625q-0.046875 -0.703125 -0.0625 -0.859375q-0.328125 -0.578125 -0.609375 -0.640625q-0.265625 -0.0625 -0.609375 0.234375q-0.328125 0.28125 -0.71875 1.015625q-0.375 0.734375 -0.71875 1.703125q-0.34375 0.953125 -0.65625 2.0q-0.3125 1.046875 -0.546875 2.03125q-0.21875 0.984375 -0.375 1.78125q-0.15625 0.78125 -0.1875 1.25q-0.125 0.296875 -0.390625 0.46875q-0.265625 0.171875 -0.546875 0.25q-0.28125 0.078125 -0.625 0.03125q-0.328125 -0.046875 -0.53125 -0.46875zm14.872482 -3.09375q0.1875 0.09375 -0.140625 0.734375q-0.328125 0.640625 -0.78125 1.234375q-0.453125 0.59375 -1.078125 1.03125q-0.625 0.4375 -1.421875 0.4375q-0.375 0 -0.609375 -0.09375q-0.234375 -0.09375 -0.421875 -0.28125q-0.171875 -0.203125 -0.296875 -0.40625q-0.109375 -0.21875 -0.328125 -0.53125q-0.0625 -1.125 -0.078125 -2.3125q0 -1.1875 0.125 -2.390625q0.125 -1.203125 0.4375 -2.28125q0.3125 -1.09375 0.90625 -1.890625q0.609375 -0.796875 1.53125 -1.125q0.9375 -0.34375 1.859375 -0.140625q0.015625 -0.1875 -0.03125 -1.15625q-0.046875 -0.96875 -0.125 -2.03125q-0.078125 -1.078125 -0.171875 -2.09375q-0.078125 -1.03125 -0.09375 -1.6875q0 -0.375 0.28125 -0.53125q0.296875 -0.15625 0.546875 -0.1875q0.265625 -0.03125 0.515625 0q0.265625 0.03125 0.53125 0.234375q-0.03125 2.71875 -0.015625 5.1875q0.015625 2.46875 0.046875 4.921875q0.03125 2.4375 0.078125 4.859375q0.046875 2.40625 0.046875 4.828125q0 0.234375 -0.046875 0.65625q-0.046875 0.421875 -0.6875 0.421875q-0.21875 0 -0.453125 -0.140625q-0.21875 -0.140625 -0.28125 -0.453125l0.15625 -4.8125zm-0.8125 -6.25q-0.5 -0.03125 -0.984375 0.453125q-0.484375 0.46875 -0.875 1.3125q-0.375 0.828125 -0.625 1.859375q-0.234375 1.015625 -0.28125 1.953125q-0.046875 0.921875 0.09375 1.578125q0.15625 0.65625 0.4375 0.8125q0.234375 0 0.5625 -0.296875q0.34375 -0.296875 0.640625 -0.828125q0.3125 -0.53125 0.546875 -1.203125q0.25 -0.6875 0.421875 -1.3125q0.171875 -0.640625 0.265625 -1.140625q0.09375 -0.515625 0.09375 -0.765625q0 -0.21875 0.015625 -0.65625q0.03125 -0.453125 -0.015625 -0.875q-0.046875 -0.421875 -0.140625 -0.65625q-0.078125 -0.234375 -0.15625 -0.234375zm9.107727 7.40625q0.15625 0.109375 -0.1875 0.578125q-0.34375 0.453125 -0.8125 0.90625q-0.453125 0.4375 -0.984375 0.796875q-0.515625 0.359375 -0.96875 0.359375q-0.84375 0 -1.34375 -0.71875q-0.484375 -0.71875 -0.734375 -1.734375q-0.234375 -1.03125 -0.3125 -2.25q-0.078125 -1.21875 -0.109375 -2.359375q-0.015625 -1.15625 -0.015625 -2.078125q0 -0.9375 -0.078125 -1.484375q0.171875 -0.421875 0.40625 -0.5q0.25 -0.078125 0.484375 -0.078125q0.203125 0 0.4375 0.078125q0.234375 0.078125 0.421875 0.46875q0 0.3125 0.015625 0.84375q0.015625 0.53125 0.046875 1.21875q0.046875 0.671875 0.078125 1.40625q0.046875 0.734375 0.078125 1.40625q0.03125 0.671875 0.0625 1.203125q0.03125 0.515625 0.0625 0.765625q0.015625 0.140625 0.046875 0.46875q0.03125 0.328125 0.09375 0.671875q0.0625 0.328125 0.125 0.53125q0.078125 0.203125 0.0625 0.171875q0.171875 0 0.4375 -0.21875q0.265625 -0.21875 0.546875 -0.609375q0.296875 -0.390625 0.5625 -0.875q0.265625 -0.484375 0.46875 -0.9375q0.21875 -0.46875 0.328125 -0.8125q0.109375 -0.34375 0.125 -0.484375q0.046875 -0.34375 0.078125 -0.984375q0.046875 -0.65625 0.0625 -1.390625q0.03125 -0.75 0.03125 -1.421875q0.015625 -0.671875 0.015625 -1.359375l1.796875 0.09375q0.03125 2.0 -0.015625 3.359375q-0.046875 1.359375 -0.03125 2.546875q0.03125 1.1875 0.1875 2.296875q0.15625 1.09375 0.65625 2.453125q-0.234375 0.25 -0.484375 0.390625q-0.234375 0.15625 -0.40625 0.15625q-0.71875 0 -0.953125 -0.453125q-0.234375 -0.46875 -0.296875 -0.96875q-0.0625 -0.5 -0.09375 -0.90625q-0.015625 -0.421875 0.109375 -0.546875zm3.253189 -2.6875q0.0625 -0.765625 0.125 -1.640625q0.0625 -0.890625 0.1875 -1.78125q0.140625 -0.890625 0.375 -1.703125q0.234375 -0.828125 0.625 -1.5q0.390625 -0.671875 1.0 -1.078125q0.625 -0.40625 1.484375 -0.390625q0.703125 0 1.046875 0.546875q0.359375 0.53125 0.46875 1.203125q0.125 0.671875 0.140625 1.34375q0.015625 0.671875 0.015625 1.40625q-0.90625 0 -1.25 -0.4375q-0.34375 -0.453125 -0.5 -0.984375q-0.15625 -0.53125 -0.21875 -1.0l0.234375 -0.609375q-0.046875 0.296875 -0.09375 0.21875q-0.03125 -0.09375 -0.03125 0.046875q-0.1875 0 -0.4375 0.328125q-0.234375 0.3125 -0.484375 0.890625q-0.234375 0.578125 -0.421875 1.328125q-0.171875 0.734375 -0.296875 1.453125q-0.125 0.71875 -0.203125 1.328125q-0.078125 0.59375 -0.078125 0.921875q-0.03125 0.53125 0 1.140625q0.046875 0.609375 0.234375 1.125q0.1875 0.5 0.5 0.84375q0.328125 0.34375 0.828125 0.46875q0.65625 0 1.0625 -0.171875q0.40625 -0.1875 0.671875 -0.484375q0.265625 -0.3125 0.40625 -0.71875q0.15625 -0.40625 0.3125 -0.875q0.15625 -0.46875 0.328125 -0.953125q0.1875 -0.484375 0.609375 -1.015625q0.5 -0.125 0.703125 0.015625q0.21875 0.140625 0.296875 0.34375q0.078125 0.203125 0.078125 0.4375l0 0.21875q0 0.9375 -0.328125 1.8125q-0.3125 0.859375 -0.921875 1.546875q-0.59375 0.6875 -1.4375 1.109375q-0.84375 0.40625 -1.921875 0.40625q-0.953125 0 -1.59375 -0.59375q-0.625 -0.609375 -0.9375 -1.40625q-0.3125 -0.796875 -0.453125 -1.640625q-0.125 -0.859375 -0.125 -1.5zm9.721924 -3.828125q0.09375 0.125 -0.078125 0.25q-0.15625 0.109375 -0.359375 0.21875q-0.1875 0.109375 -0.40625 0.15625q-0.21875 0.046875 -0.453125 0.015625q-0.28125 0 -0.421875 -0.25q-0.15625 -0.265625 -0.203125 -0.5q-0.0625 -0.234375 -0.078125 -0.453125q-0.03125 -0.234375 0.015625 -0.546875l1.96875 -1.125l0.125 -5.171875q0.109375 -0.609375 0.5625 -0.53125q0.46875 0.0625 0.75 0.15625q0.046875 0 0.171875 0.046875q0.125 0.03125 0.40625 0.125q-0.0625 0.828125 -0.125 1.484375q-0.046875 0.640625 -0.09375 1.296875q-0.03125 0.65625 -0.046875 1.265625q0 0.609375 0.015625 0.703125l2.765625 -0.765625q0.359375 -0.078125 0.46875 0.1875q0.109375 0.265625 0.15625 0.484375q0.0625 0.203125 0.09375 0.53125q0.046875 0.3125 0.046875 0.3125l-3.625 1.484375q0.046875 0 0.078125 0.703125q0.03125 0.6875 0.078125 1.65625q0.046875 0.96875 0.078125 2.09375q0.046875 1.109375 0.078125 2.078125q0.046875 0.953125 0.0625 1.6875q0.03125 0.71875 0.03125 0.921875q-0.078125 0.9375 -0.609375 0.9375q-0.53125 0 -1.09375 -0.484375l-0.359375 -8.96875zm5.977783 8.203125q0 -1.328125 -0.0625 -2.8125q-0.046875 -1.5 -0.09375 -3.03125q-0.046875 -1.546875 -0.03125 -3.03125q0.015625 -1.484375 0.21875 -3.015625q0.28125 -0.09375 0.453125 -0.109375q0.1875 -0.015625 0.265625 -0.015625q0.359375 0 0.65625 0.15625q0.3125 0.15625 0.3125 0.671875q0 1.234375 -0.015625 2.6875q0 1.4375 -0.015625 2.9375q-0.015625 1.484375 -0.015625 2.9375q0 1.453125 0.046875 2.625q0.015625 0.53125 -0.25 0.734375q-0.265625 0.203125 -0.59375 0.203125q-0.34375 0 -0.640625 -0.203125q-0.296875 -0.203125 -0.234375 -0.734375zm-0.453125 -14.890625q0 -0.453125 0.28125 -0.59375q0.296875 -0.15625 0.578125 -0.15625q0.65625 0 0.796875 0.40625q0.15625 0.40625 0.15625 0.921875q-0.21875 0.375 -0.5 0.515625q-0.28125 0.140625 -0.609375 0.0625q-0.3125 -0.078125 -0.515625 -0.375q-0.1875 -0.3125 -0.1875 -0.78125zm3.3326416 6.875q0 -0.0625 -0.015625 -0.109375q0 -0.046875 0 -0.109375q0 -0.578125 0.390625 -0.65625q0.40625 -0.078125 0.640625 -0.078125q0.390625 0 0.734375 0.453125q0.359375 0.453125 0.71875 1.109375q0.375 0.640625 0.765625 1.390625q0.390625 0.75 0.78125 1.46875q0.40625 0.703125 0.8125 1.265625q0.40625 0.546875 0.328125 0.5625q0.03125 -1.421875 0.09375 -2.75q0.0625 -1.34375 0.09375 -2.25q0.03125 -0.90625 0.03125 -1.4375q0 -0.53125 -0.015625 -0.8125q0 -0.28125 -0.015625 -0.375q0 -0.09375 0 -0.15625q0 -0.5625 0.25 -0.703125q0.25 -0.15625 0.578125 -0.15625q0.3125 0 0.734375 0.125q0.4375 0.109375 0.4375 0.703125q0.0625 1.34375 0.015625 2.734375q-0.046875 1.390625 -0.15625 2.765625q-0.109375 1.359375 -0.171875 2.671875q-0.0625 1.296875 0 2.65625q-0.171875 0.1875 -0.375 0.265625q-0.1875 0.0625 -0.375 0.109375q-0.171875 0.046875 -0.34375 0.078125q-0.171875 0.015625 -0.296875 0.015625q-0.375 -0.078125 -0.859375 -0.65625q-0.46875 -0.578125 -1.015625 -1.40625q-0.546875 -0.828125 -1.140625 -1.828125q-0.578125 -1.015625 -1.109375 -1.953125q-0.53125 -0.9375 -0.9375 -1.703125q-0.390625 -0.78125 -0.578125 -1.234375zm9.341888 4.046875q0.046875 0.25 -0.1875 0.296875q-0.234375 0.046875 -0.53125 0.015625q-0.28125 -0.03125 -0.578125 -0.1875q-0.28125 -0.171875 -0.28125 -0.609375q0 -0.296875 0.125 -0.40625q0.109375 -0.109375 0.25 -0.25q0.4375 -0.34375 0.734375 -0.890625q0.296875 -0.5625 0.5625 -1.21875q0.28125 -0.671875 0.578125 -1.375q0.3125 -0.703125 0.734375 -1.28125q0.4375 -0.578125 1.09375 -0.953125q0.65625 -0.375 1.578125 -0.34375q0.421875 0 0.90625 0.1875q0.484375 0.171875 0.90625 0.484375q0.421875 0.3125 0.703125 0.78125q0.296875 0.453125 0.296875 0.9375q0.203125 0.3125 -0.203125 0.734375q-0.40625 0.40625 -0.953125 0.78125q-0.546875 0.375 -1.21875 0.765625q-0.65625 0.390625 -1.265625 0.71875q-0.59375 0.328125 -1.046875 0.578125q-0.4375 0.234375 -0.5 0.296875q-0.0625 0.125 -0.125 0.375q-0.046875 0.234375 -0.078125 0.46875q-0.03125 0.21875 -0.046875 0.40625q0 0.171875 0 0.28125q0 0.40625 -0.03125 0.875q-0.03125 0.46875 0.03125 0.828125q0.0625 0.34375 0.25 0.546875q0.1875 0.1875 0.6875 0.1875q0.59375 0 1.140625 -0.3125q0.5625 -0.3125 1.046875 -0.78125q0.5 -0.484375 0.921875 -1.046875q0.421875 -0.5625 0.765625 -1.078125q0.34375 -0.53125 0.671875 -0.921875q0.328125 -0.390625 0.671875 -0.390625q0.25 0 0.625 0.109375q0.390625 0.109375 0.390625 0.625q0 0.46875 -0.34375 1.046875q-0.328125 0.5625 -0.84375 1.171875q-0.5 0.609375 -1.15625 1.203125q-0.640625 0.578125 -1.3125 1.03125q-0.671875 0.453125 -1.34375 0.765625q-0.65625 0.296875 -1.203125 0.296875q-1.0625 0 -1.640625 -0.53125q-0.5625 -0.53125 -0.78125 -1.28125q-0.203125 -0.75 -0.21875 -1.546875q0 -0.796875 0.21875 -1.390625zm3.921875 -5.390625q-0.234375 0 -0.578125 0.296875q-0.328125 0.28125 -0.65625 0.75q-0.328125 0.453125 -0.53125 0.921875q-0.1875 0.453125 -0.203125 0.40625q-0.0625 -0.015625 0.484375 -0.234375q0.5625 -0.21875 1.109375 -0.5625q0.5625 -0.34375 0.9375 -0.671875q0.375 -0.328125 0.375 -0.546875q0 -0.03125 -0.078125 -0.09375q-0.0625 -0.0625 -0.21875 -0.125q-0.15625 -0.078125 -0.34375 -0.109375q-0.171875 -0.03125 -0.296875 -0.03125zm15.625458 -2.90625q-0.171875 -0.296875 -0.25 -0.5625q-0.0625 -0.265625 -0.0625 -0.625q0 -0.140625 0.015625 -0.28125q0.03125 -0.140625 0.125 -0.296875q0.09375 -0.171875 0.3125 -0.25q0.234375 -0.078125 0.53125 0.015625q0.1875 0.078125 0.34375 0.21875q0.171875 0.140625 0.3125 0.359375q0.140625 0.203125 0.203125 0.390625q0.078125 0.171875 -0.140625 0.25q0.25 -0.484375 0.828125 -0.875q0.578125 -0.390625 1.234375 -0.703125q0.671875 -0.328125 1.359375 -0.515625q0.6875 -0.203125 1.328125 -0.203125q0.234375 0 0.5625 0.046875q0.328125 0.046875 0.625 0.171875q0.3125 0.125 0.5625 0.375q0.25 0.234375 0.25 0.640625q0.0625 0.546875 -0.140625 1.109375q-0.1875 0.5625 -0.5 1.0625q-0.3125 0.5 -0.71875 0.984375q-0.390625 0.46875 -0.78125 0.890625q-0.390625 0.40625 -0.703125 0.75q-0.296875 0.34375 -0.5 0.1875q0.484375 -0.625 1.515625 -0.90625q1.03125 -0.28125 2.078125 -0.28125q0.328125 0 0.71875 0.03125q0.40625 0.03125 0.78125 0.1875q0.375 0.140625 0.640625 0.453125q0.265625 0.3125 0.265625 0.84375q0 0.5 -0.40625 1.296875q-0.40625 0.78125 -1.03125 1.6875q-0.609375 0.890625 -1.359375 1.8125q-0.75 0.90625 -1.453125 1.65625q-0.6875 0.75 -1.296875 1.265625q-0.609375 0.515625 -1.03125 0.515625l-0.859375 -0.390625q0.203125 -0.734375 0.640625 -1.3125q0.4375 -0.578125 1.015625 -1.171875q0.578125 -0.59375 1.234375 -1.234375q0.65625 -0.640625 1.234375 -1.234375q0.578125 -0.609375 0.984375 -1.140625q0.421875 -0.546875 0.515625 -0.890625q0.109375 -0.359375 -0.0625 -0.5625q-0.15625 -0.21875 -0.765625 -0.359375q-0.734375 0 -1.59375 0.265625q-0.84375 0.265625 -1.625 0.765625q-0.765625 0.5 -1.359375 1.1875q-0.59375 0.671875 -0.859375 1.4375q0 0.5 0.09375 1.046875q0.09375 0.546875 0.203125 1.109375q0.109375 0.546875 0.203125 1.125q0.09375 0.578125 0.09375 1.171875q0 0.453125 -0.09375 0.875q-0.09375 0.40625 -0.828125 0.40625q-0.046875 0 -0.296875 -0.015625q-0.25 -0.03125 -0.140625 -0.328125l-1.953125 -12.453125zm1.96875 1.203125q0 0.765625 0.09375 1.59375q0.109375 0.8125 0.21875 1.140625q-0.015625 -0.015625 0.4375 -0.453125q0.46875 -0.453125 0.96875 -0.96875q0.5 -0.515625 0.984375 -1.078125q0.5 -0.578125 0.890625 -1.09375q0.390625 -0.53125 0.59375 -0.953125q0.21875 -0.421875 0.21875 -0.65625q0 -0.0625 -0.03125 -0.078125q-0.03125 -0.015625 -0.15625 -0.015625q-0.453125 0 -1.203125 0.203125q-0.734375 0.203125 -1.421875 0.5625q-0.671875 0.34375 -1.140625 0.8125q-0.453125 0.46875 -0.453125 0.984375zm10.189911 11.0625q0 -1.328125 -0.0625 -2.8125q-0.046875 -1.5 -0.09375 -3.03125q-0.046875 -1.546875 -0.03125 -3.03125q0.015625 -1.484375 0.21875 -3.015625q0.28125 -0.09375 0.453125 -0.109375q0.1875 -0.015625 0.265625 -0.015625q0.359375 0 0.65625 0.15625q0.3125 0.15625 0.3125 0.671875q0 1.234375 -0.015625 2.6875q0 1.4375 -0.015625 2.9375q-0.015625 1.484375 -0.015625 2.9375q0 1.453125 0.046875 2.625q0.015625 0.53125 -0.25 0.734375q-0.265625 0.203125 -0.59375 0.203125q-0.34375 0 -0.640625 -0.203125q-0.296875 -0.203125 -0.234375 -0.734375zm-0.453125 -14.890625q0 -0.453125 0.28125 -0.59375q0.296875 -0.15625 0.578125 -0.15625q0.65625 0 0.796875 0.40625q0.15625 0.40625 0.15625 0.921875q-0.21875 0.375 -0.5 0.515625q-0.28125 0.140625 -0.609375 0.0625q-0.3125 -0.078125 -0.515625 -0.375q-0.1875 -0.3125 -0.1875 -0.78125zm9.520142 14.8125q-0.09375 -0.515625 -0.171875 -1.28125q-0.078125 -0.78125 -0.15625 -1.546875q-0.078125 -0.78125 -0.1875 -1.4375q-0.109375 -0.65625 -0.015625 -0.640625q-0.796875 1.765625 -1.625 3.046875q-0.828125 1.265625 -1.515625 1.859375q-0.671875 0.578125 -1.234375 0.546875q-0.5625 -0.03125 -0.90625 -0.46875q-0.328125 -0.4375 -0.453125 -1.03125q-0.125 -0.609375 -0.171875 -1.125q0 -0.515625 0.21875 -1.375q0.21875 -0.859375 0.578125 -1.859375q0.359375 -1.0 0.859375 -2.03125q0.5 -1.046875 1.078125 -1.90625q0.578125 -0.875 1.234375 -1.46875q0.671875 -0.59375 1.375 -0.59375q1.0625 -0.171875 1.59375 0.5q0.546875 0.671875 0.25 2.03125q0 1.328125 0.109375 2.296875q0.109375 0.953125 0.25 1.859375q0.140625 0.890625 0.25 1.890625q0.109375 0.984375 0.109375 2.375q0 0.296875 -0.09375 0.625q-0.078125 0.3125 -0.796875 0.3125q-0.21875 0 -0.40625 -0.203125q-0.171875 -0.21875 -0.171875 -0.375zm-1.125 -9.25q0.015625 0.03125 -0.21875 0.203125q-0.234375 0.15625 -0.65625 0.75q-0.40625 0.59375 -0.859375 1.453125q-0.453125 0.859375 -0.84375 1.75q-0.390625 0.875 -0.6875 1.671875q-0.28125 0.78125 -0.359375 1.234375q0 0.5 0.015625 0.515625q0.03125 0 0.28125 -0.234375q0.25 -0.25 0.65625 -0.84375q0.40625 -0.609375 0.8125 -1.3125q0.40625 -0.703125 0.765625 -1.359375q0.359375 -0.671875 0.5625 -1.078125q0.171875 -0.40625 0.28125 -0.765625q0.109375 -0.359375 0.171875 -0.671875q0.0625 -0.328125 0.0625 -0.65625q0.015625 -0.34375 0.015625 -0.65625zm5.654358 9.453125q0.015625 0 0.359375 -0.390625q0.34375 -0.40625 0.953125 -0.84375q0.609375 -0.453125 1.234375 -0.96875q0.640625 -0.515625 1.015625 -0.9375q0.375 -0.4375 0.375 -0.578125q0.015625 -0.140625 -0.28125 -0.1875q-0.6875 -0.09375 -1.15625 0.03125q-0.46875 0.109375 -0.875 0.265625q-0.390625 0.15625 -0.796875 0.328125q-0.40625 0.15625 -0.90625 0.109375q-1.09375 0 -1.515625 -0.6875q-0.40625 -0.6875 -0.40625 -1.765625q0 -1.0625 0.46875 -2.0q0.46875 -0.953125 1.1875 -1.640625q0.734375 -0.6875 1.6875 -1.09375q0.96875 -0.40625 1.96875 -0.40625q0.40625 0 0.828125 0.09375q0.421875 0.09375 0.421875 0.78125q0 0.40625 -0.34375 0.78125q-0.34375 0.359375 -0.796875 0.359375q-0.09375 0 -0.21875 -0.046875q-0.125 -0.046875 -0.21875 -0.109375q-0.078125 -0.0625 -0.09375 -0.1875q-0.015625 -0.140625 -0.0625 0.09375q-0.578125 -0.15625 -1.125 0.171875q-0.53125 0.3125 -0.984375 0.90625q-0.453125 0.578125 -0.734375 1.28125q-0.265625 0.6875 -0.265625 1.203125q0 0.125 0.03125 0.1875q0.046875 0.046875 0.125 0.078125q0.078125 0.03125 0.25 0.046875q0.171875 0 0.375 0q0.375 0 0.765625 -0.109375q0.390625 -0.125 0.796875 -0.28125q0.40625 -0.171875 0.859375 -0.296875q0.46875 -0.140625 0.96875 -0.140625q0.296875 0 0.609375 0.15625q0.3125 0.140625 0.546875 0.40625q0.234375 0.25 0.40625 0.578125q0.1875 0.328125 0.203125 0.671875q0.15625 0.375 -0.078125 0.9375q-0.234375 0.546875 -0.65625 1.125q-0.40625 0.5625 -0.984375 1.140625q-0.578125 0.5625 -1.171875 1.03125q-0.578125 0.453125 -1.171875 0.75q-0.578125 0.3125 -1.03125 0.296875q-0.671875 0 -0.78125 -0.390625q-0.109375 -0.390625 0.21875 -0.75z" fill-rule="nonzero"/><path fill="#000000" fill-opacity="0.0" d="m303.958 155.27296c-8.510132 -4.2518463 -18.194427 -7.181305 -24.921265 -13.908142" fill-rule="evenodd"/><path stroke="#000000" stroke-width="3.0" stroke-linejoin="round" stroke-linecap="butt" d="m303.958 155.27296c-8.510132 -4.2518463 -18.194427 -7.181305 -24.921265 -13.908142" fill-rule="evenodd"/><path fill="#000000" fill-opacity="0.0" d="m303.958 155.85301c-6.906189 3.4511414 -13.280731 7.8903046 -19.706024 12.1706085" fill-rule="evenodd"/><path stroke="#000000" stroke-width="3.0" stroke-linejoin="round" stroke-linecap="butt" d="m303.958 155.85301c-6.906189 3.4511414 -13.280731 7.8903046 -19.706024 12.1706085" fill-rule="evenodd"/><path fill="#000000" fill-opacity="0.0" d="m560.7087 155.27296c-7.117859 -3.1614838 -14.480103 -5.7899017 -21.446228 -9.2729645" fill-rule="evenodd"/><path stroke="#000000" stroke-width="3.0" stroke-linejoin="round" stroke-linecap="butt" d="m560.7087 155.27296c-7.117859 -3.1614838 -14.480103 -5.7899017 -21.446228 -9.2729645" fill-rule="evenodd"/><path fill="#000000" fill-opacity="0.0" d="m562.44617 153.53543c-6.1048584 6.1048737 -13.601135 10.703537 -19.705994 16.808395" fill-rule="evenodd"/><path stroke="#000000" stroke-width="3.0" stroke-linejoin="round" stroke-linecap="butt" d="m562.44617 153.53543c-6.1048584 6.1048737 -13.601135 10.703537 -19.705994 16.808395" fill-rule="evenodd"/><path fill="#000000" fill-opacity="0.0" d="m192.09973 287.99738c39.00052 -36.409897 78.495636 -72.95853 122.868774 -102.5853" fill-rule="evenodd"/><path stroke="#000000" stroke-width="3.0" stroke-linejoin="round" stroke-linecap="butt" d="m192.09973 287.99738c39.00052 -36.409897 78.495636 -72.95853 122.868774 -102.5853" fill-rule="evenodd"/></g></svg>