<svg version="1.1" viewBox="0.0 0.0 746.2729658792651 470.3254593175853" fill="none" stroke="none" stroke-linecap="square" stroke-miterlimit="10" xmlns:xlink="http://www.w3.org/1999/xlink" xmlns="http://www.w3.org/2000/svg"><clipPath id="p.0"><path d="m0 0l746.27295 0l0 470.32547l-746.27295 0l0 -470.32547z" clip-rule="nonzero"/></clipPath><g clip-path="url(#p.0)"><path fill="#ffffff" d="m0 0l746.27295 0l0 470.32547l-746.27295 0z" fill-rule="evenodd"/><path fill="#000000" fill-opacity="0.0" d="m91.07356 8.916293l303.81104 0l0 77.57481l-303.81104 0z" fill-rule="evenodd"/><path fill="#cc0000" d="m115.62044 37.081295l-11.625 -13.390627q-0.296875 -0.34375 -0.921875 -0.34375q-1.046875 0.03125 -1.078125 1.03125l-0.390625 15.875002q-0.046875 1.171875 1.03125 1.203125q1.25 0.015625 1.265625 -1.1875l0.28125 -12.734377l11.53125 13.156252q0.328125 0.375 0.859375 0.390625q1.265625 0.046875 1.296875 -1.171875l0.359375 -15.828127q0.015625 -1.09375 -1.203125 -1.09375q-1.0625 0.03125 -1.078125 1.015625l-0.328125 13.078127zm10.3125 -6.031252q2.46875 -0.046875 2.453125 4.125002q-0.015625 2.203125 -0.9375 3.203125q-0.875 0.9375 -2.15625 0.9375q-1.125 0 -1.984375 -0.9375q-0.84375 -0.921875 -0.84375 -2.75q0 -1.921875 1.171875 -3.515625q0.75 -1.0312519 2.296875 -1.0625019zm-0.09375 -2.390625q-2.5625 -0.015625 -4.109375 2.015625q-1.5625 2.062502 -1.5625 4.734377q0 2.828125 1.3125 4.390625q1.453125 1.71875 3.53125 1.734375q2.890625 0.015625 4.296875 -1.78125q1.25 -1.484375 1.265625 -4.34375q0 -6.718752 -4.734375 -6.750002zm11.746094 -6.578125q-1.046875 0 -1.078125 1.09375l-0.125 5.546875q-1.359375 0.015625 -2.703125 0.015625q-1.125 0 -1.125 1.171875q0 1.15625 1.015625 1.15625q1.375 0 2.75 0l-0.203125 9.109377q-0.03125 1.265625 1.03125 1.28125q1.265625 0.03125 1.265625 -1.25l0.203125 -9.140627q1.25 0 2.515625 0q1.359375 0 1.359375 -1.203125q0 -1.171875 -1.4375 -1.171875l-2.375 0.015625q0.078125 -2.46875 0.109375 -5.453125q0 -1.171875 -1.203125 -1.171875zm18.574219 6.578125q-1.125 0 -1.140625 1.296875l-0.265625 13.703127q-0.03125 1.828125 -1.125 1.828125q-1.453125 0 -1.796875 -1.609375q-0.3125 -1.484375 -1.359375 -1.484375q-0.25 0 -0.546875 0.078125q-0.671875 0.1875 -0.671875 1.0q0 0.703125 0.5 1.84375q1.125 2.59375 3.84375 2.703125q0.125 0 0.234375 0q3.3125 0 3.3125 -4.265625q0 -0.046875 0 -0.09375l0.203125 -13.703127q0.03125 -1.296875 -1.1875 -1.296875zm0.3125 -5.375q-0.390625 0 -0.71875 0.203125q-0.3125 0.21875 -0.515625 0.5625q-0.1875 0.328125 -0.1875 0.703125q0 0.390625 0.203125 0.734375q0.203125 0.328125 0.515625 0.515625q0.3125 0.1875 0.671875 0.203125q0.03125 0 0.0625 0q0.375 0.015625 0.65625 -0.140625q0.28125 -0.125 0.515625 -0.4375q0.265625 -0.34375 0.296875 -0.765625q0 -0.0625 0 -0.109375q0 -0.375 -0.15625 -0.6875q-0.1875 -0.375 -0.5625 -0.578125q-0.328125 -0.203125 -0.734375 -0.203125q-0.015625 0 -0.046875 0zm13.5859375 18.562502q1.0625 0 1.078125 -1.09375l0.28125 -10.937502q0.03125 -1.265625 -1.03125 -1.296875q-1.234375 -0.015625 -1.28125 1.265625l-0.140625 5.921877q-0.046875 1.921875 -1.578125 2.6875q-1.6875 0.84375 -2.90625 0.03125q-0.890625 -0.625 -0.859375 -3.453125l0.015625 -5.125002q0.03125 -1.40625 -1.21875 -1.296875q-1.09375 0.09375 -1.125 1.5l-0.046875 5.765627q-0.046875 5.328125 4.359375 5.34375q2.0 0 3.265625 -1.171875l0 0.703125q-0.03125 1.15625 1.1875 1.15625zm6.9960938 -2.578125q-1.078125 -0.078125 -2.109375 -0.78125q-0.84375 -0.5625 -1.5 -0.140625q-0.53125 0.359375 -0.484375 1.125q0.046875 0.703125 0.859375 1.171875q0.921875 0.53125 1.546875 0.71875q1.03125 0.28125 2.671875 0.28125q1.953125 -0.015625 3.125 -0.8125q1.453125 -0.96875 1.640625 -2.484375q0.171875 -1.46875 -1.015625 -2.90625q-0.5 -0.609375 -1.796875 -1.203125q-0.9375 -0.4375 -2.0625 -0.5625q-1.40625 -0.15625 -1.625 -0.78125q-0.234375 -0.734375 0.34375 -1.3906269q0.671875 -0.796875 2.09375 -0.875q1.328125 -0.046875 2.0 0.609375q1.359375 1.3125019 2.03125 0.7656269q0.546875 -0.4375019 0.4375 -1.1406269q-0.171875 -1.0625 -1.84375 -1.890625q-1.28125 -0.625 -3.0 -0.46875q-1.515625 0.140625 -2.6875 0.984375q-0.984375 0.703125 -1.484375 2.046875q-0.46875 1.2187519 -0.1875 2.390627q0.359375 1.5 2.765625 1.84375q2.328125 0.328125 2.984375 1.03125q0.984375 1.046875 0.515625 1.78125q-0.59375 0.859375 -3.21875 0.6875zm12.855469 -17.187502q-1.046875 0 -1.078125 1.09375l-0.125 5.546875q-1.359375 0.015625 -2.703125 0.015625q-1.125 0 -1.125 1.171875q0 1.15625 1.015625 1.15625q1.375 0 2.75 0l-0.203125 9.109377q-0.03125 1.265625 1.03125 1.28125q1.265625 0.03125 1.265625 -1.25l0.203125 -9.140627q1.25 0 2.515625 0q1.359375 0 1.359375 -1.203125q0 -1.171875 -1.4375 -1.171875l-2.375 0.015625q0.078125 -2.46875 0.109375 -5.453125q0 -1.171875 -1.203125 -1.171875zm18.621094 19.531252q1.09375 -0.015625 3.515625 -1.25q0.234375 1.5625 1.703125 1.25q1.28125 -0.25 0.28125 -1.96875q-0.6875 -1.171875 -0.640625 -3.984375q0.0625 -3.53125 0.328125 -5.000002q0.28125 -1.5 -1.125 -1.8125q-0.71875 -0.15625 -1.0625 0.125q-3.0625 -0.96875 -5.875 1.34375q-2.453125 2.000002 -2.421875 5.671877q0.03125 5.640625 5.296875 5.625zm1.359375 -2.359375q-0.890625 0.328125 -1.90625 0.265625q-2.421875 -0.171875 -2.46875 -3.75q0.109375 -2.765625 2.203125 -4.265627q0.515625 -0.390625 1.375 -0.609375q1.25 -0.296875 2.375 0.421875q-0.53125 1.8906269 -0.109375 6.937502q-1.046875 0.84375 -1.46875 1.0zm7.953125 -11.125002q-1.078125 0 -1.109375 1.09375l-0.265625 10.953127q-0.03125 1.265625 1.015625 1.28125q1.234375 0.03125 1.265625 -1.25l0.203125 -7.6875q1.09375 -1.0937519 2.421875 -1.3437519q1.359375 -0.28125 2.421875 0.4375q1.34375 0.9218769 1.859375 -0.578125q0.3125 -0.953125 -1.46875 -1.84375q-1.0 -0.5 -2.5625 -0.484375q-1.28125 0.03125 -2.59375 1.015625q0 -0.21875 0 -0.421875q0 -1.171875 -1.1875 -1.171875zm18.09375 10.359377q-1.375 0.9375 -2.96875 0.875q-1.546875 -0.0625 -2.421875 -1.21875q-0.9375 -1.296875 -0.90625 -2.875q0.03125 -1.65625 0.921875 -2.953125q0.78125 -1.1250019 1.765625 -1.4218769q1.734375 -0.5625 3.09375 0.46875q1.140625 0.8437519 1.6875 0.4375q0.796875 -0.578125 0.09375 -1.703125q-0.46875 -0.71875 -1.890625 -1.203125q-1.15625 -0.375 -2.546875 -0.265625q-2.390625 0.171875 -3.9375 2.40625q-1.28125 1.8437519 -1.28125 4.734377q0 2.609375 1.796875 4.34375q1.4375 1.390625 3.625 1.40625q2.765625 0.015625 4.046875 -1.09375q1.0 -0.875 0.609375 -1.53125q-0.65625 -1.109375 -1.6875 -0.40625zm6.046875 -16.406252q-1.078125 0.015625 -1.109375 1.09375l-0.390625 17.000002q-0.015625 1.265625 1.03125 1.28125q1.234375 0.03125 1.28125 -1.25l0.265625 -6.765625q1.828125 -2.187502 3.984375 -2.000002q1.90625 0.15625 1.875 3.265627l-0.03125 5.609375q-0.015625 1.421875 1.25 1.3125q1.109375 -0.09375 1.125 -1.515625l0.046875 -5.9375q0.046875 -5.343752 -4.359375 -5.343752q-2.4375 0 -3.890625 1.359375l0.109375 -6.9375q0.03125 -1.171875 -1.1875 -1.171875zm14.222641 6.609375q-1.1874847 -0.03125 -1.2187347 1.53125l-0.203125 9.828127q-0.03125 1.484375 1.2187347 1.5q1.109375 0 1.125 -1.59375l0.171875 -9.750002q0.015625 -1.5 -1.09375 -1.515625zm0.078125 -5.328125q-0.39060974 0 -0.71873474 0.203125q-0.3125 0.21875 -0.515625 0.5625q-0.1875 0.328125 -0.1875 0.703125q0 0.390625 0.203125 0.734375q0.203125 0.328125 0.515625 0.515625q0.3125 0.1875 0.67185974 0.203125q0.03125 0 0.0625 0q0.375 0.015625 0.65625 -0.140625q0.28125 -0.125 0.515625 -0.4375q0.265625 -0.34375 0.296875 -0.765625q0 -0.0625 0 -0.109375q0 -0.375 -0.15625 -0.6875q-0.1875 -0.375 -0.5625 -0.578125q-0.328125 -0.203125 -0.734375 -0.203125q-0.015625 0 -0.046875 0zm8.8359375 -1.28125q-1.046875 0 -1.078125 1.09375l-0.125 5.546875q-1.359375 0.015625 -2.703125 0.015625q-1.125 0 -1.125 1.171875q0 1.15625 1.015625 1.15625q1.375 0 2.75 0l-0.203125 9.109377q-0.03125 1.265625 1.03125 1.28125q1.265625 0.03125 1.265625 -1.25l0.203125 -9.140627q1.25 0 2.515625 0q1.359375 0 1.359375 -1.203125q0 -1.171875 -1.4375 -1.171875l-2.375 0.015625q0.078125 -2.46875 0.109375 -5.453125q0 -1.171875 -1.203125 -1.171875zm8.574219 13.796877l7.875 -1.140625q1.265625 -0.171875 1.3125 -1.609375q0.046875 -1.7968769 -1.390625 -3.203127q-1.515625 -1.5 -4.234375 -1.328125q-2.59375 0.15625 -4.234375 2.515625q-1.3125 1.8906269 -1.3125 4.296877q0 2.9375 2.078125 4.640625q1.6875 1.390625 3.921875 1.40625q3.046875 0.03125 4.921875 -1.640625q1.0625 -0.953125 0.515625 -2.03125q-0.234375 -0.46875 -0.796875 -0.359375q-0.5 0.109375 -1.296875 0.984375q-0.8125 0.921875 -3.203125 0.9375q-1.640625 0.015625 -2.953125 -1.140625q-1.140625 -1.0 -1.203125 -2.328125zm0.265625 -1.9375q0.328125 -1.15625 0.84375 -1.796875q1.171875 -1.4375019 2.78125 -1.4375019q1.171875 -0.015625 2.203125 0.640625q0.890625 0.578125 1.0625 1.5937519l-6.890625 1.0zm19.351562 4.546875q-1.375 0.9375 -2.96875 0.875q-1.546875 -0.0625 -2.421875 -1.21875q-0.9375 -1.296875 -0.90625 -2.875q0.03125 -1.65625 0.921875 -2.953125q0.78125 -1.1250019 1.765625 -1.4218769q1.734375 -0.5625 3.09375 0.46875q1.140625 0.8437519 1.6875 0.4375q0.796875 -0.578125 0.09375 -1.703125q-0.46875 -0.71875 -1.890625 -1.203125q-1.15625 -0.375 -2.546875 -0.265625q-2.390625 0.171875 -3.9375 2.40625q-1.28125 1.8437519 -1.28125 4.734377q0 2.609375 1.796875 4.34375q1.4375 1.390625 3.625 1.40625q2.765625 0.015625 4.046875 -1.09375q1.0 -0.875 0.609375 -1.53125q-0.65625 -1.109375 -1.6875 -0.40625zm8.59375 -16.406252q-1.046875 0 -1.078125 1.09375l-0.125 5.546875q-1.359375 0.015625 -2.703125 0.015625q-1.125 0 -1.125 1.171875q0 1.15625 1.015625 1.15625q1.375 0 2.75 0l-0.203125 9.109377q-0.03125 1.265625 1.03125 1.28125q1.265625 0.03125 1.265625 -1.25l0.203125 -9.140627q1.25 0 2.515625 0q1.359375 0 1.359375 -1.203125q0 -1.171875 -1.4375 -1.171875l-2.375 0.015625q0.078125 -2.46875 0.109375 -5.453125q0 -1.171875 -1.203125 -1.171875zm15.621094 19.765627q1.0625 0 1.078125 -1.09375l0.28125 -10.937502q0.03125 -1.265625 -1.03125 -1.296875q-1.234375 -0.015625 -1.28125 1.265625l-0.140625 5.921877q-0.046875 1.921875 -1.578125 2.6875q-1.6875 0.84375 -2.90625 0.03125q-0.890625 -0.625 -0.859375 -3.453125l0.015625 -5.125002q0.03125 -1.40625 -1.21875 -1.296875q-1.09375 0.09375 -1.125 1.5l-0.046875 5.765627q-0.046875 5.328125 4.359375 5.34375q2.0 0 3.265625 -1.171875l0 0.703125q-0.03125 1.15625 1.1875 1.15625zm5.3398438 -13.718752q-1.078125 0 -1.109375 1.09375l-0.265625 10.953127q-0.03125 1.265625 1.015625 1.28125q1.234375 0.03125 1.265625 -1.25l0.203125 -7.6875q1.09375 -1.0937519 2.421875 -1.3437519q1.359375 -0.28125 2.421875 0.4375q1.34375 0.9218769 1.859375 -0.578125q0.3125 -0.953125 -1.46875 -1.84375q-1.0 -0.5 -2.5625 -0.484375q-1.28125 0.03125 -2.59375 1.015625q0 -0.21875 0 -0.421875q0 -1.171875 -1.1875 -1.171875zm11.625 7.750002l7.875 -1.140625q1.265625 -0.171875 1.3125 -1.609375q0.046875 -1.7968769 -1.390625 -3.203127q-1.515625 -1.5 -4.234375 -1.328125q-2.59375 0.15625 -4.234375 2.515625q-1.3125 1.8906269 -1.3125 4.296877q0 2.9375 2.078125 4.640625q1.6875 1.390625 3.921875 1.40625q3.046875 0.03125 4.921875 -1.640625q1.0625 -0.953125 0.515625 -2.03125q-0.234375 -0.46875 -0.796875 -0.359375q-0.5 0.109375 -1.296875 0.984375q-0.8125 0.921875 -3.203125 0.9375q-1.640625 0.015625 -2.953125 -1.140625q-1.140625 -1.0 -1.203125 -2.328125zm0.265625 -1.9375q0.328125 -1.15625 0.84375 -1.796875q1.171875 -1.4375019 2.78125 -1.4375019q1.171875 -0.015625 2.203125 0.640625q0.890625 0.578125 1.0625 1.5937519l-6.890625 1.0z" fill-rule="nonzero"/><path fill="#cc0000" d="m105.97981 70.412544q1.09375 -0.015625 3.515625 -1.25q0.234375 1.5625 1.703125 1.25q1.28125 -0.25 0.28125 -1.96875q-0.6875 -1.171875 -0.640625 -3.984375q0.0625 -3.5312462 0.328125 -4.999996q0.28125 -1.5 -1.125 -1.8125q-0.71875 -0.15625 -1.0625 0.125q-3.0625 -0.96875 -5.875 1.34375q-2.453125 2.0 -2.421875 5.671871q0.03125 5.640625 5.296875 5.625zm1.359375 -2.359375q-0.890625 0.328125 -1.90625 0.265625q-2.421875 -0.171875 -2.46875 -3.75q0.109375 -2.7656212 2.203125 -4.265621q0.515625 -0.390625 1.375 -0.609375q1.25 -0.296875 2.375 0.421875q-0.53125 1.890625 -0.109375 6.937496q-1.046875 0.84375 -1.46875 1.0zm7.953125 -11.124996q-1.078125 0 -1.109375 1.09375l-0.265625 10.906246q-0.03125 1.25 1.015625 1.28125q1.25 0.015625 1.296875 -1.265625l0.1875 -7.093746q1.859375 -1.859375 3.484375 -1.734375q1.9375 0.140625 1.859375 3.375l-0.140625 5.546871q-0.046875 1.421875 1.234375 1.3125q1.109375 -0.09375 1.125 -1.515625l0.09375 -5.859371q0.078125 -5.34375 -4.34375 -5.34375q-2.0 0 -3.265625 1.15625q0 -0.359375 0.015625 -0.6875q0.03125 -1.171875 -1.1875 -1.171875zm21.375 -6.046875q-1.0625 0.03125 -1.078125 1.09375l-0.171875 6.765625q-0.453125 -0.3125 -1.0 -0.640625q-1.0625 -0.59375 -2.46875 -0.59375q-2.625 0 -4.25 2.0q-1.71875 2.125 -1.625 5.249996q0.09375 2.296875 1.828125 4.03125q1.5625 1.546875 3.59375 1.5625q1.96875 0 3.703125 -1.09375q0.078125 0.984375 1.015625 1.0q1.265625 0.03125 1.28125 -1.25l0.359375 -16.953121q0.03125 -1.171875 -1.1875 -1.171875zm-1.4375 15.718746q-2.09375 1.640625 -3.734375 1.453125q-1.5625 -0.171875 -2.359375 -1.234375q-1.0 -1.296875 -0.96875 -2.625q0.046875 -2.0781212 0.96875 -3.2343712q0.65625 -0.8125 2.140625 -1.171875q2.015625 -0.5 4.078125 1.640625q0 2.7343712 -0.125 5.171871zm15.550781 1.46875q-1.078125 -0.078125 -2.109375 -0.78125q-0.84375 -0.5625 -1.5 -0.140625q-0.53125 0.359375 -0.484375 1.125q0.046875 0.703125 0.859375 1.171875q0.921875 0.53125 1.546875 0.71875q1.03125 0.28125 2.671875 0.28125q1.953125 -0.015625 3.125 -0.8125q1.453125 -0.96875 1.640625 -2.484375q0.171875 -1.46875 -1.015625 -2.90625q-0.5 -0.6093712 -1.796875 -1.2031212q-0.9375 -0.4375 -2.0625 -0.5625q-1.40625 -0.15625 -1.625 -0.78125q-0.234375 -0.734375 0.34375 -1.390625q0.671875 -0.796875 2.09375 -0.875q1.328125 -0.046875 2.0 0.609375q1.359375 1.3125 2.03125 0.765625q0.546875 -0.4375 0.4375 -1.140625q-0.171875 -1.0625 -1.84375 -1.890625q-1.28125 -0.625 -3.0 -0.46875q-1.515625 0.140625 -2.6875 0.984375q-0.984375 0.703125 -1.484375 2.046875q-0.46875 1.21875 -0.1875 2.390625q0.359375 1.4999962 2.765625 1.8437462q2.328125 0.328125 2.984375 1.03125q0.984375 1.046875 0.515625 1.78125q-0.59375 0.859375 -3.21875 0.6875zm12.855469 -17.187496q-1.046875 0 -1.078125 1.09375l-0.125 5.546875q-1.359375 0.015625 -2.703125 0.015625q-1.125 0 -1.125 1.171875q0 1.15625 1.015625 1.15625q1.375 0 2.75 0l-0.203125 9.109371q-0.03125 1.265625 1.03125 1.28125q1.265625 0.03125 1.265625 -1.25l0.203125 -9.140621q1.25 0 2.515625 0q1.359375 0 1.359375 -1.203125q0 -1.171875 -1.4375 -1.171875l-2.375 0.015625q0.078125 -2.46875 0.109375 -5.453125q0 -1.171875 -1.203125 -1.171875zm11.449219 19.531246q1.09375 -0.015625 3.515625 -1.25q0.234375 1.5625 1.703125 1.25q1.28125 -0.25 0.28125 -1.96875q-0.6875 -1.171875 -0.640625 -3.984375q0.0625 -3.5312462 0.328125 -4.999996q0.28125 -1.5 -1.125 -1.8125q-0.71875 -0.15625 -1.0625 0.125q-3.0625 -0.96875 -5.875 1.34375q-2.453125 2.0 -2.421875 5.671871q0.03125 5.640625 5.296875 5.625zm1.359375 -2.359375q-0.890625 0.328125 -1.90625 0.265625q-2.421875 -0.171875 -2.46875 -3.75q0.109375 -2.7656212 2.203125 -4.265621q0.515625 -0.390625 1.375 -0.609375q1.25 -0.296875 2.375 0.421875q-0.53125 1.890625 -0.109375 6.937496q-1.046875 0.84375 -1.46875 1.0zm10.78125 -17.171871q-1.046875 0 -1.078125 1.09375l-0.125 5.546875q-1.359375 0.015625 -2.703125 0.015625q-1.125 0 -1.125 1.171875q0 1.15625 1.015625 1.15625q1.375 0 2.75 0l-0.203125 9.109371q-0.03125 1.265625 1.03125 1.28125q1.265625 0.03125 1.265625 -1.25l0.203125 -9.140621q1.25 0 2.515625 0q1.359375 0 1.359375 -1.203125q0 -1.171875 -1.4375 -1.171875l-2.375 0.015625q0.078125 -2.46875 0.109375 -5.453125q0 -1.171875 -1.203125 -1.171875zm9.121094 6.609375q-1.1875 -0.03125 -1.21875 1.53125l-0.203125 9.828121q-0.03125 1.484375 1.21875 1.5q1.109375 0 1.125 -1.59375l0.171875 -9.749996q0.015625 -1.5 -1.09375 -1.515625zm0.078125 -5.328125q-0.390625 0 -0.71875 0.203125q-0.3125 0.21875 -0.515625 0.5625q-0.1875 0.328125 -0.1875 0.703125q0 0.390625 0.203125 0.734375q0.203125 0.328125 0.515625 0.515625q0.3125 0.1875 0.671875 0.203125q0.03125 0 0.0625 0q0.375 0.015625 0.65625 -0.140625q0.28125 -0.125 0.515625 -0.4375q0.265625 -0.34375 0.296875 -0.765625q0 -0.0625 0 -0.109375q0 -0.375 -0.15625 -0.6875q-0.1875 -0.375 -0.5625 -0.578125q-0.328125 -0.203125 -0.734375 -0.203125q-0.015625 0 -0.046875 0zm7.6640625 15.906246q-1.078125 -0.078125 -2.109375 -0.78125q-0.84375 -0.5625 -1.5 -0.140625q-0.53125 0.359375 -0.484375 1.125q0.046875 0.703125 0.859375 1.171875q0.921875 0.53125 1.546875 0.71875q1.03125 0.28125 2.671875 0.28125q1.953125 -0.015625 3.125 -0.8125q1.453125 -0.96875 1.640625 -2.484375q0.171875 -1.46875 -1.015625 -2.90625q-0.5 -0.6093712 -1.796875 -1.2031212q-0.9375 -0.4375 -2.0625 -0.5625q-1.40625 -0.15625 -1.625 -0.78125q-0.234375 -0.734375 0.34375 -1.390625q0.671875 -0.796875 2.09375 -0.875q1.328125 -0.046875 2.0 0.609375q1.359375 1.3125 2.03125 0.765625q0.546875 -0.4375 0.4375 -1.140625q-0.171875 -1.0625 -1.84375 -1.890625q-1.28125 -0.625 -3.0 -0.46875q-1.515625 0.140625 -2.6875 0.984375q-0.984375 0.703125 -1.484375 2.046875q-0.46875 1.21875 -0.1875 2.390625q0.359375 1.4999962 2.765625 1.8437462q2.328125 0.328125 2.984375 1.03125q0.984375 1.046875 0.515625 1.78125q-0.59375 0.859375 -3.21875 0.6875zm12.855469 -17.187496q-1.046875 0 -1.078125 1.09375l-0.125 5.546875q-1.359375 0.015625 -2.703125 0.015625q-1.125 0 -1.125 1.171875q0 1.15625 1.015625 1.15625q1.375 0 2.75 0l-0.203125 9.109371q-0.03125 1.265625 1.03125 1.28125q1.265625 0.03125 1.265625 -1.25l0.203125 -9.140621q1.25 0 2.515625 0q1.359375 0 1.359375 -1.203125q0 -1.171875 -1.4375 -1.171875l-2.375 0.015625q0.078125 -2.46875 0.109375 -5.453125q0 -1.171875 -1.203125 -1.171875zm9.121094 6.609375q-1.1875 -0.03125 -1.21875 1.53125l-0.203125 9.828121q-0.03125 1.484375 1.21875 1.5q1.109375 0 1.125 -1.59375l0.171875 -9.749996q0.015625 -1.5 -1.09375 -1.515625zm0.078125 -5.328125q-0.390625 0 -0.71875 0.203125q-0.3125 0.21875 -0.515625 0.5625q-0.1875 0.328125 -0.1875 0.703125q0 0.390625 0.203125 0.734375q0.203125 0.328125 0.515625 0.515625q0.3125 0.1875 0.671875 0.203125q0.03125 0 0.0625 0q0.375 0.015625 0.65625 -0.140625q0.28125 -0.125 0.515625 -0.4375q0.265625 -0.34375 0.296875 -0.765625q0 -0.0625 0 -0.109375q0 -0.375 -0.15625 -0.6875q-0.1875 -0.375 -0.5625 -0.578125q-0.328125 -0.203125 -0.734375 -0.203125q-0.015625 0 -0.046875 0zm12.5703125 15.124996q-1.375 0.9375 -2.96875 0.875q-1.546875 -0.0625 -2.421875 -1.21875q-0.9375 -1.296875 -0.90625 -2.875q0.03125 -1.6562462 0.921875 -2.9531212q0.78125 -1.125 1.765625 -1.421875q1.734375 -0.5625 3.09375 0.46875q1.140625 0.84375 1.6875 0.4375q0.796875 -0.578125 0.09375 -1.703125q-0.46875 -0.71875 -1.890625 -1.203125q-1.15625 -0.375 -2.546875 -0.265625q-2.390625 0.171875 -3.9375 2.40625q-1.28125 1.84375 -1.28125 4.734371q0 2.609375 1.796875 4.34375q1.4375 1.390625 3.625 1.40625q2.765625 0.015625 4.046875 -1.09375q1.0 -0.875 0.609375 -1.53125q-0.65625 -1.109375 -1.6875 -0.40625zm7.421875 0.78125q-1.078125 -0.078125 -2.109375 -0.78125q-0.84375 -0.5625 -1.5 -0.140625q-0.53125 0.359375 -0.484375 1.125q0.046875 0.703125 0.859375 1.171875q0.921875 0.53125 1.546875 0.71875q1.03125 0.28125 2.671875 0.28125q1.953125 -0.015625 3.125 -0.8125q1.453125 -0.96875 1.640625 -2.484375q0.171875 -1.46875 -1.015625 -2.90625q-0.5 -0.6093712 -1.796875 -1.2031212q-0.9375 -0.4375 -2.0625 -0.5625q-1.40625 -0.15625 -1.625 -0.78125q-0.234375 -0.734375 0.34375 -1.390625q0.671875 -0.796875 2.09375 -0.875q1.328125 -0.046875 2.0 0.609375q1.359375 1.3125 2.03125 0.765625q0.546875 -0.4375 0.4375 -1.140625q-0.171875 -1.0625 -1.84375 -1.890625q-1.28125 -0.625 -3.0 -0.46875q-1.515625 0.140625 -2.6875 0.984375q-0.984375 0.703125 -1.484375 2.046875q-0.46875 1.21875 -0.1875 2.390625q0.359375 1.4999962 2.765625 1.8437462q2.328125 0.328125 2.984375 1.03125q0.984375 1.046875 0.515625 1.78125q-0.59375 0.859375 -3.21875 0.6875z" fill-rule="nonzero"/><path fill="#000000" fill-opacity="0.0" d="m275.1364 62.230797c37.767487 0 78.86664 -1.5705299 112.24646 10.843086c35.512146 13.206619 56.654602 41.604935 92.60138 54.21778" fill-rule="evenodd"/><path stroke="#cc0000" stroke-width="3.0" stroke-linejoin="round" stroke-linecap="butt" d="m275.1364 62.230797c37.767487 0 78.86661 -1.5705338 112.24646 10.843086c17.756073 6.6033096 31.919708 17.00454 46.137726 27.331558c7.1089478 5.1635056 14.231537 10.308449 21.823517 14.950829c1.8980103 1.1605988 3.8253784 2.2897797 5.789154 3.3799896c0.49093628 0.27256012 0.9841919 0.5426712 1.4797974 0.81023407c0.24783325 0.13378143 0.49621582 0.266922 0.74523926 0.39941406l0.15637207 0.082588196" fill-rule="evenodd"/><path stroke="#cc0000" stroke-width="3.0" stroke-linecap="butt" d="m461.51523 124.56238l14.456207 0.95961l-10.457275 -10.027382z" fill-rule="evenodd"/><path fill="#000000" fill-opacity="0.0" d="m190.11629 370.2789l316.7874 0l0 77.5748l-316.7874 0z" fill-rule="evenodd"/><path fill="#cc0000" d="m202.31941 400.52203q-0.34375 0 -0.625 0.1875q-0.25 0.1875 -0.4375 0.5q-0.140625 0.28125 -0.140625 0.625q0 0.359375 0.15625 0.671875q0.171875 0.296875 0.453125 0.453125q0.25 0.1875 0.5625 0.1875q0.03125 0 0.046875 0q0.328125 0.015625 0.5625 -0.125q0.234375 -0.109375 0.4375 -0.390625q0.21875 -0.3125 0.265625 -0.6875q0 -0.046875 0 -0.109375q0 -0.328125 -0.140625 -0.609375q-0.171875 -0.34375 -0.46875 -0.53125q-0.296875 -0.171875 -0.640625 -0.171875q-0.015625 0 -0.03125 0zm4.90625 0q-0.34375 0 -0.625 0.1875q-0.25 0.1875 -0.421875 0.5q-0.15625 0.28125 -0.15625 0.625q0 0.359375 0.15625 0.671875q0.1875 0.296875 0.453125 0.453125q0.25 0.1875 0.5625 0.1875q0.03125 0 0.0625 0q0.3125 0.015625 0.5625 -0.125q0.234375 -0.109375 0.421875 -0.390625q0.234375 -0.3125 0.265625 -0.6875q0 -0.046875 0 -0.109375q0 -0.328125 -0.140625 -0.609375q-0.171875 -0.34375 -0.46875 -0.53125q-0.296875 -0.171875 -0.640625 -0.171875q-0.015625 0 -0.03125 0zm5.234375 0q-0.34375 0 -0.625 0.1875q-0.265625 0.1875 -0.4375 0.5q-0.15625 0.28125 -0.15625 0.625q0 0.359375 0.171875 0.671875q0.171875 0.296875 0.4375 0.453125q0.265625 0.1875 0.5625 0.1875q0.046875 0 0.0625 0q0.3125 0.015625 0.5625 -0.125q0.234375 -0.109375 0.4375 -0.390625q0.21875 -0.3125 0.25 -0.6875q0 -0.046875 0 -0.109375q0 -0.328125 -0.140625 -0.609375q-0.15625 -0.34375 -0.46875 -0.53125q-0.28125 -0.171875 -0.625 -0.171875q-0.03125 0 -0.03125 0zm5.9570312 -17.078125q-1.046875 0 -1.078125 1.09375l-0.390625 17.0q-0.03125 1.265625 1.03125 1.28125q1.171875 0.03125 1.265625 -1.09375q1.78125 1.1875 3.8125 1.1875q2.0 -0.015625 3.59375 -1.5625q1.6875 -1.671875 1.828125 -4.03125q0.171875 -3.15625 -1.625 -5.25q-1.71875 -2.0 -4.25 -2.0q-1.40625 0 -2.46875 0.59375q-0.34375 0.203125 -0.65625 0.40625l0.140625 -6.453125q0.015625 -1.171875 -1.203125 -1.171875zm4.640625 17.171875q-1.5 0.203125 -3.75 -1.46875l0.109375 -5.375q1.9375 -1.890625 3.859375 -1.421875q1.25 0.296875 2.109375 1.234375q1.046875 1.15625 1.0 3.171875q-0.03125 1.359375 -0.96875 2.625q-0.78125 1.03125 -2.359375 1.234375zm16.582031 2.59375q1.0625 0 1.078125 -1.09375l0.28125 -10.9375q0.03125 -1.265625 -1.03125 -1.296875q-1.234375 -0.015625 -1.28125 1.265625l-0.140625 5.921875q-0.046875 1.921875 -1.578125 2.6875q-1.6875 0.84375 -2.90625 0.03125q-0.890625 -0.625 -0.859375 -3.453125l0.015625 -5.125q0.03125 -1.40625 -1.21875 -1.296875q-1.09375 0.09375 -1.125 1.5l-0.046875 5.765625q-0.046875 5.328125 4.359375 5.34375q2.0 0 3.265625 -1.171875l0 0.703125q-0.03125 1.15625 1.1875 1.15625zm8.167969 -19.765625q-1.046875 0 -1.078125 1.09375l-0.125 5.546875q-1.359375 0.015625 -2.703125 0.015625q-1.125 0 -1.125 1.171875q0 1.15625 1.015625 1.15625q1.375 0 2.75 0l-0.203125 9.109375q-0.03125 1.265625 1.03125 1.28125q1.265625 0.03125 1.265625 -1.25l0.203125 -9.140625q1.25 0 2.515625 0q1.359375 0 1.359375 -1.203125q0 -1.171875 -1.4375 -1.171875l-2.375 0.015625q0.078125 -2.46875 0.109375 -5.453125q0 -1.171875 -1.203125 -1.171875zm15.746109 13.796875l7.875 -1.140625q1.265625 -0.171875 1.3125 -1.609375q0.046875 -1.796875 -1.390625 -3.203125q-1.515625 -1.5 -4.234375 -1.328125q-2.59375 0.15625 -4.234375 2.515625q-1.3125 1.890625 -1.3125 4.296875q0 2.9375 2.078125 4.640625q1.6875 1.390625 3.921875 1.40625q3.046875 0.03125 4.921875 -1.640625q1.0625 -0.953125 0.515625 -2.03125q-0.234375 -0.46875 -0.796875 -0.359375q-0.5 0.109375 -1.296875 0.984375q-0.8125 0.921875 -3.203125 0.9375q-1.640625 0.015625 -2.953125 -1.140625q-1.140625 -1.0 -1.203125 -2.328125zm0.265625 -1.9375q0.328125 -1.15625 0.84375 -1.796875q1.171875 -1.4375 2.78125 -1.4375q1.171875 -0.015625 2.203125 0.640625q0.890625 0.578125 1.0625 1.59375l-6.890625 1.0zm11.2578125 -5.015625q-0.953125 0.75 0.03125 1.8125l4.078125 4.46875l-3.765625 4.03125q-1.15625 1.21875 -0.234375 2.03125q0.828125 0.734375 1.9375 -0.515625l3.484375 -3.890625l3.484375 3.890625q1.109375 1.25 1.9375 0.515625q0.921875 -0.796875 -0.234375 -2.03125l-3.703125 -4.046875l4.03125 -4.453125q0.96875 -1.0625 0.015625 -1.8125q-0.890625 -0.71875 -1.9375 0.5l-3.59375 4.125l-3.578125 -4.125q-1.0625 -1.203125 -1.953125 -0.5zm15.417969 18.71875q1.0625 0 1.078125 -1.09375l0.140625 -6.25q0.03125 0.015625 0.046875 0.015625q0.78125 0.796875 2.78125 0.640625q2.28125 -0.171875 3.828125 -2.09375q1.375 -1.71875 1.359375 -4.875q0 -2.171875 -1.515625 -3.796875q-1.53125 -1.671875 -3.625 -1.6875q-2.15625 -0.015625 -2.734375 0.4375q-0.296875 -0.671875 -0.90625 -0.671875q-1.25 -0.03125 -1.28125 1.25l-0.375 16.953125q-0.015625 1.171875 1.203125 1.171875zm1.4375 -16.15625q0.96875 -0.9375 2.5625 -0.734375q1.5 0.203125 2.28125 1.171875q0.890625 1.125 0.875 2.625q-0.03125 1.625 -0.78125 2.734375q-0.890625 1.328125 -2.625 1.4375q-1.3125 0.09375 -2.453125 -1.171875l0.140625 -6.0625zm12.253906 -9.40625q-1.046875 0.03125 -1.078125 1.09375l-0.390625 17.0q-0.03125 1.265625 1.03125 1.28125q1.265625 0.03125 1.265625 -1.25l0.375 -16.953125q0.015625 -1.171875 -1.203125 -1.171875zm8.964844 19.53125q1.09375 -0.015625 3.515625 -1.25q0.234375 1.5625 1.703125 1.25q1.28125 -0.25 0.28125 -1.96875q-0.6875 -1.171875 -0.640625 -3.984375q0.0625 -3.53125 0.328125 -5.0q0.28125 -1.5 -1.125 -1.8125q-0.71875 -0.15625 -1.0625 0.125q-3.0625 -0.96875 -5.875 1.34375q-2.453125 2.0 -2.421875 5.671875q0.03125 5.640625 5.296875 5.625zm1.359375 -2.359375q-0.890625 0.328125 -1.90625 0.265625q-2.421875 -0.171875 -2.46875 -3.75q0.109375 -2.765625 2.203125 -4.265625q0.515625 -0.390625 1.375 -0.609375q1.25 -0.296875 2.375 0.421875q-0.53125 1.890625 -0.109375 6.9375q-1.046875 0.84375 -1.46875 1.0zm8.59375 -10.5625q-1.1875 -0.03125 -1.21875 1.53125l-0.203125 9.828125q-0.03125 1.484375 1.21875 1.5q1.109375 0 1.125 -1.59375l0.171875 -9.75q0.015625 -1.5 -1.09375 -1.515625zm0.078125 -5.328125q-0.390625 0 -0.71875 0.203125q-0.3125 0.21875 -0.515625 0.5625q-0.1875 0.328125 -0.1875 0.703125q0 0.390625 0.203125 0.734375q0.203125 0.328125 0.515625 0.515625q0.3125 0.1875 0.671875 0.203125q0.03125 0 0.0625 0q0.375 0.015625 0.65625 -0.140625q0.28125 -0.125 0.515625 -0.4375q0.265625 -0.34375 0.296875 -0.765625q0 -0.0625 0 -0.109375q0 -0.375 -0.15625 -0.6875q-0.1875 -0.375 -0.5625 -0.578125q-0.328125 -0.203125 -0.734375 -0.203125q-0.015625 0 -0.046875 0zm6.0078125 4.765625q-1.078125 0 -1.109375 1.09375l-0.265625 10.90625q-0.03125 1.25 1.015625 1.28125q1.25 0.015625 1.296875 -1.265625l0.1875 -7.09375q1.859375 -1.859375 3.484375 -1.734375q1.9375 0.140625 1.859375 3.375l-0.140625 5.546875q-0.046875 1.421875 1.234375 1.3125q1.109375 -0.09375 1.125 -1.515625l0.09375 -5.859375q0.078125 -5.34375 -4.34375 -5.34375q-2.0 0 -3.265625 1.15625q0 -0.359375 0.015625 -0.6875q0.03125 -1.171875 -1.1875 -1.171875zm15.53125 13.484375q1.09375 -0.015625 3.515625 -1.25q0.234375 1.5625 1.703125 1.25q1.28125 -0.25 0.28125 -1.96875q-0.6875 -1.171875 -0.640625 -3.984375q0.0625 -3.53125 0.328125 -5.0q0.28125 -1.5 -1.125 -1.8125q-0.71875 -0.15625 -1.0625 0.125q-3.0625 -0.96875 -5.875 1.34375q-2.453125 2.0 -2.421875 5.671875q0.03125 5.640625 5.296875 5.625zm1.359375 -2.359375q-0.890625 0.328125 -1.90625 0.265625q-2.421875 -0.171875 -2.46875 -3.75q0.109375 -2.765625 2.203125 -4.265625q0.515625 -0.390625 1.375 -0.609375q1.25 -0.296875 2.375 0.421875q-0.53125 1.890625 -0.109375 6.9375q-1.046875 0.84375 -1.46875 1.0zm8.109375 -17.171875q-1.046875 0 -1.078125 1.09375l-0.390625 17.0q-0.03125 1.265625 1.03125 1.28125q1.171875 0.03125 1.265625 -1.09375q1.78125 1.1875 3.8125 1.1875q2.0 -0.015625 3.59375 -1.5625q1.6875 -1.671875 1.828125 -4.03125q0.171875 -3.15625 -1.625 -5.25q-1.71875 -2.0 -4.25 -2.0q-1.40625 0 -2.46875 0.59375q-0.34375 0.203125 -0.65625 0.40625l0.140625 -6.453125q0.015625 -1.171875 -1.203125 -1.171875zm4.640625 17.171875q-1.5 0.203125 -3.75 -1.46875l0.109375 -5.375q1.9375 -1.890625 3.859375 -1.421875q1.25 0.296875 2.109375 1.234375q1.046875 1.15625 1.0 3.171875q-0.03125 1.359375 -0.96875 2.625q-0.78125 1.03125 -2.359375 1.234375zm10.019531 -17.171875q-1.046875 0.03125 -1.078125 1.09375l-0.390625 17.0q-0.03125 1.265625 1.03125 1.28125q1.265625 0.03125 1.265625 -1.25l0.375 -16.953125q0.015625 -1.171875 -1.203125 -1.171875zm6.0898438 13.796875l7.875 -1.140625q1.265625 -0.171875 1.3125 -1.609375q0.046875 -1.796875 -1.390625 -3.203125q-1.515625 -1.5 -4.234375 -1.328125q-2.59375 0.15625 -4.234375 2.515625q-1.3125 1.890625 -1.3125 4.296875q0 2.9375 2.078125 4.640625q1.6875 1.390625 3.921875 1.40625q3.046875 0.03125 4.921875 -1.640625q1.0625 -0.953125 0.515625 -2.03125q-0.234375 -0.46875 -0.796875 -0.359375q-0.5 0.109375 -1.296875 0.984375q-0.8125 0.921875 -3.203125 0.9375q-1.640625 0.015625 -2.953125 -1.140625q-1.140625 -1.0 -1.203125 -2.328125zm0.265625 -1.9375q0.328125 -1.15625 0.84375 -1.796875q1.171875 -1.4375 2.78125 -1.4375q1.171875 -0.015625 2.203125 0.640625q0.890625 0.578125 1.0625 1.59375l-6.890625 1.0zm22.929688 7.671875q1.09375 -0.015625 3.515625 -1.25q0.234375 1.5625 1.703125 1.25q1.28125 -0.25 0.28125 -1.96875q-0.6875 -1.171875 -0.640625 -3.984375q0.0625 -3.53125 0.328125 -5.0q0.28125 -1.5 -1.125 -1.8125q-0.71875 -0.15625 -1.0625 0.125q-3.0625 -0.96875 -5.875 1.34375q-2.453125 2.0 -2.421875 5.671875q0.03125 5.640625 5.296875 5.625zm1.359375 -2.359375q-0.890625 0.328125 -1.90625 0.265625q-2.421875 -0.171875 -2.46875 -3.75q0.109375 -2.765625 2.203125 -4.265625q0.515625 -0.390625 1.375 -0.609375q1.25 -0.296875 2.375 0.421875q-0.53125 1.890625 -0.109375 6.9375q-1.046875 0.84375 -1.46875 1.0zm7.953125 -11.125q-1.078125 0 -1.109375 1.09375l-0.265625 10.90625q-0.03125 1.25 1.015625 1.28125q1.25 0.015625 1.296875 -1.265625l0.1875 -7.09375q1.859375 -1.859375 3.484375 -1.734375q1.9375 0.140625 1.859375 3.375l-0.140625 5.546875q-0.046875 1.421875 1.234375 1.3125q1.109375 -0.09375 1.125 -1.515625l0.09375 -5.859375q0.078125 -5.34375 -4.34375 -5.34375q-2.0 0 -3.265625 1.15625q0 -0.359375 0.015625 -0.6875q0.03125 -1.171875 -1.1875 -1.171875zm21.375 -6.046875q-1.0625 0.03125 -1.078125 1.09375l-0.171875 6.765625q-0.453125 -0.3125 -1.0 -0.640625q-1.0625 -0.59375 -2.46875 -0.59375q-2.625 0 -4.25 2.0q-1.71875 2.125 -1.625 5.25q0.09375 2.296875 1.828125 4.03125q1.5625 1.546875 3.59375 1.5625q1.96875 0 3.703125 -1.09375q0.078125 0.984375 1.015625 1.0q1.265625 0.03125 1.28125 -1.25l0.359375 -16.953125q0.03125 -1.171875 -1.1875 -1.171875zm-1.4375 15.71875q-2.09375 1.640625 -3.734375 1.453125q-1.5625 -0.171875 -2.359375 -1.234375q-1.0 -1.296875 -0.96875 -2.625q0.046875 -2.078125 0.96875 -3.234375q0.65625 -0.8125 2.140625 -1.171875q2.015625 -0.5 4.078125 1.640625q0 2.734375 -0.125 5.171875z" fill-rule="nonzero"/><path fill="#cc0000" d="m201.83504 418.29077q-1.078125 0 -1.09375 1.09375l-0.28125 10.859375q-0.03125 1.265625 1.03125 1.28125q1.21875 0.03125 1.25 -1.25l0.203125 -6.484375q0.625 -2.4375 2.65625 -2.359375q1.796875 0.046875 1.734375 3.390625l-0.125 5.375q-0.03125 1.421875 1.171875 1.3125q1.09375 -0.09375 1.125 -1.515625l0.140625 -5.875q0.015625 -0.671875 0.046875 -0.71875q0.78125 -2.015625 2.921875 -1.953125q1.859375 0.046875 1.8125 3.515625l-0.078125 5.40625q-0.015625 1.421875 1.25 1.296875q1.09375 -0.09375 1.125 -1.515625l0.09375 -5.8125q0.078125 -5.34375 -4.359375 -5.34375q-2.40625 -0.015625 -3.609375 1.71875q-0.84375 -1.75 -3.28125 -1.71875q-1.5 0 -2.546875 0.9375l0.015625 -0.46875q0.015625 -1.171875 -1.203125 -1.171875zm21.832031 13.484375q1.09375 -0.015625 3.515625 -1.25q0.234375 1.5625 1.703125 1.25q1.28125 -0.25 0.28125 -1.96875q-0.6875 -1.171875 -0.640625 -3.984375q0.0625 -3.53125 0.328125 -5.0q0.28125 -1.5 -1.125 -1.8125q-0.71875 -0.15625 -1.0625 0.125q-3.0625 -0.96875 -5.875 1.34375q-2.453125 2.0 -2.421875 5.671875q0.03125 5.640625 5.296875 5.625zm1.359375 -2.359375q-0.890625 0.328125 -1.90625 0.265625q-2.421875 -0.171875 -2.46875 -3.75q0.109375 -2.765625 2.203125 -4.265625q0.515625 -0.390625 1.375 -0.609375q1.25 -0.296875 2.375 0.421875q-0.53125 1.890625 -0.109375 6.9375q-1.046875 0.84375 -1.46875 1.0zm7.953125 -11.125q-1.078125 0 -1.109375 1.09375l-0.265625 10.90625q-0.03125 1.25 1.015625 1.28125q1.25 0.015625 1.296875 -1.265625l0.1875 -7.09375q1.859375 -1.859375 3.484375 -1.734375q1.9375 0.140625 1.859375 3.375l-0.140625 5.546875q-0.046875 1.421875 1.234375 1.3125q1.109375 -0.09375 1.125 -1.515625l0.09375 -5.859375q0.078125 -5.34375 -4.34375 -5.34375q-2.0 0 -3.265625 1.15625q0 -0.359375 0.015625 -0.6875q0.03125 -1.171875 -1.1875 -1.171875zm13.203125 0.5625q-1.1875 -0.03125 -1.21875 1.53125l-0.203125 9.828125q-0.03125 1.484375 1.21875 1.5q1.109375 0 1.125 -1.59375l0.171875 -9.75q0.015625 -1.5 -1.09375 -1.515625zm0.078125 -5.328125q-0.390625 0 -0.71875 0.203125q-0.3125 0.21875 -0.515625 0.5625q-0.1875 0.328125 -0.1875 0.703125q0 0.390625 0.203125 0.734375q0.203125 0.328125 0.515625 0.515625q0.3125 0.1875 0.671875 0.203125q0.03125 0 0.0625 0q0.375 0.015625 0.65625 -0.140625q0.28125 -0.125 0.515625 -0.4375q0.265625 -0.34375 0.296875 -0.765625q0 -0.0625 0 -0.109375q0 -0.375 -0.15625 -0.6875q-0.1875 -0.375 -0.5625 -0.578125q-0.328125 -0.203125 -0.734375 -0.203125q-0.015625 0 -0.046875 0zm5.7265625 24.28125q1.0625 0 1.078125 -1.09375l0.140625 -6.25q0.03125 0.015625 0.046875 0.015625q0.78125 0.796875 2.7812653 0.640625q2.28125 -0.171875 3.828125 -2.09375q1.375 -1.71875 1.359375 -4.875q0 -2.171875 -1.515625 -3.796875q-1.53125 -1.671875 -3.625 -1.6875q-2.1562653 -0.015625 -2.7343903 0.4375q-0.296875 -0.671875 -0.90625 -0.671875q-1.25 -0.03125 -1.28125 1.25l-0.375 16.953125q-0.015625 1.171875 1.203125 1.171875zm1.4375 -16.15625q0.96875 -0.9375 2.5625 -0.734375q1.5000153 0.203125 2.2812653 1.171875q0.890625 1.125 0.875 2.625q-0.03125 1.625 -0.78125 2.734375q-0.890625 1.328125 -2.6250153 1.4375q-1.3125 0.09375 -2.453125 -1.171875l0.140625 -6.0625zm18.816422 10.359375q1.0625 0 1.078125 -1.09375l0.28125 -10.9375q0.03125 -1.265625 -1.03125 -1.296875q-1.234375 -0.015625 -1.28125 1.265625l-0.140625 5.921875q-0.046875 1.921875 -1.578125 2.6875q-1.6875 0.84375 -2.90625 0.03125q-0.890625 -0.625 -0.859375 -3.453125l0.015625 -5.125q0.03125 -1.40625 -1.21875 -1.296875q-1.09375 0.09375 -1.125 1.5l-0.046875 5.765625q-0.046875 5.328125 4.359375 5.34375q2.0 0 3.265625 -1.171875l0 0.703125q-0.03125 1.15625 1.1875 1.15625zm5.9179688 -19.765625q-1.046875 0.03125 -1.078125 1.09375l-0.390625 17.0q-0.03125 1.265625 1.03125 1.28125q1.265625 0.03125 1.265625 -1.25l0.375 -16.953125q0.015625 -1.171875 -1.203125 -1.171875zm8.964844 19.53125q1.09375 -0.015625 3.515625 -1.25q0.234375 1.5625 1.703125 1.25q1.28125 -0.25 0.28125 -1.96875q-0.6875 -1.171875 -0.640625 -3.984375q0.0625 -3.53125 0.328125 -5.0q0.28125 -1.5 -1.125 -1.8125q-0.71875 -0.15625 -1.0625 0.125q-3.0625 -0.96875 -5.875 1.34375q-2.453125 2.0 -2.421875 5.671875q0.03125 5.640625 5.296875 5.625zm1.359375 -2.359375q-0.890625 0.328125 -1.90625 0.265625q-2.421875 -0.171875 -2.46875 -3.75q0.109375 -2.765625 2.203125 -4.265625q0.515625 -0.390625 1.375 -0.609375q1.25 -0.296875 2.375 0.421875q-0.53125 1.890625 -0.109375 6.9375q-1.046875 0.84375 -1.46875 1.0zm8.109375 -17.171875q-1.046875 0 -1.078125 1.09375l-0.390625 17.0q-0.03125 1.265625 1.03125 1.28125q1.171875 0.03125 1.265625 -1.09375q1.78125 1.1875 3.8125 1.1875q2.0 -0.015625 3.59375 -1.5625q1.6875 -1.671875 1.828125 -4.03125q0.171875 -3.15625 -1.625 -5.25q-1.71875 -2.0 -4.25 -2.0q-1.40625 0 -2.46875 0.59375q-0.34375 0.203125 -0.65625 0.40625l0.140625 -6.453125q0.015625 -1.171875 -1.203125 -1.171875zm4.640625 17.171875q-1.5 0.203125 -3.75 -1.46875l0.109375 -5.375q1.9375 -1.890625 3.859375 -1.421875q1.25 0.296875 2.109375 1.234375q1.046875 1.15625 1.0 3.171875q-0.03125 1.359375 -0.96875 2.625q-0.78125 1.03125 -2.359375 1.234375zm10.019531 -17.171875q-1.046875 0.03125 -1.078125 1.09375l-0.390625 17.0q-0.03125 1.265625 1.03125 1.28125q1.265625 0.03125 1.265625 -1.25l0.375 -16.953125q0.015625 -1.171875 -1.203125 -1.171875zm6.0898438 13.796875l7.875 -1.140625q1.265625 -0.171875 1.3125 -1.609375q0.046875 -1.796875 -1.390625 -3.203125q-1.515625 -1.5 -4.234375 -1.328125q-2.59375 0.15625 -4.234375 2.515625q-1.3125 1.890625 -1.3125 4.296875q0 2.9375 2.078125 4.640625q1.6875 1.390625 3.921875 1.40625q3.046875 0.03125 4.921875 -1.640625q1.0625 -0.953125 0.515625 -2.03125q-0.234375 -0.46875 -0.796875 -0.359375q-0.5 0.109375 -1.296875 0.984375q-0.8125 0.921875 -3.203125 0.9375q-1.640625 0.015625 -2.953125 -1.140625q-1.140625 -1.0 -1.203125 -2.328125zm0.265625 -1.9375q0.328125 -1.15625 0.84375 -1.796875q1.171875 -1.4375 2.78125 -1.4375q1.171875 -0.015625 2.203125 0.640625q0.890625 0.578125 1.0625 1.59375l-6.890625 1.0zm20.117188 -11.859375q-1.046875 0 -1.078125 1.09375l-0.390625 17.0q-0.03125 1.265625 1.03125 1.28125q1.171875 0.03125 1.265625 -1.09375q1.78125 1.1875 3.8125 1.1875q2.0 -0.015625 3.59375 -1.5625q1.6875 -1.671875 1.828125 -4.03125q0.171875 -3.15625 -1.625 -5.25q-1.71875 -2.0 -4.25 -2.0q-1.40625 0 -2.46875 0.59375q-0.34375 0.203125 -0.65625 0.40625l0.140625 -6.453125q0.015625 -1.171875 -1.203125 -1.171875zm4.640625 17.171875q-1.5 0.203125 -3.75 -1.46875l0.109375 -5.375q1.9375 -1.890625 3.859375 -1.421875q1.25 0.296875 2.109375 1.234375q1.046875 1.15625 1.0 3.171875q-0.03125 1.359375 -0.96875 2.625q-0.78125 1.03125 -2.359375 1.234375zm17.753906 -10.359375q-1.125 -0.46875 -1.71875 0.921875l-3.21875 7.390625l-3.921875 -7.46875q-0.734375 -1.390625 -1.828125 -0.8125q-1.03125 0.5625 -0.28125 1.9375l4.875 9.03125l-2.328125 5.390625q-0.8125 1.859375 0.421875 2.359375q1.03125 0.421875 1.84375 -1.453125l6.6875 -15.4375q0.59375 -1.375 -0.53125 -1.859375zm11.4453125 6.984375l7.875 -1.140625q1.265625 -0.171875 1.3125 -1.609375q0.046875 -1.796875 -1.390625 -3.203125q-1.515625 -1.5 -4.234375 -1.328125q-2.59375 0.15625 -4.234375 2.515625q-1.3125 1.890625 -1.3125 4.296875q0 2.9375 2.078125 4.640625q1.6875 1.390625 3.921875 1.40625q3.046875 0.03125 4.921875 -1.640625q1.0625 -0.953125 0.515625 -2.03125q-0.234375 -0.46875 -0.796875 -0.359375q-0.5 0.109375 -1.296875 0.984375q-0.8125 0.921875 -3.203125 0.9375q-1.640625 0.015625 -2.953125 -1.140625q-1.140625 -1.0 -1.203125 -2.328125zm0.265625 -1.9375q0.328125 -1.15625 0.84375 -1.796875q1.171875 -1.4375 2.78125 -1.4375q1.171875 -0.015625 2.203125 0.640625q0.890625 0.578125 1.0625 1.59375l-6.890625 1.0zm11.2578125 -5.015625q-0.953125 0.75 0.03125 1.8125l4.078125 4.46875l-3.765625 4.03125q-1.15625 1.21875 -0.234375 2.03125q0.828125 0.734375 1.9375 -0.515625l3.484375 -3.890625l3.484375 3.890625q1.109375 1.25 1.9375 0.515625q0.921875 -0.796875 -0.234375 -2.03125l-3.703125 -4.046875l4.03125 -4.453125q0.96875 -1.0625 0.015625 -1.8125q-0.890625 -0.71875 -1.9375 0.5l-3.59375 4.125l-3.578125 -4.125q-1.0625 -1.203125 -1.953125 -0.5zm15.417969 18.71875q1.0625 0 1.078125 -1.09375l0.140625 -6.25q0.03125 0.015625 0.046875 0.015625q0.78125 0.796875 2.78125 0.640625q2.28125 -0.171875 3.828125 -2.09375q1.375 -1.71875 1.359375 -4.875q0 -2.171875 -1.515625 -3.796875q-1.53125 -1.671875 -3.625 -1.6875q-2.15625 -0.015625 -2.734375 0.4375q-0.296875 -0.671875 -0.90625 -0.671875q-1.25 -0.03125 -1.28125 1.25l-0.375 16.953125q-0.015625 1.171875 1.203125 1.171875zm1.4375 -16.15625q0.96875 -0.9375 2.5625 -0.734375q1.5 0.203125 2.28125 1.171875q0.890625 1.125 0.875 2.625q-0.03125 1.625 -0.78125 2.734375q-0.890625 1.328125 -2.625 1.4375q-1.3125 0.09375 -2.453125 -1.171875l0.140625 -6.0625zm11.769531 4.390625l7.875 -1.140625q1.265625 -0.171875 1.3125 -1.609375q0.046875 -1.796875 -1.390625 -3.203125q-1.515625 -1.5 -4.234375 -1.328125q-2.59375 0.15625 -4.234375 2.515625q-1.3125 1.890625 -1.3125 4.296875q0 2.9375 2.078125 4.640625q1.6875 1.390625 3.921875 1.40625q3.046875 0.03125 4.921875 -1.640625q1.0625 -0.953125 0.515625 -2.03125q-0.234375 -0.46875 -0.796875 -0.359375q-0.5 0.109375 -1.296875 0.984375q-0.8125 0.921875 -3.203125 0.9375q-1.640625 0.015625 -2.953125 -1.140625q-1.140625 -1.0 -1.203125 -2.328125zm0.265625 -1.9375q0.328125 -1.15625 0.84375 -1.796875q1.171875 -1.4375 2.78125 -1.4375q1.171875 -0.015625 2.203125 0.640625q0.890625 0.578125 1.0625 1.59375l-6.890625 1.0zm12.7890625 -5.8125q-1.078125 0 -1.109375 1.09375l-0.265625 10.953125q-0.03125 1.265625 1.015625 1.28125q1.234375 0.03125 1.265625 -1.25l0.203125 -7.6875q1.09375 -1.09375 2.421875 -1.34375q1.359375 -0.28125 2.421875 0.4375q1.34375 0.921875 1.859375 -0.578125q0.3125 -0.953125 -1.46875 -1.84375q-1.0 -0.5 -2.5625 -0.484375q-1.28125 0.03125 -2.59375 1.015625q0 -0.21875 0 -0.421875q0 -1.171875 -1.1875 -1.171875zm14.359375 -6.046875q-1.046875 0 -1.078125 1.09375l-0.125 5.546875q-1.359375 0.015625 -2.703125 0.015625q-1.125 0 -1.125 1.171875q0 1.15625 1.015625 1.15625q1.375 0 2.75 0l-0.203125 9.109375q-0.03125 1.265625 1.03125 1.28125q1.265625 0.03125 1.265625 -1.25l0.203125 -9.140625q1.25 0 2.515625 0q1.359375 0 1.359375 -1.203125q0 -1.171875 -1.4375 -1.171875l-2.375 0.015625q0.078125 -2.46875 0.109375 -5.453125q0 -1.171875 -1.203125 -1.171875zm10.136719 17.1875q-1.078125 -0.078125 -2.109375 -0.78125q-0.84375 -0.5625 -1.5 -0.140625q-0.53125 0.359375 -0.484375 1.125q0.046875 0.703125 0.859375 1.171875q0.921875 0.53125 1.546875 0.71875q1.03125 0.28125 2.671875 0.28125q1.953125 -0.015625 3.125 -0.8125q1.453125 -0.96875 1.640625 -2.484375q0.171875 -1.46875 -1.015625 -2.90625q-0.5 -0.609375 -1.796875 -1.203125q-0.9375 -0.4375 -2.0625 -0.5625q-1.40625 -0.15625 -1.625 -0.78125q-0.234375 -0.734375 0.34375 -1.390625q0.671875 -0.796875 2.09375 -0.875q1.328125 -0.046875 2.0 0.609375q1.359375 1.3125 2.03125 0.765625q0.546875 -0.4375 0.4375 -1.140625q-0.171875 -1.0625 -1.84375 -1.890625q-1.28125 -0.625 -3.0 -0.46875q-1.515625 0.140625 -2.6875 0.984375q-0.984375 0.703125 -1.484375 2.046875q-0.46875 1.21875 -0.1875 2.390625q0.359375 1.5 2.765625 1.84375q2.328125 0.328125 2.984375 1.03125q0.984375 1.046875 0.515625 1.78125q-0.59375 0.859375 -3.21875 0.6875z" fill-rule="nonzero"/><path fill="#ffffff" d="m467.61716 193.63394l0 0c0 -5.4214783 4.394989 -9.816467 9.816467 -9.816467l44.745026 0c2.6034546 0 5.100342 1.0342407 6.941284 2.875183c1.8409424 1.8409424 2.875183 4.337799 2.875183 6.941284l0 39.26471c0 5.4214783 -4.3949585 9.816467 -9.816467 9.816467l-44.745026 0c-5.4214783 0 -9.816467 -4.394989 -9.816467 -9.816467z" fill-rule="evenodd"/><path stroke="#cc0000" stroke-width="3.0" stroke-linejoin="round" stroke-linecap="butt" stroke-dasharray="12.0,9.0" d="m467.61716 193.63394l0 0c0 -5.4214783 4.394989 -9.816467 9.816467 -9.816467l44.745026 0c2.6034546 0 5.100342 1.0342407 6.941284 2.875183c1.8409424 1.8409424 2.875183 4.337799 2.875183 6.941284l0 39.26471c0 5.4214783 -4.3949585 9.816467 -9.816467 9.816467l-44.745026 0c-5.4214783 0 -9.816467 -4.394989 -9.816467 -9.816467z" fill-rule="evenodd"/><path fill="#ffffff" d="m657.6773 256.32037l0 0c3.223877 -4.7575684 9.694763 -6.0017242 14.453064 -2.7789001l36.059998 24.423615l0 0c2.2849731 1.5476685 3.8613892 3.9395142 4.3824463 6.649353c0.5210571 2.7098694 -0.056030273 5.515747 -1.604187 7.800415l-23.348816 34.45636c-3.223938 4.7575684 -9.694763 6.0017395 -14.453064 2.7789001l-36.059998 -24.423615c-4.758301 -3.2228088 -6.0021973 -9.6922 -2.7783203 -14.449768z" fill-rule="evenodd"/><path stroke="#cc0000" stroke-width="3.0" stroke-linejoin="round" stroke-linecap="butt" stroke-dasharray="12.0,9.0" d="m657.6773 256.32037l0 0c3.223877 -4.7575684 9.694763 -6.0017242 14.453064 -2.7789001l36.059998 24.423615l0 0c2.2849731 1.5476685 3.8613892 3.9395142 4.3824463 6.649353c0.5210571 2.7098694 -0.056030273 5.515747 -1.604187 7.800415l-23.348816 34.45636c-3.223938 4.7575684 -9.694763 6.0017395 -14.453064 2.7789001l-36.059998 -24.423615c-4.758301 -3.2228088 -6.0021973 -9.6922 -2.7783203 -14.449768z" fill-rule="evenodd"/><path fill="#f4cccc" d="m493.1106 108.25337l0 0c0 -5.421486 4.394989 -9.816475 9.816467 -9.816475l44.744995 0c2.6035156 0 5.100342 1.0342331 6.941284 2.875183c1.8410034 1.8409424 2.875183 4.337799 2.875183 6.941292l0 39.264694c0 5.4214935 -4.3949585 9.816467 -9.816467 9.816467l-44.744995 0c-5.4214783 0 -9.816467 -4.3949738 -9.816467 -9.816467z" fill-rule="evenodd"/><path stroke="#cc0000" stroke-width="3.0" stroke-linejoin="round" stroke-linecap="butt" d="m493.1106 108.25337l0 0c0 -5.421486 4.394989 -9.816475 9.816467 -9.816475l44.744995 0c2.6035156 0 5.100342 1.0342331 6.941284 2.875183c1.8410034 1.8409424 2.875183 4.337799 2.875183 6.941292l0 39.264694c0 5.4214935 -4.3949585 9.816467 -9.816467 9.816467l-44.744995 0c-5.4214783 0 -9.816467 -4.3949738 -9.816467 -9.816467z" fill-rule="evenodd"/><path fill="#f4cccc" d="m657.3567 359.10287l0 0c2.9310913 -4.560425 9.004028 -5.881012 13.56427 -2.9496155l37.627625 24.187653c2.1899414 1.4077148 3.730957 3.627716 4.2841797 6.1716614c0.55322266 2.5439758 0.07324219 5.2034607 -1.3342896 7.393463l-21.22815 33.028534c-2.9310913 4.560425 -9.004028 5.8810425 -13.564209 2.949646l-37.627686 -24.187653c-4.5602417 -2.9313965 -5.8809204 -9.0047 -2.949829 -13.5651245z" fill-rule="evenodd"/><path stroke="#cc0000" stroke-width="3.0" stroke-linejoin="round" stroke-linecap="butt" d="m657.3567 359.10287l0 0c2.9310913 -4.560425 9.004028 -5.881012 13.56427 -2.9496155l37.627625 24.187653c2.1899414 1.4077148 3.730957 3.627716 4.2841797 6.1716614c0.55322266 2.5439758 0.07324219 5.2034607 -1.3342896 7.393463l-21.22815 33.028534c-2.9310913 4.560425 -9.004028 5.8810425 -13.564209 2.949646l-37.627686 -24.187653c-4.5602417 -2.9313965 -5.8809204 -9.0047 -2.949829 -13.5651245z" fill-rule="evenodd"/><path fill="#000000" fill-opacity="0.0" d="m37.11811 135.02362l0 0c0 -16.638123 13.487862 -30.125984 30.125984 -30.125984l0 0c7.9899063 0 15.652573 3.1739807 21.302284 8.8237c5.649719 5.649719 8.8237 13.312378 8.8237 21.302284l0 0c0 16.638123 -13.487862 30.125992 -30.125984 30.125992l0 0c-16.638123 0 -30.125984 -13.487869 -30.125984 -30.125992z" fill-rule="evenodd"/><path stroke="#000000" stroke-width="3.0" stroke-linejoin="round" stroke-linecap="butt" d="m37.11811 135.02362l0 0c0 -16.638123 13.487862 -30.125984 30.125984 -30.125984l0 0c7.9899063 0 15.652573 3.1739807 21.302284 8.8237c5.649719 5.649719 8.8237 13.312378 8.8237 21.302284l0 0c0 16.638123 -13.487862 30.125992 -30.125984 30.125992l0 0c-16.638123 0 -30.125984 -13.487869 -30.125984 -30.125992z" fill-rule="evenodd"/><path fill="#000000" fill-opacity="0.0" d="m220.33333 135.02362l0 0c0 -16.638123 13.487869 -30.125984 30.125992 -30.125984l0 0c7.9898987 0 15.652557 3.1739807 21.302277 8.8237c5.649719 5.649719 8.8237 13.312378 8.8237 21.302284l0 0c0 16.638123 -13.487854 30.125992 -30.125977 30.125992l0 0c-16.638123 0 -30.125992 -13.487869 -30.125992 -30.125992z" fill-rule="evenodd"/><path stroke="#000000" stroke-width="3.0" stroke-linejoin="round" stroke-linecap="butt" d="m220.33333 135.02362l0 0c0 -16.638123 13.487869 -30.125984 30.125992 -30.125984l0 0c7.9898987 0 15.652557 3.1739807 21.302277 8.8237c5.649719 5.649719 8.8237 13.312378 8.8237 21.302284l0 0c0 16.638123 -13.487854 30.125992 -30.125977 30.125992l0 0c-16.638123 0 -30.125992 -13.487869 -30.125992 -30.125992z" fill-rule="evenodd"/><path fill="#000000" fill-opacity="0.0" d="m116.808395 295.06824l0 0c0 -16.638123 13.487869 -30.125977 30.125992 -30.125977l0 0c7.9898987 0 15.652573 3.1739807 21.302277 8.8237c5.649719 5.649719 8.8237 13.312378 8.8237 21.302277l0 0c0 16.638123 -13.487854 30.125977 -30.125977 30.125977l0 0c-16.638123 0 -30.125992 -13.487854 -30.125992 -30.125977z" fill-rule="evenodd"/><path stroke="#000000" stroke-width="3.0" stroke-linejoin="round" stroke-linecap="butt" d="m116.808395 295.06824l0 0c0 -16.638123 13.487869 -30.125977 30.125992 -30.125977l0 0c7.9898987 0 15.652573 3.1739807 21.302277 8.8237c5.649719 5.649719 8.8237 13.312378 8.8237 21.302277l0 0c0 16.638123 -13.487854 30.125977 -30.125977 30.125977l0 0c-16.638123 0 -30.125992 -13.487854 -30.125992 -30.125977z" fill-rule="evenodd"/><path fill="#000000" fill-opacity="0.0" d="m469.67978 383.08923l0 0c0 -16.638123 13.4878845 -30.125977 30.126007 -30.125977l0 0c7.9898987 0 15.652588 3.1739807 21.302246 8.8237c5.649719 5.649719 8.82373 13.312378 8.82373 21.302277l0 0c0 16.638123 -13.487854 30.125977 -30.125977 30.125977l0 0c-16.638123 0 -30.126007 -13.487854 -30.126007 -30.125977z" fill-rule="evenodd"/><path stroke="#000000" stroke-width="3.0" stroke-linejoin="round" stroke-linecap="butt" d="m469.67978 383.08923l0 0c0 -16.638123 13.4878845 -30.125977 30.126007 -30.125977l0 0c7.9898987 0 15.652588 3.1739807 21.302246 8.8237c5.649719 5.649719 8.82373 13.312378 8.82373 21.302277l0 0c0 16.638123 -13.487854 30.125977 -30.125977 30.125977l0 0c-16.638123 0 -30.126007 -13.487854 -30.126007 -30.125977z" fill-rule="evenodd"/><path fill="#000000" fill-opacity="0.0" d="m76.19423 164.66142c12.214478 36.643433 33.73974 69.764465 55.165344 101.90288" fill-rule="evenodd"/><path stroke="#000000" stroke-width="3.0" stroke-linejoin="round" stroke-linecap="butt" d="m76.19423 164.66142c6.107231 18.321716 14.542168 35.762833 24.128494 52.640823c4.7931595 8.438995 9.874176 16.737213 15.095993 24.934326c2.6109161 4.0985413 5.2570343 8.171829 7.9199677 12.224823c0.66573334 1.0132141 1.3325119 2.0252075 2.000061 3.0359802l0.33262634 0.50253296" fill-rule="evenodd"/><path fill="#000000" stroke="#000000" stroke-width="3.0" stroke-linecap="butt" d="m125.67137 257.99994l-4.6769257 -0.94381714l7.93869 5.8548584l-2.3179626 -9.587982z" fill-rule="evenodd"/><path fill="#000000" fill-opacity="0.0" d="m96.115486 132.48315c41.92263 0 85.88224 -7.8948975 125.65354 5.362198" fill-rule="evenodd"/><path stroke="#000000" stroke-width="3.0" stroke-linejoin="round" stroke-linecap="butt" d="m96.115486 132.48315c20.961319 0 42.431877 -1.9737244 63.633522 -2.2903137c10.600815 -0.15829468 21.134415 0.09770203 31.50351 1.2218323c5.184555 0.5620575 10.327972 1.3411713 15.418106 2.394043c1.2725372 0.2632141 2.5417328 0.5435486 3.8074188 0.8418579c0.31643677 0.07460022 0.6326294 0.15029907 0.9486084 0.22714233l0.4648285 0.11480713" fill-rule="evenodd"/><path fill="#000000" stroke="#000000" stroke-width="3.0" stroke-linecap="butt" d="m211.8915 134.99252l-4.177414 2.30513l9.841461 -0.6692352l-7.9691772 -5.8133087z" fill-rule="evenodd"/><path fill="#000000" fill-opacity="0.0" d="m233.26247 158.5328c-15.697067 40.80162 -41.642593 77.02164 -65.892395 113.39633" fill-rule="evenodd"/><path stroke="#000000" stroke-width="3.0" stroke-linejoin="round" stroke-linecap="butt" d="m233.26247 158.5328c-7.8485413 20.400818 -18.259186 39.656235 -29.738922 58.358276c-5.739868 9.350998 -11.747009 18.56369 -17.834793 27.712036c-3.0438995 4.574173 -6.107956 9.132263 -9.1688385 13.683502l-3.4282532 5.100403" fill-rule="evenodd"/><path fill="#000000" stroke="#000000" stroke-width="3.0" stroke-linecap="butt" d="m173.09166 263.38702l-0.9255371 -4.6805725l-2.3553772 9.578857l7.961487 -5.823822z" fill-rule="evenodd"/><path fill="#000000" fill-opacity="0.0" d="m499.1286 242.81364c0 37.28871 -0.76638794 74.574814 -0.76638794 111.86351" fill-rule="evenodd"/><path stroke="#000000" stroke-width="3.0" stroke-linejoin="round" stroke-linecap="butt" d="m499.1286 242.81364c0 18.644363 -0.19158936 37.28807 -0.38320923 55.931747c-0.09579468 9.321869 -0.19158936 18.643707 -0.26342773 27.965637c-0.03591919 4.66098 -0.06585693 9.32196 -0.08682251 13.983002l-0.012878418 3.7018738" fill-rule="evenodd"/><path fill="#000000" stroke="#000000" stroke-width="3.0" stroke-linecap="butt" d="m498.38226 344.39594l-3.367157 -3.3803406l3.3556519 9.275879l3.3918152 -9.262726z" fill-rule="evenodd"/><path fill="#000000" fill-opacity="0.0" d="m530.5407 221.35957c41.232666 0 76.035034 33.041885 110.33069 55.931778" fill-rule="evenodd"/><path stroke="#000000" stroke-width="3.0" stroke-linejoin="round" stroke-linecap="butt" d="m530.5407 221.35957c20.616333 0 39.625122 8.260468 57.766724 19.382187c9.070862 5.560837 17.924866 11.837006 26.654663 18.153564c4.364929 3.1582947 8.69873 6.32666 13.013123 9.420807c1.0786133 0.77352905 2.1559448 1.5423889 3.2322998 2.3053284l1.1932983 0.8428345" fill-rule="evenodd"/><path fill="#000000" stroke="#000000" stroke-width="3.0" stroke-linecap="butt" d="m632.4009 271.4643l-4.6917114 0.86746216l9.54895 2.473938l-5.7247314 -8.033081z" fill-rule="evenodd"/><path fill="#000000" fill-opacity="0.0" d="m528.2441 372.29922c44.938904 0 91.55054 -22.649597 123.35437 -54.398956" fill-rule="evenodd"/><path stroke="#000000" stroke-width="3.0" stroke-linejoin="round" stroke-linecap="butt" d="m538.51807 371.91147l0.28137207 -0.020507812c0.7046509 -0.054016113 1.4094238 -0.11328125 2.1142578 -0.17779541c1.4096069 -0.12896729 2.819336 -0.27886963 4.2286987 -0.44918823c5.637451 -0.68133545 11.26886 -1.6901245 16.862 -2.999878c11.186279 -2.6194458 22.219666 -6.44281 32.84253 -11.258362c21.245789 -9.631073 40.84961 -23.230804 56.751526 -39.10547" fill-rule="evenodd"/><path fill="#000000" stroke="#000000" stroke-width="3.0" stroke-linecap="butt" d="m538.51807 371.91147l3.2440796 -3.4985962l-9.135437 3.7209473l9.389893 3.021759z" fill-rule="evenodd"/></g></svg>