<svg version="1.1" viewBox="0.0 0.0 791.9501312335958 172.26509186351706" fill="none" stroke="none" stroke-linecap="square" stroke-miterlimit="10" xmlns:xlink="http://www.w3.org/1999/xlink" xmlns="http://www.w3.org/2000/svg"><clipPath id="p.0"><path d="m0 0l791.95013 0l0 172.26509l-791.95013 0l0 -172.26509z" clip-rule="nonzero"/></clipPath><g clip-path="url(#p.0)"><path fill="#ffffff" d="m0 0l791.95013 0l0 172.26509l-791.95013 0z" fill-rule="evenodd"/><path fill="#000000" fill-opacity="0.0" d="m13.6850395 61.955574l0 0c0 -5.3808975 4.3620796 -9.742977 9.742977 -9.742977l273.36444 0c2.584015 0 5.0621643 1.0264893 6.8893433 2.853653c1.8271484 1.8271637 2.8536377 4.3053284 2.8536377 6.889324l0 38.97074c0 5.3808975 -4.362091 9.742973 -9.742981 9.742973l-273.36444 0l0 0c-5.3808975 0 -9.742977 -4.362076 -9.742977 -9.742973z" fill-rule="evenodd"/><path stroke="#3c78d8" stroke-width="3.0" stroke-linejoin="round" stroke-linecap="butt" d="m13.6850395 61.955574l0 0c0 -5.3808975 4.3620796 -9.742977 9.742977 -9.742977l273.36444 0c2.584015 0 5.0621643 1.0264893 6.8893433 2.853653c1.8271484 1.8271637 2.8536377 4.3053284 2.8536377 6.889324l0 38.97074c0 5.3808975 -4.362091 9.742973 -9.742981 9.742973l-273.36444 0l0 0c-5.3808975 0 -9.742977 -4.362076 -9.742977 -9.742973z" fill-rule="evenodd"/><path fill="#3c78d8" d="m35.104683 77.032814q1.03125 -0.6875 2.25 -0.40625q0.8125 0.1875 1.4375 0.609375q0.6875 0.46875 1.328125 -0.125q0.359375 -0.34375 0.3125 -1.015625q-0.03125 -0.515625 -1.1875 -1.109375q-1.515625 -0.765625 -3.421875 -0.46875q-1.984375 0.3125 -3.765625 2.828125q-1.2187481 1.734375 -1.2187481 5.109375q-0.015625 2.8125 1.3124981 4.5625q1.3125 1.71875 3.515625 1.796875q1.6875 0.0625 3.125 -0.53125q1.765625 -0.71875 1.84375 -1.421875q0.125 -1.21875 -0.75 -1.390625q-0.515625 -0.109375 -1.8125 0.71875q-0.890625 0.59375 -2.53125 0.5q-1.15625 -0.046875 -1.859375 -1.09375q-0.859375 -1.328125 -0.859375 -3.359375q0 -2.203125 0.75 -3.5q0.65625 -1.140625 1.53125 -1.703125zm14.100494 12.015625q0.828125 0 0.84375 -0.84375l0.21875 -8.5q0.015625 -0.984375 -0.796875 -1.015625q-0.96875 0 -1.0 0.984375l-0.109375 4.609375q-0.046875 1.484375 -1.234375 2.09375q-1.296875 0.65625 -2.25 0.015625q-0.6875 -0.484375 -0.671875 -2.6875l0.015625 -3.984375q0.015625 -1.09375 -0.953125 -1.0q-0.859375 0.078125 -0.875 1.171875l-0.03125 4.46875q-0.03125 4.140625 3.390625 4.15625q1.546875 0 2.546875 -0.90625l-0.015625 0.546875q-0.015625 0.890625 0.921875 0.890625zm3.9828644 -10.65625q-0.828125 0 -0.859375 0.84375l-0.203125 8.453125q-0.03125 0.96875 0.796875 0.984375q0.9375 0.03125 0.96875 -0.96875l0.15625 -5.03125q0.5 -1.90625 2.0625 -1.84375q1.40625 0.046875 1.359375 2.640625l-0.09375 4.1875q-0.03125 1.078125 0.90625 1.0q0.84375 -0.0625 0.875 -1.171875l0.109375 -4.5625q0.015625 -0.53125 0.03125 -0.5625q0.609375 -1.5625 2.28125 -1.515625q1.4375 0.03125 1.390625 2.734375l-0.046875 4.203125q-0.015625 1.09375 0.96875 1.0q0.859375 -0.0625 0.875 -1.171875l0.0625 -4.53125q0.0625 -4.140625 -3.390625 -4.140625q-1.859375 -0.015625 -2.796875 1.328125q-0.65625 -1.359375 -2.546875 -1.328125q-1.171875 0 -1.984375 0.734375l0.015625 -0.375q0.015625 -0.90625 -0.9375 -0.90625zm20.21196 10.65625q0.828125 0 0.84375 -0.84375l0.21875 -8.5q0.015625 -0.984375 -0.796875 -1.015625q-0.96875 0 -1.0 0.984375l-0.109375 4.609375q-0.046875 1.484375 -1.234375 2.09375q-1.296875 0.65625 -2.25 0.015625q-0.6875 -0.484375 -0.671875 -2.6875l0.015625 -3.984375q0.015625 -1.09375 -0.953125 -1.0q-0.859375 0.078125 -0.875 1.171875l-0.03125 4.46875q-0.03125 4.140625 3.390625 4.15625q1.546875 0 2.546875 -0.90625l-0.015625 0.546875q-0.015625 0.890625 0.921875 0.890625zm4.6078644 -15.359375q-0.828125 0.03125 -0.84375 0.859375l-0.3125 13.21875q-0.015625 0.96875 0.8125 0.984375q0.984375 0.015625 0.984375 -0.96875l0.28125 -13.1875q0.03125 -0.90625 -0.921875 -0.90625zm6.969803 15.1875q0.84375 -0.015625 2.734375 -0.96875q0.171875 1.203125 1.3125 0.96875q1.0 -0.203125 0.21875 -1.53125q-0.53125 -0.921875 -0.484375 -3.109375q0.046875 -2.734375 0.25 -3.875q0.21875 -1.171875 -0.875 -1.40625q-0.5625 -0.125 -0.828125 0.09375q-2.390625 -0.75 -4.578125 1.046875q-1.890625 1.546875 -1.875 4.40625q0.03125 4.375 4.125 4.375zm1.046875 -1.84375q-0.6875 0.265625 -1.484375 0.203125q-1.875 -0.125 -1.90625 -2.90625q0.078125 -2.140625 1.703125 -3.3125q0.40625 -0.3125 1.078125 -0.46875q0.96875 -0.234375 1.84375 0.3125q-0.421875 1.484375 -0.09375 5.390625q-0.8125 0.671875 -1.140625 0.78125zm8.390503 -13.34375q-0.828125 0 -0.84375 0.859375l-0.09375 4.296875q-1.0625 0.015625 -2.109375 0.015625q-0.859375 0 -0.859375 0.921875q0 0.890625 0.78125 0.890625q1.0625 0 2.140625 0l-0.171875 7.09375q-0.015625 0.96875 0.8125 0.984375q0.984375 0.015625 0.984375 -0.96875l0.15625 -7.109375q0.984375 0 1.953125 0q1.0625 0 1.0625 -0.9375q0 -0.90625 -1.125 -0.90625l-1.84375 0.015625q0.0625 -1.921875 0.078125 -4.25q0 -0.90625 -0.921875 -0.90625zm7.0875397 5.140625q-0.921875 -0.03125 -0.953125 1.1875l-0.15625 7.640625q-0.015625 1.15625 0.953125 1.15625q0.859375 0 0.875 -1.234375l0.125 -7.578125q0.015625 -1.15625 -0.84375 -1.171875zm0.0625 -4.140625q-0.3125 0 -0.5625 0.171875q-0.234375 0.15625 -0.390625 0.421875q-0.15625 0.25 -0.15625 0.546875q0 0.3125 0.15625 0.578125q0.15625 0.25 0.40625 0.390625q0.234375 0.15625 0.515625 0.15625q0.03125 0 0.0625 0q0.28125 0.015625 0.5 -0.109375q0.21875 -0.09375 0.40625 -0.328125q0.203125 -0.265625 0.234375 -0.59375q0 -0.046875 0 -0.09375q0 -0.28125 -0.140625 -0.53125q-0.140625 -0.296875 -0.421875 -0.453125q-0.265625 -0.15625 -0.578125 -0.15625q-0.015625 0 -0.03125 0zm3.4632263 4.140625q-0.765625 0.328125 -0.328125 1.484375l2.859375 7.46875q0.40625 0.984375 1.109375 0.984375q0.6875 0 1.078125 -0.984375l2.859375 -7.46875q0.4375 -1.15625 -0.328125 -1.484375q-0.90625 -0.375 -1.328125 0.78125l-2.296875 6.375l-2.296875 -6.375q-0.421875 -1.15625 -1.328125 -0.78125zm10.354309 5.59375l6.125 -0.890625q0.96875 -0.140625 1.0 -1.25q0.046875 -1.40625 -1.0625 -2.5q-1.1875 -1.15625 -3.296875 -1.03125q-2.015625 0.125 -3.296875 1.953125q-1.015625 1.46875 -1.015625 3.34375q0 2.28125 1.625 3.609375q1.296875 1.078125 3.03125 1.09375q2.375 0.015625 3.828125 -1.28125q0.828125 -0.734375 0.40625 -1.578125q-0.1875 -0.359375 -0.625 -0.265625q-0.390625 0.078125 -1.0 0.75q-0.640625 0.71875 -2.5 0.734375q-1.265625 0.015625 -2.296875 -0.890625q-0.875 -0.78125 -0.921875 -1.796875zm0.203125 -1.515625q0.25 -0.890625 0.65625 -1.390625q0.90625 -1.125 2.171875 -1.125q0.890625 -0.015625 1.703125 0.5q0.6875 0.453125 0.828125 1.234375l-5.359375 0.78125zm15.530251 -8.21875q-1.234375 0 -1.234375 0.8125q0 0.953125 1.15625 0.953125q2.140625 0 4.296875 -0.015625l-0.28125 11.453125q-0.015625 0.90625 0.796875 0.921875q0.96875 0.015625 1.0 -0.90625l0.265625 -11.46875l3.84375 -0.015625q1.21875 0 1.203125 -0.828125q-0.03125 -0.90625 -1.203125 -0.90625l-9.84375 0zm13.164795 4.140625q-0.921875 -0.03125 -0.953125 1.1875l-0.15625 7.640625q-0.015625 1.15625 0.953125 1.15625q0.859375 0 0.875 -1.234375l0.125 -7.578125q0.015625 -1.15625 -0.84375 -1.171875zm0.0625 -4.140625q-0.3125 0 -0.5625 0.171875q-0.234375 0.15625 -0.390625 0.421875q-0.15625 0.25 -0.15625 0.546875q0 0.3125 0.15625 0.578125q0.15625 0.25 0.40625 0.390625q0.234375 0.15625 0.515625 0.15625q0.03125 0 0.0625 0q0.28125 0.015625 0.5 -0.109375q0.21875 -0.09375 0.40625 -0.328125q0.203125 -0.265625 0.234375 -0.59375q0 -0.046875 0 -0.09375q0 -0.28125 -0.140625 -0.53125q-0.140625 -0.296875 -0.421875 -0.453125q-0.265625 -0.15625 -0.578125 -0.15625q-0.015625 0 -0.03125 0zm4.4944763 3.703125q-0.828125 0 -0.859375 0.84375l-0.203125 8.453125q-0.03125 0.96875 0.796875 0.984375q0.9375 0.03125 0.96875 -0.96875l0.15625 -5.03125q0.5 -1.90625 2.0625 -1.84375q1.40625 0.046875 1.359375 2.640625l-0.09375 4.1875q-0.03125 1.078125 0.90625 1.0q0.84375 -0.0625 0.875 -1.171875l0.109375 -4.5625q0.015625 -0.53125 0.03125 -0.5625q0.609375 -1.5625 2.28125 -1.515625q1.4375 0.03125 1.390625 2.734375l-0.046875 4.203125q-0.015625 1.09375 0.96875 1.0q0.859375 -0.0625 0.875 -1.171875l0.0625 -4.53125q0.0625 -4.140625 -3.390625 -4.140625q-1.859375 -0.015625 -2.796875 1.328125q-0.65625 -1.359375 -2.546875 -1.328125q-1.171875 0 -1.984375 0.734375l0.015625 -0.375q0.015625 -0.90625 -0.9375 -0.90625zm14.74321 6.03125l6.125 -0.890625q0.96875 -0.140625 1.0 -1.25q0.046875 -1.40625 -1.0625 -2.5q-1.1875 -1.15625 -3.296875 -1.03125q-2.015625 0.125 -3.296875 1.953125q-1.015625 1.46875 -1.015625 3.34375q0 2.28125 1.625 3.609375q1.296875 1.078125 3.03125 1.09375q2.375 0.015625 3.828125 -1.28125q0.828125 -0.734375 0.40625 -1.578125q-0.1875 -0.359375 -0.625 -0.265625q-0.390625 0.078125 -1.0 0.75q-0.640625 0.71875 -2.5 0.734375q-1.265625 0.015625 -2.296875 -0.890625q-0.875 -0.78125 -0.921875 -1.796875zm0.203125 -1.515625q0.25 -0.890625 0.65625 -1.390625q0.90625 -1.125 2.171875 -1.125q0.890625 -0.015625 1.703125 0.5q0.6875 0.453125 0.828125 1.234375l-5.359375 0.78125zm11.236481 4.140625q-0.84375 -0.046875 -1.640625 -0.59375q-0.65625 -0.453125 -1.171875 -0.109375q-0.421875 0.265625 -0.390625 0.875q0.046875 0.546875 0.6875 0.90625q0.703125 0.40625 1.203125 0.546875q0.796875 0.21875 2.078125 0.21875q1.5 -0.015625 2.421875 -0.625q1.125 -0.75 1.265625 -1.921875q0.140625 -1.15625 -0.78125 -2.265625q-0.390625 -0.46875 -1.390625 -0.9375q-0.734375 -0.34375 -1.609375 -0.4375q-1.09375 -0.125 -1.265625 -0.609375q-0.171875 -0.5625 0.265625 -1.078125q0.53125 -0.625 1.625 -0.6875q1.03125 -0.03125 1.5625 0.484375q1.0625 1.015625 1.578125 0.59375q0.421875 -0.34375 0.34375 -0.890625q-0.140625 -0.828125 -1.4375 -1.46875q-1.0 -0.484375 -2.328125 -0.375q-1.1875 0.109375 -2.09375 0.765625q-0.765625 0.546875 -1.15625 1.59375q-0.359375 0.953125 -0.140625 1.859375q0.28125 1.171875 2.15625 1.4375q1.796875 0.25 2.3125 0.796875q0.765625 0.828125 0.390625 1.390625q-0.453125 0.671875 -2.484375 0.53125zm9.988419 -13.359375q-0.828125 0 -0.84375 0.859375l-0.09375 4.296875q-1.0625 0.015625 -2.109375 0.015625q-0.859375 0 -0.859375 0.921875q0 0.890625 0.78125 0.890625q1.0625 0 2.140625 0l-0.171875 7.09375q-0.015625 0.96875 0.8125 0.984375q0.984375 0.015625 0.984375 -0.96875l0.15625 -7.109375q0.984375 0 1.953125 0q1.0625 0 1.0625 -0.9375q0 -0.90625 -1.125 -0.90625l-1.84375 0.015625q0.0625 -1.921875 0.078125 -4.25q0 -0.90625 -0.921875 -0.90625zm6.6656647 10.734375l6.125 -0.890625q0.96875 -0.140625 1.0 -1.25q0.046875 -1.40625 -1.0625 -2.5q-1.1875 -1.15625 -3.296875 -1.03125q-2.015625 0.125 -3.296875 1.953125q-1.015625 1.46875 -1.015625 3.34375q0 2.28125 1.625 3.609375q1.296875 1.078125 3.03125 1.09375q2.375 0.015625 3.828125 -1.28125q0.828125 -0.734375 0.40625 -1.578125q-0.1875 -0.359375 -0.625 -0.265625q-0.390625 0.078125 -1.0 0.75q-0.640625 0.71875 -2.5 0.734375q-1.265625 0.015625 -2.296875 -0.890625q-0.875 -0.78125 -0.921875 -1.796875zm0.203125 -1.515625q0.25 -0.890625 0.65625 -1.390625q0.90625 -1.125 2.171875 -1.125q0.890625 -0.015625 1.703125 0.5q0.6875 0.453125 0.828125 1.234375l-5.359375 0.78125zm9.720856 10.65625q0.828125 0 0.84375 -0.859375l0.109375 -4.859375q0.015625 0.015625 0.03125 0.03125q0.609375 0.609375 2.15625 0.484375q1.78125 -0.125 2.984375 -1.625q1.0625 -1.328125 1.0625 -3.78125q0 -1.703125 -1.1875 -2.96875q-1.1875 -1.296875 -2.8125 -1.296875q-1.671875 -0.015625 -2.140625 0.328125q-0.21875 -0.515625 -0.703125 -0.515625q-0.96875 -0.03125 -0.984375 0.96875l-0.296875 13.1875q-0.015625 0.90625 0.9375 0.90625zm1.109375 -12.5625q0.765625 -0.734375 2.0 -0.5625q1.171875 0.15625 1.765625 0.90625q0.703125 0.859375 0.6875 2.046875q-0.015625 1.25 -0.609375 2.125q-0.6875 1.015625 -2.046875 1.109375q-1.015625 0.078125 -1.90625 -0.90625l0.109375 -4.71875zm10.381149 6.046875q-0.84375 -0.046875 -1.640625 -0.59375q-0.65625 -0.453125 -1.171875 -0.109375q-0.421875 0.265625 -0.390625 0.875q0.046875 0.546875 0.6875 0.90625q0.703125 0.40625 1.203125 0.546875q0.796875 0.21875 2.078125 0.21875q1.5 -0.015625 2.421875 -0.625q1.125 -0.75 1.265625 -1.921875q0.140625 -1.15625 -0.78125 -2.265625q-0.390625 -0.46875 -1.390625 -0.9375q-0.734375 -0.34375 -1.609375 -0.4375q-1.09375 -0.125 -1.265625 -0.609375q-0.171875 -0.5625 0.265625 -1.078125q0.53125 -0.625 1.625 -0.6875q1.03125 -0.03125 1.5625 0.484375q1.0625 1.015625 1.578125 0.59375q0.421875 -0.34375 0.34375 -0.890625q-0.140625 -0.828125 -1.4375 -1.46875q-1.0 -0.484375 -2.328125 -0.375q-1.1875 0.109375 -2.09375 0.765625q-0.765625 0.546875 -1.15625 1.59375q-0.359375 0.953125 -0.140625 1.859375q0.28125 1.171875 2.15625 1.4375q1.796875 0.25 2.3125 0.796875q0.765625 0.828125 0.390625 1.390625q-0.453125 0.671875 -2.484375 0.53125zm13.688431 -12.46875q-0.84375 0.015625 -0.859375 0.796875l-0.296875 12.46875q-0.03125 0.921875 0.78125 0.9375q0.984375 0 1.015625 -0.9375l0.109375 -5.234375l7.875 0q-0.0625 2.609375 -0.125 5.234375q-0.015625 0.921875 0.8125 0.9375q0.984375 0.015625 0.984375 -0.921875l0.28125 -12.421875q0.015625 -0.859375 -0.921875 -0.859375q-0.828125 0.03125 -0.84375 0.8125l-0.140625 5.3125l-7.875 0l0.125 -5.28125q0.015625 -0.84375 -0.921875 -0.84375zm14.501114 4.25q-0.921875 -0.03125 -0.953125 1.1875l-0.15625 7.640625q-0.015625 1.15625 0.953125 1.15625q0.859375 0 0.875 -1.234375l0.125 -7.578125q0.015625 -1.15625 -0.84375 -1.171875zm0.0625 -4.140625q-0.3125 0 -0.5625 0.171875q-0.234375 0.15625 -0.390625 0.421875q-0.15625 0.25 -0.15625 0.546875q0 0.3125 0.15625 0.578125q0.15625 0.25 0.40625 0.390625q0.234375 0.15625 0.515625 0.15625q0.03125 0 0.0625 0q0.28125 0.015625 0.5 -0.109375q0.21875 -0.09375 0.40625 -0.328125q0.203125 -0.265625 0.234375 -0.59375q0 -0.046875 0 -0.09375q0 -0.28125 -0.140625 -0.53125q-0.140625 -0.296875 -0.421875 -0.453125q-0.265625 -0.15625 -0.578125 -0.15625q-0.015625 0 -0.03125 0zm5.9632263 12.359375q-0.84375 -0.046875 -1.640625 -0.59375q-0.65625 -0.453125 -1.171875 -0.109375q-0.421875 0.265625 -0.390625 0.875q0.046875 0.546875 0.6875 0.90625q0.703125 0.40625 1.203125 0.546875q0.796875 0.21875 2.078125 0.21875q1.5 -0.015625 2.421875 -0.625q1.125 -0.75 1.265625 -1.921875q0.140625 -1.15625 -0.78125 -2.265625q-0.390625 -0.46875 -1.390625 -0.9375q-0.734375 -0.34375 -1.609375 -0.4375q-1.09375 -0.125 -1.265625 -0.609375q-0.171875 -0.5625 0.265625 -1.078125q0.53125 -0.625 1.625 -0.6875q1.03125 -0.03125 1.5625 0.484375q1.0625 1.015625 1.578125 0.59375q0.421875 -0.34375 0.34375 -0.890625q-0.140625 -0.828125 -1.4375 -1.46875q-1.0 -0.484375 -2.328125 -0.375q-1.1875 0.109375 -2.09375 0.765625q-0.765625 0.546875 -1.15625 1.59375q-0.359375 0.953125 -0.140625 1.859375q0.28125 1.171875 2.15625 1.4375q1.796875 0.25 2.3125 0.796875q0.765625 0.828125 0.390625 1.390625q-0.453125 0.671875 -2.484375 0.53125zm9.988403 -13.359375q-0.828125 0 -0.84375 0.859375l-0.09375 4.296875q-1.0624847 0.015625 -2.1093597 0.015625q-0.859375 0 -0.859375 0.921875q0 0.890625 0.78125 0.890625q1.0625 0 2.1406097 0l-0.171875 7.09375q-0.015625 0.96875 0.8125 0.984375q0.984375 0.015625 0.984375 -0.96875l0.15625 -7.109375q0.984375 0 1.953125 0q1.0625 0 1.0625 -0.9375q0 -0.90625 -1.125 -0.90625l-1.84375 0.015625q0.0625 -1.921875 0.078125 -4.25q0 -0.90625 -0.921875 -0.90625zm9.54068 6.96875q1.921875 -0.03125 1.90625 3.21875q-0.015625 1.703125 -0.734375 2.484375q-0.671875 0.71875 -1.671875 0.71875q-0.875 0 -1.546875 -0.71875q-0.65625 -0.71875 -0.65625 -2.140625q0 -1.484375 0.90625 -2.734375q0.59375 -0.796875 1.796875 -0.828125zm-0.078125 -1.859375q-1.984375 -0.015625 -3.1875 1.578125q-1.21875 1.59375 -1.21875 3.671875q0 2.203125 1.015625 3.40625q1.125 1.34375 2.75 1.359375q2.25 0.015625 3.34375 -1.375q0.96875 -1.171875 0.984375 -3.390625q0 -5.21875 -3.6875 -5.25zm6.935913 -0.40625q-0.84375 0 -0.859375 0.84375l-0.203125 8.53125q-0.03125 0.96875 0.78125 0.984375q0.953125 0.015625 0.984375 -0.96875l0.15625 -5.984375q0.859375 -0.84375 1.890625 -1.046875q1.046875 -0.203125 1.875 0.34375q1.046875 0.71875 1.453125 -0.453125q0.234375 -0.734375 -1.140625 -1.421875q-0.78125 -0.390625 -2.0 -0.375q-0.984375 0.015625 -2.015625 0.78125q0 -0.171875 0 -0.328125q0 -0.90625 -0.921875 -0.90625zm15.432495 0.59375q-0.875 -0.359375 -1.34375 0.71875l-2.5 5.734375l-3.046875 -5.796875q-0.578125 -1.078125 -1.421875 -0.625q-0.796875 0.421875 -0.21875 1.5l3.796875 7.015625l-1.8125 4.1875q-0.640625 1.453125 0.3125 1.84375q0.8125 0.328125 1.4375 -1.125l5.203125 -12.0q0.46875 -1.078125 -0.40625 -1.453125z" fill-rule="nonzero"/><path fill="#000000" fill-opacity="0.0" d="m387.2467 79.120735l0 0c0 -37.720615 30.578613 -68.29921 68.299225 -68.29921l0 0c18.114075 0 35.486267 7.1957884 48.29483 20.004375c12.808594 12.808588 20.004395 30.180758 20.004395 48.294838l0 0c0 37.72061 -30.578613 68.29922 -68.299225 68.29922l0 0c-37.72061 0 -68.299225 -30.578606 -68.299225 -68.29922z" fill-rule="evenodd"/><path stroke="#000000" stroke-width="3.0" stroke-linejoin="round" stroke-linecap="butt" d="m387.2467 79.120735l0 0c0 -37.720615 30.578613 -68.29921 68.299225 -68.29921l0 0c18.114075 0 35.486267 7.1957884 48.29483 20.004375c12.808594 12.808588 20.004395 30.180758 20.004395 48.294838l0 0c0 37.72061 -30.578613 68.29922 -68.299225 68.29922l0 0c-37.72061 0 -68.299225 -30.578606 -68.299225 -68.29922z" fill-rule="evenodd"/><path fill="#000000" d="m427.24268 62.61886q-0.546875 -1.5 -1.328125 -1.5q-0.78125 0 -1.328125 1.5l-4.046875 11.3125q-0.4375 1.25 0.453125 1.515625q0.875 0.234375 1.3125 -1.0l1.421875 -3.96875l4.375 0l1.4375 3.96875q0.4375 1.25 1.3125 1.0q0.890625 -0.265625 0.453125 -1.515625l-4.0625 -11.3125zm-1.328125 1.796875l1.515625 4.1875l-3.03125 0.03125l1.515625 -4.21875zm16.005402 -4.046875q-0.8125 0.03125 -0.828125 0.859375l-0.140625 5.25q-0.34375 -0.25 -0.78125 -0.5q-0.8125 -0.453125 -1.90625 -0.453125q-2.046875 0 -3.3125 1.546875q-1.34375 1.65625 -1.25 4.078125q0.0625 1.796875 1.421875 3.140625q1.203125 1.203125 2.78125 1.203125q1.53125 0.015625 2.875 -0.84375q0.0625 0.765625 0.796875 0.78125q0.984375 0.015625 1.0 -0.96875l0.28125 -13.1875q0.015625 -0.90625 -0.9375 -0.90625zm-1.109375 12.21875q-1.625 1.28125 -2.90625 1.125q-1.203125 -0.125 -1.828125 -0.953125q-0.78125 -1.0 -0.765625 -2.046875q0.046875 -1.609375 0.765625 -2.515625q0.515625 -0.625 1.65625 -0.90625q1.5625 -0.390625 3.171875 1.28125q0 2.125 -0.09375 4.015625zm4.02124 -7.078125q-0.765625 0.328125 -0.328125 1.484375l2.859375 7.46875q0.40625 0.984375 1.109375 0.984375q0.6875 0 1.078125 -0.984375l2.859375 -7.46875q0.4375 -1.15625 -0.328125 -1.484375q-0.90625 -0.375 -1.328125 0.78125l-2.296875 6.375l-2.296875 -6.375q-0.421875 -1.15625 -1.328125 -0.78125zm12.588684 10.046875q0.84375 -0.015625 2.734375 -0.96875q0.171875 1.203125 1.3125 0.96875q1.0 -0.203125 0.21875 -1.53125q-0.53125 -0.921875 -0.484375 -3.109375q0.046875 -2.734375 0.25 -3.875q0.21875 -1.171875 -0.875 -1.40625q-0.5625 -0.125 -0.828125 0.09375q-2.390625 -0.75 -4.578125 1.046875q-1.890625 1.546875 -1.875 4.40625q0.03125 4.375 4.125 4.375zm1.046875 -1.84375q-0.6875 0.265625 -1.484375 0.203125q-1.875 -0.125 -1.90625 -2.90625q0.078125 -2.140625 1.703125 -3.3125q0.40625 -0.3125 1.078125 -0.46875q0.96875 -0.234375 1.84375 0.3125q-0.421875 1.484375 -0.09375 5.390625q-0.8125 0.671875 -1.140625 0.78125zm6.187378 -8.640625q-0.84375 0 -0.859375 0.84375l-0.203125 8.484375q-0.03125 0.96875 0.78125 0.984375q0.984375 0.015625 1.0 -0.96875l0.15625 -5.515625q1.4375 -1.453125 2.703125 -1.359375q1.515625 0.109375 1.453125 2.625l-0.109375 4.3125q-0.03125 1.109375 0.953125 1.015625q0.859375 -0.078125 0.875 -1.171875l0.078125 -4.5625q0.0625 -4.140625 -3.375 -4.140625q-1.546875 0 -2.546875 0.890625q0.015625 -0.265625 0.015625 -0.53125q0.03125 -0.90625 -0.921875 -0.90625zm14.874756 8.046875q-1.078125 0.734375 -2.3125 0.6875q-1.203125 -0.046875 -1.875 -0.953125q-0.75 -1.015625 -0.71875 -2.234375q0.03125 -1.296875 0.71875 -2.296875q0.609375 -0.875 1.375 -1.109375q1.34375 -0.421875 2.40625 0.375q0.890625 0.640625 1.3125 0.34375q0.625 -0.453125 0.0625 -1.328125q-0.359375 -0.5625 -1.46875 -0.9375q-0.890625 -0.296875 -1.96875 -0.203125q-1.859375 0.125 -3.0625 1.875q-1.0 1.421875 -1.0 3.671875q0 2.03125 1.40625 3.375q1.109375 1.078125 2.8125 1.09375q2.140625 0.015625 3.140625 -0.84375q0.78125 -0.6875 0.484375 -1.203125q-0.515625 -0.84375 -1.3125 -0.3125zm4.551941 -2.015625l6.125 -0.890625q0.96875 -0.140625 1.0 -1.25q0.046875 -1.40625 -1.0625 -2.5q-1.1875 -1.15625 -3.296875 -1.03125q-2.015625 0.125 -3.296875 1.953125q-1.015625 1.46875 -1.015625 3.34375q0 2.28125 1.625 3.609375q1.296875 1.078125 3.03125 1.09375q2.375 0.015625 3.828125 -1.28125q0.828125 -0.734375 0.40625 -1.578125q-0.1875 -0.359375 -0.625 -0.265625q-0.390625 0.078125 -1.0 0.75q-0.640625 0.71875 -2.5 0.734375q-1.265625 0.015625 -2.296875 -0.890625q-0.875 -0.78125 -0.921875 -1.796875zm0.203125 -1.515625q0.25 -0.890625 0.65625 -1.390625q0.90625 -1.125 2.171875 -1.125q0.890625 -0.015625 1.703125 0.5q0.6875 0.453125 0.828125 1.234375l-5.359375 0.78125z" fill-rule="nonzero"/><path fill="#000000" d="m436.53113 83.36886q-1.234375 0 -1.234375 0.8125q0 0.953125 1.15625 0.953125q2.140625 0 4.296875 -0.015625l-0.28125 11.453125q-0.015625 0.90625 0.796875 0.921875q0.96875 0.015625 1.0 -0.90625l0.265625 -11.46875l3.84375 -0.015625q1.21875 0 1.203125 -0.828125q-0.03125 -0.90625 -1.203125 -0.90625l-9.84375 0zm13.164795 4.140625q-0.921875 -0.03125 -0.953125 1.1875l-0.15625 7.640625q-0.015625 1.15625 0.953125 1.15625q0.859375 0 0.875 -1.234375l0.125 -7.578125q0.015625 -1.15625 -0.84375 -1.171875zm0.0625 -4.140625q-0.3125 0 -0.5625 0.171875q-0.234375 0.15625 -0.390625 0.421875q-0.15625 0.25 -0.15625 0.546875q0 0.3125 0.15625 0.578125q0.15625 0.25 0.40625 0.390625q0.234375 0.15625 0.515625 0.15625q0.03125 0 0.0625 0q0.28125 0.015625 0.5 -0.109375q0.21875 -0.09375 0.40625 -0.328125q0.203125 -0.265625 0.234375 -0.59375q0 -0.046875 0 -0.09375q0 -0.28125 -0.140625 -0.53125q-0.140625 -0.296875 -0.421875 -0.453125q-0.265625 -0.15625 -0.578125 -0.15625q-0.015625 0 -0.03125 0zm4.4944763 3.703125q-0.828125 0 -0.859375 0.84375l-0.203125 8.453125q-0.03125 0.96875 0.796875 0.984375q0.9375 0.03125 0.96875 -0.96875l0.15625 -5.03125q0.5 -1.90625 2.0625 -1.84375q1.40625 0.046875 1.359375 2.640625l-0.09375 4.1875q-0.03125 1.078125 0.90625 1.0q0.84375 -0.0625 0.875 -1.171875l0.109375 -4.5625q0.015625 -0.53125 0.03125 -0.5625q0.609375 -1.5625 2.28125 -1.515625q1.4375 0.03125 1.390625 2.734375l-0.046875 4.203125q-0.015625 1.09375 0.96875 1.0q0.859375 -0.0625 0.875 -1.171875l0.0625 -4.53125q0.0625 -4.140625 -3.390625 -4.140625q-1.859375 -0.015625 -2.796875 1.328125q-0.65625 -1.359375 -2.546875 -1.328125q-1.171875 0 -1.984375 0.734375l0.015625 -0.375q0.015625 -0.90625 -0.9375 -0.90625zm14.743225 6.03125l6.125 -0.890625q0.96875 -0.140625 1.0 -1.25q0.046875 -1.40625 -1.0625 -2.5q-1.1875 -1.15625 -3.296875 -1.03125q-2.015625 0.125 -3.296875 1.953125q-1.015625 1.46875 -1.015625 3.34375q0 2.28125 1.625 3.609375q1.296875 1.078125 3.03125 1.09375q2.375 0.015625 3.828125 -1.28125q0.828125 -0.734375 0.40625 -1.578125q-0.1875 -0.359375 -0.625 -0.265625q-0.390625 0.078125 -1.0 0.75q-0.640625 0.71875 -2.5 0.734375q-1.265625 0.015625 -2.296875 -0.890625q-0.875 -0.78125 -0.921875 -1.796875zm0.203125 -1.515625q0.25 -0.890625 0.65625 -1.390625q0.90625 -1.125 2.171875 -1.125q0.890625 -0.015625 1.703125 0.5q0.6875 0.453125 0.828125 1.234375l-5.359375 0.78125z" fill-rule="nonzero"/><path fill="#000000" fill-opacity="0.0" d="m306.5328 82.73753c26.73285 0 53.46402 -0.5170593 80.19684 -0.5170593" fill-rule="evenodd"/><path stroke="#000000" stroke-width="3.0" stroke-linejoin="round" stroke-linecap="butt" d="m306.5328 82.73753c13.366425 0 26.732422 -0.12926483 40.09842 -0.25852966c6.6829834 -0.06463623 13.365997 -0.12926483 20.049042 -0.177742c1.6707764 -0.0121154785 3.3415527 -0.023223877 5.012329 -0.033073425l4.7557983 -0.02419281" fill-rule="evenodd"/><path fill="#000000" stroke="#000000" stroke-width="3.0" stroke-linecap="butt" d="m376.44843 82.243996l-3.3660278 3.381462l9.261566 -3.3949509l-9.277008 -3.352539z" fill-rule="evenodd"/><path fill="#000000" fill-opacity="0.0" d="m605.0761 61.955574l0 0c0 -5.3808975 4.3620605 -9.742977 9.742981 -9.742977l153.36444 0c2.5839844 0 5.062134 1.0264893 6.8893433 2.853653c1.8271484 1.8271637 2.8536377 4.3053284 2.8536377 6.889324l0 38.97074c0 5.3808975 -4.3620605 9.742973 -9.742981 9.742973l-153.36444 0c-5.3809204 0 -9.742981 -4.362076 -9.742981 -9.742973z" fill-rule="evenodd"/><path stroke="#3c78d8" stroke-width="3.0" stroke-linejoin="round" stroke-linecap="butt" d="m605.0761 61.955574l0 0c0 -5.3808975 4.3620605 -9.742977 9.742981 -9.742977l153.36444 0c2.5839844 0 5.062134 1.0264893 6.8893433 2.853653c1.8271484 1.8271637 2.8536377 4.3053284 2.8536377 6.889324l0 38.97074c0 5.3808975 -4.3620605 9.742973 -9.742981 9.742973l-153.36444 0c-5.3809204 0 -9.742981 -4.362076 -9.742981 -9.742973z" fill-rule="evenodd"/><path fill="#3c78d8" d="m638.0002 85.345314l-9.03125 -10.40625q-0.234375 -0.265625 -0.71875 -0.265625q-0.8125 0.015625 -0.828125 0.796875l-0.3125 12.34375q-0.03125 0.90625 0.796875 0.921875q0.96875 0.03125 1.0 -0.90625l0.203125 -9.90625l8.96875 10.234375q0.265625 0.28125 0.671875 0.296875q0.984375 0.046875 1.0 -0.90625l0.28125 -12.3125q0.015625 -0.84375 -0.921875 -0.84375q-0.828125 0.015625 -0.859375 0.796875l-0.25 10.15625zm5.147949 -0.921875l6.125 -0.890625q0.96875 -0.140625 1.0 -1.25q0.046875 -1.40625 -1.0625 -2.5q-1.1875 -1.15625 -3.296875 -1.03125q-2.015625 0.125 -3.296875 1.953125q-1.015625 1.46875 -1.015625 3.34375q0 2.28125 1.625 3.609375q1.296875 1.078125 3.03125 1.09375q2.375 0.015625 3.828125 -1.28125q0.828125 -0.734375 0.40625 -1.578125q-0.1875 -0.359375 -0.625 -0.265625q-0.390625 0.078125 -1.0 0.75q-0.640625 0.71875 -2.5 0.734375q-1.265625 0.015625 -2.296875 -0.890625q-0.875 -0.78125 -0.921875 -1.796875zm0.203125 -1.515625q0.25 -0.890625 0.65625 -1.390625q0.90625 -1.125 2.171875 -1.125q0.890625 -0.015625 1.703125 0.5q0.6875 0.453125 0.828125 1.234375l-5.359375 0.78125zm8.752075 -3.90625q-0.734375 0.59375 0.015625 1.421875l3.1875 3.46875l-2.9375 3.125q-0.90625 0.96875 -0.1875 1.59375q0.65625 0.5625 1.515625 -0.40625l2.703125 -3.015625l2.703125 3.015625q0.875 0.96875 1.515625 0.40625q0.71875 -0.625 -0.1875 -1.59375l-2.875 -3.140625l3.125 -3.453125q0.765625 -0.828125 0.015625 -1.421875q-0.6875 -0.546875 -1.5 0.390625l-2.796875 3.21875l-2.78125 -3.21875q-0.828125 -0.9375 -1.515625 -0.390625zm14.404053 -5.3125q-0.828125 0 -0.84375 0.859375l-0.09375 4.296875q-1.0625 0.015625 -2.109375 0.015625q-0.859375 0 -0.859375 0.921875q0 0.890625 0.78125 0.890625q1.0625 0 2.140625 0l-0.171875 7.09375q-0.015625 0.96875 0.8125 0.984375q0.984375 0.015625 0.984375 -0.96875l0.15625 -7.109375q0.984375 0 1.953125 0q1.0625 0 1.0625 -0.9375q0 -0.90625 -1.125 -0.90625l-1.84375 0.015625q0.0625 -1.921875 0.078125 -4.25q0 -0.90625 -0.921875 -0.90625zm12.178162 1.0q-1.234375 0 -1.234375 0.8125q0 0.953125 1.15625 0.953125q2.140625 0 4.296875 -0.015625l-0.28125 11.453125q-0.015625 0.90625 0.796875 0.921875q0.96875 0.015625 1.0 -0.90625l0.265625 -11.46875l3.84375 -0.015625q1.21875 0 1.203125 -0.828125q-0.03125 -0.90625 -1.203125 -0.90625l-9.84375 0zm13.164795 4.140625q-0.921875 -0.03125 -0.953125 1.1875l-0.15625 7.640625q-0.015625 1.15625 0.953125 1.15625q0.859375 0 0.875 -1.234375l0.125 -7.578125q0.015625 -1.15625 -0.84375 -1.171875zm0.0625 -4.140625q-0.3125 0 -0.5625 0.171875q-0.234375 0.15625 -0.390625 0.421875q-0.15625 0.25 -0.15625 0.546875q0 0.3125 0.15625 0.578125q0.15625 0.25 0.40625 0.390625q0.234375 0.15625 0.515625 0.15625q0.03125 0 0.0625 0q0.28125 0.015625 0.5 -0.109375q0.21875 -0.09375 0.40625 -0.328125q0.203125 -0.265625 0.234375 -0.59375q0 -0.046875 0 -0.09375q0 -0.28125 -0.140625 -0.53125q-0.140625 -0.296875 -0.421875 -0.453125q-0.265625 -0.15625 -0.578125 -0.15625q-0.015625 0 -0.03125 0zm4.494446 3.703125q-0.828125 0 -0.859375 0.84375l-0.203125 8.453125q-0.03125 0.96875 0.796875 0.984375q0.9375 0.03125 0.96875 -0.96875l0.15625 -5.03125q0.5 -1.90625 2.0625 -1.84375q1.40625 0.046875 1.359375 2.640625l-0.09375 4.1875q-0.03125 1.078125 0.90625 1.0q0.84375 -0.0625 0.875 -1.171875l0.109375 -4.5625q0.015625 -0.53125 0.03125 -0.5625q0.609375 -1.5625 2.28125 -1.515625q1.4375 0.03125 1.390625 2.734375l-0.046875 4.203125q-0.015625 1.09375 0.96875 1.0q0.859375 -0.0625 0.875 -1.171875l0.0625 -4.53125q0.0625 -4.140625 -3.390625 -4.140625q-1.859375 -0.015625 -2.796875 1.328125q-0.65625 -1.359375 -2.546875 -1.328125q-1.171875 0 -1.984375 0.734375l0.015625 -0.375q0.015625 -0.90625 -0.9375 -0.90625zm14.743225 6.03125l6.125 -0.890625q0.96875 -0.140625 1.0 -1.25q0.046875 -1.40625 -1.0625 -2.5q-1.1875 -1.15625 -3.296875 -1.03125q-2.015625 0.125 -3.296875 1.953125q-1.015625 1.46875 -1.015625 3.34375q0 2.28125 1.625 3.609375q1.296875 1.078125 3.03125 1.09375q2.375 0.015625 3.828125 -1.28125q0.828125 -0.734375 0.40625 -1.578125q-0.1875 -0.359375 -0.625 -0.265625q-0.390625 0.078125 -1.0 0.75q-0.640625 0.71875 -2.5 0.734375q-1.265625 0.015625 -2.296875 -0.890625q-0.875 -0.78125 -0.921875 -1.796875zm0.203125 -1.515625q0.25 -0.890625 0.65625 -1.390625q0.90625 -1.125 2.171875 -1.125q0.890625 -0.015625 1.703125 0.5q0.6875 0.453125 0.828125 1.234375l-5.359375 0.78125zm11.236511 4.140625q-0.84375 -0.046875 -1.640625 -0.59375q-0.65625 -0.453125 -1.171875 -0.109375q-0.421875 0.265625 -0.390625 0.875q0.046875 0.546875 0.6875 0.90625q0.703125 0.40625 1.203125 0.546875q0.796875 0.21875 2.078125 0.21875q1.5 -0.015625 2.421875 -0.625q1.125 -0.75 1.265625 -1.921875q0.140625 -1.15625 -0.78125 -2.265625q-0.390625 -0.46875 -1.390625 -0.9375q-0.734375 -0.34375 -1.609375 -0.4375q-1.09375 -0.125 -1.265625 -0.609375q-0.171875 -0.5625 0.265625 -1.078125q0.53125 -0.625 1.625 -0.6875q1.03125 -0.03125 1.5625 0.484375q1.0625 1.015625 1.578125 0.59375q0.421875 -0.34375 0.34375 -0.890625q-0.140625 -0.828125 -1.4375 -1.46875q-1.0 -0.484375 -2.328125 -0.375q-1.1875 0.109375 -2.09375 0.765625q-0.765625 0.546875 -1.15625 1.59375q-0.359375 0.953125 -0.140625 1.859375q0.28125 1.171875 2.15625 1.4375q1.796875 0.25 2.3125 0.796875q0.765625 0.828125 0.390625 1.390625q-0.453125 0.671875 -2.484375 0.53125zm9.988403 -13.359375q-0.828125 0 -0.84375 0.859375l-0.09375 4.296875q-1.0625 0.015625 -2.109375 0.015625q-0.859375 0 -0.859375 0.921875q0 0.890625 0.78125 0.890625q1.0625 0 2.140625 0l-0.171875 7.09375q-0.015625 0.96875 0.8125 0.984375q0.984375 0.015625 0.984375 -0.96875l0.15625 -7.109375q0.984375 0 1.953125 0q1.0625 0 1.0625 -0.9375q0 -0.90625 -1.125 -0.90625l-1.84375 0.015625q0.0625 -1.921875 0.078125 -4.25q0 -0.90625 -0.921875 -0.90625zm6.6656494 10.734375l6.125 -0.890625q0.96875 -0.140625 1.0 -1.25q0.046875 -1.40625 -1.0625 -2.5q-1.1875 -1.15625 -3.296875 -1.03125q-2.015625 0.125 -3.296875 1.953125q-1.015625 1.46875 -1.015625 3.34375q0 2.28125 1.625 3.609375q1.296875 1.078125 3.03125 1.09375q2.375 0.015625 3.828125 -1.28125q0.828125 -0.734375 0.40625 -1.578125q-0.1875 -0.359375 -0.625 -0.265625q-0.390625 0.078125 -1.0 0.75q-0.640625 0.71875 -2.5 0.734375q-1.265625 0.015625 -2.296875 -0.890625q-0.875 -0.78125 -0.921875 -1.796875zm0.203125 -1.515625q0.25 -0.890625 0.65625 -1.390625q0.90625 -1.125 2.171875 -1.125q0.890625 -0.015625 1.703125 0.5q0.6875 0.453125 0.828125 1.234375l-5.359375 0.78125zm9.720886 10.65625q0.828125 0 0.84375 -0.859375l0.109375 -4.859375q0.015625 0.015625 0.03125 0.03125q0.609375 0.609375 2.15625 0.484375q1.78125 -0.125 2.984375 -1.625q1.0625 -1.328125 1.0625 -3.78125q0 -1.703125 -1.1875 -2.96875q-1.1875 -1.296875 -2.8125 -1.296875q-1.671875 -0.015625 -2.140625 0.328125q-0.21875 -0.515625 -0.703125 -0.515625q-0.96875 -0.03125 -0.984375 0.96875l-0.296875 13.1875q-0.015625 0.90625 0.9375 0.90625zm1.109375 -12.5625q0.765625 -0.734375 2.0 -0.5625q1.171875 0.15625 1.765625 0.90625q0.703125 0.859375 0.6875 2.046875q-0.015625 1.25 -0.609375 2.125q-0.6875 1.015625 -2.046875 1.109375q-1.015625 0.078125 -1.90625 -0.90625l0.109375 -4.71875z" fill-rule="nonzero"/><path fill="#000000" fill-opacity="0.0" d="m524.3622 82.73753c26.73285 0 53.46405 -0.5170593 80.1969 -0.5170593" fill-rule="evenodd"/><path stroke="#000000" stroke-width="3.0" stroke-linejoin="round" stroke-linecap="butt" d="m524.3622 82.73753c13.366455 0 26.732483 -0.12926483 40.09845 -0.25852966c6.6829834 -0.06463623 13.365967 -0.12926483 20.049072 -0.177742c1.6707153 -0.0121154785 3.3414917 -0.023223877 5.012268 -0.033073425l4.7558594 -0.02419281" fill-rule="evenodd"/><path fill="#000000" stroke="#000000" stroke-width="3.0" stroke-linecap="butt" d="m594.27783 82.243996l-3.3660278 3.381462l9.261536 -3.3949509l-9.276978 -3.352539z" fill-rule="evenodd"/><path fill="#000000" fill-opacity="0.0" d="m18.343832 111.86089l298.01575 0l0 35.55906l-298.01575 0z" fill-rule="evenodd"/><path fill="#000000" d="m28.984457 123.89526q-0.875 0 -0.875 0.578125q0 0.6875 0.8125 0.6875q1.546875 0 3.078127 -0.015625l-0.2031269 8.171875q-0.015625 0.65625 0.5781269 0.671875q0.6875 0.015625 0.703125 -0.65625l0.1875 -8.1875l2.75 -0.015625q0.875 0 0.859375 -0.59375q-0.015625 -0.640625 -0.859375 -0.640625l-7.031252 0zm9.402712 2.953125q-0.65625 -0.015625 -0.671875 0.84375l-0.109375 5.46875q-0.03125 0.8125 0.671875 0.828125q0.609375 0 0.625 -0.875l0.09375 -5.421875q0.015625 -0.828125 -0.609375 -0.84375zm0.046875 -2.953125q-0.21875 0 -0.40625 0.125q-0.171875 0.109375 -0.28125 0.296875q-0.09375 0.1875 -0.09375 0.390625q0 0.21875 0.109375 0.40625q0.109375 0.1875 0.28125 0.296875q0.171875 0.09375 0.375 0.109375q0.015625 0 0.03125 0q0.203125 0 0.375 -0.078125q0.15625 -0.078125 0.28125 -0.25q0.140625 -0.1875 0.15625 -0.421875q0 -0.03125 0 -0.0625q0 -0.203125 -0.09375 -0.375q-0.09375 -0.203125 -0.296875 -0.328125q-0.1875 -0.109375 -0.40625 -0.109375q-0.015625 0 -0.03125 0zm3.2198944 2.640625q-0.609375 0 -0.625 0.609375l-0.140625 6.03125q-0.015625 0.703125 0.5625 0.71875q0.671875 0 0.703125 -0.703125l0.109375 -3.59375q0.34375 -1.359375 1.46875 -1.3125q1.0 0.03125 0.96875 1.875l-0.0625 3.0q-0.015625 0.765625 0.640625 0.71875q0.609375 -0.0625 0.625 -0.84375l0.078125 -3.265625q0.015625 -0.375 0.03125 -0.390625q0.4375 -1.125 1.625 -1.09375q1.03125 0.03125 1.0 1.953125l-0.046875 3.0q0 0.796875 0.703125 0.734375q0.609375 -0.0625 0.625 -0.84375l0.046875 -3.234375q0.046875 -2.96875 -2.421875 -2.96875q-1.328125 0 -2.0 0.953125q-0.46875 -0.96875 -1.828125 -0.953125q-0.828125 0 -1.40625 0.53125l0 -0.265625q0.015625 -0.65625 -0.65625 -0.65625zm10.525909 4.3125l4.375 -0.640625q0.6875 -0.09375 0.71875 -0.890625q0.03125 -1.0 -0.765625 -1.78125q-0.84375 -0.828125 -2.359375 -0.734375q-1.4375 0.078125 -2.34375 1.390625q-0.734375 1.046875 -0.734375 2.390625q0 1.625 1.15625 2.578125q0.9375 0.765625 2.171875 0.78125q1.703125 0.015625 2.734375 -0.90625q0.59375 -0.53125 0.296875 -1.140625q-0.140625 -0.265625 -0.453125 -0.1875q-0.28125 0.046875 -0.71875 0.546875q-0.453125 0.5 -1.78125 0.515625q-0.90625 0 -1.640625 -0.640625q-0.625 -0.546875 -0.65625 -1.28125zm0.140625 -1.078125q0.1875 -0.640625 0.46875 -1.0q0.65625 -0.796875 1.546875 -0.796875q0.640625 -0.015625 1.21875 0.34375q0.5 0.328125 0.59375 0.890625l-3.828125 0.5625zm11.237778 -6.59375q-0.59375 0.015625 -0.609375 0.609375l-0.21875 9.453125q-0.015625 0.6875 0.5625 0.703125q0.703125 0.015625 0.71875 -0.703125l0.140625 -3.75q1.015625 -1.21875 2.21875 -1.109375q1.0625 0.078125 1.046875 1.8125l-0.015625 3.125q-0.015625 0.765625 0.6875 0.71875q0.625 -0.0625 0.625 -0.84375l0.03125 -3.296875q0.015625 -2.96875 -2.421875 -2.96875q-1.34375 0 -2.171875 0.75l0.078125 -3.84375q0 -0.65625 -0.671875 -0.65625zm7.901947 3.671875q-0.65625 -0.015625 -0.671875 0.84375l-0.109375 5.46875q-0.03125 0.8125 0.671875 0.828125q0.609375 0 0.625 -0.875l0.09375 -5.421875q0.015625 -0.828125 -0.609375 -0.84375zm0.046875 -2.953125q-0.21875 0 -0.40625 0.125q-0.171875 0.109375 -0.28125 0.296875q-0.09375 0.1875 -0.09375 0.390625q0 0.21875 0.109375 0.40625q0.109375 0.1875 0.28125 0.296875q0.171875 0.09375 0.375 0.109375q0.015625 0 0.03125 0q0.203125 0 0.375 -0.078125q0.15625 -0.078125 0.28125 -0.25q0.140625 -0.1875 0.15625 -0.421875q0 -0.03125 0 -0.0625q0 -0.203125 -0.09375 -0.375q-0.09375 -0.203125 -0.296875 -0.328125q-0.1875 -0.109375 -0.40625 -0.109375q-0.015625 0 -0.03125 0zm4.2511444 8.828125q-0.59375 -0.03125 -1.171875 -0.421875q-0.46875 -0.328125 -0.828125 -0.078125q-0.296875 0.1875 -0.28125 0.625q0.03125 0.390625 0.484375 0.640625q0.515625 0.296875 0.859375 0.390625q0.578125 0.171875 1.484375 0.15625q1.078125 0 1.734375 -0.4375q0.8125 -0.546875 0.90625 -1.375q0.109375 -0.828125 -0.546875 -1.625q-0.28125 -0.328125 -1.0 -0.671875q-0.53125 -0.234375 -1.140625 -0.3125q-0.796875 -0.078125 -0.90625 -0.4375q-0.140625 -0.390625 0.1875 -0.765625q0.375 -0.4375 1.15625 -0.484375q0.734375 -0.03125 1.109375 0.34375q0.765625 0.71875 1.140625 0.421875q0.296875 -0.25 0.234375 -0.640625q-0.09375 -0.59375 -1.015625 -1.046875q-0.71875 -0.34375 -1.671875 -0.265625q-0.84375 0.078125 -1.484375 0.546875q-0.546875 0.390625 -0.828125 1.140625q-0.265625 0.671875 -0.109375 1.328125q0.203125 0.828125 1.53125 1.03125q1.296875 0.171875 1.65625 0.5625q0.546875 0.59375 0.28125 1.0q-0.3125 0.46875 -1.78125 0.375zm7.1446075 -9.546875q-0.59375 0 -0.59375 0.609375l-0.078125 3.078125q-0.75 0.015625 -1.5 0.015625q-0.625 0 -0.625 0.65625q0 0.625 0.5625 0.625q0.765625 0 1.53125 0l-0.125 5.078125q0 0.6875 0.578125 0.703125q0.703125 0.015625 0.703125 -0.703125l0.125 -5.078125q0.6875 0 1.390625 0q0.75 0 0.75 -0.65625q0 -0.65625 -0.796875 -0.65625l-1.3125 0.015625q0.046875 -1.375 0.046875 -3.03125q0 -0.65625 -0.65625 -0.65625zm6.8113556 4.984375q1.375 -0.03125 1.375 2.296875q-0.015625 1.21875 -0.53125 1.765625q-0.484375 0.53125 -1.1875 0.53125q-0.625 0 -1.109375 -0.53125q-0.46875 -0.5 -0.46875 -1.53125q0 -1.046875 0.640625 -1.9375q0.4375 -0.578125 1.28125 -0.59375zm-0.046875 -1.328125q-1.421875 -0.015625 -2.28125 1.125q-0.875 1.140625 -0.875 2.625q0 1.5625 0.734375 2.4375q0.796875 0.953125 1.96875 0.953125q1.59375 0.015625 2.375 -0.96875q0.703125 -0.828125 0.703125 -2.421875q0 -3.734375 -2.625 -3.75zm4.9464874 -0.296875q-0.59375 0 -0.609375 0.609375l-0.15625 6.09375q-0.015625 0.6875 0.578125 0.703125q0.671875 0.015625 0.703125 -0.703125l0.109375 -4.265625q0.609375 -0.609375 1.34375 -0.75q0.75 -0.140625 1.34375 0.25q0.75 0.515625 1.03125 -0.328125q0.171875 -0.53125 -0.8125 -1.015625q-0.5625 -0.28125 -1.421875 -0.265625q-0.71875 0.015625 -1.4375 0.5625q0 -0.125 0 -0.234375q0 -0.65625 -0.671875 -0.65625zm11.028748 0.421875q-0.625 -0.25 -0.953125 0.515625l-1.796875 4.109375l-2.171875 -4.15625q-0.40625 -0.765625 -1.015625 -0.4375q-0.578125 0.296875 -0.15625 1.0625l2.703125 5.015625l-1.296875 3.0q-0.4375 1.03125 0.234375 1.3125q0.578125 0.234375 1.03125 -0.8125l3.71875 -8.5625q0.328125 -0.78125 -0.296875 -1.046875zm10.263962 7.203125q0.59375 0 0.609375 -0.609375l0.15625 -6.078125q0 -0.703125 -0.578125 -0.71875q-0.6875 0 -0.71875 0.703125l-0.078125 3.28125q-0.03125 1.078125 -0.875 1.5q-0.9375 0.46875 -1.609375 0.015625q-0.5 -0.34375 -0.484375 -1.921875l0.015625 -2.84375q0.015625 -0.78125 -0.671875 -0.71875q-0.625 0.0625 -0.625 0.84375l-0.03125 3.1875q-0.03125 2.96875 2.421875 2.96875q1.109375 0 1.8125 -0.640625l0 0.375q-0.015625 0.65625 0.65625 0.65625zm2.805893 3.21875q0.59375 0 0.609375 -0.609375l0.078125 -3.46875q0.015625 0 0.015625 0.015625q0.4375 0.421875 1.546875 0.34375q1.265625 -0.09375 2.125 -1.15625q0.765625 -0.953125 0.765625 -2.703125q0 -1.21875 -0.84375 -2.125q-0.859375 -0.921875 -2.015625 -0.921875q-1.203125 -0.015625 -1.53125 0.234375q-0.15625 -0.375 -0.5 -0.375q-0.6875 -0.015625 -0.703125 0.6875l-0.203125 9.421875q-0.015625 0.65625 0.65625 0.65625zm0.796875 -8.984375q0.546875 -0.515625 1.4375 -0.390625q0.828125 0.109375 1.25 0.640625q0.5 0.625 0.5 1.46875q-0.015625 0.890625 -0.4375 1.515625q-0.5 0.734375 -1.46875 0.796875q-0.71875 0.046875 -1.359375 -0.65625l0.078125 -3.375zm12.04644 -5.21875q-0.59375 0 -0.59375 0.609375l-0.078125 3.078125q-0.75 0.015625 -1.5 0.015625q-0.625 0 -0.625 0.65625q0 0.625 0.5625 0.625q0.765625 0 1.53125 0l-0.125 5.078125q0 0.6875 0.578125 0.703125q0.703125 0.015625 0.703125 -0.703125l0.125 -5.078125q0.6875 0 1.390625 0q0.75 0 0.75 -0.65625q0 -0.65625 -0.796875 -0.65625l-1.3125 0.015625q0.046875 -1.375 0.046875 -3.03125q0 -0.65625 -0.65625 -0.65625zm6.8113556 4.984375q1.375 -0.03125 1.375 2.296875q-0.015625 1.21875 -0.53125 1.765625q-0.484375 0.53125 -1.1875 0.53125q-0.625 0 -1.109375 -0.53125q-0.46875 -0.5 -0.46875 -1.53125q0 -1.046875 0.640625 -1.9375q0.4375 -0.578125 1.28125 -0.59375zm-0.046875 -1.328125q-1.421875 -0.015625 -2.28125 1.125q-0.875 1.140625 -0.875 2.625q0 1.5625 0.734375 2.4375q0.796875 0.953125 1.96875 0.953125q1.59375 0.015625 2.375 -0.96875q0.703125 -0.828125 0.703125 -2.421875q0 -3.734375 -2.625 -3.75zm8.273056 -3.65625q-0.625 0.046875 -0.53125 0.625l0.34375 2.265625q0.140625 0.828125 0.640625 0.734375q0.484375 -0.09375 0.40625 -0.9375l-0.1875 -2.15625q-0.046875 -0.59375 -0.671875 -0.53125zm3.057663 3.359375q-0.59375 0 -0.609375 0.609375l-0.15625 6.046875q-0.015625 0.703125 0.578125 0.71875q0.6875 0.015625 0.703125 -0.703125l0.109375 -3.9375q1.03125 -1.03125 1.9375 -0.96875q1.078125 0.078125 1.03125 1.875l-0.078125 3.09375q-0.015625 0.78125 0.6875 0.71875q0.609375 -0.0625 0.625 -0.84375l0.0625 -3.25q0.03125 -2.96875 -2.421875 -2.96875q-1.109375 0 -1.8125 0.640625q0 -0.1875 0.015625 -0.375q0.015625 -0.65625 -0.671875 -0.65625zm9.085815 1.625q1.375 -0.03125 1.375 2.296875q-0.015625 1.21875 -0.53125 1.765625q-0.484375 0.53125 -1.1875 0.53125q-0.625 0 -1.109375 -0.53125q-0.46875 -0.5 -0.46875 -1.53125q0 -1.046875 0.640625 -1.9375q0.4375 -0.578125 1.28125 -0.59375zm-0.046875 -1.328125q-1.421875 -0.015625 -2.28125 1.125q-0.875 1.140625 -0.875 2.625q0 1.5625 0.734375 2.4375q0.796875 0.953125 1.96875 0.953125q1.59375 0.015625 2.375 -0.96875q0.703125 -0.828125 0.703125 -2.421875q0 -3.734375 -2.625 -3.75zm8.633987 0.875q-0.140625 -0.859375 -0.65625 -0.859375q-0.453125 0 -0.71875 0.859375l-1.4375 4.515625l-0.765625 -4.515625q-0.15625 -0.9375 -0.734375 -0.84375q-0.59375 0.09375 -0.4375 0.90625l1.03125 5.421875q0.140625 0.796875 0.8125 0.796875q0.546875 0 0.828125 -0.796875l1.25 -3.578125l0.6875 3.578125q0.15625 0.796875 0.828125 0.796875q0.546875 0 0.8125 -0.796875l1.875 -5.421875q0.28125 -0.8125 -0.390625 -0.90625q-0.484375 -0.078125 -0.78125 0.84375l-1.4375 4.515625l-0.765625 -4.515625zm5.0862885 -4.53125q-0.609375 -0.0625 -0.65625 0.53125l-0.203125 2.15625q-0.078125 0.84375 0.40625 0.9375q0.515625 0.09375 0.640625 -0.734375l0.34375 -2.265625q0.09375 -0.578125 -0.53125 -0.625zm7.0873566 3.671875q-0.65625 -0.015625 -0.671875 0.84375l-0.109375 5.46875q-0.03125 0.8125 0.671875 0.828125q0.609375 0 0.625 -0.875l0.09375 -5.421875q0.015625 -0.828125 -0.609375 -0.84375zm0.046875 -2.953125q-0.21875 0 -0.40625 0.125q-0.171875 0.109375 -0.28125 0.296875q-0.09375 0.1875 -0.09375 0.390625q0 0.21875 0.109375 0.40625q0.109375 0.1875 0.28125 0.296875q0.171875 0.09375 0.375 0.109375q0.015625 0 0.03125 0q0.203125 0 0.375 -0.078125q0.15625 -0.078125 0.28125 -0.25q0.140625 -0.1875 0.15625 -0.421875q0 -0.03125 0 -0.0625q0 -0.203125 -0.09375 -0.375q-0.09375 -0.203125 -0.296875 -0.328125q-0.1875 -0.109375 -0.40625 -0.109375q-0.015625 0 -0.03125 0zm3.3292694 2.640625q-0.59375 0 -0.609375 0.609375l-0.15625 6.046875q-0.015625 0.703125 0.578125 0.71875q0.6875 0.015625 0.703125 -0.703125l0.109375 -3.9375q1.03125 -1.03125 1.9375 -0.96875q1.078125 0.078125 1.03125 1.875l-0.078125 3.09375q-0.015625 0.78125 0.6875 0.71875q0.609375 -0.0625 0.625 -0.84375l0.0625 -3.25q0.03125 -2.96875 -2.421875 -2.96875q-1.109375 0 -1.8125 0.640625q0 -0.1875 0.015625 -0.375q0.015625 -0.65625 -0.671875 -0.65625zm12.537384 -3.359375q-0.59375 0 -0.59375 0.609375l-0.078125 3.078125q-0.75 0.015625 -1.5 0.015625q-0.625 0 -0.625 0.65625q0 0.625 0.5625 0.625q0.765625 0 1.53125 0l-0.125 5.078125q0 0.6875 0.578125 0.703125q0.703125 0.015625 0.703125 -0.703125l0.125 -5.078125q0.6875 0 1.390625 0q0.75 0 0.75 -0.65625q0 -0.65625 -0.796875 -0.65625l-1.3125 0.015625q0.046875 -1.375 0.046875 -3.03125q0 -0.65625 -0.65625 -0.65625zm4.8582306 0q-0.59375 0.015625 -0.609375 0.609375l-0.21875 9.453125q-0.015625 0.6875 0.5625 0.703125q0.703125 0.015625 0.71875 -0.703125l0.140625 -3.75q1.015625 -1.21875 2.21875 -1.109375q1.0625 0.078125 1.046875 1.8125l-0.015625 3.125q-0.015625 0.765625 0.6875 0.71875q0.625 -0.0625 0.625 -0.84375l0.03125 -3.296875q0.015625 -2.96875 -2.421875 -2.96875q-1.34375 0 -2.171875 0.75l0.078125 -3.84375q0 -0.65625 -0.671875 -0.65625zm7.605072 7.671875l4.375 -0.640625q0.6875 -0.09375 0.71875 -0.890625q0.03125 -1.0 -0.765625 -1.78125q-0.84375 -0.828125 -2.359375 -0.734375q-1.4375 0.078125 -2.34375 1.390625q-0.734375 1.046875 -0.734375 2.390625q0 1.625 1.15625 2.578125q0.9375 0.765625 2.171875 0.78125q1.703125 0.015625 2.734375 -0.90625q0.59375 -0.53125 0.296875 -1.140625q-0.140625 -0.265625 -0.453125 -0.1875q-0.28125 0.046875 -0.71875 0.546875q-0.453125 0.5 -1.78125 0.515625q-0.90625 0 -1.640625 -0.640625q-0.625 -0.546875 -0.65625 -1.28125zm0.140625 -1.078125q0.1875 -0.640625 0.46875 -1.0q0.65625 -0.796875 1.546875 -0.796875q0.640625 -0.015625 1.21875 0.34375q0.5 0.328125 0.59375 0.890625l-3.828125 0.5625zm12.003403 2.953125q-0.59375 -0.03125 -1.171875 -0.421875q-0.46875 -0.328125 -0.828125 -0.078125q-0.296875 0.1875 -0.28125 0.625q0.03125 0.390625 0.484375 0.640625q0.515625 0.296875 0.859375 0.390625q0.578125 0.171875 1.484375 0.15625q1.078125 0 1.734375 -0.4375q0.8125 -0.546875 0.90625 -1.375q0.109375 -0.828125 -0.546875 -1.625q-0.28125 -0.328125 -1.0 -0.671875q-0.53125 -0.234375 -1.140625 -0.3125q-0.796875 -0.078125 -0.90625 -0.4375q-0.140625 -0.390625 0.1875 -0.765625q0.375 -0.4375 1.15625 -0.484375q0.734375 -0.03125 1.109375 0.34375q0.765625 0.71875 1.140625 0.421875q0.296875 -0.25 0.234375 -0.640625q-0.09375 -0.59375 -1.015625 -1.046875q-0.71875 -0.34375 -1.671875 -0.265625q-0.84375 0.078125 -1.484375 0.546875q-0.546875 0.390625 -0.828125 1.140625q-0.265625 0.671875 -0.109375 1.328125q0.203125 0.828125 1.53125 1.03125q1.296875 0.171875 1.65625 0.5625q0.546875 0.59375 0.28125 1.0q-0.3125 0.46875 -1.78125 0.375zm5.9258575 -5.875q-0.65625 -0.015625 -0.671875 0.84375l-0.109375 5.46875q-0.03125 0.8125 0.671875 0.828125q0.609375 0 0.625 -0.875l0.09375 -5.421875q0.015625 -0.828125 -0.609375 -0.84375zm0.046875 -2.953125q-0.21875 0 -0.40625 0.125q-0.171875 0.109375 -0.28125 0.296875q-0.09375 0.1875 -0.09375 0.390625q0 0.21875 0.109375 0.40625q0.109375 0.1875 0.28125 0.296875q0.171875 0.09375 0.375 0.109375q0.015625 0 0.03125 0q0.203125 0 0.375 -0.078125q0.15625 -0.078125 0.28125 -0.25q0.140625 -0.1875 0.15625 -0.421875q0 -0.03125 0 -0.0625q0 -0.203125 -0.09375 -0.375q-0.09375 -0.203125 -0.296875 -0.328125q-0.1875 -0.109375 -0.40625 -0.109375q-0.015625 0 -0.03125 0zm3.2198944 2.640625q-0.609375 0 -0.625 0.609375l-0.140625 6.03125q-0.015625 0.703125 0.5625 0.71875q0.671875 0 0.703125 -0.703125l0.109375 -3.59375q0.34375 -1.359375 1.46875 -1.3125q1.0 0.03125 0.96875 1.875l-0.0625 3.0q-0.015625 0.765625 0.640625 0.71875q0.609375 -0.0625 0.625 -0.84375l0.078125 -3.265625q0.015625 -0.375 0.03125 -0.390625q0.4375 -1.125 1.625 -1.09375q1.03125 0.03125 1.0 1.953125l-0.046875 3.0q0 0.796875 0.703125 0.734375q0.609375 -0.0625 0.625 -0.84375l0.046875 -3.234375q0.046875 -2.96875 -2.421875 -2.96875q-1.328125 0 -2.0 0.953125q-0.46875 -0.96875 -1.828125 -0.953125q-0.828125 0 -1.40625 0.53125l0 -0.265625q0.015625 -0.65625 -0.65625 -0.65625zm14.432159 7.625q0.59375 0 0.609375 -0.609375l0.15625 -6.078125q0 -0.703125 -0.578125 -0.71875q-0.6875 0 -0.71875 0.703125l-0.078125 3.28125q-0.03125 1.078125 -0.875 1.5q-0.9375 0.46875 -1.609375 0.015625q-0.5 -0.34375 -0.484375 -1.921875l0.015625 -2.84375q0.015625 -0.78125 -0.671875 -0.71875q-0.625 0.0625 -0.625 0.84375l-0.03125 3.1875q-0.03125 2.96875 2.421875 2.96875q1.109375 0 1.8125 -0.640625l0 0.375q-0.015625 0.65625 0.65625 0.65625zm3.290268 -10.984375q-0.59375 0.015625 -0.59375 0.609375l-0.234375 9.453125q0 0.6875 0.578125 0.703125q0.703125 0.015625 0.71875 -0.703125l0.1875 -9.40625q0.015625 -0.65625 -0.65625 -0.65625zm4.9790497 10.84375q0.609375 0 1.953125 -0.6875q0.125 0.859375 0.9375 0.6875q0.71875 -0.140625 0.15625 -1.09375q-0.375 -0.640625 -0.34375 -2.203125q0.03125 -1.96875 0.171875 -2.78125q0.15625 -0.828125 -0.625 -1.0q-0.390625 -0.09375 -0.578125 0.0625q-1.71875 -0.53125 -3.28125 0.75q-1.359375 1.109375 -1.328125 3.140625q0.015625 3.140625 2.9375 3.125zm0.75 -1.296875q-0.484375 0.171875 -1.0625 0.140625q-1.34375 -0.09375 -1.359375 -2.09375q0.0625 -1.515625 1.21875 -2.359375q0.28125 -0.21875 0.765625 -0.328125q0.6875 -0.171875 1.3125 0.21875q-0.296875 1.0625 -0.0625 3.859375q-0.578125 0.46875 -0.8125 0.5625zm5.9921265 -9.546875q-0.59375 0 -0.59375 0.609375l-0.078125 3.078125q-0.75 0.015625 -1.5 0.015625q-0.625 0 -0.625 0.65625q0 0.625 0.5625 0.625q0.765625 0 1.53125 0l-0.125 5.078125q0 0.6875 0.578125 0.703125q0.703125 0.015625 0.703125 -0.703125l0.125 -5.078125q0.6875 0 1.390625 0q0.75 0 0.75 -0.65625q0 -0.65625 -0.796875 -0.65625l-1.3125 0.015625q0.046875 -1.375 0.046875 -3.03125q0 -0.65625 -0.65625 -0.65625zm5.061371 3.671875q-0.65625 -0.015625 -0.671875 0.84375l-0.109375 5.46875q-0.03125 0.8125 0.671875 0.828125q0.609375 0 0.625 -0.875l0.09375 -5.421875q0.015625 -0.828125 -0.609375 -0.84375zm0.046875 -2.953125q-0.21875 0 -0.40625 0.125q-0.171875 0.109375 -0.28125 0.296875q-0.09375 0.1875 -0.09375 0.390625q0 0.21875 0.109375 0.40625q0.109375 0.1875 0.28125 0.296875q0.171875 0.09375 0.375 0.109375q0.015625 0 0.03125 0q0.203125 0 0.375 -0.078125q0.15625 -0.078125 0.28125 -0.25q0.140625 -0.1875 0.15625 -0.421875q0 -0.03125 0 -0.0625q0 -0.203125 -0.09375 -0.375q-0.09375 -0.203125 -0.296875 -0.328125q-0.1875 -0.109375 -0.40625 -0.109375q-0.015625 0 -0.03125 0zm5.438629 4.265625q1.375 -0.03125 1.375 2.296875q-0.015625 1.21875 -0.53125 1.765625q-0.484375 0.53125 -1.1875 0.53125q-0.625 0 -1.109375 -0.53125q-0.46875 -0.5 -0.46875 -1.53125q0 -1.046875 0.640625 -1.9375q0.4375 -0.578125 1.28125 -0.59375zm-0.046875 -1.328125q-1.421875 -0.015625 -2.28125 1.125q-0.875 1.140625 -0.875 2.625q0 1.5625 0.734375 2.4375q0.796875 0.953125 1.96875 0.953125q1.59375 0.015625 2.375 -0.96875q0.703125 -0.828125 0.703125 -2.421875q0 -3.734375 -2.625 -3.75zm4.9465027 -0.296875q-0.59375 0 -0.609375 0.609375l-0.15625 6.046875q-0.015625 0.703125 0.578125 0.71875q0.6875 0.015625 0.703125 -0.703125l0.109375 -3.9375q1.03125 -1.03125 1.9375 -0.96875q1.078125 0.078125 1.03125 1.875l-0.078125 3.09375q-0.015625 0.78125 0.6875 0.71875q0.609375 -0.0625 0.625 -0.84375l0.0625 -3.25q0.03125 -2.96875 -2.421875 -2.96875q-1.109375 0 -1.8125 0.640625q0 -0.1875 0.015625 -0.375q0.015625 -0.65625 -0.671875 -0.65625zm7.1326904 6.125q-0.1875 0 -0.34375 0.109375q-0.15625 0.109375 -0.25 0.265625q-0.078125 0.171875 -0.078125 0.359375q0 0.203125 0.09375 0.375q0.09375 0.15625 0.234375 0.25q0.15625 0.09375 0.3125 0.109375q0.03125 0 0.046875 0q0.171875 0 0.3125 -0.078125q0.125 -0.0625 0.234375 -0.21875q0.125 -0.171875 0.140625 -0.375q0 -0.03125 0 -0.0625q0 -0.1875 -0.078125 -0.34375q-0.09375 -0.1875 -0.265625 -0.28125q-0.15625 -0.109375 -0.34375 -0.109375q-0.015625 0 -0.015625 0zm2.71875 0q-0.1875 0 -0.34375 0.109375q-0.140625 0.109375 -0.234375 0.265625q-0.09375 0.171875 -0.09375 0.359375q0 0.203125 0.09375 0.375q0.09375 0.15625 0.25 0.25q0.140625 0.09375 0.3125 0.109375q0.015625 0 0.03125 0q0.171875 0 0.3125 -0.078125q0.125 -0.0625 0.234375 -0.21875q0.125 -0.171875 0.15625 -0.375q0 -0.03125 0 -0.0625q0 -0.1875 -0.078125 -0.34375q-0.09375 -0.1875 -0.265625 -0.28125q-0.15625 -0.109375 -0.359375 -0.109375q0 0 -0.015625 0zm2.90625 0q-0.1875 0 -0.34375 0.109375q-0.140625 0.109375 -0.25 0.265625q-0.078125 0.171875 -0.078125 0.359375q0 0.203125 0.09375 0.375q0.09375 0.15625 0.25 0.25q0.140625 0.09375 0.3125 0.109375q0.015625 0 0.03125 0q0.171875 0 0.3125 -0.078125q0.125 -0.0625 0.234375 -0.21875q0.125 -0.171875 0.140625 -0.375q0 -0.03125 0 -0.0625q0 -0.1875 -0.078125 -0.34375q-0.078125 -0.1875 -0.25 -0.28125q-0.171875 -0.109375 -0.359375 -0.109375q-0.015625 0 -0.015625 0z" fill-rule="nonzero"/><path fill="#000000" fill-opacity="0.0" d="m605.0761 111.86089l209.82678 0l0 51.71653l-209.82678 0z" fill-rule="evenodd"/><path fill="#000000" d="m615.71674 123.89526q-0.875 0 -0.875 0.578125q0 0.6875 0.8125 0.6875q1.546875 0 3.078125 -0.015625l-0.203125 8.171875q-0.015625 0.65625 0.578125 0.671875q0.6875 0.015625 0.703125 -0.65625l0.1875 -8.1875l2.75 -0.015625q0.875 0 0.859375 -0.59375q-0.015625 -0.640625 -0.859375 -0.640625l-7.03125 0zm9.199585 -0.71875q-0.59375 0.015625 -0.609375 0.609375l-0.21875 9.453125q-0.015625 0.6875 0.5625 0.703125q0.703125 0.015625 0.71875 -0.703125l0.140625 -3.75q1.015625 -1.21875 2.21875 -1.109375q1.0625 0.078125 1.046875 1.8125l-0.015625 3.125q-0.015625 0.765625 0.6875 0.71875q0.625 -0.0625 0.625 -0.84375l0.03125 -3.296875q0.015625 -2.96875 -2.421875 -2.96875q-1.34375 0 -2.171875 0.75l0.078125 -3.84375q0 -0.65625 -0.671875 -0.65625zm7.6051025 7.671875l4.375 -0.640625q0.6875 -0.09375 0.71875 -0.890625q0.03125 -1.0 -0.765625 -1.78125q-0.84375 -0.828125 -2.359375 -0.734375q-1.4375 0.078125 -2.34375 1.390625q-0.734375 1.046875 -0.734375 2.390625q0 1.625 1.15625 2.578125q0.9375 0.765625 2.171875 0.78125q1.703125 0.015625 2.734375 -0.90625q0.59375 -0.53125 0.296875 -1.140625q-0.140625 -0.265625 -0.453125 -0.1875q-0.28125 0.046875 -0.71875 0.546875q-0.453125 0.5 -1.78125 0.515625q-0.90625 0 -1.640625 -0.640625q-0.625 -0.546875 -0.65625 -1.28125zm0.140625 -1.078125q0.1875 -0.640625 0.46875 -1.0q0.65625 -0.796875 1.546875 -0.796875q0.640625 -0.015625 1.21875 0.34375q0.5 0.328125 0.59375 0.890625l-3.828125 0.5625zm18.081482 1.734375l-6.4375 -7.4375q-0.171875 -0.1875 -0.515625 -0.1875q-0.59375 0.015625 -0.609375 0.578125l-0.21875 8.8125q-0.015625 0.65625 0.578125 0.65625q0.6875 0.015625 0.703125 -0.640625l0.15625 -7.078125l6.40625 7.296875q0.1875 0.21875 0.46875 0.234375q0.703125 0.015625 0.71875 -0.65625l0.203125 -8.796875q0.015625 -0.609375 -0.65625 -0.609375q-0.59375 0.015625 -0.609375 0.578125l-0.1875 7.25zm3.6833496 -0.65625l4.375 -0.640625q0.6875 -0.09375 0.71875 -0.890625q0.03125 -1.0 -0.765625 -1.78125q-0.84375 -0.828125 -2.359375 -0.734375q-1.4375 0.078125 -2.34375 1.390625q-0.734375 1.046875 -0.734375 2.390625q0 1.625 1.15625 2.578125q0.9375 0.765625 2.171875 0.78125q1.703125 0.015625 2.734375 -0.90625q0.59375 -0.53125 0.296875 -1.140625q-0.140625 -0.265625 -0.453125 -0.1875q-0.28125 0.046875 -0.71875 0.546875q-0.453125 0.5 -1.78125 0.515625q-0.90625 0 -1.640625 -0.640625q-0.625 -0.546875 -0.65625 -1.28125zm0.140625 -1.078125q0.1875 -0.640625 0.46875 -1.0q0.65625 -0.796875 1.546875 -0.796875q0.640625 -0.015625 1.21875 0.34375q0.5 0.328125 0.59375 0.890625l-3.828125 0.5625zm6.255005 -2.796875q-0.53125 0.421875 0.015625 1.015625l2.265625 2.484375l-2.09375 2.234375q-0.640625 0.6875 -0.125 1.125q0.453125 0.40625 1.078125 -0.28125l1.9375 -2.15625l1.921875 2.15625q0.625 0.6875 1.078125 0.28125q0.515625 -0.4375 -0.125 -1.125l-2.0625 -2.25l2.234375 -2.46875q0.546875 -0.59375 0.015625 -1.015625q-0.484375 -0.390625 -1.078125 0.28125l-1.984375 2.296875l-2.0 -2.296875q-0.578125 -0.671875 -1.078125 -0.28125zm10.289856 -3.796875q-0.59375 0 -0.59375 0.609375l-0.078125 3.078125q-0.75 0.015625 -1.5 0.015625q-0.625 0 -0.625 0.65625q0 0.625 0.5625 0.625q0.765625 0 1.53125 0l-0.125 5.078125q0 0.6875 0.578125 0.703125q0.703125 0.015625 0.703125 -0.703125l0.125 -5.078125q0.6875 0 1.390625 0q0.75 0 0.75 -0.65625q0 -0.65625 -0.796875 -0.65625l-1.3125 0.015625q0.046875 -1.375 0.046875 -3.03125q0 -0.65625 -0.65625 -0.65625zm8.700439 0.71875q-0.875 0 -0.875 0.578125q0 0.6875 0.8125 0.6875q1.546875 0 3.078125 -0.015625l-0.203125 8.171875q-0.015625 0.65625 0.578125 0.671875q0.6875 0.015625 0.703125 -0.65625l0.1875 -8.1875l2.75 -0.015625q0.875 0 0.859375 -0.59375q-0.015625 -0.640625 -0.859375 -0.640625l-7.03125 0zm9.40271 2.953125q-0.65625 -0.015625 -0.671875 0.84375l-0.109375 5.46875q-0.03125 0.8125 0.671875 0.828125q0.609375 0 0.625 -0.875l0.09375 -5.421875q0.015625 -0.828125 -0.609375 -0.84375zm0.046875 -2.953125q-0.21875 0 -0.40625 0.125q-0.171875 0.109375 -0.28125 0.296875q-0.09375 0.1875 -0.09375 0.390625q0 0.21875 0.109375 0.40625q0.109375 0.1875 0.28125 0.296875q0.171875 0.09375 0.375 0.109375q0.015625 0 0.03125 0q0.203125 0 0.375 -0.078125q0.15625 -0.078125 0.28125 -0.25q0.140625 -0.1875 0.15625 -0.421875q0 -0.03125 0 -0.0625q0 -0.203125 -0.09375 -0.375q-0.09375 -0.203125 -0.296875 -0.328125q-0.1875 -0.109375 -0.40625 -0.109375q-0.015625 0 -0.03125 0zm3.2199097 2.640625q-0.609375 0 -0.625 0.609375l-0.140625 6.03125q-0.015625 0.703125 0.5625 0.71875q0.671875 0 0.703125 -0.703125l0.109375 -3.59375q0.34375 -1.359375 1.46875 -1.3125q1.0 0.03125 0.96875 1.875l-0.0625 3.0q-0.015625 0.765625 0.640625 0.71875q0.609375 -0.0625 0.625 -0.84375l0.078125 -3.265625q0.015625 -0.375 0.03125 -0.390625q0.4375 -1.125 1.625 -1.09375q1.03125 0.03125 1.0 1.953125l-0.046875 3.0q0 0.796875 0.703125 0.734375q0.609375 -0.0625 0.625 -0.84375l0.046875 -3.234375q0.046875 -2.96875 -2.421875 -2.96875q-1.328125 0 -2.0 0.953125q-0.46875 -0.96875 -1.828125 -0.953125q-0.828125 0 -1.40625 0.53125l0 -0.265625q0.015625 -0.65625 -0.65625 -0.65625zm10.525879 4.3125l4.375 -0.640625q0.6875 -0.09375 0.71875 -0.890625q0.03125 -1.0 -0.765625 -1.78125q-0.84375 -0.828125 -2.359375 -0.734375q-1.4375 0.078125 -2.34375 1.390625q-0.734375 1.046875 -0.734375 2.390625q0 1.625 1.15625 2.578125q0.9375 0.765625 2.171875 0.78125q1.703125 0.015625 2.734375 -0.90625q0.59375 -0.53125 0.296875 -1.140625q-0.140625 -0.265625 -0.453125 -0.1875q-0.28125 0.046875 -0.71875 0.546875q-0.453125 0.5 -1.78125 0.515625q-0.90625 0 -1.640625 -0.640625q-0.625 -0.546875 -0.65625 -1.28125zm0.140625 -1.078125q0.1875 -0.640625 0.46875 -1.0q0.65625 -0.796875 1.546875 -0.796875q0.640625 -0.015625 1.21875 0.34375q0.5 0.328125 0.59375 0.890625l-3.828125 0.5625zm8.02063 2.953125q-0.59375 -0.03125 -1.171875 -0.421875q-0.46875 -0.328125 -0.828125 -0.078125q-0.296875 0.1875 -0.28125 0.625q0.03125 0.390625 0.484375 0.640625q0.515625 0.296875 0.859375 0.390625q0.578125 0.171875 1.484375 0.15625q1.078125 0 1.734375 -0.4375q0.8125 -0.546875 0.90625 -1.375q0.109375 -0.828125 -0.546875 -1.625q-0.28125 -0.328125 -1.0 -0.671875q-0.53125 -0.234375 -1.140625 -0.3125q-0.796875 -0.078125 -0.90625 -0.4375q-0.140625 -0.390625 0.1875 -0.765625q0.375 -0.4375 1.15625 -0.484375q0.734375 -0.03125 1.109375 0.34375q0.765625 0.71875 1.140625 0.421875q0.296875 -0.25 0.234375 -0.640625q-0.09375 -0.59375 -1.015625 -1.046875q-0.71875 -0.34375 -1.671875 -0.265625q-0.84375 0.078125 -1.484375 0.546875q-0.546875 0.390625 -0.828125 1.140625q-0.265625 0.671875 -0.109375 1.328125q0.203125 0.828125 1.53125 1.03125q1.296875 0.171875 1.65625 0.5625q0.546875 0.59375 0.28125 1.0q-0.3125 0.46875 -1.78125 0.375zm7.1445923 -9.546875q-0.59375 0 -0.59375 0.609375l-0.078125 3.078125q-0.75 0.015625 -1.5 0.015625q-0.625 0 -0.625 0.65625q0 0.625 0.5625 0.625q0.765625 0 1.53125 0l-0.125 5.078125q0 0.6875 0.578125 0.703125q0.703125 0.015625 0.703125 -0.703125l0.125 -5.078125q0.6875 0 1.390625 0q0.75 0 0.75 -0.65625q0 -0.65625 -0.796875 -0.65625l-1.3125 0.015625q0.046875 -1.375 0.046875 -3.03125q0 -0.65625 -0.65625 -0.65625zm4.7644653 7.671875l4.375 -0.640625q0.6875 -0.09375 0.71875 -0.890625q0.03125 -1.0 -0.765625 -1.78125q-0.84375 -0.828125 -2.359375 -0.734375q-1.4375 0.078125 -2.34375 1.390625q-0.734375 1.046875 -0.734375 2.390625q0 1.625 1.15625 2.578125q0.9375 0.765625 2.171875 0.78125q1.703125 0.015625 2.734375 -0.90625q0.59375 -0.53125 0.296875 -1.140625q-0.140625 -0.265625 -0.453125 -0.1875q-0.28125 0.046875 -0.71875 0.546875q-0.453125 0.5 -1.78125 0.515625q-0.90625 0 -1.640625 -0.640625q-0.625 -0.546875 -0.65625 -1.28125zm0.140625 -1.078125q0.1875 -0.640625 0.46875 -1.0q0.65625 -0.796875 1.546875 -0.796875q0.640625 -0.015625 1.21875 0.34375q0.5 0.328125 0.59375 0.890625l-3.828125 0.5625zm6.942444 7.609375q0.59375 0 0.609375 -0.609375l0.078125 -3.46875q0.015625 0 0.015625 0.015625q0.4375 0.421875 1.546875 0.34375q1.265625 -0.09375 2.125 -1.15625q0.765625 -0.953125 0.765625 -2.703125q0 -1.21875 -0.84375 -2.125q-0.859375 -0.921875 -2.015625 -0.921875q-1.203125 -0.015625 -1.53125 0.234375q-0.15625 -0.375 -0.5 -0.375q-0.6875 -0.015625 -0.703125 0.6875l-0.203125 9.421875q-0.015625 0.65625 0.65625 0.65625zm0.796875 -8.984375q0.546875 -0.515625 1.4375 -0.390625q0.828125 0.109375 1.25 0.640625q0.5 0.625 0.5 1.46875q-0.015625 0.890625 -0.4375 1.515625q-0.5 0.734375 -1.46875 0.796875q-0.71875 0.046875 -1.359375 -0.65625l0.078125 -3.375zm10.171448 -1.53125q-0.765625 0 -0.765625 0.328125q0 0.3125 -0.015625 0.640625q0 0.3125 0.703125 0.3125l1.0625 0l-0.078125 5.15625q-0.015625 0.6875 0.578125 0.703125q0.703125 0.015625 0.703125 -0.6875l0.0625 -5.171875l1.609375 0q0.859375 0 0.8125 -0.703125q-0.03125 -0.578125 -0.890625 -0.578125l-1.5 0q0 -0.828125 0.171875 -1.4375q0.296875 -1.046875 1.515625 -0.9375q0.78125 0.078125 0.890625 -0.546875q0.125 -0.734375 -1.265625 -0.6875q-1.40625 0.046875 -1.90625 0.765625q-0.640625 0.90625 -0.671875 2.84375l-1.015625 0zm7.071594 -0.328125q-0.59375 0 -0.609375 0.609375l-0.15625 6.09375q-0.015625 0.6875 0.578125 0.703125q0.671875 0.015625 0.703125 -0.703125l0.109375 -4.265625q0.609375 -0.609375 1.34375 -0.75q0.75 -0.140625 1.34375 0.25q0.75 0.515625 1.03125 -0.328125q0.171875 -0.53125 -0.8125 -1.015625q-0.5625 -0.28125 -1.421875 -0.265625q-0.71875 0.015625 -1.4375 0.5625q0 -0.125 0 -0.234375q0 -0.65625 -0.671875 -0.65625zm8.513123 1.625q1.375 -0.03125 1.375 2.296875q-0.015625 1.21875 -0.53125 1.765625q-0.484375 0.53125 -1.1875 0.53125q-0.625 0 -1.109375 -0.53125q-0.46875 -0.5 -0.46875 -1.53125q0 -1.046875 0.640625 -1.9375q0.4375 -0.578125 1.28125 -0.59375zm-0.046875 -1.328125q-1.421875 -0.015625 -2.28125 1.125q-0.875 1.140625 -0.875 2.625q0 1.5625 0.734375 2.4375q0.796875 0.953125 1.96875 0.953125q1.59375 0.015625 2.375 -0.96875q0.703125 -0.828125 0.703125 -2.421875q0 -3.734375 -2.625 -3.75zm4.837097 -0.296875q-0.609375 0 -0.625 0.609375l-0.140625 6.03125q-0.015625 0.703125 0.5625 0.71875q0.671875 0 0.703125 -0.703125l0.109375 -3.59375q0.34375 -1.359375 1.46875 -1.3125q1.0 0.03125 0.96875 1.875l-0.0625 3.0q-0.015625 0.765625 0.640625 0.71875q0.609375 -0.0625 0.625 -0.84375l0.078125 -3.265625q0.015625 -0.375 0.03125 -0.390625q0.4375 -1.125 1.625 -1.09375q1.03125 0.03125 1.0 1.953125l-0.046875 3.0q0 0.796875 0.703125 0.734375q0.609375 -0.0625 0.625 -0.84375l0.046875 -3.234375q0.046875 -2.96875 -2.421875 -2.96875q-1.328125 0 -2.0 0.953125q-0.46875 -0.96875 -1.828125 -0.953125q-0.828125 0 -1.40625 0.53125l0 -0.265625q0.015625 -0.65625 -0.65625 -0.65625z" fill-rule="nonzero"/><path fill="#000000" d="m615.04486 139.17651q-0.625 0.046875 -0.53125 0.625l0.34375 2.265625q0.140625 0.828125 0.640625 0.734375q0.484375 -0.09375 0.40625 -0.9375l-0.1875 -2.15625q-0.046875 -0.59375 -0.671875 -0.53125zm3.0576782 3.359375q-0.59375 0 -0.609375 0.609375l-0.15625 6.046875q-0.015625 0.703125 0.578125 0.71875q0.6875 0.015625 0.703125 -0.703125l0.109375 -3.9375q1.03125 -1.03125 1.9375 -0.96875q1.078125 0.078125 1.03125 1.875l-0.078125 3.09375q-0.015625 0.78125 0.6875 0.71875q0.609375 -0.0625 0.625 -0.84375l0.0625 -3.25q0.03125 -2.96875 -2.421875 -2.96875q-1.109375 0 -1.8125 0.640625q0 -0.1875 0.015625 -0.375q0.015625 -0.65625 -0.671875 -0.65625zm9.085815 1.625q1.375 -0.03125 1.375 2.296875q-0.015625 1.21875 -0.53125 1.765625q-0.484375 0.53125 -1.1875 0.53125q-0.625 0 -1.109375 -0.53125q-0.46875 -0.5 -0.46875 -1.53125q0 -1.046875 0.640625 -1.9375q0.4375 -0.578125 1.28125 -0.59375zm-0.046875 -1.328125q-1.421875 -0.015625 -2.28125 1.125q-0.875 1.140625 -0.875 2.625q0 1.5625 0.734375 2.4375q0.796875 0.953125 1.96875 0.953125q1.59375 0.015625 2.375 -0.96875q0.703125 -0.828125 0.703125 -2.421875q0 -3.734375 -2.625 -3.75zm8.633972 0.875q-0.140625 -0.859375 -0.65625 -0.859375q-0.453125 0 -0.71875 0.859375l-1.4375 4.515625l-0.765625 -4.515625q-0.15625 -0.9375 -0.734375 -0.84375q-0.59375 0.09375 -0.4375 0.90625l1.03125 5.421875q0.140625 0.796875 0.8125 0.796875q0.546875 0 0.828125 -0.796875l1.25 -3.578125l0.6875 3.578125q0.15625 0.796875 0.828125 0.796875q0.546875 0 0.8125 -0.796875l1.875 -5.421875q0.28125 -0.8125 -0.390625 -0.90625q-0.484375 -0.078125 -0.78125 0.84375l-1.4375 4.515625l-0.765625 -4.515625zm5.0863037 -4.53125q-0.609375 -0.0625 -0.65625 0.53125l-0.203125 2.15625q-0.078125 0.84375 0.40625 0.9375q0.515625 0.09375 0.640625 -0.734375l0.34375 -2.265625q0.09375 -0.578125 -0.53125 -0.625zm7.0873413 3.671875q-0.65625 -0.015625 -0.671875 0.84375l-0.109375 5.46875q-0.03125 0.8125 0.671875 0.828125q0.609375 0 0.625 -0.875l0.09375 -5.421875q0.015625 -0.828125 -0.609375 -0.84375zm0.046875 -2.953125q-0.21875 0 -0.40625 0.125q-0.171875 0.109375 -0.28125 0.296875q-0.09375 0.1875 -0.09375 0.390625q0 0.21875 0.109375 0.40625q0.109375 0.1875 0.28125 0.296875q0.171875 0.09375 0.375 0.109375q0.015625 0 0.03125 0q0.203125 0 0.375 -0.078125q0.15625 -0.078125 0.28125 -0.25q0.140625 -0.1875 0.15625 -0.421875q0 -0.03125 0 -0.0625q0 -0.203125 -0.09375 -0.375q-0.09375 -0.203125 -0.296875 -0.328125q-0.1875 -0.109375 -0.40625 -0.109375q-0.015625 0 -0.03125 0zm3.3292847 2.640625q-0.59375 0 -0.609375 0.609375l-0.15625 6.046875q-0.015625 0.703125 0.578125 0.71875q0.6875 0.015625 0.703125 -0.703125l0.109375 -3.9375q1.03125 -1.03125 1.9375 -0.96875q1.078125 0.078125 1.03125 1.875l-0.078125 3.09375q-0.015625 0.78125 0.6875 0.71875q0.609375 -0.0625 0.625 -0.84375l0.0625 -3.25q0.03125 -2.96875 -2.421875 -2.96875q-1.109375 0 -1.8125 0.640625q0 -0.1875 0.015625 -0.375q0.015625 -0.65625 -0.671875 -0.65625zm12.5373535 -3.359375q-0.59375 0 -0.59375 0.609375l-0.078125 3.078125q-0.75 0.015625 -1.5 0.015625q-0.625 0 -0.625 0.65625q0 0.625 0.5625 0.625q0.765625 0 1.53125 0l-0.125 5.078125q0 0.6875 0.578125 0.703125q0.703125 0.015625 0.703125 -0.703125l0.125 -5.078125q0.6875 0 1.390625 0q0.75 0 0.75 -0.65625q0 -0.65625 -0.796875 -0.65625l-1.3125 0.015625q0.046875 -1.375 0.046875 -3.03125q0 -0.65625 -0.65625 -0.65625zm4.8582764 0q-0.59375 0.015625 -0.609375 0.609375l-0.21875 9.453125q-0.015625 0.6875 0.5625 0.703125q0.703125 0.015625 0.71875 -0.703125l0.140625 -3.75q1.015625 -1.21875 2.21875 -1.109375q1.0625 0.078125 1.046875 1.8125l-0.015625 3.125q-0.015625 0.765625 0.6875 0.71875q0.625 -0.0625 0.625 -0.84375l0.03125 -3.296875q0.015625 -2.96875 -2.421875 -2.96875q-1.34375 0 -2.171875 0.75l0.078125 -3.84375q0 -0.65625 -0.671875 -0.65625zm7.6050415 7.671875l4.375 -0.640625q0.6875 -0.09375 0.71875 -0.890625q0.03125 -1.0 -0.765625 -1.78125q-0.84375 -0.828125 -2.359375 -0.734375q-1.4375 0.078125 -2.34375 1.390625q-0.734375 1.046875 -0.734375 2.390625q0 1.625 1.15625 2.578125q0.9375 0.765625 2.171875 0.78125q1.703125 0.015625 2.734375 -0.90625q0.59375 -0.53125 0.296875 -1.140625q-0.140625 -0.265625 -0.453125 -0.1875q-0.28125 0.046875 -0.71875 0.546875q-0.453125 0.5 -1.78125 0.515625q-0.90625 0 -1.640625 -0.640625q-0.625 -0.546875 -0.65625 -1.28125zm0.140625 -1.078125q0.1875 -0.640625 0.46875 -1.0q0.65625 -0.796875 1.546875 -0.796875q0.640625 -0.015625 1.21875 0.34375q0.5 0.328125 0.59375 0.890625l-3.828125 0.5625zm12.003418 2.953125q-0.59375 -0.03125 -1.171875 -0.421875q-0.46875 -0.328125 -0.828125 -0.078125q-0.296875 0.1875 -0.28125 0.625q0.03125 0.390625 0.484375 0.640625q0.515625 0.296875 0.859375 0.390625q0.578125 0.171875 1.484375 0.15625q1.078125 0 1.734375 -0.4375q0.8125 -0.546875 0.90625 -1.375q0.109375 -0.828125 -0.546875 -1.625q-0.28125 -0.328125 -1.0 -0.671875q-0.53125 -0.234375 -1.140625 -0.3125q-0.796875 -0.078125 -0.90625 -0.4375q-0.140625 -0.390625 0.1875 -0.765625q0.375 -0.4375 1.15625 -0.484375q0.734375 -0.03125 1.109375 0.34375q0.765625 0.71875 1.140625 0.421875q0.296875 -0.25 0.234375 -0.640625q-0.09375 -0.59375 -1.015625 -1.046875q-0.71875 -0.34375 -1.671875 -0.265625q-0.84375 0.078125 -1.484375 0.546875q-0.546875 0.390625 -0.828125 1.140625q-0.265625 0.671875 -0.109375 1.328125q0.203125 0.828125 1.53125 1.03125q1.296875 0.171875 1.65625 0.5625q0.546875 0.59375 0.28125 1.0q-0.3125 0.46875 -1.78125 0.375zm5.9258423 -5.875q-0.65625 -0.015625 -0.671875 0.84375l-0.109375 5.46875q-0.03125 0.8125 0.671875 0.828125q0.609375 0 0.625 -0.875l0.09375 -5.421875q0.015625 -0.828125 -0.609375 -0.84375zm0.046875 -2.953125q-0.21875 0 -0.40625 0.125q-0.171875 0.109375 -0.28125 0.296875q-0.09375 0.1875 -0.09375 0.390625q0 0.21875 0.109375 0.40625q0.109375 0.1875 0.28125 0.296875q0.171875 0.09375 0.375 0.109375q0.015625 0 0.03125 0q0.203125 0 0.375 -0.078125q0.15625 -0.078125 0.28125 -0.25q0.140625 -0.1875 0.15625 -0.421875q0 -0.03125 0 -0.0625q0 -0.203125 -0.09375 -0.375q-0.09375 -0.203125 -0.296875 -0.328125q-0.1875 -0.109375 -0.40625 -0.109375q-0.015625 0 -0.03125 0zm3.2199097 2.640625q-0.609375 0 -0.625 0.609375l-0.140625 6.03125q-0.015625 0.703125 0.5625 0.71875q0.671875 0 0.703125 -0.703125l0.109375 -3.59375q0.34375 -1.359375 1.46875 -1.3125q1.0 0.03125 0.96875 1.875l-0.0625 3.0q-0.015625 0.765625 0.640625 0.71875q0.609375 -0.0625 0.625 -0.84375l0.078125 -3.265625q0.015625 -0.375 0.03125 -0.390625q0.4375 -1.125 1.625 -1.09375q1.03125 0.03125 1.0 1.953125l-0.046875 3.0q0 0.796875 0.703125 0.734375q0.609375 -0.0625 0.625 -0.84375l0.046875 -3.234375q0.046875 -2.96875 -2.421875 -2.96875q-1.328125 0 -2.0 0.953125q-0.46875 -0.96875 -1.828125 -0.953125q-0.828125 0 -1.40625 0.53125l0 -0.265625q0.015625 -0.65625 -0.65625 -0.65625zm14.432129 7.625q0.59375 0 0.609375 -0.609375l0.15625 -6.078125q0 -0.703125 -0.578125 -0.71875q-0.6875 0 -0.71875 0.703125l-0.078125 3.28125q-0.03125 1.078125 -0.875 1.5q-0.9375 0.46875 -1.609375 0.015625q-0.5 -0.34375 -0.484375 -1.921875l0.015625 -2.84375q0.015625 -0.78125 -0.671875 -0.71875q-0.625 0.0625 -0.625 0.84375l-0.03125 3.1875q-0.03125 2.96875 2.421875 2.96875q1.109375 0 1.8125 -0.640625l0 0.375q-0.015625 0.65625 0.65625 0.65625zm3.2902832 -10.984375q-0.59375 0.015625 -0.59375 0.609375l-0.234375 9.453125q0 0.6875 0.578125 0.703125q0.703125 0.015625 0.71875 -0.703125l0.1875 -9.40625q0.015625 -0.65625 -0.65625 -0.65625zm4.979065 10.84375q0.609375 0 1.953125 -0.6875q0.125 0.859375 0.9375 0.6875q0.71875 -0.140625 0.15625 -1.09375q-0.375 -0.640625 -0.34375 -2.203125q0.03125 -1.96875 0.171875 -2.78125q0.15625 -0.828125 -0.625 -1.0q-0.390625 -0.09375 -0.578125 0.0625q-1.71875 -0.53125 -3.28125 0.75q-1.359375 1.109375 -1.328125 3.140625q0.015625 3.140625 2.9375 3.125zm0.75 -1.296875q-0.484375 0.171875 -1.0625 0.140625q-1.34375 -0.09375 -1.359375 -2.09375q0.0625 -1.515625 1.21875 -2.359375q0.28125 -0.21875 0.765625 -0.328125q0.6875 -0.171875 1.3125 0.21875q-0.296875 1.0625 -0.0625 3.859375q-0.578125 0.46875 -0.8125 0.5625zm5.9921265 -9.546875q-0.59375 0 -0.59375 0.609375l-0.078125 3.078125q-0.75 0.015625 -1.5 0.015625q-0.625 0 -0.625 0.65625q0 0.625 0.5625 0.625q0.765625 0 1.53125 0l-0.125 5.078125q0 0.6875 0.578125 0.703125q0.703125 0.015625 0.703125 -0.703125l0.125 -5.078125q0.6875 0 1.390625 0q0.75 0 0.75 -0.65625q0 -0.65625 -0.796875 -0.65625l-1.3125 0.015625q0.046875 -1.375 0.046875 -3.03125q0 -0.65625 -0.65625 -0.65625zm5.0613403 3.671875q-0.65625 -0.015625 -0.671875 0.84375l-0.109375 5.46875q-0.03125 0.8125 0.671875 0.828125q0.609375 0 0.625 -0.875l0.09375 -5.421875q0.015625 -0.828125 -0.609375 -0.84375zm0.046875 -2.953125q-0.21875 0 -0.40625 0.125q-0.171875 0.109375 -0.28125 0.296875q-0.09375 0.1875 -0.09375 0.390625q0 0.21875 0.109375 0.40625q0.109375 0.1875 0.28125 0.296875q0.171875 0.09375 0.375 0.109375q0.015625 0 0.03125 0q0.203125 0 0.375 -0.078125q0.15625 -0.078125 0.28125 -0.25q0.140625 -0.1875 0.15625 -0.421875q0 -0.03125 0 -0.0625q0 -0.203125 -0.09375 -0.375q-0.09375 -0.203125 -0.296875 -0.328125q-0.1875 -0.109375 -0.40625 -0.109375q-0.015625 0 -0.03125 0zm5.4386597 4.265625q1.375 -0.03125 1.375 2.296875q-0.015625 1.21875 -0.53125 1.765625q-0.484375 0.53125 -1.1875 0.53125q-0.625 0 -1.109375 -0.53125q-0.46875 -0.5 -0.46875 -1.53125q0 -1.046875 0.640625 -1.9375q0.4375 -0.578125 1.28125 -0.59375zm-0.046875 -1.328125q-1.421875 -0.015625 -2.28125 1.125q-0.875 1.140625 -0.875 2.625q0 1.5625 0.734375 2.4375q0.796875 0.953125 1.96875 0.953125q1.59375 0.015625 2.375 -0.96875q0.703125 -0.828125 0.703125 -2.421875q0 -3.734375 -2.625 -3.75zm4.946472 -0.296875q-0.59375 0 -0.609375 0.609375l-0.15625 6.046875q-0.015625 0.703125 0.578125 0.71875q0.6875 0.015625 0.703125 -0.703125l0.109375 -3.9375q1.03125 -1.03125 1.9375 -0.96875q1.078125 0.078125 1.03125 1.875l-0.078125 3.09375q-0.015625 0.78125 0.6875 0.71875q0.609375 -0.0625 0.625 -0.84375l0.0625 -3.25q0.03125 -2.96875 -2.421875 -2.96875q-1.109375 0 -1.8125 0.640625q0 -0.1875 0.015625 -0.375q0.015625 -0.65625 -0.671875 -0.65625zm7.1326904 6.125q-0.1875 0 -0.34375 0.109375q-0.15625 0.109375 -0.25 0.265625q-0.078125 0.171875 -0.078125 0.359375q0 0.203125 0.09375 0.375q0.09375 0.15625 0.234375 0.25q0.15625 0.09375 0.3125 0.109375q0.03125 0 0.046875 0q0.171875 0 0.3125 -0.078125q0.125 -0.0625 0.234375 -0.21875q0.125 -0.171875 0.140625 -0.375q0 -0.03125 0 -0.0625q0 -0.1875 -0.078125 -0.34375q-0.09375 -0.1875 -0.265625 -0.28125q-0.15625 -0.109375 -0.34375 -0.109375q-0.015625 0 -0.015625 0zm2.71875 0q-0.1875 0 -0.34375 0.109375q-0.140625 0.109375 -0.234375 0.265625q-0.09375 0.171875 -0.09375 0.359375q0 0.203125 0.09375 0.375q0.09375 0.15625 0.25 0.25q0.140625 0.09375 0.3125 0.109375q0.015625 0 0.03125 0q0.171875 0 0.3125 -0.078125q0.125 -0.0625 0.234375 -0.21875q0.125 -0.171875 0.15625 -0.375q0 -0.03125 0 -0.0625q0 -0.1875 -0.078125 -0.34375q-0.09375 -0.1875 -0.265625 -0.28125q-0.15625 -0.109375 -0.359375 -0.109375q0 0 -0.015625 0zm2.90625 0q-0.1875 0 -0.34375 0.109375q-0.140625 0.109375 -0.25 0.265625q-0.078125 0.171875 -0.078125 0.359375q0 0.203125 0.09375 0.375q0.09375 0.15625 0.25 0.25q0.140625 0.09375 0.3125 0.109375q0.015625 0 0.03125 0q0.171875 0 0.3125 -0.078125q0.125 -0.0625 0.234375 -0.21875q0.125 -0.171875 0.140625 -0.375q0 -0.03125 0 -0.0625q0 -0.1875 -0.078125 -0.34375q-0.078125 -0.1875 -0.25 -0.28125q-0.171875 -0.109375 -0.359375 -0.109375q-0.015625 0 -0.015625 0z" fill-rule="nonzero"/></g></svg>