<svg version="1.1" viewBox="0.0 0.0 460.18897637795277 390.03937007874015" fill="none" stroke="none" stroke-linecap="square" stroke-miterlimit="10" xmlns:xlink="http://www.w3.org/1999/xlink" xmlns="http://www.w3.org/2000/svg"><clipPath id="p.0"><path d="m0 0l460.18896 0l0 390.03937l-460.18896 0l0 -390.03937z" clip-rule="nonzero"/></clipPath><g clip-path="url(#p.0)"><path fill="#ffffff" d="m0 0l460.18896 0l0 390.03937l-460.18896 0z" fill-rule="evenodd"/><path fill="#000000" fill-opacity="0.0" d="m11.204826 61.023697l0 0c0 -8.733677 7.0800457 -15.8137245 15.813723 -15.8137245l404.15207 0c4.1940613 0 8.216339 1.6660843 11.182007 4.631733c2.9656372 2.9656487 4.631714 6.9879303 4.631714 11.181992l0 301.22296c0 8.733673 -7.0800476 15.813721 -15.813721 15.813721l-404.15207 0c-8.733677 0 -15.813723 -7.0800476 -15.813723 -15.813721z" fill-rule="evenodd"/><path stroke="#000000" stroke-width="3.0" stroke-linejoin="round" stroke-linecap="butt" d="m11.204826 61.023697l0 0c0 -8.733677 7.0800457 -15.8137245 15.813723 -15.8137245l404.15207 0c4.1940613 0 8.216339 1.6660843 11.182007 4.631733c2.9656372 2.9656487 4.631714 6.9879303 4.631714 11.181992l0 301.22296c0 8.733673 -7.0800476 15.813721 -15.813721 15.813721l-404.15207 0c-8.733677 0 -15.813723 -7.0800476 -15.813723 -15.813721z" fill-rule="evenodd"/><path fill="#000000" fill-opacity="0.0" d="m138.3307 81.39126l0 0c0 -5.1054688 4.138809 -9.244278 9.244278 -9.244278l84.377594 0c2.4517365 0 4.803055 0.9739456 6.536682 2.7075882c1.7336426 1.733635 2.7075958 4.084961 2.7075958 6.5366898l0 36.976013c0 5.1054688 -4.138809 9.244278 -9.244278 9.244278l-84.377594 0c-5.1054688 0 -9.244278 -4.138809 -9.244278 -9.244278z" fill-rule="evenodd"/><path stroke="#3c78d8" stroke-width="3.0" stroke-linejoin="round" stroke-linecap="butt" d="m138.3307 81.39126l0 0c0 -5.1054688 4.138809 -9.244278 9.244278 -9.244278l84.377594 0c2.4517365 0 4.803055 0.9739456 6.536682 2.7075882c1.7336426 1.733635 2.7075958 4.084961 2.7075958 6.5366898l0 36.976013c0 5.1054688 -4.138809 9.244278 -9.244278 9.244278l-84.377594 0c-5.1054688 0 -9.244278 -4.138809 -9.244278 -9.244278z" fill-rule="evenodd"/><path fill="#3c78d8" d="m168.02493 91.73427q-1.40625 0 -1.40625 0.921875q0 1.09375 1.3125 1.09375q2.453125 0 4.921875 -0.015625l-0.328125 13.078125q-0.015625 1.046875 0.921875 1.0625q1.109375 0.03125 1.125 -1.03125l0.3125 -13.109375l4.390625 -0.015625q1.390625 0 1.375 -0.953125q-0.03125 -1.03125 -1.375 -1.03125l-11.25 0zm15.043335 4.71875q-1.046875 -0.015625 -1.078125 1.359375l-0.171875 8.75q-0.03125 1.3125 1.078125 1.3125q0.984375 0 1.0 -1.40625l0.140625 -8.65625q0.03125 -1.328125 -0.96875 -1.359375zm0.078125 -4.71875q-0.359375 0 -0.640625 0.1875q-0.28125 0.1875 -0.453125 0.484375q-0.171875 0.296875 -0.171875 0.625q0 0.359375 0.1875 0.65625q0.171875 0.296875 0.453125 0.46875q0.265625 0.15625 0.59375 0.171875q0.03125 0 0.0625 0q0.328125 0.015625 0.578125 -0.125q0.25 -0.109375 0.46875 -0.390625q0.21875 -0.296875 0.25 -0.671875q0 -0.046875 0 -0.109375q0 -0.3125 -0.140625 -0.59375q-0.171875 -0.34375 -0.484375 -0.53125q-0.3125 -0.171875 -0.65625 -0.171875q-0.03125 0 -0.046875 0zm5.149582 4.234375q-0.96875 0 -0.984375 0.96875l-0.234375 9.65625q-0.03125 1.109375 0.90625 1.125q1.078125 0.03125 1.109375 -1.109375l0.171875 -5.765625q0.5625 -2.15625 2.375 -2.09375q1.59375 0.046875 1.53125 3.015625l-0.09375 4.78125q-0.03125 1.25 1.03125 1.15625q0.96875 -0.078125 1.0 -1.34375l0.125 -5.21875q0.015625 -0.609375 0.046875 -0.640625q0.6875 -1.78125 2.59375 -1.734375q1.640625 0.046875 1.59375 3.125l-0.0625 4.796875q-0.015625 1.265625 1.109375 1.15625q0.984375 -0.078125 1.0 -1.34375l0.078125 -5.171875q0.078125 -4.734375 -3.875 -4.75q-2.125 0 -3.1875 1.53125q-0.765625 -1.546875 -2.921875 -1.53125q-1.34375 0.015625 -2.265625 0.84375l0.015625 -0.421875q0.015625 -1.03125 -1.0625 -1.03125zm16.850128 6.875l7.0 -1.0q1.109375 -0.15625 1.140625 -1.4375q0.0625 -1.59375 -1.21875 -2.84375q-1.359375 -1.328125 -3.765625 -1.1875q-2.3125 0.140625 -3.765625 2.234375q-1.171875 1.671875 -1.171875 3.828125q0 2.59375 1.859375 4.125q1.484375 1.21875 3.484375 1.25q2.703125 0.015625 4.375 -1.46875q0.9375 -0.84375 0.453125 -1.8125q-0.21875 -0.40625 -0.703125 -0.3125q-0.453125 0.09375 -1.15625 0.875q-0.71875 0.8125 -2.84375 0.84375q-1.46875 0 -2.625 -1.03125q-1.015625 -0.875 -1.0625 -2.0625zm0.21875 -1.71875q0.296875 -1.03125 0.75 -1.59375q1.046875 -1.28125 2.484375 -1.28125q1.03125 -0.015625 1.953125 0.5625q0.78125 0.515625 0.9375 1.421875l-6.125 0.890625z" fill-rule="nonzero"/><path fill="#000000" fill-opacity="0.0" d="m138.3307 149.39848l0 0c0 -5.1054688 4.138809 -9.244278 9.244278 -9.244278l84.377594 0c2.4517365 0 4.803055 0.97395325 6.536682 2.7075958c1.7336426 1.7336273 2.7075958 4.0849457 2.7075958 6.536682l0 36.976013c0 5.1054688 -4.138809 9.244278 -9.244278 9.244278l-84.377594 0c-5.1054688 0 -9.244278 -4.138809 -9.244278 -9.244278z" fill-rule="evenodd"/><path stroke="#3c78d8" stroke-width="3.0" stroke-linejoin="round" stroke-linecap="butt" d="m138.3307 149.39848l0 0c0 -5.1054688 4.138809 -9.244278 9.244278 -9.244278l84.377594 0c2.4517365 0 4.803055 0.97395325 6.536682 2.7075958c1.7336426 1.7336273 2.7075958 4.0849457 2.7075958 6.536682l0 36.976013c0 5.1054688 -4.138809 9.244278 -9.244278 9.244278l-84.377594 0c-5.1054688 0 -9.244278 -4.138809 -9.244278 -9.244278z" fill-rule="evenodd"/><path fill="#3c78d8" d="m168.02493 159.74149q-1.40625 0 -1.40625 0.921875q0 1.09375 1.3125 1.09375q2.453125 0 4.921875 -0.015625l-0.328125 13.078125q-0.015625 1.046875 0.921875 1.0625q1.109375 0.03125 1.125 -1.03125l0.3125 -13.109375l4.390625 -0.015625q1.390625 0 1.375 -0.953125q-0.03125 -1.03125 -1.375 -1.03125l-11.25 0zm15.043335 4.71875q-1.046875 -0.015625 -1.078125 1.359375l-0.171875 8.75q-0.03125 1.3125 1.078125 1.3125q0.984375 0 1.0 -1.40625l0.140625 -8.65625q0.03125 -1.328125 -0.96875 -1.359375zm0.078125 -4.71875q-0.359375 0 -0.640625 0.1875q-0.28125 0.1875 -0.453125 0.484375q-0.171875 0.296875 -0.171875 0.625q0 0.359375 0.1875 0.65625q0.171875 0.296875 0.453125 0.46875q0.265625 0.15625 0.59375 0.171875q0.03125 0 0.0625 0q0.328125 0.015625 0.578125 -0.125q0.25 -0.109375 0.46875 -0.390625q0.21875 -0.296875 0.25 -0.671875q0 -0.046875 0 -0.109375q0 -0.3125 -0.140625 -0.59375q-0.171875 -0.34375 -0.484375 -0.53125q-0.3125 -0.171875 -0.65625 -0.171875q-0.03125 0 -0.046875 0zm5.149582 4.234375q-0.96875 0 -0.984375 0.96875l-0.234375 9.65625q-0.03125 1.109375 0.90625 1.125q1.078125 0.03125 1.109375 -1.109375l0.171875 -5.765625q0.5625 -2.15625 2.375 -2.09375q1.59375 0.046875 1.53125 3.015625l-0.09375 4.78125q-0.03125 1.25 1.03125 1.15625q0.96875 -0.078125 1.0 -1.34375l0.125 -5.21875q0.015625 -0.609375 0.046875 -0.640625q0.6875 -1.78125 2.59375 -1.734375q1.640625 0.046875 1.59375 3.125l-0.0625 4.796875q-0.015625 1.265625 1.109375 1.15625q0.984375 -0.078125 1.0 -1.34375l0.078125 -5.171875q0.078125 -4.734375 -3.875 -4.75q-2.125 0 -3.1875 1.53125q-0.765625 -1.546875 -2.921875 -1.53125q-1.34375 0.015625 -2.265625 0.84375l0.015625 -0.421875q0.015625 -1.03125 -1.0625 -1.03125zm16.850128 6.875l7.0 -1.0q1.109375 -0.15625 1.140625 -1.4375q0.0625 -1.59375 -1.21875 -2.84375q-1.359375 -1.328125 -3.765625 -1.1875q-2.3125 0.140625 -3.765625 2.234375q-1.171875 1.671875 -1.171875 3.828125q0 2.59375 1.859375 4.125q1.484375 1.21875 3.484375 1.25q2.703125 0.015625 4.375 -1.46875q0.9375 -0.84375 0.453125 -1.8125q-0.21875 -0.40625 -0.703125 -0.3125q-0.453125 0.09375 -1.15625 0.875q-0.71875 0.8125 -2.84375 0.84375q-1.46875 0 -2.625 -1.03125q-1.015625 -0.875 -1.0625 -2.0625zm0.21875 -1.71875q0.296875 -1.03125 0.75 -1.59375q1.046875 -1.28125 2.484375 -1.28125q1.03125 -0.015625 1.953125 0.5625q0.78125 0.515625 0.9375 1.421875l-6.125 0.890625z" fill-rule="nonzero"/><path fill="#000000" fill-opacity="0.0" d="m138.3307 218.5631l0 0c0 -5.1054688 4.138809 -9.244278 9.244278 -9.244278l84.377594 0c2.4517365 0 4.803055 0.97395325 6.536682 2.7075806c1.7336426 1.7336426 2.7075958 4.084961 2.7075958 6.5366974l0 36.976013c0 5.105484 -4.138809 9.244278 -9.244278 9.244278l-84.377594 0c-5.1054688 0 -9.244278 -4.138794 -9.244278 -9.244278z" fill-rule="evenodd"/><path stroke="#3c78d8" stroke-width="3.0" stroke-linejoin="round" stroke-linecap="butt" d="m138.3307 218.5631l0 0c0 -5.1054688 4.138809 -9.244278 9.244278 -9.244278l84.377594 0c2.4517365 0 4.803055 0.97395325 6.536682 2.7075806c1.7336426 1.7336426 2.7075958 4.084961 2.7075958 6.5366974l0 36.976013c0 5.105484 -4.138809 9.244278 -9.244278 9.244278l-84.377594 0c-5.1054688 0 -9.244278 -4.138794 -9.244278 -9.244278z" fill-rule="evenodd"/><path fill="#3c78d8" d="m168.02493 228.9061q-1.40625 0 -1.40625 0.921875q0 1.09375 1.3125 1.09375q2.453125 0 4.921875 -0.015625l-0.328125 13.078125q-0.015625 1.046875 0.921875 1.0625q1.109375 0.03125 1.125 -1.03125l0.3125 -13.109375l4.390625 -0.015625q1.390625 0 1.375 -0.953125q-0.03125 -1.03125 -1.375 -1.03125l-11.25 0zm15.043335 4.71875q-1.046875 -0.015625 -1.078125 1.359375l-0.171875 8.75q-0.03125 1.3125 1.078125 1.3125q0.984375 0 1.0 -1.40625l0.140625 -8.65625q0.03125 -1.328125 -0.96875 -1.359375zm0.078125 -4.71875q-0.359375 0 -0.640625 0.1875q-0.28125 0.1875 -0.453125 0.484375q-0.171875 0.296875 -0.171875 0.625q0 0.359375 0.1875 0.65625q0.171875 0.296875 0.453125 0.46875q0.265625 0.15625 0.59375 0.171875q0.03125 0 0.0625 0q0.328125 0.015625 0.578125 -0.125q0.25 -0.109375 0.46875 -0.390625q0.21875 -0.296875 0.25 -0.671875q0 -0.046875 0 -0.109375q0 -0.3125 -0.140625 -0.59375q-0.171875 -0.34375 -0.484375 -0.53125q-0.3125 -0.171875 -0.65625 -0.171875q-0.03125 0 -0.046875 0zm5.149582 4.234375q-0.96875 0 -0.984375 0.96875l-0.234375 9.65625q-0.03125 1.109375 0.90625 1.125q1.078125 0.03125 1.109375 -1.109375l0.171875 -5.765625q0.5625 -2.15625 2.375 -2.09375q1.59375 0.046875 1.53125 3.015625l-0.09375 4.78125q-0.03125 1.25 1.03125 1.15625q0.96875 -0.078125 1.0 -1.34375l0.125 -5.21875q0.015625 -0.609375 0.046875 -0.640625q0.6875 -1.78125 2.59375 -1.734375q1.640625 0.046875 1.59375 3.125l-0.0625 4.796875q-0.015625 1.265625 1.109375 1.15625q0.984375 -0.078125 1.0 -1.34375l0.078125 -5.171875q0.078125 -4.734375 -3.875 -4.75q-2.125 0 -3.1875 1.53125q-0.765625 -1.546875 -2.921875 -1.53125q-1.34375 0.015625 -2.265625 0.84375l0.015625 -0.421875q0.015625 -1.03125 -1.0625 -1.03125zm16.850128 6.875l7.0 -1.0q1.109375 -0.15625 1.140625 -1.4375q0.0625 -1.59375 -1.21875 -2.84375q-1.359375 -1.328125 -3.765625 -1.1875q-2.3125 0.140625 -3.765625 2.234375q-1.171875 1.671875 -1.171875 3.828125q0 2.59375 1.859375 4.125q1.484375 1.21875 3.484375 1.25q2.703125 0.015625 4.375 -1.46875q0.9375 -0.84375 0.453125 -1.8125q-0.21875 -0.40625 -0.703125 -0.3125q-0.453125 0.09375 -1.15625 0.875q-0.71875 0.8125 -2.84375 0.84375q-1.46875 0 -2.625 -1.03125q-1.015625 -0.875 -1.0625 -2.0625zm0.21875 -1.71875q0.296875 -1.03125 0.75 -1.59375q1.046875 -1.28125 2.484375 -1.28125q1.03125 -0.015625 1.953125 0.5625q0.78125 0.515625 0.9375 1.421875l-6.125 0.890625z" fill-rule="nonzero"/><path fill="#000000" fill-opacity="0.0" d="m32.013123 -3.2624671l665.6693 0l0 48.47244l-665.6693 0z" fill-rule="evenodd"/><path fill="#000000" d="m47.403748 14.199409q1.328125 -0.875 2.890625 -0.53125q1.046875 0.25 1.859375 0.796875q0.875 0.609375 1.703125 -0.15625q0.453125 -0.453125 0.40625 -1.3125q-0.046875 -0.65625 -1.53125 -1.421875q-1.953125 -1.0 -4.390625 -0.609375q-2.5625 0.40625 -4.859375 3.640625q-1.5625 2.234376 -1.5625 6.562501q-0.015625 3.625 1.703125 5.875q1.6875 2.234375 4.515625 2.328125q2.15625 0.078125 4.015625 -0.703125q2.265625 -0.921875 2.359375 -1.8125q0.171875 -1.578125 -0.953125 -1.796875q-0.65625 -0.140625 -2.328125 0.921875q-1.140625 0.75 -3.265625 0.65625q-1.484375 -0.078125 -2.375 -1.421875q-1.125 -1.71875 -1.125 -4.328125q0 -2.828125 0.96875 -4.484375q0.859375 -1.468751 1.96875 -2.203126zm18.148438 15.468751q1.0625 0 1.078125 -1.09375l0.28125 -10.9375q0.03125 -1.265625 -1.03125 -1.296875q-1.234375 -0.015625 -1.28125 1.265625l-0.140625 5.921875q-0.046875 1.921875 -1.578125 2.6875q-1.6875 0.84375 -2.90625 0.03125q-0.890625 -0.625 -0.859375 -3.453125l0.015625 -5.125q0.03125 -1.40625 -1.21875 -1.296875q-1.09375 0.09375 -1.125 1.5l-0.046875 5.765625q-0.046875 5.328125 4.359375 5.34375q2.0 0 3.265625 -1.171875l0 0.703125q-0.03125 1.15625 1.1875 1.15625zm5.1210938 -13.718751q-1.078125 0 -1.09375 1.093751l-0.28125 10.859375q-0.03125 1.265625 1.03125 1.28125q1.21875 0.03125 1.25 -1.25l0.203125 -6.484375q0.625 -2.4375 2.65625 -2.359375q1.796875 0.046875 1.734375 3.390625l-0.125 5.375q-0.03125 1.421875 1.171875 1.3125q1.09375 -0.09375 1.125 -1.515625l0.140625 -5.875q0.015625 -0.671875 0.046875 -0.71875q0.78125 -2.015625 2.921875 -1.953125q1.859375 0.046875 1.8125 3.515625l-0.078125 5.40625q-0.015625 1.421875 1.25 1.296875q1.09375 -0.09375 1.125 -1.515625l0.09375 -5.8125q0.078125 -5.34375 -4.359375 -5.34375q-2.40625 -0.015625 -3.609375 1.71875q-0.84375 -1.75 -3.28125 -1.71875q-1.5 0 -2.546875 0.9375l0.015625 -0.46875q0.015625 -1.171876 -1.203125 -1.171876zm26.003906 13.718751q1.0625 0 1.078125 -1.09375l0.28125 -10.9375q0.03125 -1.265625 -1.03125 -1.296875q-1.234375 -0.015625 -1.28125 1.265625l-0.140625 5.921875q-0.046875 1.921875 -1.578125 2.6875q-1.6875 0.84375 -2.90625 0.03125q-0.890625 -0.625 -0.859375 -3.453125l0.015625 -5.125q0.03125 -1.40625 -1.21875 -1.296875q-1.09375 0.09375 -1.125 1.5l-0.046875 5.765625q-0.046875 5.328125 4.359375 5.34375q2.0 0 3.265625 -1.171875l0 0.703125q-0.03125 1.15625 1.1875 1.15625zm5.9179688 -19.765625q-1.046875 0.03125 -1.078125 1.09375l-0.390625 17.0q-0.03125 1.265625 1.03125 1.28125q1.265625 0.03125 1.265625 -1.25l0.375 -16.953125q0.015625 -1.171875 -1.203125 -1.171875zm8.964844 19.53125q1.09375 -0.015625 3.515625 -1.25q0.234375 1.5625 1.703125 1.25q1.28125 -0.25 0.28125 -1.96875q-0.6875 -1.171875 -0.640625 -3.984375q0.0625 -3.53125 0.328125 -5.0q0.28125 -1.5 -1.125 -1.8125q-0.71875 -0.15625 -1.0625 0.125q-3.0625 -0.96875095 -5.875 1.34375q-2.453125 2.0 -2.421875 5.671875q0.03125 5.640625 5.296875 5.625zm1.359375 -2.359375q-0.890625 0.328125 -1.90625 0.265625q-2.421875 -0.171875 -2.46875 -3.75q0.109375 -2.765625 2.203125 -4.265625q0.515625 -0.390625 1.375 -0.609375q1.25 -0.296875 2.375 0.421875q-0.53125 1.890625 -0.109375 6.9375q-1.046875 0.84375 -1.46875 1.0zm10.78125 -17.171875q-1.046875 0 -1.078125 1.09375l-0.125 5.546876q-1.359375 0.015625 -2.703125 0.015625q-1.125 0 -1.125 1.171875q0 1.15625 1.015625 1.15625q1.375 0 2.75 0l-0.203125 9.109375q-0.03125 1.265625 1.03125 1.28125q1.265625 0.03125 1.265625 -1.25l0.203125 -9.140625q1.25 0 2.515625 0q1.359375 0 1.359375 -1.203125q0 -1.171875 -1.4375 -1.171875l-2.375 0.015625q0.078125 -2.468751 0.109375 -5.453126q0 -1.171875 -1.203125 -1.171875zm9.121094 6.609376q-1.1875 -0.03125 -1.21875 1.53125l-0.203125 9.828125q-0.03125 1.484375 1.21875 1.5q1.109375 0 1.125 -1.59375l0.171875 -9.75q0.015625 -1.5 -1.09375 -1.515625zm0.078125 -5.328126q-0.390625 0 -0.71875 0.203125q-0.3125 0.21875 -0.515625 0.5625q-0.1875 0.328125 -0.1875 0.703125q0 0.390625 0.203125 0.734375q0.203125 0.328125 0.515625 0.515625q0.3125 0.1875 0.671875 0.203125q0.03125 0 0.0625 0q0.375 0.015625 0.65625 -0.140625q0.28125 -0.125 0.515625 -0.4375q0.265625 -0.34375 0.296875 -0.765625q0 -0.0625 0 -0.109375q0 -0.375 -0.15625 -0.6875q-0.1875 -0.375 -0.5625 -0.578125q-0.328125 -0.203125 -0.734375 -0.203125q-0.015625 0 -0.046875 0zm4.4609375 5.328126q-0.984375 0.421875 -0.421875 1.90625l3.6875 9.609375q0.5 1.28125 1.421875 1.28125q0.890625 0 1.375 -1.28125l3.6875 -9.609375q0.5625 -1.484375 -0.421875 -1.90625q-1.171875 -0.484375 -1.703125 1.0l-2.96875 8.21875l-2.953125 -8.21875q-0.53125 -1.484375 -1.703125 -1.0zm13.3125 7.1875l7.875 -1.140625q1.265625 -0.171875 1.3125 -1.609375q0.046875 -1.796875 -1.390625 -3.203125q-1.515625 -1.5 -4.234375 -1.328125q-2.59375 0.15625 -4.234375 2.515625q-1.3125 1.890625 -1.3125 4.296875q0 2.9375 2.078125 4.640625q1.6875 1.390625 3.921875 1.40625q3.046875 0.03125 4.921875 -1.640625q1.0625 -0.953125 0.515625 -2.03125q-0.234375 -0.46875 -0.796875 -0.359375q-0.5 0.109375 -1.296875 0.984375q-0.8125 0.921875 -3.203125 0.9375q-1.640625 0.015625 -2.953125 -1.140625q-1.140625 -1.0 -1.203125 -2.328125zm0.265625 -1.9375q0.328125 -1.15625 0.84375 -1.796875q1.171875 -1.4375 2.78125 -1.4375q1.171875 -0.015625 2.203125 0.640625q0.890625 0.578125 1.0625 1.59375l-6.890625 1.0zm19.976562 -10.562501q-1.578125 0 -1.578125 1.03125q0 1.234375 1.46875 1.234375q2.765625 0 5.53125 -0.015625l-0.359375 14.718751q-0.015625 1.171875 1.03125 1.203125q1.25 0.015625 1.28125 -1.1875l0.34375 -14.750001l4.9375 -0.015625q1.578125 0 1.546875 -1.078125q-0.015625 -1.140625 -1.546875 -1.140625l-12.65625 0zm16.9375 5.312501q-1.1875 -0.03125 -1.21875 1.53125l-0.203125 9.828125q-0.03125 1.484375 1.21875 1.5q1.109375 0 1.125 -1.59375l0.171875 -9.75q0.015625 -1.5 -1.09375 -1.515625zm0.078125 -5.328126q-0.390625 0 -0.71875 0.203125q-0.3125 0.21875 -0.515625 0.5625q-0.1875 0.328125 -0.1875 0.703125q0 0.390625 0.203125 0.734375q0.203125 0.328125 0.515625 0.515625q0.3125 0.1875 0.671875 0.203125q0.03125 0 0.0625 0q0.375 0.015625 0.65625 -0.140625q0.28125 -0.125 0.515625 -0.4375q0.265625 -0.34375 0.296875 -0.765625q0 -0.0625 0 -0.109375q0 -0.375 -0.15625 -0.6875q-0.1875 -0.375 -0.5625 -0.578125q-0.328125 -0.203125 -0.734375 -0.203125q-0.015625 0 -0.046875 0zm5.7890625 4.765625q-1.078125 0 -1.09375 1.093751l-0.28125 10.859375q-0.03125 1.265625 1.03125 1.28125q1.21875 0.03125 1.25 -1.25l0.203125 -6.484375q0.625 -2.4375 2.65625 -2.359375q1.796875 0.046875 1.734375 3.390625l-0.125 5.375q-0.03125 1.421875 1.171875 1.3125q1.09375 -0.09375 1.125 -1.515625l0.140625 -5.875q0.015625 -0.671875 0.046875 -0.71875q0.78125 -2.015625 2.921875 -1.953125q1.859375 0.046875 1.8125 3.515625l-0.078125 5.40625q-0.015625 1.421875 1.25 1.296875q1.09375 -0.09375 1.125 -1.515625l0.09375 -5.8125q0.078125 -5.34375 -4.359375 -5.34375q-2.40625 -0.015625 -3.609375 1.71875q-0.84375 -1.75 -3.28125 -1.71875q-1.5 0 -2.546875 0.9375l0.015625 -0.46875q0.015625 -1.171876 -1.203125 -1.171876zm18.957031 7.750001l7.875 -1.140625q1.265625 -0.171875 1.3125 -1.609375q0.046875 -1.796875 -1.390625 -3.203125q-1.515625 -1.5 -4.234375 -1.328125q-2.59375 0.15625 -4.234375 2.515625q-1.3125 1.890625 -1.3125 4.296875q0 2.9375 2.078125 4.640625q1.6875 1.390625 3.921875 1.40625q3.046875 0.03125 4.921875 -1.640625q1.0625 -0.953125 0.515625 -2.03125q-0.234375 -0.46875 -0.796875 -0.359375q-0.5 0.109375 -1.296875 0.984375q-0.8125 0.921875 -3.203125 0.9375q-1.640625 0.015625 -2.953125 -1.140625q-1.140625 -1.0 -1.203125 -2.328125zm0.265625 -1.9375q0.328125 -1.15625 0.84375 -1.796875q1.171875 -1.4375 2.78125 -1.4375q1.171875 -0.015625 2.203125 0.640625q0.890625 0.578125 1.0625 1.59375l-6.890625 1.0zm14.4453125 5.328125q-1.078125 -0.078125 -2.109375 -0.78125q-0.84375 -0.5625 -1.5 -0.140625q-0.53125 0.359375 -0.484375 1.125q0.046875 0.703125 0.859375 1.171875q0.921875 0.53125 1.546875 0.71875q1.03125 0.28125 2.671875 0.28125q1.953125 -0.015625 3.125 -0.8125q1.453125 -0.96875 1.640625 -2.484375q0.171875 -1.46875 -1.015625 -2.90625q-0.5 -0.609375 -1.796875 -1.203125q-0.9375 -0.4375 -2.0625 -0.5625q-1.40625 -0.15625 -1.625 -0.78125q-0.234375 -0.734375 0.34375 -1.390625q0.671875 -0.796875 2.09375 -0.875q1.328125 -0.046875 2.0 0.609375q1.359375 1.3125 2.03125 0.765625q0.546875 -0.4375 0.4375 -1.140625q-0.171875 -1.0625 -1.84375 -1.890625q-1.28125 -0.625 -3.0 -0.46875q-1.515625 0.140625 -2.6875 0.984375q-0.984375 0.703125 -1.484375 2.046875q-0.46875 1.21875 -0.1875 2.390625q0.359375 1.5 2.765625 1.84375q2.328125 0.328125 2.984375 1.03125q0.984375 1.046875 0.515625 1.78125q-0.59375 0.859375 -3.21875 0.6875zm12.855469 -17.1875q-1.046875 0 -1.078125 1.09375l-0.125 5.546876q-1.359375 0.015625 -2.703125 0.015625q-1.125 0 -1.125 1.171875q0 1.15625 1.015625 1.15625q1.375 0 2.75 0l-0.203125 9.109375q-0.03125 1.265625 1.03125 1.28125q1.265625 0.03125 1.265625 -1.25l0.203125 -9.140625q1.25 0 2.515625 0q1.359375 0 1.359375 -1.203125q0 -1.171875 -1.4375 -1.171875l-2.375 0.015625q0.078125 -2.468751 0.109375 -5.453126q0 -1.171875 -1.203125 -1.171875zm8.574219 13.796876l7.875 -1.140625q1.265625 -0.171875 1.3125 -1.609375q0.046875 -1.796875 -1.390625 -3.203125q-1.515625 -1.5 -4.234375 -1.328125q-2.59375 0.15625 -4.234375 2.515625q-1.3125 1.890625 -1.3125 4.296875q0 2.9375 2.078125 4.640625q1.6875 1.390625 3.921875 1.40625q3.046875 0.03125 4.921875 -1.640625q1.0625 -0.953125 0.515625 -2.03125q-0.234375 -0.46875 -0.796875 -0.359375q-0.5 0.109375 -1.296875 0.984375q-0.8125 0.921875 -3.203125 0.9375q-1.640625 0.015625 -2.953125 -1.140625q-1.140625 -1.0 -1.203125 -2.328125zm0.265625 -1.9375q0.328125 -1.15625 0.84375 -1.796875q1.171875 -1.4375 2.78125 -1.4375q1.171875 -0.015625 2.203125 0.640625q0.890625 0.578125 1.0625 1.59375l-6.890625 1.0zm12.5078125 13.703125q1.0625 0 1.078125 -1.09375l0.140625 -6.25q0.03125 0.015625 0.046875 0.015625q0.78125 0.796875 2.78125 0.640625q2.28125 -0.171875 3.828125 -2.09375q1.375 -1.71875 1.359375 -4.875q0 -2.171875 -1.515625 -3.796875q-1.53125 -1.671875 -3.625 -1.6875q-2.15625 -0.015625 -2.734375 0.4375q-0.296875 -0.671875 -0.90625 -0.671875q-1.25 -0.03125 -1.28125 1.25l-0.375 16.953125q-0.015625 1.171875 1.203125 1.171875zm1.4375 -16.15625q0.96875 -0.9375 2.5625 -0.734375q1.5 0.203125 2.28125 1.171875q0.890625 1.125 0.875 2.625q-0.03125 1.625 -0.78125 2.734375q-0.890625 1.328125 -2.625 1.4375q-1.3125 0.09375 -2.453125 -1.171875l0.140625 -6.0625zm13.332031 7.78125q-1.078125 -0.078125 -2.109375 -0.78125q-0.84375 -0.5625 -1.5 -0.140625q-0.53125 0.359375 -0.484375 1.125q0.046875 0.703125 0.859375 1.171875q0.921875 0.53125 1.546875 0.71875q1.03125 0.28125 2.671875 0.28125q1.953125 -0.015625 3.125 -0.8125q1.453125 -0.96875 1.640625 -2.484375q0.171875 -1.46875 -1.015625 -2.90625q-0.5 -0.609375 -1.796875 -1.203125q-0.9375 -0.4375 -2.0625 -0.5625q-1.40625 -0.15625 -1.625 -0.78125q-0.234375 -0.734375 0.34375 -1.390625q0.671875 -0.796875 2.09375 -0.875q1.328125 -0.046875 2.0 0.609375q1.359375 1.3125 2.03125 0.765625q0.546875 -0.4375 0.4375 -1.140625q-0.171875 -1.0625 -1.84375 -1.890625q-1.28125 -0.625 -3.0 -0.46875q-1.515625 0.140625 -2.6875 0.984375q-0.984375 0.703125 -1.484375 2.046875q-0.46875 1.21875 -0.1875 2.390625q0.359375 1.5 2.765625 1.84375q2.328125 0.328125 2.984375 1.03125q0.984375 1.046875 0.515625 1.78125q-0.59375 0.859375 -3.21875 0.6875zm17.621094 -16.046875q-1.078125 0.03125 -1.109375 1.03125l-0.390625 16.03125q-0.03125 1.1875 1.03125 1.21875q1.265625 0 1.28125 -1.203125l0.15625 -6.734375l10.140625 0q-0.09375 3.359375 -0.171875 6.71875q-0.015625 1.1875 1.03125 1.21875q1.265625 0.015625 1.28125 -1.1875l0.359375 -15.984376q0.03125 -1.09375 -1.1875 -1.09375q-1.0625 0.015625 -1.078125 1.03125l-0.1875 6.843751l-10.125 0l0.15625 -6.796876q0.03125 -1.09375 -1.1875 -1.09375zm18.652344 5.468751q-1.1875 -0.03125 -1.21875 1.53125l-0.203125 9.828125q-0.03125 1.484375 1.21875 1.5q1.109375 0 1.125 -1.59375l0.171875 -9.75q0.015625 -1.5 -1.09375 -1.515625zm0.078125 -5.328126q-0.390625 0 -0.71875 0.203125q-0.3125 0.21875 -0.515625 0.5625q-0.1875 0.328125 -0.1875 0.703125q0 0.390625 0.203125 0.734375q0.203125 0.328125 0.515625 0.515625q0.3125 0.1875 0.671875 0.203125q0.03125 0 0.0625 0q0.375 0.015625 0.65625 -0.140625q0.28125 -0.125 0.515625 -0.4375q0.265625 -0.34375 0.296875 -0.765625q0 -0.0625 0 -0.109375q0 -0.375 -0.15625 -0.6875q-0.1875 -0.375 -0.5625 -0.578125q-0.328125 -0.203125 -0.734375 -0.203125q-0.015625 0 -0.046875 0zm7.6640625 15.906251q-1.078125 -0.078125 -2.109375 -0.78125q-0.84375 -0.5625 -1.5 -0.140625q-0.53125 0.359375 -0.484375 1.125q0.046875 0.703125 0.859375 1.171875q0.921875 0.53125 1.546875 0.71875q1.03125 0.28125 2.671875 0.28125q1.953125 -0.015625 3.125 -0.8125q1.453125 -0.96875 1.640625 -2.484375q0.171875 -1.46875 -1.015625 -2.90625q-0.5 -0.609375 -1.796875 -1.203125q-0.9375 -0.4375 -2.0625 -0.5625q-1.40625 -0.15625 -1.625 -0.78125q-0.234375 -0.734375 0.34375 -1.390625q0.671875 -0.796875 2.09375 -0.875q1.328125 -0.046875 2.0 0.609375q1.359375 1.3125 2.03125 0.765625q0.546875 -0.4375 0.4375 -1.140625q-0.171875 -1.0625 -1.84375 -1.890625q-1.28125 -0.625 -3.0 -0.46875q-1.515625 0.140625 -2.6875 0.984375q-0.984375 0.703125 -1.484375 2.046875q-0.46875 1.21875 -0.1875 2.390625q0.359375 1.5 2.765625 1.84375q2.328125 0.328125 2.984375 1.03125q0.984375 1.046875 0.515625 1.78125q-0.59375 0.859375 -3.21875 0.6875zm12.855469 -17.1875q-1.046875 0 -1.078125 1.09375l-0.125 5.546876q-1.359375 0.015625 -2.703125 0.015625q-1.125 0 -1.125 1.171875q0 1.15625 1.015625 1.15625q1.375 0 2.75 0l-0.203125 9.109375q-0.03125 1.265625 1.03125 1.28125q1.265625 0.03125 1.265625 -1.25l0.203125 -9.140625q1.25 0 2.515625 0q1.359375 0 1.359375 -1.203125q0 -1.171875 -1.4375 -1.171875l-2.375 0.015625q0.078125 -2.468751 0.109375 -5.453126q0 -1.171875 -1.203125 -1.171875zm12.277344 8.968751q2.46875 -0.046875 2.453125 4.125q-0.015625 2.203125 -0.9375 3.203125q-0.875 0.9375 -2.15625 0.9375q-1.125 0 -1.984375 -0.9375q-0.84375 -0.921875 -0.84375 -2.75q0 -1.921875 1.171875 -3.515625q0.75 -1.03125 2.296875 -1.0625zm-0.09375 -2.390625q-2.5625 -0.015625 -4.109375 2.015625q-1.5625 2.0625 -1.5625 4.734375q0 2.828125 1.3125 4.390625q1.453125 1.71875 3.53125 1.734375q2.890625 0.015625 4.296875 -1.78125q1.25 -1.484375 1.265625 -4.34375q0 -6.71875 -4.734375 -6.75zm8.917969 -0.53125095q-1.078125 0 -1.109375 1.093751l-0.265625 10.953125q-0.03125 1.265625 1.015625 1.28125q1.234375 0.03125 1.265625 -1.25l0.203125 -7.6875q1.09375 -1.09375 2.421875 -1.34375q1.359375 -0.28125 2.421875 0.4375q1.34375 0.921875 1.859375 -0.578125q0.3125 -0.953125 -1.46875 -1.84375q-1.0 -0.5 -2.5625 -0.484375q-1.28125 0.03125 -2.59375 1.015625q0 -0.21875 0 -0.421875q0 -1.171876 -1.1875 -1.171876zm19.84375 0.76562595q-1.125 -0.46875 -1.71875 0.921875l-3.21875 7.390625l-3.921875 -7.46875q-0.734375 -1.390625 -1.828125 -0.8125q-1.03125 0.5625 -0.28125 1.9375l4.875 9.03125l-2.328125 5.390625q-0.8125 1.859375 0.421875 2.359375q1.03125 0.421875 1.84375 -1.453125l6.6875 -15.4375q0.59375 -1.375 -0.53125 -1.859375z" fill-rule="nonzero"/><path fill="#000000" fill-opacity="0.0" d="m32.013123 66.37008l149.07086 0l0 200.37793l-149.07086 0z" fill-rule="evenodd"/><path fill="#000000" d="m43.794373 83.75883q-0.921875 -0.03125 -0.953125 1.1875l-0.15625 7.640625q-0.015625 1.15625 0.953125 1.15625q0.859375 0 0.875 -1.234375l0.125 -7.578125q0.015625 -1.15625 -0.84375 -1.171875zm0.0625 -4.140625q-0.3125 0 -0.5625 0.171875q-0.234375 0.15625 -0.390625 0.421875q-0.15625 0.25 -0.15625 0.546875q0 0.3125 0.15625 0.578125q0.15625 0.25 0.40625 0.390625q0.234375 0.15625 0.515625 0.15625q0.03125 0 0.0625 0q0.28125 0.015625 0.5 -0.109375q0.21875 -0.09375 0.40625 -0.328125q0.203125 -0.265625 0.234375 -0.59375q0 -0.046875 0 -0.09375q0 -0.28125 -0.140625 -0.53125q-0.140625 -0.296875 -0.421875 -0.453125q-0.265625 -0.15625 -0.578125 -0.15625q-0.015625 0 -0.03125 0zm4.6663513 3.703125q-0.84375 0 -0.859375 0.84375l-0.203125 8.484375q-0.03125 0.96875 0.78125 0.984375q0.984375 0.015625 1.0 -0.96875l0.15625 -5.515625q1.4375 -1.453125 2.703125 -1.359375q1.515625 0.109375 1.453125 2.625l-0.109375 4.3125q-0.03125 1.109375 0.953125 1.015625q0.859375 -0.078125 0.875 -1.171875l0.078125 -4.5625q0.0625 -4.140625 -3.375 -4.140625q-1.546875 0 -2.546875 0.890625q0.015625 -0.265625 0.015625 -0.53125q0.03125 -0.90625 -0.921875 -0.90625zm16.60913 -4.703125q-0.8125 0.03125 -0.828125 0.859375l-0.140625 5.25q-0.34375 -0.25 -0.78125 -0.5q-0.8125 -0.453125 -1.90625 -0.453125q-2.046875 0 -3.3125 1.546875q-1.34375 1.65625 -1.25 4.078125q0.0625 1.796875 1.421875 3.140625q1.203125 1.203125 2.78125 1.203125q1.53125 0.015625 2.875 -0.84375q0.0625 0.765625 0.796875 0.78125q0.984375 0.015625 1.0 -0.96875l0.28125 -13.1875q0.015625 -0.90625 -0.9375 -0.90625zm-1.109375 12.21875q-1.625 1.28125 -2.90625 1.125q-1.203125 -0.125 -1.828125 -0.953125q-0.78125 -1.0 -0.765625 -2.046875q0.046875 -1.609375 0.765625 -2.515625q0.515625 -0.625 1.65625 -0.90625q1.5625 -0.390625 3.171875 1.28125q0 2.125 -0.09375 4.015625zm5.302475 -1.484375l6.125 -0.890625q0.96875 -0.140625 1.0 -1.25q0.046875 -1.40625 -1.0625 -2.5q-1.1875 -1.15625 -3.296875 -1.03125q-2.015625 0.125 -3.296875 1.953125q-1.015625 1.46875 -1.015625 3.34375q0 2.28125 1.625 3.609375q1.296875 1.078125 3.03125 1.09375q2.375 0.015625 3.828125 -1.28125q0.828125 -0.734375 0.40625 -1.578125q-0.1875 -0.359375 -0.625 -0.265625q-0.390625 0.078125 -1.0 0.75q-0.640625 0.71875 -2.5 0.734375q-1.265625 0.015625 -2.296875 -0.890625q-0.875 -0.78125 -0.921875 -1.796875zm0.203125 -1.515625q0.25 -0.890625 0.65625 -1.390625q0.90625 -1.125 2.171875 -1.125q0.890625 -0.015625 1.703125 0.5q0.6875 0.453125 0.828125 1.234375l-5.359375 0.78125zm8.752106 -3.90625q-0.734375 0.59375 0.015625 1.421875l3.1875 3.46875l-2.9375 3.125q-0.90625 0.96875 -0.1875 1.59375q0.65625 0.5625 1.515625 -0.40625l2.703125 -3.015625l2.703125 3.015625q0.875 0.96875 1.515625 0.40625q0.71875 -0.625 -0.1875 -1.59375l-2.875 -3.140625l3.125 -3.453125q0.765625 -0.828125 0.015625 -1.421875q-0.6875 -0.546875 -1.5 0.390625l-2.796875 3.21875l-2.78125 -3.21875q-0.828125 -0.9375 -1.515625 -0.390625zm21.38527 -2.734375q3.0 0 3.0 5.140625q0 5.71875 -3.28125 5.71875q-3.25 0 -3.25 -5.578125q0 -5.28125 3.53125 -5.28125zm-0.03125 -1.71875q-5.296875 0 -5.296875 7.03125q0 7.234375 5.046875 7.234375q5.140625 0 5.140625 -7.375q0 -6.890625 -4.890625 -6.890625z" fill-rule="nonzero"/><path fill="#000000" d="m46.278748 117.643196q-1.8125 -1.21875 -2.296875 -5.25q-0.296875 -2.4375 0.203125 -4.8125q0.578125 -2.78125 1.921875 -4.03125q1.671875 -1.5 0.96875 -2.234375q-0.640625 -0.671875 -2.09375 0.859375q-1.046875 1.125 -1.796875 2.890625q-1.0625 2.4375 -1.15625 4.890625q-0.09375 2.84375 0.765625 5.53125q0.609375 1.890625 2.0625 3.203125q1.453125 1.34375 2.125 0.828125q0.96875 -0.75 -0.703125 -1.875zm8.957123 -3.875q-1.078125 0.734375 -2.3125 0.6875q-1.203125 -0.046875 -1.875 -0.953125q-0.75 -1.015625 -0.71875 -2.234375q0.03125 -1.296875 0.71875 -2.296875q0.609375 -0.875 1.375 -1.109375q1.34375 -0.421875 2.40625 0.375q0.890625 0.640625 1.3125 0.34375q0.625 -0.453125 0.0625 -1.328125q-0.359375 -0.5625 -1.46875 -0.9375q-0.890625 -0.296875 -1.96875 -0.203125q-1.859375 0.125 -3.0625 1.875q-1.0 1.421875 -1.0 3.671875q0 2.03125 1.40625 3.375q1.109375 1.078125 2.8125 1.09375q2.140625 0.015625 3.140625 -0.84375q0.78125 -0.6875 0.484375 -1.203125q-0.515625 -0.84375 -1.3125 -0.3125zm10.020691 2.609375q0.828125 0 0.84375 -0.84375l0.21875 -8.5q0.015625 -0.984375 -0.796875 -1.015625q-0.96875 0 -1.0 0.984375l-0.109375 4.609375q-0.046875 1.484375 -1.234375 2.09375q-1.296875 0.65625 -2.25 0.015625q-0.6875 -0.484375 -0.671875 -2.6875l0.015625 -3.984375q0.015625 -1.09375 -0.953125 -1.0q-0.859375 0.078125 -0.875 1.171875l-0.03125 4.46875q-0.03125 4.140625 3.390625 4.15625q1.546875 0 2.546875 -0.90625l-0.015625 0.546875q-0.015625 0.890625 0.921875 0.890625zm4.1547394 -10.65625q-0.84375 0 -0.859375 0.84375l-0.203125 8.53125q-0.03125 0.96875 0.78125 0.984375q0.953125 0.015625 0.984375 -0.96875l0.15625 -5.984375q0.859375 -0.84375 1.890625 -1.046875q1.046875 -0.203125 1.875 0.34375q1.046875 0.71875 1.453125 -0.453125q0.234375 -0.734375 -1.140625 -1.421875q-0.78125 -0.390625 -2.0 -0.375q-0.984375 0.015625 -2.015625 0.78125q0 -0.171875 0 -0.328125q0 -0.90625 -0.921875 -0.90625zm8.963745 0q-0.84375 0 -0.859375 0.84375l-0.203125 8.53125q-0.03125 0.96875 0.78125 0.984375q0.953125 0.015625 0.984375 -0.96875l0.15625 -5.984375q0.859375 -0.84375 1.890625 -1.046875q1.046875 -0.203125 1.875 0.34375q1.046875 0.71875 1.453125 -0.453125q0.234375 -0.734375 -1.140625 -1.421875q-0.78125 -0.390625 -2.0 -0.375q-0.984375 0.015625 -2.015625 0.78125q0 -0.171875 0 -0.328125q0 -0.90625 -0.921875 -0.90625zm9.04187 6.03125l6.125 -0.890625q0.96875 -0.140625 1.0 -1.25q0.046875 -1.40625 -1.0625 -2.5q-1.1875 -1.15625 -3.296875 -1.03125q-2.015625 0.125 -3.296875 1.953125q-1.015625 1.46875 -1.015625 3.34375q0 2.28125 1.625 3.609375q1.296875 1.078125 3.03125 1.09375q2.375 0.015625 3.828125 -1.28125q0.828125 -0.734375 0.40625 -1.578125q-0.1875 -0.359375 -0.625 -0.265625q-0.390625 0.078125 -1.0 0.75q-0.640625 0.71875 -2.5 0.734375q-1.265625 0.015625 -2.296875 -0.890625q-0.875 -0.78125 -0.921875 -1.796875zm0.203125 -1.515625q0.25 -0.890625 0.65625 -1.390625q0.90625 -1.125 2.171875 -1.125q0.890625 -0.015625 1.703125 0.5q0.6875 0.453125 0.828125 1.234375l-5.359375 0.78125zm9.939606 -4.515625q-0.84375 0 -0.859375 0.84375l-0.203125 8.484375q-0.03125 0.96875 0.78125 0.984375q0.984375 0.015625 1.0 -0.96875l0.15625 -5.515625q1.4375 -1.453125 2.703125 -1.359375q1.515625 0.109375 1.453125 2.625l-0.109375 4.3125q-0.03125 1.109375 0.953125 1.015625q0.859375 -0.078125 0.875 -1.171875l0.078125 -4.5625q0.0625 -4.140625 -3.375 -4.140625q-1.546875 0 -2.546875 0.890625q0.015625 -0.265625 0.015625 -0.53125q0.03125 -0.90625 -0.921875 -0.90625zm11.968506 -4.703125q-0.828125 0 -0.84375 0.859375l-0.09375 4.296875q-1.0625 0.015625 -2.109375 0.015625q-0.859375 0 -0.859375 0.921875q0 0.890625 0.78125 0.890625q1.0625 0 2.140625 0l-0.171875 7.09375q-0.015625 0.96875 0.8125 0.984375q0.984375 0.015625 0.984375 -0.96875l0.15625 -7.109375q0.984375 0 1.953125 0q1.0625 0 1.0625 -0.9375q0 -0.90625 -1.125 -0.90625l-1.84375 0.015625q0.0625 -1.921875 0.078125 -4.25q0 -0.90625 -0.921875 -0.90625zm6.4156647 16.625q-1.671875 1.125 -0.703125 1.875q0.671875 0.515625 2.125 -0.828125q1.453125 -1.3125 2.0625 -3.203125q0.859375 -2.6875 0.765625 -5.53125q-0.09375 -2.453125 -1.15625 -4.890625q-0.734375 -1.765625 -1.796875 -2.890625q-1.453125 -1.53125 -2.09375 -0.859375q-0.6875 0.734375 0.96875 2.234375q1.34375 1.25 1.921875 4.03125q0.5 2.375 0.203125 4.8125q-0.484375 4.03125 -2.296875 5.25z" fill-rule="nonzero"/><path fill="#000000" d="m43.794373 150.95882q-0.921875 -0.03125 -0.953125 1.1875l-0.15625 7.640625q-0.015625 1.15625 0.953125 1.15625q0.859375 0 0.875 -1.234375l0.125 -7.578125q0.015625 -1.15625 -0.84375 -1.171875zm0.0625 -4.140625q-0.3125 0 -0.5625 0.171875q-0.234375 0.15625 -0.390625 0.421875q-0.15625 0.25 -0.15625 0.546875q0 0.3125 0.15625 0.578125q0.15625 0.25 0.40625 0.390625q0.234375 0.15625 0.515625 0.15625q0.03125 0 0.0625 0q0.28125 0.015625 0.5 -0.109375q0.21875 -0.09375 0.40625 -0.328125q0.203125 -0.265625 0.234375 -0.59375q0 -0.046875 0 -0.09375q0 -0.28125 -0.140625 -0.53125q-0.140625 -0.296875 -0.421875 -0.453125q-0.265625 -0.15625 -0.578125 -0.15625q-0.015625 0 -0.03125 0zm4.6663513 3.703125q-0.84375 0 -0.859375 0.84375l-0.203125 8.484375q-0.03125 0.96875 0.78125 0.984375q0.984375 0.015625 1.0 -0.96875l0.15625 -5.515625q1.4375 -1.453125 2.703125 -1.359375q1.515625 0.109375 1.453125 2.625l-0.109375 4.3125q-0.03125 1.109375 0.953125 1.015625q0.859375 -0.078125 0.875 -1.171875l0.078125 -4.5625q0.0625 -4.140625 -3.375 -4.140625q-1.546875 0 -2.546875 0.890625q0.015625 -0.265625 0.015625 -0.53125q0.03125 -0.90625 -0.921875 -0.90625zm16.60913 -4.703125q-0.8125 0.03125 -0.828125 0.859375l-0.140625 5.25q-0.34375 -0.25 -0.78125 -0.5q-0.8125 -0.453125 -1.90625 -0.453125q-2.046875 0 -3.3125 1.546875q-1.34375 1.65625 -1.25 4.078125q0.0625 1.796875 1.421875 3.140625q1.203125 1.203125 2.78125 1.203125q1.53125 0.015625 2.875 -0.84375q0.0625 0.765625 0.796875 0.78125q0.984375 0.015625 1.0 -0.96875l0.28125 -13.1875q0.015625 -0.90625 -0.9375 -0.90625zm-1.109375 12.21875q-1.625 1.28125 -2.90625 1.125q-1.203125 -0.125 -1.828125 -0.953125q-0.78125 -1.0 -0.765625 -2.046875q0.046875 -1.609375 0.765625 -2.515625q0.515625 -0.625 1.65625 -0.90625q1.5625 -0.390625 3.171875 1.28125q0 2.125 -0.09375 4.015625zm5.302475 -1.484375l6.125 -0.890625q0.96875 -0.140625 1.0 -1.25q0.046875 -1.40625 -1.0625 -2.5q-1.1875 -1.15625 -3.296875 -1.03125q-2.015625 0.125 -3.296875 1.953125q-1.015625 1.46875 -1.015625 3.34375q0 2.28125 1.625 3.609375q1.296875 1.078125 3.03125 1.09375q2.375 0.015625 3.828125 -1.28125q0.828125 -0.734375 0.40625 -1.578125q-0.1875 -0.359375 -0.625 -0.265625q-0.390625 0.078125 -1.0 0.75q-0.640625 0.71875 -2.5 0.734375q-1.265625 0.015625 -2.296875 -0.890625q-0.875 -0.78125 -0.921875 -1.796875zm0.203125 -1.515625q0.25 -0.890625 0.65625 -1.390625q0.90625 -1.125 2.171875 -1.125q0.890625 -0.015625 1.703125 0.5q0.6875 0.453125 0.828125 1.234375l-5.359375 0.78125zm8.752106 -3.90625q-0.734375 0.59375 0.015625 1.421875l3.1875 3.46875l-2.9375 3.125q-0.90625 0.96875 -0.1875 1.59375q0.65625 0.5625 1.515625 -0.40625l2.703125 -3.015625l2.703125 3.015625q0.875 0.96875 1.515625 0.40625q0.71875 -0.625 -0.1875 -1.59375l-2.875 -3.140625l3.125 -3.453125q0.765625 -0.828125 0.015625 -1.421875q-0.6875 -0.546875 -1.5 0.390625l-2.796875 3.21875l-2.78125 -3.21875q-0.828125 -0.9375 -1.515625 -0.390625zm20.97902 -3.453125q0.015625 -0.8125 -0.5 -0.921875q-0.609375 -0.15625 -1.34375 0.546875l-1.8125 1.703125q-0.65625 0.609375 -0.171875 1.25q0.578125 0.796875 1.453125 -0.03125l0.671875 -0.640625l-0.015625 9.671875q-0.6875 0 -1.359375 0q-0.90625 0 -0.90625 0.90625q0 0.765625 0.8125 0.765625l4.140625 0q0.90625 0 0.90625 -0.8125q0 -0.859375 -0.9375 -0.859375q-0.484375 0 -1.0 0q0.0625 -11.578125 0.0625 -11.578125z" fill-rule="nonzero"/><path fill="#000000" d="m46.278748 184.84319q-1.8125 -1.21875 -2.296875 -5.25q-0.296875 -2.4375 0.203125 -4.8125q0.578125 -2.78125 1.921875 -4.03125q1.671875 -1.5 0.96875 -2.234375q-0.640625 -0.671875 -2.09375 0.859375q-1.046875 1.125 -1.796875 2.890625q-1.0625 2.4375 -1.15625 4.890625q-0.09375 2.84375 0.765625 5.53125q0.609375 1.890625 2.0625 3.203125q1.453125 1.34375 2.125 0.828125q0.96875 -0.75 -0.703125 -1.875zm3.6289978 3.25q0.828125 0 0.84375 -0.859375l0.109375 -4.859375q0.015625 0.015625 0.03125 0.03125q0.609375 0.609375 2.15625 0.484375q1.78125 -0.125 2.984375 -1.625q1.0625 -1.328125 1.0625 -3.78125q0 -1.703125 -1.1875 -2.96875q-1.1875 -1.296875 -2.8125 -1.296875q-1.671875 -0.015625 -2.140625 0.328125q-0.21875 -0.515625 -0.703125 -0.515625q-0.96875 -0.03125 -0.984375 0.96875l-0.296875 13.1875q-0.015625 0.90625 0.9375 0.90625zm1.109375 -12.5625q0.765625 -0.734375 2.0 -0.5625q1.171875 0.15625 1.765625 0.90625q0.703125 0.859375 0.6875 2.046875q-0.015625 1.25 -0.609375 2.125q-0.6875 1.015625 -2.046875 1.109375q-1.015625 0.078125 -1.90625 -0.90625l0.109375 -4.71875zm9.084274 -2.609375q-0.84375 0 -0.859375 0.84375l-0.203125 8.53125q-0.03125 0.96875 0.78125 0.984375q0.953125 0.015625 0.984375 -0.96875l0.15625 -5.984375q0.859375 -0.84375 1.890625 -1.046875q1.046875 -0.203125 1.875 0.34375q1.046875 0.71875 1.453125 -0.453125q0.234375 -0.734375 -1.140625 -1.421875q-0.78125 -0.390625 -2.0 -0.375q-0.984375 0.015625 -2.015625 0.78125q0 -0.171875 0 -0.328125q0 -0.90625 -0.921875 -0.90625zm9.04187 6.03125l6.125 -0.890625q0.96875 -0.140625 1.0 -1.25q0.046875 -1.40625 -1.0625 -2.5q-1.1875 -1.15625 -3.296875 -1.03125q-2.015625 0.125 -3.296875 1.953125q-1.015625 1.46875 -1.015625 3.34375q0 2.28125 1.625 3.609375q1.296875 1.078125 3.03125 1.09375q2.375 0.015625 3.828125 -1.28125q0.828125 -0.734375 0.40625 -1.578125q-0.1875 -0.359375 -0.625 -0.265625q-0.390625 0.078125 -1.0 0.75q-0.640625 0.71875 -2.5 0.734375q-1.265625 0.015625 -2.296875 -0.890625q-0.875 -0.78125 -0.921875 -1.796875zm0.203125 -1.515625q0.25 -0.890625 0.65625 -1.390625q0.90625 -1.125 2.171875 -1.125q0.890625 -0.015625 1.703125 0.5q0.6875 0.453125 0.828125 1.234375l-5.359375 0.78125zm8.736481 -4.078125q-0.765625 0.328125 -0.328125 1.484375l2.859375 7.46875q0.40625 0.984375 1.109375 0.984375q0.6875 0 1.078125 -0.984375l2.859375 -7.46875q0.4375 -1.15625 -0.328125 -1.484375q-0.90625 -0.375 -1.328125 0.78125l-2.296875 6.375l-2.296875 -6.375q-0.421875 -1.15625 -1.328125 -0.78125zm10.776184 0q-0.921875 -0.03125 -0.953125 1.1875l-0.15625 7.640625q-0.015625 1.15625 0.953125 1.15625q0.859375 0 0.875 -1.234375l0.125 -7.578125q0.015625 -1.15625 -0.84375 -1.171875zm0.0625 -4.140625q-0.3125 0 -0.5625 0.171875q-0.234375 0.15625 -0.390625 0.421875q-0.15625 0.25 -0.15625 0.546875q0 0.3125 0.15625 0.578125q0.15625 0.25 0.40625 0.390625q0.234375 0.15625 0.515625 0.15625q0.03125 0 0.0625 0q0.28125 0.015625 0.5 -0.109375q0.21875 -0.09375 0.40625 -0.328125q0.203125 -0.265625 0.234375 -0.59375q0 -0.046875 0 -0.09375q0 -0.28125 -0.140625 -0.53125q-0.140625 -0.296875 -0.421875 -0.453125q-0.265625 -0.15625 -0.578125 -0.15625q-0.015625 0 -0.03125 0zm7.6194763 5.96875q1.921875 -0.03125 1.90625 3.21875q-0.015625 1.703125 -0.734375 2.484375q-0.671875 0.71875 -1.671875 0.71875q-0.875 0 -1.546875 -0.71875q-0.65625 -0.71875 -0.65625 -2.140625q0 -1.484375 0.90625 -2.734375q0.59375 -0.796875 1.796875 -0.828125zm-0.078125 -1.859375q-1.984375 -0.015625 -3.1875 1.578125q-1.21875 1.59375 -1.21875 3.671875q0 2.203125 1.015625 3.40625q1.125 1.34375 2.75 1.359375q2.25 0.015625 3.34375 -1.375q0.96875 -1.171875 0.984375 -3.390625q0 -5.21875 -3.6875 -5.25zm12.482803 10.25q0.828125 0 0.84375 -0.84375l0.21875 -8.5q0.015625 -0.984375 -0.796875 -1.015625q-0.96875 0 -1.0 0.984375l-0.109375 4.609375q-0.046875 1.484375 -1.234375 2.09375q-1.296875 0.65625 -2.25 0.015625q-0.6875 -0.484375 -0.671875 -2.6875l0.015625 -3.984375q0.015625 -1.09375 -0.953125 -1.0q-0.859375 0.078125 -0.875 1.171875l-0.03125 4.46875q-0.03125 4.140625 3.390625 4.15625q1.546875 0 2.546875 -0.90625l-0.015625 0.546875q-0.015625 0.890625 0.921875 0.890625zm5.4516144 -2.0q-0.84375 -0.046875 -1.640625 -0.59375q-0.65625 -0.453125 -1.171875 -0.109375q-0.421875 0.265625 -0.390625 0.875q0.046875 0.546875 0.6875 0.90625q0.703125 0.40625 1.203125 0.546875q0.796875 0.21875 2.078125 0.21875q1.5 -0.015625 2.421875 -0.625q1.125 -0.75 1.265625 -1.921875q0.140625 -1.15625 -0.78125 -2.265625q-0.390625 -0.46875 -1.390625 -0.9375q-0.734375 -0.34375 -1.609375 -0.4375q-1.09375 -0.125 -1.265625 -0.609375q-0.171875 -0.5625 0.265625 -1.078125q0.53125 -0.625 1.625 -0.6875q1.03125 -0.03125 1.5625 0.484375q1.0625 1.015625 1.578125 0.59375q0.421875 -0.34375 0.34375 -0.890625q-0.140625 -0.828125 -1.4375 -1.46875q-1.0 -0.484375 -2.328125 -0.375q-1.1875 0.109375 -2.09375 0.765625q-0.765625 0.546875 -1.15625 1.59375q-0.359375 0.953125 -0.140625 1.859375q0.28125 1.171875 2.15625 1.4375q1.796875 0.25 2.3125 0.796875q0.765625 0.828125 0.390625 1.390625q-0.453125 0.671875 -2.484375 0.53125zm7.6134186 3.265625q-1.671875 1.125 -0.703125 1.875q0.671875 0.515625 2.125 -0.828125q1.453125 -1.3125 2.0625 -3.203125q0.859375 -2.6875 0.765625 -5.53125q-0.09375 -2.453125 -1.15625 -4.890625q-0.734375 -1.765625 -1.796875 -2.890625q-1.453125 -1.53125 -2.09375 -0.859375q-0.6875 0.734375 0.96875 2.234375q1.34375 1.25 1.921875 4.03125q0.5 2.375 0.203125 4.8125q-0.484375 4.03125 -2.296875 5.25z" fill-rule="nonzero"/><path fill="#000000" d="m43.794373 218.1588q-0.921875 -0.03125 -0.953125 1.1875l-0.15625 7.640625q-0.015625 1.15625 0.953125 1.15625q0.859375 0 0.875 -1.234375l0.125 -7.578125q0.015625 -1.15625 -0.84375 -1.171875zm0.0625 -4.140625q-0.3125 0 -0.5625 0.171875q-0.234375 0.15625 -0.390625 0.421875q-0.15625 0.25 -0.15625 0.546875q0 0.3125 0.15625 0.578125q0.15625 0.25 0.40625 0.390625q0.234375 0.15625 0.515625 0.15625q0.03125 0 0.0625 0q0.28125 0.015625 0.5 -0.109375q0.21875 -0.09375 0.40625 -0.328125q0.203125 -0.265625 0.234375 -0.59375q0 -0.046875 0 -0.09375q0 -0.28125 -0.140625 -0.53125q-0.140625 -0.296875 -0.421875 -0.453125q-0.265625 -0.15625 -0.578125 -0.15625q-0.015625 0 -0.03125 0zm4.6663513 3.703125q-0.84375 0 -0.859375 0.84375l-0.203125 8.484375q-0.03125 0.96875 0.78125 0.984375q0.984375 0.015625 1.0 -0.96875l0.15625 -5.515625q1.4375 -1.453125 2.703125 -1.359375q1.515625 0.109375 1.453125 2.625l-0.109375 4.3125q-0.03125 1.109375 0.953125 1.015625q0.859375 -0.078125 0.875 -1.171875l0.078125 -4.5625q0.0625 -4.140625 -3.375 -4.140625q-1.546875 0 -2.546875 0.890625q0.015625 -0.265625 0.015625 -0.53125q0.03125 -0.90625 -0.921875 -0.90625zm16.60913 -4.703125q-0.8125 0.03125 -0.828125 0.859375l-0.140625 5.25q-0.34375 -0.25 -0.78125 -0.5q-0.8125 -0.453125 -1.90625 -0.453125q-2.046875 0 -3.3125 1.546875q-1.34375 1.65625 -1.25 4.078125q0.0625 1.796875 1.421875 3.140625q1.203125 1.203125 2.78125 1.203125q1.53125 0.015625 2.875 -0.84375q0.0625 0.765625 0.796875 0.78125q0.984375 0.015625 1.0 -0.96875l0.28125 -13.1875q0.015625 -0.90625 -0.9375 -0.90625zm-1.109375 12.21875q-1.625 1.28125 -2.90625 1.125q-1.203125 -0.125 -1.828125 -0.953125q-0.78125 -1.0 -0.765625 -2.046875q0.046875 -1.609375 0.765625 -2.515625q0.515625 -0.625 1.65625 -0.90625q1.5625 -0.390625 3.171875 1.28125q0 2.125 -0.09375 4.015625zm5.302475 -1.484375l6.125 -0.890625q0.96875 -0.140625 1.0 -1.25q0.046875 -1.40625 -1.0625 -2.5q-1.1875 -1.15625 -3.296875 -1.03125q-2.015625 0.125 -3.296875 1.953125q-1.015625 1.46875 -1.015625 3.34375q0 2.28125 1.625 3.609375q1.296875 1.078125 3.03125 1.09375q2.375 0.015625 3.828125 -1.28125q0.828125 -0.734375 0.40625 -1.578125q-0.1875 -0.359375 -0.625 -0.265625q-0.390625 0.078125 -1.0 0.75q-0.640625 0.71875 -2.5 0.734375q-1.265625 0.015625 -2.296875 -0.890625q-0.875 -0.78125 -0.921875 -1.796875zm0.203125 -1.515625q0.25 -0.890625 0.65625 -1.390625q0.90625 -1.125 2.171875 -1.125q0.890625 -0.015625 1.703125 0.5q0.6875 0.453125 0.828125 1.234375l-5.359375 0.78125zm8.752106 -3.90625q-0.734375 0.59375 0.015625 1.421875l3.1875 3.46875l-2.9375 3.125q-0.90625 0.96875 -0.1875 1.59375q0.65625 0.5625 1.515625 -0.40625l2.703125 -3.015625l2.703125 3.015625q0.875 0.96875 1.515625 0.40625q0.71875 -0.625 -0.1875 -1.59375l-2.875 -3.140625l3.125 -3.453125q0.765625 -0.828125 0.015625 -1.421875q-0.6875 -0.546875 -1.5 0.390625l-2.796875 3.21875l-2.78125 -3.21875q-0.828125 -0.9375 -1.515625 -0.390625zm16.994644 8.546875q-0.046875 1.265625 0.890625 1.265625l6.671875 0q0.953125 0 0.953125 -0.875q0.015625 -0.828125 -0.953125 -0.828125q-2.890625 -0.015625 -5.78125 -0.03125q0.0625 -0.875 1.09375 -2.390625q1.09375 -1.59375 3.171875 -2.546875q2.28125 -1.03125 2.34375 -3.875q0.046875 -2.109375 -1.734375 -3.21875q-0.828125 -0.515625 -2.21875 -0.515625q-1.484375 0 -2.453125 0.578125q-0.75 0.4375 -1.796875 1.71875q-0.5 0.625 0.140625 1.125q0.6875 0.59375 1.4375 -0.265625q1.015625 -1.1875 1.671875 -1.40625q1.109375 -0.359375 2.125 0.15625q1.0625 0.546875 1.03125 1.671875q-0.046875 2.0 -1.609375 2.75q-2.40625 1.171875 -3.640625 2.921875q-1.296875 1.921875 -1.34375 3.765625z" fill-rule="nonzero"/><path fill="#000000" d="m46.278748 252.04317q-1.8125 -1.21875 -2.296875 -5.25q-0.296875 -2.4375 0.203125 -4.8125q0.578125 -2.78125 1.921875 -4.03125q1.671875 -1.5 0.96875 -2.234375q-0.640625 -0.671875 -2.09375 0.859375q-1.046875 1.125 -1.796875 2.890625q-1.0625 2.4375 -1.15625 4.890625q-0.09375 2.84375 0.765625 5.53125q0.609375 1.890625 2.0625 3.203125q1.453125 1.34375 2.125 0.828125q0.96875 -0.75 -0.703125 -1.875zm3.9727478 -3.375q-0.3125 0 -0.5625 0.171875q-0.234375 0.15625 -0.390625 0.421875q-0.15625 0.25 -0.15625 0.546875q0 0.3125 0.15625 0.578125q0.15625 0.25 0.40625 0.390625q0.234375 0.15625 0.515625 0.15625q0.03125 0 0.0625 0q0.28125 0.015625 0.5 -0.109375q0.21875 -0.09375 0.40625 -0.328125q0.203125 -0.265625 0.234375 -0.59375q0 -0.046875 0 -0.09375q0 -0.28125 -0.140625 -0.53125q-0.140625 -0.296875 -0.421875 -0.453125q-0.265625 -0.15625 -0.578125 -0.15625q-0.015625 0 -0.03125 0zm4.6458435 0q-0.3125 0 -0.5625 0.171875q-0.234375 0.15625 -0.390625 0.421875q-0.15625 0.25 -0.15625 0.546875q0 0.3125 0.15625 0.578125q0.15625 0.25 0.40625 0.390625q0.234375 0.15625 0.515625 0.15625q0.03125 0 0.0625 0q0.28125 0.015625 0.5 -0.109375q0.21875 -0.09375 0.40625 -0.328125q0.203125 -0.265625 0.234375 -0.59375q0 -0.046875 0 -0.09375q0 -0.28125 -0.140625 -0.53125q-0.140625 -0.296875 -0.421875 -0.453125q-0.265625 -0.15625 -0.578125 -0.15625q-0.015625 0 -0.03125 0zm4.6458435 0q-0.3125 0 -0.5625 0.171875q-0.234375 0.15625 -0.390625 0.421875q-0.15625 0.25 -0.15625 0.546875q0 0.3125 0.15625 0.578125q0.15625 0.25 0.40625 0.390625q0.234375 0.15625 0.515625 0.15625q0.03125 0 0.0625 0q0.28125 0.015625 0.5 -0.109375q0.21875 -0.09375 0.40625 -0.328125q0.203125 -0.265625 0.234375 -0.59375q0 -0.046875 0 -0.09375q0 -0.28125 -0.140625 -0.53125q-0.140625 -0.296875 -0.421875 -0.453125q-0.265625 -0.15625 -0.578125 -0.15625q-0.015625 0 -0.03125 0zm4.3489685 3.375q-1.671875 1.125 -0.703125 1.875q0.671875 0.515625 2.125 -0.828125q1.453125 -1.3125 2.0625 -3.203125q0.859375 -2.6875 0.765625 -5.53125q-0.09375 -2.453125 -1.15625 -4.890625q-0.734375 -1.765625 -1.796875 -2.890625q-1.453125 -1.53125 -2.09375 -0.859375q-0.6875 0.734375 0.96875 2.234375q1.34375 1.25 1.921875 4.03125q0.5 2.375 0.203125 4.8125q-0.484375 4.03125 -2.296875 5.25z" fill-rule="nonzero"/><path fill="#000000" fill-opacity="0.0" d="m289.28873 98.37139l149.07086 0l0 64.62992l-149.07086 0z" fill-rule="evenodd"/><path fill="#000000" d="m300.30435 111.463264q-0.828125 0 -0.84375 0.796875l-0.3125 12.484375q-0.015625 0.921875 0.796875 0.953125q0.984375 0.015625 1.0 -0.9375l0.109375 -4.875q0.234375 0.03125 0.5 0.015625q3.828125 -0.21875 4.8125 -1.421875q1.65625 -2.09375 0.765625 -4.40625q-0.890625 -2.296875 -4.078125 -2.609375q-0.953125 -0.09375 -2.375 0.03125q-0.171875 -0.03125 -0.375 -0.03125zm0.90625 1.828125q0.734375 -0.078125 1.265625 -0.09375q2.0625 -0.015625 2.8125 1.375q0.609375 1.1875 -0.171875 2.546875q-0.796875 1.390625 -4.015625 1.046875l0.109375 -4.875zm9.070099 2.03125q-0.84375 0 -0.859375 0.84375l-0.203125 8.53125q-0.03125 0.96875 0.78125 0.984375q0.953125 0.015625 0.984375 -0.96875l0.15625 -5.984375q0.859375 -0.84375 1.890625 -1.046875q1.046875 -0.203125 1.875 0.34375q1.046875 0.71875 1.453125 -0.453125q0.234375 -0.734375 -1.140625 -1.421875q-0.78125 -0.390625 -2.0 -0.375q-0.984375 0.015625 -2.015625 0.78125q0 -0.171875 0 -0.328125q0 -0.90625 -0.921875 -0.90625zm9.04187 6.03125l6.125 -0.890625q0.96875 -0.140625 1.0 -1.25q0.046875 -1.40625 -1.0625 -2.5q-1.1875 -1.15625 -3.296875 -1.03125q-2.015625 0.125 -3.296875 1.953125q-1.015625 1.46875 -1.015625 3.34375q0 2.28125 1.625 3.609375q1.296875 1.078125 3.03125 1.09375q2.375 0.015625 3.828125 -1.28125q0.828125 -0.734375 0.40625 -1.578125q-0.1875 -0.359375 -0.625 -0.265625q-0.390625 0.078125 -1.0 0.75q-0.640625 0.71875 -2.5 0.734375q-1.265625 0.015625 -2.296875 -0.890625q-0.875 -0.78125 -0.921875 -1.796875zm0.203125 -1.515625q0.25 -0.890625 0.65625 -1.390625q0.90625 -1.125 2.171875 -1.125q0.890625 -0.015625 1.703125 0.5q0.6875 0.453125 0.828125 1.234375l-5.359375 0.78125zm8.736481 -4.078125q-0.765625 0.328125 -0.328125 1.484375l2.859375 7.46875q0.40625 0.984375 1.109375 0.984375q0.6875 0 1.078125 -0.984375l2.859375 -7.46875q0.4375 -1.15625 -0.328125 -1.484375q-0.90625 -0.375 -1.328125 0.78125l-2.296875 6.375l-2.296875 -6.375q-0.421875 -1.15625 -1.328125 -0.78125zm10.776184 0q-0.921875 -0.03125 -0.953125 1.1875l-0.15625 7.640625q-0.015625 1.15625 0.953125 1.15625q0.859375 0 0.875 -1.234375l0.125 -7.578125q0.015625 -1.15625 -0.84375 -1.171875zm0.0625 -4.140625q-0.3125 0 -0.5625 0.171875q-0.234375 0.15625 -0.390625 0.421875q-0.15625 0.25 -0.15625 0.546875q0 0.3125 0.15625 0.578125q0.15625 0.25 0.40625 0.390625q0.234375 0.15625 0.515625 0.15625q0.03125 0 0.0625 0q0.28125 0.015625 0.5 -0.109375q0.21875 -0.09375 0.40625 -0.328125q0.203125 -0.265625 0.234375 -0.59375q0 -0.046875 0 -0.09375q0 -0.28125 -0.140625 -0.53125q-0.140625 -0.296875 -0.421875 -0.453125q-0.265625 -0.15625 -0.578125 -0.15625q-0.015625 0 -0.03125 0zm7.6194763 5.96875q1.921875 -0.03125 1.90625 3.21875q-0.015625 1.703125 -0.734375 2.484375q-0.671875 0.71875 -1.671875 0.71875q-0.875 0 -1.546875 -0.71875q-0.65625 -0.71875 -0.65625 -2.140625q0 -1.484375 0.90625 -2.734375q0.59375 -0.796875 1.796875 -0.828125zm-0.078125 -1.859375q-1.984375 -0.015625 -3.1875 1.578125q-1.21875 1.59375 -1.21875 3.671875q0 2.203125 1.015625 3.40625q1.125 1.34375 2.75 1.359375q2.25 0.015625 3.34375 -1.375q0.96875 -1.171875 0.984375 -3.390625q0 -5.21875 -3.6875 -5.25zm12.482788 10.25q0.828125 0 0.84375 -0.84375l0.21875 -8.5q0.015625 -0.984375 -0.796875 -1.015625q-0.96875 0 -1.0 0.984375l-0.109375 4.609375q-0.046875 1.484375 -1.234375 2.09375q-1.296875 0.65625 -2.25 0.015625q-0.6875 -0.484375 -0.671875 -2.6875l0.015625 -3.984375q0.015625 -1.09375 -0.953125 -1.0q-0.859375 0.078125 -0.875 1.171875l-0.03125 4.46875q-0.03125 4.140625 3.390625 4.15625q1.546875 0 2.546875 -0.90625l-0.015625 0.546875q-0.015625 0.890625 0.921875 0.890625zm5.4516296 -2.0q-0.84375 -0.046875 -1.640625 -0.59375q-0.65625 -0.453125 -1.171875 -0.109375q-0.421875 0.265625 -0.390625 0.875q0.046875 0.546875 0.6875 0.90625q0.703125 0.40625 1.203125 0.546875q0.796875 0.21875 2.078125 0.21875q1.5 -0.015625 2.421875 -0.625q1.125 -0.75 1.265625 -1.921875q0.140625 -1.15625 -0.78125 -2.265625q-0.390625 -0.46875 -1.390625 -0.9375q-0.734375 -0.34375 -1.609375 -0.4375q-1.09375 -0.125 -1.265625 -0.609375q-0.171875 -0.5625 0.265625 -1.078125q0.53125 -0.625 1.625 -0.6875q1.03125 -0.03125 1.5625 0.484375q1.0625 1.015625 1.578125 0.59375q0.421875 -0.34375 0.34375 -0.890625q-0.140625 -0.828125 -1.4375 -1.46875q-1.0 -0.484375 -2.328125 -0.375q-1.1875 0.109375 -2.09375 0.765625q-0.765625 0.546875 -1.15625 1.59375q-0.359375 0.953125 -0.140625 1.859375q0.28125 1.171875 2.15625 1.4375q1.796875 0.25 2.3125 0.796875q0.765625 0.828125 0.390625 1.390625q-0.453125 0.671875 -2.484375 0.53125z" fill-rule="nonzero"/><path fill="#000000" d="m300.5856 134.01952q-1.234375 0 -1.234375 0.8125q0 0.953125 1.15625 0.953125q2.140625 0 4.296875 -0.015625l-0.28125 11.453125q-0.015625 0.90625 0.796875 0.921875q0.96875 0.015625 1.0 -0.90625l0.265625 -11.46875l3.84375 -0.015625q1.21875 0 1.203125 -0.828125q-0.03125 -0.90625 -1.203125 -0.90625l-9.84375 0zm13.164795 4.140625q-0.921875 -0.03125 -0.953125 1.1875l-0.15625 7.640625q-0.015625 1.15625 0.953125 1.15625q0.859375 0 0.875 -1.234375l0.125 -7.578125q0.015625 -1.15625 -0.84375 -1.171875zm0.0625 -4.140625q-0.3125 0 -0.5625 0.171875q-0.234375 0.15625 -0.390625 0.421875q-0.15625 0.25 -0.15625 0.546875q0 0.3125 0.15625 0.578125q0.15625 0.25 0.40625 0.390625q0.234375 0.15625 0.515625 0.15625q0.03125 0 0.0625 0q0.28125 0.015625 0.5 -0.109375q0.21875 -0.09375 0.40625 -0.328125q0.203125 -0.265625 0.234375 -0.59375q0 -0.046875 0 -0.09375q0 -0.28125 -0.140625 -0.53125q-0.140625 -0.296875 -0.421875 -0.453125q-0.265625 -0.15625 -0.578125 -0.15625q-0.015625 0 -0.03125 0zm4.4944763 3.703125q-0.828125 0 -0.859375 0.84375l-0.203125 8.453125q-0.03125 0.96875 0.796875 0.984375q0.9375 0.03125 0.96875 -0.96875l0.15625 -5.03125q0.5 -1.90625 2.0625 -1.84375q1.40625 0.046875 1.359375 2.640625l-0.09375 4.1875q-0.03125 1.078125 0.90625 1.0q0.84375 -0.0625 0.875 -1.171875l0.109375 -4.5625q0.015625 -0.53125 0.03125 -0.5625q0.609375 -1.5625 2.28125 -1.515625q1.4375 0.03125 1.390625 2.734375l-0.046875 4.203125q-0.015625 1.09375 0.96875 1.0q0.859375 -0.0625 0.875 -1.171875l0.0625 -4.53125q0.0625 -4.140625 -3.390625 -4.140625q-1.859375 -0.015625 -2.796875 1.328125q-0.65625 -1.359375 -2.546875 -1.328125q-1.171875 0 -1.984375 0.734375l0.015625 -0.375q0.015625 -0.90625 -0.9375 -0.90625zm14.743195 6.03125l6.125 -0.890625q0.96875 -0.140625 1.0 -1.25q0.046875 -1.40625 -1.0625 -2.5q-1.1875 -1.15625 -3.296875 -1.03125q-2.015625 0.125 -3.296875 1.953125q-1.015625 1.46875 -1.015625 3.34375q0 2.28125 1.625 3.609375q1.296875 1.078125 3.03125 1.09375q2.375 0.015625 3.828125 -1.28125q0.828125 -0.734375 0.40625 -1.578125q-0.1875 -0.359375 -0.625 -0.265625q-0.390625 0.078125 -1.0 0.75q-0.640625 0.71875 -2.5 0.734375q-1.265625 0.015625 -2.296875 -0.890625q-0.875 -0.78125 -0.921875 -1.796875zm0.203125 -1.515625q0.25 -0.890625 0.65625 -1.390625q0.90625 -1.125 2.171875 -1.125q0.890625 -0.015625 1.703125 0.5q0.6875 0.453125 0.828125 1.234375l-5.359375 0.78125zm11.236481 4.140625q-0.84375 -0.046875 -1.640625 -0.59375q-0.65625 -0.453125 -1.171875 -0.109375q-0.421875 0.265625 -0.390625 0.875q0.046875 0.546875 0.6875 0.90625q0.703125 0.40625 1.203125 0.546875q0.796875 0.21875 2.078125 0.21875q1.5 -0.015625 2.421875 -0.625q1.125 -0.75 1.265625 -1.921875q0.140625 -1.15625 -0.78125 -2.265625q-0.390625 -0.46875 -1.390625 -0.9375q-0.734375 -0.34375 -1.609375 -0.4375q-1.09375 -0.125 -1.265625 -0.609375q-0.171875 -0.5625 0.265625 -1.078125q0.53125 -0.625 1.625 -0.6875q1.03125 -0.03125 1.5625 0.484375q1.0625 1.015625 1.578125 0.59375q0.421875 -0.34375 0.34375 -0.890625q-0.140625 -0.828125 -1.4375 -1.46875q-1.0 -0.484375 -2.328125 -0.375q-1.1875 0.109375 -2.09375 0.765625q-0.765625 0.546875 -1.15625 1.59375q-0.359375 0.953125 -0.140625 1.859375q0.28125 1.171875 2.15625 1.4375q1.796875 0.25 2.3125 0.796875q0.765625 0.828125 0.390625 1.390625q-0.453125 0.671875 -2.484375 0.53125zm9.988434 -13.359375q-0.828125 0 -0.84375 0.859375l-0.09375 4.296875q-1.0625 0.015625 -2.109375 0.015625q-0.859375 0 -0.859375 0.921875q0 0.890625 0.78125 0.890625q1.0625 0 2.140625 0l-0.171875 7.09375q-0.015625 0.96875 0.8125 0.984375q0.984375 0.015625 0.984375 -0.96875l0.15625 -7.109375q0.984375 0 1.953125 0q1.0625 0 1.0625 -0.9375q0 -0.90625 -1.125 -0.90625l-1.84375 0.015625q0.0625 -1.921875 0.078125 -4.25q0 -0.90625 -0.921875 -0.90625zm6.6656494 10.734375l6.125 -0.890625q0.96875 -0.140625 1.0 -1.25q0.046875 -1.40625 -1.0625 -2.5q-1.1875 -1.15625 -3.296875 -1.03125q-2.015625 0.125 -3.296875 1.953125q-1.015625 1.46875 -1.015625 3.34375q0 2.28125 1.625 3.609375q1.296875 1.078125 3.03125 1.09375q2.375 0.015625 3.828125 -1.28125q0.828125 -0.734375 0.40625 -1.578125q-0.1875 -0.359375 -0.625 -0.265625q-0.390625 0.078125 -1.0 0.75q-0.640625 0.71875 -2.5 0.734375q-1.265625 0.015625 -2.296875 -0.890625q-0.875 -0.78125 -0.921875 -1.796875zm0.203125 -1.515625q0.25 -0.890625 0.65625 -1.390625q0.90625 -1.125 2.171875 -1.125q0.890625 -0.015625 1.703125 0.5q0.6875 0.453125 0.828125 1.234375l-5.359375 0.78125zm9.720856 10.65625q0.828125 0 0.84375 -0.859375l0.109375 -4.859375q0.015625 0.015625 0.03125 0.03125q0.609375 0.609375 2.15625 0.484375q1.78125 -0.125 2.984375 -1.625q1.0625 -1.328125 1.0625 -3.78125q0 -1.703125 -1.1875 -2.96875q-1.1875 -1.296875 -2.8125 -1.296875q-1.671875 -0.015625 -2.140625 0.328125q-0.21875 -0.515625 -0.703125 -0.515625q-0.96875 -0.03125 -0.984375 0.96875l-0.296875 13.1875q-0.015625 0.90625 0.9375 0.90625zm1.109375 -12.5625q0.765625 -0.734375 2.0 -0.5625q1.171875 0.15625 1.765625 0.90625q0.703125 0.859375 0.6875 2.046875q-0.015625 1.25 -0.609375 2.125q-0.6875 1.015625 -2.046875 1.109375q-1.015625 0.078125 -1.90625 -0.90625l0.109375 -4.71875z" fill-rule="nonzero"/><path fill="#000000" fill-opacity="0.0" d="m289.28873 174.46588l149.07086 0l0 64.62991l-149.07086 0z" fill-rule="evenodd"/><path fill="#000000" d="m300.5856 187.714q-1.234375 0 -1.234375 0.8125q0 0.953125 1.15625 0.953125q2.140625 0 4.296875 -0.015625l-0.28125 11.453125q-0.015625 0.90625 0.796875 0.921875q0.96875 0.015625 1.0 -0.90625l0.265625 -11.46875l3.84375 -0.015625q1.21875 0 1.203125 -0.828125q-0.03125 -0.90625 -1.203125 -0.90625l-9.84375 0zm13.164795 4.140625q-0.921875 -0.03125 -0.953125 1.1875l-0.15625 7.640625q-0.015625 1.15625 0.953125 1.15625q0.859375 0 0.875 -1.234375l0.125 -7.578125q0.015625 -1.15625 -0.84375 -1.171875zm0.0625 -4.140625q-0.3125 0 -0.5625 0.171875q-0.234375 0.15625 -0.390625 0.421875q-0.15625 0.25 -0.15625 0.546875q0 0.3125 0.15625 0.578125q0.15625 0.25 0.40625 0.390625q0.234375 0.15625 0.515625 0.15625q0.03125 0 0.0625 0q0.28125 0.015625 0.5 -0.109375q0.21875 -0.09375 0.40625 -0.328125q0.203125 -0.265625 0.234375 -0.59375q0 -0.046875 0 -0.09375q0 -0.28125 -0.140625 -0.53125q-0.140625 -0.296875 -0.421875 -0.453125q-0.265625 -0.15625 -0.578125 -0.15625q-0.015625 0 -0.03125 0zm4.4944763 3.703125q-0.828125 0 -0.859375 0.84375l-0.203125 8.453125q-0.03125 0.96875 0.796875 0.984375q0.9375 0.03125 0.96875 -0.96875l0.15625 -5.03125q0.5 -1.90625 2.0625 -1.84375q1.40625 0.046875 1.359375 2.640625l-0.09375 4.1875q-0.03125 1.078125 0.90625 1.0q0.84375 -0.0625 0.875 -1.171875l0.109375 -4.5625q0.015625 -0.53125 0.03125 -0.5625q0.609375 -1.5625 2.28125 -1.515625q1.4375 0.03125 1.390625 2.734375l-0.046875 4.203125q-0.015625 1.09375 0.96875 1.0q0.859375 -0.0625 0.875 -1.171875l0.0625 -4.53125q0.0625 -4.140625 -3.390625 -4.140625q-1.859375 -0.015625 -2.796875 1.328125q-0.65625 -1.359375 -2.546875 -1.328125q-1.171875 0 -1.984375 0.734375l0.015625 -0.375q0.015625 -0.90625 -0.9375 -0.90625zm14.743195 6.03125l6.125 -0.890625q0.96875 -0.140625 1.0 -1.25q0.046875 -1.40625 -1.0625 -2.5q-1.1875 -1.15625 -3.296875 -1.03125q-2.015625 0.125 -3.296875 1.953125q-1.015625 1.46875 -1.015625 3.34375q0 2.28125 1.625 3.609375q1.296875 1.078125 3.03125 1.09375q2.375 0.015625 3.828125 -1.28125q0.828125 -0.734375 0.40625 -1.578125q-0.1875 -0.359375 -0.625 -0.265625q-0.390625 0.078125 -1.0 0.75q-0.640625 0.71875 -2.5 0.734375q-1.265625 0.015625 -2.296875 -0.890625q-0.875 -0.78125 -0.921875 -1.796875zm0.203125 -1.515625q0.25 -0.890625 0.65625 -1.390625q0.90625 -1.125 2.171875 -1.125q0.890625 -0.015625 1.703125 0.5q0.6875 0.453125 0.828125 1.234375l-5.359375 0.78125zm11.236481 4.140625q-0.84375 -0.046875 -1.640625 -0.59375q-0.65625 -0.453125 -1.171875 -0.109375q-0.421875 0.265625 -0.390625 0.875q0.046875 0.546875 0.6875 0.90625q0.703125 0.40625 1.203125 0.546875q0.796875 0.21875 2.078125 0.21875q1.5 -0.015625 2.421875 -0.625q1.125 -0.75 1.265625 -1.921875q0.140625 -1.15625 -0.78125 -2.265625q-0.390625 -0.46875 -1.390625 -0.9375q-0.734375 -0.34375 -1.609375 -0.4375q-1.09375 -0.125 -1.265625 -0.609375q-0.171875 -0.5625 0.265625 -1.078125q0.53125 -0.625 1.625 -0.6875q1.03125 -0.03125 1.5625 0.484375q1.0625 1.015625 1.578125 0.59375q0.421875 -0.34375 0.34375 -0.890625q-0.140625 -0.828125 -1.4375 -1.46875q-1.0 -0.484375 -2.328125 -0.375q-1.1875 0.109375 -2.09375 0.765625q-0.765625 0.546875 -1.15625 1.59375q-0.359375 0.953125 -0.140625 1.859375q0.28125 1.171875 2.15625 1.4375q1.796875 0.25 2.3125 0.796875q0.765625 0.828125 0.390625 1.390625q-0.453125 0.671875 -2.484375 0.53125zm9.988434 -13.359375q-0.828125 0 -0.84375 0.859375l-0.09375 4.296875q-1.0625 0.015625 -2.109375 0.015625q-0.859375 0 -0.859375 0.921875q0 0.890625 0.78125 0.890625q1.0625 0 2.140625 0l-0.171875 7.09375q-0.015625 0.96875 0.8125 0.984375q0.984375 0.015625 0.984375 -0.96875l0.15625 -7.109375q0.984375 0 1.953125 0q1.0625 0 1.0625 -0.9375q0 -0.90625 -1.125 -0.90625l-1.84375 0.015625q0.0625 -1.921875 0.078125 -4.25q0 -0.90625 -0.921875 -0.90625zm6.6656494 10.734375l6.125 -0.890625q0.96875 -0.140625 1.0 -1.25q0.046875 -1.40625 -1.0625 -2.5q-1.1875 -1.15625 -3.296875 -1.03125q-2.015625 0.125 -3.296875 1.953125q-1.015625 1.46875 -1.015625 3.34375q0 2.28125 1.625 3.609375q1.296875 1.078125 3.03125 1.09375q2.375 0.015625 3.828125 -1.28125q0.828125 -0.734375 0.40625 -1.578125q-0.1875 -0.359375 -0.625 -0.265625q-0.390625 0.078125 -1.0 0.75q-0.640625 0.71875 -2.5 0.734375q-1.265625 0.015625 -2.296875 -0.890625q-0.875 -0.78125 -0.921875 -1.796875zm0.203125 -1.515625q0.25 -0.890625 0.65625 -1.390625q0.90625 -1.125 2.171875 -1.125q0.890625 -0.015625 1.703125 0.5q0.6875 0.453125 0.828125 1.234375l-5.359375 0.78125zm9.720856 10.65625q0.828125 0 0.84375 -0.859375l0.109375 -4.859375q0.015625 0.015625 0.03125 0.03125q0.609375 0.609375 2.15625 0.484375q1.78125 -0.125 2.984375 -1.625q1.0625 -1.328125 1.0625 -3.78125q0 -1.703125 -1.1875 -2.96875q-1.1875 -1.296875 -2.8125 -1.296875q-1.671875 -0.015625 -2.140625 0.328125q-0.21875 -0.515625 -0.703125 -0.515625q-0.96875 -0.03125 -0.984375 0.96875l-0.296875 13.1875q-0.015625 0.90625 0.9375 0.90625zm1.109375 -12.5625q0.765625 -0.734375 2.0 -0.5625q1.171875 0.15625 1.765625 0.90625q0.703125 0.859375 0.6875 2.046875q-0.015625 1.25 -0.609375 2.125q-0.6875 1.015625 -2.046875 1.109375q-1.015625 0.078125 -1.90625 -0.90625l0.109375 -4.71875z" fill-rule="nonzero"/><path fill="#000000" d="m300.69498 209.114q-0.828125 0 -0.84375 0.859375l-0.3125 13.21875q-0.015625 0.96875 0.8125 0.984375q0.90625 0.015625 0.984375 -0.84375q1.375 0.921875 2.96875 0.90625q1.546875 0 2.78125 -1.203125q1.328125 -1.296875 1.421875 -3.140625q0.140625 -2.453125 -1.25 -4.078125q-1.34375 -1.546875 -3.3125 -1.546875q-1.09375 0 -1.90625 0.453125q-0.28125 0.15625 -0.515625 0.3125l0.09375 -5.015625q0.03125 -0.90625 -0.921875 -0.90625zm3.609375 13.34375q-1.171875 0.15625 -2.921875 -1.140625l0.078125 -4.171875q1.515625 -1.46875 3.015625 -1.109375q0.96875 0.234375 1.625 0.96875q0.828125 0.890625 0.78125 2.453125q-0.015625 1.0625 -0.75 2.046875q-0.609375 0.796875 -1.828125 0.953125zm7.4117737 -2.609375l6.125 -0.890625q0.96875 -0.140625 1.0 -1.25q0.046875 -1.40625 -1.0625 -2.5q-1.1875 -1.15625 -3.296875 -1.03125q-2.015625 0.125 -3.296875 1.953125q-1.015625 1.46875 -1.015625 3.34375q0 2.28125 1.625 3.609375q1.296875 1.078125 3.03125 1.09375q2.375 0.015625 3.828125 -1.28125q0.828125 -0.734375 0.40625 -1.578125q-0.1875 -0.359375 -0.625 -0.265625q-0.390625 0.078125 -1.0 0.75q-0.640625 0.71875 -2.5 0.734375q-1.265625 0.015625 -2.296875 -0.890625q-0.875 -0.78125 -0.921875 -1.796875zm0.203125 -1.515625q0.25 -0.890625 0.65625 -1.390625q0.90625 -1.125 2.171875 -1.125q0.890625 -0.015625 1.703125 0.5q0.6875 0.453125 0.828125 1.234375l-5.359375 0.78125zm9.533356 -4.0625q-1.078125 0 -1.09375 0.453125q0 0.4375 0 0.890625q0 0.453125 0.984375 0.453125l1.484375 0l-0.125 7.203125q-0.015625 0.984375 0.796875 1.0q1.0 0.015625 1.0 -0.96875l0.09375 -7.234375l2.25 0q1.203125 0 1.140625 -0.984375q-0.046875 -0.8125 -1.265625 -0.8125l-2.078125 0q-0.015625 -1.15625 0.234375 -2.015625q0.421875 -1.46875 2.109375 -1.296875q1.09375 0.09375 1.25 -0.78125q0.1875 -1.015625 -1.765625 -0.953125q-1.96875 0.0625 -2.65625 1.078125q-0.90625 1.265625 -0.953125 3.96875l-1.40625 0zm12.842377 1.8125q1.921875 -0.03125 1.90625 3.21875q-0.015625 1.703125 -0.734375 2.484375q-0.671875 0.71875 -1.671875 0.71875q-0.875 0 -1.546875 -0.71875q-0.65625 -0.71875 -0.65625 -2.140625q0 -1.484375 0.90625 -2.734375q0.59375 -0.796875 1.796875 -0.828125zm-0.078125 -1.859375q-1.984375 -0.015625 -3.1875 1.578125q-1.21875 1.59375 -1.21875 3.671875q0 2.203125 1.015625 3.40625q1.125 1.34375 2.75 1.359375q2.25 0.015625 3.34375 -1.375q0.96875 -1.171875 0.984375 -3.390625q0 -5.21875 -3.6875 -5.25zm6.935913 -0.40625q-0.84375 0 -0.859375 0.84375l-0.203125 8.53125q-0.03125 0.96875 0.78125 0.984375q0.953125 0.015625 0.984375 -0.96875l0.15625 -5.984375q0.859375 -0.84375 1.890625 -1.046875q1.046875 -0.203125 1.875 0.34375q1.046875 0.71875 1.453125 -0.453125q0.234375 -0.734375 -1.140625 -1.421875q-0.78125 -0.390625 -2.0 -0.375q-0.984375 0.015625 -2.015625 0.78125q0 -0.171875 0 -0.328125q0 -0.90625 -0.921875 -0.90625zm9.04187 6.03125l6.125 -0.890625q0.96875 -0.140625 1.0 -1.25q0.046875 -1.40625 -1.0625 -2.5q-1.1875 -1.15625 -3.296875 -1.03125q-2.015625 0.125 -3.296875 1.953125q-1.015625 1.46875 -1.015625 3.34375q0 2.28125 1.625 3.609375q1.296875 1.078125 3.03125 1.09375q2.375 0.015625 3.828125 -1.28125q0.828125 -0.734375 0.40625 -1.578125q-0.1875 -0.359375 -0.625 -0.265625q-0.390625 0.078125 -1.0 0.75q-0.640625 0.71875 -2.5 0.734375q-1.265625 0.015625 -2.296875 -0.890625q-0.875 -0.78125 -0.921875 -1.796875zm0.203125 -1.515625q0.25 -0.890625 0.65625 -1.390625q0.90625 -1.125 2.171875 -1.125q0.890625 -0.015625 1.703125 0.5q0.6875 0.453125 0.828125 1.234375l-5.359375 0.78125zm17.717743 -9.21875q-0.828125 0 -0.84375 0.859375l-0.09375 4.296875q-1.0625 0.015625 -2.109375 0.015625q-0.859375 0 -0.859375 0.921875q0 0.890625 0.78125 0.890625q1.0625 0 2.140625 0l-0.171875 7.09375q-0.015625 0.96875 0.8125 0.984375q0.984375 0.015625 0.984375 -0.96875l0.15625 -7.109375q0.984375 0 1.953125 0q1.0625 0 1.0625 -0.9375q0 -0.90625 -1.125 -0.90625l-1.84375 0.015625q0.0625 -1.921875 0.078125 -4.25q0 -0.90625 -0.921875 -0.90625zm6.806305 0q-0.84375 0.015625 -0.859375 0.859375l-0.296875 13.21875q-0.015625 0.96875 0.78125 0.984375q0.96875 0.015625 1.015625 -0.96875l0.1875 -5.265625q1.421875 -1.703125 3.109375 -1.546875q1.484375 0.109375 1.453125 2.53125l-0.015625 4.375q-0.015625 1.078125 0.96875 1.0q0.859375 -0.0625 0.859375 -1.171875l0.046875 -4.625q0.03125 -4.140625 -3.375 -4.140625q-1.90625 0 -3.046875 1.046875l0.09375 -5.390625q0.015625 -0.90625 -0.921875 -0.90625zm12.87027 15.1875q0.84375 -0.015625 2.734375 -0.96875q0.171875 1.203125 1.3125 0.96875q1.0 -0.203125 0.21875 -1.53125q-0.53125 -0.921875 -0.484375 -3.109375q0.046875 -2.734375 0.25 -3.875q0.21875 -1.171875 -0.875 -1.40625q-0.5625 -0.125 -0.828125 0.09375q-2.390625 -0.75 -4.578125 1.046875q-1.890625 1.546875 -1.875 4.40625q0.03125 4.375 4.125 4.375zm1.046875 -1.84375q-0.6875 0.265625 -1.484375 0.203125q-1.875 -0.125 -1.90625 -2.90625q0.078125 -2.140625 1.703125 -3.3125q0.40625 -0.3125 1.078125 -0.46875q0.96875 -0.234375 1.84375 0.3125q-0.421875 1.484375 -0.09375 5.390625q-0.8125 0.671875 -1.140625 0.78125zm8.390503 -13.34375q-0.828125 0 -0.84375 0.859375l-0.09375 4.296875q-1.0625 0.015625 -2.109375 0.015625q-0.859375 0 -0.859375 0.921875q0 0.890625 0.78125 0.890625q1.0625 0 2.140625 0l-0.171875 7.09375q-0.015625 0.96875 0.8125 0.984375q0.984375 0.015625 0.984375 -0.96875l0.15625 -7.109375q0.984375 0 1.953125 0q1.0625 0 1.0625 -0.9375q0 -0.90625 -1.125 -0.90625l-1.84375 0.015625q0.0625 -1.921875 0.078125 -4.25q0 -0.90625 -0.921875 -0.90625z" fill-rule="nonzero"/><path fill="#000000" fill-opacity="0.0" d="m246.97101 162.99974c14.499451 0 32.322876 -10.343445 35.845154 -24.098007c4.263977 -16.650948 -14.932068 -40.529022 -32.48474 -40.529022" fill-rule="evenodd"/><path stroke="#000000" stroke-width="2.0" stroke-linejoin="round" stroke-linecap="butt" d="m246.97101 162.99974c14.499451 0 32.322876 -10.343445 35.845154 -24.098007c2.1319885 -8.32547 -1.6010132 -18.457726 -8.061127 -26.508614c-3.2300415 -4.0254364 -7.141876 -7.530548 -11.343201 -10.029282c-1.050354 -0.6246872 -2.1187744 -1.1864777 -3.1991882 -1.6777725c-0.54019165 -0.24564362 -1.083374 -0.47367096 -1.6288147 -0.6831207c-0.27267456 -0.10473633 -0.5459595 -0.20481873 -0.81967163 -0.30014038c-0.13687134 -0.047660828 -0.27386475 -0.09412384 -0.4109497 -0.13938904l-0.25775146 -0.08277893" fill-rule="evenodd"/><path fill="#000000" stroke="#000000" stroke-width="2.0" stroke-linecap="butt" d="m257.09546 99.48063l2.5831604 -1.8560257l-6.461838 1.2207184l5.734726 3.21846z" fill-rule="evenodd"/><path fill="#000000" fill-opacity="0.0" d="m246.97101 239.09422c14.499451 0 32.322876 -10.34343 35.845154 -24.097992c4.263977 -16.650955 -14.932068 -40.529022 -32.48474 -40.529022" fill-rule="evenodd"/><path stroke="#000000" stroke-width="2.0" stroke-linejoin="round" stroke-linecap="butt" d="m246.97101 239.09422c14.499451 0 32.322876 -10.343445 35.845154 -24.097992c2.1319885 -8.325485 -1.6010132 -18.457748 -8.061127 -26.508636c-3.2300415 -4.0254517 -7.141876 -7.530533 -11.343201 -10.029282c-1.050354 -0.6246948 -2.1187744 -1.1864777 -3.1991882 -1.6777649c-0.54019165 -0.24565125 -1.083374 -0.47369385 -1.6288147 -0.6831207c-0.27267456 -0.10472107 -0.5459595 -0.20481873 -0.81967163 -0.30014038c-0.13687134 -0.0476532 -0.27386475 -0.09414673 -0.4109497 -0.13938904l-0.25775146 -0.08279419" fill-rule="evenodd"/><path fill="#000000" stroke="#000000" stroke-width="2.0" stroke-linecap="butt" d="m257.09546 175.5751l2.5831604 -1.8560181l-6.461838 1.2207184l5.734726 3.21846z" fill-rule="evenodd"/><path fill="#000000" fill-opacity="0.0" d="m198.55185 270.1496l231.62204 0l0 77.5748l-231.62204 0z" fill-rule="evenodd"/><path fill="#3c78d8" d="m209.23935 282.83774q-1.046875 0 -1.046875 0.734375q0 0.875 0.984375 0.875l1.84375 0l-0.21875 8.765625l-1.671875 0q-1.046875 0 -1.046875 0.734375q0 0.890625 0.984375 0.890625l5.71875 0q1.015625 0 1.0 -0.78125q-0.015625 -0.84375 -0.953125 -0.84375l-2.5 0l0.21875 -8.765625l2.34375 0q1.015625 0 1.0 -0.765625q-0.015625 -0.84375 -0.953125 -0.84375l-5.703125 0zm8.8671875 3.125q-0.71875 0 -0.734375 0.71875l-0.171875 7.25q-0.03125 0.84375 0.671875 0.859375q0.8125 0.015625 0.84375 -0.84375l0.125 -4.328125q0.421875 -1.625 1.78125 -1.578125q1.203125 0.046875 1.15625 2.265625l-0.078125 3.59375q-0.03125 0.9375 0.78125 0.875q0.71875 -0.0625 0.75 -1.015625l0.09375 -3.921875q0 -0.453125 0.03125 -0.46875q0.515625 -1.34375 1.9375 -1.3125q1.234375 0.03125 1.203125 2.34375l-0.046875 3.609375q-0.015625 0.953125 0.828125 0.875q0.734375 -0.0625 0.75 -1.015625l0.0625 -3.890625q0.0625 -3.546875 -2.90625 -3.5625q-1.59375 0 -2.390625 1.15625q-0.578125 -1.171875 -2.203125 -1.15625q-1.0 0.015625 -1.6875 0.640625l0 -0.328125q0.015625 -0.765625 -0.796875 -0.765625zm14.5546875 8.984375q0.734375 0 2.34375 -0.828125q0.15625 1.03125 1.140625 0.828125q0.84375 -0.171875 0.1875 -1.3125q-0.453125 -0.78125 -0.421875 -2.65625q0.03125 -2.359375 0.21875 -3.328125q0.171875 -1.0 -0.765625 -1.21875q-0.46875 -0.109375 -0.703125 0.09375q-2.046875 -0.65625 -3.921875 0.890625q-1.625 1.328125 -1.609375 3.78125q0.03125 3.765625 3.53125 3.75zm0.90625 -1.578125q-0.59375 0.21875 -1.265625 0.171875q-1.625 -0.109375 -1.640625 -2.5q0.0625 -1.828125 1.453125 -2.84375q0.34375 -0.25 0.921875 -0.390625q0.828125 -0.203125 1.59375 0.265625q-0.359375 1.265625 -0.078125 4.625q-0.703125 0.578125 -0.984375 0.671875zm9.546875 -3.546875q-0.265625 1.640625 -0.421875 1.90625q-0.640625 1.4375 -2.34375 1.296875q-1.5625 -0.140625 -1.34375 -2.21875q0.1875 -1.828125 1.140625 -2.40625q0.84375 -0.53125 1.84375 -0.53125q1.1875 0.015625 1.21875 1.0q0.03125 0.21875 -0.09375 0.953125zm1.046875 -2.609375q-0.09375 -0.015625 -0.171875 -0.015625q-0.484375 -1.140625 -2.609375 -0.921875q-3.125 0.328125 -3.765625 3.390625q-0.984375 4.578125 2.484375 4.90625q2.046875 0.203125 2.703125 -0.859375l-0.125 1.296875q-0.203125 2.09375 -1.921875 2.390625q-1.03125 0.171875 -2.484375 -0.1875q-0.734375 -0.171875 -0.890625 0.5q-0.125 0.609375 0.421875 0.875q0.5 0.234375 1.90625 0.34375q4.125 0.296875 4.484375 -3.90625l0.59375 -6.75q0.09375 -0.9375 -0.625 -1.0625zm3.6328125 -0.890625q-0.796875 -0.015625 -0.8125 1.03125l-0.140625 6.546875q-0.015625 1.0 0.8125 1.0q0.734375 0 0.75 -1.0625l0.109375 -6.5q0.015625 -1.0 -0.71875 -1.015625zm0.046875 -3.546875q-0.265625 0 -0.484375 0.140625q-0.203125 0.140625 -0.328125 0.359375q-0.125 0.21875 -0.125 0.46875q0 0.28125 0.125 0.5q0.140625 0.21875 0.34375 0.34375q0.203125 0.125 0.453125 0.140625q0.015625 0 0.046875 0q0.234375 0 0.4375 -0.09375q0.1875 -0.09375 0.34375 -0.296875q0.171875 -0.21875 0.1875 -0.515625q0 -0.03125 0 -0.078125q0 -0.234375 -0.109375 -0.453125q-0.125 -0.25 -0.359375 -0.390625q-0.234375 -0.125 -0.5 -0.125q-0.015625 0 -0.03125 0zm4.0 3.1875q-0.71875 0 -0.734375 0.71875l-0.171875 7.265625q-0.03125 0.84375 0.671875 0.859375q0.84375 0.015625 0.859375 -0.84375l0.125 -4.71875q1.25 -1.25 2.328125 -1.171875q1.296875 0.09375 1.234375 2.25l-0.09375 3.703125q-0.015625 0.953125 0.828125 0.875q0.734375 -0.0625 0.75 -1.015625l0.0625 -3.90625q0.0625 -3.546875 -2.890625 -3.5625q-1.328125 0 -2.1875 0.78125q0.015625 -0.234375 0.015625 -0.46875q0.03125 -0.765625 -0.796875 -0.765625zm8.453125 5.15625l5.25 -0.75q0.828125 -0.125 0.859375 -1.078125q0.046875 -1.203125 -0.921875 -2.140625q-1.015625 -1.0 -2.8125 -0.890625q-1.734375 0.109375 -2.828125 1.6875q-0.875 1.25 -0.875 2.859375q0 1.953125 1.390625 3.09375q1.109375 0.9375 2.609375 0.953125q2.03125 0.015625 3.28125 -1.109375q0.703125 -0.625 0.34375 -1.359375q-0.15625 -0.3125 -0.53125 -0.234375q-0.34375 0.078125 -0.859375 0.65625q-0.546875 0.609375 -2.140625 0.625q-1.09375 0.015625 -1.96875 -0.765625q-0.765625 -0.65625 -0.796875 -1.546875zm0.171875 -1.28125q0.21875 -0.78125 0.5625 -1.203125q0.78125 -0.96875 1.859375 -0.96875q0.765625 0 1.453125 0.4375q0.59375 0.375 0.71875 1.0625l-4.59375 0.671875zm15.1875 -7.90625q-0.703125 0 -0.71875 0.71875l-0.078125 3.703125q-0.90625 0 -1.8125 0q-0.734375 0 -0.734375 0.796875q0 0.765625 0.671875 0.765625q0.90625 0 1.828125 0l-0.140625 6.078125q-0.015625 0.84375 0.6875 0.859375q0.84375 0.015625 0.859375 -0.84375l0.125 -6.09375q0.84375 0 1.671875 0q0.921875 0 0.921875 -0.796875q0 -0.796875 -0.96875 -0.78125l-1.578125 0q0.046875 -1.640625 0.0625 -3.640625q0 -0.765625 -0.796875 -0.765625zm5.8359375 -0.015625q-0.71875 0.015625 -0.734375 0.734375l-0.25 11.34375q-0.015625 0.84375 0.671875 0.859375q0.828125 0.015625 0.859375 -0.84375l0.171875 -4.515625q1.21875 -1.453125 2.671875 -1.328125q1.265625 0.09375 1.25 2.171875l-0.03125 3.75q0 0.9375 0.828125 0.875q0.75 -0.0625 0.75 -1.015625l0.03125 -3.96875q0.03125 -3.546875 -2.890625 -3.5625q-1.625 0 -2.609375 0.90625l0.078125 -4.625q0.015625 -0.78125 -0.796875 -0.78125zm9.4921875 4.40625q-0.796875 -0.015625 -0.8125 1.03125l-0.140625 6.546875q-0.015625 1.0 0.8125 1.0q0.734375 0 0.75 -1.0625l0.109375 -6.5q0.015625 -1.0 -0.71875 -1.015625zm0.046875 -3.546875q-0.265625 0 -0.484375 0.140625q-0.203125 0.140625 -0.328125 0.359375q-0.125 0.21875 -0.125 0.46875q0 0.28125 0.125 0.5q0.140625 0.21875 0.34375 0.34375q0.203125 0.125 0.453125 0.140625q0.015625 0 0.046875 0q0.234375 0 0.4375 -0.09375q0.1875 -0.09375 0.34375 -0.296875q0.171875 -0.21875 0.1875 -0.515625q0 -0.03125 0 -0.078125q0 -0.234375 -0.109375 -0.453125q-0.125 -0.25 -0.359375 -0.390625q-0.234375 -0.125 -0.5 -0.125q-0.015625 0 -0.03125 0zm5.109375 10.609375q-0.71875 -0.046875 -1.40625 -0.515625q-0.5625 -0.390625 -1.0 -0.09375q-0.359375 0.234375 -0.328125 0.75q0.03125 0.46875 0.578125 0.78125q0.609375 0.359375 1.03125 0.46875q0.6875 0.203125 1.78125 0.1875q1.296875 0 2.078125 -0.53125q0.96875 -0.65625 1.09375 -1.65625q0.125 -0.984375 -0.671875 -1.9375q-0.328125 -0.40625 -1.1875 -0.8125q-0.640625 -0.296875 -1.375 -0.375q-0.953125 -0.09375 -1.09375 -0.515625q-0.15625 -0.484375 0.234375 -0.9375q0.453125 -0.53125 1.390625 -0.578125q0.890625 -0.03125 1.34375 0.40625q0.90625 0.875 1.34375 0.515625q0.359375 -0.296875 0.296875 -0.765625q-0.109375 -0.703125 -1.234375 -1.25q-0.859375 -0.421875 -2.0 -0.328125q-1.015625 0.09375 -1.78125 0.65625q-0.65625 0.46875 -1.0 1.375q-0.3125 0.8125 -0.125 1.59375q0.25 1.0 1.84375 1.234375q1.546875 0.203125 1.984375 0.671875q0.65625 0.703125 0.34375 1.203125q-0.390625 0.5625 -2.140625 0.453125zm15.7109375 -3.5625q-0.265625 1.640625 -0.421875 1.90625q-0.640625 1.4375 -2.34375 1.296875q-1.5625 -0.140625 -1.34375 -2.21875q0.1875 -1.828125 1.140625 -2.40625q0.84375 -0.53125 1.84375 -0.53125q1.1875 0.015625 1.21875 1.0q0.03125 0.21875 -0.09375 0.953125zm1.046875 -2.609375q-0.09375 -0.015625 -0.171875 -0.015625q-0.484375 -1.140625 -2.609375 -0.921875q-3.125 0.328125 -3.765625 3.390625q-0.984375 4.578125 2.484375 4.90625q2.046875 0.203125 2.703125 -0.859375l-0.125 1.296875q-0.203125 2.09375 -1.921875 2.390625q-1.03125 0.171875 -2.484375 -0.1875q-0.734375 -0.171875 -0.890625 0.5q-0.125 0.609375 0.421875 0.875q0.5 0.234375 1.90625 0.34375q4.125 0.296875 4.484375 -3.90625l0.59375 -6.75q0.09375 -0.9375 -0.625 -1.0625zm5.7265625 0.6875q1.65625 -0.03125 1.640625 2.75q0 1.46875 -0.625 2.140625q-0.578125 0.625 -1.4375 0.625q-0.75 0 -1.328125 -0.625q-0.5625 -0.609375 -0.5625 -1.84375q0 -1.265625 0.78125 -2.328125q0.515625 -0.6875 1.53125 -0.71875zm-0.0625 -1.59375q-1.703125 -0.015625 -2.734375 1.34375q-1.046875 1.375 -1.046875 3.15625q0 1.890625 0.875 2.921875q0.96875 1.15625 2.359375 1.171875q1.921875 0.015625 2.859375 -1.1875q0.84375 -1.0 0.84375 -2.90625q0.015625 -4.46875 -3.15625 -4.5zm6.0234375 4.8125l5.25 -0.75q0.828125 -0.125 0.859375 -1.078125q0.046875 -1.203125 -0.921875 -2.140625q-1.015625 -1.0 -2.8125 -0.890625q-1.734375 0.109375 -2.828125 1.6875q-0.875 1.25 -0.875 2.859375q0 1.953125 1.390625 3.09375q1.109375 0.9375 2.609375 0.953125q2.03125 0.015625 3.28125 -1.109375q0.703125 -0.625 0.34375 -1.359375q-0.15625 -0.3125 -0.53125 -0.234375q-0.34375 0.078125 -0.859375 0.65625q-0.546875 0.609375 -2.140625 0.625q-1.09375 0.015625 -1.96875 -0.765625q-0.765625 -0.65625 -0.796875 -1.546875zm0.171875 -1.28125q0.21875 -0.78125 0.5625 -1.203125q0.78125 -0.96875 1.859375 -0.96875q0.765625 0 1.453125 0.4375q0.59375 0.375 0.71875 1.0625l-4.59375 0.671875zm9.625 3.546875q-0.71875 -0.046875 -1.40625 -0.515625q-0.5625 -0.390625 -1.0 -0.09375q-0.359375 0.234375 -0.328125 0.75q0.03125 0.46875 0.578125 0.78125q0.609375 0.359375 1.03125 0.46875q0.6875 0.203125 1.78125 0.1875q1.296875 0 2.078125 -0.53125q0.96875 -0.65625 1.09375 -1.65625q0.125 -0.984375 -0.671875 -1.9375q-0.328125 -0.40625 -1.1875 -0.8125q-0.640625 -0.296875 -1.375 -0.375q-0.953125 -0.09375 -1.09375 -0.515625q-0.15625 -0.484375 0.234375 -0.9375q0.453125 -0.53125 1.390625 -0.578125q0.890625 -0.03125 1.34375 0.40625q0.90625 0.875 1.34375 0.515625q0.359375 -0.296875 0.296875 -0.765625q-0.109375 -0.703125 -1.234375 -1.25q-0.859375 -0.421875 -2.0 -0.328125q-1.015625 0.09375 -1.78125 0.65625q-0.65625 0.46875 -1.0 1.375q-0.3125 0.8125 -0.125 1.59375q0.25 1.0 1.84375 1.234375q1.546875 0.203125 1.984375 0.671875q0.65625 0.703125 0.34375 1.203125q-0.390625 0.5625 -2.140625 0.453125z" fill-rule="nonzero"/><path fill="#3c78d8" d="m211.48935 314.1471q0.734375 0 2.34375 -0.828125q0.15625 1.03125 1.140625 0.828125q0.84375 -0.171875 0.1875 -1.3125q-0.453125 -0.78125 -0.421875 -2.65625q0.03125 -2.359375 0.21875 -3.328125q0.171875 -1.0 -0.765625 -1.21875q-0.46875 -0.109375 -0.703125 0.09375q-2.046875 -0.65625 -3.921875 0.890625q-1.625 1.328125 -1.609375 3.78125q0.03125 3.765625 3.53125 3.75zm0.90625 -1.578125q-0.59375 0.21875 -1.265625 0.171875q-1.625 -0.109375 -1.640625 -2.5q0.0625 -1.828125 1.453125 -2.84375q0.34375 -0.25 0.921875 -0.390625q0.828125 -0.203125 1.59375 0.265625q-0.359375 1.265625 -0.078125 4.625q-0.703125 0.578125 -0.984375 0.671875zm5.6875 -11.4375q-0.703125 0.015625 -0.71875 0.71875l-0.265625 11.34375q-0.015625 0.84375 0.6875 0.859375q0.84375 0.015625 0.859375 -0.84375l0.234375 -11.3125q0.015625 -0.765625 -0.796875 -0.765625zm4.3828125 0q-0.703125 0.015625 -0.71875 0.71875l-0.265625 11.34375q-0.015625 0.84375 0.6875 0.859375q0.84375 0.015625 0.859375 -0.84375l0.234375 -11.3125q0.015625 -0.765625 -0.796875 -0.765625zm10.6640625 0q-0.703125 0 -0.71875 0.71875l-0.078125 3.703125q-0.90625 0 -1.8125 0q-0.734375 0 -0.734375 0.796875q0 0.765625 0.671875 0.765625q0.90625 0 1.828125 0l-0.140625 6.078125q-0.015625 0.84375 0.6875 0.859375q0.84375 0.015625 0.859375 -0.84375l0.125 -6.09375q0.84375 0 1.671875 0q0.921875 0 0.921875 -0.796875q0 -0.796875 -0.96875 -0.78125l-1.578125 0q0.046875 -1.640625 0.0625 -3.640625q0 -0.765625 -0.796875 -0.765625zm5.8359375 -0.015625q-0.71875 0.015625 -0.734375 0.734375l-0.25 11.34375q-0.015625 0.84375 0.671875 0.859375q0.828125 0.015625 0.859375 -0.84375l0.171875 -4.515625q1.21875 -1.453125 2.671875 -1.328125q1.265625 0.09375 1.25 2.171875l-0.03125 3.75q0 0.9375 0.828125 0.875q0.75 -0.0625 0.75 -1.015625l0.03125 -3.96875q0.03125 -3.546875 -2.890625 -3.5625q-1.625 0 -2.609375 0.90625l0.078125 -4.625q0.015625 -0.78125 -0.796875 -0.78125zm9.1328125 9.203125l5.25 -0.75q0.828125 -0.125 0.859375 -1.078125q0.046875 -1.203125 -0.921875 -2.140625q-1.015625 -1.0 -2.8125 -0.890625q-1.734375 0.109375 -2.828125 1.6875q-0.875 1.25 -0.875 2.859375q0 1.953125 1.390625 3.09375q1.109375 0.9375 2.609375 0.953125q2.03125 0.015625 3.28125 -1.109375q0.703125 -0.625 0.34375 -1.359375q-0.15625 -0.3125 -0.53125 -0.234375q-0.34375 0.078125 -0.859375 0.65625q-0.546875 0.609375 -2.140625 0.625q-1.09375 0.015625 -1.96875 -0.765625q-0.765625 -0.65625 -0.796875 -1.546875zm0.171875 -1.28125q0.21875 -0.78125 0.5625 -1.203125q0.78125 -0.96875 1.859375 -0.96875q0.765625 0 1.453125 0.4375q0.59375 0.375 0.71875 1.0625l-4.59375 0.671875zm17.734375 -2.484375q-0.171875 -1.015625 -0.796875 -1.015625q-0.53125 0 -0.859375 1.015625l-1.734375 5.421875l-0.921875 -5.421875q-0.1875 -1.125 -0.875 -1.015625q-0.71875 0.109375 -0.53125 1.09375l1.234375 6.515625q0.1875 0.953125 0.984375 0.953125q0.65625 0 0.984375 -0.953125l1.515625 -4.296875l0.828125 4.296875q0.171875 0.953125 0.984375 0.953125q0.65625 0 0.984375 -0.953125l2.25 -6.515625q0.34375 -0.96875 -0.46875 -1.09375q-0.578125 -0.078125 -0.9375 1.015625l-1.734375 5.421875l-0.90625 -5.421875zm8.4921875 7.59375q0.734375 0 2.34375 -0.828125q0.15625 1.03125 1.140625 0.828125q0.84375 -0.171875 0.1875 -1.3125q-0.453125 -0.78125 -0.421875 -2.65625q0.03125 -2.359375 0.21875 -3.328125q0.171875 -1.0 -0.765625 -1.21875q-0.46875 -0.109375 -0.703125 0.09375q-2.046875 -0.65625 -3.921875 0.890625q-1.625 1.328125 -1.609375 3.78125q0.03125 3.765625 3.53125 3.75zm0.90625 -1.578125q-0.59375 0.21875 -1.265625 0.171875q-1.625 -0.109375 -1.640625 -2.5q0.0625 -1.828125 1.453125 -2.84375q0.34375 -0.25 0.921875 -0.390625q0.828125 -0.203125 1.59375 0.265625q-0.359375 1.265625 -0.078125 4.625q-0.703125 0.578125 -0.984375 0.671875zm10.84375 -6.90625q-0.75 -0.3125 -1.140625 0.609375l-2.140625 4.9375l-2.625 -4.984375q-0.484375 -0.921875 -1.21875 -0.53125q-0.6875 0.359375 -0.1875 1.28125l3.25 6.015625l-1.546875 3.609375q-0.546875 1.234375 0.28125 1.578125q0.6875 0.28125 1.21875 -0.96875l4.46875 -10.296875q0.390625 -0.921875 -0.359375 -1.25zm7.671875 -4.53125q-0.703125 0 -0.71875 0.71875l-0.265625 11.34375q-0.015625 0.84375 0.6875 0.859375q0.78125 0.015625 0.84375 -0.734375q1.1875 0.796875 2.546875 0.78125q1.328125 0 2.390625 -1.03125q1.140625 -1.125 1.21875 -2.703125q0.125 -2.09375 -1.078125 -3.484375q-1.140625 -1.34375 -2.828125 -1.34375q-0.9375 0 -1.640625 0.40625q-0.234375 0.125 -0.4375 0.265625l0.078125 -4.3125q0.015625 -0.765625 -0.796875 -0.765625zm3.09375 11.4375q-1.0 0.140625 -2.5 -0.984375l0.078125 -3.578125q1.296875 -1.25 2.578125 -0.953125q0.828125 0.203125 1.390625 0.828125q0.703125 0.765625 0.671875 2.109375q-0.015625 0.921875 -0.640625 1.765625q-0.515625 0.671875 -1.578125 0.8125zm8.2734375 1.578125q0.734375 0 2.34375 -0.828125q0.15625 1.03125 1.140625 0.828125q0.84375 -0.171875 0.1875 -1.3125q-0.453125 -0.78125 -0.421875 -2.65625q0.03125 -2.359375 0.21875 -3.328125q0.171875 -1.0 -0.765625 -1.21875q-0.46875 -0.109375 -0.703125 0.09375q-2.046875 -0.65625 -3.921875 0.890625q-1.625 1.328125 -1.609375 3.78125q0.03125 3.765625 3.53125 3.75zm0.90625 -1.578125q-0.59375 0.21875 -1.265625 0.171875q-1.625 -0.109375 -1.640625 -2.5q0.0625 -1.828125 1.453125 -2.84375q0.34375 -0.25 0.921875 -0.390625q0.828125 -0.203125 1.59375 0.265625q-0.359375 1.265625 -0.078125 4.625q-0.703125 0.578125 -0.984375 0.671875zm9.6875 -0.515625q-0.921875 0.625 -1.984375 0.59375q-1.03125 -0.046875 -1.609375 -0.8125q-0.640625 -0.875 -0.609375 -1.921875q0.015625 -1.109375 0.609375 -1.96875q0.53125 -0.75 1.171875 -0.953125q1.15625 -0.359375 2.078125 0.3125q0.75 0.5625 1.125 0.296875q0.53125 -0.375 0.046875 -1.125q-0.3125 -0.484375 -1.25 -0.8125q-0.765625 -0.25 -1.703125 -0.171875q-1.59375 0.109375 -2.625 1.609375q-0.84375 1.21875 -0.84375 3.140625q0 1.75 1.1875 2.90625q0.96875 0.9375 2.421875 0.9375q1.84375 0.015625 2.703125 -0.734375q0.65625 -0.578125 0.40625 -1.015625q-0.4375 -0.734375 -1.125 -0.28125zm4.15625 -10.921875q-0.71875 0.015625 -0.734375 0.71875l-0.25 11.34375q-0.03125 0.84375 0.671875 0.859375q0.84375 0.015625 0.859375 -0.84375l0.046875 -2.3125l1.328125 -1.203125l2.65625 3.828125q0.625 0.921875 1.359375 0.1875q0.46875 -0.46875 -0.171875 -1.34375l-2.6875 -3.71875l2.359375 -2.125q0.65625 -0.578125 0.125 -1.1875q-0.5 -0.5625 -1.34375 0.203125l-3.578125 3.28125l0.15625 -6.921875q0.015625 -0.765625 -0.796875 -0.765625zm14.984375 0q-0.703125 0 -0.71875 0.71875l-0.078125 3.703125q-0.90625 0 -1.8125 0q-0.734375 0 -0.734375 0.796875q0 0.765625 0.671875 0.765625q0.90625 0 1.828125 0l-0.140625 6.078125q-0.015625 0.84375 0.6875 0.859375q0.84375 0.015625 0.859375 -0.84375l0.125 -6.09375q0.84375 0 1.671875 0q0.921875 0 0.921875 -0.796875q0 -0.796875 -0.96875 -0.78125l-1.578125 0q0.046875 -1.640625 0.0625 -3.640625q0 -0.765625 -0.796875 -0.765625zm8.1796875 5.96875q1.65625 -0.03125 1.640625 2.75q0 1.46875 -0.625 2.140625q-0.578125 0.625 -1.4375 0.625q-0.75 0 -1.328125 -0.625q-0.5625 -0.609375 -0.5625 -1.84375q0 -1.265625 0.78125 -2.328125q0.515625 -0.6875 1.53125 -0.71875zm-0.0625 -1.59375q-1.703125 -0.015625 -2.734375 1.34375q-1.046875 1.375 -1.046875 3.15625q0 1.890625 0.875 2.921875q0.96875 1.15625 2.359375 1.171875q1.921875 0.015625 2.859375 -1.1875q0.84375 -1.0 0.84375 -2.90625q0.015625 -4.46875 -3.15625 -4.5z" fill-rule="nonzero"/><path fill="#3c78d8" d="m211.3956 320.33148q-0.703125 0 -0.71875 0.71875l-0.078125 3.703125q-0.90625 0 -1.8125 0q-0.734375 0 -0.734375 0.796875q0 0.765625 0.671875 0.765625q0.90625 0 1.828125 0l-0.140625 6.078125q-0.015625 0.84375 0.6875 0.859375q0.84375 0.015625 0.859375 -0.84375l0.125 -6.09375q0.84375 0 1.671875 0q0.921875 0 0.921875 -0.796875q0 -0.796875 -0.96875 -0.78125l-1.578125 0q0.046875 -1.640625 0.0625 -3.640625q0 -0.765625 -0.796875 -0.765625zm5.8359375 -0.015625q-0.71875 0.015625 -0.734375 0.734375l-0.25 11.34375q-0.015625 0.84375 0.671875 0.859375q0.828125 0.015625 0.859375 -0.84375l0.171875 -4.515625q1.21875 -1.453125 2.671875 -1.328125q1.265625 0.09375 1.25 2.171875l-0.03125 3.75q0 0.9375 0.828125 0.875q0.75 -0.0625 0.75 -1.015625l0.03125 -3.96875q0.03125 -3.546875 -2.890625 -3.5625q-1.625 0 -2.609375 0.90625l0.078125 -4.625q0.015625 -0.78125 -0.796875 -0.78125zm9.1328125 9.203125l5.25 -0.75q0.828125 -0.125 0.859375 -1.078125q0.046875 -1.203125 -0.921875 -2.140625q-1.015625 -1.0 -2.8125 -0.890625q-1.734375 0.109375 -2.828125 1.6875q-0.875 1.25 -0.875 2.859375q0 1.953125 1.390625 3.09375q1.109375 0.9375 2.609375 0.953125q2.03125 0.015625 3.28125 -1.109375q0.703125 -0.625 0.34375 -1.359375q-0.15625 -0.3125 -0.53125 -0.234375q-0.34375 0.078125 -0.859375 0.65625q-0.546875 0.609375 -2.140625 0.625q-1.09375 0.015625 -1.96875 -0.765625q-0.765625 -0.65625 -0.796875 -1.546875zm0.171875 -1.28125q0.21875 -0.78125 0.5625 -1.203125q0.78125 -0.96875 1.859375 -0.96875q0.765625 0 1.453125 0.4375q0.59375 0.375 0.71875 1.0625l-4.59375 0.671875zm14.40625 3.546875q-0.71875 -0.046875 -1.40625 -0.515625q-0.5625 -0.390625 -1.0 -0.09375q-0.359375 0.234375 -0.328125 0.75q0.03125 0.46875 0.578125 0.78125q0.609375 0.359375 1.03125 0.46875q0.6875 0.203125 1.78125 0.1875q1.296875 0 2.078125 -0.53125q0.96875 -0.65625 1.09375 -1.65625q0.125 -0.984375 -0.671875 -1.9375q-0.328125 -0.40625 -1.1875 -0.8125q-0.640625 -0.296875 -1.375 -0.375q-0.953125 -0.09375 -1.09375 -0.515625q-0.15625 -0.484375 0.234375 -0.9375q0.453125 -0.53125 1.390625 -0.578125q0.890625 -0.03125 1.34375 0.40625q0.90625 0.875 1.34375 0.515625q0.359375 -0.296875 0.296875 -0.765625q-0.109375 -0.703125 -1.234375 -1.25q-0.859375 -0.421875 -2.0 -0.328125q-1.015625 0.09375 -1.78125 0.65625q-0.65625 0.46875 -1.0 1.375q-0.3125 0.8125 -0.125 1.59375q0.25 1.0 1.84375 1.234375q1.546875 0.203125 1.984375 0.671875q0.65625 0.703125 0.34375 1.203125q-0.390625 0.5625 -2.140625 0.453125zm8.5703125 -11.453125q-0.703125 0 -0.71875 0.71875l-0.078125 3.703125q-0.90625 0 -1.8125 0q-0.734375 0 -0.734375 0.796875q0 0.765625 0.671875 0.765625q0.90625 0 1.828125 0l-0.140625 6.078125q-0.015625 0.84375 0.6875 0.859375q0.84375 0.015625 0.859375 -0.84375l0.125 -6.09375q0.84375 0 1.671875 0q0.921875 0 0.921875 -0.796875q0 -0.796875 -0.96875 -0.78125l-1.578125 0q0.046875 -1.640625 0.0625 -3.640625q0 -0.765625 -0.796875 -0.765625zm7.6328125 13.015625q0.734375 0 2.34375 -0.828125q0.15625 1.03125 1.140625 0.828125q0.84375 -0.171875 0.1875 -1.3125q-0.453125 -0.78125 -0.421875 -2.65625q0.03125 -2.359375 0.21875 -3.328125q0.171875 -1.0 -0.765625 -1.21875q-0.46875 -0.109375 -0.703125 0.09375q-2.046875 -0.65625 -3.921875 0.890625q-1.625 1.328125 -1.609375 3.78125q0.03125 3.765625 3.53125 3.75zm0.90625 -1.578125q-0.59375 0.21875 -1.265625 0.171875q-1.625 -0.109375 -1.640625 -2.5q0.0625 -1.828125 1.453125 -2.84375q0.34375 -0.25 0.921875 -0.390625q0.828125 -0.203125 1.59375 0.265625q-0.359375 1.265625 -0.078125 4.625q-0.703125 0.578125 -0.984375 0.671875zm5.296875 -7.40625q-0.71875 0 -0.734375 0.71875l-0.171875 7.3125q-0.03125 0.84375 0.671875 0.859375q0.828125 0.015625 0.84375 -0.84375l0.140625 -5.125q0.734375 -0.734375 1.609375 -0.90625q0.90625 -0.171875 1.609375 0.296875q0.90625 0.609375 1.25 -0.390625q0.203125 -0.625 -0.984375 -1.21875q-0.671875 -0.34375 -1.703125 -0.328125q-0.859375 0.015625 -1.734375 0.6875q0 -0.15625 0 -0.296875q0 -0.765625 -0.796875 -0.765625zm9.578125 -4.03125q-0.703125 0 -0.71875 0.71875l-0.078125 3.703125q-0.90625 0 -1.8125 0q-0.734375 0 -0.734375 0.796875q0 0.765625 0.671875 0.765625q0.90625 0 1.828125 0l-0.140625 6.078125q-0.015625 0.84375 0.6875 0.859375q0.84375 0.015625 0.859375 -0.84375l0.125 -6.09375q0.84375 0 1.671875 0q0.921875 0 0.921875 -0.796875q0 -0.796875 -0.96875 -0.78125l-1.578125 0q0.046875 -1.640625 0.0625 -3.640625q0 -0.765625 -0.796875 -0.765625zm10.0859375 4.40625q-0.921875 0 -0.9375 0.390625q0 0.390625 0 0.78125q0 0.375 0.84375 0.375l1.265625 0l-0.09375 6.1875q-0.015625 0.84375 0.6875 0.859375q0.84375 0.015625 0.859375 -0.84375l0.078125 -6.203125l1.921875 0q1.03125 0 0.984375 -0.84375q-0.046875 -0.703125 -1.09375 -0.703125l-1.78125 0q-0.015625 -0.984375 0.203125 -1.71875q0.359375 -1.265625 1.8125 -1.125q0.9375 0.09375 1.0625 -0.65625q0.15625 -0.875 -1.5 -0.828125q-1.6875 0.0625 -2.296875 0.921875q-0.765625 1.09375 -0.796875 3.40625l-1.21875 0zm11.0078125 1.5625q1.65625 -0.03125 1.640625 2.75q0 1.46875 -0.625 2.140625q-0.578125 0.625 -1.4375 0.625q-0.75 0 -1.328125 -0.625q-0.5625 -0.609375 -0.5625 -1.84375q0 -1.265625 0.78125 -2.328125q0.515625 -0.6875 1.53125 -0.71875zm-0.0625 -1.59375q-1.703125 -0.015625 -2.734375 1.34375q-1.046875 1.375 -1.046875 3.15625q0 1.890625 0.875 2.921875q0.96875 1.15625 2.359375 1.171875q1.921875 0.015625 2.859375 -1.1875q0.84375 -1.0 0.84375 -2.90625q0.015625 -4.46875 -3.15625 -4.5zm5.9453125 -0.34375q-0.71875 0 -0.734375 0.71875l-0.171875 7.3125q-0.03125 0.84375 0.671875 0.859375q0.828125 0.015625 0.84375 -0.84375l0.140625 -5.125q0.734375 -0.734375 1.609375 -0.90625q0.90625 -0.171875 1.609375 0.296875q0.90625 0.609375 1.25 -0.390625q0.203125 -0.625 -0.984375 -1.21875q-0.671875 -0.34375 -1.703125 -0.328125q-0.859375 0.015625 -1.734375 0.6875q0 -0.15625 0 -0.296875q0 -0.765625 -0.796875 -0.765625zm12.46875 0q-0.71875 0 -0.734375 0.71875l-0.171875 7.265625q-0.03125 0.84375 0.671875 0.859375q0.84375 0.015625 0.859375 -0.84375l0.125 -4.71875q1.25 -1.25 2.328125 -1.171875q1.296875 0.09375 1.234375 2.25l-0.09375 3.703125q-0.015625 0.953125 0.828125 0.875q0.734375 -0.0625 0.75 -1.015625l0.0625 -3.90625q0.0625 -3.546875 -2.890625 -3.5625q-1.328125 0 -2.1875 0.78125q0.015625 -0.234375 0.015625 -0.46875q0.03125 -0.765625 -0.796875 -0.765625zm10.90625 1.9375q1.65625 -0.03125 1.640625 2.75q0 1.46875 -0.625 2.140625q-0.578125 0.625 -1.4375 0.625q-0.75 0 -1.328125 -0.625q-0.5625 -0.609375 -0.5625 -1.84375q0 -1.265625 0.78125 -2.328125q0.515625 -0.6875 1.53125 -0.71875zm-0.0625 -1.59375q-1.703125 -0.015625 -2.734375 1.34375q-1.046875 1.375 -1.046875 3.15625q0 1.890625 0.875 2.921875q0.96875 1.15625 2.359375 1.171875q1.921875 0.015625 2.859375 -1.1875q0.84375 -1.0 0.84375 -2.90625q0.015625 -4.46875 -3.15625 -4.5zm10.3828125 1.046875q-0.171875 -1.015625 -0.796875 -1.015625q-0.53125 0 -0.859375 1.015625l-1.734375 5.421875l-0.921875 -5.421875q-0.1875 -1.125 -0.875 -1.015625q-0.71875 0.109375 -0.53125 1.09375l1.234375 6.515625q0.1875 0.953125 0.984375 0.953125q0.65625 0 0.984375 -0.953125l1.515625 -4.296875l0.828125 4.296875q0.171875 0.953125 0.984375 0.953125q0.65625 0 0.984375 -0.953125l2.25 -6.515625q0.34375 -0.96875 -0.46875 -1.09375q-0.578125 -0.078125 -0.9375 1.015625l-1.734375 5.421875l-0.90625 -5.421875zm6.6953125 5.953125q-0.234375 0 -0.421875 0.125q-0.171875 0.125 -0.28125 0.328125q-0.109375 0.203125 -0.109375 0.421875q0 0.25 0.109375 0.453125q0.125 0.203125 0.296875 0.3125q0.171875 0.109375 0.375 0.125q0.03125 0 0.046875 0q0.203125 0 0.375 -0.09375q0.15625 -0.078125 0.28125 -0.25q0.15625 -0.21875 0.171875 -0.46875q0 -0.03125 0 -0.078125q0 -0.21875 -0.09375 -0.40625q-0.109375 -0.21875 -0.3125 -0.34375q-0.1875 -0.125 -0.421875 -0.125q-0.015625 0 -0.015625 0zm3.265625 0q-0.21875 0 -0.40625 0.125q-0.171875 0.125 -0.296875 0.328125q-0.09375 0.203125 -0.09375 0.421875q0 0.25 0.109375 0.453125q0.109375 0.203125 0.296875 0.3125q0.171875 0.109375 0.375 0.125q0.015625 0 0.03125 0q0.21875 0 0.375 -0.09375q0.15625 -0.078125 0.296875 -0.25q0.140625 -0.21875 0.171875 -0.46875q0 -0.03125 0 -0.078125q0 -0.21875 -0.09375 -0.40625q-0.109375 -0.21875 -0.3125 -0.34375q-0.203125 -0.125 -0.421875 -0.125q-0.015625 0 -0.03125 0zm3.484375 0q-0.21875 0 -0.40625 0.125q-0.171875 0.125 -0.296875 0.328125q-0.09375 0.203125 -0.09375 0.421875q0 0.25 0.109375 0.453125q0.109375 0.203125 0.296875 0.3125q0.171875 0.109375 0.375 0.125q0.015625 0 0.03125 0q0.21875 0 0.375 -0.09375q0.15625 -0.078125 0.296875 -0.25q0.140625 -0.21875 0.171875 -0.46875q0 -0.03125 0 -0.078125q0 -0.21875 -0.09375 -0.40625q-0.109375 -0.21875 -0.3125 -0.34375q-0.203125 -0.125 -0.421875 -0.125q-0.015625 0 -0.03125 0z" fill-rule="nonzero"/><path fill="#000000" fill-opacity="0.0" d="m187.51706 284.13992l0 43.055115" fill-rule="evenodd"/><path stroke="#3c78d8" stroke-width="4.0" stroke-linejoin="round" stroke-linecap="butt" stroke-dasharray="4.0,12.0" d="m187.51706 284.13992l0 43.055115" fill-rule="evenodd"/></g></svg>