<svg version="1.1" viewBox="0.0 0.0 1000.5931758530184 346.54330708661416" fill="none" stroke="none" stroke-linecap="square" stroke-miterlimit="10" xmlns:xlink="http://www.w3.org/1999/xlink" xmlns="http://www.w3.org/2000/svg"><clipPath id="p.0"><path d="m0 0l1000.5932 0l0 346.5433l-1000.5932 0l0 -346.5433z" clip-rule="nonzero"/></clipPath><g clip-path="url(#p.0)"><path fill="#ffffff" d="m0 0l1000.5932 0l0 346.5433l-1000.5932 0z" fill-rule="evenodd"/><path fill="#000000" fill-opacity="0.0" d="m28.1414 86.57204l596.78735 0" fill-rule="evenodd"/><path stroke="#000000" stroke-width="3.0" stroke-linejoin="round" stroke-linecap="butt" d="m28.1414 86.57204l586.50616 0" fill-rule="evenodd"/><path fill="#000000" stroke="#000000" stroke-width="3.0" stroke-linecap="butt" d="m614.6475 86.57204l-3.3737183 3.3737488l9.269287 -3.3737488l-9.269287 -3.3737488z" fill-rule="evenodd"/><path fill="#000000" fill-opacity="0.0" d="m202.02744 40.267715l295.0866 0l0 42.015747l-295.0866 0z" fill-rule="evenodd"/><path fill="#000000" d="m212.99619 53.57834q-1.234375 0 -1.234375 0.859375q0 1.03125 1.15625 1.03125l2.15625 0l-0.265625 10.21875l-1.9375 0q-1.234375 -0.015625 -1.234375 0.859375q0 1.015625 1.15625 1.015625l6.65625 0q1.203125 0 1.171875 -0.890625q-0.015625 -0.984375 -1.109375 -0.984375l-2.921875 0l0.265625 -10.21875l2.71875 0q1.203125 0 1.1875 -0.90625q-0.03125 -0.984375 -1.125 -0.984375l-6.640625 0zm10.506027 3.640625q-0.84375 0 -0.859375 0.84375l-0.203125 8.484375q-0.03125 0.96875 0.78125 0.984375q0.984375 0.015625 1.0 -0.96875l0.15625 -5.515625q1.4375 -1.453125 2.703125 -1.359375q1.515625 0.109375 1.453125 2.625l-0.109375 4.3125q-0.03125 1.109375 0.953125 1.015625q0.859375 -0.078125 0.875 -1.171875l0.078125 -4.5625q0.0625 -4.140625 -3.375 -4.140625q-1.546875 0 -2.546875 0.890625q0.015625 -0.265625 0.015625 -0.53125q0.03125 -0.90625 -0.921875 -0.90625zm9.765381 0q-0.84375 0 -0.859375 0.84375l-0.203125 8.484375q-0.03125 0.96875 0.78125 0.984375q0.984375 0.015625 1.0 -0.96875l0.15625 -5.515625q1.4375 -1.453125 2.703125 -1.359375q1.515625 0.109375 1.453125 2.625l-0.109375 4.3125q-0.03125 1.109375 0.953125 1.015625q0.859375 -0.078125 0.875 -1.171875l0.078125 -4.5625q0.0625 -4.140625 -3.375 -4.140625q-1.546875 0 -2.546875 0.890625q0.015625 -0.265625 0.015625 -0.53125q0.03125 -0.90625 -0.921875 -0.90625zm9.843506 6.03125l6.125 -0.890625q0.96875 -0.140625 1.0 -1.25q0.046875 -1.40625 -1.0625 -2.5q-1.1875 -1.15625 -3.296875 -1.03125q-2.015625 0.125 -3.296875 1.953125q-1.015625 1.46875 -1.015625 3.34375q0 2.28125 1.625 3.609375q1.296875 1.078125 3.03125 1.09375q2.375 0.015625 3.828125 -1.28125q0.828125 -0.734375 0.40625 -1.578125q-0.1875 -0.359375 -0.625 -0.265625q-0.390625 0.078125 -1.0 0.75q-0.640625 0.71875 -2.5 0.734375q-1.265625 0.015625 -2.296875 -0.890625q-0.875 -0.78125 -0.921875 -1.796875zm0.203125 -1.515625q0.25 -0.890625 0.65625 -1.390625q0.90625 -1.125 2.171875 -1.125q0.890625 -0.015625 1.703125 0.5q0.6875 0.453125 0.828125 1.234375l-5.359375 0.78125zm9.939606 -4.515625q-0.84375 0 -0.859375 0.84375l-0.203125 8.53125q-0.03125 0.96875 0.78125 0.984375q0.953125 0.015625 0.984375 -0.96875l0.15625 -5.984375q0.859375 -0.84375 1.8906097 -1.046875q1.046875 -0.203125 1.875 0.34375q1.046875 0.71875 1.453125 -0.453125q0.234375 -0.734375 -1.140625 -1.421875q-0.78125 -0.390625 -2.0 -0.375q-0.98435974 0.015625 -2.0156097 0.78125q0 -0.171875 0 -0.328125q0 -0.90625 -0.921875 -0.90625zm14.913742 -1.3125q-0.8125 1.375 -0.453125 2.8125q0.625 2.546875 4.015625 2.5q3.484375 -0.0625 3.859375 1.265625q0.34375 1.265625 -0.875 2.4375q-0.625 0.609375 -2.375 0.921875q-0.984375 0.171875 -2.15625 -0.109375q-0.875 -0.203125 -1.484375 -0.75q-0.78125 -0.671875 -1.296875 -0.53125q-0.453125 0.140625 -0.546875 0.734375q-0.0625 0.546875 0.65625 1.203125q0.515625 0.4375 1.25 0.75q1.078125 0.453125 2.71875 0.4375q2.21875 -0.015625 3.71875 -0.875q2.25 -1.296875 2.375 -3.5625q0.078125 -1.46875 -1.0625 -2.65625q-0.921875 -0.9375 -2.875 -1.0q-2.1875 -0.0625 -2.75 -0.15625q-1.46875 -0.203125 -1.3125 -1.84375q0.078125 -0.828125 0.953125 -1.5q0.8125 -0.640625 2.328125 -0.734375q0.984375 -0.046875 2.25 0.4375q0.890625 0.34375 1.234375 0.1875q0.515625 -0.25 0.484375 -0.71875q-0.03125 -0.5625 -1.359375 -1.15625q-0.9375 -0.40625 -2.28125 -0.453125q-1.515625 -0.0625 -2.828125 0.578125q-1.578125 0.75 -2.1875 1.78125zm13.060486 1.75q-0.921875 -0.03125 -0.953125 1.1875l-0.15625 7.640625q-0.015625 1.15625 0.953125 1.15625q0.859375 0 0.875 -1.234375l0.125 -7.578125q0.015625 -1.15625 -0.84375 -1.171875zm0.0625 -4.140625q-0.3125 0 -0.5625 0.171875q-0.234375 0.15625 -0.390625 0.421875q-0.15625 0.25 -0.15625 0.546875q0 0.3125 0.15625 0.578125q0.15625 0.25 0.40625 0.390625q0.234375 0.15625 0.515625 0.15625q0.03125 0 0.0625 0q0.28125 0.015625 0.5 -0.109375q0.21875 -0.09375 0.40625 -0.328125q0.203125 -0.265625 0.234375 -0.59375q0 -0.046875 0 -0.09375q0 -0.28125 -0.140625 -0.53125q-0.140625 -0.296875 -0.421875 -0.453125q-0.265625 -0.15625 -0.578125 -0.15625q-0.015625 0 -0.03125 0zm4.4944763 3.703125q-0.828125 0 -0.859375 0.84375l-0.203125 8.453125q-0.03125 0.96875 0.796875 0.984375q0.9375 0.03125 0.96875 -0.96875l0.15625 -5.03125q0.5 -1.90625 2.0625 -1.84375q1.40625 0.046875 1.359375 2.640625l-0.09375 4.1875q-0.03125 1.078125 0.90625 1.0q0.84375 -0.0625 0.875 -1.171875l0.109375 -4.5625q0.015625 -0.53125 0.03125 -0.5625q0.609375 -1.5625 2.28125 -1.515625q1.4375 0.03125 1.390625 2.734375l-0.046875 4.203125q-0.015625 1.09375 0.96875 1.0q0.859375 -0.0625 0.875 -1.171875l0.0625 -4.53125q0.0625 -4.140625 -3.390625 -4.140625q-1.859375 -0.015625 -2.796875 1.328125q-0.65625 -1.359375 -2.546875 -1.328125q-1.171875 0 -1.984375 0.734375l0.015625 -0.375q0.015625 -0.90625 -0.9375 -0.90625zm20.211975 10.65625q0.828125 0 0.84375 -0.84375l0.21875 -8.5q0.015625 -0.984375 -0.796875 -1.015625q-0.96875 0 -1.0 0.984375l-0.109375 4.609375q-0.046875 1.484375 -1.234375 2.09375q-1.296875 0.65625 -2.25 0.015625q-0.6875 -0.484375 -0.671875 -2.6875l0.015625 -3.984375q0.015625 -1.09375 -0.953125 -1.0q-0.859375 0.078125 -0.875 1.171875l-0.03125 4.46875q-0.03125 4.140625 3.390625 4.15625q1.546875 0 2.546875 -0.90625l-0.015625 0.546875q-0.015625 0.890625 0.921875 0.890625zm4.607849 -15.359375q-0.828125 0.03125 -0.84375 0.859375l-0.3125 13.21875q-0.015625 0.96875 0.8125 0.984375q0.984375 0.015625 0.984375 -0.96875l0.28125 -13.1875q0.03125 -0.90625 -0.921875 -0.90625zm6.969818 15.1875q0.84375 -0.015625 2.734375 -0.96875q0.171875 1.203125 1.3125 0.96875q1.0 -0.203125 0.21875 -1.53125q-0.53125 -0.921875 -0.484375 -3.109375q0.046875 -2.734375 0.25 -3.875q0.21875 -1.171875 -0.875 -1.40625q-0.5625 -0.125 -0.828125 0.09375q-2.390625 -0.75 -4.578125 1.046875q-1.890625 1.546875 -1.875 4.40625q0.03125 4.375 4.125 4.375zm1.046875 -1.84375q-0.6875 0.265625 -1.484375 0.203125q-1.875 -0.125 -1.90625 -2.90625q0.078125 -2.140625 1.703125 -3.3125q0.40625 -0.3125 1.078125 -0.46875q0.96875 -0.234375 1.84375 0.3125q-0.421875 1.484375 -0.09375 5.390625q-0.8125 0.671875 -1.140625 0.78125zm8.390503 -13.34375q-0.828125 0 -0.84375 0.859375l-0.09375 4.296875q-1.0625 0.015625 -2.109375 0.015625q-0.859375 0 -0.859375 0.921875q0 0.890625 0.78125 0.890625q1.0625 0 2.140625 0l-0.171875 7.09375q-0.015625 0.96875 0.8125 0.984375q0.984375 0.015625 0.984375 -0.96875l0.15625 -7.109375q0.984375 0 1.953125 0q1.0625 0 1.0625 -0.9375q0 -0.90625 -1.125 -0.90625l-1.84375 0.015625q0.0625 -1.921875 0.078125 -4.25q0 -0.90625 -0.921875 -0.90625zm7.0875244 5.140625q-0.921875 -0.03125 -0.953125 1.1875l-0.15625 7.640625q-0.015625 1.15625 0.953125 1.15625q0.859375 0 0.875 -1.234375l0.125 -7.578125q0.015625 -1.15625 -0.84375 -1.171875zm0.0625 -4.140625q-0.3125 0 -0.5625 0.171875q-0.234375 0.15625 -0.390625 0.421875q-0.15625 0.25 -0.15625 0.546875q0 0.3125 0.15625 0.578125q0.15625 0.25 0.40625 0.390625q0.234375 0.15625 0.515625 0.15625q0.03125 0 0.0625 0q0.28125 0.015625 0.5 -0.109375q0.21875 -0.09375 0.40625 -0.328125q0.203125 -0.265625 0.234375 -0.59375q0 -0.046875 0 -0.09375q0 -0.28125 -0.140625 -0.53125q-0.140625 -0.296875 -0.421875 -0.453125q-0.265625 -0.15625 -0.578125 -0.15625q-0.015625 0 -0.03125 0zm7.6194763 5.96875q1.921875 -0.03125 1.90625 3.21875q-0.015625 1.703125 -0.734375 2.484375q-0.671875 0.71875 -1.671875 0.71875q-0.875 0 -1.546875 -0.71875q-0.65625 -0.71875 -0.65625 -2.140625q0 -1.484375 0.90625 -2.734375q0.59375 -0.796875 1.796875 -0.828125zm-0.078125 -1.859375q-1.984375 -0.015625 -3.1875 1.578125q-1.21875 1.59375 -1.21875 3.671875q0 2.203125 1.015625 3.40625q1.125 1.34375 2.75 1.359375q2.25 0.015625 3.34375 -1.375q0.96875 -1.171875 0.984375 -3.390625q0 -5.21875 -3.6875 -5.25zm6.9359436 -0.40625q-0.84375 0 -0.859375 0.84375l-0.203125 8.484375q-0.03125 0.96875 0.78125 0.984375q0.984375 0.015625 1.0 -0.96875l0.15625 -5.515625q1.4375 -1.453125 2.703125 -1.359375q1.515625 0.109375 1.453125 2.625l-0.109375 4.3125q-0.03125 1.109375 0.953125 1.015625q0.859375 -0.078125 0.875 -1.171875l0.078125 -4.5625q0.0625 -4.140625 -3.375 -4.140625q-1.546875 0 -2.546875 0.890625q0.015625 -0.265625 0.015625 -0.53125q0.03125 -0.90625 -0.921875 -0.90625zm15.356018 -3.703125q-1.234375 0 -1.234375 0.8125q0 0.953125 1.15625 0.953125q2.140625 0 4.296875 -0.015625l-0.28125 11.453125q-0.015625 0.90625 0.796875 0.921875q0.96875 0.015625 1.0 -0.90625l0.265625 -11.46875l3.84375 -0.015625q1.21875 0 1.203125 -0.828125q-0.03125 -0.90625 -1.203125 -0.90625l-9.84375 0zm13.164795 4.140625q-0.921875 -0.03125 -0.953125 1.1875l-0.15625 7.640625q-0.015625 1.15625 0.953125 1.15625q0.859375 0 0.875 -1.234375l0.125 -7.578125q0.015625 -1.15625 -0.84375 -1.171875zm0.0625 -4.140625q-0.3125 0 -0.5625 0.171875q-0.234375 0.15625 -0.390625 0.421875q-0.15625 0.25 -0.15625 0.546875q0 0.3125 0.15625 0.578125q0.15625 0.25 0.40625 0.390625q0.234375 0.15625 0.515625 0.15625q0.03125 0 0.0625 0q0.28125 0.015625 0.5 -0.109375q0.21875 -0.09375 0.40625 -0.328125q0.203125 -0.265625 0.234375 -0.59375q0 -0.046875 0 -0.09375q0 -0.28125 -0.140625 -0.53125q-0.140625 -0.296875 -0.421875 -0.453125q-0.265625 -0.15625 -0.578125 -0.15625q-0.015625 0 -0.03125 0zm4.4944763 3.703125q-0.828125 0 -0.859375 0.84375l-0.203125 8.453125q-0.03125 0.96875 0.796875 0.984375q0.9375 0.03125 0.96875 -0.96875l0.15625 -5.03125q0.5 -1.90625 2.0625 -1.84375q1.40625 0.046875 1.359375 2.640625l-0.09375 4.1875q-0.03125 1.078125 0.90625 1.0q0.84375 -0.0625 0.875 -1.171875l0.109375 -4.5625q0.015625 -0.53125 0.03125 -0.5625q0.609375 -1.5625 2.28125 -1.515625q1.4375 0.03125 1.390625 2.734375l-0.046875 4.203125q-0.015625 1.09375 0.96875 1.0q0.859375 -0.0625 0.875 -1.171875l0.0625 -4.53125q0.0625 -4.140625 -3.390625 -4.140625q-1.859375 -0.015625 -2.796875 1.328125q-0.65625 -1.359375 -2.546875 -1.328125q-1.171875 0 -1.984375 0.734375l0.015625 -0.375q0.015625 -0.90625 -0.9375 -0.90625zm14.743195 6.03125l6.125 -0.890625q0.96875 -0.140625 1.0 -1.25q0.046875 -1.40625 -1.0625 -2.5q-1.1875 -1.15625 -3.296875 -1.03125q-2.015625 0.125 -3.296875 1.953125q-1.015625 1.46875 -1.015625 3.34375q0 2.28125 1.625 3.609375q1.296875 1.078125 3.03125 1.09375q2.375 0.015625 3.828125 -1.28125q0.828125 -0.734375 0.40625 -1.578125q-0.1875 -0.359375 -0.625 -0.265625q-0.390625 0.078125 -1.0 0.75q-0.640625 0.71875 -2.5 0.734375q-1.265625 0.015625 -2.296875 -0.890625q-0.875 -0.78125 -0.921875 -1.796875zm0.203125 -1.515625q0.25 -0.890625 0.65625 -1.390625q0.90625 -1.125 2.171875 -1.125q0.890625 -0.015625 1.703125 0.5q0.6875 0.453125 0.828125 1.234375l-5.359375 0.78125zm10.392731 -9.21875q-0.828125 0.03125 -0.84375 0.859375l-0.3125 13.21875q-0.015625 0.96875 0.8125 0.984375q0.984375 0.015625 0.984375 -0.96875l0.28125 -13.1875q0.03125 -0.90625 -0.921875 -0.90625zm5.157318 5.140625q-0.921875 -0.03125 -0.953125 1.1875l-0.15625 7.640625q-0.015625 1.15625 0.953125 1.15625q0.859375 0 0.875 -1.234375l0.125 -7.578125q0.015625 -1.15625 -0.84375 -1.171875zm0.0625 -4.140625q-0.3125 0 -0.5625 0.171875q-0.234375 0.15625 -0.390625 0.421875q-0.15625 0.25 -0.15625 0.546875q0 0.3125 0.15625 0.578125q0.15625 0.25 0.40625 0.390625q0.234375 0.15625 0.515625 0.15625q0.03125 0 0.0625 0q0.28125 0.015625 0.5 -0.109375q0.21875 -0.09375 0.40625 -0.328125q0.203125 -0.265625 0.234375 -0.59375q0 -0.046875 0 -0.09375q0 -0.28125 -0.140625 -0.53125q-0.140625 -0.296875 -0.421875 -0.453125q-0.265625 -0.15625 -0.578125 -0.15625q-0.015625 0 -0.03125 0zm4.6663513 3.703125q-0.84375 0 -0.859375 0.84375l-0.203125 8.484375q-0.03125 0.96875 0.78125 0.984375q0.984375 0.015625 1.0 -0.96875l0.15625 -5.515625q1.4375 -1.453125 2.703125 -1.359375q1.515625 0.109375 1.453125 2.625l-0.109375 4.3125q-0.03125 1.109375 0.953125 1.015625q0.859375 -0.078125 0.875 -1.171875l0.078125 -4.5625q0.0625 -4.140625 -3.375 -4.140625q-1.546875 0 -2.546875 0.890625q0.015625 -0.265625 0.015625 -0.53125q0.03125 -0.90625 -0.921875 -0.90625zm9.843506 6.03125l6.125 -0.890625q0.96875 -0.140625 1.0 -1.25q0.046875 -1.40625 -1.0625 -2.5q-1.1875 -1.15625 -3.296875 -1.03125q-2.015625 0.125 -3.296875 1.953125q-1.015625 1.46875 -1.015625 3.34375q0 2.28125 1.625 3.609375q1.296875 1.078125 3.03125 1.09375q2.375 0.015625 3.828125 -1.28125q0.828125 -0.734375 0.40625 -1.578125q-0.1875 -0.359375 -0.625 -0.265625q-0.390625 0.078125 -1.0 0.75q-0.640625 0.71875 -2.5 0.734375q-1.265625 0.015625 -2.296875 -0.890625q-0.875 -0.78125 -0.921875 -1.796875zm0.203125 -1.515625q0.25 -0.890625 0.65625 -1.390625q0.90625 -1.125 2.171875 -1.125q0.890625 -0.015625 1.703125 0.5q0.6875 0.453125 0.828125 1.234375l-5.359375 0.78125z" fill-rule="nonzero"/><path fill="#000000" fill-opacity="0.0" d="m18.39895 56.965736l0 59.2126" fill-rule="evenodd"/><path stroke="#000000" stroke-width="3.0" stroke-linejoin="round" stroke-linecap="butt" d="m18.39895 56.965736l0 59.2126" fill-rule="evenodd"/><path fill="#000000" fill-opacity="0.0" d="m633.8714 56.965736l0 59.2126" fill-rule="evenodd"/><path stroke="#000000" stroke-width="3.0" stroke-linejoin="round" stroke-linecap="butt" d="m633.8714 56.965736l0 59.2126" fill-rule="evenodd"/><path fill="#000000" fill-opacity="0.0" d="m5.2493436E-7 -5.0942483l215.55905 0l0 64.62992l-215.55905 0z" fill-rule="evenodd"/><path fill="#000000" d="m10.968751 8.216375q-1.234375 0 -1.234375 0.859375q0 1.03125 1.15625 1.03125l2.15625 0l-0.265625 10.21875l-1.9375 0q-1.234375 -0.015625 -1.234375 0.859375q0 1.015625 1.15625 1.015625l6.656249 0q1.203125 0 1.171875 -0.890625q-0.015625 -0.984375 -1.109375 -0.984375l-2.921874 0l0.265625 -10.21875l2.718749 0q1.203125 0 1.1875 -0.90625q-0.03125 -0.984375 -1.125 -0.984375l-6.640624 0zm10.506026 3.640625q-0.84375 0 -0.859375 0.84375l-0.203125 8.484375q-0.03125 0.96875 0.78125 0.984375q0.984375 0.015625 1.0 -0.96875l0.15625 -5.515625q1.4375 -1.453125 2.703125 -1.359375q1.515625 0.109375 1.453125 2.625l-0.109375 4.3125q-0.03125 1.109375 0.953125 1.015625q0.859375 -0.078125 0.875 -1.171875l0.078125 -4.5625q0.0625 -4.140625 -3.375 -4.140625q-1.546875 0 -2.546875 0.890625q0.015625 -0.265625 0.015625 -0.53125q0.03125 -0.90625 -0.921875 -0.90625zm9.765381 0q-0.84375 0 -0.859375 0.84375l-0.203125 8.484375q-0.03125 0.96875 0.78125 0.984375q0.984375 0.015625 1.0 -0.96875l0.15625 -5.515625q1.4375 -1.453125 2.703125 -1.359375q1.515625 0.109375 1.453125 2.625l-0.109375 4.3125q-0.03125 1.109375 0.953125 1.015625q0.859375 -0.078125 0.875 -1.171875l0.078125 -4.5625q0.0625 -4.140625 -3.375 -4.140625q-1.546875 0 -2.546875 0.890625q0.015625 -0.265625 0.015625 -0.53125q0.03125 -0.90625 -0.921875 -0.90625zm9.843506 6.03125l6.125 -0.890625q0.96875 -0.140625 1.0 -1.25q0.046875 -1.40625 -1.0625 -2.5q-1.1875 -1.15625 -3.296875 -1.03125q-2.015625 0.125 -3.296875 1.953125q-1.015625 1.46875 -1.015625 3.34375q0 2.28125 1.625 3.609375q1.296875 1.078125 3.03125 1.09375q2.375 0.015625 3.828125 -1.28125q0.828125 -0.734375 0.40625 -1.578125q-0.1875 -0.359375 -0.625 -0.265625q-0.390625 0.078125 -1.0 0.75q-0.640625 0.71875 -2.5 0.734375q-1.265625 0.015625 -2.296875 -0.890625q-0.875 -0.78125 -0.921875 -1.796875zm0.203125 -1.515625q0.25 -0.890625 0.65625 -1.390625q0.90625 -1.125 2.171875 -1.125q0.890625 -0.015625 1.703125 0.5q0.6875 0.453125 0.828125 1.234375l-5.359375 0.78125zm9.939606 -4.515625q-0.84375 0 -0.859375 0.84375l-0.203125 8.53125q-0.03125 0.96875 0.78125 0.984375q0.953125 0.015625 0.984375 -0.96875l0.15625 -5.984375q0.859375 -0.84375 1.890625 -1.046875q1.046875 -0.203125 1.875 0.34375q1.046875 0.71875 1.453125 -0.453125q0.234375 -0.734375 -1.140625 -1.421875q-0.78125 -0.390625 -2.0 -0.375q-0.984375 0.015625 -2.015625 0.78125q0 -0.171875 0 -0.328125q0 -0.90625 -0.921875 -0.90625z" fill-rule="nonzero"/><path fill="#000000" d="m10.968751 30.616373q-1.234375 0 -1.234375 0.859375q0 1.0312481 1.15625 1.0312481l2.15625 0l-0.265625 10.21875l-1.9375 0q-1.234375 -0.015625 -1.234375 0.859375q0 1.015625 1.15625 1.015625l6.656249 0q1.203125 0 1.171875 -0.890625q-0.015625 -0.984375 -1.109375 -0.984375l-2.921874 0l0.265625 -10.21875l2.718749 0q1.203125 0 1.1875 -0.9062481q-0.03125 -0.984375 -1.125 -0.984375l-6.640624 0zm10.506026 3.640623q-0.84375 0 -0.859375 0.84375l-0.203125 8.484375q-0.03125 0.96875 0.78125 0.984375q0.984375 0.015625 1.0 -0.96875l0.15625 -5.515625q1.4375 -1.453125 2.703125 -1.359375q1.515625 0.109375 1.453125 2.625l-0.109375 4.3125q-0.03125 1.109375 0.953125 1.015625q0.859375 -0.078125 0.875 -1.171875l0.078125 -4.5625q0.0625 -4.140625 -3.375 -4.140625q-1.546875 0 -2.546875 0.890625q0.015625 -0.265625 0.015625 -0.53125q0.03125 -0.90625 -0.921875 -0.90625zm10.265381 0.4375q-0.921875 -0.03125 -0.953125 1.1875l-0.15625 7.640625q-0.015625 1.15625 0.953125 1.15625q0.859375 0 0.875 -1.234375l0.125 -7.578125q0.015625 -1.15625 -0.84375 -1.171875zm0.0625 -4.140623q-0.3125 0 -0.5625 0.171875q-0.234375 0.15625 -0.390625 0.421875q-0.15625 0.25 -0.15625 0.546875q0 0.3124981 0.15625 0.5781231q0.15625 0.25 0.40625 0.390625q0.234375 0.15625 0.515625 0.15625q0.03125 0 0.0625 0q0.28125 0.015625 0.5 -0.109375q0.21875 -0.09375 0.40625 -0.328125q0.203125 -0.265625 0.234375 -0.5937481q0 -0.046875 0 -0.09375q0 -0.28125 -0.140625 -0.53125q-0.140625 -0.296875 -0.421875 -0.453125q-0.265625 -0.15625 -0.578125 -0.15625q-0.015625 0 -0.03125 0zm6.8694763 -1.0q-0.828125 0 -0.84375 0.859375l-0.09375 4.296873q-1.0625 0.015625 -2.109375 0.015625q-0.859375 0 -0.859375 0.921875q0 0.890625 0.78125 0.890625q1.0625 0 2.140625 0l-0.171875 7.09375q-0.015625 0.96875 0.8125 0.984375q0.984375 0.015625 0.984375 -0.96875l0.15625 -7.109375q0.984375 0 1.953125 0q1.0625 0 1.0625 -0.9375q0 -0.90625 -1.125 -0.90625l-1.84375 0.015625q0.0625 -1.921875 0.078125 -4.249998q0 -0.90625 -0.921875 -0.90625zm7.0875397 5.140623q-0.921875 -0.03125 -0.953125 1.1875l-0.15625 7.640625q-0.015625 1.15625 0.953125 1.15625q0.859375 0 0.875 -1.234375l0.125 -7.578125q0.015625 -1.15625 -0.84375 -1.171875zm0.0625 -4.140623q-0.3125 0 -0.5625 0.171875q-0.234375 0.15625 -0.390625 0.421875q-0.15625 0.25 -0.15625 0.546875q0 0.3124981 0.15625 0.5781231q0.15625 0.25 0.40625 0.390625q0.234375 0.15625 0.515625 0.15625q0.03125 0 0.0625 0q0.28125 0.015625 0.5 -0.109375q0.21875 -0.09375 0.40625 -0.328125q0.203125 -0.265625 0.234375 -0.5937481q0 -0.046875 0 -0.09375q0 -0.28125 -0.140625 -0.53125q-0.140625 -0.296875 -0.421875 -0.453125q-0.265625 -0.15625 -0.578125 -0.15625q-0.015625 0 -0.03125 0zm6.9788513 14.187498q0.84375 -0.015625 2.734375 -0.96875q0.171875 1.203125 1.3125 0.96875q1.0 -0.203125 0.21875 -1.53125q-0.53125 -0.921875 -0.484375 -3.109375q0.046875 -2.734375 0.25 -3.875q0.21875 -1.171875 -0.875 -1.40625q-0.5625 -0.125 -0.828125 0.09375q-2.390625 -0.75 -4.578125 1.046875q-1.890625 1.546875 -1.875 4.40625q0.03125 4.375 4.125 4.375zm1.046875 -1.84375q-0.6875 0.265625 -1.484375 0.203125q-1.875 -0.125 -1.90625 -2.90625q0.078125 -2.140625 1.703125 -3.3125q0.40625 -0.3125 1.078125 -0.46875q0.96875 -0.234375 1.84375 0.3125q-0.421875 1.484375 -0.09375 5.390625q-0.8125 0.671875 -1.140625 0.78125zm6.640503 -13.343748q-0.828125 0.03125 -0.84375 0.859375l-0.3125 13.218748q-0.015625 0.96875 0.8125 0.984375q0.984375 0.015625 0.984375 -0.96875l0.28125 -13.187498q0.03125 -0.90625 -0.921875 -0.90625zm10.24794 1.0q-1.234375 0 -1.234375 0.8125q0 0.9531231 1.15625 0.9531231q2.140625 0 4.296875 -0.015625l-0.28125 11.453125q-0.015625 0.90625 0.796875 0.921875q0.96875 0.015625 1.0 -0.90625l0.265625 -11.46875l3.84375 -0.015625q1.21875 0 1.203125 -0.8281231q-0.03125 -0.90625 -1.203125 -0.90625l-9.84375 0zm13.164795 4.140623q-0.921875 -0.03125 -0.953125 1.1875l-0.15625 7.640625q-0.015625 1.15625 0.953125 1.15625q0.859375 0 0.875 -1.234375l0.125 -7.578125q0.015625 -1.15625 -0.84375 -1.171875zm0.0625 -4.140623q-0.3125 0 -0.5625 0.171875q-0.234375 0.15625 -0.390625 0.421875q-0.15625 0.25 -0.15625 0.546875q0 0.3124981 0.15625 0.5781231q0.15625 0.25 0.40625 0.390625q0.234375 0.15625 0.515625 0.15625q0.03125 0 0.0625 0q0.28125 0.015625 0.5 -0.109375q0.21875 -0.09375 0.40625 -0.328125q0.203125 -0.265625 0.234375 -0.5937481q0 -0.046875 0 -0.09375q0 -0.28125 -0.140625 -0.53125q-0.140625 -0.296875 -0.421875 -0.453125q-0.265625 -0.15625 -0.578125 -0.15625q-0.015625 0 -0.03125 0zm4.4944763 3.703123q-0.828125 0 -0.859375 0.84375l-0.203125 8.453125q-0.03125 0.96875 0.796875 0.984375q0.9375 0.03125 0.96875 -0.96875l0.15625 -5.03125q0.5 -1.90625 2.0625 -1.84375q1.40625 0.046875 1.359375 2.640625l-0.09375 4.1875q-0.03125 1.078125 0.90625 1.0q0.84375 -0.0625 0.875 -1.171875l0.109375 -4.5625q0.015625 -0.53125 0.03125 -0.5625q0.609375 -1.5625 2.28125 -1.515625q1.4375 0.03125 1.390625 2.734375l-0.046875 4.203125q-0.015625 1.09375 0.96875 1.0q0.859375 -0.0625 0.875 -1.171875l0.0625 -4.53125q0.0625 -4.140625 -3.390625 -4.140625q-1.859375 -0.015625 -2.796875 1.328125q-0.65625 -1.359375 -2.546875 -1.328125q-1.171875 0 -1.984375 0.734375l0.015625 -0.375q0.015625 -0.90625 -0.9375 -0.90625zm14.74321 6.03125l6.125 -0.890625q0.96875 -0.140625 1.0 -1.25q0.046875 -1.40625 -1.0625 -2.5q-1.1875 -1.15625 -3.296875 -1.03125q-2.015625 0.125 -3.296875 1.953125q-1.015625 1.46875 -1.015625 3.34375q0 2.28125 1.625 3.609375q1.296875 1.078125 3.03125 1.09375q2.375 0.015625 3.828125 -1.28125q0.828125 -0.734375 0.40625 -1.578125q-0.1875 -0.359375 -0.625 -0.265625q-0.390625 0.078125 -1.0 0.75q-0.640625 0.71875 -2.5 0.734375q-1.265625 0.015625 -2.296875 -0.890625q-0.875 -0.78125 -0.921875 -1.796875zm0.203125 -1.515625q0.25 -0.890625 0.65625 -1.390625q0.90625 -1.125 2.171875 -1.125q0.890625 -0.015625 1.703125 0.5q0.6875 0.453125 0.828125 1.234375l-5.359375 0.78125z" fill-rule="nonzero"/><path fill="#000000" fill-opacity="0.0" d="m599.4921 -4.1940737l215.55908 0l0 64.62992l-215.55908 0z" fill-rule="evenodd"/><path fill="#000000" d="m610.4609 9.1165495q-1.234375 0 -1.234375 0.859375q0 1.03125 1.15625 1.03125l2.15625 0l-0.265625 10.218751l-1.9375 0q-1.234375 -0.015625 -1.234375 0.859375q0 1.015625 1.15625 1.015625l6.65625 0q1.203125 0 1.171875 -0.890625q-0.015625 -0.984375 -1.109375 -0.984375l-2.921875 0l0.265625 -10.218751l2.71875 0q1.203125 0 1.1875 -0.90625q-0.03125 -0.984375 -1.125 -0.984375l-6.640625 0zm10.5060425 3.640625q-0.84375 0 -0.859375 0.84375l-0.203125 8.484376q-0.03125 0.96875 0.78125 0.984375q0.984375 0.015625 1.0 -0.96875l0.15625 -5.515625q1.4375 -1.453126 2.703125 -1.359376q1.515625 0.109375 1.453125 2.625001l-0.109375 4.3125q-0.03125 1.109375 0.953125 1.015625q0.859375 -0.078125 0.875 -1.171875l0.078125 -4.5625q0.0625 -4.140626 -3.375 -4.140626q-1.546875 0 -2.546875 0.890625q0.015625 -0.265625 0.015625 -0.53125q0.03125 -0.90625 -0.921875 -0.90625zm9.765381 0q-0.84375 0 -0.859375 0.84375l-0.203125 8.484376q-0.03125 0.96875 0.78125 0.984375q0.984375 0.015625 1.0 -0.96875l0.15625 -5.515625q1.4375 -1.453126 2.703125 -1.359376q1.515625 0.109375 1.453125 2.625001l-0.109375 4.3125q-0.03125 1.109375 0.953125 1.015625q0.859375 -0.078125 0.875 -1.171875l0.078125 -4.5625q0.0625 -4.140626 -3.375 -4.140626q-1.546875 0 -2.546875 0.890625q0.015625 -0.265625 0.015625 -0.53125q0.03125 -0.90625 -0.921875 -0.90625zm9.843506 6.031251l6.125 -0.890625q0.96875 -0.140625 1.0 -1.25q0.046875 -1.406251 -1.0625 -2.500001q-1.1875 -1.15625 -3.296875 -1.03125q-2.015625 0.125 -3.296875 1.953125q-1.015625 1.468751 -1.015625 3.343751q0 2.28125 1.625 3.609375q1.296875 1.078125 3.03125 1.09375q2.375 0.015625 3.828125 -1.28125q0.828125 -0.734375 0.40625 -1.578125q-0.1875 -0.359375 -0.625 -0.265625q-0.390625 0.078125 -1.0 0.75q-0.640625 0.71875 -2.5 0.734375q-1.265625 0.015625 -2.296875 -0.890625q-0.875 -0.78125 -0.921875 -1.796875zm0.203125 -1.515625q0.25 -0.890625 0.65625 -1.390626q0.90625 -1.125 2.171875 -1.125q0.890625 -0.015625 1.703125 0.5q0.6875 0.453125 0.828125 1.234376l-5.359375 0.78125zm9.939575 -4.515626q-0.84375 0 -0.859375 0.84375l-0.203125 8.531251q-0.03125 0.96875 0.78125 0.984375q0.953125 0.015625 0.984375 -0.96875l0.15625 -5.984375q0.859375 -0.84375095 1.890625 -1.046876q1.046875 -0.203125 1.875 0.34375q1.046875 0.71875095 1.453125 -0.453125q0.234375 -0.734375 -1.140625 -1.421875q-0.78125 -0.390625 -2.0 -0.375q-0.984375 0.015625 -2.015625 0.78125q0 -0.171875 0 -0.328125q0 -0.90625 -0.921875 -0.90625zm14.554382 -3.703125q-1.234375 0 -1.234375 0.8125q0 0.953125 1.15625 0.953125q2.140625 0 4.296875 -0.015625l-0.28125 11.453126q-0.015625 0.90625 0.796875 0.921875q0.96875 0.015625 1.0 -0.90625l0.265625 -11.468751l3.84375 -0.015625q1.21875 0 1.203125 -0.828125q-0.03125 -0.90625 -1.203125 -0.90625l-9.84375 0zm12.74292 9.734376l6.125 -0.890625q0.96875 -0.140625 1.0 -1.25q0.046875 -1.406251 -1.0625 -2.500001q-1.1875 -1.15625 -3.296875 -1.03125q-2.015625 0.125 -3.296875 1.953125q-1.015625 1.468751 -1.015625 3.343751q0 2.28125 1.625 3.609375q1.296875 1.078125 3.03125 1.09375q2.375 0.015625 3.828125 -1.28125q0.828125 -0.734375 0.40625 -1.578125q-0.1875 -0.359375 -0.625 -0.265625q-0.390625 0.078125 -1.0 0.75q-0.640625 0.71875 -2.5 0.734375q-1.265625 0.015625 -2.296875 -0.890625q-0.875 -0.78125 -0.921875 -1.796875zm0.203125 -1.515625q0.25 -0.890625 0.65625 -1.390626q0.90625 -1.125 2.171875 -1.125q0.890625 -0.015625 1.703125 0.5q0.6875 0.453125 0.828125 1.234376l-5.359375 0.78125zm9.939636 -4.515626q-0.84375 0 -0.859375 0.84375l-0.203125 8.531251q-0.03125 0.96875 0.78125 0.984375q0.953125 0.015625 0.984375 -0.96875l0.15625 -5.984375q0.859375 -0.84375095 1.890625 -1.046876q1.046875 -0.203125 1.875 0.34375q1.046875 0.71875095 1.453125 -0.453125q0.234375 -0.734375 -1.140625 -1.421875q-0.78125 -0.390625 -2.0 -0.375q-0.984375 0.015625 -2.015625 0.78125q0 -0.171875 0 -0.328125q0 -0.90625 -0.921875 -0.90625zm8.79187 0q-0.828125 0 -0.859375 0.84375l-0.203125 8.453126q-0.03125 0.96875 0.796875 0.984375q0.9375 0.03125 0.96875 -0.96875l0.15625 -5.03125q0.5 -1.906251 2.0625 -1.843751q1.40625 0.046875 1.359375 2.640626l-0.09375 4.1875q-0.03125 1.078125 0.90625 1.0q0.84375 -0.0625 0.875 -1.171875l0.109375 -4.5625q0.015625 -0.53125 0.03125 -0.5625q0.609375 -1.562501 2.28125 -1.515626q1.4375 0.03125 1.390625 2.734376l-0.046875 4.203125q-0.015625 1.09375 0.96875 1.0q0.859375 -0.0625 0.875 -1.171875l0.0625 -4.53125q0.0625 -4.140626 -3.390625 -4.140626q-1.859375 -0.015625 -2.796875 1.328125q-0.65625 -1.359375 -2.546875 -1.328125q-1.171875 0 -1.984375 0.734375l0.015625 -0.375q0.015625 -0.90625 -0.9375 -0.90625zm15.1651 0.4375q-0.921875 -0.03125 -0.953125 1.1875l-0.15625 7.640626q-0.015625 1.15625 0.953125 1.15625q0.859375 0 0.875 -1.234375l0.125 -7.578126q0.015625 -1.15625 -0.84375 -1.171875zm0.0625 -4.140625q-0.3125 0 -0.5625 0.171875q-0.234375 0.15625 -0.390625 0.421875q-0.15625 0.25 -0.15625 0.546875q0 0.3125 0.15625 0.578125q0.15625 0.25 0.40625 0.390625q0.234375 0.15625 0.515625 0.15625q0.03125 0 0.0625 0q0.28125 0.015625 0.5 -0.109375q0.21875 -0.09375 0.40625 -0.328125q0.203125 -0.265625 0.234375 -0.59375q0 -0.046875 0 -0.09375q0 -0.28125 -0.140625 -0.53125q-0.140625 -0.296875 -0.421875 -0.453125q-0.265625 -0.15625 -0.578125 -0.15625q-0.015625 0 -0.03125 0zm4.666321 3.703125q-0.84375 0 -0.859375 0.84375l-0.203125 8.484376q-0.03125 0.96875 0.78125 0.984375q0.984375 0.015625 1.0 -0.96875l0.15625 -5.515625q1.4375 -1.453126 2.703125 -1.359376q1.515625 0.109375 1.453125 2.625001l-0.109375 4.3125q-0.03125 1.109375 0.953125 1.015625q0.859375 -0.078125 0.875 -1.171875l0.078125 -4.5625q0.0625 -4.140626 -3.375 -4.140626q-1.546875 0 -2.546875 0.890625q0.015625 -0.265625 0.015625 -0.53125q0.03125 -0.90625 -0.921875 -0.90625zm12.077881 10.484376q0.84375 -0.015625 2.734375 -0.96875q0.171875 1.203125 1.3125 0.96875q1.0 -0.203125 0.21875 -1.53125q-0.53125 -0.921875 -0.484375 -3.109375q0.046875 -2.734376 0.25 -3.875001q0.21875 -1.171875 -0.875 -1.40625q-0.5625 -0.125 -0.828125 0.09375q-2.390625 -0.75 -4.578125 1.046875q-1.890625 1.546876 -1.875 4.406251q0.03125 4.375 4.125 4.375zm1.046875 -1.84375q-0.6875 0.265625 -1.484375 0.203125q-1.875 -0.125 -1.90625 -2.90625q0.078125 -2.140625 1.703125 -3.312501q0.40625 -0.3125 1.078125 -0.46875q0.96875 -0.234375 1.84375 0.3125q-0.421875 1.484376 -0.09375 5.390626q-0.8125 0.671875 -1.140625 0.78125zm8.390503 -13.343751q-0.828125 0 -0.84375 0.859375l-0.09375 4.296875q-1.0625 0.015625 -2.109375 0.015625q-0.859375 0 -0.859375 0.921875q0 0.890625 0.78125 0.890625q1.0625 0 2.140625 0l-0.171875 7.093751q-0.015625 0.96875 0.8125 0.984375q0.984375 0.015625 0.984375 -0.96875l0.15625 -7.109376q0.984375 0 1.953125 0q1.0625 0 1.0625 -0.9375q0 -0.90625 -1.125 -0.90625l-1.84375 0.015625q0.0625 -1.921875 0.078125 -4.25q0 -0.90625 -0.921875 -0.90625zm7.0875244 5.140625q-0.921875 -0.03125 -0.953125 1.1875l-0.15625 7.640626q-0.015625 1.15625 0.953125 1.15625q0.859375 0 0.875 -1.234375l0.125 -7.578126q0.015625 -1.15625 -0.84375 -1.171875zm0.0625 -4.140625q-0.3125 0 -0.5625 0.171875q-0.234375 0.15625 -0.390625 0.421875q-0.15625 0.25 -0.15625 0.546875q0 0.3125 0.15625 0.578125q0.15625 0.25 0.40625 0.390625q0.234375 0.15625 0.515625 0.15625q0.03125 0 0.0625 0q0.28125 0.015625 0.5 -0.109375q0.21875 -0.09375 0.40625 -0.328125q0.203125 -0.265625 0.234375 -0.59375q0 -0.046875 0 -0.09375q0 -0.28125 -0.140625 -0.53125q-0.140625 -0.296875 -0.421875 -0.453125q-0.265625 -0.15625 -0.578125 -0.15625q-0.015625 0 -0.03125 0zm7.619507 5.96875q1.921875 -0.03125 1.90625 3.218751q-0.015625 1.703125 -0.734375 2.484375q-0.671875 0.71875 -1.671875 0.71875q-0.875 0 -1.546875 -0.71875q-0.65625 -0.71875 -0.65625 -2.140625q0 -1.484375 0.90625 -2.734376q0.59375 -0.796875 1.796875 -0.828125zm-0.078125 -1.859375q-1.984375 -0.015625 -3.1875 1.578125q-1.21875 1.593751 -1.21875 3.671876q0 2.203125 1.015625 3.40625q1.125 1.34375 2.75 1.359375q2.25 0.015625 3.34375 -1.375q0.96875 -1.171875 0.984375 -3.390625q0 -5.218751 -3.6875 -5.250001zm6.935913 -0.40625q-0.84375 0 -0.859375 0.84375l-0.203125 8.484376q-0.03125 0.96875 0.78125 0.984375q0.984375 0.015625 1.0 -0.96875l0.15625 -5.515625q1.4375 -1.453126 2.703125 -1.359376q1.515625 0.109375 1.453125 2.625001l-0.109375 4.3125q-0.03125 1.109375 0.953125 1.015625q0.859375 -0.078125 0.875 -1.171875l0.078125 -4.5625q0.0625 -4.140626 -3.375 -4.140626q-1.546875 0 -2.546875 0.890625q0.015625 -0.265625 0.015625 -0.53125q0.03125 -0.90625 -0.921875 -0.90625z" fill-rule="nonzero"/><path fill="#000000" d="m613.4609 33.7978q1.03125 -0.6875 2.25 -0.40625q0.8125 0.1875 1.4375 0.609375q0.6875 0.46875 1.328125 -0.125q0.359375 -0.34375 0.3125 -1.015625q-0.03125 -0.515625 -1.1875 -1.109375q-1.515625 -0.765625 -3.421875 -0.46875q-1.984375 0.3125 -3.765625 2.828125q-1.21875 1.734375 -1.21875 5.109375q-0.015625 2.8125 1.3125 4.5625q1.3125 1.71875 3.515625 1.796875q1.6875 0.0625 3.125 -0.53125q1.765625 -0.71875 1.84375 -1.421875q0.125 -1.21875 -0.75 -1.390625q-0.515625 -0.109375 -1.8125 0.71875q-0.890625 0.59375 -2.53125 0.5q-1.15625 -0.046875 -1.859375 -1.09375q-0.859375 -1.328125 -0.859375 -3.359375q0 -2.203125 0.75 -3.5q0.65625 -1.140625 1.53125 -1.703125zm11.506775 3.625q1.921875 -0.03125 1.90625 3.21875q-0.015625 1.703125 -0.734375 2.484375q-0.671875 0.71875 -1.671875 0.71875q-0.875 0 -1.546875 -0.71875q-0.65625 -0.71875 -0.65625 -2.140625q0 -1.484375 0.90625 -2.734375q0.59375 -0.796875 1.796875 -0.828125zm-0.078125 -1.859375q-1.984375 -0.015625 -3.1875 1.578125q-1.21875 1.59375 -1.21875 3.671875q0 2.203125 1.015625 3.40625q1.125 1.34375 2.75 1.359375q2.25 0.015625 3.34375 -1.375q0.96875 -1.171875 0.984375 -3.390625q0 -5.21875 -3.6875 -5.25zm6.935913 -0.40625q-0.84375 0 -0.859375 0.84375l-0.203125 8.484375q-0.03125 0.96875 0.78125 0.984375q0.984375 0.015625 1.0 -0.96875l0.15625 -5.515625q1.4375 -1.453125 2.703125 -1.359375q1.515625 0.109375 1.453125 2.625l-0.109375 4.3125q-0.03125 1.109375 0.953125 1.015625q0.859375 -0.078125 0.875 -1.171875l0.078125 -4.5625q0.0625 -4.140625 -3.375 -4.140625q-1.546875 0 -2.546875 0.890625q0.015625 -0.265625 0.015625 -0.53125q0.03125 -0.90625 -0.921875 -0.90625zm16.60913 -4.703125q-0.8125 0.03125 -0.828125 0.859375l-0.140625 5.25q-0.34375 -0.25 -0.78125 -0.5q-0.8125 -0.453125 -1.90625 -0.453125q-2.046875 0 -3.3125 1.546875q-1.34375 1.65625 -1.25 4.078125q0.0625 1.796875 1.421875 3.140625q1.203125 1.203125 2.78125 1.203125q1.53125 0.015625 2.875 -0.84375q0.0625 0.765625 0.796875 0.78125q0.984375 0.015625 1.0 -0.96875l0.28125 -13.1875q0.015625 -0.90625 -0.9375 -0.90625zm-1.109375 12.21875q-1.625 1.28125 -2.90625 1.125q-1.203125 -0.125 -1.828125 -0.953125q-0.78125 -1.0 -0.765625 -2.046875q0.046875 -1.609375 0.765625 -2.515625q0.515625 -0.625 1.65625 -0.90625q1.5625 -0.390625 3.171875 1.28125q0 2.125 -0.09375 4.015625zm5.724365 -7.078125q-0.921875 -0.03125 -0.953125 1.1875l-0.15625 7.640625q-0.015625 1.15625 0.953125 1.15625q0.859375 0 0.875 -1.234375l0.125 -7.578125q0.015625 -1.15625 -0.84375 -1.171875zm0.0625 -4.140625q-0.3125 0 -0.5625 0.171875q-0.234375 0.15625 -0.390625 0.421875q-0.15625 0.25 -0.15625 0.546875q0 0.3125 0.15625 0.578125q0.15625 0.25 0.40625 0.390625q0.234375 0.15625 0.515625 0.15625q0.03125 0 0.0625 0q0.28125 0.015625 0.5 -0.109375q0.21875 -0.09375 0.40625 -0.328125q0.203125 -0.265625 0.234375 -0.59375q0 -0.046875 0 -0.09375q0 -0.28125 -0.140625 -0.53125q-0.140625 -0.296875 -0.421875 -0.453125q-0.265625 -0.15625 -0.578125 -0.15625q-0.015625 0 -0.03125 0zm6.869446 -1.0q-0.828125 0 -0.84375 0.859375l-0.09375 4.296875q-1.0625 0.015625 -2.109375 0.015625q-0.859375 0 -0.859375 0.921875q0 0.890625 0.78125 0.890625q1.0625 0 2.140625 0l-0.171875 7.09375q-0.015625 0.96875 0.8125 0.984375q0.984375 0.015625 0.984375 -0.96875l0.15625 -7.109375q0.984375 0 1.953125 0q1.0625 0 1.0625 -0.9375q0 -0.90625 -1.125 -0.90625l-1.84375 0.015625q0.0625 -1.921875 0.078125 -4.25q0 -0.90625 -0.921875 -0.90625zm7.0875244 5.140625q-0.921875 -0.03125 -0.953125 1.1875l-0.15625 7.640625q-0.015625 1.15625 0.953125 1.15625q0.859375 0 0.875 -1.234375l0.125 -7.578125q0.015625 -1.15625 -0.84375 -1.171875zm0.0625 -4.140625q-0.3125 0 -0.5625 0.171875q-0.234375 0.15625 -0.390625 0.421875q-0.15625 0.25 -0.15625 0.546875q0 0.3125 0.15625 0.578125q0.15625 0.25 0.40625 0.390625q0.234375 0.15625 0.515625 0.15625q0.03125 0 0.0625 0q0.28125 0.015625 0.5 -0.109375q0.21875 -0.09375 0.40625 -0.328125q0.203125 -0.265625 0.234375 -0.59375q0 -0.046875 0 -0.09375q0 -0.28125 -0.140625 -0.53125q-0.140625 -0.296875 -0.421875 -0.453125q-0.265625 -0.15625 -0.578125 -0.15625q-0.015625 0 -0.03125 0zm7.619507 5.96875q1.921875 -0.03125 1.90625 3.21875q-0.015625 1.703125 -0.734375 2.484375q-0.671875 0.71875 -1.671875 0.71875q-0.875 0 -1.546875 -0.71875q-0.65625 -0.71875 -0.65625 -2.140625q0 -1.484375 0.90625 -2.734375q0.59375 -0.796875 1.796875 -0.828125zm-0.078125 -1.859375q-1.984375 -0.015625 -3.1875 1.578125q-1.21875 1.59375 -1.21875 3.671875q0 2.203125 1.015625 3.40625q1.125 1.34375 2.75 1.359375q2.25 0.015625 3.34375 -1.375q0.96875 -1.171875 0.984375 -3.390625q0 -5.21875 -3.6875 -5.25zm6.935913 -0.40625q-0.84375 0 -0.859375 0.84375l-0.203125 8.484375q-0.03125 0.96875 0.78125 0.984375q0.984375 0.015625 1.0 -0.96875l0.15625 -5.515625q1.4375 -1.453125 2.703125 -1.359375q1.515625 0.109375 1.453125 2.625l-0.109375 4.3125q-0.03125 1.109375 0.953125 1.015625q0.859375 -0.078125 0.875 -1.171875l0.078125 -4.5625q0.0625 -4.140625 -3.375 -4.140625q-1.546875 0 -2.546875 0.890625q0.015625 -0.265625 0.015625 -0.53125q0.03125 -0.90625 -0.921875 -0.90625zm20.996643 10.140625q0.828125 0.0625 1.390625 -1.59375l2.671875 -7.8125l1.59375 8.265625q0.3125 1.578125 1.359375 1.453125q0.984375 -0.125 0.71875 -1.421875l-2.359375 -11.390625q-0.3125 -1.53125 -1.15625 -1.546875q-0.921875 -0.03125 -1.375 1.484375l-2.734375 8.90625q-2.21875 -9.359375 -2.21875 -9.359375q-0.234375 -0.984375 -1.09375 -0.859375q-0.828125 0.125 -1.125 1.359375l-2.515625 10.734375q-0.328125 1.421875 0.53125 1.90625q0.96875 0.546875 1.265625 -0.890625l1.921875 -8.515625l1.953125 7.796875q0.34375 1.4375 1.171875 1.484375q0 0 0 0zm10.891846 -4.109375l6.125 -0.890625q0.96875 -0.140625 1.0 -1.25q0.046875 -1.40625 -1.0625 -2.5q-1.1875 -1.15625 -3.296875 -1.03125q-2.015625 0.125 -3.296875 1.953125q-1.015625 1.46875 -1.015625 3.34375q0 2.28125 1.625 3.609375q1.296875 1.078125 3.03125 1.09375q2.375 0.015625 3.828125 -1.28125q0.828125 -0.734375 0.40625 -1.578125q-0.1875 -0.359375 -0.625 -0.265625q-0.390625 0.078125 -1.0 0.75q-0.640625 0.71875 -2.5 0.734375q-1.265625 0.015625 -2.296875 -0.890625q-0.875 -0.78125 -0.921875 -1.796875zm0.203125 -1.515625q0.25 -0.890625 0.65625 -1.390625q0.90625 -1.125 2.171875 -1.125q0.890625 -0.015625 1.703125 0.5q0.6875 0.453125 0.828125 1.234375l-5.359375 0.78125zm12.142761 -9.21875q-0.828125 0 -0.84375 0.859375l-0.09375 4.296875q-1.0625 0.015625 -2.109375 0.015625q-0.859375 0 -0.859375 0.921875q0 0.890625 0.78125 0.890625q1.0625 0 2.140625 0l-0.171875 7.09375q-0.015625 0.96875 0.8125 0.984375q0.984375 0.015625 0.984375 -0.96875l0.15625 -7.109375q0.984375 0 1.953125 0q1.0625 0 1.0625 -0.9375q0 -0.90625 -1.125 -0.90625l-1.84375 0.015625q0.0625 -1.921875 0.078125 -4.25q0 -0.90625 -0.921875 -0.90625z" fill-rule="nonzero"/><path fill="#000000" fill-opacity="0.0" d="m243.70045 289.2387l596.7874 0" fill-rule="evenodd"/><path stroke="#000000" stroke-width="3.0" stroke-linejoin="round" stroke-linecap="butt" d="m243.70045 289.2387l586.50616 0" fill-rule="evenodd"/><path fill="#000000" stroke="#000000" stroke-width="3.0" stroke-linecap="butt" d="m830.2066 289.2387l-3.3737793 3.3737488l9.269348 -3.3737488l-9.269348 -3.3737488z" fill-rule="evenodd"/><path fill="#000000" fill-opacity="0.0" d="m418.91983 301.60104l295.08658 0l0 42.015747l-295.08658 0z" fill-rule="evenodd"/><path fill="#000000" d="m436.62296 316.56793q3.625 0.234375 3.578125 3.953125q-0.03125 2.9375 -2.046875 5.359375q-1.109375 1.34375 -3.0625 1.34375q-2.015625 0 -3.203125 -1.234375q-1.015625 -1.046875 -1.015625 -2.703125q0 -3.296875 2.21875 -5.421875q1.5 -1.4375 3.53125 -1.296875zm-0.109375 -1.828125q-3.265625 -0.03125 -5.171875 2.171875q-2.375 2.765625 -2.375 6.390625q0 2.3125 1.3125 3.765625q1.84375 2.03125 4.8125 2.03125q2.84375 0 4.71875 -2.265625q2.203125 -2.640625 2.21875 -6.3125q0.015625 -5.703125 -5.515625 -5.78125zm14.128387 14.46875q0.828125 0 0.84375 -0.84375l0.21875 -8.5q0.015625 -0.984375 -0.796875 -1.015625q-0.96875 0 -1.0 0.984375l-0.109375 4.609375q-0.046875 1.484375 -1.234375 2.09375q-1.296875 0.65625 -2.25 0.015625q-0.6875 -0.484375 -0.671875 -2.6875l0.015625 -3.984375q0.015625 -1.09375 -0.953125 -1.0q-0.859375 0.078125 -0.875 1.171875l-0.03125 4.46875q-0.03125 4.140625 3.390625 4.15625q1.546875 0 2.546875 -0.90625l-0.015625 0.546875q-0.015625 0.890625 0.921875 0.890625zm6.3578796 -15.359375q-0.828125 0 -0.84375 0.859375l-0.09375 4.296875q-1.0625 0.015625 -2.109375 0.015625q-0.859375 0 -0.859375 0.921875q0 0.890625 0.78125 0.890625q1.0625 0 2.140625 0l-0.171875 7.09375q-0.015625 0.96875 0.8125 0.984375q0.984375 0.015625 0.984375 -0.96875l0.15625 -7.109375q0.984375 0 1.953125 0q1.0625 0 1.0625 -0.9375q0 -0.90625 -1.125 -0.90625l-1.84375 0.015625q0.0625 -1.921875 0.078125 -4.25q0 -0.90625 -0.921875 -0.90625zm6.6656494 10.734375l6.125 -0.890625q0.96875 -0.140625 1.0 -1.25q0.046875 -1.40625 -1.0625 -2.5q-1.1875 -1.15625 -3.296875 -1.03125q-2.015625 0.125 -3.296875 1.953125q-1.015625 1.46875 -1.015625 3.34375q0 2.28125 1.625 3.609375q1.296875 1.078125 3.03125 1.09375q2.375 0.015625 3.828125 -1.28125q0.828125 -0.734375 0.40625 -1.578125q-0.1875 -0.359375 -0.625 -0.265625q-0.390625 0.078125 -1.0 0.75q-0.640625 0.71875 -2.5 0.734375q-1.265625 0.015625 -2.296875 -0.890625q-0.875 -0.78125 -0.921875 -1.796875zm0.203125 -1.515625q0.25 -0.890625 0.65625 -1.390625q0.90625 -1.125 2.171875 -1.125q0.890625 -0.015625 1.703125 0.5q0.6875 0.453125 0.828125 1.234375l-5.359375 0.78125zm9.939606 -4.515625q-0.84375 0 -0.859375 0.84375l-0.203125 8.53125q-0.03125 0.96875 0.78125 0.984375q0.953125 0.015625 0.984375 -0.96875l0.15625 -5.984375q0.859375 -0.84375 1.890625 -1.046875q1.046875 -0.203125 1.875 0.34375q1.046875 0.71875 1.453125 -0.453125q0.234375 -0.734375 -1.140625 -1.421875q-0.78125 -0.390625 -2.0 -0.375q-0.984375 0.015625 -2.015625 0.78125q0 -0.171875 0 -0.328125q0 -0.90625 -0.921875 -0.90625zm14.913757 -1.3125q-0.8125 1.375 -0.453125 2.8125q0.625 2.546875 4.015625 2.5q3.484375 -0.0625 3.859375 1.265625q0.34375 1.265625 -0.875 2.4375q-0.625 0.609375 -2.375 0.921875q-0.984375 0.171875 -2.15625 -0.109375q-0.875 -0.203125 -1.484375 -0.75q-0.78125 -0.671875 -1.296875 -0.53125q-0.453125 0.140625 -0.546875 0.734375q-0.0625 0.546875 0.65625 1.203125q0.515625 0.4375 1.25 0.75q1.078125 0.453125 2.71875 0.4375q2.21875 -0.015625 3.71875 -0.875q2.25 -1.296875 2.375 -3.5625q0.078125 -1.46875 -1.0625 -2.65625q-0.921875 -0.9375 -2.875 -1.0q-2.1875 -0.0625 -2.75 -0.15625q-1.46875 -0.203125 -1.3125 -1.84375q0.078125 -0.828125 0.953125 -1.5q0.8125 -0.640625 2.328125 -0.734375q0.984375 -0.046875 2.25 0.4375q0.890625 0.34375 1.234375 0.1875q0.515625 -0.25 0.484375 -0.71875q-0.03125 -0.5625 -1.359375 -1.15625q-0.9375 -0.40625 -2.28125 -0.453125q-1.515625 -0.0625 -2.828125 0.578125q-1.578125 0.75 -2.1875 1.78125zm13.060486 1.75q-0.921875 -0.03125 -0.953125 1.1875l-0.15625 7.640625q-0.015625 1.15625 0.953125 1.15625q0.859375 0 0.875 -1.234375l0.125 -7.578125q0.015625 -1.15625 -0.84375 -1.171875zm0.0625 -4.140625q-0.3125 0 -0.5625 0.171875q-0.234375 0.15625 -0.390625 0.421875q-0.15625 0.25 -0.15625 0.546875q0 0.3125 0.15625 0.578125q0.15625 0.25 0.40625 0.390625q0.234375 0.15625 0.515625 0.15625q0.03125 0 0.0625 0q0.28125 0.015625 0.5 -0.109375q0.21875 -0.09375 0.40625 -0.328125q0.203125 -0.265625 0.234375 -0.59375q0 -0.046875 0 -0.09375q0 -0.28125 -0.140625 -0.53125q-0.140625 -0.296875 -0.421875 -0.453125q-0.265625 -0.15625 -0.578125 -0.15625q-0.015625 0 -0.03125 0zm4.4944763 3.703125q-0.828125 0 -0.859375 0.84375l-0.203125 8.453125q-0.03125 0.96875 0.796875 0.984375q0.9375 0.03125 0.96875 -0.96875l0.15625 -5.03125q0.5 -1.90625 2.0625 -1.84375q1.40625 0.046875 1.359375 2.640625l-0.09375 4.1875q-0.03125 1.078125 0.90625 1.0q0.8437805 -0.0625 0.8750305 -1.171875l0.109375 -4.5625q0.015625 -0.53125 0.03125 -0.5625q0.609375 -1.5625 2.28125 -1.515625q1.4375 0.03125 1.390625 2.734375l-0.046875 4.203125q-0.015625 1.09375 0.96875 1.0q0.859375 -0.0625 0.875 -1.171875l0.0625 -4.53125q0.0625 -4.140625 -3.390625 -4.140625q-1.859375 -0.015625 -2.7969055 1.328125q-0.65625 -1.359375 -2.546875 -1.328125q-1.171875 0 -1.984375 0.734375l0.015625 -0.375q0.015625 -0.90625 -0.9375 -0.90625zm20.211945 10.65625q0.828125 0 0.84375 -0.84375l0.21875 -8.5q0.015625 -0.984375 -0.796875 -1.015625q-0.96875 0 -1.0 0.984375l-0.109375 4.609375q-0.046875 1.484375 -1.234375 2.09375q-1.296875 0.65625 -2.25 0.015625q-0.6875 -0.484375 -0.671875 -2.6875l0.015625 -3.984375q0.015625 -1.09375 -0.953125 -1.0q-0.859375 0.078125 -0.875 1.171875l-0.03125 4.46875q-0.03125 4.140625 3.390625 4.15625q1.546875 0 2.546875 -0.90625l-0.015625 0.546875q-0.015625 0.890625 0.921875 0.890625zm4.60791 -15.359375q-0.828125 0.03125 -0.84375 0.859375l-0.3125 13.21875q-0.015625 0.96875 0.8125 0.984375q0.984375 0.015625 0.984375 -0.96875l0.28125 -13.1875q0.03125 -0.90625 -0.921875 -0.90625zm6.9697876 15.1875q0.84375 -0.015625 2.734375 -0.96875q0.171875 1.203125 1.3125 0.96875q1.0 -0.203125 0.21875 -1.53125q-0.53125 -0.921875 -0.484375 -3.109375q0.046875 -2.734375 0.25 -3.875q0.21875 -1.171875 -0.875 -1.40625q-0.5625 -0.125 -0.828125 0.09375q-2.390625 -0.75 -4.578125 1.046875q-1.890625 1.546875 -1.875 4.40625q0.03125 4.375 4.125 4.375zm1.046875 -1.84375q-0.6875 0.265625 -1.484375 0.203125q-1.875 -0.125 -1.90625 -2.90625q0.078125 -2.140625 1.703125 -3.3125q0.40625 -0.3125 1.078125 -0.46875q0.96875 -0.234375 1.84375 0.3125q-0.421875 1.484375 -0.09375 5.390625q-0.8125 0.671875 -1.140625 0.78125zm8.390503 -13.34375q-0.828125 0 -0.84375 0.859375l-0.09375 4.296875q-1.0625 0.015625 -2.109375 0.015625q-0.859375 0 -0.859375 0.921875q0 0.890625 0.78125 0.890625q1.0625 0 2.140625 0l-0.171875 7.09375q-0.015625 0.96875 0.8125 0.984375q0.984375 0.015625 0.984375 -0.96875l0.15625 -7.109375q0.984375 0 1.953125 0q1.0625 0 1.0625 -0.9375q0 -0.90625 -1.125 -0.90625l-1.84375 0.015625q0.0625 -1.921875 0.078125 -4.25q0 -0.90625 -0.921875 -0.90625zm7.0875244 5.140625q-0.921875 -0.03125 -0.953125 1.1875l-0.15625 7.640625q-0.015625 1.15625 0.953125 1.15625q0.859375 0 0.875 -1.234375l0.125 -7.578125q0.015625 -1.15625 -0.84375 -1.171875zm0.0625 -4.140625q-0.3125 0 -0.5625 0.171875q-0.234375 0.15625 -0.390625 0.421875q-0.15625 0.25 -0.15625 0.546875q0 0.3125 0.15625 0.578125q0.15625 0.25 0.40625 0.390625q0.234375 0.15625 0.515625 0.15625q0.03125 0 0.0625 0q0.28125 0.015625 0.5 -0.109375q0.21875 -0.09375 0.40625 -0.328125q0.203125 -0.265625 0.234375 -0.59375q0 -0.046875 0 -0.09375q0 -0.28125 -0.140625 -0.53125q-0.140625 -0.296875 -0.421875 -0.453125q-0.265625 -0.15625 -0.578125 -0.15625q-0.015625 0 -0.03125 0zm7.619507 5.96875q1.921875 -0.03125 1.90625 3.21875q-0.015625 1.703125 -0.734375 2.484375q-0.671875 0.71875 -1.671875 0.71875q-0.875 0 -1.546875 -0.71875q-0.65625 -0.71875 -0.65625 -2.140625q0 -1.484375 0.90625 -2.734375q0.59375 -0.796875 1.796875 -0.828125zm-0.078125 -1.859375q-1.984375 -0.015625 -3.1875 1.578125q-1.21875 1.59375 -1.21875 3.671875q0 2.203125 1.015625 3.40625q1.125 1.34375 2.75 1.359375q2.25 0.015625 3.34375 -1.375q0.96875 -1.171875 0.984375 -3.390625q0 -5.21875 -3.6875 -5.25zm6.935913 -0.40625q-0.84375 0 -0.859375 0.84375l-0.203125 8.484375q-0.03125 0.96875 0.78125 0.984375q0.984375 0.015625 1.0 -0.96875l0.15625 -5.515625q1.4375 -1.453125 2.703125 -1.359375q1.515625 0.109375 1.453125 2.625l-0.109375 4.3125q-0.03125 1.109375 0.953125 1.015625q0.859375 -0.078125 0.875 -1.171875l0.078125 -4.5625q0.0625 -4.140625 -3.375 -4.140625q-1.546875 0 -2.546875 0.890625q0.015625 -0.265625 0.015625 -0.53125q0.03125 -0.90625 -0.921875 -0.90625zm15.356018 -3.703125q-1.234375 0 -1.234375 0.8125q0 0.953125 1.15625 0.953125q2.140625 0 4.296875 -0.015625l-0.28125 11.453125q-0.015625 0.90625 0.796875 0.921875q0.96875 0.015625 1.0 -0.90625l0.265625 -11.46875l3.84375 -0.015625q1.21875 0 1.203125 -0.828125q-0.03125 -0.90625 -1.203125 -0.90625l-9.84375 0zm13.164795 4.140625q-0.921875 -0.03125 -0.953125 1.1875l-0.15625 7.640625q-0.015625 1.15625 0.953125 1.15625q0.859375 0 0.875 -1.234375l0.125 -7.578125q0.015625 -1.15625 -0.84375 -1.171875zm0.0625 -4.140625q-0.3125 0 -0.5625 0.171875q-0.234375 0.15625 -0.390625 0.421875q-0.15625 0.25 -0.15625 0.546875q0 0.3125 0.15625 0.578125q0.15625 0.25 0.40625 0.390625q0.234375 0.15625 0.515625 0.15625q0.03125 0 0.0625 0q0.28125 0.015625 0.5 -0.109375q0.21875 -0.09375 0.40625 -0.328125q0.203125 -0.265625 0.234375 -0.59375q0 -0.046875 0 -0.09375q0 -0.28125 -0.140625 -0.53125q-0.140625 -0.296875 -0.421875 -0.453125q-0.265625 -0.15625 -0.578125 -0.15625q-0.015625 0 -0.03125 0zm4.494446 3.703125q-0.828125 0 -0.859375 0.84375l-0.203125 8.453125q-0.03125 0.96875 0.796875 0.984375q0.9375 0.03125 0.96875 -0.96875l0.15625 -5.03125q0.5 -1.90625 2.0625 -1.84375q1.40625 0.046875 1.359375 2.640625l-0.09375 4.1875q-0.03125 1.078125 0.90625 1.0q0.84375 -0.0625 0.875 -1.171875l0.109375 -4.5625q0.015625 -0.53125 0.03125 -0.5625q0.609375 -1.5625 2.28125 -1.515625q1.4375 0.03125 1.390625 2.734375l-0.046875 4.203125q-0.015625 1.09375 0.96875 1.0q0.859375 -0.0625 0.875 -1.171875l0.0625 -4.53125q0.0625 -4.140625 -3.390625 -4.140625q-1.859375 -0.015625 -2.796875 1.328125q-0.65625 -1.359375 -2.546875 -1.328125q-1.171875 0 -1.984375 0.734375l0.015625 -0.375q0.015625 -0.90625 -0.9375 -0.90625zm14.743225 6.03125l6.125 -0.890625q0.96875 -0.140625 1.0 -1.25q0.046875 -1.40625 -1.0625 -2.5q-1.1875 -1.15625 -3.296875 -1.03125q-2.015625 0.125 -3.296875 1.953125q-1.015625 1.46875 -1.015625 3.34375q0 2.28125 1.625 3.609375q1.296875 1.078125 3.03125 1.09375q2.375 0.015625 3.828125 -1.28125q0.828125 -0.734375 0.40625 -1.578125q-0.1875 -0.359375 -0.625 -0.265625q-0.390625 0.078125 -1.0 0.75q-0.640625 0.71875 -2.5 0.734375q-1.265625 0.015625 -2.296875 -0.890625q-0.875 -0.78125 -0.921875 -1.796875zm0.203125 -1.515625q0.25 -0.890625 0.65625 -1.390625q0.90625 -1.125 2.171875 -1.125q0.890625 -0.015625 1.703125 0.5q0.6875 0.453125 0.828125 1.234375l-5.359375 0.78125zm10.392761 -9.21875q-0.828125 0.03125 -0.84375 0.859375l-0.3125 13.21875q-0.015625 0.96875 0.8125 0.984375q0.984375 0.015625 0.984375 -0.96875l0.28125 -13.1875q0.03125 -0.90625 -0.921875 -0.90625zm5.1572876 5.140625q-0.921875 -0.03125 -0.953125 1.1875l-0.15625 7.640625q-0.015625 1.15625 0.953125 1.15625q0.859375 0 0.875 -1.234375l0.125 -7.578125q0.015625 -1.15625 -0.84375 -1.171875zm0.0625 -4.140625q-0.3125 0 -0.5625 0.171875q-0.234375 0.15625 -0.390625 0.421875q-0.15625 0.25 -0.15625 0.546875q0 0.3125 0.15625 0.578125q0.15625 0.25 0.40625 0.390625q0.234375 0.15625 0.515625 0.15625q0.03125 0 0.0625 0q0.28125 0.015625 0.5 -0.109375q0.21875 -0.09375 0.40625 -0.328125q0.203125 -0.265625 0.234375 -0.59375q0 -0.046875 0 -0.09375q0 -0.28125 -0.140625 -0.53125q-0.140625 -0.296875 -0.421875 -0.453125q-0.265625 -0.15625 -0.578125 -0.15625q-0.015625 0 -0.03125 0zm4.666321 3.703125q-0.84375 0 -0.859375 0.84375l-0.203125 8.484375q-0.03125 0.96875 0.78125 0.984375q0.984375 0.015625 1.0 -0.96875l0.15625 -5.515625q1.4375 -1.453125 2.703125 -1.359375q1.515625 0.109375 1.453125 2.625l-0.109375 4.3125q-0.03125 1.109375 0.953125 1.015625q0.859375 -0.078125 0.875 -1.171875l0.078125 -4.5625q0.0625 -4.140625 -3.375 -4.140625q-1.546875 0 -2.546875 0.890625q0.015625 -0.265625 0.015625 -0.53125q0.03125 -0.90625 -0.921875 -0.90625zm9.843506 6.03125l6.125 -0.890625q0.96875 -0.140625 1.0 -1.25q0.046875 -1.40625 -1.0625 -2.5q-1.1875 -1.15625 -3.296875 -1.03125q-2.015625 0.125 -3.296875 1.953125q-1.015625 1.46875 -1.015625 3.34375q0 2.28125 1.625 3.609375q1.296875 1.078125 3.03125 1.09375q2.375 0.015625 3.828125 -1.28125q0.828125 -0.734375 0.40625 -1.578125q-0.1875 -0.359375 -0.625 -0.265625q-0.390625 0.078125 -1.0 0.75q-0.640625 0.71875 -2.5 0.734375q-1.265625 0.015625 -2.296875 -0.890625q-0.875 -0.78125 -0.921875 -1.796875zm0.203125 -1.515625q0.25 -0.890625 0.65625 -1.390625q0.90625 -1.125 2.171875 -1.125q0.890625 -0.015625 1.703125 0.5q0.6875 0.453125 0.828125 1.234375l-5.359375 0.78125z" fill-rule="nonzero"/><path fill="#000000" fill-opacity="0.0" d="m233.95801 259.63242l0 59.212585" fill-rule="evenodd"/><path stroke="#000000" stroke-width="3.0" stroke-linejoin="round" stroke-linecap="butt" d="m233.95801 259.63242l0 59.212585" fill-rule="evenodd"/><path fill="#000000" fill-opacity="0.0" d="m849.4304 259.63242l0 59.212585" fill-rule="evenodd"/><path stroke="#000000" stroke-width="3.0" stroke-linejoin="round" stroke-linecap="butt" d="m849.4304 259.63242l0 59.212585" fill-rule="evenodd"/><path fill="#000000" fill-opacity="0.0" d="m215.55905 197.57242l215.55905 0l0 64.62991l-215.55905 0z" fill-rule="evenodd"/><path fill="#000000" d="m233.26218 212.53929q3.625 0.234375 3.578125 3.953125q-0.03125 2.9375 -2.046875 5.359375q-1.109375 1.34375 -3.0625 1.34375q-2.015625 0 -3.203125 -1.234375q-1.015625 -1.046875 -1.015625 -2.703125q0 -3.296875 2.21875 -5.421875q1.5 -1.4375 3.53125 -1.296875zm-0.109375 -1.828125q-3.265625 -0.03125 -5.171875 2.171875q-2.375 2.765625 -2.375 6.390625q0 2.3125 1.3125 3.765625q1.84375 2.03125 4.8125 2.03125q2.84375 0 4.71875 -2.265625q2.203125 -2.640625 2.21875 -6.3125q0.015625 -5.703125 -5.515625 -5.78125zm14.128403 14.46875q0.828125 0 0.84375 -0.84375l0.21875 -8.5q0.015625 -0.984375 -0.796875 -1.015625q-0.96875 0 -1.0 0.984375l-0.109375 4.609375q-0.046875 1.484375 -1.234375 2.09375q-1.296875 0.65625 -2.25 0.015625q-0.6875 -0.484375 -0.671875 -2.6875l0.015625 -3.984375q0.015625 -1.09375 -0.953125 -1.0q-0.859375 0.078125 -0.875 1.171875l-0.03125 4.46875q-0.03125 4.140625 3.390625 4.15625q1.546875 0 2.546875 -0.90625l-0.015625 0.546875q-0.015625 0.890625 0.921875 0.890625zm6.3578644 -15.359375q-0.828125 0 -0.84375 0.859375l-0.09375 4.296875q-1.0625 0.015625 -2.109375 0.015625q-0.859375 0 -0.859375 0.921875q0 0.890625 0.78125 0.890625q1.0625 0 2.140625 0l-0.171875 7.09375q-0.015625 0.96875 0.8125 0.984375q0.984375 0.015625 0.984375 -0.96875l0.15625 -7.109375q0.984375 0 1.953125 0q1.0625 0 1.0625 -0.9375q0 -0.90625 -1.125 -0.90625l-1.84375 0.015625q0.0625 -1.921875 0.078125 -4.25q0 -0.90625 -0.921875 -0.90625zm6.66568 10.734375l6.125 -0.890625q0.96875 -0.140625 1.0 -1.25q0.046875 -1.40625 -1.0625 -2.5q-1.1875 -1.15625 -3.296875 -1.03125q-2.015625 0.125 -3.296875 1.953125q-1.015625 1.46875 -1.015625 3.34375q0 2.28125 1.625 3.609375q1.296875 1.078125 3.03125 1.09375q2.375 0.015625 3.828125 -1.28125q0.828125 -0.734375 0.40625 -1.578125q-0.1875 -0.359375 -0.625 -0.265625q-0.390625 0.078125 -1.0 0.75q-0.640625 0.71875 -2.5 0.734375q-1.265625 0.015625 -2.296875 -0.890625q-0.875 -0.78125 -0.921875 -1.796875zm0.203125 -1.515625q0.25 -0.890625 0.65625 -1.390625q0.90625 -1.125 2.171875 -1.125q0.890625 -0.015625 1.703125 0.5q0.6875 0.453125 0.828125 1.234375l-5.359375 0.78125zm9.939606 -4.515625q-0.84375 0 -0.859375 0.84375l-0.203125 8.53125q-0.03125 0.96875 0.78125 0.984375q0.953125 0.015625 0.984375 -0.96875l0.15625 -5.984375q0.859375 -0.84375 1.890625 -1.046875q1.046875 -0.203125 1.875 0.34375q1.046875 0.71875 1.453125 -0.453125q0.234375 -0.734375 -1.140625 -1.421875q-0.78125 -0.390625 -2.0 -0.375q-0.984375 0.015625 -2.015625 0.78125q0 -0.171875 0 -0.328125q0 -0.90625 -0.921875 -0.90625z" fill-rule="nonzero"/><path fill="#000000" d="m226.5278 233.28304q-1.234375 0 -1.234375 0.859375q0 1.03125 1.15625 1.03125l2.15625 0l-0.265625 10.21875l-1.9375 0q-1.234375 -0.015625 -1.234375 0.859375q0 1.015625 1.15625 1.015625l6.65625 0q1.203125 0 1.171875 -0.890625q-0.015625 -0.984375 -1.109375 -0.984375l-2.921875 0l0.265625 -10.21875l2.71875 0q1.203125 0 1.1875 -0.90625q-0.03125 -0.984375 -1.125 -0.984375l-6.640625 0zm10.506027 3.640625q-0.84375 0 -0.859375 0.84375l-0.203125 8.484375q-0.03125 0.96875 0.78125 0.984375q0.984375 0.015625 1.0 -0.96875l0.15625 -5.515625q1.4375 -1.453125 2.703125 -1.359375q1.515625 0.109375 1.453125 2.625l-0.109375 4.3125q-0.03125 1.109375 0.953125 1.015625q0.859375 -0.078125 0.875 -1.171875l0.078125 -4.5625q0.0625 -4.140625 -3.375 -4.140625q-1.546875 0 -2.546875 0.890625q0.015625 -0.265625 0.015625 -0.53125q0.03125 -0.90625 -0.921875 -0.90625zm10.265381 0.4375q-0.921875 -0.03125 -0.953125 1.1875l-0.15625 7.640625q-0.015625 1.15625 0.953125 1.15625q0.859375 0 0.875 -1.234375l0.125 -7.578125q0.015625 -1.15625 -0.84375 -1.171875zm0.0625 -4.140625q-0.3125 0 -0.5625 0.171875q-0.234375 0.15625 -0.390625 0.421875q-0.15625 0.25 -0.15625 0.546875q0 0.3125 0.15625 0.578125q0.15625 0.25 0.40625 0.390625q0.234375 0.15625 0.515625 0.15625q0.03125 0 0.0625 0q0.28125 0.015625 0.5 -0.109375q0.21875 -0.09375 0.40625 -0.328125q0.203125 -0.265625 0.234375 -0.59375q0 -0.046875 0 -0.09375q0 -0.28125 -0.140625 -0.53125q-0.140625 -0.296875 -0.421875 -0.453125q-0.265625 -0.15625 -0.578125 -0.15625q-0.015625 0 -0.03125 0zm6.8694763 -1.0q-0.828125 0 -0.84375 0.859375l-0.09375 4.296875q-1.0625 0.015625 -2.109375 0.015625q-0.859375 0 -0.859375 0.921875q0 0.890625 0.78125 0.890625q1.0625 0 2.140625 0l-0.171875 7.09375q-0.015625 0.96875 0.8125 0.984375q0.984375 0.015625 0.984375 -0.96875l0.15625 -7.109375q0.98439026 0 1.9531403 0q1.0625 0 1.0625 -0.9375q0 -0.90625 -1.125 -0.90625l-1.8437653 0.015625q0.0625 -1.921875 0.078125 -4.25q0 -0.90625 -0.921875 -0.90625zm7.0875397 5.140625q-0.921875 -0.03125 -0.953125 1.1875l-0.15625 7.640625q-0.015625 1.15625 0.953125 1.15625q0.859375 0 0.875 -1.234375l0.125 -7.578125q0.015625 -1.15625 -0.84375 -1.171875zm0.0625 -4.140625q-0.3125 0 -0.5625 0.171875q-0.234375 0.15625 -0.390625 0.421875q-0.15625 0.25 -0.15625 0.546875q0 0.3125 0.15625 0.578125q0.15625 0.25 0.40625 0.390625q0.234375 0.15625 0.515625 0.15625q0.03125 0 0.0625 0q0.28125 0.015625 0.5 -0.109375q0.21875 -0.09375 0.40625 -0.328125q0.203125 -0.265625 0.234375 -0.59375q0 -0.046875 0 -0.09375q0 -0.28125 -0.140625 -0.53125q-0.140625 -0.296875 -0.421875 -0.453125q-0.265625 -0.15625 -0.578125 -0.15625q-0.015625 0 -0.03125 0zm6.9788513 14.1875q0.84375 -0.015625 2.734375 -0.96875q0.171875 1.203125 1.3125 0.96875q1.0 -0.203125 0.21875 -1.53125q-0.53125 -0.921875 -0.484375 -3.109375q0.046875 -2.734375 0.25 -3.875q0.21875 -1.171875 -0.875 -1.40625q-0.5625 -0.125 -0.828125 0.09375q-2.390625 -0.75 -4.578125 1.046875q-1.890625 1.546875 -1.875 4.40625q0.03125 4.375 4.125 4.375zm1.046875 -1.84375q-0.6875 0.265625 -1.484375 0.203125q-1.875 -0.125 -1.90625 -2.90625q0.078125 -2.140625 1.703125 -3.3125q0.40625 -0.3125 1.078125 -0.46875q0.96875 -0.234375 1.84375 0.3125q-0.421875 1.484375 -0.09375 5.390625q-0.8125 0.671875 -1.140625 0.78125zm6.640503 -13.34375q-0.828125 0.03125 -0.84375 0.859375l-0.3125 13.21875q-0.015625 0.96875 0.8125 0.984375q0.984375 0.015625 0.984375 -0.96875l0.28125 -13.1875q0.03125 -0.90625 -0.921875 -0.90625zm10.247955 1.0q-1.234375 0 -1.234375 0.8125q0 0.953125 1.15625 0.953125q2.140625 0 4.296875 -0.015625l-0.28125 11.453125q-0.015625 0.90625 0.796875 0.921875q0.96875 0.015625 1.0 -0.90625l0.265625 -11.46875l3.84375 -0.015625q1.21875 0 1.203125 -0.828125q-0.03125 -0.90625 -1.203125 -0.90625l-9.84375 0zm13.164795 4.140625q-0.921875 -0.03125 -0.953125 1.1875l-0.15625 7.640625q-0.015625 1.15625 0.953125 1.15625q0.859375 0 0.875 -1.234375l0.125 -7.578125q0.015625 -1.15625 -0.84375 -1.171875zm0.0625 -4.140625q-0.3125 0 -0.5625 0.171875q-0.234375 0.15625 -0.390625 0.421875q-0.15625 0.25 -0.15625 0.546875q0 0.3125 0.15625 0.578125q0.15625 0.25 0.40625 0.390625q0.234375 0.15625 0.515625 0.15625q0.03125 0 0.0625 0q0.28125 0.015625 0.5 -0.109375q0.21875 -0.09375 0.40625 -0.328125q0.203125 -0.265625 0.234375 -0.59375q0 -0.046875 0 -0.09375q0 -0.28125 -0.140625 -0.53125q-0.140625 -0.296875 -0.421875 -0.453125q-0.265625 -0.15625 -0.578125 -0.15625q-0.015625 0 -0.03125 0zm4.4944763 3.703125q-0.828125 0 -0.859375 0.84375l-0.203125 8.453125q-0.03125 0.96875 0.796875 0.984375q0.9375 0.03125 0.96875 -0.96875l0.15625 -5.03125q0.5 -1.90625 2.0625 -1.84375q1.40625 0.046875 1.359375 2.640625l-0.09375 4.1875q-0.03125 1.078125 0.90625 1.0q0.84375 -0.0625 0.875 -1.171875l0.109375 -4.5625q0.015625 -0.53125 0.03125 -0.5625q0.609375 -1.5625 2.28125 -1.515625q1.4375 0.03125 1.390625 2.734375l-0.046875 4.203125q-0.015625 1.09375 0.96875 1.0q0.859375 -0.0625 0.875 -1.171875l0.0625 -4.53125q0.0625 -4.140625 -3.390625 -4.140625q-1.859375 -0.015625 -2.796875 1.328125q-0.65625 -1.359375 -2.546875 -1.328125q-1.171875 0 -1.984375 0.734375l0.015625 -0.375q0.015625 -0.90625 -0.9375 -0.90625zm14.743195 6.03125l6.125 -0.890625q0.96875 -0.140625 1.0 -1.25q0.046875 -1.40625 -1.0625 -2.5q-1.1875 -1.15625 -3.296875 -1.03125q-2.015625 0.125 -3.296875 1.953125q-1.015625 1.46875 -1.015625 3.34375q0 2.28125 1.625 3.609375q1.296875 1.078125 3.03125 1.09375q2.375 0.015625 3.828125 -1.28125q0.828125 -0.734375 0.40625 -1.578125q-0.1875 -0.359375 -0.625 -0.265625q-0.390625 0.078125 -1.0 0.75q-0.640625 0.71875 -2.5 0.734375q-1.265625 0.015625 -2.296875 -0.890625q-0.875 -0.78125 -0.921875 -1.796875zm0.203125 -1.515625q0.25 -0.890625 0.65625 -1.390625q0.90625 -1.125 2.171875 -1.125q0.890625 -0.015625 1.703125 0.5q0.6875 0.453125 0.828125 1.234375l-5.359375 0.78125z" fill-rule="nonzero"/><path fill="#000000" fill-opacity="0.0" d="m815.0512 198.4726l215.55902 0l0 64.62991l-215.55902 0z" fill-rule="evenodd"/><path fill="#000000" d="m832.75433 213.43947q3.625 0.234375 3.578125 3.953125q-0.03125 2.9375 -2.046875 5.359375q-1.109375 1.34375 -3.0625 1.34375q-2.015625 0 -3.203125 -1.234375q-1.015625 -1.046875 -1.015625 -2.703125q0 -3.296875 2.21875 -5.421875q1.5 -1.4375 3.53125 -1.296875zm-0.109375 -1.828125q-3.265625 -0.03125 -5.171875 2.171875q-2.375 2.765625 -2.375 6.390625q0 2.3125 1.3125 3.765625q1.84375 2.03125 4.8125 2.03125q2.84375 0 4.71875 -2.265625q2.203125 -2.640625 2.21875 -6.3125q0.015625 -5.703125 -5.515625 -5.78125zm14.128357 14.46875q0.828125 0 0.84375 -0.84375l0.21875 -8.5q0.015625 -0.984375 -0.796875 -1.015625q-0.96875 0 -1.0 0.984375l-0.109375 4.609375q-0.046875 1.484375 -1.234375 2.09375q-1.296875 0.65625 -2.25 0.015625q-0.6875 -0.484375 -0.671875 -2.6875l0.015625 -3.984375q0.015625 -1.09375 -0.953125 -1.0q-0.859375 0.078125 -0.875 1.171875l-0.03125 4.46875q-0.03125 4.140625 3.390625 4.15625q1.546875 0 2.546875 -0.90625l-0.015625 0.546875q-0.015625 0.890625 0.921875 0.890625zm6.35791 -15.359375q-0.828125 0 -0.84375 0.859375l-0.09375 4.296875q-1.0625 0.015625 -2.109375 0.015625q-0.859375 0 -0.859375 0.921875q0 0.890625 0.78125 0.890625q1.0625 0 2.140625 0l-0.171875 7.09375q-0.015625 0.96875 0.8125 0.984375q0.984375 0.015625 0.984375 -0.96875l0.15625 -7.109375q0.984375 0 1.953125 0q1.0625 0 1.0625 -0.9375q0 -0.90625 -1.125 -0.90625l-1.84375 0.015625q0.0625 -1.921875 0.078125 -4.25q0 -0.90625 -0.921875 -0.90625zm6.6656494 10.734375l6.125 -0.890625q0.96875 -0.140625 1.0 -1.25q0.046875 -1.40625 -1.0625 -2.5q-1.1875 -1.15625 -3.296875 -1.03125q-2.015625 0.125 -3.296875 1.953125q-1.015625 1.46875 -1.015625 3.34375q0 2.28125 1.625 3.609375q1.296875 1.078125 3.03125 1.09375q2.375 0.015625 3.828125 -1.28125q0.828125 -0.734375 0.40625 -1.578125q-0.1875 -0.359375 -0.625 -0.265625q-0.390625 0.078125 -1.0 0.75q-0.640625 0.71875 -2.5 0.734375q-1.265625 0.015625 -2.296875 -0.890625q-0.875 -0.78125 -0.921875 -1.796875zm0.203125 -1.515625q0.25 -0.890625 0.65625 -1.390625q0.90625 -1.125 2.171875 -1.125q0.890625 -0.015625 1.703125 0.5q0.6875 0.453125 0.828125 1.234375l-5.359375 0.78125zm9.939575 -4.515625q-0.84375 0 -0.859375 0.84375l-0.203125 8.53125q-0.03125 0.96875 0.78125 0.984375q0.953125 0.015625 0.984375 -0.96875l0.15625 -5.984375q0.859375 -0.84375 1.890625 -1.046875q1.046875 -0.203125 1.875 0.34375q1.046875 0.71875 1.453125 -0.453125q0.234375 -0.734375 -1.140625 -1.421875q-0.78125 -0.390625 -2.0 -0.375q-0.984375 0.015625 -2.015625 0.78125q0 -0.171875 0 -0.328125q0 -0.90625 -0.921875 -0.90625zm14.554382 -3.703125q-1.234375 0 -1.234375 0.8125q0 0.953125 1.15625 0.953125q2.140625 0 4.296875 -0.015625l-0.28125 11.453125q-0.015625 0.90625 0.796875 0.921875q0.96875 0.015625 1.0 -0.90625l0.265625 -11.46875l3.84375 -0.015625q1.21875 0 1.203125 -0.828125q-0.03125 -0.90625 -1.203125 -0.90625l-9.84375 0zm12.74292 9.734375l6.125 -0.890625q0.96875 -0.140625 1.0 -1.25q0.046875 -1.40625 -1.0625 -2.5q-1.1875 -1.15625 -3.296875 -1.03125q-2.015625 0.125 -3.296875 1.953125q-1.015625 1.46875 -1.015625 3.34375q0 2.28125 1.625 3.609375q1.296875 1.078125 3.03125 1.09375q2.375 0.015625 3.828125 -1.28125q0.828125 -0.734375 0.40625 -1.578125q-0.1875 -0.359375 -0.625 -0.265625q-0.390625 0.078125 -1.0 0.75q-0.640625 0.71875 -2.5 0.734375q-1.265625 0.015625 -2.296875 -0.890625q-0.875 -0.78125 -0.921875 -1.796875zm0.203125 -1.515625q0.25 -0.890625 0.65625 -1.390625q0.90625 -1.125 2.171875 -1.125q0.890625 -0.015625 1.703125 0.5q0.6875 0.453125 0.828125 1.234375l-5.359375 0.78125zm9.939636 -4.515625q-0.84375 0 -0.859375 0.84375l-0.203125 8.53125q-0.03125 0.96875 0.78125 0.984375q0.953125 0.015625 0.984375 -0.96875l0.15625 -5.984375q0.859375 -0.84375 1.890625 -1.046875q1.046875 -0.203125 1.875 0.34375q1.046875 0.71875 1.453125 -0.453125q0.234375 -0.734375 -1.140625 -1.421875q-0.78125 -0.390625 -2.0 -0.375q-0.984375 0.015625 -2.015625 0.78125q0 -0.171875 0 -0.328125q0 -0.90625 -0.921875 -0.90625zm8.79187 0q-0.828125 0 -0.859375 0.84375l-0.203125 8.453125q-0.03125 0.96875 0.796875 0.984375q0.9375 0.03125 0.96875 -0.96875l0.15625 -5.03125q0.5 -1.90625 2.0625 -1.84375q1.40625 0.046875 1.359375 2.640625l-0.09375 4.1875q-0.03125 1.078125 0.90625 1.0q0.84375 -0.0625 0.875 -1.171875l0.109375 -4.5625q0.015625 -0.53125 0.03125 -0.5625q0.609375 -1.5625 2.28125 -1.515625q1.4375 0.03125 1.390625 2.734375l-0.046875 4.203125q-0.015625 1.09375 0.96875 1.0q0.859375 -0.0625 0.875 -1.171875l0.0625 -4.53125q0.0625 -4.140625 -3.390625 -4.140625q-1.859375 -0.015625 -2.796875 1.328125q-0.65625 -1.359375 -2.546875 -1.328125q-1.171875 0 -1.984375 0.734375l0.015625 -0.375q0.015625 -0.90625 -0.9375 -0.90625zm15.1651 0.4375q-0.921875 -0.03125 -0.953125 1.1875l-0.15625 7.640625q-0.015625 1.15625 0.953125 1.15625q0.859375 0 0.875 -1.234375l0.125 -7.578125q0.015625 -1.15625 -0.84375 -1.171875zm0.0625 -4.140625q-0.3125 0 -0.5625 0.171875q-0.234375 0.15625 -0.390625 0.421875q-0.15625 0.25 -0.15625 0.546875q0 0.3125 0.15625 0.578125q0.15625 0.25 0.40625 0.390625q0.234375 0.15625 0.515625 0.15625q0.03125 0 0.0625 0q0.28125 0.015625 0.5 -0.109375q0.21875 -0.09375 0.40625 -0.328125q0.203125 -0.265625 0.234375 -0.59375q0 -0.046875 0 -0.09375q0 -0.28125 -0.140625 -0.53125q-0.140625 -0.296875 -0.421875 -0.453125q-0.265625 -0.15625 -0.578125 -0.15625q-0.015625 0 -0.03125 0zm4.666321 3.703125q-0.84375 0 -0.859375 0.84375l-0.203125 8.484375q-0.03125 0.96875 0.78125 0.984375q0.984375 0.015625 1.0 -0.96875l0.15625 -5.515625q1.4375 -1.453125 2.703125 -1.359375q1.515625 0.109375 1.453125 2.625l-0.109375 4.3125q-0.03125 1.109375 0.953125 1.015625q0.859375 -0.078125 0.875 -1.171875l0.078125 -4.5625q0.0625 -4.140625 -3.375 -4.140625q-1.546875 0 -2.546875 0.890625q0.015625 -0.265625 0.015625 -0.53125q0.03125 -0.90625 -0.921875 -0.90625zm12.077881 10.484375q0.84375 -0.015625 2.734375 -0.96875q0.171875 1.203125 1.3125 0.96875q1.0 -0.203125 0.21875 -1.53125q-0.53125 -0.921875 -0.484375 -3.109375q0.046875 -2.734375 0.25 -3.875q0.21875 -1.171875 -0.875 -1.40625q-0.5625 -0.125 -0.828125 0.09375q-2.390625 -0.75 -4.578125 1.046875q-1.890625 1.546875 -1.875 4.40625q0.03125 4.375 4.125 4.375zm1.046875 -1.84375q-0.6875 0.265625 -1.484375 0.203125q-1.875 -0.125 -1.90625 -2.90625q0.078125 -2.140625 1.703125 -3.3125q0.40625 -0.3125 1.078125 -0.46875q0.96875 -0.234375 1.84375 0.3125q-0.421875 1.484375 -0.09375 5.390625q-0.8125 0.671875 -1.140625 0.78125zm8.390503 -13.34375q-0.828125 0 -0.84375 0.859375l-0.09375 4.296875q-1.0625 0.015625 -2.109375 0.015625q-0.859375 0 -0.859375 0.921875q0 0.890625 0.78125 0.890625q1.0625 0 2.140625 0l-0.171875 7.09375q-0.015625 0.96875 0.8125 0.984375q0.984375 0.015625 0.984375 -0.96875l0.15625 -7.109375q0.984375 0 1.953125 0q1.0625 0 1.0625 -0.9375q0 -0.90625 -1.125 -0.90625l-1.84375 0.015625q0.0625 -1.921875 0.078125 -4.25q0 -0.90625 -0.921875 -0.90625zm7.0875244 5.140625q-0.921875 -0.03125 -0.953125 1.1875l-0.15625 7.640625q-0.015625 1.15625 0.953125 1.15625q0.859375 0 0.875 -1.234375l0.125 -7.578125q0.015625 -1.15625 -0.84375 -1.171875zm0.0625 -4.140625q-0.3125 0 -0.5625 0.171875q-0.234375 0.15625 -0.390625 0.421875q-0.15625 0.25 -0.15625 0.546875q0 0.3125 0.15625 0.578125q0.15625 0.25 0.40625 0.390625q0.234375 0.15625 0.515625 0.15625q0.03125 0 0.0625 0q0.28125 0.015625 0.5 -0.109375q0.21875 -0.09375 0.40625 -0.328125q0.203125 -0.265625 0.234375 -0.59375q0 -0.046875 0 -0.09375q0 -0.28125 -0.140625 -0.53125q-0.140625 -0.296875 -0.421875 -0.453125q-0.265625 -0.15625 -0.578125 -0.15625q-0.015625 0 -0.03125 0zm7.619507 5.96875q1.921875 -0.03125 1.90625 3.21875q-0.015625 1.703125 -0.734375 2.484375q-0.671875 0.71875 -1.671875 0.71875q-0.875 0 -1.546875 -0.71875q-0.65625 -0.71875 -0.65625 -2.140625q0 -1.484375 0.90625 -2.734375q0.59375 -0.796875 1.796875 -0.828125zm-0.078125 -1.859375q-1.984375 -0.015625 -3.1875 1.578125q-1.21875 1.59375 -1.21875 3.671875q0 2.203125 1.015625 3.40625q1.125 1.34375 2.75 1.359375q2.25 0.015625 3.34375 -1.375q0.96875 -1.171875 0.984375 -3.390625q0 -5.21875 -3.6875 -5.25zm6.935913 -0.40625q-0.84375 0 -0.859375 0.84375l-0.203125 8.484375q-0.03125 0.96875 0.78125 0.984375q0.984375 0.015625 1.0 -0.96875l0.15625 -5.515625q1.4375 -1.453125 2.703125 -1.359375q1.515625 0.109375 1.453125 2.625l-0.109375 4.3125q-0.03125 1.109375 0.953125 1.015625q0.859375 -0.078125 0.875 -1.171875l0.078125 -4.5625q0.0625 -4.140625 -3.375 -4.140625q-1.546875 0 -2.546875 0.890625q0.015625 -0.265625 0.015625 -0.53125q0.03125 -0.90625 -0.921875 -0.90625z" fill-rule="nonzero"/><path fill="#000000" d="m829.01996 236.46446q1.03125 -0.6875 2.25 -0.40625q0.8125 0.1875 1.4375 0.609375q0.6875 0.46875 1.328125 -0.125q0.359375 -0.34375 0.3125 -1.015625q-0.03125 -0.515625 -1.1875 -1.109375q-1.515625 -0.765625 -3.421875 -0.46875q-1.984375 0.3125 -3.765625 2.828125q-1.21875 1.734375 -1.21875 5.109375q-0.015625 2.8125 1.3125 4.5625q1.3125 1.71875 3.515625 1.796875q1.6875 0.0625 3.125 -0.53125q1.765625 -0.71875 1.84375 -1.421875q0.125 -1.21875 -0.75 -1.390625q-0.515625 -0.109375 -1.8125 0.71875q-0.890625 0.59375 -2.53125 0.5q-1.15625 -0.046875 -1.859375 -1.09375q-0.859375 -1.328125 -0.859375 -3.359375q0 -2.203125 0.75 -3.5q0.65625 -1.140625 1.53125 -1.703125zm11.506714 3.625q1.921875 -0.03125 1.90625 3.21875q-0.015625 1.703125 -0.734375 2.484375q-0.671875 0.71875 -1.671875 0.71875q-0.875 0 -1.546875 -0.71875q-0.65625 -0.71875 -0.65625 -2.140625q0 -1.484375 0.90625 -2.734375q0.59375 -0.796875 1.796875 -0.828125zm-0.078125 -1.859375q-1.984375 -0.015625 -3.1875 1.578125q-1.21875 1.59375 -1.21875 3.671875q0 2.203125 1.015625 3.40625q1.125 1.34375 2.75 1.359375q2.25 0.015625 3.34375 -1.375q0.96875 -1.171875 0.984375 -3.390625q0 -5.21875 -3.6875 -5.25zm6.935913 -0.40625q-0.84375 0 -0.859375 0.84375l-0.203125 8.484375q-0.03125 0.96875 0.78125 0.984375q0.984375 0.015625 1.0 -0.96875l0.15625 -5.515625q1.4375 -1.453125 2.703125 -1.359375q1.515625 0.109375 1.453125 2.625l-0.109375 4.3125q-0.03125 1.109375 0.953125 1.015625q0.859375 -0.078125 0.875 -1.171875l0.078125 -4.5625q0.0625 -4.140625 -3.375 -4.140625q-1.546875 0 -2.546875 0.890625q0.015625 -0.265625 0.015625 -0.53125q0.03125 -0.90625 -0.921875 -0.90625zm16.60913 -4.703125q-0.8125 0.03125 -0.828125 0.859375l-0.140625 5.25q-0.34375 -0.25 -0.78125 -0.5q-0.8125 -0.453125 -1.90625 -0.453125q-2.046875 0 -3.3125 1.546875q-1.34375 1.65625 -1.25 4.078125q0.0625 1.796875 1.421875 3.140625q1.203125 1.203125 2.78125 1.203125q1.53125 0.015625 2.875 -0.84375q0.0625 0.765625 0.796875 0.78125q0.984375 0.015625 1.0 -0.96875l0.28125 -13.1875q0.015625 -0.90625 -0.9375 -0.90625zm-1.109375 12.21875q-1.625 1.28125 -2.90625 1.125q-1.203125 -0.125 -1.828125 -0.953125q-0.78125 -1.0 -0.765625 -2.046875q0.046875 -1.609375 0.765625 -2.515625q0.515625 -0.625 1.65625 -0.90625q1.5625 -0.390625 3.171875 1.28125q0 2.125 -0.09375 4.015625zm5.724365 -7.078125q-0.921875 -0.03125 -0.953125 1.1875l-0.15625 7.640625q-0.015625 1.15625 0.953125 1.15625q0.859375 0 0.875 -1.234375l0.125 -7.578125q0.015625 -1.15625 -0.84375 -1.171875zm0.0625 -4.140625q-0.3125 0 -0.5625 0.171875q-0.234375 0.15625 -0.390625 0.421875q-0.15625 0.25 -0.15625 0.546875q0 0.3125 0.15625 0.578125q0.15625 0.25 0.40625 0.390625q0.234375 0.15625 0.515625 0.15625q0.03125 0 0.0625 0q0.28125 0.015625 0.5 -0.109375q0.21875 -0.09375 0.40625 -0.328125q0.203125 -0.265625 0.234375 -0.59375q0 -0.046875 0 -0.09375q0 -0.28125 -0.140625 -0.53125q-0.140625 -0.296875 -0.421875 -0.453125q-0.265625 -0.15625 -0.578125 -0.15625q-0.015625 0 -0.03125 0zm6.869507 -1.0q-0.828125 0 -0.84375 0.859375l-0.09375 4.296875q-1.0625 0.015625 -2.109375 0.015625q-0.859375 0 -0.859375 0.921875q0 0.890625 0.78125 0.890625q1.0625 0 2.140625 0l-0.171875 7.09375q-0.015625 0.96875 0.8125 0.984375q0.984375 0.015625 0.984375 -0.96875l0.15625 -7.109375q0.984375 0 1.953125 0q1.0625 0 1.0625 -0.9375q0 -0.90625 -1.125 -0.90625l-1.84375 0.015625q0.0625 -1.921875 0.078125 -4.25q0 -0.90625 -0.921875 -0.90625zm7.0875244 5.140625q-0.921875 -0.03125 -0.953125 1.1875l-0.15625 7.640625q-0.015625 1.15625 0.953125 1.15625q0.859375 0 0.875 -1.234375l0.125 -7.578125q0.015625 -1.15625 -0.84375 -1.171875zm0.0625 -4.140625q-0.3125 0 -0.5625 0.171875q-0.234375 0.15625 -0.390625 0.421875q-0.15625 0.25 -0.15625 0.546875q0 0.3125 0.15625 0.578125q0.15625 0.25 0.40625 0.390625q0.234375 0.15625 0.515625 0.15625q0.03125 0 0.0625 0q0.28125 0.015625 0.5 -0.109375q0.21875 -0.09375 0.40625 -0.328125q0.203125 -0.265625 0.234375 -0.59375q0 -0.046875 0 -0.09375q0 -0.28125 -0.140625 -0.53125q-0.140625 -0.296875 -0.421875 -0.453125q-0.265625 -0.15625 -0.578125 -0.15625q-0.015625 0 -0.03125 0zm7.619446 5.96875q1.921875 -0.03125 1.90625 3.21875q-0.015625 1.703125 -0.734375 2.484375q-0.671875 0.71875 -1.671875 0.71875q-0.875 0 -1.546875 -0.71875q-0.65625 -0.71875 -0.65625 -2.140625q0 -1.484375 0.90625 -2.734375q0.59375 -0.796875 1.796875 -0.828125zm-0.078125 -1.859375q-1.984375 -0.015625 -3.1875 1.578125q-1.21875 1.59375 -1.21875 3.671875q0 2.203125 1.015625 3.40625q1.125 1.34375 2.75 1.359375q2.25 0.015625 3.34375 -1.375q0.96875 -1.171875 0.984375 -3.390625q0 -5.21875 -3.6875 -5.25zm6.935974 -0.40625q-0.84375 0 -0.859375 0.84375l-0.203125 8.484375q-0.03125 0.96875 0.78125 0.984375q0.984375 0.015625 1.0 -0.96875l0.15625 -5.515625q1.4375 -1.453125 2.703125 -1.359375q1.515625 0.109375 1.453125 2.625l-0.109375 4.3125q-0.03125 1.109375 0.953125 1.015625q0.859375 -0.078125 0.875 -1.171875l0.078125 -4.5625q0.0625 -4.140625 -3.375 -4.140625q-1.546875 0 -2.546875 0.890625q0.015625 -0.265625 0.015625 -0.53125q0.03125 -0.90625 -0.921875 -0.90625zm20.996643 10.140625q0.828125 0.0625 1.390625 -1.59375l2.671875 -7.8125l1.59375 8.265625q0.3125 1.578125 1.359375 1.453125q0.984375 -0.125 0.71875 -1.421875l-2.359375 -11.390625q-0.3125 -1.53125 -1.15625 -1.546875q-0.921875 -0.03125 -1.375 1.484375l-2.734375 8.90625q-2.21875 -9.359375 -2.21875 -9.359375q-0.234375 -0.984375 -1.09375 -0.859375q-0.828125 0.125 -1.125 1.359375l-2.515625 10.734375q-0.328125 1.421875 0.53125 1.90625q0.96875 0.546875 1.265625 -0.890625l1.921875 -8.515625l1.953125 7.796875q0.34375 1.4375 1.171875 1.484375q0 0 0 0zm10.891846 -4.109375l6.125 -0.890625q0.96875 -0.140625 1.0 -1.25q0.046875 -1.40625 -1.0625 -2.5q-1.1875 -1.15625 -3.296875 -1.03125q-2.015625 0.125 -3.296875 1.953125q-1.015625 1.46875 -1.015625 3.34375q0 2.28125 1.625 3.609375q1.296875 1.078125 3.03125 1.09375q2.375 0.015625 3.828125 -1.28125q0.828125 -0.734375 0.40625 -1.578125q-0.1875 -0.359375 -0.625 -0.265625q-0.390625 0.078125 -1.0 0.75q-0.640625 0.71875 -2.5 0.734375q-1.265625 0.015625 -2.296875 -0.890625q-0.875 -0.78125 -0.921875 -1.796875zm0.203125 -1.515625q0.25 -0.890625 0.65625 -1.390625q0.90625 -1.125 2.171875 -1.125q0.890625 -0.015625 1.703125 0.5q0.6875 0.453125 0.828125 1.234375l-5.359375 0.78125zm12.1427 -9.21875q-0.828125 0 -0.84375 0.859375l-0.09375 4.296875q-1.0625 0.015625 -2.109375 0.015625q-0.859375 0 -0.859375 0.921875q0 0.890625 0.78125 0.890625q1.0625 0 2.140625 0l-0.171875 7.09375q-0.015625 0.96875 0.8125 0.984375q0.984375 0.015625 0.984375 -0.96875l0.15625 -7.109375q0.984375 0 1.953125 0q1.0625 0 1.0625 -0.9375q0 -0.90625 -1.125 -0.90625l-1.84375 0.015625q0.0625 -1.921875 0.078125 -4.25q0 -0.90625 -0.921875 -0.90625z" fill-rule="nonzero"/><path fill="#000000" fill-opacity="0.0" d="m457.9265 301.60104l0 -68.0" fill-rule="evenodd"/><path stroke="#cc0000" stroke-width="3.0" stroke-linejoin="round" stroke-linecap="butt" d="m457.9265 301.60104l0 -68.0" fill-rule="evenodd"/><path fill="#000000" fill-opacity="0.0" d="m471.25986 301.60104l0 -68.0" fill-rule="evenodd"/><path stroke="#cc0000" stroke-width="3.0" stroke-linejoin="round" stroke-linecap="butt" d="m471.25986 301.60104l0 -68.0" fill-rule="evenodd"/><path fill="#000000" fill-opacity="0.0" d="m484.9265 301.60104l0 -68.0" fill-rule="evenodd"/><path stroke="#cc0000" stroke-width="3.0" stroke-linejoin="round" stroke-linecap="butt" d="m484.9265 301.60104l0 -68.0" fill-rule="evenodd"/><path fill="#000000" fill-opacity="0.0" d="m498.59317 301.60104l0 -68.0" fill-rule="evenodd"/><path stroke="#cc0000" stroke-width="3.0" stroke-linejoin="round" stroke-linecap="butt" d="m498.59317 301.60104l0 -68.0" fill-rule="evenodd"/><path fill="#000000" fill-opacity="0.0" d="m512.2598 301.60104l0 -68.0" fill-rule="evenodd"/><path stroke="#cc0000" stroke-width="3.0" stroke-linejoin="round" stroke-linecap="butt" d="m512.2598 301.60104l0 -68.0" fill-rule="evenodd"/><path fill="#000000" fill-opacity="0.0" d="m525.1496 264.4882l37.322815 0" fill-rule="evenodd"/><path stroke="#cc0000" stroke-width="4.0" stroke-linejoin="round" stroke-linecap="butt" stroke-dasharray="4.0,12.0" d="m525.1496 264.4882l37.322815 0" fill-rule="evenodd"/><path fill="#000000" fill-opacity="0.0" d="m457.91125 235.71391c-7.4651184 -29.499115 -39.98709 -48.412155 -67.25015 -62.5748c-57.72827 -29.988785 -126.424805 -44.245117 -191.50838 -39.821533c-35.14441 2.3886871 -70.531555 1.6819305 -105.68107 -0.63253784c-23.498405 -1.547287 -59.634804 -3.9968262 -65.329926 -26.548561" fill-rule="evenodd"/><path stroke="#cc0000" stroke-width="3.0" stroke-linejoin="round" stroke-linecap="butt" d="m457.91125 235.71391c-7.4651184 -29.499115 -39.98709 -48.412155 -67.25015 -62.5748c-57.72827 -29.988785 -126.424805 -44.245117 -191.50838 -39.821533c-35.14441 2.3886871 -70.531555 1.6819305 -105.68107 -0.63253784c-23.498405 -1.547287 -59.634804 -3.9968262 -65.329926 -26.548561" fill-rule="evenodd"/><path fill="#000000" fill-opacity="0.0" d="m457.28085 233.8189c39.17035 -55.02855 140.68954 -60.391617 162.44827 -123.88976" fill-rule="evenodd"/><path stroke="#cc0000" stroke-width="3.0" stroke-linejoin="round" stroke-linecap="butt" d="m457.28085 233.8189c39.17035 -55.02855 140.68954 -60.391617 162.44827 -123.88976" fill-rule="evenodd"/><path fill="#000000" fill-opacity="0.0" d="m399.43872 117.58189l295.0866 0l0 64.62992l-295.0866 0z" fill-rule="evenodd"/><path fill="#cc0000" d="m411.64185 130.83002q-0.109375 0 -0.203125 0.015625q-0.15625 -0.03125 -0.34375 -0.03125q-0.828125 0.015625 -0.859375 0.78125l-0.296875 12.328125q-0.03125 0.921875 0.796875 0.9375q0.078125 0 0.140625 0q0.09375 0.015625 0.203125 0.015625l6.375 -0.03125q1.28125 -0.015625 1.265625 -0.859375q-0.03125 -1.046875 -1.3125 -1.03125l-5.65625 0.03125l0.125 -5.125l5.140625 -0.03125q1.28125 -0.015625 1.25 -0.84375q-0.03125 -1.046875 -1.3125 -1.03125l-5.03125 0.015625l0.078125 -3.25q3.0 -0.03125 6.015625 -0.046875q1.296875 0 1.265625 -0.828125q-0.03125 -1.0625 -1.3125 -1.046875l-6.328125 0.03125zm10.5572815 3.703125q-0.828125 0 -0.859375 0.84375l-0.203125 8.453125q-0.03125 0.96875 0.796875 0.984375q0.9375 0.03125 0.96875 -0.96875l0.15625 -5.03125q0.5 -1.90625 2.0625 -1.84375q1.40625 0.046875 1.359375 2.640625l-0.09375 4.1875q-0.03125 1.078125 0.90625 1.0q0.84375 -0.0625 0.875 -1.171875l0.109375 -4.5625q0.015625 -0.53125 0.03125 -0.5625q0.609375 -1.5625 2.28125 -1.515625q1.4375 0.03125 1.390625 2.734375l-0.046875 4.203125q-0.015625 1.09375 0.96875 1.0q0.859375 -0.0625 0.875 -1.171875l0.0625 -4.53125q0.0625 -4.140625 -3.390625 -4.140625q-1.859375 -0.015625 -2.796875 1.328125q-0.65625 -1.359375 -2.546875 -1.328125q-1.171875 0 -1.984375 0.734375l0.015625 -0.375q0.015625 -0.90625 -0.9375 -0.90625zm14.7901 -4.703125q-0.828125 0 -0.84375 0.859375l-0.3125 13.21875q-0.015625 0.96875 0.8125 0.984375q0.90625 0.015625 0.984375 -0.84375q1.375 0.921875 2.96875 0.90625q1.546875 0 2.78125 -1.203125q1.328125 -1.296875 1.421875 -3.140625q0.140625 -2.453125 -1.25 -4.078125q-1.34375 -1.546875 -3.3125 -1.546875q-1.09375 0 -1.90625 0.453125q-0.28125 0.15625 -0.515625 0.3125l0.09375 -5.015625q0.03125 -0.90625 -0.921875 -0.90625zm3.609375 13.34375q-1.171875 0.15625 -2.921875 -1.140625l0.078125 -4.171875q1.515625 -1.46875 3.015625 -1.109375q0.96875 0.234375 1.625 0.96875q0.828125 0.890625 0.78125 2.453125q-0.015625 1.0625 -0.75 2.046875q-0.609375 0.796875 -1.828125 0.953125zm7.4117737 -2.609375l6.125 -0.890625q0.96875 -0.140625 1.0 -1.25q0.046875 -1.40625 -1.0625 -2.5q-1.1875 -1.15625 -3.296875 -1.03125q-2.015625 0.125 -3.296875 1.953125q-1.015625 1.46875 -1.015625 3.34375q0 2.28125 1.625 3.609375q1.296875 1.078125 3.03125 1.09375q2.375 0.015625 3.828125 -1.28125q0.828125 -0.734375 0.40625 -1.578125q-0.1875 -0.359375 -0.625 -0.265625q-0.390625 0.078125 -1.0 0.75q-0.640625 0.71875 -2.5 0.734375q-1.265625 0.015625 -2.296875 -0.890625q-0.875 -0.78125 -0.921875 -1.796875zm0.203125 -1.515625q0.25 -0.890625 0.65625 -1.390625q0.90625 -1.125 2.171875 -1.125q0.890625 -0.015625 1.703125 0.5q0.6875 0.453125 0.828125 1.234375l-5.359375 0.78125zm16.783356 -9.21875q-0.8125 0.03125 -0.828125 0.859375l-0.140625 5.25q-0.34375 -0.25 -0.78125 -0.5q-0.8125 -0.453125 -1.90625 -0.453125q-2.046875 0 -3.3125 1.546875q-1.34375 1.65625 -1.25 4.078125q0.0625 1.796875 1.421875 3.140625q1.203125 1.203125 2.78125 1.203125q1.53125 0.015625 2.875 -0.84375q0.0625 0.765625 0.796875 0.78125q0.984375 0.015625 1.0 -0.96875l0.28125 -13.1875q0.015625 -0.90625 -0.9375 -0.90625zm-1.109375 12.21875q-1.625 1.28125 -2.90625 1.125q-1.203125 -0.125 -1.828125 -0.953125q-0.78125 -1.0 -0.765625 -2.046875q0.046875 -1.609375 0.765625 -2.515625q0.515625 -0.625 1.65625 -0.90625q1.5625 -0.390625 3.171875 1.28125q0 2.125 -0.09375 4.015625zm12.068115 -12.21875q-0.8125 0.03125 -0.828125 0.859375l-0.140625 5.25q-0.34375 -0.25 -0.78125 -0.5q-0.8125 -0.453125 -1.90625 -0.453125q-2.046875 0 -3.3125 1.546875q-1.34375 1.65625 -1.25 4.078125q0.0625 1.796875 1.421875 3.140625q1.203125 1.203125 2.78125 1.203125q1.53125 0.015625 2.875 -0.84375q0.0625 0.765625 0.796875 0.78125q0.984375 0.015625 1.0 -0.96875l0.28125 -13.1875q0.015625 -0.90625 -0.9375 -0.90625zm-1.109375 12.21875q-1.625 1.28125 -2.90625 1.125q-1.203125 -0.125 -1.828125 -0.953125q-0.78125 -1.0 -0.765625 -2.046875q0.046875 -1.609375 0.765625 -2.515625q0.515625 -0.625 1.65625 -0.90625q1.5625 -0.390625 3.171875 1.28125q0 2.125 -0.09375 4.015625zm5.3024597 -1.484375l6.125 -0.890625q0.96875 -0.140625 1.0 -1.25q0.046875 -1.40625 -1.0625 -2.5q-1.1875 -1.15625 -3.296875 -1.03125q-2.015625 0.125 -3.296875 1.953125q-1.015625 1.46875 -1.015625 3.34375q0 2.28125 1.625 3.609375q1.296875 1.078125 3.03125 1.09375q2.375 0.015625 3.828125 -1.28125q0.828125 -0.734375 0.40625 -1.578125q-0.1875 -0.359375 -0.625 -0.265625q-0.390625 0.078125 -1.0 0.75q-0.640625 0.71875 -2.5 0.734375q-1.265625 0.015625 -2.296875 -0.890625q-0.875 -0.78125 -0.921875 -1.796875zm0.203125 -1.515625q0.25 -0.890625 0.65625 -1.390625q0.90625 -1.125 2.171875 -1.125q0.890625 -0.015625 1.703125 0.5q0.6875 0.453125 0.828125 1.234375l-5.359375 0.78125zm16.783356 -9.21875q-0.8125 0.03125 -0.828125 0.859375l-0.140625 5.25q-0.34375 -0.25 -0.78125 -0.5q-0.8125 -0.453125 -1.90625 -0.453125q-2.046875 0 -3.3125 1.546875q-1.34375 1.65625 -1.25 4.078125q0.0625 1.796875 1.421875 3.140625q1.203125 1.203125 2.78125 1.203125q1.53125 0.015625 2.875 -0.84375q0.0625 0.765625 0.796875 0.78125q0.984375 0.015625 1.0 -0.96875l0.28125 -13.1875q0.015625 -0.90625 -0.9375 -0.90625zm-1.109375 12.21875q-1.625 1.28125 -2.90625 1.125q-1.203125 -0.125 -1.828125 -0.953125q-0.78125 -1.0 -0.765625 -2.046875q0.046875 -1.609375 0.765625 -2.515625q0.515625 -0.625 1.65625 -0.90625q1.5625 -0.390625 3.171875 1.28125q0 2.125 -0.09375 4.015625z" fill-rule="nonzero"/><path fill="#cc0000" d="m411.09497 155.62064q-0.8125 1.375 -0.453125 2.8125q0.625 2.546875 4.015625 2.5q3.484375 -0.0625 3.859375 1.265625q0.34375 1.265625 -0.875 2.4375q-0.625 0.609375 -2.375 0.921875q-0.984375 0.171875 -2.15625 -0.109375q-0.875 -0.203125 -1.484375 -0.75q-0.78125 -0.671875 -1.296875 -0.53125q-0.453125 0.140625 -0.546875 0.734375q-0.0625 0.546875 0.65625 1.203125q0.515625 0.4375 1.25 0.75q1.078125 0.453125 2.71875 0.4375q2.21875 -0.015625 3.71875 -0.875q2.25 -1.296875 2.375 -3.5625q0.078125 -1.46875 -1.0625 -2.65625q-0.921875 -0.9375 -2.875 -1.0q-2.1875 -0.0625 -2.75 -0.15625q-1.46875 -0.203125 -1.3125 -1.84375q0.078125 -0.828125 0.953125 -1.5q0.8125 -0.640625 2.328125 -0.734375q0.984375 -0.046875 2.25 0.4375q0.890625 0.34375 1.234375 0.1875q0.515625 -0.25 0.484375 -0.71875q-0.03125 -0.5625 -1.359375 -1.15625q-0.9375 -0.40625 -2.28125 -0.453125q-1.515625 -0.0625 -2.828125 0.578125q-1.578125 0.75 -2.1875 1.78125zm13.060486 1.75q-0.921875 -0.03125 -0.953125 1.1875l-0.15625 7.640625q-0.015625 1.15625 0.953125 1.15625q0.859375 0 0.875 -1.234375l0.125 -7.578125q0.015625 -1.15625 -0.84375 -1.171875zm0.0625 -4.140625q-0.3125 0 -0.5625 0.171875q-0.234375 0.15625 -0.390625 0.421875q-0.15625 0.25 -0.15625 0.546875q0 0.3125 0.15625 0.578125q0.15625 0.25 0.40625 0.390625q0.234375 0.15625 0.515625 0.15625q0.03125 0 0.0625 0q0.28125 0.015625 0.5 -0.109375q0.21875 -0.09375 0.40625 -0.328125q0.203125 -0.265625 0.234375 -0.59375q0 -0.046875 0 -0.09375q0 -0.28125 -0.140625 -0.53125q-0.140625 -0.296875 -0.421875 -0.453125q-0.265625 -0.15625 -0.578125 -0.15625q-0.015625 0 -0.03125 0zm4.4944763 3.703125q-0.828125 0 -0.859375 0.84375l-0.203125 8.453125q-0.03125 0.96875 0.796875 0.984375q0.9375 0.03125 0.96875 -0.96875l0.15625 -5.03125q0.5 -1.90625 2.0625 -1.84375q1.40625 0.046875 1.359375 2.640625l-0.09375 4.1875q-0.03125 1.078125 0.90625 1.0q0.84375 -0.0625 0.875 -1.171875l0.109375 -4.5625q0.015625 -0.53125 0.03125 -0.5625q0.609375 -1.5625 2.28125 -1.515625q1.4375 0.03125 1.390625 2.734375l-0.046875 4.203125q-0.015625 1.09375 0.96875 1.0q0.859375 -0.0625 0.875 -1.171875l0.0625 -4.53125q0.0625 -4.140625 -3.390625 -4.140625q-1.859375 -0.015625 -2.796875 1.328125q-0.65625 -1.359375 -2.546875 -1.328125q-1.171875 0 -1.984375 0.734375l0.015625 -0.375q0.015625 -0.90625 -0.9375 -0.90625zm20.211945 10.65625q0.828125 0 0.84375 -0.84375l0.21875 -8.5q0.015625 -0.984375 -0.796875 -1.015625q-0.96875 0 -1.0 0.984375l-0.109375 4.609375q-0.046875 1.484375 -1.234375 2.09375q-1.296875 0.65625 -2.25 0.015625q-0.6875 -0.484375 -0.671875 -2.6875l0.015625 -3.984375q0.015625 -1.09375 -0.953125 -1.0q-0.859375 0.078125 -0.875 1.171875l-0.03125 4.46875q-0.03125 4.140625 3.390625 4.15625q1.546875 0 2.546875 -0.90625l-0.015625 0.546875q-0.015625 0.890625 0.921875 0.890625zm4.6078796 -15.359375q-0.828125 0.03125 -0.84375 0.859375l-0.3125 13.21875q-0.015625 0.96875 0.8125 0.984375q0.984375 0.015625 0.984375 -0.96875l0.28125 -13.1875q0.03125 -0.90625 -0.921875 -0.90625zm6.9697876 15.1875q0.84375 -0.015625 2.734375 -0.96875q0.171875 1.203125 1.3125 0.96875q1.0 -0.203125 0.21875 -1.53125q-0.53125 -0.921875 -0.484375 -3.109375q0.046875 -2.734375 0.25 -3.875q0.21875 -1.171875 -0.875 -1.40625q-0.5625 -0.125 -0.828125 0.09375q-2.390625 -0.75 -4.578125 1.046875q-1.890625 1.546875 -1.875 4.40625q0.03125 4.375 4.125 4.375zm1.046875 -1.84375q-0.6875 0.265625 -1.484375 0.203125q-1.875 -0.125 -1.90625 -2.90625q0.078125 -2.140625 1.703125 -3.3125q0.40625 -0.3125 1.078125 -0.46875q0.96875 -0.234375 1.84375 0.3125q-0.421875 1.484375 -0.09375 5.390625q-0.8125 0.671875 -1.140625 0.78125zm8.390503 -13.34375q-0.828125 0 -0.84375 0.859375l-0.09375 4.296875q-1.0625 0.015625 -2.109375 0.015625q-0.859375 0 -0.859375 0.921875q0 0.890625 0.78125 0.890625q1.0625 0 2.140625 0l-0.171875 7.09375q-0.015625 0.96875 0.8125 0.984375q0.984375 0.015625 0.984375 -0.96875l0.15625 -7.109375q0.984375 0 1.953125 0q1.0625 0 1.0625 -0.9375q0 -0.90625 -1.125 -0.90625l-1.84375 0.015625q0.0625 -1.921875 0.078125 -4.25q0 -0.90625 -0.921875 -0.90625zm7.087555 5.140625q-0.921875 -0.03125 -0.953125 1.1875l-0.15625 7.640625q-0.015625 1.15625 0.953125 1.15625q0.859375 0 0.875 -1.234375l0.125 -7.578125q0.015625 -1.15625 -0.84375 -1.171875zm0.0625 -4.140625q-0.3125 0 -0.5625 0.171875q-0.234375 0.15625 -0.390625 0.421875q-0.15625 0.25 -0.15625 0.546875q0 0.3125 0.15625 0.578125q0.15625 0.25 0.40625 0.390625q0.234375 0.15625 0.515625 0.15625q0.03125 0 0.0625 0q0.28125 0.015625 0.5 -0.109375q0.21875 -0.09375 0.40625 -0.328125q0.203125 -0.265625 0.234375 -0.59375q0 -0.046875 0 -0.09375q0 -0.28125 -0.140625 -0.53125q-0.140625 -0.296875 -0.421875 -0.453125q-0.265625 -0.15625 -0.578125 -0.15625q-0.015625 0 -0.03125 0zm7.6194763 5.96875q1.921875 -0.03125 1.90625 3.21875q-0.015625 1.703125 -0.734375 2.484375q-0.671875 0.71875 -1.671875 0.71875q-0.875 0 -1.546875 -0.71875q-0.65625 -0.71875 -0.65625 -2.140625q0 -1.484375 0.90625 -2.734375q0.59375 -0.796875 1.796875 -0.828125zm-0.078125 -1.859375q-1.984375 -0.015625 -3.1875 1.578125q-1.21875 1.59375 -1.21875 3.671875q0 2.203125 1.015625 3.40625q1.125 1.34375 2.75 1.359375q2.25 0.015625 3.34375 -1.375q0.96875 -1.171875 0.984375 -3.390625q0 -5.21875 -3.6875 -5.25zm6.935913 -0.40625q-0.84375 0 -0.859375 0.84375l-0.203125 8.484375q-0.03125 0.96875 0.78125 0.984375q0.984375 0.015625 1.0 -0.96875l0.15625 -5.515625q1.4375 -1.453125 2.703125 -1.359375q1.515625 0.109375 1.453125 2.625l-0.109375 4.3125q-0.03125 1.109375 0.953125 1.015625q0.859375 -0.078125 0.875 -1.171875l0.078125 -4.5625q0.0625 -4.140625 -3.375 -4.140625q-1.546875 0 -2.546875 0.890625q0.015625 -0.265625 0.015625 -0.53125q0.03125 -0.90625 -0.921875 -0.90625zm23.121674 9.78125l0 0l0 0q1.203125 -0.625 0.140625 -1.609375l-4.0937805 -3.8125q1.6406555 -0.40625 2.2344055 -1.0625q1.78125 -1.984375 0.828125 -4.421875q-0.953125 -2.40625 -4.2500305 -2.65625q-1.140625 -0.09375 -2.203125 0.015625q-0.171875 -0.046875 -0.375 -0.046875q-0.828125 0 -0.84375 0.8125l-0.3125 12.515625q-0.015625 0.9375 0.796875 0.953125q0.984375 0.015625 1.0 -0.921875l0.109375 -4.875q0.234375 0.03125 0.5 0.015625q0.15625 -0.015625 0.3125 -0.015625l4.5000305 4.453125q1.0 1.015625 1.65625 0.65625zm-6.8125305 -11.8125q0.625 0.015625 1.265625 0.03125q2.140625 0.015625 2.8594055 1.234375q0.765625 1.28125 -0.15628052 2.625q-0.984375 1.421875 -4.078125 1.09375l0.109375 -4.984375zm16.302032 12.6875q0.828125 0 0.84375 -0.84375l0.21875 -8.5q0.015625 -0.984375 -0.796875 -1.015625q-0.96875 0 -1.0 0.984375l-0.109375 4.609375q-0.046875 1.484375 -1.234375 2.09375q-1.296875 0.65625 -2.25 0.015625q-0.6875 -0.484375 -0.671875 -2.6875l0.015625 -3.984375q0.015625 -1.09375 -0.953125 -1.0q-0.859375 0.078125 -0.875 1.171875l-0.03125 4.46875q-0.03125 4.140625 3.390625 4.15625q1.546875 0 2.546875 -0.90625l-0.015625 0.546875q-0.015625 0.890625 0.921875 0.890625zm4.154785 -10.65625q-0.84375 0 -0.859375 0.84375l-0.203125 8.484375q-0.03125 0.96875 0.78125 0.984375q0.984375 0.015625 1.0 -0.96875l0.15625 -5.515625q1.4375 -1.453125 2.703125 -1.359375q1.515625 0.109375 1.453125 2.625l-0.109375 4.3125q-0.03125 1.109375 0.953125 1.015625q0.859375 -0.078125 0.875 -1.171875l0.078125 -4.5625q0.0625 -4.140625 -3.375 -4.140625q-1.546875 0 -2.546875 0.890625q0.015625 -0.265625 0.015625 -0.53125q0.03125 -0.90625 -0.921875 -0.90625z" fill-rule="nonzero"/></g></svg>