<svg version="1.1" viewBox="0.0 0.0 734.8503937007874 413.0839895013123" fill="none" stroke="none" stroke-linecap="square" stroke-miterlimit="10" xmlns:xlink="http://www.w3.org/1999/xlink" xmlns="http://www.w3.org/2000/svg"><clipPath id="p.0"><path d="m0 0l734.8504 0l0 413.08398l-734.8504 0l0 -413.08398z" clip-rule="nonzero"/></clipPath><g clip-path="url(#p.0)"><path fill="#ffffff" d="m0 0l734.8504 0l0 413.08398l-734.8504 0z" fill-rule="evenodd"/><path fill="#000000" fill-opacity="0.0" d="m364.92914 99.29921l0 0c0 -39.407906 31.946411 -71.354324 71.35434 -71.354324l0 0c18.924347 0 37.073578 7.517666 50.45511 20.8992c13.381531 13.381531 20.8992 31.530788 20.8992 50.455128l0 0c0 39.407913 -31.946411 71.35434 -71.35431 71.35434l0 0c-39.40793 0 -71.35434 -31.946426 -71.35434 -71.35434z" fill-rule="evenodd"/><path stroke="#000000" stroke-width="3.0" stroke-linejoin="round" stroke-linecap="butt" d="m364.92914 99.29921l0 0c0 -39.407906 31.946411 -71.354324 71.35434 -71.354324l0 0c18.924347 0 37.073578 7.517666 50.45511 20.8992c13.381531 13.381531 20.8992 31.530788 20.8992 50.455128l0 0c0 39.407913 -31.946411 71.35434 -71.35431 71.35434l0 0c-39.40793 0 -71.35434 -31.946426 -71.35434 -71.35434z" fill-rule="evenodd"/><path fill="#000000" d="m404.88867 70.60983q-1.234375 0 -1.234375 0.859375q0 1.03125 1.15625 1.03125l2.15625 0l-0.265625 10.21875l-1.9375 0q-1.234375 -0.015625 -1.234375 0.859375q0 1.015625 1.15625 1.015625l6.65625 0q1.203125 0 1.171875 -0.890625q-0.015625 -0.984375 -1.109375 -0.984375l-2.921875 0l0.265625 -10.21875l2.71875 0q1.203125 0 1.1875 -0.90625q-0.03125 -0.984375 -1.125 -0.984375l-6.640625 0zm12.7091675 -1.0625q-0.828125 0 -0.84375 0.859375l-0.09375 4.296875q-1.0625 0.015625 -2.109375 0.015625q-0.859375 0 -0.859375 0.921875q0 0.890625 0.78125 0.890625q1.0625 0 2.140625 0l-0.171875 7.09375q-0.015625 0.96875 0.8125 0.984375q0.984375 0.015625 0.984375 -0.96875l0.15625 -7.109375q0.984375 0 1.953125 0q1.0625 0 1.0625 -0.9375q0 -0.90625 -1.125 -0.90625l-1.84375 0.015625q0.0625 -1.921875 0.078125 -4.25q0 -0.90625 -0.921875 -0.90625zm6.6656494 10.734375l6.125 -0.890625q0.96875 -0.140625 1.0 -1.25q0.046875 -1.40625 -1.0625 -2.5q-1.1875 -1.15625 -3.296875 -1.03125q-2.015625 0.125 -3.296875 1.953125q-1.015625 1.46875 -1.015625 3.34375q0 2.28125 1.625 3.609375q1.296875 1.078125 3.03125 1.09375q2.375 0.015625 3.828125 -1.28125q0.828125 -0.734375 0.40625 -1.578125q-0.1875 -0.359375 -0.625 -0.265625q-0.390625 0.078125 -1.0 0.75q-0.640625 0.71875 -2.5 0.734375q-1.265625 0.015625 -2.296875 -0.890625q-0.875 -0.78125 -0.921875 -1.796875zm0.203125 -1.515625q0.25 -0.890625 0.65625 -1.390625q0.90625 -1.125 2.171875 -1.125q0.890625 -0.015625 1.703125 0.5q0.6875 0.453125 0.828125 1.234375l-5.359375 0.78125zm9.939606 -4.515625q-0.84375 0 -0.859375 0.84375l-0.203125 8.53125q-0.03125 0.96875 0.78125 0.984375q0.953125 0.015625 0.984375 -0.96875l0.15625 -5.984375q0.859375 -0.84375 1.890625 -1.046875q1.046875 -0.203125 1.875 0.34375q1.046875 0.71875 1.453125 -0.453125q0.234375 -0.734375 -1.140625 -1.421875q-0.78125 -0.390625 -2.0 -0.375q-0.984375 0.015625 -2.015625 0.78125q0 -0.171875 0 -0.328125q0 -0.90625 -0.921875 -0.90625zm11.276245 10.484375q0.84375 -0.015625 2.734375 -0.96875q0.171875 1.203125 1.3125 0.96875q1.0 -0.203125 0.21875 -1.53125q-0.53125 -0.921875 -0.484375 -3.109375q0.046875 -2.734375 0.25 -3.875q0.21875 -1.171875 -0.875 -1.40625q-0.5625 -0.125 -0.828125 0.09375q-2.390625 -0.75 -4.578125 1.046875q-1.890625 1.546875 -1.875 4.40625q0.03125 4.375 4.125 4.375zm1.046875 -1.84375q-0.6875 0.265625 -1.484375 0.203125q-1.875 -0.125 -1.90625 -2.90625q0.078125 -2.140625 1.703125 -3.3125q0.40625 -0.3125 1.078125 -0.46875q0.96875 -0.234375 1.84375 0.3125q-0.421875 1.484375 -0.09375 5.390625q-0.8125 0.671875 -1.140625 0.78125zm8.390503 -13.34375q-0.828125 0 -0.84375 0.859375l-0.09375 4.296875q-1.0625 0.015625 -2.109375 0.015625q-0.859375 0 -0.859375 0.921875q0 0.890625 0.78125 0.890625q1.0625 0 2.140625 0l-0.171875 7.09375q-0.015625 0.96875 0.8125 0.984375q0.984375 0.015625 0.984375 -0.96875l0.15625 -7.109375q0.984375 0 1.953125 0q1.0625 0 1.0625 -0.9375q0 -0.90625 -1.125 -0.90625l-1.84375 0.015625q0.0625 -1.921875 0.078125 -4.25q0 -0.90625 -0.921875 -0.90625zm6.66568 10.734375l6.125 -0.890625q0.96875 -0.140625 1.0 -1.25q0.046875 -1.40625 -1.0625 -2.5q-1.1875 -1.15625 -3.296875 -1.03125q-2.015625 0.125 -3.296875 1.953125q-1.015625 1.46875 -1.015625 3.34375q0 2.28125 1.625 3.609375q1.296875 1.078125 3.03125 1.09375q2.375 0.015625 3.828125 -1.28125q0.828125 -0.734375 0.40625 -1.578125q-0.1875 -0.359375 -0.625 -0.265625q-0.390625 0.078125 -1.0 0.75q-0.640625 0.71875 -2.5 0.734375q-1.265625 0.015625 -2.296875 -0.890625q-0.875 -0.78125 -0.921875 -1.796875zm0.203125 -1.515625q0.25 -0.890625 0.65625 -1.390625q0.90625 -1.125 2.171875 -1.125q0.890625 -0.015625 1.703125 0.5q0.6875 0.453125 0.828125 1.234375l-5.359375 0.78125z" fill-rule="nonzero"/><path fill="#000000" d="m400.3808 92.39108q-0.828125 0 -0.84375 0.796875l-0.3125 12.484375q-0.015625 0.921875 0.796875 0.953125q0.984375 0.015625 1.0 -0.9375l0.109375 -4.875q0.234375 0.03125 0.5 0.015625q3.828125 -0.21875 4.8125 -1.421875q1.65625 -2.09375 0.765625 -4.40625q-0.890625 -2.296875 -4.078125 -2.609375q-0.953125 -0.09375 -2.375 0.03125q-0.171875 -0.03125 -0.375 -0.03125zm0.90625 1.828125q0.734375 -0.078125 1.265625 -0.09375q2.0625 -0.015625 2.8125 1.375q0.609375 1.1875 -0.171875 2.546875q-0.796875 1.390625 -4.015625 1.046875l0.109375 -4.875zm11.382599 12.515625q0.84375 -0.015625 2.734375 -0.96875q0.171875 1.203125 1.3125 0.96875q1.0 -0.203125 0.21875 -1.53125q-0.53125 -0.921875 -0.484375 -3.109375q0.046875 -2.734375 0.25 -3.875q0.21875 -1.171875 -0.875 -1.40625q-0.5625 -0.125 -0.828125 0.09375q-2.390625 -0.75 -4.578125 1.046875q-1.890625 1.546875 -1.875 4.40625q0.03125 4.375 4.125 4.375zm1.046875 -1.84375q-0.6875 0.265625 -1.484375 0.203125q-1.875 -0.125 -1.90625 -2.90625q0.078125 -2.140625 1.703125 -3.3125q0.40625 -0.3125 1.078125 -0.46875q0.96875 -0.234375 1.84375 0.3125q-0.421875 1.484375 -0.09375 5.390625q-0.8125 0.671875 -1.140625 0.78125zm6.187378 -8.640625q-0.84375 0 -0.859375 0.84375l-0.203125 8.53125q-0.03125 0.96875 0.78125 0.984375q0.953125 0.015625 0.984375 -0.96875l0.15625 -5.984375q0.859375 -0.84375 1.890625 -1.046875q1.046875 -0.203125 1.875 0.34375q1.046875 0.71875 1.453125 -0.453125q0.234375 -0.734375 -1.140625 -1.421875q-0.78125 -0.390625 -2.0 -0.375q-0.984375 0.015625 -2.015625 0.78125q0 -0.171875 0 -0.328125q0 -0.90625 -0.921875 -0.90625zm11.16687 -4.703125q-0.828125 0 -0.84375 0.859375l-0.09375 4.296875q-1.0625 0.015625 -2.109375 0.015625q-0.859375 0 -0.859375 0.921875q0 0.890625 0.78125 0.890625q1.0625 0 2.140625 0l-0.171875 7.09375q-0.015625 0.96875 0.8125 0.984375q0.984375 0.015625 0.984375 -0.96875l0.15625 -7.109375q0.984375 0 1.953125 0q1.0625 0 1.0625 -0.9375q0 -0.90625 -1.125 -0.90625l-1.84375 0.015625q0.0625 -1.921875 0.078125 -4.25q0 -0.90625 -0.921875 -0.90625zm7.087555 5.140625q-0.921875 -0.03125 -0.953125 1.1875l-0.15625 7.640625q-0.015625 1.15625 0.953125 1.15625q0.859375 0 0.875 -1.234375l0.125 -7.578125q0.015625 -1.15625 -0.84375 -1.171875zm0.0625 -4.140625q-0.3125 0 -0.5625 0.171875q-0.234375 0.15625 -0.390625 0.421875q-0.15625 0.25 -0.15625 0.546875q0 0.3125 0.15625 0.578125q0.15625 0.25 0.40625 0.390625q0.234375 0.15625 0.515625 0.15625q0.03125 0 0.0625 0q0.28125 0.015625 0.5 -0.109375q0.21875 -0.09375 0.40625 -0.328125q0.203125 -0.265625 0.234375 -0.59375q0 -0.046875 0 -0.09375q0 -0.28125 -0.140625 -0.53125q-0.140625 -0.296875 -0.421875 -0.453125q-0.265625 -0.15625 -0.578125 -0.15625q-0.015625 0 -0.03125 0zm6.8694763 -1.0q-0.828125 0 -0.84375 0.859375l-0.09375 4.296875q-1.0625 0.015625 -2.109375 0.015625q-0.859375 0 -0.859375 0.921875q0 0.890625 0.78125 0.890625q1.0625 0 2.140625 0l-0.171875 7.09375q-0.015625 0.96875 0.8125 0.984375q0.984375 0.015625 0.984375 -0.96875l0.15625 -7.109375q0.984375 0 1.953125 0q1.0625 0 1.0625 -0.9375q0 -0.90625 -1.125 -0.90625l-1.84375 0.015625q0.0625 -1.921875 0.078125 -4.25q0 -0.90625 -0.921875 -0.90625zm7.0875244 5.140625q-0.921875 -0.03125 -0.953125 1.1875l-0.15625 7.640625q-0.015625 1.15625 0.953125 1.15625q0.859375 0 0.875 -1.234375l0.125 -7.578125q0.015625 -1.15625 -0.84375 -1.171875zm0.0625 -4.140625q-0.3125 0 -0.5625 0.171875q-0.234375 0.15625 -0.390625 0.421875q-0.15625 0.25 -0.15625 0.546875q0 0.3125 0.15625 0.578125q0.15625 0.25 0.40625 0.390625q0.234375 0.15625 0.515625 0.15625q0.03125 0 0.0625 0q0.28125 0.015625 0.5 -0.109375q0.21875 -0.09375 0.40625 -0.328125q0.203125 -0.265625 0.234375 -0.59375q0 -0.046875 0 -0.09375q0 -0.28125 -0.140625 -0.53125q-0.140625 -0.296875 -0.421875 -0.453125q-0.265625 -0.15625 -0.578125 -0.15625q-0.015625 0 -0.03125 0zm7.6194763 5.96875q1.921875 -0.03125 1.90625 3.21875q-0.015625 1.703125 -0.734375 2.484375q-0.671875 0.71875 -1.671875 0.71875q-0.875 0 -1.546875 -0.71875q-0.65625 -0.71875 -0.65625 -2.140625q0 -1.484375 0.90625 -2.734375q0.59375 -0.796875 1.796875 -0.828125zm-0.078125 -1.859375q-1.984375 -0.015625 -3.1875 1.578125q-1.21875 1.59375 -1.21875 3.671875q0 2.203125 1.015625 3.40625q1.125 1.34375 2.75 1.359375q2.25 0.015625 3.34375 -1.375q0.96875 -1.171875 0.984375 -3.390625q0 -5.21875 -3.6875 -5.25zm6.9359436 -0.40625q-0.84375 0 -0.859375 0.84375l-0.203125 8.484375q-0.03125 0.96875 0.78125 0.984375q0.984375 0.015625 1.0 -0.96875l0.15625 -5.515625q1.4375 -1.453125 2.703125 -1.359375q1.515625 0.109375 1.453125 2.625l-0.109375 4.3125q-0.03125 1.109375 0.953125 1.015625q0.859375 -0.078125 0.875 -1.171875l0.078125 -4.5625q0.0625 -4.140625 -3.375 -4.140625q-1.546875 0 -2.546875 0.890625q0.015625 -0.265625 0.015625 -0.53125q0.03125 -0.90625 -0.921875 -0.90625z" fill-rule="nonzero"/><path fill="#000000" d="m425.36313 118.26608q-0.03125 0.90625 0.828125 0.90625l2.484375 0.015625l-1.125 3.8125l-1.828125 0q-1.234375 0 -1.25 0.6875q-0.015625 0.890625 0.828125 0.890625l1.796875 0l-0.5625 1.90625q-0.328125 1.171875 0.3125 1.375q0.859375 0.28125 1.09375 -0.53125l0.8125 -2.734375l4.5625 0.015625l-0.5625 1.875q-0.328125 1.171875 0.3125 1.375q0.859375 0.28125 1.109375 -0.53125l0.796875 -2.71875q1.328125 0 2.65625 0q1.21875 0 1.265625 -0.859375q0.015625 -0.765625 -1.046875 -0.765625l-2.390625 0l1.125 -3.78125q0.953125 0 1.921875 0q1.234375 0 1.265625 -0.875q0.03125 -0.765625 -1.046875 -0.765625l-1.671875 0l0.625 -2.046875q0.34375 -1.1875 -0.484375 -1.453125q-0.71875 -0.25 -1.03125 0.78125l-0.796875 2.734375q-2.265625 0 -4.53125 0l0.609375 -2.0625q0.34375 -1.1875 -0.46875 -1.453125q-0.734375 -0.25 -1.03125 0.78125l-0.796875 2.75q-1.265625 0 -2.546875 0q-1.21875 0 -1.234375 0.671875zm3.875 4.71875l1.125 -3.796875l4.53125 0l-1.109375 3.796875l-4.546875 0zm16.191742 -7.578125q0.015625 -0.8125 -0.5 -0.921875q-0.609375 -0.15625 -1.34375 0.546875l-1.8125 1.703125q-0.65625 0.609375 -0.171875 1.25q0.578125 0.796875 1.453125 -0.03125l0.671875 -0.640625l-0.015625 9.671875q-0.6875 0 -1.359375 0q-0.90625 0 -0.90625 0.90625q0 0.765625 0.8125 0.765625l4.140625 0q0.90625 0 0.90625 -0.8125q0 -0.859375 -0.9375 -0.859375q-0.484375 0 -1.0 0q0.0625 -11.578125 0.0625 -11.578125z" fill-rule="nonzero"/><path fill="#000000" fill-opacity="0.0" d="m30.593176 96.703415l0 0c0 -39.407913 31.94642 -71.35433 71.35433 -71.35433l0 0c18.92434 0 37.073593 7.517668 50.455124 20.899199c13.381531 13.381535 20.8992 31.530788 20.8992 50.455135l0 0c0 39.407913 -31.946426 71.354324 -71.354324 71.354324l0 0c-39.407913 0 -71.35433 -31.946411 -71.35433 -71.354324z" fill-rule="evenodd"/><path stroke="#000000" stroke-width="3.0" stroke-linejoin="round" stroke-linecap="butt" d="m30.593176 96.703415l0 0c0 -39.407913 31.94642 -71.35433 71.35433 -71.35433l0 0c18.92434 0 37.073593 7.517668 50.455124 20.899199c13.381531 13.381535 20.8992 31.530788 20.8992 50.455135l0 0c0 39.407913 -31.946426 71.354324 -71.354324 71.354324l0 0c-39.407913 0 -71.35433 -31.946411 -71.35433 -71.354324z" fill-rule="evenodd"/><path fill="#000000" d="m70.55273 68.01404q-1.234375 0 -1.234375 0.859375q0 1.03125 1.15625 1.03125l2.15625 0l-0.265625 10.21875l-1.9375 0q-1.234375 -0.015625 -1.234375 0.859375q0 1.015625 1.15625 1.015625l6.65625 0q1.203125 0 1.171875 -0.890625q-0.015625 -0.984375 -1.109375 -0.984375l-2.921875 0l0.265625 -10.21875l2.71875 0q1.203125 0 1.1875 -0.90625q-0.03125 -0.984375 -1.125 -0.984375l-6.640625 0zm12.709152 -1.0625q-0.828125 0 -0.84375 0.859375l-0.09375 4.296875q-1.0625 0.015625 -2.109375 0.015625q-0.859375 0 -0.859375 0.921875q0 0.890625 0.78125 0.890625q1.0625 0 2.140625 0l-0.171875 7.09375q-0.015625 0.96875 0.8125 0.984375q0.984375 0.015625 0.984375 -0.96875l0.15625 -7.109375q0.984375 0 1.953125 0q1.0625 0 1.0625 -0.9375q0 -0.90625 -1.125 -0.90625l-1.84375 0.015625q0.0625 -1.921875 0.078125 -4.25q0 -0.90625 -0.921875 -0.90625zm6.6656647 10.734375l6.125 -0.890625q0.96875 -0.140625 1.0 -1.25q0.046875 -1.40625 -1.0625 -2.5q-1.1875 -1.15625 -3.296875 -1.03125q-2.015625 0.125 -3.296875 1.953125q-1.015625 1.46875 -1.015625 3.34375q0 2.28125 1.625 3.609375q1.296875 1.078125 3.03125 1.09375q2.375 0.015625 3.828125 -1.28125q0.828125 -0.734375 0.40625 -1.578125q-0.1875 -0.359375 -0.625 -0.265625q-0.390625 0.078125 -1.0 0.75q-0.640625 0.71875 -2.5 0.734375q-1.265625 0.015625 -2.296875 -0.890625q-0.875 -0.78125 -0.921875 -1.796875zm0.203125 -1.515625q0.25 -0.890625 0.65625 -1.390625q0.90625 -1.125 2.171875 -1.125q0.890625 -0.015625 1.703125 0.5q0.6875 0.453125 0.828125 1.234375l-5.359375 0.78125zm9.939606 -4.515625q-0.84375 0 -0.859375 0.84375l-0.203125 8.53125q-0.03125 0.96875 0.78125 0.984375q0.953125 0.015625 0.984375 -0.96875l0.15625 -5.984375q0.859375 -0.84375 1.890625 -1.046875q1.046875 -0.203125 1.875 0.34375q1.046875 0.71875 1.453125 -0.453125q0.234375 -0.734375 -1.140625 -1.421875q-0.78125 -0.390625 -2.0 -0.375q-0.984375 0.015625 -2.015625 0.78125q0 -0.171875 0 -0.328125q0 -0.90625 -0.921875 -0.90625zm11.276245 10.484375q0.84375 -0.015625 2.734375 -0.96875q0.171875 1.203125 1.3125 0.96875q1.0 -0.203125 0.21875 -1.53125q-0.53125 -0.921875 -0.484375 -3.109375q0.046875 -2.734375 0.25 -3.875q0.21875 -1.171875 -0.875 -1.40625q-0.5625 -0.125 -0.828125 0.09375q-2.390625 -0.75 -4.578125 1.046875q-1.890625 1.546875 -1.875 4.40625q0.03125 4.375 4.125 4.375zm1.046875 -1.84375q-0.6875 0.265625 -1.484375 0.203125q-1.875 -0.125 -1.90625 -2.90625q0.078125 -2.140625 1.703125 -3.3125q0.40625 -0.3125 1.078125 -0.46875q0.96875 -0.234375 1.84375 0.3125q-0.421875 1.484375 -0.09375 5.390625q-0.8125 0.671875 -1.140625 0.78125zm8.390503 -13.34375q-0.828125 0 -0.84375 0.859375l-0.09375 4.296875q-1.0625 0.015625 -2.109375 0.015625q-0.859375 0 -0.859375 0.921875q0 0.890625 0.78125 0.890625q1.0625 0 2.140625 0l-0.171875 7.09375q-0.015625 0.96875 0.8125 0.984375q0.984375 0.015625 0.984375 -0.96875l0.15625 -7.109375q0.984375 0 1.953125 0q1.0625 0 1.0625 -0.9375q0 -0.90625 -1.125 -0.90625l-1.84375 0.015625q0.0625 -1.921875 0.078125 -4.25q0 -0.90625 -0.921875 -0.90625zm6.6656647 10.734375l6.1249924 -0.890625q0.96875 -0.140625 1.0 -1.25q0.046875 -1.40625 -1.0625 -2.5q-1.1875 -1.15625 -3.296875 -1.03125q-2.015625 0.125 -3.2968674 1.953125q-1.015625 1.46875 -1.015625 3.34375q0 2.28125 1.625 3.609375q1.2968674 1.078125 3.0312424 1.09375q2.375 0.015625 3.828125 -1.28125q0.828125 -0.734375 0.40625 -1.578125q-0.1875 -0.359375 -0.625 -0.265625q-0.390625 0.078125 -1.0 0.75q-0.640625 0.71875 -2.5 0.734375q-1.265625 0.015625 -2.296875 -0.890625q-0.8749924 -0.78125 -0.9218674 -1.796875zm0.203125 -1.515625q0.25 -0.890625 0.6562424 -1.390625q0.90625 -1.125 2.171875 -1.125q0.890625 -0.015625 1.703125 0.5q0.6875 0.453125 0.828125 1.234375l-5.3593674 0.78125z" fill-rule="nonzero"/><path fill="#000000" d="m66.04485 89.79529q-0.828125 0 -0.84375 0.796875l-0.3125 12.484375q-0.015625 0.921875 0.796875 0.953125q0.984375 0.015625 1.0 -0.9375l0.109375 -4.875q0.234375 0.03125 0.5 0.015625q3.828125 -0.21875 4.8125 -1.421875q1.65625 -2.09375 0.765625 -4.40625q-0.890625 -2.296875 -4.078125 -2.609375q-0.953125 -0.09375 -2.375 0.03125q-0.171875 -0.03125 -0.375 -0.03125zm0.90625 1.828125q0.734375 -0.078125 1.265625 -0.09375q2.0625 -0.015625 2.8125 1.375q0.609375 1.1875 -0.171875 2.546875q-0.796875 1.390625 -4.015625 1.046875l0.109375 -4.875zm11.382599 12.515625q0.84375 -0.015625 2.734375 -0.96875q0.171875 1.203125 1.3125 0.96875q1.0 -0.203125 0.21875 -1.53125q-0.53125 -0.921875 -0.484375 -3.109375q0.046875 -2.734375 0.25 -3.875q0.21875 -1.171875 -0.875 -1.40625q-0.5625 -0.125 -0.828125 0.09375q-2.390625 -0.75 -4.578125 1.046875q-1.890625 1.546875 -1.875 4.40625q0.03125 4.375 4.125 4.375zm1.046875 -1.84375q-0.6875 0.265625 -1.484375 0.203125q-1.875 -0.125 -1.90625 -2.90625q0.078125 -2.140625 1.703125 -3.3125q0.40625 -0.3125 1.078125 -0.46875q0.96875 -0.234375 1.84375 0.3125q-0.421875 1.484375 -0.09375 5.390625q-0.8125 0.671875 -1.140625 0.78125zm6.187378 -8.640625q-0.84375 0 -0.859375 0.84375l-0.203125 8.53125q-0.03125 0.96875 0.78125 0.984375q0.953125 0.015625 0.984375 -0.96875l0.15625 -5.984375q0.859375 -0.84375 1.890625 -1.046875q1.046875 -0.203125 1.875 0.34375q1.046875 0.71875 1.453125 -0.453125q0.234375 -0.734375 -1.140625 -1.421875q-0.78125 -0.390625 -2.0 -0.375q-0.984375 0.015625 -2.015625 0.78125q0 -0.171875 0 -0.328125q0 -0.90625 -0.921875 -0.90625zm11.16687 -4.703125q-0.828125 0 -0.84375 0.859375l-0.09375 4.296875q-1.0625 0.015625 -2.109375 0.015625q-0.859375 0 -0.859375 0.921875q0 0.890625 0.78125 0.890625q1.0625 0 2.140625 0l-0.171875 7.09375q-0.015625 0.96875 0.8125 0.984375q0.984375 0.015625 0.984375 -0.96875l0.15625 -7.109375q0.984375 0 1.953125 0q1.0625 0 1.0625 -0.9375q0 -0.90625 -1.125 -0.90625l-1.84375 0.015625q0.0625 -1.921875 0.078125 -4.25q0 -0.90625 -0.921875 -0.90625zm7.0875397 5.140625q-0.921875 -0.03125 -0.953125 1.1875l-0.15625 7.640625q-0.015625 1.15625 0.953125 1.15625q0.859375 0 0.875 -1.234375l0.125 -7.578125q0.015625 -1.15625 -0.84375 -1.171875zm0.0625 -4.140625q-0.3125 0 -0.5625 0.171875q-0.234375 0.15625 -0.390625 0.421875q-0.15625 0.25 -0.15625 0.546875q0 0.3125 0.15625 0.578125q0.15625 0.25 0.40625 0.390625q0.234375 0.15625 0.515625 0.15625q0.03125 0 0.0625 0q0.28125 0.015625 0.5 -0.109375q0.21875 -0.09375 0.40625 -0.328125q0.203125 -0.265625 0.234375 -0.59375q0 -0.046875 0 -0.09375q0 -0.28125 -0.140625 -0.53125q-0.140625 -0.296875 -0.421875 -0.453125q-0.265625 -0.15625 -0.578125 -0.15625q-0.015625 0 -0.03125 0zm6.8694763 -1.0q-0.828125 0 -0.84375 0.859375l-0.09375 4.296875q-1.0625 0.015625 -2.109375 0.015625q-0.859375 0 -0.859375 0.921875q0 0.890625 0.78125 0.890625q1.0625 0 2.140625 0l-0.171875 7.09375q-0.015625 0.96875 0.8125 0.984375q0.984375 0.015625 0.984375 -0.96875l0.15625 -7.109375q0.984375 0 1.953125 0q1.0625 0 1.0625 -0.9375q0 -0.90625 -1.125 -0.90625l-1.84375 0.015625q0.0625 -1.921875 0.078125 -4.25q0 -0.90625 -0.921875 -0.90625zm7.0875397 5.140625q-0.921875 -0.03125 -0.953125 1.1875l-0.15625 7.640625q-0.015625 1.15625 0.953125 1.15625q0.859375 0 0.875 -1.234375l0.125 -7.578125q0.015625 -1.15625 -0.84375 -1.171875zm0.0625 -4.140625q-0.3125 0 -0.5625 0.171875q-0.234375 0.15625 -0.390625 0.421875q-0.15625 0.25 -0.15625 0.546875q0 0.3125 0.15625 0.578125q0.15625 0.25 0.40625 0.390625q0.234375 0.15625 0.515625 0.15625q0.03125 0 0.0625 0q0.28125 0.015625 0.5 -0.109375q0.21875 -0.09375 0.40625 -0.328125q0.203125 -0.265625 0.234375 -0.59375q0 -0.046875 0 -0.09375q0 -0.28125 -0.140625 -0.53125q-0.140625 -0.296875 -0.421875 -0.453125q-0.265625 -0.15625 -0.578125 -0.15625q-0.015625 0 -0.03125 0zm7.6194763 5.96875q1.921875 -0.03125 1.90625 3.21875q-0.015625 1.703125 -0.734375 2.484375q-0.671875 0.71875 -1.671875 0.71875q-0.875 0 -1.546875 -0.71875q-0.65625 -0.71875 -0.65625 -2.140625q0 -1.484375 0.90625 -2.734375q0.59375 -0.796875 1.796875 -0.828125zm-0.078125 -1.859375q-1.984375 -0.015625 -3.1875 1.578125q-1.21875 1.59375 -1.21875 3.671875q0 2.203125 1.015625 3.40625q1.125 1.34375 2.75 1.359375q2.25 0.015625 3.3437424 -1.375q0.96875 -1.171875 0.984375 -3.390625q0 -5.21875 -3.6874924 -5.25zm6.9359207 -0.40625q-0.84375 0 -0.859375 0.84375l-0.203125 8.484375q-0.03125 0.96875 0.78125 0.984375q0.984375 0.015625 1.0 -0.96875l0.15625 -5.515625q1.4375 -1.453125 2.703125 -1.359375q1.515625 0.109375 1.453125 2.625l-0.109375 4.3125q-0.03125 1.109375 0.953125 1.015625q0.859375 -0.078125 0.875 -1.171875l0.078125 -4.5625q0.0625 -4.140625 -3.375 -4.140625q-1.546875 0 -2.546875 0.890625q0.015625 -0.265625 0.015625 -0.53125q0.03125 -0.90625 -0.921875 -0.90625z" fill-rule="nonzero"/><path fill="#000000" d="m91.02716 115.67029q-0.03125 0.90625 0.828125 0.90625l2.484375 0.015625l-1.125 3.8125l-1.828125 0q-1.234375 0 -1.25 0.6875q-0.015625 0.890625 0.828125 0.890625l1.796875 0l-0.5625 1.90625q-0.328125 1.171875 0.3125 1.375q0.859375 0.28125 1.09375 -0.53125l0.8125 -2.734375l4.5625 0.015625l-0.5625 1.875q-0.328125 1.171875 0.3125 1.375q0.859375 0.28125 1.109375 -0.53125l0.796875 -2.71875q1.328125 0 2.65625 0q1.21875 0 1.265625 -0.859375q0.015625 -0.765625 -1.046875 -0.765625l-2.390625 0l1.125 -3.78125q0.953125 0 1.921875 0q1.234375 0 1.265625 -0.875q0.03125 -0.765625 -1.046875 -0.765625l-1.671875 0l0.625 -2.046875q0.34375 -1.1875 -0.484375 -1.453125q-0.71875 -0.25 -1.03125 0.78125l-0.796875 2.734375q-2.265625 0 -4.53125 0l0.609375 -2.0625q0.34375 -1.1875 -0.46875 -1.453125q-0.734375 -0.25 -1.03125 0.78125l-0.796875 2.75q-1.265625 0 -2.546875 0q-1.21875 0 -1.234375 0.671875zm3.875 4.71875l1.125 -3.796875l4.53125 0l-1.109375 3.796875l-4.546875 0zm16.191742 -7.578125q0.015625 -0.8125 -0.5 -0.921875q-0.609375 -0.15625 -1.34375 0.546875l-1.8125 1.703125q-0.65625 0.609375 -0.171875 1.25q0.578125 0.796875 1.453125 -0.03125l0.671875 -0.640625l-0.015625 9.671875q-0.6875 0 -1.359375 0q-0.90625 0 -0.90625 0.90625q0 0.765625 0.8125 0.765625l4.140625 0q0.90625 0 0.90625 -0.8125q0 -0.859375 -0.9375 -0.859375q-0.484375 0 -1.0 0q0.0625 -11.578125 0.0625 -11.578125z" fill-rule="nonzero"/><path fill="#000000" fill-opacity="0.0" d="m364.92914 262.69815l0 0c0 -39.407898 31.946411 -71.354324 71.35434 -71.354324l0 0c18.924347 0 37.073578 7.5176697 50.45511 20.8992c13.381531 13.381531 20.8992 31.530792 20.8992 50.455124l0 0c0 39.40793 -31.946411 71.35434 -71.35431 71.35434l0 0c-39.40793 0 -71.35434 -31.946411 -71.35434 -71.35434z" fill-rule="evenodd"/><path stroke="#000000" stroke-width="3.0" stroke-linejoin="round" stroke-linecap="butt" d="m364.92914 262.69815l0 0c0 -39.407898 31.946411 -71.354324 71.35434 -71.354324l0 0c18.924347 0 37.073578 7.5176697 50.45511 20.8992c13.381531 13.381531 20.8992 31.530792 20.8992 50.455124l0 0c0 39.40793 -31.946411 71.35434 -71.35431 71.35434l0 0c-39.40793 0 -71.35434 -31.946411 -71.35434 -71.35434z" fill-rule="evenodd"/><path fill="#000000" d="m404.88867 234.00879q-1.234375 0 -1.234375 0.859375q0 1.03125 1.15625 1.03125l2.15625 0l-0.265625 10.21875l-1.9375 0q-1.234375 -0.015625 -1.234375 0.859375q0 1.015625 1.15625 1.015625l6.65625 0q1.203125 0 1.171875 -0.890625q-0.015625 -0.984375 -1.109375 -0.984375l-2.921875 0l0.265625 -10.21875l2.71875 0q1.203125 0 1.1875 -0.90625q-0.03125 -0.984375 -1.125 -0.984375l-6.640625 0zm12.7091675 -1.0625q-0.828125 0 -0.84375 0.859375l-0.09375 4.296875q-1.0625 0.015625 -2.109375 0.015625q-0.859375 0 -0.859375 0.921875q0 0.890625 0.78125 0.890625q1.0625 0 2.140625 0l-0.171875 7.09375q-0.015625 0.96875 0.8125 0.984375q0.984375 0.015625 0.984375 -0.96875l0.15625 -7.109375q0.984375 0 1.953125 0q1.0625 0 1.0625 -0.9375q0 -0.90625 -1.125 -0.90625l-1.84375 0.015625q0.0625 -1.921875 0.078125 -4.25q0 -0.90625 -0.921875 -0.90625zm6.6656494 10.734375l6.125 -0.890625q0.96875 -0.140625 1.0 -1.25q0.046875 -1.40625 -1.0625 -2.5q-1.1875 -1.15625 -3.296875 -1.03125q-2.015625 0.125 -3.296875 1.953125q-1.015625 1.46875 -1.015625 3.34375q0 2.28125 1.625 3.609375q1.296875 1.078125 3.03125 1.09375q2.375 0.015625 3.828125 -1.28125q0.828125 -0.734375 0.40625 -1.578125q-0.1875 -0.359375 -0.625 -0.265625q-0.390625 0.078125 -1.0 0.75q-0.640625 0.71875 -2.5 0.734375q-1.265625 0.015625 -2.296875 -0.890625q-0.875 -0.78125 -0.921875 -1.796875zm0.203125 -1.515625q0.25 -0.890625 0.65625 -1.390625q0.90625 -1.125 2.171875 -1.125q0.890625 -0.015625 1.703125 0.5q0.6875 0.453125 0.828125 1.234375l-5.359375 0.78125zm9.939606 -4.515625q-0.84375 0 -0.859375 0.84375l-0.203125 8.53125q-0.03125 0.96875 0.78125 0.984375q0.953125 0.015625 0.984375 -0.96875l0.15625 -5.984375q0.859375 -0.84375 1.890625 -1.046875q1.046875 -0.203125 1.875 0.34375q1.046875 0.71875 1.453125 -0.453125q0.234375 -0.734375 -1.140625 -1.421875q-0.78125 -0.390625 -2.0 -0.375q-0.984375 0.015625 -2.015625 0.78125q0 -0.171875 0 -0.328125q0 -0.90625 -0.921875 -0.90625zm11.276245 10.484375q0.84375 -0.015625 2.734375 -0.96875q0.171875 1.203125 1.3125 0.96875q1.0 -0.203125 0.21875 -1.53125q-0.53125 -0.921875 -0.484375 -3.109375q0.046875 -2.734375 0.25 -3.875q0.21875 -1.171875 -0.875 -1.40625q-0.5625 -0.125 -0.828125 0.09375q-2.390625 -0.75 -4.578125 1.046875q-1.890625 1.546875 -1.875 4.40625q0.03125 4.375 4.125 4.375zm1.046875 -1.84375q-0.6875 0.265625 -1.484375 0.203125q-1.875 -0.125 -1.90625 -2.90625q0.078125 -2.140625 1.703125 -3.3125q0.40625 -0.3125 1.078125 -0.46875q0.96875 -0.234375 1.84375 0.3125q-0.421875 1.484375 -0.09375 5.390625q-0.8125 0.671875 -1.140625 0.78125zm8.390503 -13.34375q-0.828125 0 -0.84375 0.859375l-0.09375 4.296875q-1.0625 0.015625 -2.109375 0.015625q-0.859375 0 -0.859375 0.921875q0 0.890625 0.78125 0.890625q1.0625 0 2.140625 0l-0.171875 7.09375q-0.015625 0.96875 0.8125 0.984375q0.984375 0.015625 0.984375 -0.96875l0.15625 -7.109375q0.984375 0 1.953125 0q1.0625 0 1.0625 -0.9375q0 -0.90625 -1.125 -0.90625l-1.84375 0.015625q0.0625 -1.921875 0.078125 -4.25q0 -0.90625 -0.921875 -0.90625zm6.66568 10.734375l6.125 -0.890625q0.96875 -0.140625 1.0 -1.25q0.046875 -1.40625 -1.0625 -2.5q-1.1875 -1.15625 -3.296875 -1.03125q-2.015625 0.125 -3.296875 1.953125q-1.015625 1.46875 -1.015625 3.34375q0 2.28125 1.625 3.609375q1.296875 1.078125 3.03125 1.09375q2.375 0.015625 3.828125 -1.28125q0.828125 -0.734375 0.40625 -1.578125q-0.1875 -0.359375 -0.625 -0.265625q-0.390625 0.078125 -1.0 0.75q-0.640625 0.71875 -2.5 0.734375q-1.265625 0.015625 -2.296875 -0.890625q-0.875 -0.78125 -0.921875 -1.796875zm0.203125 -1.515625q0.25 -0.890625 0.65625 -1.390625q0.90625 -1.125 2.171875 -1.125q0.890625 -0.015625 1.703125 0.5q0.6875 0.453125 0.828125 1.234375l-5.359375 0.78125z" fill-rule="nonzero"/><path fill="#000000" d="m400.3808 255.79004q-0.828125 0 -0.84375 0.796875l-0.3125 12.484375q-0.015625 0.921875 0.796875 0.953125q0.984375 0.015625 1.0 -0.9375l0.109375 -4.875q0.234375 0.03125 0.5 0.015625q3.828125 -0.21875 4.8125 -1.421875q1.65625 -2.09375 0.765625 -4.40625q-0.890625 -2.296875 -4.078125 -2.609375q-0.953125 -0.09375 -2.375 0.03125q-0.171875 -0.03125 -0.375 -0.03125zm0.90625 1.828125q0.734375 -0.078125 1.265625 -0.09375q2.0625 -0.015625 2.8125 1.375q0.609375 1.1875 -0.171875 2.546875q-0.796875 1.390625 -4.015625 1.046875l0.109375 -4.875zm11.382599 12.515625q0.84375 -0.015625 2.734375 -0.96875q0.171875 1.203125 1.3125 0.96875q1.0 -0.203125 0.21875 -1.53125q-0.53125 -0.921875 -0.484375 -3.109375q0.046875 -2.734375 0.25 -3.875q0.21875 -1.171875 -0.875 -1.40625q-0.5625 -0.125 -0.828125 0.09375q-2.390625 -0.75 -4.578125 1.046875q-1.890625 1.546875 -1.875 4.40625q0.03125 4.375 4.125 4.375zm1.046875 -1.84375q-0.6875 0.265625 -1.484375 0.203125q-1.875 -0.125 -1.90625 -2.90625q0.078125 -2.140625 1.703125 -3.3125q0.40625 -0.3125 1.078125 -0.46875q0.96875 -0.234375 1.84375 0.3125q-0.421875 1.484375 -0.09375 5.390625q-0.8125 0.671875 -1.140625 0.78125zm6.187378 -8.640625q-0.84375 0 -0.859375 0.84375l-0.203125 8.53125q-0.03125 0.96875 0.78125 0.984375q0.953125 0.015625 0.984375 -0.96875l0.15625 -5.984375q0.859375 -0.84375 1.890625 -1.046875q1.046875 -0.203125 1.875 0.34375q1.046875 0.71875 1.453125 -0.453125q0.234375 -0.734375 -1.140625 -1.421875q-0.78125 -0.390625 -2.0 -0.375q-0.984375 0.015625 -2.015625 0.78125q0 -0.171875 0 -0.328125q0 -0.90625 -0.921875 -0.90625zm11.16687 -4.703125q-0.828125 0 -0.84375 0.859375l-0.09375 4.296875q-1.0625 0.015625 -2.109375 0.015625q-0.859375 0 -0.859375 0.921875q0 0.890625 0.78125 0.890625q1.0625 0 2.140625 0l-0.171875 7.09375q-0.015625 0.96875 0.8125 0.984375q0.984375 0.015625 0.984375 -0.96875l0.15625 -7.109375q0.984375 0 1.953125 0q1.0625 0 1.0625 -0.9375q0 -0.90625 -1.125 -0.90625l-1.84375 0.015625q0.0625 -1.921875 0.078125 -4.25q0 -0.90625 -0.921875 -0.90625zm7.087555 5.140625q-0.921875 -0.03125 -0.953125 1.1875l-0.15625 7.640625q-0.015625 1.15625 0.953125 1.15625q0.859375 0 0.875 -1.234375l0.125 -7.578125q0.015625 -1.15625 -0.84375 -1.171875zm0.0625 -4.140625q-0.3125 0 -0.5625 0.171875q-0.234375 0.15625 -0.390625 0.421875q-0.15625 0.25 -0.15625 0.546875q0 0.3125 0.15625 0.578125q0.15625 0.25 0.40625 0.390625q0.234375 0.15625 0.515625 0.15625q0.03125 0 0.0625 0q0.28125 0.015625 0.5 -0.109375q0.21875 -0.09375 0.40625 -0.328125q0.203125 -0.265625 0.234375 -0.59375q0 -0.046875 0 -0.09375q0 -0.28125 -0.140625 -0.53125q-0.140625 -0.296875 -0.421875 -0.453125q-0.265625 -0.15625 -0.578125 -0.15625q-0.015625 0 -0.03125 0zm6.8694763 -1.0q-0.828125 0 -0.84375 0.859375l-0.09375 4.296875q-1.0625 0.015625 -2.109375 0.015625q-0.859375 0 -0.859375 0.921875q0 0.890625 0.78125 0.890625q1.0625 0 2.140625 0l-0.171875 7.09375q-0.015625 0.96875 0.8125 0.984375q0.984375 0.015625 0.984375 -0.96875l0.15625 -7.109375q0.984375 0 1.953125 0q1.0625 0 1.0625 -0.9375q0 -0.90625 -1.125 -0.90625l-1.84375 0.015625q0.0625 -1.921875 0.078125 -4.25q0 -0.90625 -0.921875 -0.90625zm7.0875244 5.140625q-0.921875 -0.03125 -0.953125 1.1875l-0.15625 7.640625q-0.015625 1.15625 0.953125 1.15625q0.859375 0 0.875 -1.234375l0.125 -7.578125q0.015625 -1.15625 -0.84375 -1.171875zm0.0625 -4.140625q-0.3125 0 -0.5625 0.171875q-0.234375 0.15625 -0.390625 0.421875q-0.15625 0.25 -0.15625 0.546875q0 0.3125 0.15625 0.578125q0.15625 0.25 0.40625 0.390625q0.234375 0.15625 0.515625 0.15625q0.03125 0 0.0625 0q0.28125 0.015625 0.5 -0.109375q0.21875 -0.09375 0.40625 -0.328125q0.203125 -0.265625 0.234375 -0.59375q0 -0.046875 0 -0.09375q0 -0.28125 -0.140625 -0.53125q-0.140625 -0.296875 -0.421875 -0.453125q-0.265625 -0.15625 -0.578125 -0.15625q-0.015625 0 -0.03125 0zm7.6194763 5.96875q1.921875 -0.03125 1.90625 3.21875q-0.015625 1.703125 -0.734375 2.484375q-0.671875 0.71875 -1.671875 0.71875q-0.875 0 -1.546875 -0.71875q-0.65625 -0.71875 -0.65625 -2.140625q0 -1.484375 0.90625 -2.734375q0.59375 -0.796875 1.796875 -0.828125zm-0.078125 -1.859375q-1.984375 -0.015625 -3.1875 1.578125q-1.21875 1.59375 -1.21875 3.671875q0 2.203125 1.015625 3.40625q1.125 1.34375 2.75 1.359375q2.25 0.015625 3.34375 -1.375q0.96875 -1.171875 0.984375 -3.390625q0 -5.21875 -3.6875 -5.25zm6.9359436 -0.40625q-0.84375 0 -0.859375 0.84375l-0.203125 8.484375q-0.03125 0.96875 0.78125 0.984375q0.984375 0.015625 1.0 -0.96875l0.15625 -5.515625q1.4375 -1.453125 2.703125 -1.359375q1.515625 0.109375 1.453125 2.625l-0.109375 4.3125q-0.03125 1.109375 0.953125 1.015625q0.859375 -0.078125 0.875 -1.171875l0.078125 -4.5625q0.0625 -4.140625 -3.375 -4.140625q-1.546875 0 -2.546875 0.890625q0.015625 -0.265625 0.015625 -0.53125q0.03125 -0.90625 -0.921875 -0.90625z" fill-rule="nonzero"/><path fill="#000000" d="m423.86917 281.66504q-0.03125 0.90625 0.828125 0.90625l2.484375 0.015625l-1.125 3.8125l-1.828125 0q-1.234375 0 -1.25 0.6875q-0.015625 0.890625 0.828125 0.890625l1.796875 0l-0.5625 1.90625q-0.328125 1.171875 0.3125 1.375q0.859375 0.28125 1.09375 -0.53125l0.8125 -2.734375l4.5625 0.015625l-0.5625 1.875q-0.328125 1.171875 0.3125 1.375q0.859375 0.28125 1.109375 -0.53125l0.796875 -2.71875q1.328125 0 2.65625 0q1.21875 0 1.265625 -0.859375q0.015625 -0.765625 -1.046875 -0.765625l-2.390625 0l1.125 -3.78125q0.953125 0 1.921875 0q1.234375 0 1.265625 -0.875q0.03125 -0.765625 -1.046875 -0.765625l-1.671875 0l0.625 -2.046875q0.34375 -1.1875 -0.484375 -1.453125q-0.71875 -0.25 -1.03125 0.78125l-0.796875 2.734375q-2.265625 0 -4.53125 0l0.609375 -2.0625q0.34375 -1.1875 -0.46875 -1.453125q-0.734375 -0.25 -1.03125 0.78125l-0.796875 2.75q-1.265625 0 -2.546875 0q-1.21875 0 -1.234375 0.671875zm3.875 4.71875l1.125 -3.796875l4.53125 0l-1.109375 3.796875l-4.546875 0zm12.207367 4.421875q-0.046875 1.265625 0.890625 1.265625l6.671875 0q0.953125 0 0.953125 -0.875q0.015625 -0.828125 -0.953125 -0.828125q-2.890625 -0.015625 -5.78125 -0.03125q0.0625 -0.875 1.09375 -2.390625q1.09375 -1.59375 3.171875 -2.546875q2.28125 -1.03125 2.34375 -3.875q0.046875 -2.109375 -1.734375 -3.21875q-0.828125 -0.515625 -2.21875 -0.515625q-1.484375 0 -2.453125 0.578125q-0.75 0.4375 -1.796875 1.71875q-0.5 0.625 0.140625 1.125q0.6875 0.59375 1.4375 -0.265625q1.015625 -1.1875 1.671875 -1.40625q1.109375 -0.359375 2.125 0.15625q1.0625 0.546875 1.03125 1.671875q-0.046875 2.0 -1.609375 2.75q-2.40625 1.171875 -3.640625 2.921875q-1.296875 1.921875 -1.34375 3.765625z" fill-rule="nonzero"/><path fill="#000000" fill-opacity="0.0" d="m30.593176 260.10236l0 0c0 -39.407898 31.94642 -71.354324 71.35433 -71.354324l0 0c18.92434 0 37.073593 7.5176697 50.455124 20.8992c13.381531 13.381531 20.8992 31.530792 20.8992 50.455124l0 0c0 39.40793 -31.946426 71.35434 -71.354324 71.35434l0 0c-39.407913 0 -71.35433 -31.946411 -71.35433 -71.35434z" fill-rule="evenodd"/><path stroke="#000000" stroke-width="3.0" stroke-linejoin="round" stroke-linecap="butt" d="m30.593176 260.10236l0 0c0 -39.407898 31.94642 -71.354324 71.35433 -71.354324l0 0c18.92434 0 37.073593 7.5176697 50.455124 20.8992c13.381531 13.381531 20.8992 31.530792 20.8992 50.455124l0 0c0 39.40793 -31.946426 71.35434 -71.354324 71.35434l0 0c-39.407913 0 -71.35433 -31.946411 -71.35433 -71.35434z" fill-rule="evenodd"/><path fill="#000000" d="m70.55273 231.41298q-1.234375 0 -1.234375 0.859375q0 1.03125 1.15625 1.03125l2.15625 0l-0.265625 10.21875l-1.9375 0q-1.234375 -0.015625 -1.234375 0.859375q0 1.015625 1.15625 1.015625l6.65625 0q1.203125 0 1.171875 -0.890625q-0.015625 -0.984375 -1.109375 -0.984375l-2.921875 0l0.265625 -10.21875l2.71875 0q1.203125 0 1.1875 -0.90625q-0.03125 -0.984375 -1.125 -0.984375l-6.640625 0zm12.709152 -1.0625q-0.828125 0 -0.84375 0.859375l-0.09375 4.296875q-1.0625 0.015625 -2.109375 0.015625q-0.859375 0 -0.859375 0.921875q0 0.890625 0.78125 0.890625q1.0625 0 2.140625 0l-0.171875 7.09375q-0.015625 0.96875 0.8125 0.984375q0.984375 0.015625 0.984375 -0.96875l0.15625 -7.109375q0.984375 0 1.953125 0q1.0625 0 1.0625 -0.9375q0 -0.90625 -1.125 -0.90625l-1.84375 0.015625q0.0625 -1.921875 0.078125 -4.25q0 -0.90625 -0.921875 -0.90625zm6.6656647 10.734375l6.125 -0.890625q0.96875 -0.140625 1.0 -1.25q0.046875 -1.40625 -1.0625 -2.5q-1.1875 -1.15625 -3.296875 -1.03125q-2.015625 0.125 -3.296875 1.953125q-1.015625 1.46875 -1.015625 3.34375q0 2.28125 1.625 3.609375q1.296875 1.078125 3.03125 1.09375q2.375 0.015625 3.828125 -1.28125q0.828125 -0.734375 0.40625 -1.578125q-0.1875 -0.359375 -0.625 -0.265625q-0.390625 0.078125 -1.0 0.75q-0.640625 0.71875 -2.5 0.734375q-1.265625 0.015625 -2.296875 -0.890625q-0.875 -0.78125 -0.921875 -1.796875zm0.203125 -1.515625q0.25 -0.890625 0.65625 -1.390625q0.90625 -1.125 2.171875 -1.125q0.890625 -0.015625 1.703125 0.5q0.6875 0.453125 0.828125 1.234375l-5.359375 0.78125zm9.939606 -4.515625q-0.84375 0 -0.859375 0.84375l-0.203125 8.53125q-0.03125 0.96875 0.78125 0.984375q0.953125 0.015625 0.984375 -0.96875l0.15625 -5.984375q0.859375 -0.84375 1.890625 -1.046875q1.046875 -0.203125 1.875 0.34375q1.046875 0.71875 1.453125 -0.453125q0.234375 -0.734375 -1.140625 -1.421875q-0.78125 -0.390625 -2.0 -0.375q-0.984375 0.015625 -2.015625 0.78125q0 -0.171875 0 -0.328125q0 -0.90625 -0.921875 -0.90625zm11.276245 10.484375q0.84375 -0.015625 2.734375 -0.96875q0.171875 1.203125 1.3125 0.96875q1.0 -0.203125 0.21875 -1.53125q-0.53125 -0.921875 -0.484375 -3.109375q0.046875 -2.734375 0.25 -3.875q0.21875 -1.171875 -0.875 -1.40625q-0.5625 -0.125 -0.828125 0.09375q-2.390625 -0.75 -4.578125 1.046875q-1.890625 1.546875 -1.875 4.40625q0.03125 4.375 4.125 4.375zm1.046875 -1.84375q-0.6875 0.265625 -1.484375 0.203125q-1.875 -0.125 -1.90625 -2.90625q0.078125 -2.140625 1.703125 -3.3125q0.40625 -0.3125 1.078125 -0.46875q0.96875 -0.234375 1.84375 0.3125q-0.421875 1.484375 -0.09375 5.390625q-0.8125 0.671875 -1.140625 0.78125zm8.390503 -13.34375q-0.828125 0 -0.84375 0.859375l-0.09375 4.296875q-1.0625 0.015625 -2.109375 0.015625q-0.859375 0 -0.859375 0.921875q0 0.890625 0.78125 0.890625q1.0625 0 2.140625 0l-0.171875 7.09375q-0.015625 0.96875 0.8125 0.984375q0.984375 0.015625 0.984375 -0.96875l0.15625 -7.109375q0.984375 0 1.953125 0q1.0625 0 1.0625 -0.9375q0 -0.90625 -1.125 -0.90625l-1.84375 0.015625q0.0625 -1.921875 0.078125 -4.25q0 -0.90625 -0.921875 -0.90625zm6.6656647 10.734375l6.1249924 -0.890625q0.96875 -0.140625 1.0 -1.25q0.046875 -1.40625 -1.0625 -2.5q-1.1875 -1.15625 -3.296875 -1.03125q-2.015625 0.125 -3.2968674 1.953125q-1.015625 1.46875 -1.015625 3.34375q0 2.28125 1.625 3.609375q1.2968674 1.078125 3.0312424 1.09375q2.375 0.015625 3.828125 -1.28125q0.828125 -0.734375 0.40625 -1.578125q-0.1875 -0.359375 -0.625 -0.265625q-0.390625 0.078125 -1.0 0.75q-0.640625 0.71875 -2.5 0.734375q-1.265625 0.015625 -2.296875 -0.890625q-0.8749924 -0.78125 -0.9218674 -1.796875zm0.203125 -1.515625q0.25 -0.890625 0.6562424 -1.390625q0.90625 -1.125 2.171875 -1.125q0.890625 -0.015625 1.703125 0.5q0.6875 0.453125 0.828125 1.234375l-5.3593674 0.78125z" fill-rule="nonzero"/><path fill="#000000" d="m66.04485 253.19423q-0.828125 0 -0.84375 0.796875l-0.3125 12.48439q-0.015625 0.921875 0.796875 0.953125q0.984375 0.015625 1.0 -0.9375l0.109375 -4.875q0.234375 0.03125 0.5 0.015625q3.828125 -0.21875 4.8125 -1.421875q1.65625 -2.09375 0.765625 -4.4062653q-0.890625 -2.296875 -4.078125 -2.609375q-0.953125 -0.09375 -2.375 0.03125q-0.171875 -0.03125 -0.375 -0.03125zm0.90625 1.828125q0.734375 -0.078125 1.265625 -0.09375q2.0625 -0.015625 2.8125 1.3750153q0.609375 1.1875 -0.171875 2.546875q-0.796875 1.390625 -4.015625 1.046875l0.109375 -4.8750153zm11.382599 12.51564q0.84375 -0.015625 2.734375 -0.96875q0.171875 1.203125 1.3125 0.96875q1.0 -0.203125 0.21875 -1.53125q-0.53125 -0.921875 -0.484375 -3.109375q0.046875 -2.734375 0.25 -3.875q0.21875 -1.171875 -0.875 -1.40625q-0.5625 -0.125 -0.828125 0.09375q-2.390625 -0.75 -4.578125 1.046875q-1.890625 1.546875 -1.875 4.40625q0.03125 4.375 4.125 4.375zm1.046875 -1.84375q-0.6875 0.265625 -1.484375 0.203125q-1.875 -0.125 -1.90625 -2.90625q0.078125 -2.140625 1.703125 -3.3125q0.40625 -0.3125 1.078125 -0.46875q0.96875 -0.234375 1.84375 0.3125q-0.421875 1.484375 -0.09375 5.390625q-0.8125 0.671875 -1.140625 0.78125zm6.187378 -8.640625q-0.84375 0 -0.859375 0.84375l-0.203125 8.53125q-0.03125 0.96875 0.78125 0.984375q0.953125 0.015625 0.984375 -0.96875l0.15625 -5.984375q0.859375 -0.84375 1.890625 -1.046875q1.046875 -0.203125 1.875 0.34375q1.046875 0.71875 1.453125 -0.453125q0.234375 -0.734375 -1.140625 -1.421875q-0.78125 -0.390625 -2.0 -0.375q-0.984375 0.015625 -2.015625 0.78125q0 -0.171875 0 -0.328125q0 -0.90625 -0.921875 -0.90625zm11.16687 -4.7031403q-0.828125 0 -0.84375 0.859375l-0.09375 4.2968903q-1.0625 0.015625 -2.109375 0.015625q-0.859375 0 -0.859375 0.921875q0 0.890625 0.78125 0.890625q1.0625 0 2.140625 0l-0.171875 7.09375q-0.015625 0.96875 0.8125 0.984375q0.984375 0.015625 0.984375 -0.96875l0.15625 -7.109375q0.984375 0 1.953125 0q1.0625 0 1.0625 -0.9375q0 -0.90625 -1.125 -0.90625l-1.84375 0.015625q0.0625 -1.9218903 0.078125 -4.2500153q0 -0.90625 -0.921875 -0.90625zm7.0875397 5.1406403q-0.921875 -0.03125 -0.953125 1.1875l-0.15625 7.640625q-0.015625 1.15625 0.953125 1.15625q0.859375 0 0.875 -1.234375l0.125 -7.578125q0.015625 -1.15625 -0.84375 -1.171875zm0.0625 -4.1406403q-0.3125 0 -0.5625 0.171875q-0.234375 0.15625 -0.390625 0.421875q-0.15625 0.25 -0.15625 0.546875q0 0.3125 0.15625 0.578125q0.15625 0.25 0.40625 0.390625q0.234375 0.15625 0.515625 0.15625q0.03125 0 0.0625 0q0.28125 0.015625 0.5 -0.109375q0.21875 -0.09375 0.40625 -0.328125q0.203125 -0.265625 0.234375 -0.59375q0 -0.046875 0 -0.09375q0 -0.28125 -0.140625 -0.53125q-0.140625 -0.296875 -0.421875 -0.453125q-0.265625 -0.15625 -0.578125 -0.15625q-0.015625 0 -0.03125 0zm6.8694763 -1.0q-0.828125 0 -0.84375 0.859375l-0.09375 4.2968903q-1.0625 0.015625 -2.109375 0.015625q-0.859375 0 -0.859375 0.921875q0 0.890625 0.78125 0.890625q1.0625 0 2.140625 0l-0.171875 7.09375q-0.015625 0.96875 0.8125 0.984375q0.984375 0.015625 0.984375 -0.96875l0.15625 -7.109375q0.984375 0 1.953125 0q1.0625 0 1.0625 -0.9375q0 -0.90625 -1.125 -0.90625l-1.84375 0.015625q0.0625 -1.9218903 0.078125 -4.2500153q0 -0.90625 -0.921875 -0.90625zm7.0875397 5.1406403q-0.921875 -0.03125 -0.953125 1.1875l-0.15625 7.640625q-0.015625 1.15625 0.953125 1.15625q0.859375 0 0.875 -1.234375l0.125 -7.578125q0.015625 -1.15625 -0.84375 -1.171875zm0.0625 -4.1406403q-0.3125 0 -0.5625 0.171875q-0.234375 0.15625 -0.390625 0.421875q-0.15625 0.25 -0.15625 0.546875q0 0.3125 0.15625 0.578125q0.15625 0.25 0.40625 0.390625q0.234375 0.15625 0.515625 0.15625q0.03125 0 0.0625 0q0.28125 0.015625 0.5 -0.109375q0.21875 -0.09375 0.40625 -0.328125q0.203125 -0.265625 0.234375 -0.59375q0 -0.046875 0 -0.09375q0 -0.28125 -0.140625 -0.53125q-0.140625 -0.296875 -0.421875 -0.453125q-0.265625 -0.15625 -0.578125 -0.15625q-0.015625 0 -0.03125 0zm7.6194763 5.9687653q1.921875 -0.03125 1.90625 3.21875q-0.015625 1.703125 -0.734375 2.484375q-0.671875 0.71875 -1.671875 0.71875q-0.875 0 -1.546875 -0.71875q-0.65625 -0.71875 -0.65625 -2.140625q0 -1.484375 0.90625 -2.734375q0.59375 -0.796875 1.796875 -0.828125zm-0.078125 -1.859375q-1.984375 -0.015625 -3.1875 1.578125q-1.21875 1.59375 -1.21875 3.671875q0 2.203125 1.015625 3.40625q1.125 1.34375 2.75 1.359375q2.25 0.015625 3.3437424 -1.375q0.96875 -1.171875 0.984375 -3.390625q0 -5.21875 -3.6874924 -5.25zm6.9359207 -0.40625q-0.84375 0 -0.859375 0.84375l-0.203125 8.484375q-0.03125 0.96875 0.78125 0.984375q0.984375 0.015625 1.0 -0.96875l0.15625 -5.515625q1.4375 -1.453125 2.703125 -1.359375q1.515625 0.109375 1.453125 2.625l-0.109375 4.3125q-0.03125 1.109375 0.953125 1.015625q0.859375 -0.078125 0.875 -1.171875l0.078125 -4.5625q0.0625 -4.140625 -3.375 -4.140625q-1.546875 0 -2.546875 0.890625q0.015625 -0.265625 0.015625 -0.53125q0.03125 -0.90625 -0.921875 -0.90625z" fill-rule="nonzero"/><path fill="#000000" d="m89.5332 279.06924q-0.03125 0.90625 0.828125 0.90625l2.484375 0.015625l-1.125 3.8125l-1.828125 0q-1.234375 0 -1.25 0.6875q-0.015625 0.890625 0.828125 0.890625l1.796875 0l-0.5625 1.90625q-0.328125 1.171875 0.3125 1.375q0.859375 0.28125 1.09375 -0.53125l0.8125 -2.734375l4.5625 0.015625l-0.5625 1.875q-0.328125 1.171875 0.3125 1.375q0.859375 0.28125 1.109375 -0.53125l0.796875 -2.71875q1.328125 0 2.65625 0q1.21875 0 1.265625 -0.859375q0.015625 -0.765625 -1.046875 -0.765625l-2.390625 0l1.125 -3.78125q0.953125 0 1.921875 0q1.234375 0 1.265625 -0.875q0.03125 -0.765625 -1.046875 -0.765625l-1.671875 0l0.625 -2.046875q0.34375 -1.1875 -0.484375 -1.453125q-0.71875 -0.25 -1.03125 0.78125l-0.796875 2.734375q-2.265625 0 -4.53125 0l0.609375 -2.0625q0.34375 -1.1875 -0.46875 -1.453125q-0.734375 -0.25 -1.03125 0.78125l-0.796875 2.75q-1.265625 0 -2.546875 0q-1.21875 0 -1.234375 0.671875zm3.875 4.71875l1.125 -3.796875l4.53125 0l-1.109375 3.796875l-4.546875 0zm12.207367 4.421875q-0.046875 1.265625 0.890625 1.265625l6.671875 0q0.953125 0 0.953125 -0.875q0.015625 -0.828125 -0.953125 -0.828125q-2.890625 -0.015625 -5.78125 -0.03125q0.0625 -0.875 1.09375 -2.390625q1.09375 -1.59375 3.171875 -2.546875q2.28125 -1.03125 2.34375 -3.875q0.046875 -2.109375 -1.734375 -3.21875q-0.828125 -0.515625 -2.21875 -0.515625q-1.484375 0 -2.453125 0.578125q-0.75 0.4375 -1.796875 1.71875q-0.5 0.625 0.140625 1.125q0.6875 0.59375 1.4375 -0.265625q1.015625 -1.1875 1.671875 -1.40625q1.109375 -0.359375 2.125 0.15625q1.0625 0.546875 1.03125 1.671875q-0.046875 2.0 -1.609375 2.75q-2.40625 1.171875 -3.640625 2.921875q-1.296875 1.921875 -1.34375 3.765625z" fill-rule="nonzero"/><path fill="#000000" fill-opacity="0.0" d="m204.9895 147.43336l0 0c0 -7.935089 6.432663 -14.367752 14.367737 -14.367752l99.51648 0c3.8105774 0 7.4650574 1.5137482 10.159546 4.2082214c2.694458 2.6944733 4.208191 6.3489685 4.208191 10.159531l0 57.46924c0 7.935074 -6.4326477 14.367737 -14.367737 14.367737l-99.51648 0c-7.935074 0 -14.367737 -6.432663 -14.367737 -14.367737z" fill-rule="evenodd"/><path stroke="#3c78d8" stroke-width="3.0" stroke-linejoin="round" stroke-linecap="butt" d="m204.9895 147.43336l0 0c0 -7.935089 6.432663 -14.367752 14.367737 -14.367752l99.51648 0c3.8105774 0 7.4650574 1.5137482 10.159546 4.2082214c2.694458 2.6944733 4.208191 6.3489685 4.208191 10.159531l0 57.46924c0 7.935074 -6.4326477 14.367737 -14.367737 14.367737l-99.51648 0c-7.935074 0 -14.367737 -6.432663 -14.367737 -14.367737z" fill-rule="evenodd"/><path fill="#3c78d8" d="m246.62952 149.80673q-0.8125 1.375 -0.453125 2.8125q0.625 2.546875 4.015625 2.5q3.484375 -0.0625 3.859375 1.265625q0.34375 1.265625 -0.875 2.4375q-0.625 0.609375 -2.375 0.921875q-0.984375 0.171875 -2.15625 -0.109375q-0.875 -0.203125 -1.484375 -0.75q-0.78125 -0.671875 -1.296875 -0.53125q-0.453125 0.140625 -0.546875 0.734375q-0.0625 0.546875 0.65625 1.203125q0.515625 0.4375 1.25 0.75q1.078125 0.453125 2.71875 0.4375q2.21875 -0.015625 3.71875 -0.875q2.25 -1.296875 2.375 -3.5625q0.078125 -1.46875 -1.0625 -2.65625q-0.921875 -0.9375 -2.875 -1.0q-2.1875 -0.0625 -2.75 -0.15625q-1.46875 -0.203125 -1.3125 -1.84375q0.078125 -0.828125 0.953125 -1.5q0.8125 -0.640625 2.328125 -0.734375q0.984375 -0.046875 2.25 0.4375q0.890625 0.34375 1.234375 0.1875q0.515625 -0.25 0.484375 -0.71875q-0.03125 -0.5625 -1.359375 -1.15625q-0.9375 -0.40625 -2.28125 -0.453125q-1.515625 -0.0625 -2.828125 0.578125q-1.578125 0.75 -2.1875 1.78125zm14.763611 -3.390625q-0.828125 0 -0.84375 0.859375l-0.09375 4.296875q-1.0625 0.015625 -2.109375 0.015625q-0.859375 0 -0.859375 0.921875q0 0.890625 0.78125 0.890625q1.0625 0 2.140625 0l-0.171875 7.09375q-0.015625 0.96875 0.8125 0.984375q0.984375 0.015625 0.984375 -0.96875l0.15625 -7.109375q0.984375 0 1.953125 0q1.0625 0 1.0625 -0.9375q0 -0.90625 -1.125 -0.90625l-1.84375 0.015625q0.0625 -1.921875 0.078125 -4.25q0 -0.90625 -0.921875 -0.90625zm8.900055 15.1875q0.84375 -0.015625 2.734375 -0.96875q0.171875 1.203125 1.3125 0.96875q1.0 -0.203125 0.21875 -1.53125q-0.53125 -0.921875 -0.484375 -3.109375q0.046875 -2.734375 0.25 -3.875q0.21875 -1.171875 -0.875 -1.40625q-0.5625 -0.125 -0.828125 0.09375q-2.390625 -0.75 -4.578125 1.046875q-1.890625 1.546875 -1.875 4.40625q0.03125 4.375 4.125 4.375zm1.046875 -1.84375q-0.6875 0.265625 -1.484375 0.203125q-1.875 -0.125 -1.90625 -2.90625q0.078125 -2.140625 1.703125 -3.3125q0.40625 -0.3125 1.078125 -0.46875q0.96875 -0.234375 1.84375 0.3125q-0.421875 1.484375 -0.09375 5.390625q-0.8125 0.671875 -1.140625 0.78125zm8.390503 -13.34375q-0.828125 0 -0.84375 0.859375l-0.09375 4.296875q-1.0625 0.015625 -2.109375 0.015625q-0.859375 0 -0.859375 0.921875q0 0.890625 0.78125 0.890625q1.0625 0 2.140625 0l-0.171875 7.09375q-0.015625 0.96875 0.8125 0.984375q0.984375 0.015625 0.984375 -0.96875l0.15625 -7.109375q0.984375 0 1.953125 0q1.0625 0 1.0625 -0.9375q0 -0.90625 -1.125 -0.90625l-1.84375 0.015625q0.0625 -1.921875 0.078125 -4.25q0 -0.90625 -0.921875 -0.90625zm6.6656494 10.734375l6.125 -0.890625q0.96875 -0.140625 1.0 -1.25q0.046875 -1.40625 -1.0625 -2.5q-1.1875 -1.15625 -3.296875 -1.03125q-2.015625 0.125 -3.296875 1.953125q-1.015625 1.46875 -1.015625 3.34375q0 2.28125 1.625 3.609375q1.296875 1.078125 3.03125 1.09375q2.375 0.015625 3.828125 -1.28125q0.828125 -0.734375 0.40625 -1.578125q-0.1875 -0.359375 -0.625 -0.265625q-0.390625 0.078125 -1.0 0.75q-0.640625 0.71875 -2.5 0.734375q-1.265625 0.015625 -2.296875 -0.890625q-0.875 -0.78125 -0.921875 -1.796875zm0.203125 -1.515625q0.25 -0.890625 0.65625 -1.390625q0.90625 -1.125 2.171875 -1.125q0.890625 -0.015625 1.703125 0.5q0.6875 0.453125 0.828125 1.234375l-5.359375 0.78125z" fill-rule="nonzero"/><path fill="#3c78d8" d="m233.21283 169.25986q-0.828125 0 -0.84375 0.796875l-0.3125 12.484375q-0.015625 0.921875 0.796875 0.953125q0.984375 0.015625 1.0 -0.9375l0.109375 -4.875q0.234375 0.03125 0.5 0.015625q3.828125 -0.21875 4.8125 -1.421875q1.65625 -2.09375 0.765625 -4.40625q-0.890625 -2.296875 -4.078125 -2.609375q-0.953125 -0.09375 -2.375 0.03125q-0.171875 -0.03125 -0.375 -0.03125zm0.90625 1.828125q0.734375 -0.078125 1.265625 -0.09375q2.0625 -0.015625 2.8125 1.375q0.609375 1.1875 -0.171875 2.546875q-0.796875 1.390625 -4.015625 1.046875l0.109375 -4.875zm11.382599 12.515625q0.84375 -0.015625 2.734375 -0.96875q0.171875 1.203125 1.3125 0.96875q1.0 -0.203125 0.21875 -1.53125q-0.53125 -0.921875 -0.484375 -3.109375q0.046875 -2.734375 0.25 -3.875q0.21875 -1.171875 -0.875 -1.40625q-0.5625 -0.125 -0.828125 0.09375q-2.390625 -0.75 -4.578125 1.046875q-1.890625 1.546875 -1.875 4.40625q0.03125 4.375 4.125 4.375zm1.046875 -1.84375q-0.6875 0.265625 -1.484375 0.203125q-1.875 -0.125 -1.90625 -2.90625q0.078125 -2.140625 1.703125 -3.3125q0.40625 -0.3125 1.078125 -0.46875q0.96875 -0.234375 1.84375 0.3125q-0.421875 1.484375 -0.09375 5.390625q-0.8125 0.671875 -1.140625 0.78125zm6.187378 -8.640625q-0.84375 0 -0.859375 0.84375l-0.203125 8.53125q-0.03125 0.96875 0.78125 0.984375q0.953125 0.015625 0.984375 -0.96875l0.15625 -5.984375q0.859375 -0.84375 1.890625 -1.046875q1.046875 -0.203125 1.875 0.34375q1.046875 0.71875 1.453125 -0.453125q0.234375 -0.734375 -1.140625 -1.421875q-0.78125 -0.390625 -2.0 -0.375q-0.984375 0.015625 -2.015625 0.78125q0 -0.171875 0 -0.328125q0 -0.90625 -0.921875 -0.90625zm11.16687 -4.703125q-0.828125 0 -0.84375 0.859375l-0.09375 4.296875q-1.0625 0.015625 -2.109375 0.015625q-0.859375 0 -0.859375 0.921875q0 0.890625 0.78125 0.890625q1.0625 0 2.140625 0l-0.171875 7.09375q-0.015625 0.96875 0.8125 0.984375q0.984375 0.015625 0.984375 -0.96875l0.15625 -7.109375q0.984375 0 1.953125 0q1.0625 0 1.0625 -0.9375q0 -0.90625 -1.125 -0.90625l-1.84375 0.015625q0.0625 -1.921875 0.078125 -4.25q0 -0.90625 -0.921875 -0.90625zm7.0875244 5.140625q-0.921875 -0.03125 -0.953125 1.1875l-0.15625 7.640625q-0.015625 1.15625 0.953125 1.15625q0.859375 0 0.875 -1.234375l0.125 -7.578125q0.015625 -1.15625 -0.84375 -1.171875zm0.0625 -4.140625q-0.3125 0 -0.5625 0.171875q-0.234375 0.15625 -0.390625 0.421875q-0.15625 0.25 -0.15625 0.546875q0 0.3125 0.15625 0.578125q0.15625 0.25 0.40625 0.390625q0.234375 0.15625 0.515625 0.15625q0.03125 0 0.0625 0q0.28125 0.015625 0.5 -0.109375q0.21875 -0.09375 0.40625 -0.328125q0.203125 -0.265625 0.234375 -0.59375q0 -0.046875 0 -0.09375q0 -0.28125 -0.140625 -0.53125q-0.140625 -0.296875 -0.421875 -0.453125q-0.265625 -0.15625 -0.578125 -0.15625q-0.015625 0 -0.03125 0zm6.8694763 -1.0q-0.828125 0 -0.84375 0.859375l-0.09375 4.296875q-1.0625 0.015625 -2.109375 0.015625q-0.859375 0 -0.859375 0.921875q0 0.890625 0.78125 0.890625q1.0625 0 2.140625 0l-0.171875 7.09375q-0.015625 0.96875 0.8125 0.984375q0.984375 0.015625 0.984375 -0.96875l0.15625 -7.109375q0.984375 0 1.953125 0q1.0625 0 1.0625 -0.9375q0 -0.90625 -1.125 -0.90625l-1.84375 0.015625q0.0625 -1.921875 0.078125 -4.25q0 -0.90625 -0.921875 -0.90625zm7.087555 5.140625q-0.921875 -0.03125 -0.953125 1.1875l-0.15625 7.640625q-0.015625 1.15625 0.953125 1.15625q0.859375 0 0.875 -1.234375l0.125 -7.578125q0.015625 -1.15625 -0.84375 -1.171875zm0.0625 -4.140625q-0.3125 0 -0.5625 0.171875q-0.234375 0.15625 -0.390625 0.421875q-0.15625 0.25 -0.15625 0.546875q0 0.3125 0.15625 0.578125q0.15625 0.25 0.40625 0.390625q0.234375 0.15625 0.515625 0.15625q0.03125 0 0.0625 0q0.28125 0.015625 0.5 -0.109375q0.21875 -0.09375 0.40625 -0.328125q0.203125 -0.265625 0.234375 -0.59375q0 -0.046875 0 -0.09375q0 -0.28125 -0.140625 -0.53125q-0.140625 -0.296875 -0.421875 -0.453125q-0.265625 -0.15625 -0.578125 -0.15625q-0.015625 0 -0.03125 0zm7.6194763 5.96875q1.921875 -0.03125 1.90625 3.21875q-0.015625 1.703125 -0.734375 2.484375q-0.671875 0.71875 -1.671875 0.71875q-0.875 0 -1.546875 -0.71875q-0.65625 -0.71875 -0.65625 -2.140625q0 -1.484375 0.90625 -2.734375q0.59375 -0.796875 1.796875 -0.828125zm-0.078125 -1.859375q-1.984375 -0.015625 -3.1875 1.578125q-1.21875 1.59375 -1.21875 3.671875q0 2.203125 1.015625 3.40625q1.125 1.34375 2.75 1.359375q2.25 0.015625 3.34375 -1.375q0.96875 -1.171875 0.984375 -3.390625q0 -5.21875 -3.6875 -5.25zm6.935913 -0.40625q-0.84375 0 -0.859375 0.84375l-0.203125 8.484375q-0.03125 0.96875 0.78125 0.984375q0.984375 0.015625 1.0 -0.96875l0.15625 -5.515625q1.4375 -1.453125 2.703125 -1.359375q1.515625 0.109375 1.453125 2.625l-0.109375 4.3125q-0.03125 1.109375 0.953125 1.015625q0.859375 -0.078125 0.875 -1.171875l0.078125 -4.5625q0.0625 -4.140625 -3.375 -4.140625q-1.546875 0 -2.546875 0.890625q0.015625 -0.265625 0.015625 -0.53125q0.03125 -0.90625 -0.921875 -0.90625z" fill-rule="nonzero"/><path fill="#3c78d8" d="m231.35612 191.30673q-0.84375 0.015625 -0.859375 0.796875l-0.296875 12.46875q-0.03125 0.921875 0.78125 0.9375q0.984375 0 1.015625 -0.9375l0.109375 -5.234375l7.875 0q-0.0625 2.609375 -0.125 5.234375q-0.015625 0.921875 0.8125 0.9375q0.984375 0.015625 0.984375 -0.921875l0.28125 -12.421875q0.015625 -0.859375 -0.921875 -0.859375q-0.828125 0.03125 -0.84375 0.8125l-0.140625 5.3125l-7.875 0l0.125 -5.28125q0.015625 -0.84375 -0.921875 -0.84375zm14.501114 4.25q-0.921875 -0.03125 -0.953125 1.1875l-0.15625 7.640625q-0.015625 1.15625 0.953125 1.15625q0.859375 0 0.875 -1.234375l0.125 -7.578125q0.015625 -1.15625 -0.84375 -1.171875zm0.0625 -4.140625q-0.3125 0 -0.5625 0.171875q-0.234375 0.15625 -0.390625 0.421875q-0.15625 0.25 -0.15625 0.546875q0 0.3125 0.15625 0.578125q0.15625 0.25 0.40625 0.390625q0.234375 0.15625 0.515625 0.15625q0.03125 0 0.0625 0q0.28125 0.015625 0.5 -0.109375q0.21875 -0.09375 0.40625 -0.328125q0.203125 -0.265625 0.234375 -0.59375q0 -0.046875 0 -0.09375q0 -0.28125 -0.140625 -0.53125q-0.140625 -0.296875 -0.421875 -0.453125q-0.265625 -0.15625 -0.578125 -0.15625q-0.015625 0 -0.03125 0zm5.9632263 12.359375q-0.84375 -0.046875 -1.640625 -0.59375q-0.65625 -0.453125 -1.171875 -0.109375q-0.421875 0.265625 -0.390625 0.875q0.046875 0.546875 0.6875 0.90625q0.703125 0.40625 1.203125 0.546875q0.796875 0.21875 2.078125 0.21875q1.5 -0.015625 2.421875 -0.625q1.125 -0.75 1.265625 -1.921875q0.140625 -1.15625 -0.78125 -2.265625q-0.390625 -0.46875 -1.390625 -0.9375q-0.734375 -0.34375 -1.609375 -0.4375q-1.09375 -0.125 -1.265625 -0.609375q-0.171875 -0.5625 0.265625 -1.078125q0.53125 -0.625 1.625 -0.6875q1.03125 -0.03125 1.5625 0.484375q1.0625 1.015625 1.578125 0.59375q0.421875 -0.34375 0.34375 -0.890625q-0.140625 -0.828125 -1.4375 -1.46875q-1.0 -0.484375 -2.328125 -0.375q-1.1875 0.109375 -2.09375 0.765625q-0.765625 0.546875 -1.15625 1.59375q-0.359375 0.953125 -0.140625 1.859375q0.28125 1.171875 2.15625 1.4375q1.796875 0.25 2.3125 0.796875q0.765625 0.828125 0.390625 1.390625q-0.453125 0.671875 -2.484375 0.53125zm9.988403 -13.359375q-0.828125 0 -0.84375 0.859375l-0.09375 4.296875q-1.0625 0.015625 -2.109375 0.015625q-0.859375 0 -0.859375 0.921875q0 0.890625 0.78125 0.890625q1.0625 0 2.140625 0l-0.171875 7.09375q-0.015625 0.96875 0.8125 0.984375q0.984375 0.015625 0.984375 -0.96875l0.15625 -7.109375q0.984375 0 1.953125 0q1.0625 0 1.0625 -0.9375q0 -0.90625 -1.125 -0.90625l-1.84375 0.015625q0.0625 -1.921875 0.078125 -4.25q0 -0.90625 -0.921875 -0.90625zm9.54068 6.96875q1.921875 -0.03125 1.90625 3.21875q-0.015625 1.703125 -0.734375 2.484375q-0.671875 0.71875 -1.671875 0.71875q-0.875 0 -1.546875 -0.71875q-0.65625 -0.71875 -0.65625 -2.140625q0 -1.484375 0.90625 -2.734375q0.59375 -0.796875 1.796875 -0.828125zm-0.078125 -1.859375q-1.984375 -0.015625 -3.1875 1.578125q-1.21875 1.59375 -1.21875 3.671875q0 2.203125 1.015625 3.40625q1.125 1.34375 2.75 1.359375q2.25 0.015625 3.34375 -1.375q0.96875 -1.171875 0.984375 -3.390625q0 -5.21875 -3.6875 -5.25zm6.935913 -0.40625q-0.84375 0 -0.859375 0.84375l-0.203125 8.53125q-0.03125 0.96875 0.78125 0.984375q0.953125 0.015625 0.984375 -0.96875l0.15625 -5.984375q0.859375 -0.84375 1.890625 -1.046875q1.046875 -0.203125 1.875 0.34375q1.046875 0.71875 1.453125 -0.453125q0.234375 -0.734375 -1.140625 -1.421875q-0.78125 -0.390625 -2.0 -0.375q-0.984375 0.015625 -2.015625 0.78125q0 -0.171875 0 -0.328125q0 -0.90625 -0.921875 -0.90625zm9.463745 0.4375q-0.921875 -0.03125 -0.953125 1.1875l-0.15625 7.640625q-0.015625 1.15625 0.953125 1.15625q0.859375 0 0.875 -1.234375l0.125 -7.578125q0.015625 -1.15625 -0.84375 -1.171875zm0.0625 -4.140625q-0.3125 0 -0.5625 0.171875q-0.234375 0.15625 -0.390625 0.421875q-0.15625 0.25 -0.15625 0.546875q0 0.3125 0.15625 0.578125q0.15625 0.25 0.40625 0.390625q0.234375 0.15625 0.515625 0.15625q0.03125 0 0.0625 0q0.28125 0.015625 0.5 -0.109375q0.21875 -0.09375 0.40625 -0.328125q0.203125 -0.265625 0.234375 -0.59375q0 -0.046875 0 -0.09375q0 -0.28125 -0.140625 -0.53125q-0.140625 -0.296875 -0.421875 -0.453125q-0.265625 -0.15625 -0.578125 -0.15625q-0.015625 0 -0.03125 0zm4.7444763 9.734375l6.125 -0.890625q0.96875 -0.140625 1.0 -1.25q0.046875 -1.40625 -1.0625 -2.5q-1.1875 -1.15625 -3.296875 -1.03125q-2.015625 0.125 -3.296875 1.953125q-1.015625 1.46875 -1.015625 3.34375q0 2.28125 1.625 3.609375q1.296875 1.078125 3.03125 1.09375q2.375 0.015625 3.828125 -1.28125q0.828125 -0.734375 0.40625 -1.578125q-0.1875 -0.359375 -0.625 -0.265625q-0.390625 0.078125 -1.0 0.75q-0.640625 0.71875 -2.5 0.734375q-1.265625 0.015625 -2.296875 -0.890625q-0.875 -0.78125 -0.921875 -1.796875zm0.203125 -1.515625q0.25 -0.890625 0.65625 -1.390625q0.90625 -1.125 2.171875 -1.125q0.890625 -0.015625 1.703125 0.5q0.6875 0.453125 0.828125 1.234375l-5.359375 0.78125zm11.236481 4.140625q-0.84375 -0.046875 -1.640625 -0.59375q-0.65625 -0.453125 -1.171875 -0.109375q-0.421875 0.265625 -0.390625 0.875q0.046875 0.546875 0.6875 0.90625q0.703125 0.40625 1.203125 0.546875q0.796875 0.21875 2.078125 0.21875q1.5 -0.015625 2.421875 -0.625q1.125 -0.75 1.265625 -1.921875q0.140625 -1.15625 -0.78125 -2.265625q-0.390625 -0.46875 -1.390625 -0.9375q-0.734375 -0.34375 -1.609375 -0.4375q-1.09375 -0.125 -1.265625 -0.609375q-0.171875 -0.5625 0.265625 -1.078125q0.53125 -0.625 1.625 -0.6875q1.03125 -0.03125 1.5625 0.484375q1.0625 1.015625 1.578125 0.59375q0.421875 -0.34375 0.34375 -0.890625q-0.140625 -0.828125 -1.4375 -1.46875q-1.0 -0.484375 -2.328125 -0.375q-1.1875 0.109375 -2.09375 0.765625q-0.765625 0.546875 -1.15625 1.59375q-0.359375 0.953125 -0.140625 1.859375q0.28125 1.171875 2.15625 1.4375q1.796875 0.25 2.3125 0.796875q0.765625 0.828125 0.390625 1.390625q-0.453125 0.671875 -2.484375 0.53125z" fill-rule="nonzero"/><path fill="#000000" fill-opacity="0.0" d="m21.514435 376.72702l596.78735 0" fill-rule="evenodd"/><path stroke="#000000" stroke-width="3.0" stroke-linejoin="round" stroke-linecap="butt" d="m21.514435 376.72702l586.5061 0" fill-rule="evenodd"/><path fill="#000000" stroke="#000000" stroke-width="3.0" stroke-linecap="butt" d="m608.02057 376.72702l-3.3737183 3.3737793l9.269287 -3.3737793l-9.269287 -3.3737488z" fill-rule="evenodd"/><path fill="#000000" fill-opacity="0.0" d="m620.8021 346.81207l123.55902 0l0 64.62991l-123.55902 0z" fill-rule="evenodd"/><path fill="#000000" d="m632.4584 362.45084q-0.8125 1.375 -0.453125 2.8125q0.625 2.546875 4.015625 2.5q3.484375 -0.0625 3.859375 1.265625q0.34375 1.265625 -0.875 2.4375q-0.625 0.609375 -2.375 0.921875q-0.984375 0.171875 -2.15625 -0.109375q-0.875 -0.203125 -1.484375 -0.75q-0.78125 -0.671875 -1.296875 -0.53125q-0.453125 0.140625 -0.546875 0.734375q-0.0625 0.546875 0.65625 1.203125q0.515625 0.4375 1.25 0.75q1.078125 0.453125 2.71875 0.4375q2.21875 -0.015625 3.71875 -0.875q2.25 -1.296875 2.375 -3.5625q0.078125 -1.46875 -1.0625 -2.65625q-0.921875 -0.9375 -2.875 -1.0q-2.1875 -0.0625 -2.75 -0.15625q-1.46875 -0.203125 -1.3125 -1.84375q0.078125 -0.828125 0.953125 -1.5q0.8125 -0.640625 2.328125 -0.734375q0.984375 -0.046875 2.25 0.4375q0.890625 0.34375 1.234375 0.1875q0.515625 -0.25 0.484375 -0.71875q-0.03125 -0.5625 -1.359375 -1.15625q-0.9375 -0.40625 -2.28125 -0.453125q-1.515625 -0.0625 -2.828125 0.578125q-1.578125 0.75 -2.1875 1.78125zm13.060486 1.75q-0.921875 -0.03125 -0.953125 1.1875l-0.15625 7.640625q-0.015625 1.15625 0.953125 1.15625q0.859375 0 0.875 -1.234375l0.125 -7.578125q0.015625 -1.15625 -0.84375 -1.171875zm0.0625 -4.140625q-0.3125 0 -0.5625 0.171875q-0.234375 0.15625 -0.390625 0.421875q-0.15625 0.25 -0.15625 0.546875q0 0.3125 0.15625 0.578125q0.15625 0.25 0.40625 0.390625q0.234375 0.15625 0.515625 0.15625q0.03125 0 0.0625 0q0.28125 0.015625 0.5 -0.109375q0.21875 -0.09375 0.40625 -0.328125q0.203125 -0.265625 0.234375 -0.59375q0 -0.046875 0 -0.09375q0 -0.28125 -0.140625 -0.53125q-0.140625 -0.296875 -0.421875 -0.453125q-0.265625 -0.15625 -0.578125 -0.15625q-0.015625 0 -0.03125 0zm4.494446 3.703125q-0.828125 0 -0.859375 0.84375l-0.203125 8.453125q-0.03125 0.96875 0.796875 0.984375q0.9375 0.03125 0.96875 -0.96875l0.15625 -5.03125q0.5 -1.90625 2.0625 -1.84375q1.40625 0.046875 1.359375 2.640625l-0.09375 4.1875q-0.03125 1.078125 0.90625 1.0q0.84375 -0.0625 0.875 -1.171875l0.109375 -4.5625q0.015625 -0.53125 0.03125 -0.5625q0.609375 -1.5625 2.28125 -1.515625q1.4375 0.03125 1.390625 2.734375l-0.046875 4.203125q-0.015625 1.09375 0.96875 1.0q0.859375 -0.0625 0.875 -1.171875l0.0625 -4.53125q0.0625 -4.140625 -3.390625 -4.140625q-1.859375 -0.015625 -2.796875 1.328125q-0.65625 -1.359375 -2.546875 -1.328125q-1.171875 0 -1.984375 0.734375l0.015625 -0.375q0.015625 -0.90625 -0.9375 -0.90625zm20.211975 10.65625q0.828125 0 0.84375 -0.84375l0.21875 -8.5q0.015625 -0.984375 -0.796875 -1.015625q-0.96875 0 -1.0 0.984375l-0.109375 4.609375q-0.046875 1.484375 -1.234375 2.09375q-1.296875 0.65625 -2.25 0.015625q-0.6875 -0.484375 -0.671875 -2.6875l0.015625 -3.984375q0.015625 -1.09375 -0.953125 -1.0q-0.859375 0.078125 -0.875 1.171875l-0.03125 4.46875q-0.03125 4.140625 3.390625 4.15625q1.546875 0 2.546875 -0.90625l-0.015625 0.546875q-0.015625 0.890625 0.921875 0.890625zm4.607849 -15.359375q-0.828125 0.03125 -0.84375 0.859375l-0.3125 13.21875q-0.015625 0.96875 0.8125 0.984375q0.984375 0.015625 0.984375 -0.96875l0.28125 -13.1875q0.03125 -0.90625 -0.921875 -0.90625zm6.9697876 15.1875q0.84375 -0.015625 2.734375 -0.96875q0.171875 1.203125 1.3125 0.96875q1.0 -0.203125 0.21875 -1.53125q-0.53125 -0.921875 -0.484375 -3.109375q0.046875 -2.734375 0.25 -3.875q0.21875 -1.171875 -0.875 -1.40625q-0.5625 -0.125 -0.828125 0.09375q-2.390625 -0.75 -4.578125 1.046875q-1.890625 1.546875 -1.875 4.40625q0.03125 4.375 4.125 4.375zm1.046875 -1.84375q-0.6875 0.265625 -1.484375 0.203125q-1.875 -0.125 -1.90625 -2.90625q0.078125 -2.140625 1.703125 -3.3125q0.40625 -0.3125 1.078125 -0.46875q0.96875 -0.234375 1.84375 0.3125q-0.421875 1.484375 -0.09375 5.390625q-0.8125 0.671875 -1.140625 0.78125zm8.390503 -13.34375q-0.828125 0 -0.84375 0.859375l-0.09375 4.296875q-1.0625 0.015625 -2.109375 0.015625q-0.859375 0 -0.859375 0.921875q0 0.890625 0.78125 0.890625q1.0625 0 2.140625 0l-0.171875 7.09375q-0.015625 0.96875 0.8125 0.984375q0.984375 0.015625 0.984375 -0.96875l0.15625 -7.109375q0.984375 0 1.953125 0q1.0625 0 1.0625 -0.9375q0 -0.90625 -1.125 -0.90625l-1.84375 0.015625q0.0625 -1.921875 0.078125 -4.25q0 -0.90625 -0.921875 -0.90625zm7.0875854 5.140625q-0.921875 -0.03125 -0.953125 1.1875l-0.15625 7.640625q-0.015625 1.15625 0.953125 1.15625q0.859375 0 0.875 -1.234375l0.125 -7.578125q0.015625 -1.15625 -0.84375 -1.171875zm0.0625 -4.140625q-0.3125 0 -0.5625 0.171875q-0.234375 0.15625 -0.390625 0.421875q-0.15625 0.25 -0.15625 0.546875q0 0.3125 0.15625 0.578125q0.15625 0.25 0.40625 0.390625q0.234375 0.15625 0.515625 0.15625q0.03125 0 0.0625 0q0.28125 0.015625 0.5 -0.109375q0.21875 -0.09375 0.40625 -0.328125q0.203125 -0.265625 0.234375 -0.59375q0 -0.046875 0 -0.09375q0 -0.28125 -0.140625 -0.53125q-0.140625 -0.296875 -0.421875 -0.453125q-0.265625 -0.15625 -0.578125 -0.15625q-0.015625 0 -0.03125 0zm7.619446 5.96875q1.921875 -0.03125 1.90625 3.21875q-0.015625 1.703125 -0.734375 2.484375q-0.671875 0.71875 -1.671875 0.71875q-0.875 0 -1.546875 -0.71875q-0.65625 -0.71875 -0.65625 -2.140625q0 -1.484375 0.90625 -2.734375q0.59375 -0.796875 1.796875 -0.828125zm-0.078125 -1.859375q-1.984375 -0.015625 -3.1875 1.578125q-1.21875 1.59375 -1.21875 3.671875q0 2.203125 1.015625 3.40625q1.125 1.34375 2.75 1.359375q2.25 0.015625 3.34375 -1.375q0.96875 -1.171875 0.984375 -3.390625q0 -5.21875 -3.6875 -5.25zm6.935913 -0.40625q-0.84375 0 -0.859375 0.84375l-0.203125 8.484375q-0.03125 0.96875 0.78125 0.984375q0.984375 0.015625 1.0 -0.96875l0.15625 -5.515625q1.4375 -1.453125 2.703125 -1.359375q1.515625 0.109375 1.453125 2.625l-0.109375 4.3125q-0.03125 1.109375 0.953125 1.015625q0.859375 -0.078125 0.875 -1.171875l0.078125 -4.5625q0.0625 -4.140625 -3.375 -4.140625q-1.546875 0 -2.546875 0.890625q0.015625 -0.265625 0.015625 -0.53125q0.03125 -0.90625 -0.921875 -0.90625z" fill-rule="nonzero"/><path fill="#000000" d="m632.099 382.4602q-1.234375 0 -1.234375 0.8125q0 0.953125 1.15625 0.953125q2.140625 0 4.296875 -0.015625l-0.28125 11.453125q-0.015625 0.90625 0.796875 0.921875q0.96875 0.015625 1.0 -0.90625l0.265625 -11.46875l3.84375 -0.015625q1.21875 0 1.203125 -0.828125q-0.03125 -0.90625 -1.203125 -0.90625l-9.84375 0zm13.164795 4.140625q-0.921875 -0.03125 -0.953125 1.1875l-0.15625 7.640625q-0.015625 1.15625 0.953125 1.15625q0.859375 0 0.875 -1.234375l0.125 -7.578125q0.015625 -1.15625 -0.84375 -1.171875zm0.0625 -4.140625q-0.3125 0 -0.5625 0.171875q-0.234375 0.15625 -0.390625 0.421875q-0.15625 0.25 -0.15625 0.546875q0 0.3125 0.15625 0.578125q0.15625 0.25 0.40625 0.390625q0.234375 0.15625 0.515625 0.15625q0.03125 0 0.0625 0q0.28125 0.015625 0.5 -0.109375q0.21875 -0.09375 0.40625 -0.328125q0.203125 -0.265625 0.234375 -0.59375q0 -0.046875 0 -0.09375q0 -0.28125 -0.140625 -0.53125q-0.140625 -0.296875 -0.421875 -0.453125q-0.265625 -0.15625 -0.578125 -0.15625q-0.015625 0 -0.03125 0zm4.494446 3.703125q-0.828125 0 -0.859375 0.84375l-0.203125 8.453125q-0.03125 0.96875 0.796875 0.984375q0.9375 0.03125 0.96875 -0.96875l0.15625 -5.03125q0.5 -1.90625 2.0625 -1.84375q1.40625 0.046875 1.359375 2.640625l-0.09375 4.1875q-0.03125 1.078125 0.90625 1.0q0.84375 -0.0625 0.875 -1.171875l0.109375 -4.5625q0.015625 -0.53125 0.03125 -0.5625q0.609375 -1.5625 2.28125 -1.515625q1.4375 0.03125 1.390625 2.734375l-0.046875 4.203125q-0.015625 1.09375 0.96875 1.0q0.859375 -0.0625 0.875 -1.171875l0.0625 -4.53125q0.0625 -4.140625 -3.390625 -4.140625q-1.859375 -0.015625 -2.796875 1.328125q-0.65625 -1.359375 -2.546875 -1.328125q-1.171875 0 -1.984375 0.734375l0.015625 -0.375q0.015625 -0.90625 -0.9375 -0.90625zm14.743225 6.03125l6.125 -0.890625q0.96875 -0.140625 1.0 -1.25q0.046875 -1.40625 -1.0625 -2.5q-1.1875 -1.15625 -3.296875 -1.03125q-2.015625 0.125 -3.296875 1.953125q-1.015625 1.46875 -1.015625 3.34375q0 2.28125 1.625 3.609375q1.296875 1.078125 3.03125 1.09375q2.375 0.015625 3.828125 -1.28125q0.828125 -0.734375 0.40625 -1.578125q-0.1875 -0.359375 -0.625 -0.265625q-0.390625 0.078125 -1.0 0.75q-0.640625 0.71875 -2.5 0.734375q-1.265625 0.015625 -2.296875 -0.890625q-0.875 -0.78125 -0.921875 -1.796875zm0.203125 -1.515625q0.25 -0.890625 0.65625 -1.390625q0.90625 -1.125 2.171875 -1.125q0.890625 -0.015625 1.703125 0.5q0.6875 0.453125 0.828125 1.234375l-5.359375 0.78125zm10.3927 -9.21875q-0.828125 0.03125 -0.84375 0.859375l-0.3125 13.21875q-0.015625 0.96875 0.8125 0.984375q0.984375 0.015625 0.984375 -0.96875l0.28125 -13.1875q0.03125 -0.90625 -0.921875 -0.90625zm5.1573486 5.140625q-0.921875 -0.03125 -0.953125 1.1875l-0.15625 7.640625q-0.015625 1.15625 0.953125 1.15625q0.859375 0 0.875 -1.234375l0.125 -7.578125q0.015625 -1.15625 -0.84375 -1.171875zm0.0625 -4.140625q-0.3125 0 -0.5625 0.171875q-0.234375 0.15625 -0.390625 0.421875q-0.15625 0.25 -0.15625 0.546875q0 0.3125 0.15625 0.578125q0.15625 0.25 0.40625 0.390625q0.234375 0.15625 0.515625 0.15625q0.03125 0 0.0625 0q0.28125 0.015625 0.5 -0.109375q0.21875 -0.09375 0.40625 -0.328125q0.203125 -0.265625 0.234375 -0.59375q0 -0.046875 0 -0.09375q0 -0.28125 -0.140625 -0.53125q-0.140625 -0.296875 -0.421875 -0.453125q-0.265625 -0.15625 -0.578125 -0.15625q-0.015625 0 -0.03125 0zm4.666321 3.703125q-0.84375 0 -0.859375 0.84375l-0.203125 8.484375q-0.03125 0.96875 0.78125 0.984375q0.984375 0.015625 1.0 -0.96875l0.15625 -5.515625q1.4375 -1.453125 2.703125 -1.359375q1.515625 0.109375 1.453125 2.625l-0.109375 4.3125q-0.03125 1.109375 0.953125 1.015625q0.859375 -0.078125 0.875 -1.171875l0.078125 -4.5625q0.0625 -4.140625 -3.375 -4.140625q-1.546875 0 -2.546875 0.890625q0.015625 -0.265625 0.015625 -0.53125q0.03125 -0.90625 -0.921875 -0.90625zm9.843506 6.03125l6.125 -0.890625q0.96875 -0.140625 1.0 -1.25q0.046875 -1.40625 -1.0625 -2.5q-1.1875 -1.15625 -3.296875 -1.03125q-2.015625 0.125 -3.296875 1.953125q-1.015625 1.46875 -1.015625 3.34375q0 2.28125 1.625 3.609375q1.296875 1.078125 3.03125 1.09375q2.375 0.015625 3.828125 -1.28125q0.828125 -0.734375 0.40625 -1.578125q-0.1875 -0.359375 -0.625 -0.265625q-0.390625 0.078125 -1.0 0.75q-0.640625 0.71875 -2.5 0.734375q-1.265625 0.015625 -2.296875 -0.890625q-0.875 -0.78125 -0.921875 -1.796875zm0.203125 -1.515625q0.25 -0.890625 0.65625 -1.390625q0.90625 -1.125 2.171875 -1.125q0.890625 -0.015625 1.703125 0.5q0.6875 0.453125 0.828125 1.234375l-5.359375 0.78125z" fill-rule="nonzero"/><path fill="#000000" fill-opacity="0.0" d="m101.94751 347.12073l0 59.212616" fill-rule="evenodd"/><path stroke="#000000" stroke-width="3.0" stroke-linejoin="round" stroke-linecap="butt" d="m101.94751 347.12073l0 59.212616" fill-rule="evenodd"/><path fill="#000000" fill-opacity="0.0" d="m436.28348 347.12073l0 59.212616" fill-rule="evenodd"/><path stroke="#000000" stroke-width="3.0" stroke-linejoin="round" stroke-linecap="butt" d="m436.28348 347.12073l0 59.212616" fill-rule="evenodd"/><path fill="#000000" fill-opacity="0.0" d="m171.66667 111.181145c15.230118 2.0344162 48.878723 34.63183 38.008804 24.460762" fill-rule="evenodd"/><path stroke="#000000" stroke-width="3.0" stroke-linejoin="round" stroke-linecap="butt" d="m171.66667 111.181145c7.6150513 1.0172043 19.834717 9.675163 28.7919 16.807434c0.2799225 0.2228775 0.5566406 0.44428253 0.82995605 0.6639023l0.49517822 0.39968872" fill-rule="evenodd"/><path fill="#000000" stroke="#000000" stroke-width="3.0" stroke-linecap="butt" d="m201.7837 129.05217l-4.7520294 0.4272461l9.277374 3.3514862l-4.952591 -8.530769z" fill-rule="evenodd"/><path fill="#000000" fill-opacity="0.0" d="m171.90814 242.51564c14.775238 -3.539734 32.8024 -11.6492 37.602173 -26.586517" fill-rule="evenodd"/><path stroke="#000000" stroke-width="3.0" stroke-linejoin="round" stroke-linecap="butt" d="m171.90814 242.51564c7.387619 -1.769867 15.588211 -4.6821594 22.541885 -9.019165c3.4768372 -2.1684875 6.6419373 -4.693161 9.2378235 -7.6092987c0.16223145 -0.18226624 0.32226562 -0.36605835 0.47998047 -0.55137634c0.07887268 -0.092666626 0.15715027 -0.18569946 0.23487854 -0.2791443l0.11500549 -0.13986206" fill-rule="evenodd"/><path fill="#000000" stroke="#000000" stroke-width="3.0" stroke-linecap="butt" d="m204.51772 224.91678l1.3109589 4.58757l1.5519257 -9.741333l-7.4504547 6.464737z" fill-rule="evenodd"/><path fill="#000000" fill-opacity="0.0" d="m328.3622 136.72966c9.338837 -11.207855 23.759888 -17.783684 37.59842 -22.401573" fill-rule="evenodd"/><path stroke="#000000" stroke-width="3.0" stroke-linejoin="round" stroke-linecap="butt" d="m328.3622 136.72966c4.669403 -5.6039276 10.609375 -10.04985 17.111816 -13.67202c3.2511902 -1.8110886 6.6430664 -3.4162445 10.087006 -4.857239c0.21520996 -0.090065 0.43069458 -0.17948914 0.64630127 -0.2682724l0.10803223 -0.044128418" fill-rule="evenodd"/><path fill="#000000" stroke="#000000" stroke-width="3.0" stroke-linecap="butt" d="m356.31537 117.888l-1.9968872 4.333229l7.5277405 -6.3745804l-9.864105 0.04447174z" fill-rule="evenodd"/><path fill="#000000" fill-opacity="0.0" d="m328.3622 215.92911c6.0538025 14.508026 22.907898 28.0 39.199097 28.0" fill-rule="evenodd"/><path stroke="#000000" stroke-width="3.0" stroke-linejoin="round" stroke-linecap="butt" d="m328.3622 215.92911c3.026886 7.253998 8.753876 14.253998 15.760529 19.440521c3.5033264 2.5932312 7.3265686 4.733124 11.292175 6.2246704c0.4956665 0.1864624 0.9936218 0.36276245 1.4934387 0.52856445c0.124938965 0.04145813 0.25003052 0.08224487 0.3751831 0.12237549l0.12869263 0.040542603" fill-rule="evenodd"/><path fill="#000000" stroke="#000000" stroke-width="3.0" stroke-linecap="butt" d="m357.41223 242.28578l-3.869629 2.7911224l9.689392 -1.8487854l-8.61087 -4.811966z" fill-rule="evenodd"/><path fill="#000000" fill-opacity="0.0" d="m173.30183 77.31759l76.91339 0l0 38.771652l-76.91339 0z" fill-rule="evenodd"/><path fill="#000000" d="m188.69246 94.52134q-0.171875 -1.015625 -0.796875 -1.015625q-0.53125 0 -0.859375 1.015625l-1.734375 5.421875l-0.921875 -5.421875q-0.1875 -1.125 -0.875 -1.015625q-0.71875 0.109375 -0.53125 1.09375l1.234375 6.515625q0.1875 0.953125 0.984375 0.953125q0.65625 0 0.984375 -0.953125l1.515625 -4.296875l0.828125 4.296875q0.171875 0.953125 0.984375 0.953125q0.65625 0 0.984375 -0.953125l2.25 -6.515625q0.34375 -0.96875 -0.46875 -1.09375q-0.578125 -0.078125 -0.9375 1.015625l-1.734375 5.421875l-0.90625 -5.421875zm6.5078125 -1.390625q-0.71875 0 -0.734375 0.71875l-0.171875 7.3125q-0.03125 0.84375 0.671875 0.859375q0.828125 0.015625 0.84375 -0.84375l0.140625 -5.125q0.734375 -0.734375 1.609375 -0.90625q0.90625 -0.171875 1.609375 0.296875q0.90625 0.609375 1.25 -0.390625q0.203125 -0.625 -0.984375 -1.21875q-0.671875 -0.34375 -1.703125 -0.328125q-0.859375 0.015625 -1.734375 0.6875q0 -0.15625 0 -0.296875q0 -0.765625 -0.796875 -0.765625zm8.125 0.359375q-0.796875 -0.015625 -0.8125 1.03125l-0.140625 6.546875q-0.015625 1.0 0.8125 1.0q0.734375 0 0.75 -1.0625l0.109375 -6.5q0.015625 -1.0 -0.71875 -1.015625zm0.046875 -3.546875q-0.265625 0 -0.484375 0.140625q-0.203125 0.140625 -0.328125 0.359375q-0.125 0.21875 -0.125 0.46875q0 0.28125 0.125 0.5q0.140625 0.21875 0.34375 0.34375q0.203125 0.125 0.453125 0.140625q0.015625 0 0.046875 0q0.234375 0 0.4375 -0.09375q0.1875 -0.09375 0.34375 -0.296875q0.171875 -0.21875 0.1875 -0.515625q0 -0.03125 0 -0.078125q0 -0.234375 -0.109375 -0.453125q-0.125 -0.25 -0.359375 -0.390625q-0.234375 -0.125 -0.5 -0.125q-0.015625 0 -0.03125 0zm5.890625 -0.84375q-0.703125 0 -0.71875 0.71875l-0.078125 3.703125q-0.90625 0 -1.8125 0q-0.734375 0 -0.734375 0.796875q0 0.765625 0.671875 0.765625q0.90625 0 1.828125 0l-0.140625 6.078125q-0.015625 0.84375 0.6875 0.859375q0.84375 0.015625 0.859375 -0.84375l0.125 -6.09375q0.84375 0 1.671875 0q0.921875 0 0.921875 -0.796875q0 -0.796875 -0.96875 -0.78125l-1.578125 0q0.046875 -1.640625 0.0625 -3.640625q0 -0.765625 -0.796875 -0.765625zm5.7265625 9.1875l5.25 -0.75q0.828125 -0.125 0.859375 -1.078125q0.046875 -1.203125 -0.921875 -2.140625q-1.015625 -1.0 -2.8125 -0.890625q-1.734375 0.109375 -2.828125 1.6875q-0.875 1.25 -0.875 2.859375q0 1.953125 1.390625 3.09375q1.109375 0.9375 2.609375 0.953125q2.03125 0.015625 3.28125 -1.109375q0.703125 -0.625 0.34375 -1.359375q-0.15625 -0.3125 -0.53125 -0.234375q-0.34375 0.078125 -0.859375 0.65625q-0.546875 0.609375 -2.140625 0.625q-1.09375 0.015625 -1.96875 -0.765625q-0.765625 -0.65625 -0.796875 -1.546875zm0.171875 -1.28125q0.21875 -0.78125 0.5625 -1.203125q0.78125 -0.96875 1.859375 -0.96875q0.765625 0 1.453125 0.4375q0.59375 0.375 0.71875 1.0625l-4.59375 0.671875zm9.625 3.546875q-0.71875 -0.046875 -1.40625 -0.515625q-0.5625 -0.390625 -1.0 -0.09375q-0.359375 0.234375 -0.328125 0.75q0.03125 0.46875 0.578125 0.78125q0.609375 0.359375 1.03125 0.46875q0.6875 0.203125 1.78125 0.1875q1.296875 0 2.078125 -0.53125q0.96875 -0.65625 1.09375 -1.65625q0.125 -0.984375 -0.671875 -1.9375q-0.328125 -0.40625 -1.1875 -0.8125q-0.640625 -0.296875 -1.375 -0.375q-0.953125 -0.09375 -1.09375 -0.515625q-0.15625 -0.484375 0.234375 -0.9375q0.453125 -0.53125 1.390625 -0.578125q0.890625 -0.03125 1.34375 0.40625q0.90625 0.875 1.34375 0.515625q0.359375 -0.296875 0.296875 -0.765625q-0.109375 -0.703125 -1.234375 -1.25q-0.859375 -0.421875 -2.0 -0.328125q-1.015625 0.09375 -1.78125 0.65625q-0.65625 0.46875 -1.0 1.375q-0.3125 0.8125 -0.125 1.59375q0.25 1.0 1.84375 1.234375q1.546875 0.203125 1.984375 0.671875q0.65625 0.703125 0.34375 1.203125q-0.390625 0.5625 -2.140625 0.453125z" fill-rule="nonzero"/><path fill="#000000" fill-opacity="0.0" d="m303.33957 77.31759l76.91339 0l0 38.771652l-76.91339 0z" fill-rule="evenodd"/><path fill="#000000" d="m314.2927 93.130714q-0.71875 0 -0.734375 0.71875l-0.171875 7.3125q-0.03125 0.84375 0.671875 0.859375q0.828125 0.015625 0.84375 -0.84375l0.140625 -5.125q0.734375 -0.734375 1.609375 -0.90625q0.90625 -0.171875 1.609375 0.296875q0.90625 0.609375 1.25 -0.390625q0.203125 -0.625 -0.984375 -1.21875q-0.671875 -0.34375 -1.703125 -0.328125q-0.859375 0.015625 -1.734375 0.6875q0 -0.15625 0 -0.296875q0 -0.765625 -0.796875 -0.765625zm7.765625 5.15625l5.25 -0.75q0.828125 -0.125 0.859375 -1.078125q0.046875 -1.203125 -0.921875 -2.140625q-1.015625 -1.0 -2.8125 -0.890625q-1.734375 0.109375 -2.828125 1.6875q-0.875 1.25 -0.875 2.859375q0 1.953125 1.390625 3.09375q1.109375 0.9375 2.609375 0.953125q2.03125 0.015625 3.28125 -1.109375q0.703125 -0.625 0.34375 -1.359375q-0.15625 -0.3125 -0.53125 -0.234375q-0.34375 0.078125 -0.859375 0.65625q-0.546875 0.609375 -2.140625 0.625q-1.09375 0.015625 -1.96875 -0.765625q-0.765625 -0.65625 -0.796875 -1.546875zm0.171875 -1.28125q0.21875 -0.78125 0.5625 -1.203125q0.78125 -0.96875 1.859375 -0.96875q0.765625 0 1.453125 0.4375q0.59375 0.375 0.71875 1.0625l-4.59375 0.671875zm10.5 5.109375q0.734375 0 2.34375 -0.828125q0.15625 1.03125 1.140625 0.828125q0.84375 -0.171875 0.1875 -1.3125q-0.453125 -0.78125 -0.421875 -2.65625q0.03125 -2.359375 0.21875 -3.328125q0.171875 -1.0 -0.765625 -1.21875q-0.46875 -0.109375 -0.703125 0.09375q-2.046875 -0.65625 -3.921875 0.890625q-1.625 1.328125 -1.609375 3.78125q0.03125 3.765625 3.53125 3.75zm0.90625 -1.578125q-0.59375 0.21875 -1.265625 0.171875q-1.625 -0.109375 -1.640625 -2.5q0.0625 -1.828125 1.453125 -2.84375q0.34375 -0.25 0.921875 -0.390625q0.828125 -0.203125 1.59375 0.265625q-0.359375 1.265625 -0.078125 4.625q-0.703125 0.578125 -0.984375 0.671875zm11.171875 -11.4375q-0.703125 0.015625 -0.71875 0.71875l-0.109375 4.515625q-0.296875 -0.21875 -0.671875 -0.421875q-0.703125 -0.40625 -1.640625 -0.40625q-1.75 0 -2.828125 1.34375q-1.15625 1.40625 -1.078125 3.484375q0.0625 1.546875 1.21875 2.703125q1.03125 1.03125 2.390625 1.03125q1.3125 0.015625 2.46875 -0.734375q0.046875 0.671875 0.671875 0.6875q0.84375 0.015625 0.859375 -0.84375l0.234375 -11.3125q0.015625 -0.765625 -0.796875 -0.765625zm-0.953125 10.46875q-1.390625 1.09375 -2.484375 0.96875q-1.046875 -0.109375 -1.578125 -0.8125q-0.65625 -0.875 -0.640625 -1.765625q0.03125 -1.375 0.640625 -2.15625q0.4375 -0.53125 1.421875 -0.78125q1.34375 -0.328125 2.734375 1.109375q0 1.8125 -0.09375 3.4375zm5.5859375 0.984375q-0.71875 -0.046875 -1.40625 -0.515625q-0.5625 -0.390625 -1.0 -0.09375q-0.359375 0.234375 -0.328125 0.75q0.03125 0.46875 0.578125 0.78125q0.609375 0.359375 1.03125 0.46875q0.6875 0.203125 1.78125 0.1875q1.296875 0 2.078125 -0.53125q0.96875 -0.65625 1.09375 -1.65625q0.125 -0.984375 -0.671875 -1.9375q-0.328125 -0.40625 -1.1875 -0.8125q-0.640625 -0.296875 -1.375 -0.375q-0.953125 -0.09375 -1.09375 -0.515625q-0.15625 -0.484375 0.234375 -0.9375q0.453125 -0.53125 1.390625 -0.578125q0.890625 -0.03125 1.34375 0.40625q0.90625 0.875 1.34375 0.515625q0.359375 -0.296875 0.296875 -0.765625q-0.109375 -0.703125 -1.234375 -1.25q-0.859375 -0.421875 -2.0 -0.328125q-1.015625 0.09375 -1.78125 0.65625q-0.65625 0.46875 -1.0 1.375q-0.3125 0.8125 -0.125 1.59375q0.25 1.0 1.84375 1.234375q1.546875 0.203125 1.984375 0.671875q0.65625 0.703125 0.34375 1.203125q-0.390625 0.5625 -2.140625 0.453125z" fill-rule="nonzero"/><path fill="#000000" fill-opacity="0.0" d="m538.97473 147.43336l0 0c0 -7.935089 6.432678 -14.367752 14.367737 -14.367752l99.51648 0c3.810608 0 7.465088 1.5137482 10.159546 4.2082214c2.694458 2.6944733 4.208191 6.3489685 4.208191 10.159531l0 57.46924c0 7.935074 -6.432617 14.367737 -14.367737 14.367737l-99.51648 0c-7.9350586 0 -14.367737 -6.432663 -14.367737 -14.367737z" fill-rule="evenodd"/><path stroke="#3c78d8" stroke-width="3.0" stroke-linejoin="round" stroke-linecap="butt" d="m538.97473 147.43336l0 0c0 -7.935089 6.432678 -14.367752 14.367737 -14.367752l99.51648 0c3.810608 0 7.465088 1.5137482 10.159546 4.2082214c2.694458 2.6944733 4.208191 6.3489685 4.208191 10.159531l0 57.46924c0 7.935074 -6.432617 14.367737 -14.367737 14.367737l-99.51648 0c-7.9350586 0 -14.367737 -6.432663 -14.367737 -14.367737z" fill-rule="evenodd"/><path fill="#3c78d8" d="m580.61475 149.80673q-0.8125 1.375 -0.453125 2.8125q0.625 2.546875 4.015625 2.5q3.484375 -0.0625 3.859375 1.265625q0.34375 1.265625 -0.875 2.4375q-0.625 0.609375 -2.375 0.921875q-0.984375 0.171875 -2.15625 -0.109375q-0.875 -0.203125 -1.484375 -0.75q-0.78125 -0.671875 -1.296875 -0.53125q-0.453125 0.140625 -0.546875 0.734375q-0.0625 0.546875 0.65625 1.203125q0.515625 0.4375 1.25 0.75q1.078125 0.453125 2.71875 0.4375q2.21875 -0.015625 3.71875 -0.875q2.25 -1.296875 2.375 -3.5625q0.078125 -1.46875 -1.0625 -2.65625q-0.921875 -0.9375 -2.875 -1.0q-2.1875 -0.0625 -2.75 -0.15625q-1.46875 -0.203125 -1.3125 -1.84375q0.078125 -0.828125 0.953125 -1.5q0.8125 -0.640625 2.328125 -0.734375q0.984375 -0.046875 2.25 0.4375q0.890625 0.34375 1.234375 0.1875q0.515625 -0.25 0.484375 -0.71875q-0.03125 -0.5625 -1.359375 -1.15625q-0.9375 -0.40625 -2.28125 -0.453125q-1.515625 -0.0625 -2.828125 0.578125q-1.578125 0.75 -2.1875 1.78125zm14.763611 -3.390625q-0.828125 0 -0.84375 0.859375l-0.09375 4.296875q-1.0625 0.015625 -2.109375 0.015625q-0.859375 0 -0.859375 0.921875q0 0.890625 0.78125 0.890625q1.0625 0 2.140625 0l-0.171875 7.09375q-0.015625 0.96875 0.8125 0.984375q0.984375 0.015625 0.984375 -0.96875l0.15625 -7.109375q0.984375 0 1.953125 0q1.0625 0 1.0625 -0.9375q0 -0.90625 -1.125 -0.90625l-1.84375 0.015625q0.0625 -1.921875 0.078125 -4.25q0 -0.90625 -0.921875 -0.90625zm8.900024 15.1875q0.84375 -0.015625 2.734375 -0.96875q0.171875 1.203125 1.3125 0.96875q1.0 -0.203125 0.21875 -1.53125q-0.53125 -0.921875 -0.484375 -3.109375q0.046875 -2.734375 0.25 -3.875q0.21875 -1.171875 -0.875 -1.40625q-0.5625 -0.125 -0.828125 0.09375q-2.390625 -0.75 -4.578125 1.046875q-1.890625 1.546875 -1.875 4.40625q0.03125 4.375 4.125 4.375zm1.046875 -1.84375q-0.6875 0.265625 -1.484375 0.203125q-1.875 -0.125 -1.90625 -2.90625q0.078125 -2.140625 1.703125 -3.3125q0.40625 -0.3125 1.078125 -0.46875q0.96875 -0.234375 1.84375 0.3125q-0.421875 1.484375 -0.09375 5.390625q-0.8125 0.671875 -1.140625 0.78125zm8.390503 -13.34375q-0.828125 0 -0.84375 0.859375l-0.09375 4.296875q-1.0625 0.015625 -2.109375 0.015625q-0.859375 0 -0.859375 0.921875q0 0.890625 0.78125 0.890625q1.0625 0 2.140625 0l-0.171875 7.09375q-0.015625 0.96875 0.8125 0.984375q0.984375 0.015625 0.984375 -0.96875l0.15625 -7.109375q0.984375 0 1.953125 0q1.0625 0 1.0625 -0.9375q0 -0.90625 -1.125 -0.90625l-1.84375 0.015625q0.0625 -1.921875 0.078125 -4.25q0 -0.90625 -0.921875 -0.90625zm6.6657104 10.734375l6.125 -0.890625q0.96875 -0.140625 1.0 -1.25q0.046875 -1.40625 -1.0625 -2.5q-1.1875 -1.15625 -3.296875 -1.03125q-2.015625 0.125 -3.296875 1.953125q-1.015625 1.46875 -1.015625 3.34375q0 2.28125 1.625 3.609375q1.296875 1.078125 3.03125 1.09375q2.375 0.015625 3.828125 -1.28125q0.828125 -0.734375 0.40625 -1.578125q-0.1875 -0.359375 -0.625 -0.265625q-0.390625 0.078125 -1.0 0.75q-0.640625 0.71875 -2.5 0.734375q-1.265625 0.015625 -2.296875 -0.890625q-0.875 -0.78125 -0.921875 -1.796875zm0.203125 -1.515625q0.25 -0.890625 0.65625 -1.390625q0.90625 -1.125 2.171875 -1.125q0.890625 -0.015625 1.703125 0.5q0.6875 0.453125 0.828125 1.234375l-5.359375 0.78125z" fill-rule="nonzero"/><path fill="#3c78d8" d="m567.19806 169.25986q-0.828125 0 -0.84375 0.796875l-0.3125 12.484375q-0.015625 0.921875 0.796875 0.953125q0.984375 0.015625 1.0 -0.9375l0.109375 -4.875q0.234375 0.03125 0.5 0.015625q3.828125 -0.21875 4.8125 -1.421875q1.65625 -2.09375 0.765625 -4.40625q-0.890625 -2.296875 -4.078125 -2.609375q-0.953125 -0.09375 -2.375 0.03125q-0.171875 -0.03125 -0.375 -0.03125zm0.90625 1.828125q0.734375 -0.078125 1.265625 -0.09375q2.0625 -0.015625 2.8125 1.375q0.609375 1.1875 -0.171875 2.546875q-0.796875 1.390625 -4.015625 1.046875l0.109375 -4.875zm11.382629 12.515625q0.84375 -0.015625 2.734375 -0.96875q0.171875 1.203125 1.3125 0.96875q1.0 -0.203125 0.21875 -1.53125q-0.53125 -0.921875 -0.484375 -3.109375q0.046875 -2.734375 0.25 -3.875q0.21875 -1.171875 -0.875 -1.40625q-0.5625 -0.125 -0.828125 0.09375q-2.390625 -0.75 -4.578125 1.046875q-1.890625 1.546875 -1.875 4.40625q0.03125 4.375 4.125 4.375zm1.046875 -1.84375q-0.6875 0.265625 -1.484375 0.203125q-1.875 -0.125 -1.90625 -2.90625q0.078125 -2.140625 1.703125 -3.3125q0.40625 -0.3125 1.078125 -0.46875q0.96875 -0.234375 1.84375 0.3125q-0.421875 1.484375 -0.09375 5.390625q-0.8125 0.671875 -1.140625 0.78125zm6.187378 -8.640625q-0.84375 0 -0.859375 0.84375l-0.203125 8.53125q-0.03125 0.96875 0.78125 0.984375q0.953125 0.015625 0.984375 -0.96875l0.15625 -5.984375q0.859375 -0.84375 1.890625 -1.046875q1.046875 -0.203125 1.875 0.34375q1.046875 0.71875 1.453125 -0.453125q0.234375 -0.734375 -1.140625 -1.421875q-0.78125 -0.390625 -2.0 -0.375q-0.984375 0.015625 -2.015625 0.78125q0 -0.171875 0 -0.328125q0 -0.90625 -0.921875 -0.90625zm11.16687 -4.703125q-0.828125 0 -0.84375 0.859375l-0.09375 4.296875q-1.0625 0.015625 -2.109375 0.015625q-0.859375 0 -0.859375 0.921875q0 0.890625 0.78125 0.890625q1.0625 0 2.140625 0l-0.171875 7.09375q-0.015625 0.96875 0.8125 0.984375q0.984375 0.015625 0.984375 -0.96875l0.15625 -7.109375q0.984375 0 1.953125 0q1.0625 0 1.0625 -0.9375q0 -0.90625 -1.125 -0.90625l-1.84375 0.015625q0.0625 -1.921875 0.078125 -4.25q0 -0.90625 -0.921875 -0.90625zm7.0875244 5.140625q-0.921875 -0.03125 -0.953125 1.1875l-0.15625 7.640625q-0.015625 1.15625 0.953125 1.15625q0.859375 0 0.875 -1.234375l0.125 -7.578125q0.015625 -1.15625 -0.84375 -1.171875zm0.0625 -4.140625q-0.3125 0 -0.5625 0.171875q-0.234375 0.15625 -0.390625 0.421875q-0.15625 0.25 -0.15625 0.546875q0 0.3125 0.15625 0.578125q0.15625 0.25 0.40625 0.390625q0.234375 0.15625 0.515625 0.15625q0.03125 0 0.0625 0q0.28125 0.015625 0.5 -0.109375q0.21875 -0.09375 0.40625 -0.328125q0.203125 -0.265625 0.234375 -0.59375q0 -0.046875 0 -0.09375q0 -0.28125 -0.140625 -0.53125q-0.140625 -0.296875 -0.421875 -0.453125q-0.265625 -0.15625 -0.578125 -0.15625q-0.015625 0 -0.03125 0zm6.869446 -1.0q-0.828125 0 -0.84375 0.859375l-0.09375 4.296875q-1.0625 0.015625 -2.109375 0.015625q-0.859375 0 -0.859375 0.921875q0 0.890625 0.78125 0.890625q1.0625 0 2.140625 0l-0.171875 7.09375q-0.015625 0.96875 0.8125 0.984375q0.984375 0.015625 0.984375 -0.96875l0.15625 -7.109375q0.984375 0 1.953125 0q1.0625 0 1.0625 -0.9375q0 -0.90625 -1.125 -0.90625l-1.84375 0.015625q0.0625 -1.921875 0.078125 -4.25q0 -0.90625 -0.921875 -0.90625zm7.0875854 5.140625q-0.921875 -0.03125 -0.953125 1.1875l-0.15625 7.640625q-0.015625 1.15625 0.953125 1.15625q0.859375 0 0.875 -1.234375l0.125 -7.578125q0.015625 -1.15625 -0.84375 -1.171875zm0.0625 -4.140625q-0.3125 0 -0.5625 0.171875q-0.234375 0.15625 -0.390625 0.421875q-0.15625 0.25 -0.15625 0.546875q0 0.3125 0.15625 0.578125q0.15625 0.25 0.40625 0.390625q0.234375 0.15625 0.515625 0.15625q0.03125 0 0.0625 0q0.28125 0.015625 0.5 -0.109375q0.21875 -0.09375 0.40625 -0.328125q0.203125 -0.265625 0.234375 -0.59375q0 -0.046875 0 -0.09375q0 -0.28125 -0.140625 -0.53125q-0.140625 -0.296875 -0.421875 -0.453125q-0.265625 -0.15625 -0.578125 -0.15625q-0.015625 0 -0.03125 0zm7.619446 5.96875q1.921875 -0.03125 1.90625 3.21875q-0.015625 1.703125 -0.734375 2.484375q-0.671875 0.71875 -1.671875 0.71875q-0.875 0 -1.546875 -0.71875q-0.65625 -0.71875 -0.65625 -2.140625q0 -1.484375 0.90625 -2.734375q0.59375 -0.796875 1.796875 -0.828125zm-0.078125 -1.859375q-1.984375 -0.015625 -3.1875 1.578125q-1.21875 1.59375 -1.21875 3.671875q0 2.203125 1.015625 3.40625q1.125 1.34375 2.75 1.359375q2.25 0.015625 3.34375 -1.375q0.96875 -1.171875 0.984375 -3.390625q0 -5.21875 -3.6875 -5.25zm6.935913 -0.40625q-0.84375 0 -0.859375 0.84375l-0.203125 8.484375q-0.03125 0.96875 0.78125 0.984375q0.984375 0.015625 1.0 -0.96875l0.15625 -5.515625q1.4375 -1.453125 2.703125 -1.359375q1.515625 0.109375 1.453125 2.625l-0.109375 4.3125q-0.03125 1.109375 0.953125 1.015625q0.859375 -0.078125 0.875 -1.171875l0.078125 -4.5625q0.0625 -4.140625 -3.375 -4.140625q-1.546875 0 -2.546875 0.890625q0.015625 -0.265625 0.015625 -0.53125q0.03125 -0.90625 -0.921875 -0.90625z" fill-rule="nonzero"/><path fill="#3c78d8" d="m565.3414 191.30673q-0.84375 0.015625 -0.859375 0.796875l-0.296875 12.46875q-0.03125 0.921875 0.78125 0.9375q0.984375 0 1.015625 -0.9375l0.109375 -5.234375l7.875 0q-0.0625 2.609375 -0.125 5.234375q-0.015625 0.921875 0.8125 0.9375q0.984375 0.015625 0.984375 -0.921875l0.28125 -12.421875q0.015625 -0.859375 -0.921875 -0.859375q-0.828125 0.03125 -0.84375 0.8125l-0.140625 5.3125l-7.875 0l0.125 -5.28125q0.015625 -0.84375 -0.921875 -0.84375zm14.501099 4.25q-0.921875 -0.03125 -0.953125 1.1875l-0.15625 7.640625q-0.015625 1.15625 0.953125 1.15625q0.859375 0 0.875 -1.234375l0.125 -7.578125q0.015625 -1.15625 -0.84375 -1.171875zm0.0625 -4.140625q-0.3125 0 -0.5625 0.171875q-0.234375 0.15625 -0.390625 0.421875q-0.15625 0.25 -0.15625 0.546875q0 0.3125 0.15625 0.578125q0.15625 0.25 0.40625 0.390625q0.234375 0.15625 0.515625 0.15625q0.03125 0 0.0625 0q0.28125 0.015625 0.5 -0.109375q0.21875 -0.09375 0.40625 -0.328125q0.203125 -0.265625 0.234375 -0.59375q0 -0.046875 0 -0.09375q0 -0.28125 -0.140625 -0.53125q-0.140625 -0.296875 -0.421875 -0.453125q-0.265625 -0.15625 -0.578125 -0.15625q-0.015625 0 -0.03125 0zm5.963257 12.359375q-0.84375 -0.046875 -1.640625 -0.59375q-0.65625 -0.453125 -1.171875 -0.109375q-0.421875 0.265625 -0.390625 0.875q0.046875 0.546875 0.6875 0.90625q0.703125 0.40625 1.203125 0.546875q0.796875 0.21875 2.078125 0.21875q1.5 -0.015625 2.421875 -0.625q1.125 -0.75 1.265625 -1.921875q0.140625 -1.15625 -0.78125 -2.265625q-0.390625 -0.46875 -1.390625 -0.9375q-0.734375 -0.34375 -1.609375 -0.4375q-1.09375 -0.125 -1.265625 -0.609375q-0.171875 -0.5625 0.265625 -1.078125q0.53125 -0.625 1.625 -0.6875q1.03125 -0.03125 1.5625 0.484375q1.0625 1.015625 1.578125 0.59375q0.421875 -0.34375 0.34375 -0.890625q-0.140625 -0.828125 -1.4375 -1.46875q-1.0 -0.484375 -2.328125 -0.375q-1.1875 0.109375 -2.09375 0.765625q-0.765625 0.546875 -1.15625 1.59375q-0.359375 0.953125 -0.140625 1.859375q0.28125 1.171875 2.15625 1.4375q1.796875 0.25 2.3125 0.796875q0.765625 0.828125 0.390625 1.390625q-0.453125 0.671875 -2.484375 0.53125zm9.988403 -13.359375q-0.828125 0 -0.84375 0.859375l-0.09375 4.296875q-1.0625 0.015625 -2.109375 0.015625q-0.859375 0 -0.859375 0.921875q0 0.890625 0.78125 0.890625q1.0625 0 2.140625 0l-0.171875 7.09375q-0.015625 0.96875 0.8125 0.984375q0.984375 0.015625 0.984375 -0.96875l0.15625 -7.109375q0.984375 0 1.953125 0q1.0625 0 1.0625 -0.9375q0 -0.90625 -1.125 -0.90625l-1.84375 0.015625q0.0625 -1.921875 0.078125 -4.25q0 -0.90625 -0.921875 -0.90625zm9.540649 6.96875q1.921875 -0.03125 1.90625 3.21875q-0.015625 1.703125 -0.734375 2.484375q-0.671875 0.71875 -1.671875 0.71875q-0.875 0 -1.546875 -0.71875q-0.65625 -0.71875 -0.65625 -2.140625q0 -1.484375 0.90625 -2.734375q0.59375 -0.796875 1.796875 -0.828125zm-0.078125 -1.859375q-1.984375 -0.015625 -3.1875 1.578125q-1.21875 1.59375 -1.21875 3.671875q0 2.203125 1.015625 3.40625q1.125 1.34375 2.75 1.359375q2.25 0.015625 3.34375 -1.375q0.96875 -1.171875 0.984375 -3.390625q0 -5.21875 -3.6875 -5.25zm6.935913 -0.40625q-0.84375 0 -0.859375 0.84375l-0.203125 8.53125q-0.03125 0.96875 0.78125 0.984375q0.953125 0.015625 0.984375 -0.96875l0.15625 -5.984375q0.859375 -0.84375 1.890625 -1.046875q1.046875 -0.203125 1.875 0.34375q1.046875 0.71875 1.453125 -0.453125q0.234375 -0.734375 -1.140625 -1.421875q-0.78125 -0.390625 -2.0 -0.375q-0.984375 0.015625 -2.015625 0.78125q0 -0.171875 0 -0.328125q0 -0.90625 -0.921875 -0.90625zm9.463745 0.4375q-0.921875 -0.03125 -0.953125 1.1875l-0.15625 7.640625q-0.015625 1.15625 0.953125 1.15625q0.859375 0 0.875 -1.234375l0.125 -7.578125q0.015625 -1.15625 -0.84375 -1.171875zm0.0625 -4.140625q-0.3125 0 -0.5625 0.171875q-0.234375 0.15625 -0.390625 0.421875q-0.15625 0.25 -0.15625 0.546875q0 0.3125 0.15625 0.578125q0.15625 0.25 0.40625 0.390625q0.234375 0.15625 0.515625 0.15625q0.03125 0 0.0625 0q0.28125 0.015625 0.5 -0.109375q0.21875 -0.09375 0.40625 -0.328125q0.203125 -0.265625 0.234375 -0.59375q0 -0.046875 0 -0.09375q0 -0.28125 -0.140625 -0.53125q-0.140625 -0.296875 -0.421875 -0.453125q-0.265625 -0.15625 -0.578125 -0.15625q-0.015625 0 -0.03125 0zm4.744507 9.734375l6.125 -0.890625q0.96875 -0.140625 1.0 -1.25q0.046875 -1.40625 -1.0625 -2.5q-1.1875 -1.15625 -3.296875 -1.03125q-2.015625 0.125 -3.296875 1.953125q-1.015625 1.46875 -1.015625 3.34375q0 2.28125 1.625 3.609375q1.296875 1.078125 3.03125 1.09375q2.375 0.015625 3.828125 -1.28125q0.828125 -0.734375 0.40625 -1.578125q-0.1875 -0.359375 -0.625 -0.265625q-0.390625 0.078125 -1.0 0.75q-0.640625 0.71875 -2.5 0.734375q-1.265625 0.015625 -2.296875 -0.890625q-0.875 -0.78125 -0.921875 -1.796875zm0.203125 -1.515625q0.25 -0.890625 0.65625 -1.390625q0.90625 -1.125 2.171875 -1.125q0.890625 -0.015625 1.703125 0.5q0.6875 0.453125 0.828125 1.234375l-5.359375 0.78125zm11.23645 4.140625q-0.84375 -0.046875 -1.640625 -0.59375q-0.65625 -0.453125 -1.171875 -0.109375q-0.421875 0.265625 -0.390625 0.875q0.046875 0.546875 0.6875 0.90625q0.703125 0.40625 1.203125 0.546875q0.796875 0.21875 2.078125 0.21875q1.5 -0.015625 2.421875 -0.625q1.125 -0.75 1.265625 -1.921875q0.140625 -1.15625 -0.78125 -2.265625q-0.390625 -0.46875 -1.390625 -0.9375q-0.734375 -0.34375 -1.609375 -0.4375q-1.09375 -0.125 -1.265625 -0.609375q-0.171875 -0.5625 0.265625 -1.078125q0.53125 -0.625 1.625 -0.6875q1.03125 -0.03125 1.5625 0.484375q1.0625 1.015625 1.578125 0.59375q0.421875 -0.34375 0.34375 -0.890625q-0.140625 -0.828125 -1.4375 -1.46875q-1.0 -0.484375 -2.328125 -0.375q-1.1875 0.109375 -2.09375 0.765625q-0.765625 0.546875 -1.15625 1.59375q-0.359375 0.953125 -0.140625 1.859375q0.28125 1.171875 2.15625 1.4375q1.796875 0.25 2.3125 0.796875q0.765625 0.828125 0.390625 1.390625q-0.453125 0.671875 -2.484375 0.53125z" fill-rule="nonzero"/><path fill="#000000" fill-opacity="0.0" d="m505.65192 111.181145c15.230103 2.0344162 48.878723 34.63183 38.00879 24.460762" fill-rule="evenodd"/><path stroke="#000000" stroke-width="3.0" stroke-linejoin="round" stroke-linecap="butt" d="m505.65192 111.181145c7.6150513 1.0172043 19.834717 9.675163 28.79187 16.807434c0.27990723 0.2228775 0.5566406 0.44428253 0.82995605 0.6639023l0.49517822 0.39968872" fill-rule="evenodd"/><path fill="#000000" stroke="#000000" stroke-width="3.0" stroke-linecap="butt" d="m535.769 129.05217l-4.752075 0.42726135l9.277405 3.351471l-4.9526367 -8.530762z" fill-rule="evenodd"/><path fill="#000000" fill-opacity="0.0" d="m505.89337 242.51564c14.775269 -3.539734 32.80243 -11.6492 37.602173 -26.586517" fill-rule="evenodd"/><path stroke="#000000" stroke-width="3.0" stroke-linejoin="round" stroke-linecap="butt" d="m505.89337 242.51564c7.3876343 -1.769867 15.588257 -4.6821594 22.541931 -9.019165c3.4768066 -2.1684875 6.6419067 -4.693161 9.237793 -7.6092987c0.16223145 -0.18226624 0.32226562 -0.36605835 0.47998047 -0.55137634c0.07885742 -0.092666626 0.15716553 -0.18569946 0.23486328 -0.2791443l0.114990234 -0.13986206" fill-rule="evenodd"/><path fill="#000000" stroke="#000000" stroke-width="3.0" stroke-linecap="butt" d="m538.503 224.91678l1.3109131 4.58757l1.5519409 -9.741348l-7.4504395 6.464737z" fill-rule="evenodd"/><path fill="#000000" fill-opacity="0.0" d="m507.95013 77.31759l76.91339 0l0 38.771652l-76.91339 0z" fill-rule="evenodd"/><path fill="#000000" d="m523.34076 94.52134q-0.171875 -1.015625 -0.796875 -1.015625q-0.53125 0 -0.859375 1.015625l-1.734375 5.421875l-0.921875 -5.421875q-0.1875 -1.125 -0.875 -1.015625q-0.71875 0.109375 -0.53125 1.09375l1.234375 6.515625q0.1875 0.953125 0.984375 0.953125q0.65625 0 0.984375 -0.953125l1.515625 -4.296875l0.828125 4.296875q0.171875 0.953125 0.984375 0.953125q0.65625 0 0.984375 -0.953125l2.25 -6.515625q0.34375 -0.96875 -0.46875 -1.09375q-0.578125 -0.078125 -0.9375 1.015625l-1.734375 5.421875l-0.90625 -5.421875zm6.5078125 -1.390625q-0.71875 0 -0.734375 0.71875l-0.171875 7.3125q-0.03125 0.84375 0.671875 0.859375q0.828125 0.015625 0.84375 -0.84375l0.140625 -5.125q0.734375 -0.734375 1.609375 -0.90625q0.90625 -0.171875 1.609375 0.296875q0.90625 0.609375 1.25 -0.390625q0.203125 -0.625 -0.984375 -1.21875q-0.671875 -0.34375 -1.703125 -0.328125q-0.859375 0.015625 -1.734375 0.6875q0 -0.15625 0 -0.296875q0 -0.765625 -0.796875 -0.765625zm8.125 0.359375q-0.796875 -0.015625 -0.8125 1.03125l-0.140625 6.546875q-0.015625 1.0 0.8125 1.0q0.734375 0 0.75 -1.0625l0.109375 -6.5q0.015625 -1.0 -0.71875 -1.015625zm0.046875 -3.546875q-0.265625 0 -0.484375 0.140625q-0.203125 0.140625 -0.328125 0.359375q-0.125 0.21875 -0.125 0.46875q0 0.28125 0.125 0.5q0.140625 0.21875 0.34375 0.34375q0.203125 0.125 0.453125 0.140625q0.015625 0 0.046875 0q0.234375 0 0.4375 -0.09375q0.1875 -0.09375 0.34375 -0.296875q0.171875 -0.21875 0.1875 -0.515625q0 -0.03125 0 -0.078125q0 -0.234375 -0.109375 -0.453125q-0.125 -0.25 -0.359375 -0.390625q-0.234375 -0.125 -0.5 -0.125q-0.015625 0 -0.03125 0zm5.890625 -0.84375q-0.703125 0 -0.71875 0.71875l-0.078125 3.703125q-0.90625 0 -1.8125 0q-0.734375 0 -0.734375 0.796875q0 0.765625 0.671875 0.765625q0.90625 0 1.828125 0l-0.140625 6.078125q-0.015625 0.84375 0.6875 0.859375q0.84375 0.015625 0.859375 -0.84375l0.125 -6.09375q0.84375 0 1.671875 0q0.921875 0 0.921875 -0.796875q0 -0.796875 -0.96875 -0.78125l-1.578125 0q0.046875 -1.640625 0.0625 -3.640625q0 -0.765625 -0.796875 -0.765625zm5.7265625 9.1875l5.25 -0.75q0.828125 -0.125 0.859375 -1.078125q0.046875 -1.203125 -0.921875 -2.140625q-1.015625 -1.0 -2.8125 -0.890625q-1.734375 0.109375 -2.828125 1.6875q-0.875 1.25 -0.875 2.859375q0 1.953125 1.390625 3.09375q1.109375 0.9375 2.609375 0.953125q2.03125 0.015625 3.28125 -1.109375q0.703125 -0.625 0.34375 -1.359375q-0.15625 -0.3125 -0.53125 -0.234375q-0.34375 0.078125 -0.859375 0.65625q-0.546875 0.609375 -2.140625 0.625q-1.09375 0.015625 -1.96875 -0.765625q-0.765625 -0.65625 -0.796875 -1.546875zm0.171875 -1.28125q0.21875 -0.78125 0.5625 -1.203125q0.78125 -0.96875 1.859375 -0.96875q0.765625 0 1.453125 0.4375q0.59375 0.375 0.71875 1.0625l-4.59375 0.671875zm9.625 3.546875q-0.71875 -0.046875 -1.40625 -0.515625q-0.5625 -0.390625 -1.0 -0.09375q-0.359375 0.234375 -0.328125 0.75q0.03125 0.46875 0.578125 0.78125q0.609375 0.359375 1.03125 0.46875q0.6875 0.203125 1.78125 0.1875q1.296875 0 2.078125 -0.53125q0.96875 -0.65625 1.09375 -1.65625q0.125 -0.984375 -0.671875 -1.9375q-0.328125 -0.40625 -1.1875 -0.8125q-0.640625 -0.296875 -1.375 -0.375q-0.953125 -0.09375 -1.09375 -0.515625q-0.15625 -0.484375 0.234375 -0.9375q0.453125 -0.53125 1.390625 -0.578125q0.890625 -0.03125 1.34375 0.40625q0.90625 0.875 1.34375 0.515625q0.359375 -0.296875 0.296875 -0.765625q-0.109375 -0.703125 -1.234375 -1.25q-0.859375 -0.421875 -2.0 -0.328125q-1.015625 0.09375 -1.78125 0.65625q-0.65625 0.46875 -1.0 1.375q-0.3125 0.8125 -0.125 1.59375q0.25 1.0 1.84375 1.234375q1.546875 0.203125 1.984375 0.671875q0.65625 0.703125 0.34375 1.203125q-0.390625 0.5625 -2.140625 0.453125z" fill-rule="nonzero"/></g></svg>