<svg version="1.1" viewBox="0.0 0.0 733.6404199475065 404.40682414698165" fill="none" stroke="none" stroke-linecap="square" stroke-miterlimit="10" xmlns:xlink="http://www.w3.org/1999/xlink" xmlns="http://www.w3.org/2000/svg"><clipPath id="p.0"><path d="m0 0l733.64044 0l0 404.40683l-733.64044 0l0 -404.40683z" clip-rule="nonzero"/></clipPath><g clip-path="url(#p.0)"><path fill="#ffffff" d="m0 0l733.64044 0l0 404.40683l-733.64044 0z" fill-rule="evenodd"/><path fill="#000000" fill-opacity="0.0" d="m366.91602 84.049866l0 0c0 -39.407906 31.946411 -71.354324 71.35434 -71.354324l0 0c18.924316 0 37.073578 7.517667 50.45511 20.8992c13.381531 13.381531 20.8992 31.530788 20.8992 50.455128l0 0c0 39.407913 -31.946411 71.35434 -71.35431 71.35434l0 0c-39.40793 0 -71.35434 -31.946426 -71.35434 -71.35434z" fill-rule="evenodd"/><path stroke="#000000" stroke-width="3.0" stroke-linejoin="round" stroke-linecap="butt" d="m366.91602 84.049866l0 0c0 -39.407906 31.946411 -71.354324 71.35434 -71.354324l0 0c18.924316 0 37.073578 7.517667 50.45511 20.8992c13.381531 13.381531 20.8992 31.530788 20.8992 50.455128l0 0c0 39.407913 -31.946411 71.35434 -71.35431 71.35434l0 0c-39.40793 0 -71.35434 -31.946426 -71.35434 -71.35434z" fill-rule="evenodd"/><path fill="#000000" d="m406.87555 55.360493q-1.234375 0 -1.234375 0.859375q0 1.03125 1.15625 1.03125l2.15625 0l-0.265625 10.218746l-1.9375 0q-1.234375 -0.015625 -1.234375 0.859375q0 1.015625 1.15625 1.015625l6.65625 0q1.203125 0 1.171875 -0.890625q-0.015625 -0.984375 -1.109375 -0.984375l-2.921875 0l0.265625 -10.218746l2.71875 0q1.203125 0 1.1875 -0.90625q-0.03125 -0.984375 -1.125 -0.984375l-6.640625 0zm12.7091675 -1.0625q-0.828125 0 -0.84375 0.859375l-0.09375 4.296875q-1.0625 0.015625 -2.109375 0.015625q-0.859375 0 -0.859375 0.921875q0 0.890625 0.78125 0.890625q1.0625 0 2.140625 0l-0.171875 7.093746q-0.015625 0.96875 0.8125 0.984375q0.984375 0.015625 0.984375 -0.96875l0.15625 -7.109371q0.984375 0 1.953125 0q1.0625 0 1.0625 -0.9375q0 -0.90625 -1.125 -0.90625l-1.84375 0.015625q0.0625 -1.921875 0.078125 -4.25q0 -0.90625 -0.921875 -0.90625zm6.6656494 10.734371l6.125 -0.890625q0.96875 -0.140625 1.0 -1.2499962q0.046875 -1.40625 -1.0625 -2.5q-1.1875 -1.15625 -3.296875 -1.03125q-2.015625 0.125 -3.296875 1.953125q-1.015625 1.46875 -1.015625 3.3437462q0 2.28125 1.625 3.609375q1.296875 1.078125 3.03125 1.09375q2.375 0.015625 3.828125 -1.28125q0.828125 -0.734375 0.40625 -1.578125q-0.1875 -0.359375 -0.625 -0.265625q-0.390625 0.078125 -1.0 0.75q-0.640625 0.71875 -2.5 0.734375q-1.265625 0.015625 -2.296875 -0.890625q-0.875 -0.78125 -0.921875 -1.796875zm0.203125 -1.5156212q0.25 -0.890625 0.65625 -1.390625q0.90625 -1.125 2.171875 -1.125q0.890625 -0.015625 1.703125 0.5q0.6875 0.453125 0.828125 1.234375l-5.359375 0.78125zm9.939606 -4.515625q-0.84375 0 -0.859375 0.84375l-0.203125 8.531246q-0.03125 0.96875 0.78125 0.984375q0.953125 0.015625 0.984375 -0.96875l0.15625 -5.984371q0.859375 -0.84375 1.890625 -1.046875q1.046875 -0.203125 1.875 0.34375q1.046875 0.71875 1.453125 -0.453125q0.234375 -0.734375 -1.140625 -1.421875q-0.78125 -0.390625 -2.0 -0.375q-0.984375 0.015625 -2.015625 0.78125q0 -0.171875 0 -0.328125q0 -0.90625 -0.921875 -0.90625zm11.276245 10.484371q0.84375 -0.015625 2.734375 -0.96875q0.171875 1.203125 1.3125 0.96875q1.0 -0.203125 0.21875 -1.53125q-0.53125 -0.921875 -0.484375 -3.109375q0.046875 -2.7343712 0.25 -3.8749962q0.21875 -1.171875 -0.875 -1.40625q-0.5625 -0.125 -0.828125 0.09375q-2.390625 -0.75 -4.578125 1.046875q-1.890625 1.546875 -1.875 4.406246q0.03125 4.375 4.125 4.375zm1.046875 -1.84375q-0.6875 0.265625 -1.484375 0.203125q-1.875 -0.125 -1.90625 -2.90625q0.078125 -2.1406212 1.703125 -3.3124962q0.40625 -0.3125 1.078125 -0.46875q0.96875 -0.234375 1.84375 0.3125q-0.421875 1.484375 -0.09375 5.390621q-0.8125 0.671875 -1.140625 0.78125zm8.390503 -13.343746q-0.828125 0 -0.84375 0.859375l-0.09375 4.296875q-1.0625 0.015625 -2.109375 0.015625q-0.859375 0 -0.859375 0.921875q0 0.890625 0.78125 0.890625q1.0625 0 2.140625 0l-0.171875 7.093746q-0.015625 0.96875 0.8125 0.984375q0.984375 0.015625 0.984375 -0.96875l0.15625 -7.109371q0.984375 0 1.953125 0q1.0625 0 1.0625 -0.9375q0 -0.90625 -1.125 -0.90625l-1.84375 0.015625q0.0625 -1.921875 0.078125 -4.25q0 -0.90625 -0.921875 -0.90625zm6.66568 10.734371l6.125 -0.890625q0.96875 -0.140625 1.0 -1.2499962q0.046875 -1.40625 -1.0625 -2.5q-1.1875 -1.15625 -3.296875 -1.03125q-2.015625 0.125 -3.296875 1.953125q-1.015625 1.46875 -1.015625 3.3437462q0 2.28125 1.625 3.609375q1.296875 1.078125 3.03125 1.09375q2.375 0.015625 3.828125 -1.28125q0.828125 -0.734375 0.40625 -1.578125q-0.1875 -0.359375 -0.625 -0.265625q-0.390625 0.078125 -1.0 0.75q-0.640625 0.71875 -2.5 0.734375q-1.265625 0.015625 -2.296875 -0.890625q-0.875 -0.78125 -0.921875 -1.796875zm0.203125 -1.5156212q0.25 -0.890625 0.65625 -1.390625q0.90625 -1.125 2.171875 -1.125q0.890625 -0.015625 1.703125 0.5q0.6875 0.453125 0.828125 1.234375l-5.359375 0.78125z" fill-rule="nonzero"/><path fill="#000000" d="m402.36768 77.14174q-0.828125 0 -0.84375 0.796875l-0.3125 12.484375q-0.015625 0.921875 0.796875 0.953125q0.984375 0.015625 1.0 -0.9375l0.109375 -4.875q0.234375 0.03125 0.5 0.015625q3.828125 -0.21875 4.8125 -1.421875q1.65625 -2.09375 0.765625 -4.40625q-0.890625 -2.296875 -4.078125 -2.609375q-0.953125 -0.09375 -2.375 0.03125q-0.171875 -0.03125 -0.375 -0.03125zm0.90625 1.828125q0.734375 -0.078125 1.265625 -0.09375q2.0625 -0.015625 2.8125 1.375q0.609375 1.1875 -0.171875 2.546875q-0.796875 1.390625 -4.015625 1.046875l0.109375 -4.875zm11.382599 12.515625q0.84375 -0.015625 2.734375 -0.96875q0.171875 1.203125 1.3125 0.96875q1.0 -0.203125 0.21875 -1.53125q-0.53125 -0.921875 -0.484375 -3.109375q0.046875 -2.734375 0.25 -3.875q0.21875 -1.171875 -0.875 -1.40625q-0.5625 -0.125 -0.828125 0.09375q-2.390625 -0.75 -4.578125 1.046875q-1.890625 1.546875 -1.875 4.40625q0.03125 4.375 4.125 4.375zm1.046875 -1.84375q-0.6875 0.265625 -1.484375 0.203125q-1.875 -0.125 -1.90625 -2.90625q0.078125 -2.140625 1.703125 -3.3125q0.40625 -0.3125 1.078125 -0.46875q0.96875 -0.234375 1.84375 0.3125q-0.421875 1.484375 -0.09375 5.390625q-0.8125 0.671875 -1.140625 0.78125zm6.187378 -8.640625q-0.84375 0 -0.859375 0.84375l-0.203125 8.53125q-0.03125 0.96875 0.78125 0.984375q0.953125 0.015625 0.984375 -0.96875l0.15625 -5.984375q0.859375 -0.84375 1.890625 -1.046875q1.046875 -0.203125 1.875 0.34375q1.046875 0.71875 1.453125 -0.453125q0.234375 -0.734375 -1.140625 -1.421875q-0.78125 -0.390625 -2.0 -0.375q-0.984375 0.015625 -2.015625 0.78125q0 -0.171875 0 -0.328125q0 -0.90625 -0.921875 -0.90625zm11.16687 -4.703125q-0.828125 0 -0.84375 0.859375l-0.09375 4.296875q-1.0625 0.015625 -2.109375 0.015625q-0.859375 0 -0.859375 0.921875q0 0.890625 0.78125 0.890625q1.0625 0 2.140625 0l-0.171875 7.09375q-0.015625 0.96875 0.8125 0.984375q0.984375 0.015625 0.984375 -0.96875l0.15625 -7.109375q0.984375 0 1.953125 0q1.0625 0 1.0625 -0.9375q0 -0.90625 -1.125 -0.90625l-1.84375 0.015625q0.0625 -1.921875 0.078125 -4.25q0 -0.90625 -0.921875 -0.90625zm7.087555 5.140625q-0.921875 -0.03125 -0.953125 1.1875l-0.15625 7.640625q-0.015625 1.15625 0.953125 1.15625q0.859375 0 0.875 -1.234375l0.125 -7.578125q0.015625 -1.15625 -0.84375 -1.171875zm0.0625 -4.140625q-0.3125 0 -0.5625 0.171875q-0.234375 0.15625 -0.390625 0.421875q-0.15625 0.25 -0.15625 0.546875q0 0.3125 0.15625 0.578125q0.15625 0.25 0.40625 0.390625q0.234375 0.15625 0.515625 0.15625q0.03125 0 0.0625 0q0.28125 0.015625 0.5 -0.109375q0.21875 -0.09375 0.40625 -0.328125q0.203125 -0.265625 0.234375 -0.59375q0 -0.046875 0 -0.09375q0 -0.28125 -0.140625 -0.53125q-0.140625 -0.296875 -0.421875 -0.453125q-0.265625 -0.15625 -0.578125 -0.15625q-0.015625 0 -0.03125 0zm6.8694763 -1.0q-0.828125 0 -0.84375 0.859375l-0.09375 4.296875q-1.0625 0.015625 -2.109375 0.015625q-0.859375 0 -0.859375 0.921875q0 0.890625 0.78125 0.890625q1.0625 0 2.140625 0l-0.171875 7.09375q-0.015625 0.96875 0.8125 0.984375q0.984375 0.015625 0.984375 -0.96875l0.15625 -7.109375q0.984375 0 1.953125 0q1.0625 0 1.0625 -0.9375q0 -0.90625 -1.125 -0.90625l-1.84375 0.015625q0.0625 -1.921875 0.078125 -4.25q0 -0.90625 -0.921875 -0.90625zm7.0875244 5.140625q-0.921875 -0.03125 -0.953125 1.1875l-0.15625 7.640625q-0.015625 1.15625 0.953125 1.15625q0.859375 0 0.875 -1.234375l0.125 -7.578125q0.015625 -1.15625 -0.84375 -1.171875zm0.0625 -4.140625q-0.3125 0 -0.5625 0.171875q-0.234375 0.15625 -0.390625 0.421875q-0.15625 0.25 -0.15625 0.546875q0 0.3125 0.15625 0.578125q0.15625 0.25 0.40625 0.390625q0.234375 0.15625 0.515625 0.15625q0.03125 0 0.0625 0q0.28125 0.015625 0.5 -0.109375q0.21875 -0.09375 0.40625 -0.328125q0.203125 -0.265625 0.234375 -0.59375q0 -0.046875 0 -0.09375q0 -0.28125 -0.140625 -0.53125q-0.140625 -0.296875 -0.421875 -0.453125q-0.265625 -0.15625 -0.578125 -0.15625q-0.015625 0 -0.03125 0zm7.6194763 5.96875q1.921875 -0.03125 1.90625 3.21875q-0.015625 1.703125 -0.734375 2.484375q-0.671875 0.71875 -1.671875 0.71875q-0.875 0 -1.546875 -0.71875q-0.65625 -0.71875 -0.65625 -2.140625q0 -1.484375 0.90625 -2.734375q0.59375 -0.796875 1.796875 -0.828125zm-0.078125 -1.859375q-1.984375 -0.015625 -3.1875 1.578125q-1.21875 1.59375 -1.21875 3.671875q0 2.203125 1.015625 3.40625q1.125 1.34375 2.75 1.359375q2.25 0.015625 3.34375 -1.375q0.96875 -1.171875 0.984375 -3.390625q0 -5.21875 -3.6875 -5.25zm6.9359436 -0.40625q-0.84375 0 -0.859375 0.84375l-0.203125 8.484375q-0.03125 0.96875 0.78125 0.984375q0.984375 0.015625 1.0 -0.96875l0.15625 -5.515625q1.4375 -1.453125 2.703125 -1.359375q1.515625 0.109375 1.453125 2.625l-0.109375 4.3125q-0.03125 1.109375 0.953125 1.015625q0.859375 -0.078125 0.875 -1.171875l0.078125 -4.5625q0.0625 -4.140625 -3.375 -4.140625q-1.546875 0 -2.546875 0.890625q0.015625 -0.265625 0.015625 -0.53125q0.03125 -0.90625 -0.921875 -0.90625z" fill-rule="nonzero"/><path fill="#000000" d="m427.35 103.01674q-0.03125 0.90625 0.828125 0.90625l2.484375 0.015625l-1.125 3.8125l-1.828125 0q-1.234375 0 -1.25 0.6875q-0.015625 0.890625 0.828125 0.890625l1.796875 0l-0.5625 1.90625q-0.328125 1.171875 0.3125 1.375q0.859375 0.28125 1.09375 -0.53125l0.8125 -2.734375l4.5625 0.015625l-0.5625 1.875q-0.328125 1.171875 0.3125 1.375q0.859375 0.28125 1.109375 -0.53125l0.796875 -2.71875q1.328125 0 2.65625 0q1.21875 0 1.265625 -0.859375q0.015625 -0.765625 -1.046875 -0.765625l-2.390625 0l1.125 -3.78125q0.953125 0 1.921875 0q1.234375 0 1.265625 -0.875q0.03125 -0.765625 -1.046875 -0.765625l-1.671875 0l0.625 -2.046875q0.34375 -1.1875 -0.484375 -1.453125q-0.71875 -0.25 -1.03125 0.78125l-0.796875 2.734375q-2.265625 0 -4.53125 0l0.609375 -2.0625q0.34375 -1.1875 -0.46875 -1.453125q-0.734375 -0.25 -1.03125 0.78125l-0.796875 2.75q-1.265625 0 -2.546875 0q-1.21875 0 -1.234375 0.671875zm3.875 4.71875l1.125 -3.796875l4.53125 0l-1.109375 3.796875l-4.546875 0zm16.191742 -7.578125q0.015625 -0.8125 -0.5 -0.921875q-0.609375 -0.15625 -1.34375 0.546875l-1.8125 1.703125q-0.65625 0.609375 -0.171875 1.25q0.578125 0.796875 1.453125 -0.03125l0.671875 -0.640625l-0.015625 9.671875q-0.6875 0 -1.359375 0q-0.90625 0 -0.90625 0.90625q0 0.765625 0.8125 0.765625l4.140625 0q0.90625 0 0.90625 -0.8125q0 -0.859375 -0.9375 -0.859375q-0.484375 0 -1.0 0q0.0625 -11.578125 0.0625 -11.578125z" fill-rule="nonzero"/><path fill="#000000" fill-opacity="0.0" d="m32.58005 81.45407l0 0c0 -39.407913 31.946423 -71.35433 71.354324 -71.35433l0 0c18.924347 0 37.0736 7.517668 50.45513 20.8992c13.381531 13.381533 20.8992 31.530787 20.8992 50.45513l0 0c0 39.407906 -31.946426 71.354324 -71.35433 71.354324l0 0c-39.407906 0 -71.354324 -31.946419 -71.354324 -71.354324z" fill-rule="evenodd"/><path stroke="#000000" stroke-width="3.0" stroke-linejoin="round" stroke-linecap="butt" d="m32.58005 81.45407l0 0c0 -39.407913 31.946423 -71.35433 71.354324 -71.35433l0 0c18.924347 0 37.0736 7.517668 50.45513 20.8992c13.381531 13.381533 20.8992 31.530787 20.8992 50.45513l0 0c0 39.407906 -31.946426 71.354324 -71.35433 71.354324l0 0c-39.407906 0 -71.354324 -31.946419 -71.354324 -71.354324z" fill-rule="evenodd"/><path fill="#000000" d="m72.539604 52.76469q-1.234375 0 -1.234375 0.859375q0 1.03125 1.15625 1.03125l2.15625 0l-0.265625 10.218754l-1.9375 0q-1.234375 -0.015625 -1.234375 0.859375q0 1.015625 1.15625 1.015625l6.65625 0q1.203125 0 1.171875 -0.890625q-0.015625 -0.984375 -1.109375 -0.984375l-2.921875 0l0.265625 -10.218754l2.71875 0q1.203125 0 1.1875 -0.90625q-0.03125 -0.984375 -1.125 -0.984375l-6.640625 0zm12.709152 -1.0625q-0.828125 0 -0.84375 0.859375l-0.09375 4.296875q-1.0625 0.015625 -2.109375 0.015625q-0.859375 0 -0.859375 0.921875q0 0.890625 0.78125 0.890625q1.0625 0 2.140625 0l-0.171875 7.093754q-0.015625 0.96875 0.8125 0.984375q0.984375 0.015625 0.984375 -0.96875l0.15625 -7.109379q0.984375 0 1.953125 0q1.0625 0 1.0625 -0.9375q0 -0.90625 -1.125 -0.90625l-1.84375 0.015625q0.0625 -1.921875 0.078125 -4.25q0 -0.90625 -0.921875 -0.90625zm6.6656647 10.734375l6.125 -0.890625q0.96875 -0.140625 1.0 -1.25q0.046875 -1.40625 -1.0625 -2.5q-1.1875 -1.15625 -3.296875 -1.03125q-2.015625 0.125 -3.296875 1.953125q-1.015625 1.46875 -1.015625 3.34375q0 2.2812538 1.625 3.6093788q1.296875 1.078125 3.03125 1.09375q2.375 0.015625 3.828125 -1.28125q0.828125 -0.734375 0.40625 -1.5781288q-0.1875 -0.359375 -0.625 -0.265625q-0.390625 0.078125 -1.0 0.7500038q-0.640625 0.71875 -2.5 0.734375q-1.265625 0.015625 -2.296875 -0.890625q-0.875 -0.7812538 -0.921875 -1.7968788zm0.203125 -1.515625q0.25 -0.890625 0.65625 -1.390625q0.90625 -1.125 2.171875 -1.125q0.890625 -0.015625 1.703125 0.5q0.6875 0.453125 0.828125 1.234375l-5.359375 0.78125zm9.939606 -4.515625q-0.84375 0 -0.859375 0.84375l-0.203125 8.531254q-0.03125 0.96875 0.78125 0.984375q0.953125 0.015625 0.984375 -0.96875l0.15625 -5.984379q0.859375 -0.84375 1.890625 -1.046875q1.046875 -0.203125 1.875 0.34375q1.046875 0.71875 1.453125 -0.453125q0.234375 -0.734375 -1.140625 -1.421875q-0.78125 -0.390625 -2.0 -0.375q-0.984375 0.015625 -2.015625 0.78125q0 -0.171875 0 -0.328125q0 -0.90625 -0.921875 -0.90625zm11.276245 10.484379q0.84375 -0.015625 2.734375 -0.96875q0.171875 1.203125 1.3125 0.96875q1.0 -0.203125 0.21875 -1.53125q-0.53125 -0.921875 -0.484375 -3.1093788q0.046875 -2.734375 0.25 -3.875q0.21875 -1.171875 -0.875 -1.40625q-0.5625 -0.125 -0.828125 0.09375q-2.390625 -0.75 -4.578125 1.046875q-1.890625 1.546875 -1.875 4.40625q0.03125 4.375004 4.125 4.375004zm1.046875 -1.84375q-0.6875 0.265625 -1.484375 0.203125q-1.875 -0.125 -1.90625 -2.9062538q0.078125 -2.140625 1.703125 -3.3125q0.40625 -0.3125 1.078125 -0.46875q0.96875 -0.234375 1.84375 0.3125q-0.421875 1.484375 -0.09375 5.390629q-0.8125 0.671875 -1.140625 0.78125zm8.390503 -13.343754q-0.828125 0 -0.84375 0.859375l-0.09375 4.296875q-1.0625 0.015625 -2.109375 0.015625q-0.859375 0 -0.859375 0.921875q0 0.890625 0.78125 0.890625q1.0625 0 2.140625 0l-0.171875 7.093754q-0.015625 0.96875 0.8125 0.984375q0.984375 0.015625 0.984375 -0.96875l0.15625 -7.109379q0.984375 0 1.953125 0q1.0625 0 1.0625 -0.9375q0 -0.90625 -1.125 -0.90625l-1.84375 0.015625q0.0625 -1.921875 0.078125 -4.25q0 -0.90625 -0.921875 -0.90625zm6.665657 10.734375l6.125 -0.890625q0.96875 -0.140625 1.0 -1.25q0.046875 -1.40625 -1.0625 -2.5q-1.1875 -1.15625 -3.296875 -1.03125q-2.015625 0.125 -3.296875 1.953125q-1.0156174 1.46875 -1.0156174 3.34375q0 2.2812538 1.6249924 3.6093788q1.296875 1.078125 3.03125 1.09375q2.375 0.015625 3.828125 -1.28125q0.828125 -0.734375 0.40625 -1.5781288q-0.1875 -0.359375 -0.625 -0.265625q-0.390625 0.078125 -1.0 0.7500038q-0.640625 0.71875 -2.5 0.734375q-1.265625 0.015625 -2.296875 -0.890625q-0.875 -0.7812538 -0.921875 -1.7968788zm0.203125 -1.515625q0.25 -0.890625 0.65625 -1.390625q0.90625 -1.125 2.171875 -1.125q0.890625 -0.015625 1.703125 0.5q0.6875 0.453125 0.828125 1.234375l-5.359375 0.78125z" fill-rule="nonzero"/><path fill="#000000" d="m68.03173 74.545944q-0.828125 0 -0.84375 0.796875l-0.3125 12.484375q-0.015625 0.921875 0.796875 0.953125q0.984375 0.015625 1.0 -0.9375l0.109375 -4.875q0.234375 0.03125 0.5 0.015625q3.828125 -0.21875 4.8125 -1.421875q1.65625 -2.09375 0.765625 -4.40625q-0.890625 -2.296875 -4.078125 -2.609375q-0.953125 -0.09375 -2.375 0.03125q-0.171875 -0.03125 -0.375 -0.03125zm0.90625 1.828125q0.734375 -0.078125 1.265625 -0.09375q2.0625 -0.015625 2.8125 1.375q0.609375 1.1875 -0.171875 2.546875q-0.796875 1.390625 -4.015625 1.046875l0.109375 -4.875zm11.382599 12.515625q0.84375 -0.015625 2.734375 -0.96875q0.171875 1.203125 1.3125 0.96875q1.0 -0.203125 0.21875 -1.53125q-0.53125 -0.921875 -0.484375 -3.109375q0.046875 -2.734375 0.25 -3.875q0.21875 -1.171875 -0.875 -1.40625q-0.5625 -0.125 -0.828125 0.09375q-2.390625 -0.75 -4.578125 1.046875q-1.890625 1.546875 -1.875 4.40625q0.03125 4.375 4.125 4.375zm1.046875 -1.84375q-0.6875 0.265625 -1.484375 0.203125q-1.875 -0.125 -1.90625 -2.90625q0.078125 -2.140625 1.703125 -3.3125q0.40625 -0.3125 1.078125 -0.46875q0.96875 -0.234375 1.84375 0.3125q-0.421875 1.484375 -0.09375 5.390625q-0.8125 0.671875 -1.140625 0.78125zm6.187378 -8.640625q-0.84375 0 -0.859375 0.84375l-0.203125 8.53125q-0.03125 0.96875 0.78125 0.984375q0.953125 0.015625 0.984375 -0.96875l0.15625 -5.984375q0.859375 -0.84375 1.890625 -1.046875q1.046875 -0.203125 1.875 0.34375q1.046875 0.71875 1.453125 -0.453125q0.234375 -0.734375 -1.140625 -1.421875q-0.78125 -0.390625 -2.0 -0.375q-0.984375 0.015625 -2.015625 0.78125q0 -0.171875 0 -0.328125q0 -0.90625 -0.921875 -0.90625zm11.16687 -4.703125q-0.828125 0 -0.84375 0.859375l-0.09375 4.296875q-1.0625 0.015625 -2.109375 0.015625q-0.859375 0 -0.859375 0.921875q0 0.890625 0.78125 0.890625q1.0625 0 2.140625 0l-0.171875 7.09375q-0.015625 0.96875 0.8125 0.984375q0.984375 0.015625 0.984375 -0.96875l0.15625 -7.109375q0.984375 0 1.953125 0q1.0625 0 1.0625 -0.9375q0 -0.90625 -1.125 -0.90625l-1.84375 0.015625q0.0625 -1.921875 0.078125 -4.25q0 -0.90625 -0.921875 -0.90625zm7.0875397 5.140625q-0.921875 -0.03125 -0.953125 1.1875l-0.15625 7.640625q-0.015625 1.15625 0.953125 1.15625q0.859375 0 0.875 -1.234375l0.125 -7.578125q0.015625 -1.15625 -0.84375 -1.171875zm0.0625 -4.140625q-0.3125 0 -0.5625 0.171875q-0.234375 0.15625 -0.390625 0.421875q-0.15625 0.25 -0.15625 0.546875q0 0.3125 0.15625 0.578125q0.15625 0.25 0.40625 0.390625q0.234375 0.15625 0.515625 0.15625q0.03125 0 0.0625 0q0.28125 0.015625 0.5 -0.109375q0.21875 -0.09375 0.40625 -0.328125q0.203125 -0.265625 0.234375 -0.59375q0 -0.046875 0 -0.09375q0 -0.28125 -0.140625 -0.53125q-0.140625 -0.296875 -0.421875 -0.453125q-0.265625 -0.15625 -0.578125 -0.15625q-0.015625 0 -0.03125 0zm6.8694763 -1.0q-0.828125 0 -0.84375 0.859375l-0.09375 4.296875q-1.0625 0.015625 -2.109375 0.015625q-0.859375 0 -0.859375 0.921875q0 0.890625 0.78125 0.890625q1.0625 0 2.140625 0l-0.171875 7.09375q-0.015625 0.96875 0.8125 0.984375q0.984375 0.015625 0.984375 -0.96875l0.15625 -7.109375q0.984375 0 1.953125 0q1.0625 0 1.0625 -0.9375q0 -0.90625 -1.125 -0.90625l-1.84375 0.015625q0.0625 -1.921875 0.078125 -4.25q0 -0.90625 -0.921875 -0.90625zm7.0875397 5.140625q-0.921875 -0.03125 -0.953125 1.1875l-0.15625 7.640625q-0.015625 1.15625 0.953125 1.15625q0.859375 0 0.875 -1.234375l0.125 -7.578125q0.015625 -1.15625 -0.84375 -1.171875zm0.0625 -4.140625q-0.3125 0 -0.5625 0.171875q-0.234375 0.15625 -0.390625 0.421875q-0.15625 0.25 -0.15625 0.546875q0 0.3125 0.15625 0.578125q0.15625 0.25 0.40625 0.390625q0.234375 0.15625 0.515625 0.15625q0.03125 0 0.0625 0q0.28125 0.015625 0.5 -0.109375q0.21875 -0.09375 0.40625 -0.328125q0.203125 -0.265625 0.234375 -0.59375q0 -0.046875 0 -0.09375q0 -0.28125 -0.140625 -0.53125q-0.140625 -0.296875 -0.421875 -0.453125q-0.265625 -0.15625 -0.578125 -0.15625q-0.015625 0 -0.03125 0zm7.6194763 5.96875q1.9218674 -0.03125 1.9062424 3.21875q-0.015625 1.703125 -0.734375 2.484375q-0.671875 0.71875 -1.6718674 0.71875q-0.875 0 -1.546875 -0.71875q-0.65625 -0.71875 -0.65625 -2.140625q0 -1.484375 0.90625 -2.734375q0.59375 -0.796875 1.796875 -0.828125zm-0.078125 -1.859375q-1.984375 -0.015625 -3.1875 1.578125q-1.21875 1.59375 -1.21875 3.671875q0 2.203125 1.015625 3.40625q1.125 1.34375 2.75 1.359375q2.2499924 0.015625 3.3437424 -1.375q0.96875 -1.171875 0.984375 -3.390625q0 -5.21875 -3.6874924 -5.25zm6.9359207 -0.40625q-0.84375 0 -0.859375 0.84375l-0.203125 8.484375q-0.03125 0.96875 0.78125 0.984375q0.984375 0.015625 1.0 -0.96875l0.15625 -5.515625q1.4375 -1.453125 2.703125 -1.359375q1.515625 0.109375 1.453125 2.625l-0.109375 4.3125q-0.03125 1.109375 0.953125 1.015625q0.859375 -0.078125 0.875 -1.171875l0.078125 -4.5625q0.0625 -4.140625 -3.375 -4.140625q-1.546875 0 -2.546875 0.890625q0.015625 -0.265625 0.015625 -0.53125q0.03125 -0.90625 -0.921875 -0.90625z" fill-rule="nonzero"/><path fill="#000000" d="m93.01404 100.420944q-0.03125 0.90625 0.828125 0.90625l2.484375 0.015625l-1.125 3.8125l-1.828125 0q-1.234375 0 -1.25 0.6875q-0.015625 0.890625 0.828125 0.890625l1.796875 0l-0.5625 1.90625q-0.328125 1.171875 0.3125 1.375q0.859375 0.28125 1.09375 -0.53125l0.8125 -2.734375l4.5625 0.015625l-0.5625 1.875q-0.328125 1.171875 0.3125 1.375q0.859375 0.28125 1.109375 -0.53125l0.796875 -2.71875q1.328125 0 2.65625 0q1.21875 0 1.265625 -0.859375q0.015625 -0.765625 -1.046875 -0.765625l-2.390625 0l1.125 -3.78125q0.953125 0 1.921875 0q1.234375 0 1.265625 -0.875q0.03125 -0.765625 -1.046875 -0.765625l-1.671875 0l0.625 -2.046875q0.34375 -1.1875 -0.484375 -1.453125q-0.71875 -0.25 -1.03125 0.78125l-0.796875 2.734375q-2.265625 0 -4.53125 0l0.609375 -2.0625q0.34375 -1.1875 -0.46875 -1.453125q-0.734375 -0.25 -1.03125 0.78125l-0.796875 2.75q-1.265625 0 -2.546875 0q-1.21875 0 -1.234375 0.671875zm3.875 4.71875l1.125 -3.796875l4.53125 0l-1.109375 3.796875l-4.546875 0zm16.191742 -7.578125q0.015625 -0.8125 -0.5 -0.921875q-0.609375 -0.15625 -1.34375 0.546875l-1.8125 1.703125q-0.65625 0.609375 -0.171875 1.25q0.578125 0.796875 1.453125 -0.03125l0.671875 -0.640625l-0.015625 9.671875q-0.6875 0 -1.359375 0q-0.90625 0 -0.90625 0.90625q0 0.765625 0.8125 0.765625l4.140625 0q0.90625 0 0.90625 -0.8125q0 -0.859375 -0.9375 -0.859375q-0.484375 0 -1.0 0q0.0625 -11.578125 0.0625 -11.578125z" fill-rule="nonzero"/><path fill="#000000" fill-opacity="0.0" d="m366.91602 247.44882l0 0c0 -39.407913 31.946411 -71.35434 71.35434 -71.35434l0 0c18.924316 0 37.073578 7.5176697 50.45511 20.8992c13.381531 13.381531 20.8992 31.530792 20.8992 50.45514l0 0c0 39.407898 -31.946411 71.35434 -71.35431 71.35434l0 0c-39.40793 0 -71.35434 -31.946442 -71.35434 -71.35434z" fill-rule="evenodd"/><path stroke="#000000" stroke-width="3.0" stroke-linejoin="round" stroke-linecap="butt" d="m366.91602 247.44882l0 0c0 -39.407913 31.946411 -71.35434 71.35434 -71.35434l0 0c18.924316 0 37.073578 7.5176697 50.45511 20.8992c13.381531 13.381531 20.8992 31.530792 20.8992 50.45514l0 0c0 39.407898 -31.946411 71.35434 -71.35431 71.35434l0 0c-39.40793 0 -71.35434 -31.946442 -71.35434 -71.35434z" fill-rule="evenodd"/><path fill="#000000" d="m406.87555 218.75945q-1.234375 0 -1.234375 0.859375q0 1.03125 1.15625 1.03125l2.15625 0l-0.265625 10.21875l-1.9375 0q-1.234375 -0.015625 -1.234375 0.859375q0 1.015625 1.15625 1.015625l6.65625 0q1.203125 0 1.171875 -0.890625q-0.015625 -0.984375 -1.109375 -0.984375l-2.921875 0l0.265625 -10.21875l2.71875 0q1.203125 0 1.1875 -0.90625q-0.03125 -0.984375 -1.125 -0.984375l-6.640625 0zm12.7091675 -1.0625q-0.828125 0 -0.84375 0.859375l-0.09375 4.296875q-1.0625 0.015625 -2.109375 0.015625q-0.859375 0 -0.859375 0.921875q0 0.890625 0.78125 0.890625q1.0625 0 2.140625 0l-0.171875 7.09375q-0.015625 0.96875 0.8125 0.984375q0.984375 0.015625 0.984375 -0.96875l0.15625 -7.109375q0.984375 0 1.953125 0q1.0625 0 1.0625 -0.9375q0 -0.90625 -1.125 -0.90625l-1.84375 0.015625q0.0625 -1.921875 0.078125 -4.25q0 -0.90625 -0.921875 -0.90625zm6.6656494 10.734375l6.125 -0.890625q0.96875 -0.140625 1.0 -1.25q0.046875 -1.40625 -1.0625 -2.5q-1.1875 -1.15625 -3.296875 -1.03125q-2.015625 0.125 -3.296875 1.953125q-1.015625 1.46875 -1.015625 3.34375q0 2.28125 1.625 3.609375q1.296875 1.078125 3.03125 1.09375q2.375 0.015625 3.828125 -1.28125q0.828125 -0.734375 0.40625 -1.578125q-0.1875 -0.359375 -0.625 -0.265625q-0.390625 0.078125 -1.0 0.75q-0.640625 0.71875 -2.5 0.734375q-1.265625 0.015625 -2.296875 -0.890625q-0.875 -0.78125 -0.921875 -1.796875zm0.203125 -1.515625q0.25 -0.890625 0.65625 -1.390625q0.90625 -1.125 2.171875 -1.125q0.890625 -0.015625 1.703125 0.5q0.6875 0.453125 0.828125 1.234375l-5.359375 0.78125zm9.939606 -4.515625q-0.84375 0 -0.859375 0.84375l-0.203125 8.53125q-0.03125 0.96875 0.78125 0.984375q0.953125 0.015625 0.984375 -0.96875l0.15625 -5.984375q0.859375 -0.84375 1.890625 -1.046875q1.046875 -0.203125 1.875 0.34375q1.046875 0.71875 1.453125 -0.453125q0.234375 -0.734375 -1.140625 -1.421875q-0.78125 -0.390625 -2.0 -0.375q-0.984375 0.015625 -2.015625 0.78125q0 -0.171875 0 -0.328125q0 -0.90625 -0.921875 -0.90625zm11.276245 10.484375q0.84375 -0.015625 2.734375 -0.96875q0.171875 1.203125 1.3125 0.96875q1.0 -0.203125 0.21875 -1.53125q-0.53125 -0.921875 -0.484375 -3.109375q0.046875 -2.734375 0.25 -3.875q0.21875 -1.171875 -0.875 -1.40625q-0.5625 -0.125 -0.828125 0.09375q-2.390625 -0.75 -4.578125 1.046875q-1.890625 1.546875 -1.875 4.40625q0.03125 4.375 4.125 4.375zm1.046875 -1.84375q-0.6875 0.265625 -1.484375 0.203125q-1.875 -0.125 -1.90625 -2.90625q0.078125 -2.140625 1.703125 -3.3125q0.40625 -0.3125 1.078125 -0.46875q0.96875 -0.234375 1.84375 0.3125q-0.421875 1.484375 -0.09375 5.390625q-0.8125 0.671875 -1.140625 0.78125zm8.390503 -13.34375q-0.828125 0 -0.84375 0.859375l-0.09375 4.296875q-1.0625 0.015625 -2.109375 0.015625q-0.859375 0 -0.859375 0.921875q0 0.890625 0.78125 0.890625q1.0625 0 2.140625 0l-0.171875 7.09375q-0.015625 0.96875 0.8125 0.984375q0.984375 0.015625 0.984375 -0.96875l0.15625 -7.109375q0.984375 0 1.953125 0q1.0625 0 1.0625 -0.9375q0 -0.90625 -1.125 -0.90625l-1.84375 0.015625q0.0625 -1.921875 0.078125 -4.25q0 -0.90625 -0.921875 -0.90625zm6.66568 10.734375l6.125 -0.890625q0.96875 -0.140625 1.0 -1.25q0.046875 -1.40625 -1.0625 -2.5q-1.1875 -1.15625 -3.296875 -1.03125q-2.015625 0.125 -3.296875 1.953125q-1.015625 1.46875 -1.015625 3.34375q0 2.28125 1.625 3.609375q1.296875 1.078125 3.03125 1.09375q2.375 0.015625 3.828125 -1.28125q0.828125 -0.734375 0.40625 -1.578125q-0.1875 -0.359375 -0.625 -0.265625q-0.390625 0.078125 -1.0 0.75q-0.640625 0.71875 -2.5 0.734375q-1.265625 0.015625 -2.296875 -0.890625q-0.875 -0.78125 -0.921875 -1.796875zm0.203125 -1.515625q0.25 -0.890625 0.65625 -1.390625q0.90625 -1.125 2.171875 -1.125q0.890625 -0.015625 1.703125 0.5q0.6875 0.453125 0.828125 1.234375l-5.359375 0.78125z" fill-rule="nonzero"/><path fill="#000000" d="m402.36768 240.5407q-0.828125 0 -0.84375 0.796875l-0.3125 12.484375q-0.015625 0.921875 0.796875 0.953125q0.984375 0.015625 1.0 -0.9375l0.109375 -4.875q0.234375 0.03125 0.5 0.015625q3.828125 -0.21875 4.8125 -1.421875q1.65625 -2.09375 0.765625 -4.40625q-0.890625 -2.296875 -4.078125 -2.609375q-0.953125 -0.09375 -2.375 0.03125q-0.171875 -0.03125 -0.375 -0.03125zm0.90625 1.828125q0.734375 -0.078125 1.265625 -0.09375q2.0625 -0.015625 2.8125 1.375q0.609375 1.1875 -0.171875 2.546875q-0.796875 1.390625 -4.015625 1.046875l0.109375 -4.875zm11.382599 12.515625q0.84375 -0.015625 2.734375 -0.96875q0.171875 1.203125 1.3125 0.96875q1.0 -0.203125 0.21875 -1.53125q-0.53125 -0.921875 -0.484375 -3.109375q0.046875 -2.734375 0.25 -3.875q0.21875 -1.171875 -0.875 -1.40625q-0.5625 -0.125 -0.828125 0.09375q-2.390625 -0.75 -4.578125 1.046875q-1.890625 1.546875 -1.875 4.40625q0.03125 4.375 4.125 4.375zm1.046875 -1.84375q-0.6875 0.265625 -1.484375 0.203125q-1.875 -0.125 -1.90625 -2.90625q0.078125 -2.140625 1.703125 -3.3125q0.40625 -0.3125 1.078125 -0.46875q0.96875 -0.234375 1.84375 0.3125q-0.421875 1.484375 -0.09375 5.390625q-0.8125 0.671875 -1.140625 0.78125zm6.187378 -8.640625q-0.84375 0 -0.859375 0.84375l-0.203125 8.53125q-0.03125 0.96875 0.78125 0.984375q0.953125 0.015625 0.984375 -0.96875l0.15625 -5.984375q0.859375 -0.84375 1.890625 -1.046875q1.046875 -0.203125 1.875 0.34375q1.046875 0.71875 1.453125 -0.453125q0.234375 -0.734375 -1.140625 -1.421875q-0.78125 -0.390625 -2.0 -0.375q-0.984375 0.015625 -2.015625 0.78125q0 -0.171875 0 -0.328125q0 -0.90625 -0.921875 -0.90625zm11.16687 -4.703125q-0.828125 0 -0.84375 0.859375l-0.09375 4.296875q-1.0625 0.015625 -2.109375 0.015625q-0.859375 0 -0.859375 0.921875q0 0.890625 0.78125 0.890625q1.0625 0 2.140625 0l-0.171875 7.09375q-0.015625 0.96875 0.8125 0.984375q0.984375 0.015625 0.984375 -0.96875l0.15625 -7.109375q0.984375 0 1.953125 0q1.0625 0 1.0625 -0.9375q0 -0.90625 -1.125 -0.90625l-1.84375 0.015625q0.0625 -1.921875 0.078125 -4.25q0 -0.90625 -0.921875 -0.90625zm7.087555 5.140625q-0.921875 -0.03125 -0.953125 1.1875l-0.15625 7.640625q-0.015625 1.15625 0.953125 1.15625q0.859375 0 0.875 -1.234375l0.125 -7.578125q0.015625 -1.15625 -0.84375 -1.171875zm0.0625 -4.140625q-0.3125 0 -0.5625 0.171875q-0.234375 0.15625 -0.390625 0.421875q-0.15625 0.25 -0.15625 0.546875q0 0.3125 0.15625 0.578125q0.15625 0.25 0.40625 0.390625q0.234375 0.15625 0.515625 0.15625q0.03125 0 0.0625 0q0.28125 0.015625 0.5 -0.109375q0.21875 -0.09375 0.40625 -0.328125q0.203125 -0.265625 0.234375 -0.59375q0 -0.046875 0 -0.09375q0 -0.28125 -0.140625 -0.53125q-0.140625 -0.296875 -0.421875 -0.453125q-0.265625 -0.15625 -0.578125 -0.15625q-0.015625 0 -0.03125 0zm6.8694763 -1.0q-0.828125 0 -0.84375 0.859375l-0.09375 4.296875q-1.0625 0.015625 -2.109375 0.015625q-0.859375 0 -0.859375 0.921875q0 0.890625 0.78125 0.890625q1.0625 0 2.140625 0l-0.171875 7.09375q-0.015625 0.96875 0.8125 0.984375q0.984375 0.015625 0.984375 -0.96875l0.15625 -7.109375q0.984375 0 1.953125 0q1.0625 0 1.0625 -0.9375q0 -0.90625 -1.125 -0.90625l-1.84375 0.015625q0.0625 -1.921875 0.078125 -4.25q0 -0.90625 -0.921875 -0.90625zm7.0875244 5.140625q-0.921875 -0.03125 -0.953125 1.1875l-0.15625 7.640625q-0.015625 1.15625 0.953125 1.15625q0.859375 0 0.875 -1.234375l0.125 -7.578125q0.015625 -1.15625 -0.84375 -1.171875zm0.0625 -4.140625q-0.3125 0 -0.5625 0.171875q-0.234375 0.15625 -0.390625 0.421875q-0.15625 0.25 -0.15625 0.546875q0 0.3125 0.15625 0.578125q0.15625 0.25 0.40625 0.390625q0.234375 0.15625 0.515625 0.15625q0.03125 0 0.0625 0q0.28125 0.015625 0.5 -0.109375q0.21875 -0.09375 0.40625 -0.328125q0.203125 -0.265625 0.234375 -0.59375q0 -0.046875 0 -0.09375q0 -0.28125 -0.140625 -0.53125q-0.140625 -0.296875 -0.421875 -0.453125q-0.265625 -0.15625 -0.578125 -0.15625q-0.015625 0 -0.03125 0zm7.6194763 5.96875q1.921875 -0.03125 1.90625 3.21875q-0.015625 1.703125 -0.734375 2.484375q-0.671875 0.71875 -1.671875 0.71875q-0.875 0 -1.546875 -0.71875q-0.65625 -0.71875 -0.65625 -2.140625q0 -1.484375 0.90625 -2.734375q0.59375 -0.796875 1.796875 -0.828125zm-0.078125 -1.859375q-1.984375 -0.015625 -3.1875 1.578125q-1.21875 1.59375 -1.21875 3.671875q0 2.203125 1.015625 3.40625q1.125 1.34375 2.75 1.359375q2.25 0.015625 3.34375 -1.375q0.96875 -1.171875 0.984375 -3.390625q0 -5.21875 -3.6875 -5.25zm6.9359436 -0.40625q-0.84375 0 -0.859375 0.84375l-0.203125 8.484375q-0.03125 0.96875 0.78125 0.984375q0.984375 0.015625 1.0 -0.96875l0.15625 -5.515625q1.4375 -1.453125 2.703125 -1.359375q1.515625 0.109375 1.453125 2.625l-0.109375 4.3125q-0.03125 1.109375 0.953125 1.015625q0.859375 -0.078125 0.875 -1.171875l0.078125 -4.5625q0.0625 -4.140625 -3.375 -4.140625q-1.546875 0 -2.546875 0.890625q0.015625 -0.265625 0.015625 -0.53125q0.03125 -0.90625 -0.921875 -0.90625z" fill-rule="nonzero"/><path fill="#000000" d="m425.85605 266.41568q-0.03125 0.90625 0.828125 0.90625l2.484375 0.015625l-1.125 3.8125l-1.828125 0q-1.234375 0 -1.25 0.6875q-0.015625 0.890625 0.828125 0.890625l1.796875 0l-0.5625 1.90625q-0.328125 1.171875 0.3125 1.375q0.859375 0.28125 1.09375 -0.53125l0.8125 -2.734375l4.5625 0.015625l-0.5625 1.875q-0.328125 1.171875 0.3125 1.375q0.859375 0.28125 1.109375 -0.53125l0.796875 -2.71875q1.328125 0 2.65625 0q1.21875 0 1.265625 -0.859375q0.015625 -0.765625 -1.046875 -0.765625l-2.390625 0l1.125 -3.78125q0.953125 0 1.921875 0q1.234375 0 1.265625 -0.875q0.03125 -0.765625 -1.046875 -0.765625l-1.671875 0l0.625 -2.046875q0.34375 -1.1875 -0.484375 -1.453125q-0.71875 -0.25 -1.03125 0.78125l-0.796875 2.734375q-2.265625 0 -4.53125 0l0.609375 -2.0625q0.34375 -1.1875 -0.46875 -1.453125q-0.734375 -0.25 -1.03125 0.78125l-0.796875 2.75q-1.265625 0 -2.546875 0q-1.21875 0 -1.234375 0.671875zm3.875 4.71875l1.125 -3.796875l4.53125 0l-1.109375 3.796875l-4.546875 0zm12.207367 4.421875q-0.046875 1.265625 0.890625 1.265625l6.671875 0q0.953125 0 0.953125 -0.875q0.015625 -0.828125 -0.953125 -0.828125q-2.890625 -0.015625 -5.78125 -0.03125q0.0625 -0.875 1.09375 -2.390625q1.09375 -1.59375 3.171875 -2.546875q2.28125 -1.03125 2.34375 -3.875q0.046875 -2.109375 -1.734375 -3.21875q-0.828125 -0.515625 -2.21875 -0.515625q-1.484375 0 -2.453125 0.578125q-0.75 0.4375 -1.796875 1.71875q-0.5 0.625 0.140625 1.125q0.6875 0.59375 1.4375 -0.265625q1.015625 -1.1875 1.671875 -1.40625q1.109375 -0.359375 2.125 0.15625q1.0625 0.546875 1.03125 1.671875q-0.046875 2.0 -1.609375 2.75q-2.40625 1.171875 -3.640625 2.921875q-1.296875 1.921875 -1.34375 3.765625z" fill-rule="nonzero"/><path fill="#000000" fill-opacity="0.0" d="m32.58005 244.85301l0 0c0 -39.407898 31.946423 -71.354324 71.354324 -71.354324l0 0c18.924347 0 37.0736 7.5176697 50.45513 20.8992c13.381531 13.381531 20.8992 31.530792 20.8992 50.455124l0 0c0 39.407913 -31.946426 71.354324 -71.35433 71.354324l0 0c-39.407906 0 -71.354324 -31.946411 -71.354324 -71.354324z" fill-rule="evenodd"/><path stroke="#000000" stroke-width="3.0" stroke-linejoin="round" stroke-linecap="butt" d="m32.58005 244.85301l0 0c0 -39.407898 31.946423 -71.354324 71.354324 -71.354324l0 0c18.924347 0 37.0736 7.5176697 50.45513 20.8992c13.381531 13.381531 20.8992 31.530792 20.8992 50.455124l0 0c0 39.407913 -31.946426 71.354324 -71.35433 71.354324l0 0c-39.407906 0 -71.354324 -31.946411 -71.354324 -71.354324z" fill-rule="evenodd"/><path fill="#000000" d="m72.539604 216.16364q-1.234375 0 -1.234375 0.859375q0 1.03125 1.15625 1.03125l2.15625 0l-0.265625 10.21875l-1.9375 0q-1.234375 -0.015625 -1.234375 0.859375q0 1.015625 1.15625 1.015625l6.65625 0q1.203125 0 1.171875 -0.890625q-0.015625 -0.984375 -1.109375 -0.984375l-2.921875 0l0.265625 -10.21875l2.71875 0q1.203125 0 1.1875 -0.90625q-0.03125 -0.984375 -1.125 -0.984375l-6.640625 0zm12.709152 -1.0625q-0.828125 0 -0.84375 0.859375l-0.09375 4.296875q-1.0625 0.015625 -2.109375 0.015625q-0.859375 0 -0.859375 0.921875q0 0.890625 0.78125 0.890625q1.0625 0 2.140625 0l-0.171875 7.09375q-0.015625 0.96875 0.8125 0.984375q0.984375 0.015625 0.984375 -0.96875l0.15625 -7.109375q0.984375 0 1.953125 0q1.0625 0 1.0625 -0.9375q0 -0.90625 -1.125 -0.90625l-1.84375 0.015625q0.0625 -1.921875 0.078125 -4.25q0 -0.90625 -0.921875 -0.90625zm6.6656647 10.734375l6.125 -0.890625q0.96875 -0.140625 1.0 -1.25q0.046875 -1.40625 -1.0625 -2.5q-1.1875 -1.15625 -3.296875 -1.03125q-2.015625 0.125 -3.296875 1.953125q-1.015625 1.46875 -1.015625 3.34375q0 2.28125 1.625 3.609375q1.296875 1.078125 3.03125 1.09375q2.375 0.015625 3.828125 -1.28125q0.828125 -0.734375 0.40625 -1.578125q-0.1875 -0.359375 -0.625 -0.265625q-0.390625 0.078125 -1.0 0.75q-0.640625 0.71875 -2.5 0.734375q-1.265625 0.015625 -2.296875 -0.890625q-0.875 -0.78125 -0.921875 -1.796875zm0.203125 -1.515625q0.25 -0.890625 0.65625 -1.390625q0.90625 -1.125 2.171875 -1.125q0.890625 -0.015625 1.703125 0.5q0.6875 0.453125 0.828125 1.234375l-5.359375 0.78125zm9.939606 -4.515625q-0.84375 0 -0.859375 0.84375l-0.203125 8.53125q-0.03125 0.96875 0.78125 0.984375q0.953125 0.015625 0.984375 -0.96875l0.15625 -5.984375q0.859375 -0.84375 1.890625 -1.046875q1.046875 -0.203125 1.875 0.34375q1.046875 0.71875 1.453125 -0.453125q0.234375 -0.734375 -1.140625 -1.421875q-0.78125 -0.390625 -2.0 -0.375q-0.984375 0.015625 -2.015625 0.78125q0 -0.171875 0 -0.328125q0 -0.90625 -0.921875 -0.90625zm11.276245 10.484375q0.84375 -0.015625 2.734375 -0.96875q0.171875 1.203125 1.3125 0.96875q1.0 -0.203125 0.21875 -1.53125q-0.53125 -0.921875 -0.484375 -3.109375q0.046875 -2.734375 0.25 -3.875q0.21875 -1.171875 -0.875 -1.40625q-0.5625 -0.125 -0.828125 0.09375q-2.390625 -0.75 -4.578125 1.046875q-1.890625 1.546875 -1.875 4.40625q0.03125 4.375 4.125 4.375zm1.046875 -1.84375q-0.6875 0.265625 -1.484375 0.203125q-1.875 -0.125 -1.90625 -2.90625q0.078125 -2.140625 1.703125 -3.3125q0.40625 -0.3125 1.078125 -0.46875q0.96875 -0.234375 1.84375 0.3125q-0.421875 1.484375 -0.09375 5.390625q-0.8125 0.671875 -1.140625 0.78125zm8.390503 -13.34375q-0.828125 0 -0.84375 0.859375l-0.09375 4.296875q-1.0625 0.015625 -2.109375 0.015625q-0.859375 0 -0.859375 0.921875q0 0.890625 0.78125 0.890625q1.0625 0 2.140625 0l-0.171875 7.09375q-0.015625 0.96875 0.8125 0.984375q0.984375 0.015625 0.984375 -0.96875l0.15625 -7.109375q0.984375 0 1.953125 0q1.0625 0 1.0625 -0.9375q0 -0.90625 -1.125 -0.90625l-1.84375 0.015625q0.0625 -1.921875 0.078125 -4.25q0 -0.90625 -0.921875 -0.90625zm6.665657 10.734375l6.125 -0.890625q0.96875 -0.140625 1.0 -1.25q0.046875 -1.40625 -1.0625 -2.5q-1.1875 -1.15625 -3.296875 -1.03125q-2.015625 0.125 -3.296875 1.953125q-1.0156174 1.46875 -1.0156174 3.34375q0 2.28125 1.6249924 3.609375q1.296875 1.078125 3.03125 1.09375q2.375 0.015625 3.828125 -1.28125q0.828125 -0.734375 0.40625 -1.578125q-0.1875 -0.359375 -0.625 -0.265625q-0.390625 0.078125 -1.0 0.75q-0.640625 0.71875 -2.5 0.734375q-1.265625 0.015625 -2.296875 -0.890625q-0.875 -0.78125 -0.921875 -1.796875zm0.203125 -1.515625q0.25 -0.890625 0.65625 -1.390625q0.90625 -1.125 2.171875 -1.125q0.890625 -0.015625 1.703125 0.5q0.6875 0.453125 0.828125 1.234375l-5.359375 0.78125z" fill-rule="nonzero"/><path fill="#000000" d="m68.03173 237.94489q-0.828125 0 -0.84375 0.796875l-0.3125 12.484375q-0.015625 0.921875 0.796875 0.953125q0.984375 0.015625 1.0 -0.9375l0.109375 -4.875q0.234375 0.03125 0.5 0.015625q3.828125 -0.21875 4.8125 -1.421875q1.65625 -2.09375 0.765625 -4.40625q-0.890625 -2.296875 -4.078125 -2.609375q-0.953125 -0.09375 -2.375 0.03125q-0.171875 -0.03125 -0.375 -0.03125zm0.90625 1.828125q0.734375 -0.078125 1.265625 -0.09375q2.0625 -0.015625 2.8125 1.375q0.609375 1.1875 -0.171875 2.546875q-0.796875 1.390625 -4.015625 1.046875l0.109375 -4.875zm11.382599 12.515625q0.84375 -0.015625 2.734375 -0.96875q0.171875 1.203125 1.3125 0.96875q1.0 -0.203125 0.21875 -1.53125q-0.53125 -0.921875 -0.484375 -3.109375q0.046875 -2.734375 0.25 -3.875q0.21875 -1.171875 -0.875 -1.40625q-0.5625 -0.125 -0.828125 0.09375q-2.390625 -0.75 -4.578125 1.046875q-1.890625 1.546875 -1.875 4.40625q0.03125 4.375 4.125 4.375zm1.046875 -1.84375q-0.6875 0.265625 -1.484375 0.203125q-1.875 -0.125 -1.90625 -2.90625q0.078125 -2.140625 1.703125 -3.3125q0.40625 -0.3125 1.078125 -0.46875q0.96875 -0.234375 1.84375 0.3125q-0.421875 1.484375 -0.09375 5.390625q-0.8125 0.671875 -1.140625 0.78125zm6.187378 -8.640625q-0.84375 0 -0.859375 0.84375l-0.203125 8.53125q-0.03125 0.96875 0.78125 0.984375q0.953125 0.015625 0.984375 -0.96875l0.15625 -5.984375q0.859375 -0.84375 1.890625 -1.046875q1.046875 -0.203125 1.875 0.34375q1.046875 0.71875 1.453125 -0.453125q0.234375 -0.734375 -1.140625 -1.421875q-0.78125 -0.390625 -2.0 -0.375q-0.984375 0.015625 -2.015625 0.78125q0 -0.171875 0 -0.328125q0 -0.90625 -0.921875 -0.90625zm11.16687 -4.703125q-0.828125 0 -0.84375 0.859375l-0.09375 4.296875q-1.0625 0.015625 -2.109375 0.015625q-0.859375 0 -0.859375 0.921875q0 0.890625 0.78125 0.890625q1.0625 0 2.140625 0l-0.171875 7.09375q-0.015625 0.96875 0.8125 0.984375q0.984375 0.015625 0.984375 -0.96875l0.15625 -7.109375q0.984375 0 1.953125 0q1.0625 0 1.0625 -0.9375q0 -0.90625 -1.125 -0.90625l-1.84375 0.015625q0.0625 -1.921875 0.078125 -4.25q0 -0.90625 -0.921875 -0.90625zm7.0875397 5.140625q-0.921875 -0.03125 -0.953125 1.1875l-0.15625 7.640625q-0.015625 1.15625 0.953125 1.15625q0.859375 0 0.875 -1.234375l0.125 -7.578125q0.015625 -1.15625 -0.84375 -1.171875zm0.0625 -4.140625q-0.3125 0 -0.5625 0.171875q-0.234375 0.15625 -0.390625 0.421875q-0.15625 0.25 -0.15625 0.546875q0 0.3125 0.15625 0.578125q0.15625 0.25 0.40625 0.390625q0.234375 0.15625 0.515625 0.15625q0.03125 0 0.0625 0q0.28125 0.015625 0.5 -0.109375q0.21875 -0.09375 0.40625 -0.328125q0.203125 -0.265625 0.234375 -0.59375q0 -0.046875 0 -0.09375q0 -0.28125 -0.140625 -0.53125q-0.140625 -0.296875 -0.421875 -0.453125q-0.265625 -0.15625 -0.578125 -0.15625q-0.015625 0 -0.03125 0zm6.8694763 -1.0q-0.828125 0 -0.84375 0.859375l-0.09375 4.296875q-1.0625 0.015625 -2.109375 0.015625q-0.859375 0 -0.859375 0.921875q0 0.890625 0.78125 0.890625q1.0625 0 2.140625 0l-0.171875 7.09375q-0.015625 0.96875 0.8125 0.984375q0.984375 0.015625 0.984375 -0.96875l0.15625 -7.109375q0.984375 0 1.953125 0q1.0625 0 1.0625 -0.9375q0 -0.90625 -1.125 -0.90625l-1.84375 0.015625q0.0625 -1.921875 0.078125 -4.25q0 -0.90625 -0.921875 -0.90625zm7.0875397 5.140625q-0.921875 -0.03125 -0.953125 1.1875l-0.15625 7.640625q-0.015625 1.15625 0.953125 1.15625q0.859375 0 0.875 -1.234375l0.125 -7.578125q0.015625 -1.15625 -0.84375 -1.171875zm0.0625 -4.140625q-0.3125 0 -0.5625 0.171875q-0.234375 0.15625 -0.390625 0.421875q-0.15625 0.25 -0.15625 0.546875q0 0.3125 0.15625 0.578125q0.15625 0.25 0.40625 0.390625q0.234375 0.15625 0.515625 0.15625q0.03125 0 0.0625 0q0.28125 0.015625 0.5 -0.109375q0.21875 -0.09375 0.40625 -0.328125q0.203125 -0.265625 0.234375 -0.59375q0 -0.046875 0 -0.09375q0 -0.28125 -0.140625 -0.53125q-0.140625 -0.296875 -0.421875 -0.453125q-0.265625 -0.15625 -0.578125 -0.15625q-0.015625 0 -0.03125 0zm7.6194763 5.96875q1.9218674 -0.03125 1.9062424 3.21875q-0.015625 1.703125 -0.734375 2.484375q-0.671875 0.71875 -1.6718674 0.71875q-0.875 0 -1.546875 -0.71875q-0.65625 -0.71875 -0.65625 -2.140625q0 -1.484375 0.90625 -2.734375q0.59375 -0.796875 1.796875 -0.828125zm-0.078125 -1.859375q-1.984375 -0.015625 -3.1875 1.578125q-1.21875 1.59375 -1.21875 3.671875q0 2.203125 1.015625 3.40625q1.125 1.34375 2.75 1.359375q2.2499924 0.015625 3.3437424 -1.375q0.96875 -1.171875 0.984375 -3.390625q0 -5.21875 -3.6874924 -5.25zm6.9359207 -0.40625q-0.84375 0 -0.859375 0.84375l-0.203125 8.484375q-0.03125 0.96875 0.78125 0.984375q0.984375 0.015625 1.0 -0.96875l0.15625 -5.515625q1.4375 -1.453125 2.703125 -1.359375q1.515625 0.109375 1.453125 2.625l-0.109375 4.3125q-0.03125 1.109375 0.953125 1.015625q0.859375 -0.078125 0.875 -1.171875l0.078125 -4.5625q0.0625 -4.140625 -3.375 -4.140625q-1.546875 0 -2.546875 0.890625q0.015625 -0.265625 0.015625 -0.53125q0.03125 -0.90625 -0.921875 -0.90625z" fill-rule="nonzero"/><path fill="#000000" d="m91.52008 263.8199q-0.03125 0.90625 0.828125 0.90625l2.484375 0.015625l-1.125 3.8125l-1.828125 0q-1.234375 0 -1.25 0.6875q-0.015625 0.890625 0.828125 0.890625l1.796875 0l-0.5625 1.90625q-0.328125 1.171875 0.3125 1.375q0.859375 0.28125 1.09375 -0.53125l0.8125 -2.734375l4.5625 0.015625l-0.5625 1.875q-0.328125 1.171875 0.3125 1.375q0.859375 0.28125 1.109375 -0.53125l0.796875 -2.71875q1.328125 0 2.65625 0q1.21875 0 1.265625 -0.859375q0.015625 -0.765625 -1.046875 -0.765625l-2.390625 0l1.125 -3.78125q0.953125 0 1.921875 0q1.234375 0 1.265625 -0.875q0.03125 -0.765625 -1.046875 -0.765625l-1.671875 0l0.625 -2.046875q0.34375 -1.1875 -0.484375 -1.453125q-0.71875 -0.25 -1.03125 0.78125l-0.796875 2.734375q-2.265625 0 -4.53125 0l0.609375 -2.0625q0.34375 -1.1875 -0.46875 -1.453125q-0.734375 -0.25 -1.03125 0.78125l-0.796875 2.75q-1.265625 0 -2.546875 0q-1.21875 0 -1.234375 0.671875zm3.875 4.71875l1.125 -3.796875l4.53125 0l-1.109375 3.796875l-4.546875 0zm12.207367 4.421875q-0.046875 1.265625 0.890625 1.265625l6.671875 0q0.953125 0 0.953125 -0.875q0.015625 -0.828125 -0.953125 -0.828125q-2.890625 -0.015625 -5.78125 -0.03125q0.0625 -0.875 1.09375 -2.390625q1.09375 -1.59375 3.171875 -2.546875q2.28125 -1.03125 2.34375 -3.875q0.046875 -2.109375 -1.734375 -3.21875q-0.828125 -0.515625 -2.21875 -0.515625q-1.484375 0 -2.453125 0.578125q-0.75 0.4375 -1.796875 1.71875q-0.5 0.625 0.140625 1.125q0.6875 0.59375 1.4375 -0.265625q1.015625 -1.1875 1.671875 -1.40625q1.109375 -0.359375 2.125 0.15625q1.0625 0.546875 1.03125 1.671875q-0.046875 2.0 -1.609375 2.75q-2.40625 1.171875 -3.640625 2.921875q-1.296875 1.921875 -1.34375 3.765625z" fill-rule="nonzero"/><path fill="#000000" fill-opacity="0.0" d="m23.501312 361.4777l596.78735 0" fill-rule="evenodd"/><path stroke="#000000" stroke-width="3.0" stroke-linejoin="round" stroke-linecap="butt" d="m23.501312 361.4777l586.5061 0" fill-rule="evenodd"/><path fill="#000000" stroke="#000000" stroke-width="3.0" stroke-linecap="butt" d="m610.00745 361.4777l-3.3737183 3.3737488l9.269287 -3.3737488l-9.269287 -3.3737488z" fill-rule="evenodd"/><path fill="#000000" fill-opacity="0.0" d="m622.789 331.56274l123.55902 0l0 64.62991l-123.55902 0z" fill-rule="evenodd"/><path fill="#000000" d="m634.44525 347.20148q-0.8125 1.375 -0.453125 2.8125q0.625 2.546875 4.015625 2.5q3.484375 -0.0625 3.859375 1.265625q0.34375 1.265625 -0.875 2.4375q-0.625 0.609375 -2.375 0.921875q-0.984375 0.171875 -2.15625 -0.109375q-0.875 -0.203125 -1.484375 -0.75q-0.78125 -0.671875 -1.296875 -0.53125q-0.453125 0.140625 -0.546875 0.734375q-0.0625 0.546875 0.65625 1.203125q0.515625 0.4375 1.25 0.75q1.078125 0.453125 2.71875 0.4375q2.21875 -0.015625 3.71875 -0.875q2.25 -1.296875 2.375 -3.5625q0.078125 -1.46875 -1.0625 -2.65625q-0.921875 -0.9375 -2.875 -1.0q-2.1875 -0.0625 -2.75 -0.15625q-1.46875 -0.203125 -1.3125 -1.84375q0.078125 -0.828125 0.953125 -1.5q0.8125 -0.640625 2.328125 -0.734375q0.984375 -0.046875 2.25 0.4375q0.890625 0.34375 1.234375 0.1875q0.515625 -0.25 0.484375 -0.71875q-0.03125 -0.5625 -1.359375 -1.15625q-0.9375 -0.40625 -2.28125 -0.453125q-1.515625 -0.0625 -2.828125 0.578125q-1.578125 0.75 -2.1875 1.78125zm13.060486 1.75q-0.921875 -0.03125 -0.953125 1.1875l-0.15625 7.640625q-0.015625 1.15625 0.953125 1.15625q0.859375 0 0.875 -1.234375l0.125 -7.578125q0.015625 -1.15625 -0.84375 -1.171875zm0.0625 -4.140625q-0.3125 0 -0.5625 0.171875q-0.234375 0.15625 -0.390625 0.421875q-0.15625 0.25 -0.15625 0.546875q0 0.3125 0.15625 0.578125q0.15625 0.25 0.40625 0.390625q0.234375 0.15625 0.515625 0.15625q0.03125 0 0.0625 0q0.28125 0.015625 0.5 -0.109375q0.21875 -0.09375 0.40625 -0.328125q0.203125 -0.265625 0.234375 -0.59375q0 -0.046875 0 -0.09375q0 -0.28125 -0.140625 -0.53125q-0.140625 -0.296875 -0.421875 -0.453125q-0.265625 -0.15625 -0.578125 -0.15625q-0.015625 0 -0.03125 0zm4.494446 3.703125q-0.828125 0 -0.859375 0.84375l-0.203125 8.453125q-0.03125 0.96875 0.796875 0.984375q0.9375 0.03125 0.96875 -0.96875l0.15625 -5.03125q0.5 -1.90625 2.0625 -1.84375q1.40625 0.046875 1.359375 2.640625l-0.09375 4.1875q-0.03125 1.078125 0.90625 1.0q0.84375 -0.0625 0.875 -1.171875l0.109375 -4.5625q0.015625 -0.53125 0.03125 -0.5625q0.609375 -1.5625 2.28125 -1.515625q1.4375 0.03125 1.390625 2.734375l-0.046875 4.203125q-0.015625 1.09375 0.96875 1.0q0.859375 -0.0625 0.875 -1.171875l0.0625 -4.53125q0.0625 -4.140625 -3.390625 -4.140625q-1.859375 -0.015625 -2.796875 1.328125q-0.65625 -1.359375 -2.546875 -1.328125q-1.171875 0 -1.984375 0.734375l0.015625 -0.375q0.015625 -0.90625 -0.9375 -0.90625zm20.211975 10.65625q0.828125 0 0.84375 -0.84375l0.21875 -8.5q0.015625 -0.984375 -0.796875 -1.015625q-0.96875 0 -1.0 0.984375l-0.109375 4.609375q-0.046875 1.484375 -1.234375 2.09375q-1.296875 0.65625 -2.25 0.015625q-0.6875 -0.484375 -0.671875 -2.6875l0.015625 -3.984375q0.015625 -1.09375 -0.953125 -1.0q-0.859375 0.078125 -0.875 1.171875l-0.03125 4.46875q-0.03125 4.140625 3.390625 4.15625q1.546875 0 2.546875 -0.90625l-0.015625 0.546875q-0.015625 0.890625 0.921875 0.890625zm4.607849 -15.359375q-0.828125 0.03125 -0.84375 0.859375l-0.3125 13.21875q-0.015625 0.96875 0.8125 0.984375q0.984375 0.015625 0.984375 -0.96875l0.28125 -13.1875q0.03125 -0.90625 -0.921875 -0.90625zm6.9697876 15.1875q0.84375 -0.015625 2.734375 -0.96875q0.171875 1.203125 1.3125 0.96875q1.0 -0.203125 0.21875 -1.53125q-0.53125 -0.921875 -0.484375 -3.109375q0.046875 -2.734375 0.25 -3.875q0.21875 -1.171875 -0.875 -1.40625q-0.5625 -0.125 -0.828125 0.09375q-2.390625 -0.75 -4.578125 1.046875q-1.890625 1.546875 -1.875 4.40625q0.03125 4.375 4.125 4.375zm1.046875 -1.84375q-0.6875 0.265625 -1.484375 0.203125q-1.875 -0.125 -1.90625 -2.90625q0.078125 -2.140625 1.703125 -3.3125q0.40625 -0.3125 1.078125 -0.46875q0.96875 -0.234375 1.84375 0.3125q-0.421875 1.484375 -0.09375 5.390625q-0.8125 0.671875 -1.140625 0.78125zm8.390503 -13.34375q-0.828125 0 -0.84375 0.859375l-0.09375 4.296875q-1.0625 0.015625 -2.109375 0.015625q-0.859375 0 -0.859375 0.921875q0 0.890625 0.78125 0.890625q1.0625 0 2.140625 0l-0.171875 7.09375q-0.015625 0.96875 0.8125 0.984375q0.984375 0.015625 0.984375 -0.96875l0.15625 -7.109375q0.984375 0 1.953125 0q1.0625 0 1.0625 -0.9375q0 -0.90625 -1.125 -0.90625l-1.84375 0.015625q0.0625 -1.921875 0.078125 -4.25q0 -0.90625 -0.921875 -0.90625zm7.0875854 5.140625q-0.921875 -0.03125 -0.953125 1.1875l-0.15625 7.640625q-0.015625 1.15625 0.953125 1.15625q0.859375 0 0.875 -1.234375l0.125 -7.578125q0.015625 -1.15625 -0.84375 -1.171875zm0.0625 -4.140625q-0.3125 0 -0.5625 0.171875q-0.234375 0.15625 -0.390625 0.421875q-0.15625 0.25 -0.15625 0.546875q0 0.3125 0.15625 0.578125q0.15625 0.25 0.40625 0.390625q0.234375 0.15625 0.515625 0.15625q0.03125 0 0.0625 0q0.28125 0.015625 0.5 -0.109375q0.21875 -0.09375 0.40625 -0.328125q0.203125 -0.265625 0.234375 -0.59375q0 -0.046875 0 -0.09375q0 -0.28125 -0.140625 -0.53125q-0.140625 -0.296875 -0.421875 -0.453125q-0.265625 -0.15625 -0.578125 -0.15625q-0.015625 0 -0.03125 0zm7.619446 5.96875q1.921875 -0.03125 1.90625 3.21875q-0.015625 1.703125 -0.734375 2.484375q-0.671875 0.71875 -1.671875 0.71875q-0.875 0 -1.546875 -0.71875q-0.65625 -0.71875 -0.65625 -2.140625q0 -1.484375 0.90625 -2.734375q0.59375 -0.796875 1.796875 -0.828125zm-0.078125 -1.859375q-1.984375 -0.015625 -3.1875 1.578125q-1.21875 1.59375 -1.21875 3.671875q0 2.203125 1.015625 3.40625q1.125 1.34375 2.75 1.359375q2.25 0.015625 3.34375 -1.375q0.96875 -1.171875 0.984375 -3.390625q0 -5.21875 -3.6875 -5.25zm6.935913 -0.40625q-0.84375 0 -0.859375 0.84375l-0.203125 8.484375q-0.03125 0.96875 0.78125 0.984375q0.984375 0.015625 1.0 -0.96875l0.15625 -5.515625q1.4375 -1.453125 2.703125 -1.359375q1.515625 0.109375 1.453125 2.625l-0.109375 4.3125q-0.03125 1.109375 0.953125 1.015625q0.859375 -0.078125 0.875 -1.171875l0.078125 -4.5625q0.0625 -4.140625 -3.375 -4.140625q-1.546875 0 -2.546875 0.890625q0.015625 -0.265625 0.015625 -0.53125q0.03125 -0.90625 -0.921875 -0.90625z" fill-rule="nonzero"/><path fill="#000000" d="m634.0859 367.21085q-1.234375 0 -1.234375 0.8125q0 0.953125 1.15625 0.953125q2.140625 0 4.296875 -0.015625l-0.28125 11.453125q-0.015625 0.90625 0.796875 0.921875q0.96875 0.015625 1.0 -0.90625l0.265625 -11.46875l3.84375 -0.015625q1.21875 0 1.203125 -0.828125q-0.03125 -0.90625 -1.203125 -0.90625l-9.84375 0zm13.164795 4.140625q-0.921875 -0.03125 -0.953125 1.1875l-0.15625 7.640625q-0.015625 1.15625 0.953125 1.15625q0.859375 0 0.875 -1.234375l0.125 -7.578125q0.015625 -1.15625 -0.84375 -1.171875zm0.0625 -4.140625q-0.3125 0 -0.5625 0.171875q-0.234375 0.15625 -0.390625 0.421875q-0.15625 0.25 -0.15625 0.546875q0 0.3125 0.15625 0.578125q0.15625 0.25 0.40625 0.390625q0.234375 0.15625 0.515625 0.15625q0.03125 0 0.0625 0q0.28125 0.015625 0.5 -0.109375q0.21875 -0.09375 0.40625 -0.328125q0.203125 -0.265625 0.234375 -0.59375q0 -0.046875 0 -0.09375q0 -0.28125 -0.140625 -0.53125q-0.140625 -0.296875 -0.421875 -0.453125q-0.265625 -0.15625 -0.578125 -0.15625q-0.015625 0 -0.03125 0zm4.494446 3.703125q-0.828125 0 -0.859375 0.84375l-0.203125 8.453125q-0.03125 0.96875 0.796875 0.984375q0.9375 0.03125 0.96875 -0.96875l0.15625 -5.03125q0.5 -1.90625 2.0625 -1.84375q1.40625 0.046875 1.359375 2.640625l-0.09375 4.1875q-0.03125 1.078125 0.90625 1.0q0.84375 -0.0625 0.875 -1.171875l0.109375 -4.5625q0.015625 -0.53125 0.03125 -0.5625q0.609375 -1.5625 2.28125 -1.515625q1.4375 0.03125 1.390625 2.734375l-0.046875 4.203125q-0.015625 1.09375 0.96875 1.0q0.859375 -0.0625 0.875 -1.171875l0.0625 -4.53125q0.0625 -4.140625 -3.390625 -4.140625q-1.859375 -0.015625 -2.796875 1.328125q-0.65625 -1.359375 -2.546875 -1.328125q-1.171875 0 -1.984375 0.734375l0.015625 -0.375q0.015625 -0.90625 -0.9375 -0.90625zm14.743225 6.03125l6.125 -0.890625q0.96875 -0.140625 1.0 -1.25q0.046875 -1.40625 -1.0625 -2.5q-1.1875 -1.15625 -3.296875 -1.03125q-2.015625 0.125 -3.296875 1.953125q-1.015625 1.46875 -1.015625 3.34375q0 2.28125 1.625 3.609375q1.296875 1.078125 3.03125 1.09375q2.375 0.015625 3.828125 -1.28125q0.828125 -0.734375 0.40625 -1.578125q-0.1875 -0.359375 -0.625 -0.265625q-0.390625 0.078125 -1.0 0.75q-0.640625 0.71875 -2.5 0.734375q-1.265625 0.015625 -2.296875 -0.890625q-0.875 -0.78125 -0.921875 -1.796875zm0.203125 -1.515625q0.25 -0.890625 0.65625 -1.390625q0.90625 -1.125 2.171875 -1.125q0.890625 -0.015625 1.703125 0.5q0.6875 0.453125 0.828125 1.234375l-5.359375 0.78125zm10.3927 -9.21875q-0.828125 0.03125 -0.84375 0.859375l-0.3125 13.21875q-0.015625 0.96875 0.8125 0.984375q0.984375 0.015625 0.984375 -0.96875l0.28125 -13.1875q0.03125 -0.90625 -0.921875 -0.90625zm5.1573486 5.140625q-0.921875 -0.03125 -0.953125 1.1875l-0.15625 7.640625q-0.015625 1.15625 0.953125 1.15625q0.859375 0 0.875 -1.234375l0.125 -7.578125q0.015625 -1.15625 -0.84375 -1.171875zm0.0625 -4.140625q-0.3125 0 -0.5625 0.171875q-0.234375 0.15625 -0.390625 0.421875q-0.15625 0.25 -0.15625 0.546875q0 0.3125 0.15625 0.578125q0.15625 0.25 0.40625 0.390625q0.234375 0.15625 0.515625 0.15625q0.03125 0 0.0625 0q0.28125 0.015625 0.5 -0.109375q0.21875 -0.09375 0.40625 -0.328125q0.203125 -0.265625 0.234375 -0.59375q0 -0.046875 0 -0.09375q0 -0.28125 -0.140625 -0.53125q-0.140625 -0.296875 -0.421875 -0.453125q-0.265625 -0.15625 -0.578125 -0.15625q-0.015625 0 -0.03125 0zm4.666321 3.703125q-0.84375 0 -0.859375 0.84375l-0.203125 8.484375q-0.03125 0.96875 0.78125 0.984375q0.984375 0.015625 1.0 -0.96875l0.15625 -5.515625q1.4375 -1.453125 2.703125 -1.359375q1.515625 0.109375 1.453125 2.625l-0.109375 4.3125q-0.03125 1.109375 0.953125 1.015625q0.859375 -0.078125 0.875 -1.171875l0.078125 -4.5625q0.0625 -4.140625 -3.375 -4.140625q-1.546875 0 -2.546875 0.890625q0.015625 -0.265625 0.015625 -0.53125q0.03125 -0.90625 -0.921875 -0.90625zm9.843506 6.03125l6.125 -0.890625q0.96875 -0.140625 1.0 -1.25q0.046875 -1.40625 -1.0625 -2.5q-1.1875 -1.15625 -3.296875 -1.03125q-2.015625 0.125 -3.296875 1.953125q-1.015625 1.46875 -1.015625 3.34375q0 2.28125 1.625 3.609375q1.296875 1.078125 3.03125 1.09375q2.375 0.015625 3.828125 -1.28125q0.828125 -0.734375 0.40625 -1.578125q-0.1875 -0.359375 -0.625 -0.265625q-0.390625 0.078125 -1.0 0.75q-0.640625 0.71875 -2.5 0.734375q-1.265625 0.015625 -2.296875 -0.890625q-0.875 -0.78125 -0.921875 -1.796875zm0.203125 -1.515625q0.25 -0.890625 0.65625 -1.390625q0.90625 -1.125 2.171875 -1.125q0.890625 -0.015625 1.703125 0.5q0.6875 0.453125 0.828125 1.234375l-5.359375 0.78125z" fill-rule="nonzero"/><path fill="#000000" fill-opacity="0.0" d="m103.93438 331.8714l0 59.212585" fill-rule="evenodd"/><path stroke="#000000" stroke-width="3.0" stroke-linejoin="round" stroke-linecap="butt" d="m103.93438 331.8714l0 59.212585" fill-rule="evenodd"/><path fill="#000000" fill-opacity="0.0" d="m438.27036 331.8714l0 59.212585" fill-rule="evenodd"/><path stroke="#000000" stroke-width="3.0" stroke-linejoin="round" stroke-linecap="butt" d="m438.27036 331.8714l0 59.212585" fill-rule="evenodd"/><path fill="#000000" fill-opacity="0.0" d="m530.7428 123.467514l0 0c0 -8.897614 7.2129517 -16.110558 16.110535 -16.110558l151.43243 0c4.272827 0 8.370605 1.6973572 11.391907 4.7186737c3.0213013 3.0213165 4.718689 7.119095 4.718689 11.391884l0 64.44031c0 8.897614 -7.2129517 16.11055 -16.110596 16.11055l-151.43243 0c-8.897583 0 -16.110535 -7.2129364 -16.110535 -16.11055z" fill-rule="evenodd"/><path stroke="#cc0000" stroke-width="3.0" stroke-linejoin="round" stroke-linecap="butt" stroke-dasharray="12.0,9.0" d="m530.7428 123.467514l0 0c0 -8.897614 7.2129517 -16.110558 16.110535 -16.110558l151.43243 0c4.272827 0 8.370605 1.6973572 11.391907 4.7186737c3.0213013 3.0213165 4.718689 7.119095 4.718689 11.391884l0 64.44031c0 8.897614 -7.2129517 16.11055 -16.110596 16.11055l-151.43243 0c-8.897583 0 -16.110535 -7.2129364 -16.110535 -16.11055z" fill-rule="evenodd"/><path fill="#000000" fill-opacity="0.0" d="m522.7841 205.70932l234.70868 0l0 67.87402l-234.70868 0z" fill-rule="evenodd"/><path fill="#cc0000" d="m540.4091 225.35307l-6.4375 -7.4375q-0.171875 -0.1875 -0.515625 -0.1875q-0.59375 0.015625 -0.609375 0.578125l-0.21875 8.8125q-0.015625 0.65625 0.578125 0.65625q0.6875 0.015625 0.703125 -0.640625l0.15625 -7.078125l6.40625 7.296875q0.1875 0.21875 0.46875 0.234375q0.703125 0.015625 0.71875 -0.65625l0.203125 -8.796875q0.015625 -0.609375 -0.65625 -0.609375q-0.59375 0.015625 -0.609375 0.578125l-0.1875 7.25zm3.6833496 -0.65625l4.375 -0.640625q0.6875 -0.09375 0.71875 -0.890625q0.03125 -1.0 -0.765625 -1.78125q-0.84375 -0.828125 -2.359375 -0.734375q-1.4375 0.078125 -2.34375 1.390625q-0.734375 1.046875 -0.734375 2.390625q0 1.625 1.15625 2.578125q0.9375 0.765625 2.171875 0.78125q1.703125 0.015625 2.734375 -0.90625q0.59375 -0.53125 0.296875 -1.140625q-0.140625 -0.265625 -0.453125 -0.1875q-0.28125 0.046875 -0.71875 0.546875q-0.453125 0.5 -1.78125 0.515625q-0.90625 0 -1.640625 -0.640625q-0.625 -0.546875 -0.65625 -1.28125zm0.140625 -1.078125q0.1875 -0.640625 0.46875 -1.0q0.65625 -0.796875 1.546875 -0.796875q0.640625 -0.015625 1.21875 0.34375q0.5 0.328125 0.59375 0.890625l-3.828125 0.5625zm6.254944 -2.796875q-0.53125 0.421875 0.015625 1.015625l2.265625 2.484375l-2.09375 2.234375q-0.640625 0.6875 -0.125 1.125q0.453125 0.40625 1.078125 -0.28125l1.9375 -2.15625l1.921875 2.15625q0.625 0.6875 1.078125 0.28125q0.515625 -0.4375 -0.125 -1.125l-2.0625 -2.25l2.234375 -2.46875q0.546875 -0.59375 0.015625 -1.015625q-0.484375 -0.390625 -1.078125 0.28125l-1.984375 2.296875l-2.0 -2.296875q-0.578125 -0.671875 -1.078125 -0.28125zm10.289917 -3.796875q-0.59375 0 -0.59375 0.609375l-0.078125 3.078125q-0.75 0.015625 -1.5 0.015625q-0.625 0 -0.625 0.65625q0 0.625 0.5625 0.625q0.765625 0 1.53125 0l-0.125 5.078125q0 0.6875 0.578125 0.703125q0.703125 0.015625 0.703125 -0.703125l0.125 -5.078125q0.6875 0 1.390625 0q0.75 0 0.75 -0.65625q0 -0.65625 -0.796875 -0.65625l-1.3125 0.015625q0.046875 -1.375 0.046875 -3.03125q0 -0.65625 -0.65625 -0.65625zm7.8410645 3.671875q-0.5625 0.234375 -0.25 1.0625l2.046875 5.328125q0.28125 0.71875 0.796875 0.71875q0.484375 0 0.765625 -0.71875l2.046875 -5.328125q0.3125 -0.828125 -0.234375 -1.0625q-0.65625 -0.265625 -0.953125 0.5625l-1.640625 4.5625l-1.640625 -4.5625q-0.296875 -0.828125 -0.9375 -0.5625zm8.981812 7.171875q0.609375 0 1.953125 -0.6875q0.125 0.859375 0.9375 0.6875q0.71875 -0.140625 0.15625 -1.09375q-0.375 -0.640625 -0.34375 -2.203125q0.03125 -1.96875 0.171875 -2.78125q0.15625 -0.828125 -0.625 -1.0q-0.390625 -0.09375 -0.578125 0.0625q-1.71875 -0.53125 -3.28125 0.75q-1.359375 1.109375 -1.328125 3.140625q0.015625 3.140625 2.9375 3.125zm0.75 -1.296875q-0.484375 0.171875 -1.0625 0.140625q-1.34375 -0.09375 -1.359375 -2.09375q0.0625 -1.515625 1.21875 -2.359375q0.28125 -0.21875 0.765625 -0.328125q0.6875 -0.171875 1.3125 0.21875q-0.296875 1.0625 -0.0625 3.859375q-0.578125 0.46875 -0.8125 0.5625zm4.7421265 -9.546875q-0.59375 0.015625 -0.59375 0.609375l-0.234375 9.453125q0 0.6875 0.578125 0.703125q0.703125 0.015625 0.71875 -0.703125l0.1875 -9.40625q0.015625 -0.65625 -0.65625 -0.65625zm7.291565 10.984375q0.59375 0 0.609375 -0.609375l0.15625 -6.078125q0 -0.703125 -0.578125 -0.71875q-0.6875 0 -0.71875 0.703125l-0.078125 3.28125q-0.03125 1.078125 -0.875 1.5q-0.9375 0.46875 -1.609375 0.015625q-0.5 -0.34375 -0.484375 -1.921875l0.015625 -2.84375q0.015625 -0.78125 -0.671875 -0.71875q-0.625 0.0625 -0.625 0.84375l-0.03125 3.1875q-0.03125 2.96875 2.421875 2.96875q1.109375 0 1.8125 -0.640625l0 0.375q-0.015625 0.65625 0.65625 0.65625zm3.0246582 -3.3125l4.375 -0.640625q0.6875 -0.09375 0.71875 -0.890625q0.03125 -1.0 -0.765625 -1.78125q-0.84375 -0.828125 -2.359375 -0.734375q-1.4375 0.078125 -2.34375 1.390625q-0.734375 1.046875 -0.734375 2.390625q0 1.625 1.15625 2.578125q0.9375 0.765625 2.171875 0.78125q1.703125 0.015625 2.734375 -0.90625q0.59375 -0.53125 0.296875 -1.140625q-0.140625 -0.265625 -0.453125 -0.1875q-0.28125 0.046875 -0.71875 0.546875q-0.453125 0.5 -1.78125 0.515625q-0.90625 0 -1.640625 -0.640625q-0.625 -0.546875 -0.65625 -1.28125zm0.140625 -1.078125q0.1875 -0.640625 0.46875 -1.0q0.65625 -0.796875 1.546875 -0.796875q0.640625 -0.015625 1.21875 0.34375q0.5 0.328125 0.59375 0.890625l-3.828125 0.5625zm8.020569 2.953125q-0.59375 -0.03125 -1.171875 -0.421875q-0.46875 -0.328125 -0.828125 -0.078125q-0.296875 0.1875 -0.28125 0.625q0.03125 0.390625 0.484375 0.640625q0.515625 0.296875 0.859375 0.390625q0.578125 0.171875 1.484375 0.15625q1.078125 0 1.734375 -0.4375q0.8125 -0.546875 0.90625 -1.375q0.109375 -0.828125 -0.546875 -1.625q-0.28125 -0.328125 -1.0 -0.671875q-0.53125 -0.234375 -1.140625 -0.3125q-0.796875 -0.078125 -0.90625 -0.4375q-0.140625 -0.390625 0.1875 -0.765625q0.375 -0.4375 1.15625 -0.484375q0.734375 -0.03125 1.109375 0.34375q0.765625 0.71875 1.140625 0.421875q0.296875 -0.25 0.234375 -0.640625q-0.09375 -0.59375 -1.015625 -1.046875q-0.71875 -0.34375 -1.671875 -0.265625q-0.84375 0.078125 -1.484375 0.546875q-0.546875 0.390625 -0.828125 1.140625q-0.265625 0.671875 -0.109375 1.328125q0.203125 0.828125 1.53125 1.03125q1.296875 0.171875 1.65625 0.5625q0.546875 0.59375 0.28125 1.0q-0.3125 0.46875 -1.78125 0.375zm9.252441 -5.859375q-0.765625 0 -0.765625 0.328125q0 0.3125 -0.015625 0.640625q0 0.3125 0.703125 0.3125l1.0625 0l-0.078125 5.15625q-0.015625 0.6875 0.578125 0.703125q0.703125 0.015625 0.703125 -0.6875l0.0625 -5.171875l1.609375 0q0.859375 0 0.8125 -0.703125q-0.03125 -0.578125 -0.890625 -0.578125l-1.5 0q0 -0.828125 0.171875 -1.4375q0.296875 -1.046875 1.515625 -0.9375q0.78125 0.078125 0.890625 -0.546875q0.125 -0.734375 -1.265625 -0.6875q-1.40625 0.046875 -1.90625 0.765625q-0.640625 0.90625 -0.671875 2.84375l-1.015625 0zm7.071533 -0.328125q-0.59375 0 -0.609375 0.609375l-0.15625 6.09375q-0.015625 0.6875 0.578125 0.703125q0.671875 0.015625 0.703125 -0.703125l0.109375 -4.265625q0.609375 -0.609375 1.34375 -0.75q0.75 -0.140625 1.34375 0.25q0.75 0.515625 1.03125 -0.328125q0.171875 -0.53125 -0.8125 -1.015625q-0.5625 -0.28125 -1.421875 -0.265625q-0.71875 0.015625 -1.4375 0.5625q0 -0.125 0 -0.234375q0 -0.65625 -0.671875 -0.65625zm8.513123 1.625q1.375 -0.03125 1.375 2.296875q-0.015625 1.21875 -0.53125 1.765625q-0.484375 0.53125 -1.1875 0.53125q-0.625 0 -1.109375 -0.53125q-0.46875 -0.5 -0.46875 -1.53125q0 -1.046875 0.640625 -1.9375q0.4375 -0.578125 1.28125 -0.59375zm-0.046875 -1.328125q-1.421875 -0.015625 -2.28125 1.125q-0.875 1.140625 -0.875 2.625q0 1.5625 0.734375 2.4375q0.796875 0.953125 1.96875 0.953125q1.59375 0.015625 2.375 -0.96875q0.703125 -0.828125 0.703125 -2.421875q0 -3.734375 -2.625 -3.75zm4.837158 -0.296875q-0.609375 0 -0.625 0.609375l-0.140625 6.03125q-0.015625 0.703125 0.5625 0.71875q0.671875 0 0.703125 -0.703125l0.109375 -3.59375q0.34375 -1.359375 1.46875 -1.3125q1.0 0.03125 0.96875 1.875l-0.0625 3.0q-0.015625 0.765625 0.640625 0.71875q0.609375 -0.0625 0.625 -0.84375l0.078125 -3.265625q0.015625 -0.375 0.03125 -0.390625q0.4375 -1.125 1.625 -1.09375q1.03125 0.03125 1.0 1.953125l-0.046875 3.0q0 0.796875 0.703125 0.734375q0.609375 -0.0625 0.625 -0.84375l0.046875 -3.234375q0.046875 -2.96875 -2.421875 -2.96875q-1.328125 0 -2.0 0.953125q-0.46875 -0.96875 -1.828125 -0.953125q-0.828125 0 -1.40625 0.53125l0 -0.265625q0.015625 -0.65625 -0.65625 -0.65625zm14.258728 -2.75q-0.59375 0 -0.609375 0.5625l-0.21875 8.921875q-0.015625 0.65625 0.578125 0.671875q0.703125 0.015625 0.71875 -0.65625l0.078125 -3.484375q0.15625 0.015625 0.359375 0q2.71875 -0.140625 3.421875 -1.015625q1.1875 -1.484375 0.546875 -3.140625q-0.625 -1.640625 -2.90625 -1.859375q-0.671875 -0.0625 -1.703125 0.015625q-0.109375 -0.015625 -0.265625 -0.015625zm0.640625 1.296875q0.53125 -0.046875 0.921875 -0.0625q1.46875 -0.015625 2.0 0.984375q0.4375 0.84375 -0.125 1.8125q-0.5625 1.0 -2.875 0.75l0.078125 -3.484375zm8.140503 8.9375q0.609375 0 1.953125 -0.6875q0.125 0.859375 0.9375 0.6875q0.71875 -0.140625 0.15625 -1.09375q-0.375 -0.640625 -0.34375 -2.203125q0.03125 -1.96875 0.171875 -2.78125q0.15625 -0.828125 -0.625 -1.0q-0.390625 -0.09375 -0.578125 0.0625q-1.71875 -0.53125 -3.28125 0.75q-1.359375 1.109375 -1.328125 3.140625q0.015625 3.140625 2.9375 3.125zm0.75 -1.296875q-0.484375 0.171875 -1.0625 0.140625q-1.34375 -0.09375 -1.359375 -2.09375q0.0625 -1.515625 1.21875 -2.359375q0.28125 -0.21875 0.765625 -0.328125q0.6875 -0.171875 1.3125 0.21875q-0.296875 1.0625 -0.0625 3.859375q-0.578125 0.46875 -0.8125 0.5625zm4.4140015 -6.1875q-0.59375 0 -0.609375 0.609375l-0.15625 6.09375q-0.015625 0.6875 0.578125 0.703125q0.671875 0.015625 0.703125 -0.703125l0.109375 -4.265625q0.609375 -0.609375 1.34375 -0.75q0.75 -0.140625 1.34375 0.25q0.75 0.515625 1.03125 -0.328125q0.171875 -0.53125 -0.8125 -1.015625q-0.5625 -0.28125 -1.421875 -0.265625q-0.71875 0.015625 -1.4375 0.5625q0 -0.125 0 -0.234375q0 -0.65625 -0.671875 -0.65625zm7.9818726 -3.359375q-0.59375 0 -0.59375 0.609375l-0.078125 3.078125q-0.75 0.015625 -1.5 0.015625q-0.625 0 -0.625 0.65625q0 0.625 0.5625 0.625q0.765625 0 1.53125 0l-0.125 5.078125q0 0.6875 0.578125 0.703125q0.703125 0.015625 0.703125 -0.703125l0.125 -5.078125q0.6875 0 1.390625 0q0.75 0 0.75 -0.65625q0 -0.65625 -0.796875 -0.65625l-1.3125 0.015625q0.046875 -1.375 0.046875 -3.03125q0 -0.65625 -0.65625 -0.65625zm5.0613403 3.671875q-0.65625 -0.015625 -0.671875 0.84375l-0.109375 5.46875q-0.03125 0.8125 0.671875 0.828125q0.609375 0 0.625 -0.875l0.09375 -5.421875q0.015625 -0.828125 -0.609375 -0.84375zm0.046875 -2.953125q-0.21875 0 -0.40625 0.125q-0.171875 0.109375 -0.28125 0.296875q-0.09375 0.1875 -0.09375 0.390625q0 0.21875 0.109375 0.40625q0.109375 0.1875 0.28125 0.296875q0.171875 0.09375 0.375 0.109375q0.015625 0 0.03125 0q0.203125 0 0.375 -0.078125q0.15625 -0.078125 0.28125 -0.25q0.140625 -0.1875 0.15625 -0.421875q0 -0.03125 0 -0.0625q0 -0.203125 -0.09375 -0.375q-0.09375 -0.203125 -0.296875 -0.328125q-0.1875 -0.109375 -0.40625 -0.109375q-0.015625 0 -0.03125 0zm4.9074097 -0.71875q-0.59375 0 -0.59375 0.609375l-0.078125 3.078125q-0.75 0.015625 -1.5 0.015625q-0.625 0 -0.625 0.65625q0 0.625 0.5625 0.625q0.765625 0 1.53125 0l-0.125 5.078125q0 0.6875 0.578125 0.703125q0.703125 0.015625 0.703125 -0.703125l0.125 -5.078125q0.6875 0 1.390625 0q0.75 0 0.75 -0.65625q0 -0.65625 -0.796875 -0.65625l-1.3125 0.015625q0.046875 -1.375 0.046875 -3.03125q0 -0.65625 -0.65625 -0.65625zm5.0613403 3.671875q-0.65625 -0.015625 -0.671875 0.84375l-0.109375 5.46875q-0.03125 0.8125 0.671875 0.828125q0.609375 0 0.625 -0.875l0.09375 -5.421875q0.015625 -0.828125 -0.609375 -0.84375zm0.046875 -2.953125q-0.21875 0 -0.40625 0.125q-0.171875 0.109375 -0.28125 0.296875q-0.09375 0.1875 -0.09375 0.390625q0 0.21875 0.109375 0.40625q0.109375 0.1875 0.28125 0.296875q0.171875 0.09375 0.375 0.109375q0.015625 0 0.03125 0q0.203125 0 0.375 -0.078125q0.15625 -0.078125 0.28125 -0.25q0.140625 -0.1875 0.15625 -0.421875q0 -0.03125 0 -0.0625q0 -0.203125 -0.09375 -0.375q-0.09375 -0.203125 -0.296875 -0.328125q-0.1875 -0.109375 -0.40625 -0.109375q-0.015625 0 -0.03125 0zm5.4386597 4.265625q1.375 -0.03125 1.375 2.296875q-0.015625 1.21875 -0.53125 1.765625q-0.484375 0.53125 -1.1875 0.53125q-0.625 0 -1.109375 -0.53125q-0.46875 -0.5 -0.46875 -1.53125q0 -1.046875 0.640625 -1.9375q0.4375 -0.578125 1.28125 -0.59375zm-0.046875 -1.328125q-1.421875 -0.015625 -2.28125 1.125q-0.875 1.140625 -0.875 2.625q0 1.5625 0.734375 2.4375q0.796875 0.953125 1.96875 0.953125q1.59375 0.015625 2.375 -0.96875q0.703125 -0.828125 0.703125 -2.421875q0 -3.734375 -2.625 -3.75zm4.946472 -0.296875q-0.59375 0 -0.609375 0.609375l-0.15625 6.046875q-0.015625 0.703125 0.578125 0.71875q0.6875 0.015625 0.703125 -0.703125l0.109375 -3.9375q1.03125 -1.03125 1.9375 -0.96875q1.078125 0.078125 1.03125 1.875l-0.078125 3.09375q-0.015625 0.78125 0.6875 0.71875q0.609375 -0.0625 0.625 -0.84375l0.0625 -3.25q0.03125 -2.96875 -2.421875 -2.96875q-1.109375 0 -1.8125 0.640625q0 -0.1875 0.015625 -0.375q0.015625 -0.65625 -0.671875 -0.65625zm10.14679 0.015625q-0.015625 0.640625 0.59375 0.640625l1.78125 0.015625l-0.8125 2.71875l-1.3125 0q-0.875 0 -0.875 0.5q-0.03125 0.640625 0.59375 0.640625l1.265625 0l-0.390625 1.359375q-0.25 0.828125 0.21875 0.984375q0.609375 0.203125 0.78125 -0.390625l0.578125 -1.953125l3.265625 0.015625l-0.40625 1.34375q-0.234375 0.828125 0.21875 0.984375q0.625 0.203125 0.796875 -0.390625l0.5625 -1.9375q0.953125 0 1.90625 0q0.875 0 0.90625 -0.625q0.015625 -0.53125 -0.75 -0.53125l-1.703125 0l0.796875 -2.703125q0.6875 0 1.375 0q0.875 0 0.90625 -0.625q0.015625 -0.546875 -0.75 -0.546875l-1.1875 0l0.4375 -1.46875q0.25 -0.84375 -0.34375 -1.03125q-0.515625 -0.171875 -0.734375 0.5625l-0.578125 1.953125q-1.609375 0 -3.234375 0l0.4375 -1.484375q0.25 -0.84375 -0.328125 -1.03125q-0.53125 -0.171875 -0.734375 0.5625l-0.578125 1.953125q-0.90625 0 -1.8125 0q-0.875 0 -0.890625 0.484375zm2.765625 3.375l0.8125 -2.71875l3.234375 0l-0.796875 2.71875l-3.25 0zm8.716919 3.15625q-0.03125 0.890625 0.640625 0.890625l4.765625 0q0.6875 0.015625 0.6875 -0.609375q0.015625 -0.59375 -0.6875 -0.59375q-2.0625 -0.015625 -4.125 -0.015625q0.046875 -0.640625 0.78125 -1.71875q0.78125 -1.140625 2.265625 -1.8125q1.625 -0.75 1.671875 -2.765625q0.03125 -1.515625 -1.234375 -2.3125q-0.59375 -0.359375 -1.578125 -0.359375q-1.0625 0 -1.75 0.40625q-0.546875 0.3125 -1.296875 1.234375q-0.359375 0.4375 0.09375 0.796875q0.5 0.421875 1.03125 -0.1875q0.734375 -0.84375 1.203125 -1.0q0.78125 -0.265625 1.515625 0.109375q0.765625 0.390625 0.734375 1.1875q-0.03125 1.4375 -1.140625 1.96875q-1.71875 0.84375 -2.609375 2.09375q-0.921875 1.359375 -0.96875 2.6875z" fill-rule="nonzero"/><path fill="#cc0000" d="m537.06537 242.13432q-0.765625 0.515625 -1.65625 0.484375q-0.859375 -0.03125 -1.34375 -0.671875q-0.53125 -0.71875 -0.5 -1.59375q0.015625 -0.921875 0.515625 -1.640625q0.4375 -0.625 0.96875 -0.796875q0.96875 -0.296875 1.71875 0.265625q0.640625 0.46875 0.9375 0.25q0.453125 -0.328125 0.046875 -0.953125q-0.25 -0.40625 -1.046875 -0.671875q-0.640625 -0.203125 -1.40625 -0.140625q-1.328125 0.09375 -2.1875 1.34375q-0.703125 1.015625 -0.703125 2.609375q0 1.453125 0.984375 2.421875q0.8125 0.78125 2.015625 0.78125q1.53125 0 2.25 -0.609375q0.5625 -0.484375 0.34375 -0.84375q-0.375 -0.609375 -0.9375 -0.234375zm5.2993774 -4.125q1.375 -0.03125 1.375 2.296875q-0.015625 1.21875 -0.53125 1.765625q-0.484375 0.53125 -1.1875 0.53125q-0.625 0 -1.109375 -0.53125q-0.46875 -0.5 -0.46875 -1.53125q0 -1.046875 0.640625 -1.9375q0.4375 -0.578125 1.28125 -0.59375zm-0.046875 -1.328125q-1.421875 -0.015625 -2.28125 1.125q-0.875 1.140625 -0.875 2.625q0 1.5625 0.734375 2.4375q0.796875 0.953125 1.96875 0.953125q1.59375 0.015625 2.375 -0.96875q0.703125 -0.828125 0.703125 -2.421875q0 -3.734375 -2.625 -3.75zm8.915283 7.328125q0.59375 0 0.609375 -0.609375l0.15625 -6.078125q0 -0.703125 -0.578125 -0.71875q-0.6875 0 -0.71875 0.703125l-0.078125 3.28125q-0.03125 1.078125 -0.875 1.5q-0.9375 0.46875 -1.609375 0.015625q-0.5 -0.34375 -0.484375 -1.921875l0.015625 -2.84375q0.015625 -0.78125 -0.671875 -0.71875q-0.625 0.0625 -0.625 0.84375l-0.03125 3.1875q-0.03125 2.96875 2.421875 2.96875q1.109375 0 1.8125 -0.640625l0 0.375q-0.015625 0.65625 0.65625 0.65625zm3.2902222 -10.984375q-0.59375 0.015625 -0.59375 0.609375l-0.234375 9.453125q0 0.6875 0.578125 0.703125q0.703125 0.015625 0.71875 -0.703125l0.1875 -9.40625q0.015625 -0.65625 -0.65625 -0.65625zm8.21344 0q-0.578125 0.015625 -0.59375 0.609375l-0.09375 3.75q-0.25 -0.171875 -0.5625 -0.34375q-0.578125 -0.328125 -1.359375 -0.328125q-1.453125 0 -2.359375 1.109375q-0.96875 1.171875 -0.90625 2.90625q0.0625 1.28125 1.015625 2.25q0.875 0.84375 2.0 0.859375q1.09375 0 2.046875 -0.609375q0.046875 0.546875 0.578125 0.5625q0.6875 0.015625 0.703125 -0.703125l0.203125 -9.40625q0.015625 -0.65625 -0.671875 -0.65625zm-0.78125 8.734375q-1.171875 0.90625 -2.078125 0.8125q-0.875 -0.109375 -1.3125 -0.6875q-0.546875 -0.71875 -0.546875 -1.46875q0.03125 -1.15625 0.546875 -1.796875q0.359375 -0.453125 1.1875 -0.640625q1.109375 -0.28125 2.265625 0.90625q0 1.515625 -0.0625 2.875zm12.593079 -8.734375q-0.578125 0.015625 -0.59375 0.609375l-0.09375 3.75q-0.25 -0.171875 -0.5625 -0.34375q-0.578125 -0.328125 -1.359375 -0.328125q-1.453125 0 -2.359375 1.109375q-0.96875 1.171875 -0.90625 2.90625q0.0625 1.28125 1.015625 2.25q0.875 0.84375 2.0 0.859375q1.09375 0 2.046875 -0.609375q0.046875 0.546875 0.578125 0.5625q0.6875 0.015625 0.703125 -0.703125l0.203125 -9.40625q0.015625 -0.65625 -0.671875 -0.65625zm-0.78125 8.734375q-1.171875 0.90625 -2.078125 0.8125q-0.875 -0.109375 -1.3125 -0.6875q-0.546875 -0.71875 -0.546875 -1.46875q0.03125 -1.15625 0.546875 -1.796875q0.359375 -0.453125 1.1875 -0.640625q1.109375 -0.28125 2.265625 0.90625q0 1.515625 -0.0625 2.875zm3.7821045 -1.0625l4.375 -0.640625q0.6875 -0.09375 0.71875 -0.890625q0.03125 -1.0 -0.765625 -1.78125q-0.84375 -0.828125 -2.359375 -0.734375q-1.4375 0.078125 -2.34375 1.390625q-0.734375 1.046875 -0.734375 2.390625q0 1.625 1.15625 2.578125q0.9375 0.765625 2.171875 0.78125q1.703125 0.015625 2.734375 -0.90625q0.59375 -0.53125 0.296875 -1.140625q-0.140625 -0.265625 -0.453125 -0.1875q-0.28125 0.046875 -0.71875 0.546875q-0.453125 0.5 -1.78125 0.515625q-0.90625 0 -1.640625 -0.640625q-0.625 -0.546875 -0.65625 -1.28125zm0.140625 -1.078125q0.1875 -0.640625 0.46875 -1.0q0.65625 -0.796875 1.546875 -0.796875q0.640625 -0.015625 1.21875 0.34375q0.5 0.328125 0.59375 0.890625l-3.828125 0.5625zm6.942444 7.609375q0.59375 0 0.609375 -0.609375l0.078125 -3.46875q0.015625 0 0.015625 0.015625q0.4375 0.421875 1.546875 0.34375q1.265625 -0.09375 2.125 -1.15625q0.765625 -0.953125 0.765625 -2.703125q0 -1.21875 -0.84375 -2.125q-0.859375 -0.921875 -2.015625 -0.921875q-1.203125 -0.015625 -1.53125 0.234375q-0.15625 -0.375 -0.5 -0.375q-0.6875 -0.015625 -0.703125 0.6875l-0.203125 9.421875q-0.015625 0.65625 0.65625 0.65625zm0.796875 -8.984375q0.546875 -0.515625 1.4375 -0.390625q0.828125 0.109375 1.25 0.640625q0.5 0.625 0.5 1.46875q-0.015625 0.890625 -0.4375 1.515625q-0.5 0.734375 -1.46875 0.796875q-0.71875 0.046875 -1.359375 -0.65625l0.078125 -3.375zm6.5479736 2.453125l4.375 -0.640625q0.6875 -0.09375 0.71875 -0.890625q0.03125 -1.0 -0.765625 -1.78125q-0.84375 -0.828125 -2.359375 -0.734375q-1.4375 0.078125 -2.34375 1.390625q-0.734375 1.046875 -0.734375 2.390625q0 1.625 1.15625 2.578125q0.9375 0.765625 2.171875 0.78125q1.703125 0.015625 2.734375 -0.90625q0.59375 -0.53125 0.296875 -1.140625q-0.140625 -0.265625 -0.453125 -0.1875q-0.28125 0.046875 -0.71875 0.546875q-0.453125 0.5 -1.78125 0.515625q-0.90625 0 -1.640625 -0.640625q-0.625 -0.546875 -0.65625 -1.28125zm0.140625 -1.078125q0.1875 -0.640625 0.46875 -1.0q0.65625 -0.796875 1.546875 -0.796875q0.640625 -0.015625 1.21875 0.34375q0.5 0.328125 0.59375 0.890625l-3.828125 0.5625zm7.098755 -3.234375q-0.59375 0 -0.609375 0.609375l-0.15625 6.046875q-0.015625 0.703125 0.578125 0.71875q0.6875 0.015625 0.703125 -0.703125l0.109375 -3.9375q1.03125 -1.03125 1.9375 -0.96875q1.078125 0.078125 1.03125 1.875l-0.078125 3.09375q-0.015625 0.78125 0.6875 0.71875q0.609375 -0.0625 0.625 -0.84375l0.0625 -3.25q0.03125 -2.96875 -2.421875 -2.96875q-1.109375 0 -1.8125 0.640625q0 -0.1875 0.015625 -0.375q0.015625 -0.65625 -0.671875 -0.65625zm11.867065 -3.359375q-0.578125 0.015625 -0.59375 0.609375l-0.09375 3.75q-0.25 -0.171875 -0.5625 -0.34375q-0.578125 -0.328125 -1.359375 -0.328125q-1.453125 0 -2.359375 1.109375q-0.96875 1.171875 -0.90625 2.90625q0.0625 1.28125 1.015625 2.25q0.875 0.84375 2.0 0.859375q1.09375 0 2.046875 -0.609375q0.046875 0.546875 0.578125 0.5625q0.6875 0.015625 0.703125 -0.703125l0.203125 -9.40625q0.015625 -0.65625 -0.671875 -0.65625zm-0.78125 8.734375q-1.171875 0.90625 -2.078125 0.8125q-0.875 -0.109375 -1.3125 -0.6875q-0.546875 -0.71875 -0.546875 -1.46875q0.03125 -1.15625 0.546875 -1.796875q0.359375 -0.453125 1.1875 -0.640625q1.109375 -0.28125 2.265625 0.90625q0 1.515625 -0.0625 2.875zm9.811768 -3.75q1.375 -0.03125 1.375 2.296875q-0.015625 1.21875 -0.53125 1.765625q-0.484375 0.53125 -1.1875 0.53125q-0.625 0 -1.109375 -0.53125q-0.46875 -0.5 -0.46875 -1.53125q0 -1.046875 0.640625 -1.9375q0.4375 -0.578125 1.28125 -0.59375zm-0.046875 -1.328125q-1.421875 -0.015625 -2.28125 1.125q-0.875 1.140625 -0.875 2.625q0 1.5625 0.734375 2.4375q0.796875 0.953125 1.96875 0.953125q1.59375 0.015625 2.375 -0.96875q0.703125 -0.828125 0.703125 -2.421875q0 -3.734375 -2.625 -3.75zm4.946472 -0.296875q-0.59375 0 -0.609375 0.609375l-0.15625 6.046875q-0.015625 0.703125 0.578125 0.71875q0.6875 0.015625 0.703125 -0.703125l0.109375 -3.9375q1.03125 -1.03125 1.9375 -0.96875q1.078125 0.078125 1.03125 1.875l-0.078125 3.09375q-0.015625 0.78125 0.6875 0.71875q0.609375 -0.0625 0.625 -0.84375l0.0625 -3.25q0.03125 -2.96875 -2.421875 -2.96875q-1.109375 0 -1.8125 0.640625q0 -0.1875 0.015625 -0.375q0.015625 -0.65625 -0.671875 -0.65625zm7.1326904 6.125q-0.1875 0 -0.34375 0.109375q-0.15625 0.109375 -0.25 0.265625q-0.078125 0.171875 -0.078125 0.359375q0 0.203125 0.09375 0.375q0.09375 0.15625 0.234375 0.25q0.15625 0.09375 0.3125 0.109375q0.03125 0 0.046875 0q0.171875 0 0.3125 -0.078125q0.125 -0.0625 0.234375 -0.21875q0.125 -0.171875 0.140625 -0.375q0 -0.03125 0 -0.0625q0 -0.1875 -0.078125 -0.34375q-0.09375 -0.1875 -0.265625 -0.28125q-0.15625 -0.109375 -0.34375 -0.109375q-0.015625 0 -0.015625 0zm2.71875 0q-0.1875 0 -0.34375 0.109375q-0.140625 0.109375 -0.234375 0.265625q-0.09375 0.171875 -0.09375 0.359375q0 0.203125 0.09375 0.375q0.09375 0.15625 0.25 0.25q0.140625 0.09375 0.3125 0.109375q0.015625 0 0.03125 0q0.171875 0 0.3125 -0.078125q0.125 -0.0625 0.234375 -0.21875q0.125 -0.171875 0.15625 -0.375q0 -0.03125 0 -0.0625q0 -0.1875 -0.078125 -0.34375q-0.09375 -0.1875 -0.265625 -0.28125q-0.15625 -0.109375 -0.359375 -0.109375q0 0 -0.015625 0zm2.90625 0q-0.1875 0 -0.34375 0.109375q-0.140625 0.109375 -0.25 0.265625q-0.078125 0.171875 -0.078125 0.359375q0 0.203125 0.09375 0.375q0.09375 0.15625 0.25 0.25q0.140625 0.09375 0.3125 0.109375q0.015625 0 0.03125 0q0.171875 0 0.3125 -0.078125q0.125 -0.0625 0.234375 -0.21875q0.125 -0.171875 0.140625 -0.375q0 -0.03125 0 -0.0625q0 -0.1875 -0.078125 -0.34375q-0.078125 -0.1875 -0.25 -0.28125q-0.171875 -0.109375 -0.359375 -0.109375q-0.015625 0 -0.015625 0z" fill-rule="nonzero"/><path fill="#cc0000" d="m540.4091 257.3531l-6.4375 -7.4375153q-0.171875 -0.1875 -0.515625 -0.1875q-0.59375 0.015625 -0.609375 0.578125l-0.21875 8.812515q-0.015625 0.65625 0.578125 0.65625q0.6875 0.015625 0.703125 -0.640625l0.15625 -7.0781403l6.40625 7.2968903q0.1875 0.21875 0.46875 0.234375q0.703125 0.015625 0.71875 -0.65625l0.203125 -8.79689q0.015625 -0.609375 -0.65625 -0.609375q-0.59375 0.015625 -0.609375 0.578125l-0.1875 7.2500153zm3.6833496 -0.65625l4.375 -0.640625q0.6875 -0.09376526 0.71875 -0.89064026q0.03125 -1.0 -0.765625 -1.78125q-0.84375 -0.828125 -2.359375 -0.734375q-1.4375 0.078125 -2.34375 1.390625q-0.734375 1.046875 -0.734375 2.3906403q0 1.625 1.15625 2.578125q0.9375 0.765625 2.171875 0.78125q1.703125 0.015625 2.734375 -0.90625q0.59375 -0.53125 0.296875 -1.140625q-0.140625 -0.265625 -0.453125 -0.1875q-0.28125 0.046875 -0.71875 0.546875q-0.453125 0.5 -1.78125 0.515625q-0.90625 0 -1.640625 -0.640625q-0.625 -0.546875 -0.65625 -1.28125zm0.140625 -1.0781403q0.1875 -0.640625 0.46875 -1.0q0.65625 -0.796875 1.546875 -0.796875q0.640625 -0.015625 1.21875 0.34375q0.5 0.328125 0.59375 0.890625l-3.828125 0.5625zm6.254944 -2.796875q-0.53125 0.421875 0.015625 1.015625l2.265625 2.4843903l-2.09375 2.234375q-0.640625 0.6875 -0.125 1.125q0.453125 0.40625 1.078125 -0.28125l1.9375 -2.15625l1.921875 2.15625q0.625 0.6875 1.078125 0.28125q0.515625 -0.4375 -0.125 -1.125l-2.0625 -2.25l2.234375 -2.4687653q0.546875 -0.59375 0.015625 -1.015625q-0.484375 -0.390625 -1.078125 0.28125l-1.984375 2.296875l-2.0 -2.296875q-0.578125 -0.671875 -1.078125 -0.28125zm10.289917 -3.796875q-0.59375 0 -0.59375 0.609375l-0.078125 3.078125q-0.75 0.015625 -1.5 0.015625q-0.625 0 -0.625 0.65625q0 0.625 0.5625 0.625q0.765625 0 1.53125 0l-0.125 5.0781403q0 0.6875 0.578125 0.703125q0.703125 0.015625 0.703125 -0.703125l0.125 -5.0781403q0.6875 0 1.390625 0q0.75 0 0.75 -0.65625q0 -0.65625 -0.796875 -0.65625l-1.3125 0.015625q0.046875 -1.375 0.046875 -3.03125q0 -0.65625 -0.65625 -0.65625zm7.8410645 3.671875q-0.5625 0.234375 -0.25 1.0625l2.046875 5.3281403q0.28125 0.71875 0.796875 0.71875q0.484375 0 0.765625 -0.71875l2.046875 -5.3281403q0.3125 -0.828125 -0.234375 -1.0625q-0.65625 -0.265625 -0.953125 0.5625l-1.640625 4.5625153l-1.640625 -4.5625153q-0.296875 -0.828125 -0.9375 -0.5625zm8.981812 7.1718903q0.609375 0 1.953125 -0.6875q0.125 0.859375 0.9375 0.6875q0.71875 -0.140625 0.15625 -1.09375q-0.375 -0.640625 -0.34375 -2.203125q0.03125 -1.9687653 0.171875 -2.7812653q0.15625 -0.828125 -0.625 -1.0q-0.390625 -0.09375 -0.578125 0.0625q-1.71875 -0.53125 -3.28125 0.75q-1.359375 1.109375 -1.328125 3.1406403q0.015625 3.140625 2.9375 3.125zm0.75 -1.296875q-0.484375 0.171875 -1.0625 0.140625q-1.34375 -0.09375 -1.359375 -2.09375q0.0625 -1.5156403 1.21875 -2.3593903q0.28125 -0.21875 0.765625 -0.328125q0.6875 -0.171875 1.3125 0.21875q-0.296875 1.0625 -0.0625 3.8593903q-0.578125 0.46875 -0.8125 0.5625zm4.7421265 -9.54689q-0.59375 0.015625 -0.59375 0.609375l-0.234375 9.45314q0 0.6875 0.578125 0.703125q0.703125 0.015625 0.71875 -0.703125l0.1875 -9.406265q0.015625 -0.65625 -0.65625 -0.65625zm7.291565 10.98439q0.59375 0 0.609375 -0.609375l0.15625 -6.0781403q0 -0.703125 -0.578125 -0.71875q-0.6875 0 -0.71875 0.703125l-0.078125 3.2812653q-0.03125 1.078125 -0.875 1.5q-0.9375 0.46875 -1.609375 0.015625q-0.5 -0.34375 -0.484375 -1.921875l0.015625 -2.8437653q0.015625 -0.78125 -0.671875 -0.71875q-0.625 0.0625 -0.625 0.84375l-0.03125 3.1875153q-0.03125 2.96875 2.421875 2.96875q1.109375 0 1.8125 -0.640625l0 0.375q-0.015625 0.65625 0.65625 0.65625zm3.0246582 -3.3125l4.375 -0.640625q0.6875 -0.09376526 0.71875 -0.89064026q0.03125 -1.0 -0.765625 -1.78125q-0.84375 -0.828125 -2.359375 -0.734375q-1.4375 0.078125 -2.34375 1.390625q-0.734375 1.046875 -0.734375 2.3906403q0 1.625 1.15625 2.578125q0.9375 0.765625 2.171875 0.78125q1.703125 0.015625 2.734375 -0.90625q0.59375 -0.53125 0.296875 -1.140625q-0.140625 -0.265625 -0.453125 -0.1875q-0.28125 0.046875 -0.71875 0.546875q-0.453125 0.5 -1.78125 0.515625q-0.90625 0 -1.640625 -0.640625q-0.625 -0.546875 -0.65625 -1.28125zm0.140625 -1.0781403q0.1875 -0.640625 0.46875 -1.0q0.65625 -0.796875 1.546875 -0.796875q0.640625 -0.015625 1.21875 0.34375q0.5 0.328125 0.59375 0.890625l-3.828125 0.5625zm8.020569 2.9531403q-0.59375 -0.03125 -1.171875 -0.421875q-0.46875 -0.328125 -0.828125 -0.078125q-0.296875 0.1875 -0.28125 0.625q0.03125 0.390625 0.484375 0.640625q0.515625 0.296875 0.859375 0.390625q0.578125 0.171875 1.484375 0.15625q1.078125 0 1.734375 -0.4375q0.8125 -0.546875 0.90625 -1.375q0.109375 -0.828125 -0.546875 -1.625q-0.28125 -0.328125 -1.0 -0.67189026q-0.53125 -0.234375 -1.140625 -0.3125q-0.796875 -0.078125 -0.90625 -0.4375q-0.140625 -0.390625 0.1875 -0.765625q0.375 -0.4375 1.15625 -0.484375q0.734375 -0.03125 1.109375 0.34375q0.765625 0.71875 1.140625 0.421875q0.296875 -0.25 0.234375 -0.640625q-0.09375 -0.59375 -1.015625 -1.046875q-0.71875 -0.34375 -1.671875 -0.265625q-0.84375 0.078125 -1.484375 0.546875q-0.546875 0.390625 -0.828125 1.140625q-0.265625 0.671875 -0.109375 1.328125q0.203125 0.82814026 1.53125 1.0312653q1.296875 0.171875 1.65625 0.5625q0.546875 0.59375 0.28125 1.0q-0.3125 0.46875 -1.78125 0.375zm9.252441 -5.8593903q-0.765625 0 -0.765625 0.328125q0 0.3125 -0.015625 0.640625q0 0.3125 0.703125 0.3125l1.0625 0l-0.078125 5.1562653q-0.015625 0.6875 0.578125 0.703125q0.703125 0.015625 0.703125 -0.6875l0.0625 -5.1718903l1.609375 0q0.859375 0 0.8125 -0.703125q-0.03125 -0.578125 -0.890625 -0.578125l-1.5 0q0 -0.828125 0.171875 -1.4375q0.296875 -1.046875 1.515625 -0.9375q0.78125 0.078125 0.890625 -0.546875q0.125 -0.734375 -1.265625 -0.6875q-1.40625 0.046875 -1.90625 0.765625q-0.640625 0.90625 -0.671875 2.84375l-1.015625 0zm7.071533 -0.328125q-0.59375 0 -0.609375 0.609375l-0.15625 6.0937653q-0.015625 0.6875 0.578125 0.703125q0.671875 0.015625 0.703125 -0.703125l0.109375 -4.2656403q0.609375 -0.609375 1.34375 -0.75q0.75 -0.140625 1.34375 0.25q0.75 0.515625 1.03125 -0.328125q0.171875 -0.53125 -0.8125 -1.015625q-0.5625 -0.28125 -1.421875 -0.265625q-0.71875 0.015625 -1.4375 0.5625q0 -0.125 0 -0.234375q0 -0.65625 -0.671875 -0.65625zm8.513123 1.625q1.375 -0.03125 1.375 2.2968903q-0.015625 1.21875 -0.53125 1.765625q-0.484375 0.53125 -1.1875 0.53125q-0.625 0 -1.109375 -0.53125q-0.46875 -0.5 -0.46875 -1.53125q0 -1.0468903 0.640625 -1.9375153q0.4375 -0.578125 1.28125 -0.59375zm-0.046875 -1.328125q-1.421875 -0.015625 -2.28125 1.125q-0.875 1.140625 -0.875 2.6250153q0 1.5625 0.734375 2.4375q0.796875 0.953125 1.96875 0.953125q1.59375 0.015625 2.375 -0.96875q0.703125 -0.828125 0.703125 -2.421875q0 -3.7343903 -2.625 -3.7500153zm4.837158 -0.296875q-0.609375 0 -0.625 0.609375l-0.140625 6.0312653q-0.015625 0.703125 0.5625 0.71875q0.671875 0 0.703125 -0.703125l0.109375 -3.5937653q0.34375 -1.359375 1.46875 -1.3125q1.0 0.03125 0.96875 1.8750153l-0.0625 3.0q-0.015625 0.765625 0.640625 0.71875q0.609375 -0.0625 0.625 -0.84375l0.078125 -3.2656403q0.015625 -0.375 0.03125 -0.390625q0.4375 -1.125 1.625 -1.09375q1.03125 0.03125 1.0 1.9531403l-0.046875 3.0q0 0.796875 0.703125 0.734375q0.609375 -0.0625 0.625 -0.84375l0.046875 -3.2343903q0.046875 -2.96875 -2.421875 -2.96875q-1.328125 0 -2.0 0.953125q-0.46875 -0.96875 -1.828125 -0.953125q-0.828125 0 -1.40625 0.53125l0 -0.265625q0.015625 -0.65625 -0.65625 -0.65625zm14.258728 -2.75q-0.59375 0 -0.609375 0.5625l-0.21875 8.92189q-0.015625 0.65625 0.578125 0.671875q0.703125 0.015625 0.71875 -0.65625l0.078125 -3.4843903q0.15625 0.015625 0.359375 0q2.71875 -0.140625 3.421875 -1.015625q1.1875 -1.484375 0.546875 -3.140625q-0.625 -1.640625 -2.90625 -1.859375q-0.671875 -0.0625 -1.703125 0.015625q-0.109375 -0.015625 -0.265625 -0.015625zm0.640625 1.296875q0.53125 -0.046875 0.921875 -0.0625q1.46875 -0.015625 2.0 0.984375q0.4375 0.84375 -0.125 1.8125q-0.5625 1.0 -2.875 0.75l0.078125 -3.484375zm8.140503 8.937515q0.609375 0 1.953125 -0.6875q0.125 0.859375 0.9375 0.6875q0.71875 -0.140625 0.15625 -1.09375q-0.375 -0.640625 -0.34375 -2.203125q0.03125 -1.9687653 0.171875 -2.7812653q0.15625 -0.828125 -0.625 -1.0q-0.390625 -0.09375 -0.578125 0.0625q-1.71875 -0.53125 -3.28125 0.75q-1.359375 1.109375 -1.328125 3.1406403q0.015625 3.140625 2.9375 3.125zm0.75 -1.296875q-0.484375 0.171875 -1.0625 0.140625q-1.34375 -0.09375 -1.359375 -2.09375q0.0625 -1.5156403 1.21875 -2.3593903q0.28125 -0.21875 0.765625 -0.328125q0.6875 -0.171875 1.3125 0.21875q-0.296875 1.0625 -0.0625 3.8593903q-0.578125 0.46875 -0.8125 0.5625zm4.4140015 -6.1875153q-0.59375 0 -0.609375 0.609375l-0.15625 6.0937653q-0.015625 0.6875 0.578125 0.703125q0.671875 0.015625 0.703125 -0.703125l0.109375 -4.2656403q0.609375 -0.609375 1.34375 -0.75q0.75 -0.140625 1.34375 0.25q0.75 0.515625 1.03125 -0.328125q0.171875 -0.53125 -0.8125 -1.015625q-0.5625 -0.28125 -1.421875 -0.265625q-0.71875 0.015625 -1.4375 0.5625q0 -0.125 0 -0.234375q0 -0.65625 -0.671875 -0.65625zm7.9818726 -3.359375q-0.59375 0 -0.59375 0.609375l-0.078125 3.078125q-0.75 0.015625 -1.5 0.015625q-0.625 0 -0.625 0.65625q0 0.625 0.5625 0.625q0.765625 0 1.53125 0l-0.125 5.0781403q0 0.6875 0.578125 0.703125q0.703125 0.015625 0.703125 -0.703125l0.125 -5.0781403q0.6875 0 1.390625 0q0.75 0 0.75 -0.65625q0 -0.65625 -0.796875 -0.65625l-1.3125 0.015625q0.046875 -1.375 0.046875 -3.03125q0 -0.65625 -0.65625 -0.65625zm5.0613403 3.671875q-0.65625 -0.015625 -0.671875 0.84375l-0.109375 5.4687653q-0.03125 0.8125 0.671875 0.828125q0.609375 0 0.625 -0.875l0.09375 -5.4218903q0.015625 -0.828125 -0.609375 -0.84375zm0.046875 -2.953125q-0.21875 0 -0.40625 0.125q-0.171875 0.109375 -0.28125 0.296875q-0.09375 0.1875 -0.09375 0.390625q0 0.21875 0.109375 0.40625q0.109375 0.1875 0.28125 0.296875q0.171875 0.09375 0.375 0.109375q0.015625 0 0.03125 0q0.203125 0 0.375 -0.078125q0.15625 -0.078125 0.28125 -0.25q0.140625 -0.1875 0.15625 -0.421875q0 -0.03125 0 -0.0625q0 -0.203125 -0.09375 -0.375q-0.09375 -0.203125 -0.296875 -0.328125q-0.1875 -0.109375 -0.40625 -0.109375q-0.015625 0 -0.03125 0zm4.9074097 -0.71875q-0.59375 0 -0.59375 0.609375l-0.078125 3.078125q-0.75 0.015625 -1.5 0.015625q-0.625 0 -0.625 0.65625q0 0.625 0.5625 0.625q0.765625 0 1.53125 0l-0.125 5.0781403q0 0.6875 0.578125 0.703125q0.703125 0.015625 0.703125 -0.703125l0.125 -5.0781403q0.6875 0 1.390625 0q0.75 0 0.75 -0.65625q0 -0.65625 -0.796875 -0.65625l-1.3125 0.015625q0.046875 -1.375 0.046875 -3.03125q0 -0.65625 -0.65625 -0.65625zm5.0613403 3.671875q-0.65625 -0.015625 -0.671875 0.84375l-0.109375 5.4687653q-0.03125 0.8125 0.671875 0.828125q0.609375 0 0.625 -0.875l0.09375 -5.4218903q0.015625 -0.828125 -0.609375 -0.84375zm0.046875 -2.953125q-0.21875 0 -0.40625 0.125q-0.171875 0.109375 -0.28125 0.296875q-0.09375 0.1875 -0.09375 0.390625q0 0.21875 0.109375 0.40625q0.109375 0.1875 0.28125 0.296875q0.171875 0.09375 0.375 0.109375q0.015625 0 0.03125 0q0.203125 0 0.375 -0.078125q0.15625 -0.078125 0.28125 -0.25q0.140625 -0.1875 0.15625 -0.421875q0 -0.03125 0 -0.0625q0 -0.203125 -0.09375 -0.375q-0.09375 -0.203125 -0.296875 -0.328125q-0.1875 -0.109375 -0.40625 -0.109375q-0.015625 0 -0.03125 0zm5.4386597 4.265625q1.375 -0.03125 1.375 2.2968903q-0.015625 1.21875 -0.53125 1.765625q-0.484375 0.53125 -1.1875 0.53125q-0.625 0 -1.109375 -0.53125q-0.46875 -0.5 -0.46875 -1.53125q0 -1.0468903 0.640625 -1.9375153q0.4375 -0.578125 1.28125 -0.59375zm-0.046875 -1.328125q-1.421875 -0.015625 -2.28125 1.125q-0.875 1.140625 -0.875 2.6250153q0 1.5625 0.734375 2.4375q0.796875 0.953125 1.96875 0.953125q1.59375 0.015625 2.375 -0.96875q0.703125 -0.828125 0.703125 -2.421875q0 -3.7343903 -2.625 -3.7500153zm4.946472 -0.296875q-0.59375 0 -0.609375 0.609375l-0.15625 6.0468903q-0.015625 0.703125 0.578125 0.71875q0.6875 0.015625 0.703125 -0.703125l0.109375 -3.9375153q1.03125 -1.03125 1.9375 -0.96875q1.078125 0.078125 1.03125 1.8750153l-0.078125 3.09375q-0.015625 0.78125 0.6875 0.71875q0.609375 -0.0625 0.625 -0.84375l0.0625 -3.2500153q0.03125 -2.96875 -2.421875 -2.96875q-1.109375 0 -1.8125 0.640625q0 -0.1875 0.015625 -0.375q0.015625 -0.65625 -0.671875 -0.65625zm10.14679 0.015625q-0.015625 0.640625 0.59375 0.640625l1.78125 0.015625l-0.8125 2.71875l-1.3125 0q-0.875 0 -0.875 0.50001526q-0.03125 0.640625 0.59375 0.640625l1.265625 0l-0.390625 1.359375q-0.25 0.828125 0.21875 0.984375q0.609375 0.203125 0.78125 -0.390625l0.578125 -1.953125l3.265625 0.015625l-0.40625 1.34375q-0.234375 0.828125 0.21875 0.984375q0.625 0.203125 0.796875 -0.390625l0.5625 -1.9375q0.953125 0 1.90625 0q0.875 0 0.90625 -0.625q0.015625 -0.53126526 -0.75 -0.53126526l-1.703125 0l0.796875 -2.703125q0.6875 0 1.375 0q0.875 0 0.90625 -0.625q0.015625 -0.546875 -0.75 -0.546875l-1.1875 0l0.4375 -1.46875q0.25 -0.84375 -0.34375 -1.03125q-0.515625 -0.171875 -0.734375 0.5625l-0.578125 1.953125q-1.609375 0 -3.234375 0l0.4375 -1.484375q0.25 -0.84375 -0.328125 -1.03125q-0.53125 -0.171875 -0.734375 0.5625l-0.578125 1.953125q-0.90625 0 -1.8125 0q-0.875 0 -0.890625 0.484375zm2.765625 3.375l0.8125 -2.71875l3.234375 0l-0.796875 2.71875l-3.25 0zm11.576294 -5.421875q0 -0.578125 -0.359375 -0.65625q-0.4375 -0.109375 -0.96875 0.390625l-1.296875 1.21875q-0.453125 0.4375 -0.125 0.890625q0.421875 0.578125 1.046875 -0.015625l0.484375 -0.46875l-0.015625 6.9062653q-0.484375 0 -0.96875 0q-0.640625 0 -0.65625 0.65625q0 0.546875 0.59375 0.546875l2.953125 0q0.65625 0 0.65625 -0.578125q0 -0.609375 -0.671875 -0.609375q-0.359375 0 -0.71875 0q0.046875 -8.281265 0.046875 -8.281265z" fill-rule="nonzero"/><path fill="#000000" fill-opacity="0.0" d="m545.9921 155.68767l0 0c0 -17.847061 14.4678955 -32.314964 32.31494 -32.314964l0 0c8.570496 0 16.789917 3.404602 22.850159 9.464836c6.0602417 6.0602264 9.464844 14.279663 9.464844 22.850128l0 0c0 17.847061 -14.4678955 32.314957 -32.315002 32.314957l0 0c-17.847046 0 -32.31494 -14.4678955 -32.31494 -32.314957z" fill-rule="evenodd"/><path stroke="#cc0000" stroke-width="3.0" stroke-linejoin="round" stroke-linecap="butt" d="m545.9921 155.68767l0 0c0 -17.847061 14.4678955 -32.314964 32.31494 -32.314964l0 0c8.570496 0 16.789917 3.404602 22.850159 9.464836c6.0602417 6.0602264 9.464844 14.279663 9.464844 22.850128l0 0c0 17.847061 -14.4678955 32.314957 -32.315002 32.314957l0 0c-17.847046 0 -32.31494 -14.4678955 -32.31494 -32.314957z" fill-rule="evenodd"/><path fill="#cc0000" d="m568.9477 153.01642q-0.03125 0.765625 0.703125 0.765625l2.140625 0.015625l-0.96875 3.265625l-1.578125 0q-1.046875 0 -1.0625 0.59375q-0.015625 0.765625 0.71875 0.765625l1.53125 0l-0.484375 1.640625q-0.28125 1.0 0.265625 1.171875q0.734375 0.25 0.953125 -0.453125l0.6875 -2.34375l3.90625 0l-0.46875 1.625q-0.296875 1.0 0.265625 1.171875q0.734375 0.25 0.9375 -0.453125l0.6875 -2.34375q1.140625 0.015625 2.28125 0.015625q1.046875 0 1.078125 -0.75q0.03125 -0.65625 -0.890625 -0.65625l-2.046875 0l0.953125 -3.234375q0.828125 0 1.65625 0q1.0625 0 1.09375 -0.75q0.015625 -0.65625 -0.90625 -0.65625l-1.421875 0l0.515625 -1.75q0.296875 -1.015625 -0.40625 -1.25q-0.625 -0.21875 -0.875 0.671875l-0.6875 2.34375q-1.9375 0 -3.890625 0l0.53125 -1.765625q0.296875 -1.015625 -0.40625 -1.25q-0.625 -0.21875 -0.890625 0.671875l-0.6875 2.34375q-1.078125 0 -2.171875 0q-1.046875 0 -1.0625 0.59375zm3.3125 4.046875l0.96875 -3.265625l3.890625 0l-0.953125 3.265625l-3.90625 0zm13.890625 -6.5q0.015625 -0.703125 -0.421875 -0.796875q-0.53125 -0.125 -1.15625 0.46875l-1.5625 1.453125q-0.546875 0.53125 -0.140625 1.078125q0.5 0.6875 1.25 -0.03125l0.578125 -0.546875l-0.015625 8.296875q-0.59375 0 -1.171875 0q-0.765625 0 -0.78125 0.78125q0 0.65625 0.703125 0.65625l3.546875 0q0.78125 0 0.78125 -0.703125q0 -0.734375 -0.796875 -0.734375q-0.421875 0 -0.859375 0q0.046875 -9.921875 0.046875 -9.921875z" fill-rule="nonzero"/><path fill="#000000" fill-opacity="0.0" d="m635.5932 155.68767l0 0c0 -17.847061 14.4678955 -32.314964 32.31494 -32.314964l0 0c8.570435 0 16.789917 3.404602 22.850098 9.464836c6.0602417 6.0602264 9.464844 14.279663 9.464844 22.850128l0 0c0 17.847061 -14.4678955 32.314957 -32.31494 32.314957l0 0c-17.847046 0 -32.31494 -14.4678955 -32.31494 -32.314957z" fill-rule="evenodd"/><path stroke="#cc0000" stroke-width="3.0" stroke-linejoin="round" stroke-linecap="butt" d="m635.5932 155.68767l0 0c0 -17.847061 14.4678955 -32.314964 32.31494 -32.314964l0 0c8.570435 0 16.789917 3.404602 22.850098 9.464836c6.0602417 6.0602264 9.464844 14.279663 9.464844 22.850128l0 0c0 17.847061 -14.4678955 32.314957 -32.31494 32.314957l0 0c-17.847046 0 -32.31494 -14.4678955 -32.31494 -32.314957z" fill-rule="evenodd"/><path fill="#cc0000" d="m657.2675 153.01642q-0.03125 0.765625 0.703125 0.765625l2.140625 0.015625l-0.96875 3.265625l-1.578125 0q-1.046875 0 -1.0625 0.59375q-0.015625 0.765625 0.71875 0.765625l1.53125 0l-0.484375 1.640625q-0.28125 1.0 0.265625 1.171875q0.734375 0.25 0.953125 -0.453125l0.6875 -2.34375l3.90625 0l-0.46875 1.625q-0.296875 1.0 0.265625 1.171875q0.734375 0.25 0.9375 -0.453125l0.6875 -2.34375q1.140625 0.015625 2.28125 0.015625q1.046875 0 1.078125 -0.75q0.03125 -0.65625 -0.890625 -0.65625l-2.046875 0l0.953125 -3.234375q0.828125 0 1.65625 0q1.0625 0 1.09375 -0.75q0.015625 -0.65625 -0.90625 -0.65625l-1.421875 0l0.515625 -1.75q0.296875 -1.015625 -0.40625 -1.25q-0.625 -0.21875 -0.875 0.671875l-0.6875 2.34375q-1.9375 0 -3.890625 0l0.53125 -1.765625q0.296875 -1.015625 -0.40625 -1.25q-0.625 -0.21875 -0.890625 0.671875l-0.6875 2.34375q-1.078125 0 -2.171875 0q-1.046875 0 -1.0625 0.59375zm3.3125 4.046875l0.96875 -3.265625l3.890625 0l-0.953125 3.265625l-3.90625 0zm10.46875 3.78125q-0.03125 1.09375 0.765625 1.09375l5.734375 0q0.8125 0 0.8125 -0.75q0.015625 -0.71875 -0.828125 -0.71875q-2.46875 -0.015625 -4.953125 -0.015625q0.0625 -0.765625 0.953125 -2.0625q0.9375 -1.359375 2.71875 -2.171875q1.953125 -0.890625 2.0 -3.328125q0.046875 -1.8125 -1.484375 -2.765625q-0.703125 -0.4375 -1.90625 -0.4375q-1.265625 0 -2.09375 0.484375q-0.640625 0.375 -1.546875 1.484375q-0.4375 0.53125 0.109375 0.96875q0.59375 0.5 1.234375 -0.234375q0.875 -1.015625 1.4375 -1.203125q0.953125 -0.3125 1.828125 0.140625q0.90625 0.453125 0.890625 1.421875q-0.046875 1.71875 -1.390625 2.359375q-2.0625 1.0 -3.109375 2.515625q-1.125 1.640625 -1.171875 3.21875z" fill-rule="nonzero"/><path fill="#000000" fill-opacity="0.0" d="m610.6221 155.68767l24.97638 0" fill-rule="evenodd"/><path stroke="#cc0000" stroke-width="2.0" stroke-linejoin="round" stroke-linecap="butt" d="m610.6221 155.68767l18.122192 0" fill-rule="evenodd"/><path fill="#cc0000" stroke="#cc0000" stroke-width="2.0" stroke-linecap="butt" d="m628.74426 155.68767l-2.2492065 2.2491608l6.1795654 -2.2491608l-6.1795654 -2.249176z" fill-rule="evenodd"/><path fill="#000000" fill-opacity="0.0" d="m509.52493 86.13911c24.75589 0 12.194855 59.682274 -9.94751 70.2497c-39.08548 18.65355 -90.8725 -2.196579 -129.95801 16.456985c-19.677124 9.3909 -31.239044 38.033295 -25.196838 58.224487c2.0966492 7.006378 13.973755 5.9284973 21.217834 8.227249" fill-rule="evenodd"/><path stroke="#cc0000" stroke-width="3.0" stroke-linejoin="round" stroke-linecap="butt" d="m509.52493 86.13911c24.75589 0 12.194855 59.682274 -9.94751 70.24969c-39.08551 18.653564 -90.8725 -2.1965637 -129.95801 16.456985c-19.677124 9.390915 -31.239044 38.033295 -25.196838 58.224518c1.0483093 3.503189 4.541748 4.985306 8.67865 5.8789673c0.51708984 0.11172485 1.0442505 0.21421814 1.5779419 0.3103485c0.26687622 0.048065186 0.5353699 0.09451294 0.8049927 0.13972473l0.050201416 0.008178711" fill-rule="evenodd"/><path fill="#cc0000" stroke="#cc0000" stroke-width="3.0" stroke-linecap="butt" d="m355.53436 237.40752l-3.936432 2.6960602l9.731537 -1.6122742l-8.49115 -5.0202484z" fill-rule="evenodd"/><path fill="#000000" fill-opacity="0.0" d="m176.09448 82.91076c24.75589 0 12.194824 59.682274 -9.9474945 70.2497c-39.085495 18.65355 -90.87252 -2.196579 -129.95801 16.456985c-19.67713 9.3909 -31.239052 38.033295 -25.19685 58.224487c2.096653 7.006378 13.97376 5.9284973 21.217846 8.227249" fill-rule="evenodd"/><path stroke="#cc0000" stroke-width="3.0" stroke-linejoin="round" stroke-linecap="butt" d="m176.09448 82.91076c24.75589 0 12.194824 59.682274 -9.9474945 70.24969c-39.085503 18.653564 -90.87252 -2.1965485 -129.95801 16.457c-19.67713 9.3909 -31.239052 38.033295 -25.19685 58.224503c1.0483265 3.503189 4.541767 4.985321 8.6786375 5.8789673c0.517107 0.11172485 1.0442696 0.21421814 1.5779667 0.3103485c0.26684952 0.048065186 0.5353317 0.09451294 0.805006 0.13972473l0.05019188 0.008178711" fill-rule="evenodd"/><path fill="#cc0000" stroke="#cc0000" stroke-width="3.0" stroke-linecap="butt" d="m22.10393 234.17917l-3.9364548 2.6960602l9.731535 -1.6122742l-8.491135 -5.020233z" fill-rule="evenodd"/></g></svg>