<svg version="1.1" viewBox="0.0 0.0 483.3517060367454 318.6089238845144" fill="none" stroke="none" stroke-linecap="square" stroke-miterlimit="10" xmlns:xlink="http://www.w3.org/1999/xlink" xmlns="http://www.w3.org/2000/svg"><clipPath id="p.0"><path d="m0 0l483.3517 0l0 318.60892l-483.3517 0l0 -318.60892z" clip-rule="nonzero"/></clipPath><g clip-path="url(#p.0)"><path fill="#ffffff" d="m0 0l483.3517 0l0 318.60892l-483.3517 0z" fill-rule="evenodd"/><path fill="#000000" fill-opacity="0.0" d="m25.152231 67.68304l0 0c0 -6.526291 5.2906055 -11.816895 11.816896 -11.816895l416.83865 0c3.1340332 0 6.1397095 1.2449913 8.355804 3.46109c2.216095 2.216095 3.46109 5.2217712 3.46109 8.355804l0 225.0906c0 6.526306 -5.2905884 11.816895 -11.816895 11.816895l-416.83865 0c-6.526291 0 -11.816896 -5.2905884 -11.816896 -11.816895z" fill-rule="evenodd"/><path stroke="#000000" stroke-width="3.0" stroke-linejoin="round" stroke-linecap="butt" d="m25.152231 67.68304l0 0c0 -6.526291 5.2906055 -11.816895 11.816896 -11.816895l416.83865 0c3.1340332 0 6.1397095 1.2449913 8.355804 3.46109c2.216095 2.216095 3.46109 5.2217712 3.46109 8.355804l0 225.0906c0 6.526306 -5.2905884 11.816895 -11.816895 11.816895l-416.83865 0c-6.526291 0 -11.816896 -5.2905884 -11.816896 -11.816895z" fill-rule="evenodd"/><path fill="#000000" fill-opacity="0.0" d="m49.220474 92.04743l0 0c0 -5.1054764 4.1388016 -9.244286 9.244278 -9.244286l307.02325 0c2.4517212 0 4.8030396 0.97395325 6.536682 2.7075882c1.7336426 1.7336426 2.7075806 4.084961 2.7075806 6.5366974l0 36.976006c0 5.1054688 -4.138794 9.244278 -9.244263 9.244278l-307.02325 0c-5.1054764 0 -9.244278 -4.138809 -9.244278 -9.244278z" fill-rule="evenodd"/><path stroke="#3c78d8" stroke-width="3.0" stroke-linejoin="round" stroke-linecap="butt" d="m49.220474 92.04743l0 0c0 -5.1054764 4.1388016 -9.244286 9.244278 -9.244286l307.02325 0c2.4517212 0 4.8030396 0.97395325 6.536682 2.7075882c1.7336426 1.7336426 2.7075806 4.084961 2.7075806 6.5366974l0 36.976006c0 5.1054688 -4.138794 9.244278 -9.244263 9.244278l-307.02325 0c-5.1054764 0 -9.244278 -4.138809 -9.244278 -9.244278z" fill-rule="evenodd"/><path fill="#3c78d8" d="m81.9047 105.12481q-0.9375 1.5625 -0.53125 3.203125q0.71875 2.921875 4.59375 2.859375q3.984375 -0.0625 4.40625 1.453125q0.390625 1.453125 -1.0 2.796875q-0.703125 0.6875 -2.703125 1.03125q-1.125 0.203125 -2.484375 -0.109375q-1.0 -0.234375 -1.6875 -0.859375q-0.875 -0.78125 -1.46875 -0.609375q-0.53125 0.15625 -0.625 0.84375q-0.09375 0.625 0.75 1.359375q0.578125 0.515625 1.40625 0.859375q1.25 0.515625 3.125 0.515625q2.53125 -0.015625 4.234375 -1.0q2.578125 -1.5 2.71875 -4.078125q0.09375 -1.671875 -1.21875 -3.03125q-1.03125 -1.078125 -3.265625 -1.140625q-2.515625 -0.09375 -3.15625 -0.1875q-1.671875 -0.234375 -1.5 -2.109375q0.09375 -0.9375 1.09375 -1.71875q0.9375 -0.71875 2.65625 -0.828125q1.125 -0.0625 2.578125 0.5q1.015625 0.390625 1.40625 0.203125q0.59375 -0.28125 0.5625 -0.8125q-0.03125 -0.65625 -1.5625 -1.3125q-1.078125 -0.46875 -2.609375 -0.53125q-1.734375 -0.0625 -3.234375 0.65625q-1.796875 0.875 -2.484375 2.046875zm16.86618 -3.875q-0.9375 0 -0.953125 0.96875l-0.125 4.921875q-1.203125 0.015625 -2.40625 0.015625q-0.984375 0 -0.984375 1.046875q0 1.015625 0.890625 1.015625q1.21875 0 2.453125 0l-0.1875 8.109375q-0.015625 1.109375 0.921875 1.140625q1.125 0.015625 1.125 -1.125l0.1875 -8.125q1.109375 0 2.21875 0q1.21875 0 1.21875 -1.0625q0 -1.046875 -1.28125 -1.03125l-2.109375 0.015625q0.078125 -2.203125 0.09375 -4.859375q0 -1.03125 -1.0625 -1.03125zm10.174637 17.34375q0.96875 0 3.125 -1.09375q0.203125 1.375 1.515625 1.09375q1.125 -0.21875 0.25 -1.75q-0.609375 -1.03125 -0.5625 -3.53125q0.046875 -3.140625 0.28125 -4.4375q0.25 -1.34375 -1.0 -1.609375q-0.640625 -0.15625 -0.9375 0.109375q-2.734375 -0.859375 -5.234375 1.1875q-2.171875 1.78125 -2.140625 5.03125q0.03125 5.015625 4.703125 5.0zm1.203125 -2.09375q-0.78125 0.296875 -1.6875 0.234375q-2.15625 -0.140625 -2.1875 -3.328125q0.09375 -2.453125 1.9375 -3.796875q0.46875 -0.34375 1.234375 -0.53125q1.109375 -0.265625 2.109375 0.359375q-0.46875 1.6875 -0.09375 6.171875q-0.9375 0.765625 -1.3125 0.890625zm9.585876 -15.25q-0.9375 0 -0.953125 0.96875l-0.125 4.921875q-1.203125 0.015625 -2.40625 0.015625q-0.984375 0 -0.984375 1.046875q0 1.015625 0.890625 1.015625q1.21875 0 2.453125 0l-0.1875 8.109375q-0.015625 1.109375 0.921875 1.140625q1.125 0.015625 1.125 -1.125l0.1875 -8.125q1.109375 0 2.21875 0q1.21875 0 1.21875 -1.0625q0 -1.046875 -1.28125 -1.03125l-2.109375 0.015625q0.078125 -2.203125 0.09375 -4.859375q0 -1.03125 -1.0625 -1.03125zm7.627762 12.25l6.9999924 -1.0q1.109375 -0.15625 1.140625 -1.4375q0.0625 -1.59375 -1.21875 -2.84375q-1.359375 -1.328125 -3.765625 -1.1875q-2.3125 0.140625 -3.7656174 2.234375q-1.171875 1.671875 -1.171875 3.828125q0 2.59375 1.859375 4.125q1.4843674 1.21875 3.4843674 1.25q2.703125 0.015625 4.375 -1.46875q0.9375 -0.84375 0.453125 -1.8125q-0.21875 -0.40625 -0.703125 -0.3125q-0.453125 0.09375 -1.15625 0.875q-0.71875 0.8125 -2.84375 0.84375q-1.46875 0 -2.625 -1.03125q-1.0156174 -0.875 -1.0624924 -2.0625zm0.21875 -1.71875q0.296875 -1.03125 0.7499924 -1.59375q1.046875 -1.28125 2.484375 -1.28125q1.03125 -0.015625 1.953125 0.5625q0.78125 0.515625 0.9375 1.421875l-6.1249924 0.890625zm17.433083 -9.578125q-0.9375 0 -0.96875 0.921875l-0.34375 14.265625q-0.03125 1.0625 0.90625 1.078125q1.125 0.03125 1.15625 -1.0625l0.125 -5.5625q0.25 0.03125 0.5625 0q4.375 -0.234375 5.5 -1.625q1.890625 -2.375 0.875 -5.03125q-1.015625 -2.609375 -4.65625 -2.984375q-1.09375 -0.09375 -2.71875 0.046875q-0.1875 -0.046875 -0.4375 -0.046875zm1.03125 2.09375q0.84375 -0.09375 1.46875 -0.09375q2.34375 -0.03125 3.203125 1.5625q0.703125 1.359375 -0.1875 2.90625q-0.921875 1.578125 -4.609375 1.203125l0.125 -5.578125zm13.023331 14.296875q0.96875 0 3.125 -1.09375q0.203125 1.375 1.515625 1.09375q1.125 -0.21875 0.25 -1.75q-0.609375 -1.03125 -0.5625 -3.53125q0.046875 -3.140625 0.28125 -4.4375q0.25 -1.34375 -1.0 -1.609375q-0.640625 -0.15625 -0.9375 0.109375q-2.734375 -0.859375 -5.234375 1.1875q-2.171875 1.78125 -2.140625 5.03125q0.03125 5.015625 4.703125 5.0zm1.203125 -2.09375q-0.78125 0.296875 -1.6875 0.234375q-2.15625 -0.140625 -2.1875 -3.328125q0.09375 -2.453125 1.9375 -3.796875q0.46875 -0.34375 1.234375 -0.53125q1.109375 -0.265625 2.109375 0.359375q-0.46875 1.6875 -0.09375 6.171875q-0.9375 0.765625 -1.3125 0.890625zm7.0702515 -9.875q-0.96875 0 -0.984375 0.96875l-0.234375 9.734375q-0.03125 1.109375 0.90625 1.140625q1.09375 0.015625 1.125 -1.125l0.171875 -6.828125q0.984375 -0.96875 2.15625 -1.203125q1.203125 -0.234375 2.140625 0.40625q1.203125 0.8125 1.65625 -0.53125q0.28125 -0.84375 -1.296875 -1.625q-0.890625 -0.453125 -2.28125 -0.421875q-1.140625 0.015625 -2.296875 0.890625q0 -0.1875 0 -0.375q0 -1.03125 -1.0625 -1.03125zm12.763123 -5.375q-0.9375 0 -0.953125 0.96875l-0.125 4.921875q-1.203125 0.015625 -2.40625 0.015625q-0.984375 0 -0.984375 1.046875q0 1.015625 0.890625 1.015625q1.21875 0 2.453125 0l-0.1875 8.109375q-0.015625 1.109375 0.921875 1.140625q1.125 0.015625 1.125 -1.125l0.1875 -8.125q1.109375 0 2.21875 0q1.21875 0 1.21875 -1.0625q0 -1.046875 -1.28125 -1.03125l-2.109375 0.015625q0.078125 -2.203125 0.09375 -4.859375q0 -1.03125 -1.0625 -1.03125zm8.096512 5.859375q-1.046875 -0.015625 -1.078125 1.359375l-0.171875 8.75q-0.03125 1.3125 1.078125 1.3125q0.984375 0 1.0 -1.40625l0.140625 -8.65625q0.03125 -1.328125 -0.96875 -1.359375zm0.078125 -4.71875q-0.359375 0 -0.640625 0.1875q-0.28125 0.1875 -0.453125 0.484375q-0.171875 0.296875 -0.171875 0.625q0 0.359375 0.1875 0.65625q0.171875 0.296875 0.453125 0.46875q0.265625 0.15625 0.59375 0.171875q0.03125 0 0.0625 0q0.328125 0.015625 0.578125 -0.125q0.25 -0.109375 0.46875 -0.390625q0.21875 -0.296875 0.25 -0.671875q0 -0.046875 0 -0.109375q0 -0.3125 -0.140625 -0.59375q-0.171875 -0.34375 -0.484375 -0.53125q-0.3125 -0.171875 -0.65625 -0.171875q-0.03125 0 -0.046875 0zm7.852707 -1.140625q-0.9375 0 -0.953125 0.96875l-0.125 4.921875q-1.203125 0.015625 -2.40625 0.015625q-0.984375 0 -0.984375 1.046875q0 1.015625 0.890625 1.015625q1.21875 0 2.453125 0l-0.1875 8.109375q-0.015625 1.109375 0.921875 1.140625q1.125 0.015625 1.125 -1.125l0.1875 -8.125q1.109375 0 2.21875 0q1.21875 0 1.21875 -1.0625q0 -1.046875 -1.28125 -1.03125l-2.109375 0.015625q0.078125 -2.203125 0.09375 -4.859375q0 -1.03125 -1.0625 -1.03125zm8.096512 5.859375q-1.046875 -0.015625 -1.078125 1.359375l-0.171875 8.75q-0.03125 1.3125 1.078125 1.3125q0.984375 0 1.0 -1.40625l0.140625 -8.65625q0.03125 -1.328125 -0.96875 -1.359375zm0.078125 -4.71875q-0.359375 0 -0.640625 0.1875q-0.28125 0.1875 -0.453125 0.484375q-0.171875 0.296875 -0.171875 0.625q0 0.359375 0.1875 0.65625q0.171875 0.296875 0.453125 0.46875q0.265625 0.15625 0.59375 0.171875q0.03125 0 0.0625 0q0.328125 0.015625 0.578125 -0.125q0.25 -0.109375 0.46875 -0.390625q0.21875 -0.296875 0.25 -0.671875q0 -0.046875 0 -0.109375q0 -0.3125 -0.140625 -0.59375q-0.171875 -0.34375 -0.484375 -0.53125q-0.3125 -0.171875 -0.65625 -0.171875q-0.03125 0 -0.046875 0zm8.712082 6.828125q2.1875 -0.046875 2.1875 3.65625q-0.015625 1.96875 -0.84375 2.84375q-0.78125 0.84375 -1.90625 0.84375q-1.0 0 -1.78125 -0.84375q-0.75 -0.8125 -0.75 -2.4375q0 -1.703125 1.046875 -3.125q0.671875 -0.90625 2.046875 -0.9375zm-0.09375 -2.125q-2.265625 -0.015625 -3.640625 1.78125q-1.390625 1.84375 -1.390625 4.21875q0 2.5 1.15625 3.890625q1.296875 1.53125 3.15625 1.546875q2.5625 0.015625 3.8125 -1.578125q1.109375 -1.328125 1.125 -3.859375q0 -5.96875 -4.21875 -6.0zm7.9347687 -0.46875q-0.96875 0 -0.984375 0.96875l-0.234375 9.6875q-0.03125 1.109375 0.90625 1.125q1.109375 0.03125 1.140625 -1.109375l0.171875 -6.296875q1.65625 -1.65625 3.09375 -1.5625q1.71875 0.125 1.65625 3.0l-0.125 4.9375q-0.03125 1.265625 1.09375 1.15625q0.984375 -0.078125 1.0 -1.34375l0.09375 -5.203125q0.0625 -4.734375 -3.875 -4.75q-1.765625 0 -2.90625 1.03125q0.015625 -0.3125 0.03125 -0.609375q0.03125 -1.03125 -1.0625 -1.03125zm17.912384 -4.359375q-0.96875 0.015625 -0.984375 0.90625l-0.34375 14.25q-0.03125 1.046875 0.90625 1.078125q1.125 0 1.140625 -1.0625l0.140625 -6.0l9.0 0q-0.0625 3.0 -0.140625 5.984375q-0.015625 1.046875 0.921875 1.078125q1.125 0.015625 1.125 -1.0625l0.328125 -14.203125q0.015625 -0.96875 -1.0625 -0.96875q-0.9375 0.03125 -0.953125 0.921875l-0.15625 6.078125l-9.015625 0l0.15625 -6.03125q0.015625 -0.96875 -1.0625 -0.96875zm16.568924 4.84375q-1.046875 -0.015625 -1.078125 1.359375l-0.171875 8.75q-0.03125 1.3125 1.078125 1.3125q0.984375 0 1.0 -1.40625l0.140625 -8.65625q0.03125 -1.328125 -0.96875 -1.359375zm0.078125 -4.71875q-0.359375 0 -0.640625 0.1875q-0.28125 0.1875 -0.453125 0.484375q-0.171875 0.296875 -0.171875 0.625q0 0.359375 0.1875 0.65625q0.171875 0.296875 0.453125 0.46875q0.265625 0.15625 0.59375 0.171875q0.03125 0 0.0625 0q0.328125 0.015625 0.578125 -0.125q0.25 -0.109375 0.46875 -0.390625q0.21875 -0.296875 0.25 -0.671875q0 -0.046875 0 -0.109375q0 -0.3125 -0.140625 -0.59375q-0.171875 -0.34375 -0.484375 -0.53125q-0.3125 -0.171875 -0.65625 -0.171875q-0.03125 0 -0.046875 0zm6.805847 14.125q-0.953125 -0.0625 -1.875 -0.6875q-0.75 -0.515625 -1.328125 -0.125q-0.484375 0.3125 -0.4375 1.0q0.046875 0.625 0.765625 1.046875q0.8125 0.46875 1.375 0.625q0.921875 0.25 2.375 0.25q1.734375 -0.015625 2.78125 -0.71875q1.28125 -0.859375 1.453125 -2.203125q0.15625 -1.3125 -0.890625 -2.578125q-0.453125 -0.546875 -1.59375 -1.078125q-0.84375 -0.390625 -1.84375 -0.5q-1.25 -0.140625 -1.4375 -0.703125q-0.21875 -0.640625 0.296875 -1.234375q0.609375 -0.703125 1.859375 -0.765625q1.1875 -0.046875 1.78125 0.53125q1.21875 1.171875 1.8125 0.6875q0.46875 -0.390625 0.375 -1.015625q-0.140625 -0.953125 -1.625 -1.671875q-1.15625 -0.5625 -2.671875 -0.421875q-1.359375 0.125 -2.390625 0.859375q-0.875 0.625 -1.3125 1.828125q-0.421875 1.078125 -0.171875 2.125q0.328125 1.328125 2.453125 1.640625q2.0625 0.28125 2.65625 0.90625q0.875 0.9375 0.453125 1.59375q-0.515625 0.765625 -2.859375 0.609375zm11.429749 -15.265625q-0.9375 0 -0.953125 0.96875l-0.125 4.921875q-1.203125 0.015625 -2.40625 0.015625q-0.984375 0 -0.984375 1.046875q0 1.015625 0.890625 1.015625q1.21875 0 2.453125 0l-0.1875 8.109375q-0.015625 1.109375 0.921875 1.140625q1.125 0.015625 1.125 -1.125l0.1875 -8.125q1.109375 0 2.21875 0q1.21875 0 1.21875 -1.0625q0 -1.046875 -1.28125 -1.03125l-2.109375 0.015625q0.078125 -2.203125 0.09375 -4.859375q0 -1.03125 -1.0625 -1.03125zm10.909027 7.96875q2.1875 -0.046875 2.1875 3.65625q-0.015625 1.96875 -0.84375 2.84375q-0.78125 0.84375 -1.90625 0.84375q-1.0 0 -1.78125 -0.84375q-0.75 -0.8125 -0.75 -2.4375q0 -1.703125 1.046875 -3.125q0.671875 -0.90625 2.046875 -0.9375zm-0.09375 -2.125q-2.265625 -0.015625 -3.640625 1.78125q-1.390625 1.84375 -1.390625 4.21875q0 2.5 1.15625 3.890625q1.296875 1.53125 3.15625 1.546875q2.5625 0.015625 3.8125 -1.578125q1.109375 -1.328125 1.125 -3.859375q0 -5.96875 -4.21875 -6.0zm7.9347534 -0.46875q-0.96875 0 -0.984375 0.96875l-0.234375 9.734375q-0.03125 1.109375 0.90625 1.140625q1.09375 0.015625 1.125 -1.125l0.171875 -6.828125q0.984375 -0.96875 2.15625 -1.203125q1.203125 -0.234375 2.140625 0.40625q1.203125 0.8125 1.65625 -0.53125q0.28125 -0.84375 -1.296875 -1.625q-0.890625 -0.453125 -2.28125 -0.421875q-1.140625 0.015625 -2.296875 0.890625q0 -0.1875 0 -0.375q0 -1.03125 -1.0625 -1.03125zm17.638123 0.671875q-1.0 -0.40625 -1.53125 0.8125l-2.859375 6.578125l-3.484375 -6.640625q-0.65625 -1.234375 -1.625 -0.71875q-0.921875 0.484375 -0.25 1.71875l4.328125 8.015625l-2.0625 4.796875q-0.71875 1.65625 0.375 2.109375q0.90625 0.375 1.625 -1.296875l5.953125 -13.71875q0.53125 -1.234375 -0.46875 -1.65625zm8.77179 -0.65625q-0.03125 1.03125 0.953125 1.03125l2.84375 0.015625l-1.28125 4.359375l-2.109375 0q-1.390625 0 -1.40625 0.78125q-0.03125 1.03125 0.9375 1.03125l2.046875 0l-0.640625 2.171875q-0.375 1.34375 0.359375 1.578125q0.984375 0.328125 1.265625 -0.609375l0.921875 -3.125l5.203125 0l-0.625 2.15625q-0.390625 1.34375 0.34375 1.578125q0.984375 0.328125 1.265625 -0.609375l0.90625 -3.125q1.53125 0.015625 3.03125 0.015625q1.40625 0 1.453125 -0.984375q0.03125 -0.875 -1.203125 -0.875l-2.71875 0l1.28125 -4.328125q1.09375 0 2.203125 0q1.40625 0 1.453125 -0.984375q0.03125 -0.875 -1.203125 -0.875l-1.90625 0l0.703125 -2.34375q0.390625 -1.359375 -0.546875 -1.671875q-0.828125 -0.28125 -1.171875 0.90625l-0.921875 3.125q-2.578125 0 -5.171875 0l0.703125 -2.359375q0.390625 -1.359375 -0.546875 -1.671875q-0.828125 -0.28125 -1.171875 0.90625l-0.921875 3.125q-1.453125 0 -2.90625 0q-1.390625 0 -1.421875 0.78125zm4.4375 5.390625l1.28125 -4.34375l5.171875 0l-1.25 4.34375l-5.203125 0zm18.506042 -8.65625q0.015625 -0.9375 -0.5625 -1.0625q-0.703125 -0.171875 -1.546875 0.625l-2.078125 1.953125q-0.734375 0.6875 -0.1875 1.421875q0.671875 0.921875 1.65625 -0.03125l0.78125 -0.734375l-0.03125 11.046875q-0.78125 0 -1.546875 0q-1.03125 0 -1.046875 1.046875q0 0.875 0.9375 0.875l4.734375 0q1.046875 0 1.046875 -0.9375q0 -0.96875 -1.078125 -0.96875q-0.5625 0 -1.140625 0q0.0625 -13.234375 0.0625 -13.234375z" fill-rule="nonzero"/><path fill="#000000" fill-opacity="0.0" d="m45.057743 7.3937006l402.74017 0l0 48.472443l-402.74017 0z" fill-rule="evenodd"/><path fill="#000000" d="m57.479618 24.918077q-1.046875 1.765625 -0.578125 3.609375q0.796875 3.28125 5.15625 3.21875q4.499996 -0.078125 4.968746 1.6406231q0.4375 1.625 -1.125 3.140625q-0.796875 0.765625 -3.0468712 1.171875q-1.265625 0.21875 -2.796875 -0.125q-1.125 -0.28125 -1.890625 -0.96875q-1.0 -0.875 -1.671875 -0.6875q-0.59375 0.171875 -0.703125 0.953125q-0.09375 0.703125 0.84375 1.53125q0.65625 0.578125 1.59375 0.953125q1.390625 0.59375 3.5 0.578125q2.8593712 0 4.781246 -1.125q2.90625 -1.671875 3.0625 -4.578125q0.109375 -1.890625 -1.375 -3.406248q-1.171875 -1.21875 -3.6875 -1.296875q-2.8281212 -0.09375 -3.5312462 -0.203125q-1.890625 -0.265625 -1.6875 -2.390625q0.09375 -1.046875 1.21875 -1.921875q1.046875 -0.8125 3.0 -0.9375q1.2656212 -0.0625 2.9062462 0.5625q1.125 0.453125 1.5625 0.234375q0.671875 -0.328125 0.640625 -0.921875q-0.046875 -0.71875 -1.75 -1.46875q-1.21875 -0.53125 -2.9374962 -0.609375q-1.96875 -0.0625 -3.65625 0.75q-2.015625 0.984375 -2.796875 2.296875zm18.984371 -4.359375q-1.046875 0 -1.078125 1.09375l-0.125 5.546875q-1.359375 0.015625 -2.703125 0.015625q-1.125 0 -1.125 1.171875q0 1.15625 1.015625 1.15625q1.375 0 2.75 0l-0.203125 9.109373q-0.03125 1.265625 1.03125 1.28125q1.265625 0.03125 1.265625 -1.25l0.203125 -9.140623q1.25 0 2.515625 0q1.359375 0 1.359375 -1.203125q0 -1.171875 -1.4375 -1.171875l-2.375 0.015625q0.078125 -2.46875 0.109375 -5.453125q0 -1.171875 -1.203125 -1.171875zm11.449219 19.531248q1.09375 -0.015625 3.515625 -1.25q0.234375 1.5625 1.703125 1.25q1.28125 -0.25 0.28125 -1.96875q-0.6875 -1.171875 -0.640625 -3.984375q0.0625 -3.531248 0.328125 -4.999998q0.28125 -1.5 -1.125 -1.8125q-0.71875 -0.15625 -1.0625 0.125q-3.0625 -0.96875 -5.875 1.34375q-2.453125 2.0 -2.421875 5.671873q0.03125 5.640625 5.296875 5.625zm1.359375 -2.359375q-0.890625 0.328125 -1.90625 0.265625q-2.421875 -0.171875 -2.46875 -3.75q0.109375 -2.765623 2.203125 -4.265623q0.515625 -0.390625 1.375 -0.609375q1.25 -0.296875 2.375 0.421875q-0.53125 1.890625 -0.109375 6.937498q-1.046875 0.84375 -1.46875 1.0zm10.78125 -17.171873q-1.046875 0 -1.078125 1.09375l-0.125 5.546875q-1.359375 0.015625 -2.703125 0.015625q-1.125 0 -1.125 1.171875q0 1.15625 1.015625 1.15625q1.375 0 2.75 0l-0.203125 9.109373q-0.03125 1.265625 1.03125 1.28125q1.265625 0.03125 1.265625 -1.25l0.203125 -9.140623q1.25 0 2.515625 0q1.359375 0 1.359375 -1.203125q0 -1.171875 -1.4375 -1.171875l-2.375 0.015625q0.078125 -2.46875 0.109375 -5.453125q0 -1.171875 -1.203125 -1.171875zm8.574219 13.796873l7.875 -1.140625q1.265625 -0.171875 1.3125 -1.6093731q0.046875 -1.796875 -1.390625 -3.203125q-1.515625 -1.5 -4.234375 -1.328125q-2.59375 0.15625 -4.234375 2.515625q-1.3125 1.890625 -1.3125 4.296873q0 2.9375 2.078125 4.640625q1.6875 1.390625 3.921875 1.40625q3.046875 0.03125 4.921875 -1.640625q1.0625 -0.953125 0.515625 -2.03125q-0.234375 -0.46875 -0.796875 -0.359375q-0.5 0.109375 -1.296875 0.984375q-0.8125 0.921875 -3.203125 0.9375q-1.640625 0.015625 -2.953125 -1.140625q-1.140625 -1.0 -1.203125 -2.328125zm0.265625 -1.9375q0.328125 -1.1562481 0.84375 -1.7968731q1.171875 -1.4375 2.78125 -1.4375q1.171875 -0.015625 2.203125 0.640625q0.890625 0.578125 1.0625 1.59375l-6.890625 0.9999981zm19.617188 -10.781248q-1.0625 0 -1.09375 1.03125l-0.390625 16.062498q-0.03125 1.203125 1.03125 1.21875q1.265625 0.03125 1.28125 -1.203125l0.140625 -6.265625q0.296875 0.03125 0.640625 0.015625q4.921875 -0.265625 6.1875 -1.8281231q2.125 -2.6875 0.984375 -5.671875q-1.140625 -2.9375 -5.234375 -3.359375q-1.234375 -0.109375 -3.0625 0.046875q-0.21875 -0.046875 -0.484375 -0.046875zm1.15625 2.359375q0.953125 -0.109375 1.640625 -0.109375q2.65625 -0.03125 3.609375 1.75q0.796875 1.53125 -0.203125 3.28125q-1.03125 1.78125 -5.1875 1.34375l0.140625 -6.265625zm14.6484375 16.093748q1.09375 -0.015625 3.515625 -1.25q0.234375 1.5625 1.703125 1.25q1.28125 -0.25 0.28125 -1.96875q-0.6875 -1.171875 -0.640625 -3.984375q0.0625 -3.531248 0.328125 -4.999998q0.28125 -1.5 -1.125 -1.8125q-0.71875 -0.15625 -1.0625 0.125q-3.0625 -0.96875 -5.875 1.34375q-2.453125 2.0 -2.421875 5.671873q0.03125 5.640625 5.296875 5.625zm1.359375 -2.359375q-0.890625 0.328125 -1.90625 0.265625q-2.421875 -0.171875 -2.46875 -3.75q0.109375 -2.765623 2.203125 -4.265623q0.515625 -0.390625 1.375 -0.609375q1.25 -0.296875 2.375 0.421875q-0.53125 1.890625 -0.109375 6.937498q-1.046875 0.84375 -1.46875 1.0zm7.953125 -11.124998q-1.078125 0 -1.109375 1.09375l-0.265625 10.953123q-0.03125 1.265625 1.015625 1.28125q1.234375 0.03125 1.265625 -1.25l0.203125 -7.687498q1.09375 -1.09375 2.421875 -1.34375q1.359375 -0.28125 2.421875 0.4375q1.34375 0.921875 1.859375 -0.578125q0.3125 -0.953125 -1.46875 -1.84375q-1.0 -0.5 -2.5625 -0.484375q-1.28125 0.03125 -2.59375 1.015625q0 -0.21875 0 -0.421875q0 -1.171875 -1.1875 -1.171875zm14.359375 -6.046875q-1.046875 0 -1.078125 1.09375l-0.125 5.546875q-1.359375 0.015625 -2.703125 0.015625q-1.125 0 -1.125 1.171875q0 1.15625 1.015625 1.15625q1.375 0 2.75 0l-0.203125 9.109373q-0.03125 1.265625 1.03125 1.28125q1.265625 0.03125 1.265625 -1.25l0.203125 -9.140623q1.25 0 2.515625 0q1.359375 0 1.359375 -1.203125q0 -1.171875 -1.4375 -1.171875l-2.375 0.015625q0.078125 -2.46875 0.109375 -5.453125q0 -1.171875 -1.203125 -1.171875zm9.121094 6.609375q-1.1875 -0.03125 -1.21875 1.53125l-0.203125 9.828123q-0.03125 1.484375 1.21875 1.5q1.109375 0 1.125 -1.59375l0.171875 -9.749998q0.015625 -1.5 -1.09375 -1.515625zm0.078125 -5.328125q-0.390625 0 -0.71875 0.203125q-0.3125 0.21875 -0.515625 0.5625q-0.1875 0.328125 -0.1875 0.703125q0 0.390625 0.203125 0.734375q0.203125 0.328125 0.515625 0.515625q0.3125 0.1875 0.671875 0.203125q0.03125 0 0.0625 0q0.375 0.015625 0.65625 -0.140625q0.28125 -0.125 0.515625 -0.4375q0.265625 -0.34375 0.296875 -0.765625q0 -0.0625 0 -0.109375q0 -0.375 -0.15625 -0.6875q-0.1875 -0.375 -0.5625 -0.578125q-0.328125 -0.203125 -0.734375 -0.203125q-0.015625 0 -0.046875 0zm8.8359375 -1.28125q-1.046875 0 -1.078125 1.09375l-0.125 5.546875q-1.359375 0.015625 -2.703125 0.015625q-1.125 0 -1.125 1.171875q0 1.15625 1.015625 1.15625q1.375 0 2.75 0l-0.203125 9.109373q-0.03125 1.265625 1.03125 1.28125q1.265625 0.03125 1.265625 -1.25l0.203125 -9.140623q1.25 0 2.515625 0q1.359375 0 1.359375 -1.203125q0 -1.171875 -1.4375 -1.171875l-2.375 0.015625q0.078125 -2.46875 0.109375 -5.453125q0 -1.171875 -1.203125 -1.171875zm9.121094 6.609375q-1.1875 -0.03125 -1.21875 1.53125l-0.203125 9.828123q-0.03125 1.484375 1.21875 1.5q1.109375 0 1.125 -1.59375l0.171875 -9.749998q0.015625 -1.5 -1.09375 -1.515625zm0.078125 -5.328125q-0.390625 0 -0.71875 0.203125q-0.3125 0.21875 -0.515625 0.5625q-0.1875 0.328125 -0.1875 0.703125q0 0.390625 0.203125 0.734375q0.203125 0.328125 0.515625 0.515625q0.3125 0.1875 0.671875 0.203125q0.03125 0 0.0625 0q0.375 0.015625 0.65625 -0.140625q0.28125 -0.125 0.515625 -0.4375q0.265625 -0.34375 0.296875 -0.765625q0 -0.0625 0 -0.109375q0 -0.375 -0.15625 -0.6875q-0.1875 -0.375 -0.5625 -0.578125q-0.328125 -0.203125 -0.734375 -0.203125q-0.015625 0 -0.046875 0zm9.8046875 7.6875q2.46875 -0.046875 2.453125 4.124998q-0.015625 2.203125 -0.9375 3.203125q-0.875 0.9375 -2.15625 0.9375q-1.125 0 -1.984375 -0.9375q-0.84375 -0.921875 -0.84375 -2.75q0 -1.921875 1.171875 -3.515623q0.75 -1.03125 2.296875 -1.0625zm-0.09375 -2.390625q-2.5625 -0.015625 -4.109375 2.015625q-1.5625 2.0625 -1.5625 4.734373q0 2.828125 1.3125 4.390625q1.453125 1.71875 3.53125 1.734375q2.890625 0.015625 4.296875 -1.78125q1.25 -1.484375 1.265625 -4.34375q0 -6.718748 -4.734375 -6.749998zm8.917969 -0.53125q-1.078125 0 -1.109375 1.09375l-0.265625 10.906248q-0.03125 1.25 1.015625 1.28125q1.25 0.015625 1.296875 -1.265625l0.1875 -7.093748q1.859375 -1.859375 3.484375 -1.734375q1.9375 0.140625 1.859375 3.374998l-0.140625 5.546875q-0.046875 1.421875 1.234375 1.3125q1.109375 -0.09375 1.125 -1.515625l0.09375 -5.859375q0.078125 -5.343748 -4.34375 -5.343748q-2.0 0 -3.265625 1.15625q0 -0.359375 0.015625 -0.6875q0.03125 -1.171875 -1.1875 -1.171875zm20.15625 -4.90625q-1.078125 0.03125 -1.109375 1.03125l-0.390625 16.031248q-0.03125 1.1875 1.03125 1.21875q1.265625 0 1.28125 -1.203125l0.15625 -6.734375l10.140625 0q-0.09375 3.359375 -0.171875 6.71875q-0.015625 1.1875 1.03125 1.21875q1.265625 0.015625 1.28125 -1.1875l0.359375 -15.984373q0.03125 -1.09375 -1.1875 -1.09375q-1.0625 0.015625 -1.078125 1.03125l-0.1875 6.84375l-10.125 0l0.15625 -6.796875q0.03125 -1.09375 -1.1875 -1.09375zm18.652344 5.46875q-1.1875 -0.03125 -1.21875 1.53125l-0.203125 9.828123q-0.03125 1.484375 1.21875 1.5q1.109375 0 1.125 -1.59375l0.171875 -9.749998q0.015625 -1.5 -1.09375 -1.515625zm0.078125 -5.328125q-0.390625 0 -0.71875 0.203125q-0.3125 0.21875 -0.515625 0.5625q-0.1875 0.328125 -0.1875 0.703125q0 0.390625 0.203125 0.734375q0.203125 0.328125 0.515625 0.515625q0.3125 0.1875 0.671875 0.203125q0.03125 0 0.0625 0q0.375 0.015625 0.65625 -0.140625q0.28125 -0.125 0.515625 -0.4375q0.265625 -0.34375 0.296875 -0.765625q0 -0.0625 0 -0.109375q0 -0.375 -0.15625 -0.6875q-0.1875 -0.375 -0.5625 -0.578125q-0.328125 -0.203125 -0.734375 -0.203125q-0.015625 0 -0.046875 0zm7.6640625 15.906248q-1.078125 -0.078125 -2.109375 -0.78125q-0.84375 -0.5625 -1.5 -0.140625q-0.53125 0.359375 -0.484375 1.125q0.046875 0.703125 0.859375 1.171875q0.921875 0.53125 1.546875 0.71875q1.03125 0.28125 2.671875 0.28125q1.953125 -0.015625 3.125 -0.8125q1.453125 -0.96875 1.640625 -2.484375q0.171875 -1.46875 -1.015625 -2.90625q-0.5 -0.609375 -1.796875 -1.203125q-0.9375 -0.4375 -2.0625 -0.5625q-1.40625 -0.1562481 -1.625 -0.7812481q-0.234375 -0.734375 0.34375 -1.390625q0.671875 -0.796875 2.09375 -0.875q1.328125 -0.046875 2.0 0.609375q1.359375 1.3125 2.03125 0.765625q0.546875 -0.4375 0.4375 -1.140625q-0.171875 -1.0625 -1.84375 -1.890625q-1.28125 -0.625 -3.0 -0.46875q-1.515625 0.140625 -2.6875 0.984375q-0.984375 0.703125 -1.484375 2.046875q-0.46875 1.21875 -0.1875 2.390623q0.359375 1.5 2.765625 1.84375q2.328125 0.328125 2.984375 1.03125q0.984375 1.046875 0.515625 1.78125q-0.59375 0.859375 -3.21875 0.6875zm12.855469 -17.187498q-1.046875 0 -1.078125 1.09375l-0.125 5.546875q-1.359375 0.015625 -2.703125 0.015625q-1.125 0 -1.125 1.171875q0 1.15625 1.015625 1.15625q1.375 0 2.75 0l-0.203125 9.109373q-0.03125 1.265625 1.03125 1.28125q1.265625 0.03125 1.265625 -1.25l0.203125 -9.140623q1.25 0 2.515625 0q1.359375 0 1.359375 -1.203125q0 -1.171875 -1.4375 -1.171875l-2.375 0.015625q0.078125 -2.46875 0.109375 -5.453125q0 -1.171875 -1.203125 -1.171875zm12.277344 8.96875q2.46875 -0.046875 2.453125 4.124998q-0.015625 2.203125 -0.9375 3.203125q-0.875 0.9375 -2.15625 0.9375q-1.125 0 -1.984375 -0.9375q-0.84375 -0.921875 -0.84375 -2.75q0 -1.921875 1.171875 -3.515623q0.75 -1.03125 2.296875 -1.0625zm-0.09375 -2.390625q-2.5625 -0.015625 -4.109375 2.015625q-1.5625 2.0625 -1.5625 4.734373q0 2.828125 1.3125 4.390625q1.453125 1.71875 3.53125 1.734375q2.890625 0.015625 4.296875 -1.78125q1.25 -1.484375 1.265625 -4.34375q0 -6.718748 -4.734375 -6.749998zm8.917969 -0.53125q-1.078125 0 -1.109375 1.09375l-0.265625 10.953123q-0.03125 1.265625 1.015625 1.28125q1.234375 0.03125 1.265625 -1.25l0.203125 -7.687498q1.09375 -1.09375 2.421875 -1.34375q1.359375 -0.28125 2.421875 0.4375q1.34375 0.921875 1.859375 -0.578125q0.3125 -0.953125 -1.46875 -1.84375q-1.0 -0.5 -2.5625 -0.484375q-1.28125 0.03125 -2.59375 1.015625q0 -0.21875 0 -0.421875q0 -1.171875 -1.1875 -1.171875zm12.171875 0.5625q-1.1875 -0.03125 -1.21875 1.53125l-0.203125 9.828123q-0.03125 1.484375 1.21875 1.5q1.109375 0 1.125 -1.59375l0.171875 -9.749998q0.015625 -1.5 -1.09375 -1.515625zm0.078125 -5.328125q-0.390625 0 -0.71875 0.203125q-0.3125 0.21875 -0.515625 0.5625q-0.1875 0.328125 -0.1875 0.703125q0 0.390625 0.203125 0.734375q0.203125 0.328125 0.515625 0.515625q0.3125 0.1875 0.671875 0.203125q0.03125 0 0.0625 0q0.375 0.015625 0.65625 -0.140625q0.28125 -0.125 0.515625 -0.4375q0.265625 -0.34375 0.296875 -0.765625q0 -0.0625 0 -0.109375q0 -0.375 -0.15625 -0.6875q-0.1875 -0.375 -0.5625 -0.578125q-0.328125 -0.203125 -0.734375 -0.203125q-0.015625 0 -0.046875 0zm6.1015625 12.515623l7.875 -1.140625q1.265625 -0.171875 1.3125 -1.6093731q0.046875 -1.796875 -1.390625 -3.203125q-1.515625 -1.5 -4.234375 -1.328125q-2.59375 0.15625 -4.234375 2.515625q-1.3125 1.890625 -1.3125 4.296873q0 2.9375 2.078125 4.640625q1.6875 1.390625 3.921875 1.40625q3.046875 0.03125 4.921875 -1.640625q1.0625 -0.953125 0.515625 -2.03125q-0.234375 -0.46875 -0.796875 -0.359375q-0.5 0.109375 -1.296875 0.984375q-0.8125 0.921875 -3.203125 0.9375q-1.640625 0.015625 -2.953125 -1.140625q-1.140625 -1.0 -1.203125 -2.328125zm0.265625 -1.9375q0.328125 -1.1562481 0.84375 -1.7968731q1.171875 -1.4375 2.78125 -1.4375q1.171875 -0.015625 2.203125 0.640625q0.890625 0.578125 1.0625 1.59375l-6.890625 0.9999981zm14.4453125 5.328125q-1.078125 -0.078125 -2.109375 -0.78125q-0.84375 -0.5625 -1.5 -0.140625q-0.53125 0.359375 -0.484375 1.125q0.046875 0.703125 0.859375 1.171875q0.921875 0.53125 1.546875 0.71875q1.03125 0.28125 2.671875 0.28125q1.953125 -0.015625 3.125 -0.8125q1.453125 -0.96875 1.640625 -2.484375q0.171875 -1.46875 -1.015625 -2.90625q-0.5 -0.609375 -1.796875 -1.203125q-0.9375 -0.4375 -2.0625 -0.5625q-1.40625 -0.1562481 -1.625 -0.7812481q-0.234375 -0.734375 0.34375 -1.390625q0.671875 -0.796875 2.09375 -0.875q1.328125 -0.046875 2.0 0.609375q1.359375 1.3125 2.03125 0.765625q0.546875 -0.4375 0.4375 -1.140625q-0.171875 -1.0625 -1.84375 -1.890625q-1.28125 -0.625 -3.0 -0.46875q-1.515625 0.140625 -2.6875 0.984375q-0.984375 0.703125 -1.484375 2.046875q-0.46875 1.21875 -0.1875 2.390623q0.359375 1.5 2.765625 1.84375q2.328125 0.328125 2.984375 1.03125q0.984375 1.046875 0.515625 1.78125q-0.59375 0.859375 -3.21875 0.6875z" fill-rule="nonzero"/><path fill="#000000" fill-opacity="0.0" d="m209.23622 214.91864l261.13385 0l0 58.173218l-261.13385 0z" fill-rule="evenodd"/><path fill="#3c78d8" d="m220.4706 227.45052q-0.71875 0.015625 -0.734375 0.6875l-0.25 10.6875q-0.03125 0.796875 0.671875 0.8125q0.84375 0.015625 0.859375 -0.796875l0.109375 -4.5l6.75 0q-0.046875 2.25 -0.109375 4.484375q-0.015625 0.796875 0.6875 0.8125q0.84375 0.015625 0.859375 -0.796875l0.234375 -10.65625q0.015625 -0.71875 -0.796875 -0.71875q-0.703125 0.015625 -0.71875 0.6875l-0.109375 4.5625l-6.765625 0l0.109375 -4.53125q0.015625 -0.734375 -0.796875 -0.734375zm12.4453125 3.640625q-0.796875 -0.015625 -0.8125 1.03125l-0.140625 6.546875q-0.015625 1.0 0.8125 1.0q0.734375 0 0.75 -1.0625l0.109375 -6.5q0.015625 -1.0 -0.71875 -1.015625zm0.046875 -3.546875q-0.265625 0 -0.484375 0.140625q-0.203125 0.140625 -0.328125 0.359375q-0.125 0.21875 -0.125 0.46875q0 0.28125 0.125 0.5q0.140625 0.21875 0.34375 0.34375q0.203125 0.125 0.453125 0.140625q0.015625 0 0.046875 0q0.234375 0 0.4375 -0.09375q0.1875 -0.09375 0.34375 -0.296875q0.171875 -0.21875 0.1875 -0.515625q0 -0.03125 0 -0.078125q0 -0.234375 -0.109375 -0.453125q-0.125 -0.25 -0.359375 -0.390625q-0.234375 -0.125 -0.5 -0.125q-0.015625 0 -0.03125 0zm5.109375 10.609375q-0.71875 -0.046875 -1.40625 -0.515625q-0.5625 -0.390625 -1.0 -0.09375q-0.359375 0.234375 -0.328125 0.75q0.03125 0.46875 0.578125 0.78125q0.609375 0.359375 1.03125 0.46875q0.6875 0.203125 1.78125 0.1875q1.296875 0 2.078125 -0.53125q0.96875 -0.65625 1.09375 -1.65625q0.125 -0.984375 -0.671875 -1.9375q-0.328125 -0.40625 -1.1875 -0.8125q-0.640625 -0.296875 -1.375 -0.375q-0.953125 -0.09375 -1.09375 -0.515625q-0.15625 -0.484375 0.234375 -0.9375q0.453125 -0.53125 1.390625 -0.578125q0.890625 -0.03125 1.34375 0.40625q0.90625 0.875 1.34375 0.515625q0.359375 -0.296875 0.296875 -0.765625q-0.109375 -0.703125 -1.234375 -1.25q-0.859375 -0.421875 -2.0 -0.328125q-1.015625 0.09375 -1.78125 0.65625q-0.65625 0.46875 -1.0 1.375q-0.3125 0.8125 -0.125 1.59375q0.25 1.0 1.84375 1.234375q1.546875 0.203125 1.984375 0.671875q0.65625 0.703125 0.34375 1.203125q-0.390625 0.5625 -2.140625 0.453125zm8.5703125 -11.453125q-0.703125 0 -0.71875 0.71875l-0.078125 3.703125q-0.90625 0 -1.8125 0q-0.734375 0 -0.734375 0.796875q0 0.765625 0.671875 0.765625q0.90625 0 1.828125 0l-0.140625 6.078125q-0.015625 0.84375 0.6875 0.859375q0.84375 0.015625 0.859375 -0.84375l0.125 -6.09375q0.84375 0 1.671875 0q0.921875 0 0.921875 -0.796875q0 -0.796875 -0.96875 -0.78125l-1.578125 0q0.046875 -1.640625 0.0625 -3.640625q0 -0.765625 -0.796875 -0.765625zm8.1796875 5.96875q1.6562347 -0.03125 1.6406097 2.75q0 1.46875 -0.62498474 2.140625q-0.578125 0.625 -1.4375 0.625q-0.75 0 -1.328125 -0.625q-0.5625 -0.609375 -0.5625 -1.84375q0 -1.265625 0.78125 -2.328125q0.515625 -0.6875 1.53125 -0.71875zm-0.0625 -1.59375q-1.703125 -0.015625 -2.734375 1.34375q-1.046875 1.375 -1.046875 3.15625q0 1.890625 0.875 2.921875q0.96875 1.15625 2.359375 1.171875q1.9218597 0.015625 2.8593597 -1.1875q0.84375 -1.0 0.84375 -2.90625q0.015625 -4.46875 -3.1562347 -4.5zm5.9452972 -0.34375q-0.71875 0 -0.734375 0.71875l-0.171875 7.3125q-0.03125 0.84375 0.671875 0.859375q0.828125 0.015625 0.84375 -0.84375l0.140625 -5.125q0.734375 -0.734375 1.609375 -0.90625q0.90625 -0.171875 1.609375 0.296875q0.90625 0.609375 1.25 -0.390625q0.203125 -0.625 -0.984375 -1.21875q-0.671875 -0.34375 -1.703125 -0.328125q-0.859375 0.015625 -1.734375 0.6875q0 -0.15625 0 -0.296875q0 -0.765625 -0.796875 -0.765625zm13.234375 0.5q-0.75 -0.3125 -1.140625 0.609375l-2.140625 4.9375l-2.625 -4.984375q-0.484375 -0.921875 -1.21875 -0.53125q-0.6875 0.359375 -0.1875 1.28125l3.25 6.015625l-1.546875 3.609375q-0.546875 1.234375 0.28125 1.578125q0.6875 0.28125 1.21875 -0.96875l4.46875 -10.296875q0.390625 -0.921875 -0.359375 -1.25zm7.21875 -0.125q-0.921875 0 -0.9375 0.390625q0 0.390625 0 0.78125q0 0.375 0.84375 0.375l1.265625 0l-0.09375 6.1875q-0.015625 0.84375 0.6875 0.859375q0.84375 0.015625 0.859375 -0.84375l0.078125 -6.203125l1.921875 0q1.03125 0 0.984375 -0.84375q-0.046875 -0.703125 -1.09375 -0.703125l-1.78125 0q-0.015625 -0.984375 0.203125 -1.71875q0.359375 -1.265625 1.8125 -1.125q0.9375 0.09375 1.0625 -0.65625q0.15625 -0.875 -1.5 -0.828125q-1.6875 0.0625 -2.296875 0.921875q-0.765625 1.09375 -0.796875 3.40625l-1.21875 0zm11.0078125 1.5625q1.65625 -0.03125 1.640625 2.75q0 1.46875 -0.625 2.140625q-0.578125 0.625 -1.4375 0.625q-0.75 0 -1.328125 -0.625q-0.5625 -0.609375 -0.5625 -1.84375q0 -1.265625 0.78125 -2.328125q0.515625 -0.6875 1.53125 -0.71875zm-0.0625 -1.59375q-1.703125 -0.015625 -2.734375 1.34375q-1.046875 1.375 -1.046875 3.15625q0 1.890625 0.875 2.921875q0.96875 1.15625 2.359375 1.171875q1.921875 0.015625 2.859375 -1.1875q0.84375 -1.0 0.84375 -2.90625q0.015625 -4.46875 -3.15625 -4.5zm5.9453125 -0.34375q-0.71875 0 -0.734375 0.71875l-0.171875 7.3125q-0.03125 0.84375 0.671875 0.859375q0.828125 0.015625 0.84375 -0.84375l0.140625 -5.125q0.734375 -0.734375 1.609375 -0.90625q0.90625 -0.171875 1.609375 0.296875q0.90625 0.609375 1.25 -0.390625q0.203125 -0.625 -0.984375 -1.21875q-0.671875 -0.34375 -1.703125 -0.328125q-0.859375 0.015625 -1.734375 0.6875q0 -0.15625 0 -0.296875q0 -0.765625 -0.796875 -0.765625zm12.546875 5.15625l5.25 -0.75q0.828125 -0.125 0.859375 -1.078125q0.046875 -1.203125 -0.921875 -2.140625q-1.015625 -1.0 -2.8125 -0.890625q-1.734375 0.109375 -2.828125 1.6875q-0.875 1.25 -0.875 2.859375q0 1.953125 1.390625 3.09375q1.109375 0.9375 2.609375 0.953125q2.03125 0.015625 3.28125 -1.109375q0.703125 -0.625 0.34375 -1.359375q-0.15625 -0.3125 -0.53125 -0.234375q-0.34375 0.078125 -0.859375 0.65625q-0.546875 0.609375 -2.140625 0.625q-1.09375 0.015625 -1.96875 -0.765625q-0.765625 -0.65625 -0.796875 -1.546875zm0.171875 -1.28125q0.21875 -0.78125 0.5625 -1.203125q0.78125 -0.96875 1.859375 -0.96875q0.765625 0 1.453125 0.4375q0.59375 0.375 0.71875 1.0625l-4.59375 0.671875zm7.5 -3.5q-0.671875 0.28125 -0.296875 1.265625l2.46875 6.40625q0.328125 0.859375 0.9375 0.859375q0.59375 0 0.921875 -0.859375l2.46875 -6.40625q0.375 -0.984375 -0.296875 -1.265625q-0.765625 -0.328125 -1.125 0.65625l-1.984375 5.484375l-1.96875 -5.484375q-0.359375 -0.984375 -1.125 -0.65625zm8.875 4.78125l5.25 -0.75q0.828125 -0.125 0.859375 -1.078125q0.046875 -1.203125 -0.921875 -2.140625q-1.015625 -1.0 -2.8125 -0.890625q-1.734375 0.109375 -2.828125 1.6875q-0.875 1.25 -0.875 2.859375q0 1.953125 1.390625 3.09375q1.109375 0.9375 2.609375 0.953125q2.03125 0.015625 3.28125 -1.109375q0.703125 -0.625 0.34375 -1.359375q-0.15625 -0.3125 -0.53125 -0.234375q-0.34375 0.078125 -0.859375 0.65625q-0.546875 0.609375 -2.140625 0.625q-1.09375 0.015625 -1.96875 -0.765625q-0.765625 -0.65625 -0.796875 -1.546875zm0.171875 -1.28125q0.21875 -0.78125 0.5625 -1.203125q0.78125 -0.96875 1.859375 -0.96875q0.765625 0 1.453125 0.4375q0.59375 0.375 0.71875 1.0625l-4.59375 0.671875zm8.515625 -3.875q-0.71875 0 -0.734375 0.71875l-0.171875 7.3125q-0.03125 0.84375 0.671875 0.859375q0.828125 0.015625 0.84375 -0.84375l0.140625 -5.125q0.734375 -0.734375 1.609375 -0.90625q0.90625 -0.171875 1.609375 0.296875q0.90625 0.609375 1.25 -0.390625q0.203125 -0.625 -0.984375 -1.21875q-0.671875 -0.34375 -1.703125 -0.328125q-0.859375 0.015625 -1.734375 0.6875q0 -0.15625 0 -0.296875q0 -0.765625 -0.796875 -0.765625zm13.234375 0.5q-0.75 -0.3125 -1.140625 0.609375l-2.140625 4.9375l-2.625 -4.984375q-0.484375 -0.921875 -1.21875 -0.53125q-0.6875 0.359375 -0.1875 1.28125l3.25 6.015625l-1.546875 3.609375q-0.546875 1.234375 0.28125 1.578125q0.6875 0.28125 1.21875 -0.96875l4.46875 -10.296875q0.390625 -0.921875 -0.359375 -1.25zm7.34375 -3.8125q-0.71875 0 -0.734375 0.6875l-0.265625 10.703125q-0.015625 0.796875 0.6875 0.8125q0.84375 0.015625 0.859375 -0.796875l0.09375 -4.1875q0.203125 0.03125 0.4375 0.015625q3.28125 -0.1875 4.109375 -1.21875q1.421875 -1.796875 0.65625 -3.78125q-0.75 -1.96875 -3.484375 -2.234375q-0.8125 -0.078125 -2.046875 0.03125q-0.140625 -0.03125 -0.3125 -0.03125zm0.765625 1.5625q0.640625 -0.0625 1.09375 -0.078125q1.765625 -0.015625 2.40625 1.171875q0.53125 1.03125 -0.140625 2.1875q-0.6875 1.1875 -3.453125 0.90625l0.09375 -4.1875zm9.765625 10.734375q0.734375 0 2.34375 -0.828125q0.15625 1.03125 1.140625 0.828125q0.84375 -0.171875 0.1875 -1.3125q-0.453125 -0.78125 -0.421875 -2.65625q0.03125 -2.359375 0.21875 -3.328125q0.171875 -1.0 -0.765625 -1.21875q-0.46875 -0.109375 -0.703125 0.09375q-2.046875 -0.65625 -3.921875 0.890625q-1.625 1.328125 -1.609375 3.78125q0.03125 3.765625 3.53125 3.75zm0.90625 -1.578125q-0.59375 0.21875 -1.265625 0.171875q-1.625 -0.109375 -1.640625 -2.5q0.0625 -1.828125 1.453125 -2.84375q0.34375 -0.25 0.921875 -0.390625q0.828125 -0.203125 1.59375 0.265625q-0.359375 1.265625 -0.078125 4.625q-0.703125 0.578125 -0.984375 0.671875zm5.296875 -7.40625q-0.71875 0 -0.734375 0.71875l-0.171875 7.3125q-0.03125 0.84375 0.671875 0.859375q0.828125 0.015625 0.84375 -0.84375l0.140625 -5.125q0.734375 -0.734375 1.609375 -0.90625q0.90625 -0.171875 1.609375 0.296875q0.90625 0.609375 1.25 -0.390625q0.203125 -0.625 -0.984375 -1.21875q-0.671875 -0.34375 -1.703125 -0.328125q-0.859375 0.015625 -1.734375 0.6875q0 -0.15625 0 -0.296875q0 -0.765625 -0.796875 -0.765625zm9.578125 -4.03125q-0.703125 0 -0.71875 0.71875l-0.078125 3.703125q-0.90625 0 -1.8125 0q-0.734375 0 -0.734375 0.796875q0 0.765625 0.671875 0.765625q0.90625 0 1.828125 0l-0.140625 6.078125q-0.015625 0.84375 0.6875 0.859375q0.84375 0.015625 0.859375 -0.84375l0.125 -6.09375q0.84375 0 1.671875 0q0.921875 0 0.921875 -0.796875q0 -0.796875 -0.96875 -0.78125l-1.578125 0q0.046875 -1.640625 0.0625 -3.640625q0 -0.765625 -0.796875 -0.765625zm6.0859375 4.390625q-0.796875 -0.015625 -0.8125 1.03125l-0.140625 6.546875q-0.015625 1.0 0.8125 1.0q0.734375 0 0.75 -1.0625l0.109375 -6.5q0.015625 -1.0 -0.71875 -1.015625zm0.046875 -3.546875q-0.265625 0 -0.484375 0.140625q-0.203125 0.140625 -0.328125 0.359375q-0.125 0.21875 -0.125 0.46875q0 0.28125 0.125 0.5q0.140625 0.21875 0.34375 0.34375q0.203125 0.125 0.453125 0.140625q0.015625 0 0.046875 0q0.234375 0 0.4375 -0.09375q0.1875 -0.09375 0.34375 -0.296875q0.171875 -0.21875 0.1875 -0.515625q0 -0.03125 0 -0.078125q0 -0.234375 -0.109375 -0.453125q-0.125 -0.25 -0.359375 -0.390625q-0.234375 -0.125 -0.5 -0.125q-0.015625 0 -0.03125 0zm5.890625 -0.84375q-0.703125 0 -0.71875 0.71875l-0.078125 3.703125q-0.90625 0 -1.8125 0q-0.734375 0 -0.734375 0.796875q0 0.765625 0.671875 0.765625q0.90625 0 1.828125 0l-0.140625 6.078125q-0.015625 0.84375 0.6875 0.859375q0.84375 0.015625 0.859375 -0.84375l0.125 -6.09375q0.84375 0 1.671875 0q0.921875 0 0.921875 -0.796875q0 -0.796875 -0.96875 -0.78125l-1.578125 0q0.046875 -1.640625 0.0625 -3.640625q0 -0.765625 -0.796875 -0.765625zm6.0859375 4.390625q-0.796875 -0.015625 -0.8125 1.03125l-0.140625 6.546875q-0.015625 1.0 0.8125 1.0q0.734375 0 0.75 -1.0625l0.109375 -6.5q0.015625 -1.0 -0.71875 -1.015625zm0.046875 -3.546875q-0.265625 0 -0.484375 0.140625q-0.203125 0.140625 -0.328125 0.359375q-0.125 0.21875 -0.125 0.46875q0 0.28125 0.125 0.5q0.140625 0.21875 0.34375 0.34375q0.203125 0.125 0.453125 0.140625q0.015625 0 0.046875 0q0.234375 0 0.4375 -0.09375q0.1875 -0.09375 0.34375 -0.296875q0.171875 -0.21875 0.1875 -0.515625q0 -0.03125 0 -0.078125q0 -0.234375 -0.109375 -0.453125q-0.125 -0.25 -0.359375 -0.390625q-0.234375 -0.125 -0.5 -0.125q-0.015625 0 -0.03125 0zm6.53125 5.125q1.65625 -0.03125 1.640625 2.75q0 1.46875 -0.625 2.140625q-0.578125 0.625 -1.4375 0.625q-0.75 0 -1.328125 -0.625q-0.5625 -0.609375 -0.5625 -1.84375q0 -1.265625 0.78125 -2.328125q0.515625 -0.6875 1.53125 -0.71875zm-0.0625 -1.59375q-1.703125 -0.015625 -2.734375 1.34375q-1.046875 1.375 -1.046875 3.15625q0 1.890625 0.875 2.921875q0.96875 1.15625 2.359375 1.171875q1.921875 0.015625 2.859375 -1.1875q0.84375 -1.0 0.84375 -2.90625q0.015625 -4.46875 -3.15625 -4.5zm5.9453125 -0.34375q-0.71875 0 -0.734375 0.71875l-0.171875 7.265625q-0.03125 0.84375 0.671875 0.859375q0.84375 0.015625 0.859375 -0.84375l0.125 -4.71875q1.25 -1.25 2.328125 -1.171875q1.296875 0.09375 1.234375 2.25l-0.09375 3.703125q-0.015625 0.953125 0.828125 0.875q0.734375 -0.0625 0.75 -1.015625l0.0625 -3.90625q0.0625 -3.546875 -2.890625 -3.5625q-1.328125 0 -2.1875 0.78125q0.015625 -0.234375 0.015625 -0.46875q0.03125 -0.765625 -0.796875 -0.765625z" fill-rule="nonzero"/><path fill="#3c78d8" d="m220.62685 250.29114q-0.796875 -0.015625 -0.8125 1.03125l-0.140625 6.546875q-0.015625 1.0 0.8125 1.0q0.734375 0 0.75 -1.0625l0.109375 -6.5q0.015625 -1.0 -0.71875 -1.015625zm0.046875 -3.546875q-0.265625 0 -0.484375 0.140625q-0.203125 0.140625 -0.328125 0.359375q-0.125 0.21875 -0.125 0.46875q0 0.28125 0.125 0.5q0.140625 0.21875 0.34375 0.34375q0.203125 0.125 0.453125 0.140625q0.015625 0 0.046875 0q0.234375 0 0.4375 -0.09375q0.1875 -0.09375 0.34375 -0.296875q0.171875 -0.21875 0.1875 -0.515625q0 -0.03125 0 -0.078125q0 -0.234375 -0.109375 -0.453125q-0.125 -0.25 -0.359375 -0.390625q-0.234375 -0.125 -0.5 -0.125q-0.015625 0 -0.03125 0zm4.0 3.1875q-0.71875 0 -0.734375 0.71875l-0.171875 7.265625q-0.03125 0.84375 0.671875 0.859375q0.84375 0.015625 0.859375 -0.84375l0.125 -4.71875q1.25 -1.25 2.328125 -1.171875q1.296875 0.09375 1.234375 2.25l-0.09375 3.703125q-0.015625 0.953125 0.828125 0.875q0.734375 -0.0625 0.75 -1.015625l0.0625 -3.90625q0.0625 -3.546875 -2.890625 -3.5625q-1.328125 0 -2.1875 0.78125q0.015625 -0.234375 0.015625 -0.46875q0.03125 -0.765625 -0.796875 -0.765625zm15.046875 -4.03125q-0.703125 0 -0.71875 0.71875l-0.078125 3.703125q-0.90625 0 -1.8125 0q-0.734375 0 -0.734375 0.796875q0 0.765625 0.671875 0.765625q0.90625 0 1.828125 0l-0.140625 6.078125q-0.015625 0.84375 0.6875 0.859375q0.84375 0.015625 0.859375 -0.84375l0.125 -6.09375q0.84375 0 1.671875 0q0.921875 0 0.921875 -0.796875q0 -0.796875 -0.96875 -0.78125l-1.578125 0q0.046875 -1.640625 0.0625 -3.640625q0 -0.765625 -0.796875 -0.765625zm5.8359375 -0.015625q-0.71875 0.015625 -0.734375 0.734375l-0.25 11.34375q-0.015625 0.84375 0.671875 0.859375q0.828125 0.015625 0.859375 -0.84375l0.171875 -4.515625q1.21875 -1.453125 2.671875 -1.328125q1.265625 0.09375 1.25 2.171875l-0.03125 3.75q0 0.9375 0.828125 0.875q0.75 -0.0625 0.75 -1.015625l0.03125 -3.96875q0.03125 -3.546875 -2.890625 -3.5625q-1.625 0 -2.609375 0.90625l0.078125 -4.625q0.015625 -0.78125 -0.796875 -0.78125zm9.1328125 9.203125l5.2499847 -0.75q0.828125 -0.125 0.859375 -1.078125q0.046875 -1.203125 -0.921875 -2.140625q-1.015625 -1.0 -2.8125 -0.890625q-1.7343597 0.109375 -2.8281097 1.6875q-0.875 1.25 -0.875 2.859375q0 1.953125 1.390625 3.09375q1.109375 0.9375 2.6093597 0.953125q2.03125 0.015625 3.28125 -1.109375q0.703125 -0.625 0.34375 -1.359375q-0.15625 -0.3125 -0.53125 -0.234375q-0.34375 0.078125 -0.859375 0.65625q-0.546875 0.609375 -2.140625 0.625q-1.09375 0.015625 -1.9687347 -0.765625q-0.765625 -0.65625 -0.796875 -1.546875zm0.171875 -1.28125q0.21875 -0.78125 0.5625 -1.203125q0.78123474 -0.96875 1.8593597 -0.96875q0.765625 0 1.453125 0.4375q0.59375 0.375 0.71875 1.0625l-4.5937347 0.671875zm15.82811 -1.9375q1.65625 -0.03125 1.640625 2.75q0 1.46875 -0.625 2.140625q-0.578125 0.625 -1.4375 0.625q-0.75 0 -1.328125 -0.625q-0.5625 -0.609375 -0.5625 -1.84375q0 -1.265625 0.78125 -2.328125q0.515625 -0.6875 1.53125 -0.71875zm-0.0625 -1.59375q-1.703125 -0.015625 -2.734375 1.34375q-1.046875 1.375 -1.046875 3.15625q0 1.890625 0.875 2.921875q0.96875 1.15625 2.359375 1.171875q1.921875 0.015625 2.859375 -1.1875q0.84375 -1.0 0.84375 -2.90625q0.015625 -4.46875 -3.15625 -4.5zm4.9296875 0.03125q-0.671875 0.28125 -0.296875 1.265625l2.46875 6.40625q0.328125 0.859375 0.9375 0.859375q0.59375 0 0.921875 -0.859375l2.46875 -6.40625q0.375 -0.984375 -0.296875 -1.265625q-0.765625 -0.328125 -1.125 0.65625l-1.984375 5.484375l-1.96875 -5.484375q-0.359375 -0.984375 -1.125 -0.65625zm8.875 4.78125l5.25 -0.75q0.828125 -0.125 0.859375 -1.078125q0.046875 -1.203125 -0.921875 -2.140625q-1.015625 -1.0 -2.8125 -0.890625q-1.734375 0.109375 -2.828125 1.6875q-0.875 1.25 -0.875 2.859375q0 1.953125 1.390625 3.09375q1.109375 0.9375 2.609375 0.953125q2.03125 0.015625 3.28125 -1.109375q0.703125 -0.625 0.34375 -1.359375q-0.15625 -0.3125 -0.53125 -0.234375q-0.34375 0.078125 -0.859375 0.65625q-0.546875 0.609375 -2.140625 0.625q-1.09375 0.015625 -1.96875 -0.765625q-0.765625 -0.65625 -0.796875 -1.546875zm0.171875 -1.28125q0.21875 -0.78125 0.5625 -1.203125q0.78125 -0.96875 1.859375 -0.96875q0.765625 0 1.453125 0.4375q0.59375 0.375 0.71875 1.0625l-4.59375 0.671875zm8.515625 -3.875q-0.71875 0 -0.734375 0.71875l-0.171875 7.3125q-0.03125 0.84375 0.671875 0.859375q0.828125 0.015625 0.84375 -0.84375l0.140625 -5.125q0.734375 -0.734375 1.609375 -0.90625q0.90625 -0.171875 1.609375 0.296875q0.90625 0.609375 1.25 -0.390625q0.203125 -0.625 -0.984375 -1.21875q-0.671875 -0.34375 -1.703125 -0.328125q-0.859375 0.015625 -1.734375 0.6875q0 -0.15625 0 -0.296875q0 -0.765625 -0.796875 -0.765625zm9.671875 8.984375q0.734375 0 2.34375 -0.828125q0.15625 1.03125 1.140625 0.828125q0.84375 -0.171875 0.1875 -1.3125q-0.453125 -0.78125 -0.421875 -2.65625q0.03125 -2.359375 0.21875 -3.328125q0.171875 -1.0 -0.765625 -1.21875q-0.46875 -0.109375 -0.703125 0.09375q-2.046875 -0.65625 -3.921875 0.890625q-1.625 1.328125 -1.609375 3.78125q0.03125 3.765625 3.53125 3.75zm0.90625 -1.578125q-0.59375 0.21875 -1.265625 0.171875q-1.625 -0.109375 -1.640625 -2.5q0.0625 -1.828125 1.453125 -2.84375q0.34375 -0.25 0.921875 -0.390625q0.828125 -0.203125 1.59375 0.265625q-0.359375 1.265625 -0.078125 4.625q-0.703125 0.578125 -0.984375 0.671875zm5.6875 -11.4375q-0.703125 0.015625 -0.71875 0.71875l-0.265625 11.34375q-0.015625 0.84375 0.6875 0.859375q0.84375 0.015625 0.859375 -0.84375l0.234375 -11.3125q0.015625 -0.765625 -0.796875 -0.765625zm4.3828125 0q-0.703125 0.015625 -0.71875 0.71875l-0.265625 11.34375q-0.015625 0.84375 0.6875 0.859375q0.84375 0.015625 0.859375 -0.84375l0.234375 -11.3125q0.015625 -0.765625 -0.796875 -0.765625zm9.8828125 11.453125q-0.71875 -0.046875 -1.40625 -0.515625q-0.5625 -0.390625 -1.0 -0.09375q-0.359375 0.234375 -0.328125 0.75q0.03125 0.46875 0.578125 0.78125q0.609375 0.359375 1.03125 0.46875q0.6875 0.203125 1.78125 0.1875q1.296875 0 2.078125 -0.53125q0.96875 -0.65625 1.09375 -1.65625q0.125 -0.984375 -0.671875 -1.9375q-0.328125 -0.40625 -1.1875 -0.8125q-0.640625 -0.296875 -1.375 -0.375q-0.953125 -0.09375 -1.09375 -0.515625q-0.15625 -0.484375 0.234375 -0.9375q0.453125 -0.53125 1.390625 -0.578125q0.890625 -0.03125 1.34375 0.40625q0.90625 0.875 1.34375 0.515625q0.359375 -0.296875 0.296875 -0.765625q-0.109375 -0.703125 -1.234375 -1.25q-0.859375 -0.421875 -2.0 -0.328125q-1.015625 0.09375 -1.78125 0.65625q-0.65625 0.46875 -1.0 1.375q-0.3125 0.8125 -0.125 1.59375q0.25 1.0 1.84375 1.234375q1.546875 0.203125 1.984375 0.671875q0.65625 0.703125 0.34375 1.203125q-0.390625 0.5625 -2.140625 0.453125zm7.1171875 -7.0625q-0.796875 -0.015625 -0.8125 1.03125l-0.140625 6.546875q-0.015625 1.0 0.8125 1.0q0.734375 0 0.75 -1.0625l0.109375 -6.5q0.015625 -1.0 -0.71875 -1.015625zm0.046875 -3.546875q-0.265625 0 -0.484375 0.140625q-0.203125 0.140625 -0.328125 0.359375q-0.125 0.21875 -0.125 0.46875q0 0.28125 0.125 0.5q0.140625 0.21875 0.34375 0.34375q0.203125 0.125 0.453125 0.140625q0.015625 0 0.046875 0q0.234375 0 0.4375 -0.09375q0.1875 -0.09375 0.34375 -0.296875q0.171875 -0.21875 0.1875 -0.515625q0 -0.03125 0 -0.078125q0 -0.234375 -0.109375 -0.453125q-0.125 -0.25 -0.359375 -0.390625q-0.234375 -0.125 -0.5 -0.125q-0.015625 0 -0.03125 0zm3.859375 3.1875q-0.71875 0 -0.734375 0.71875l-0.171875 7.25q-0.03125 0.84375 0.671875 0.859375q0.8125 0.015625 0.84375 -0.84375l0.125 -4.328125q0.421875 -1.625 1.78125 -1.578125q1.203125 0.046875 1.15625 2.265625l-0.078125 3.59375q-0.03125 0.9375 0.78125 0.875q0.71875 -0.0625 0.75 -1.015625l0.09375 -3.921875q0 -0.453125 0.03125 -0.46875q0.515625 -1.34375 1.9375 -1.3125q1.234375 0.03125 1.203125 2.34375l-0.046875 3.609375q-0.015625 0.953125 0.828125 0.875q0.734375 -0.0625 0.75 -1.015625l0.0625 -3.890625q0.0625 -3.546875 -2.90625 -3.5625q-1.59375 0 -2.390625 1.15625q-0.578125 -1.171875 -2.203125 -1.15625q-1.0 0.015625 -1.6875 0.640625l0 -0.328125q0.015625 -0.765625 -0.796875 -0.765625zm17.335938 9.140625q0.703125 0 0.71875 -0.734375l0.1875 -7.296875q0.015625 -0.84375 -0.6875 -0.859375q-0.828125 0 -0.84375 0.84375l-0.09375 3.953125q-0.046875 1.28125 -1.0625 1.796875q-1.125 0.5625 -1.9375 0.015625q-0.59375 -0.421875 -0.578125 -2.3125l0.015625 -3.40625q0.015625 -0.9375 -0.8125 -0.875q-0.734375 0.078125 -0.75 1.015625l-0.03125 3.828125q-0.03125 3.5625 2.90625 3.578125q1.328125 0 2.1875 -0.78125l-0.015625 0.453125q-0.015625 0.78125 0.796875 0.78125zm3.9453125 -13.171875q-0.703125 0.015625 -0.71875 0.71875l-0.265625 11.34375q-0.015625 0.84375 0.6875 0.859375q0.84375 0.015625 0.859375 -0.84375l0.234375 -11.3125q0.015625 -0.765625 -0.796875 -0.765625zm5.9765625 13.015625q0.734375 0 2.34375 -0.828125q0.15625 1.03125 1.140625 0.828125q0.84375 -0.171875 0.1875 -1.3125q-0.453125 -0.78125 -0.421875 -2.65625q0.03125 -2.359375 0.21875 -3.328125q0.171875 -1.0 -0.765625 -1.21875q-0.46875 -0.109375 -0.703125 0.09375q-2.046875 -0.65625 -3.921875 0.890625q-1.625 1.328125 -1.609375 3.78125q0.03125 3.765625 3.53125 3.75zm0.90625 -1.578125q-0.59375 0.21875 -1.265625 0.171875q-1.625 -0.109375 -1.640625 -2.5q0.0625 -1.828125 1.453125 -2.84375q0.34375 -0.25 0.921875 -0.390625q0.828125 -0.203125 1.59375 0.265625q-0.359375 1.265625 -0.078125 4.625q-0.703125 0.578125 -0.984375 0.671875zm7.1875 -11.4375q-0.703125 0 -0.71875 0.71875l-0.078125 3.703125q-0.90625 0 -1.8125 0q-0.734375 0 -0.734375 0.796875q0 0.765625 0.671875 0.765625q0.90625 0 1.828125 0l-0.140625 6.078125q-0.015625 0.84375 0.6875 0.859375q0.84375 0.015625 0.859375 -0.84375l0.125 -6.09375q0.84375 0 1.671875 0q0.921875 0 0.921875 -0.796875q0 -0.796875 -0.96875 -0.78125l-1.578125 0q0.046875 -1.640625 0.0625 -3.640625q0 -0.765625 -0.796875 -0.765625zm6.0859375 4.390625q-0.796875 -0.015625 -0.8125 1.03125l-0.140625 6.546875q-0.015625 1.0 0.8125 1.0q0.734375 0 0.75 -1.0625l0.109375 -6.5q0.015625 -1.0 -0.71875 -1.015625zm0.046875 -3.546875q-0.265625 0 -0.484375 0.140625q-0.203125 0.140625 -0.328125 0.359375q-0.125 0.21875 -0.125 0.46875q0 0.28125 0.125 0.5q0.140625 0.21875 0.34375 0.34375q0.203125 0.125 0.453125 0.140625q0.015625 0 0.046875 0q0.234375 0 0.4375 -0.09375q0.1875 -0.09375 0.34375 -0.296875q0.171875 -0.21875 0.1875 -0.515625q0 -0.03125 0 -0.078125q0 -0.234375 -0.109375 -0.453125q-0.125 -0.25 -0.359375 -0.390625q-0.234375 -0.125 -0.5 -0.125q-0.015625 0 -0.03125 0zm6.53125 5.125q1.65625 -0.03125 1.640625 2.75q0 1.46875 -0.625 2.140625q-0.578125 0.625 -1.4375 0.625q-0.75 0 -1.328125 -0.625q-0.5625 -0.609375 -0.5625 -1.84375q0 -1.265625 0.78125 -2.328125q0.515625 -0.6875 1.53125 -0.71875zm-0.0625 -1.59375q-1.703125 -0.015625 -2.734375 1.34375q-1.046875 1.375 -1.046875 3.15625q0 1.890625 0.875 2.921875q0.96875 1.15625 2.359375 1.171875q1.921875 0.015625 2.859375 -1.1875q0.84375 -1.0 0.84375 -2.90625q0.015625 -4.46875 -3.15625 -4.5zm5.9453125 -0.34375q-0.71875 0 -0.734375 0.71875l-0.171875 7.265625q-0.03125 0.84375 0.671875 0.859375q0.84375 0.015625 0.859375 -0.84375l0.125 -4.71875q1.25 -1.25 2.328125 -1.171875q1.296875 0.09375 1.234375 2.25l-0.09375 3.703125q-0.015625 0.953125 0.828125 0.875q0.734375 -0.0625 0.75 -1.015625l0.0625 -3.90625q0.0625 -3.546875 -2.890625 -3.5625q-1.328125 0 -2.1875 0.78125q0.015625 -0.234375 0.015625 -0.46875q0.03125 -0.765625 -0.796875 -0.765625zm13.484375 -1.125q-0.6875 1.171875 -0.390625 2.40625q0.546875 2.1875 3.4375 2.140625q3.0 -0.046875 3.3125 1.09375q0.296875 1.078125 -0.75 2.09375q-0.53125 0.515625 -2.03125 0.78125q-0.84375 0.140625 -1.859375 -0.09375q-0.75 -0.171875 -1.265625 -0.640625q-0.65625 -0.578125 -1.109375 -0.453125q-0.390625 0.109375 -0.46875 0.625q-0.0625 0.46875 0.5625 1.03125q0.4375 0.375 1.0625 0.640625q0.9375 0.390625 2.34375 0.390625q1.90625 -0.015625 3.1875 -0.765625q1.921875 -1.109375 2.03125 -3.046875q0.078125 -1.265625 -0.90625 -2.28125q-0.78125 -0.796875 -2.46875 -0.859375q-1.875 -0.0625 -2.359375 -0.125q-1.25 -0.1875 -1.125 -1.59375q0.078125 -0.703125 0.8125 -1.28125q0.703125 -0.546875 2.0 -0.625q0.84375 -0.046875 1.9375 0.375q0.765625 0.296875 1.046875 0.15625q0.453125 -0.21875 0.421875 -0.625q-0.015625 -0.484375 -1.15625 -0.984375q-0.8125 -0.34375 -1.96875 -0.390625q-1.296875 -0.046875 -2.421875 0.5q-1.34375 0.640625 -1.875 1.53125zm12.65625 -2.90625q-0.703125 0 -0.71875 0.71875l-0.078125 3.703125q-0.90625 0 -1.8125 0q-0.734375 0 -0.734375 0.796875q0 0.765625 0.671875 0.765625q0.90625 0 1.828125 0l-0.140625 6.078125q-0.015625 0.84375 0.6875 0.859375q0.84375 0.015625 0.859375 -0.84375l0.125 -6.09375q0.84375 0 1.671875 0q0.921875 0 0.921875 -0.796875q0 -0.796875 -0.96875 -0.78125l-1.578125 0q0.046875 -1.640625 0.0625 -3.640625q0 -0.765625 -0.796875 -0.765625zm7.6328125 13.015625q0.734375 0 2.34375 -0.828125q0.15625 1.03125 1.140625 0.828125q0.84375 -0.171875 0.1875 -1.3125q-0.453125 -0.78125 -0.421875 -2.65625q0.03125 -2.359375 0.21875 -3.328125q0.171875 -1.0 -0.765625 -1.21875q-0.46875 -0.109375 -0.703125 0.09375q-2.046875 -0.65625 -3.921875 0.890625q-1.625 1.328125 -1.609375 3.78125q0.03125 3.765625 3.53125 3.75zm0.90625 -1.578125q-0.59375 0.21875 -1.265625 0.171875q-1.625 -0.109375 -1.640625 -2.5q0.0625 -1.828125 1.453125 -2.84375q0.34375 -0.25 0.921875 -0.390625q0.828125 -0.203125 1.59375 0.265625q-0.359375 1.265625 -0.078125 4.625q-0.703125 0.578125 -0.984375 0.671875zm7.1875 -11.4375q-0.703125 0 -0.71875 0.71875l-0.078125 3.703125q-0.90625 0 -1.8125 0q-0.734375 0 -0.734375 0.796875q0 0.765625 0.671875 0.765625q0.90625 0 1.828125 0l-0.140625 6.078125q-0.015625 0.84375 0.6875 0.859375q0.84375 0.015625 0.859375 -0.84375l0.125 -6.09375q0.84375 0 1.671875 0q0.921875 0 0.921875 -0.796875q0 -0.796875 -0.96875 -0.78125l-1.578125 0q0.046875 -1.640625 0.0625 -3.640625q0 -0.765625 -0.796875 -0.765625zm5.7265625 9.1875l5.25 -0.75q0.828125 -0.125 0.859375 -1.078125q0.046875 -1.203125 -0.921875 -2.140625q-1.015625 -1.0 -2.8125 -0.890625q-1.734375 0.109375 -2.828125 1.6875q-0.875 1.25 -0.875 2.859375q0 1.953125 1.390625 3.09375q1.109375 0.9375 2.609375 0.953125q2.03125 0.015625 3.28125 -1.109375q0.703125 -0.625 0.34375 -1.359375q-0.15625 -0.3125 -0.53125 -0.234375q-0.34375 0.078125 -0.859375 0.65625q-0.546875 0.609375 -2.140625 0.625q-1.09375 0.015625 -1.96875 -0.765625q-0.765625 -0.65625 -0.796875 -1.546875zm0.171875 -1.28125q0.21875 -0.78125 0.5625 -1.203125q0.78125 -0.96875 1.859375 -0.96875q0.765625 0 1.453125 0.4375q0.59375 0.375 0.71875 1.0625l-4.59375 0.671875z" fill-rule="nonzero"/><path fill="#000000" fill-opacity="0.0" d="m197.54887 228.90897l0 43.055115" fill-rule="evenodd"/><path stroke="#3c78d8" stroke-width="4.0" stroke-linejoin="round" stroke-linecap="butt" stroke-dasharray="4.0,12.0" d="m197.54887 228.90897l0 43.055115" fill-rule="evenodd"/><path fill="#000000" fill-opacity="0.0" d="m49.220474 160.63274l0 0c0 -5.105484 4.1388016 -9.244278 9.244278 -9.244278l307.02325 0c2.4517212 0 4.8030396 0.973938 6.536682 2.7075806c1.7336426 1.7336426 2.7075806 4.084961 2.7075806 6.5366974l0 36.975998c0 5.105484 -4.138794 9.244278 -9.244263 9.244278l-307.02325 0c-5.1054764 0 -9.244278 -4.138794 -9.244278 -9.244278z" fill-rule="evenodd"/><path stroke="#3c78d8" stroke-width="3.0" stroke-linejoin="round" stroke-linecap="butt" d="m49.220474 160.63274l0 0c0 -5.105484 4.1388016 -9.244278 9.244278 -9.244278l307.02325 0c2.4517212 0 4.8030396 0.973938 6.536682 2.7075806c1.7336426 1.7336426 2.7075806 4.084961 2.7075806 6.5366974l0 36.975998c0 5.105484 -4.138794 9.244278 -9.244263 9.244278l-307.02325 0c-5.1054764 0 -9.244278 -4.138794 -9.244278 -9.244278z" fill-rule="evenodd"/><path fill="#3c78d8" d="m80.196785 173.71011q-0.9375 1.5625 -0.53125 3.203125q0.71875 2.921875 4.59375 2.859375q3.984375 -0.0625 4.40625 1.453125q0.390625 1.453125 -1.0 2.796875q-0.703125 0.6875 -2.703125 1.03125q-1.125 0.203125 -2.484375 -0.109375q-1.0 -0.234375 -1.6875 -0.859375q-0.875 -0.78125 -1.46875 -0.609375q-0.53125 0.15625 -0.625 0.84375q-0.09375 0.625 0.75 1.359375q0.578125 0.515625 1.40625 0.859375q1.25 0.515625 3.125 0.515625q2.53125 -0.015625 4.234375 -1.0q2.578125 -1.5 2.71875 -4.078125q0.09375 -1.671875 -1.21875 -3.03125q-1.03125 -1.078125 -3.265625 -1.140625q-2.515625 -0.09375 -3.15625 -0.1875q-1.671875 -0.234375 -1.5 -2.109375q0.09375 -0.9375 1.09375 -1.71875q0.9375 -0.71875 2.65625 -0.828125q1.125 -0.0625 2.578125 0.5q1.015625 0.390625 1.40625 0.203125q0.59375 -0.28125 0.5625 -0.8125q-0.03125 -0.65625 -1.5625 -1.3125q-1.078125 -0.46875 -2.609375 -0.53125q-1.734375 -0.0625 -3.234375 0.65625q-1.796875 0.875 -2.484375 2.046875zm16.86618 -3.875q-0.9375 0 -0.953125 0.96875l-0.125 4.921875q-1.203125 0.015625 -2.40625 0.015625q-0.984375 0 -0.984375 1.046875q0 1.015625 0.890625 1.015625q1.21875 0 2.453125 0l-0.1875 8.109375q-0.015625 1.109375 0.921875 1.140625q1.125 0.015625 1.125 -1.125l0.1875 -8.125q1.109375 0 2.21875 0q1.21875 0 1.21875 -1.0625q0 -1.046875 -1.28125 -1.03125l-2.109375 0.015625q0.078125 -2.203125 0.09375 -4.859375q0 -1.03125 -1.0625 -1.03125zm10.174637 17.34375q0.96875 0 3.125 -1.09375q0.203125 1.375 1.515625 1.09375q1.125 -0.21875 0.25 -1.75q-0.609375 -1.03125 -0.5625 -3.53125q0.046875 -3.140625 0.28125 -4.4375q0.25 -1.34375 -1.0 -1.609375q-0.640625 -0.15625 -0.9375 0.109375q-2.734375 -0.859375 -5.234375 1.1875q-2.171875 1.78125 -2.140625 5.03125q0.03125 5.015625 4.703125 5.0zm1.203125 -2.09375q-0.78125 0.296875 -1.6875 0.234375q-2.15625 -0.140625 -2.1875 -3.328125q0.09375 -2.453125 1.9375 -3.796875q0.46875 -0.34375 1.234375 -0.53125q1.109375 -0.265625 2.109375 0.359375q-0.46875 1.6875 -0.09375 6.171875q-0.9375 0.765625 -1.3125 0.890625zm9.585876 -15.25q-0.9375 0 -0.953125 0.96875l-0.125 4.921875q-1.203125 0.015625 -2.40625 0.015625q-0.984375 0 -0.984375 1.046875q0 1.015625 0.890625 1.015625q1.21875 0 2.453125 0l-0.1875 8.109375q-0.015625 1.109375 0.921875 1.140625q1.125 0.015625 1.125 -1.125l0.1875 -8.125q1.109375 0 2.21875 0q1.21875 0 1.21875 -1.0625q0 -1.046875 -1.28125 -1.03125l-2.109375 0.015625q0.078125 -2.203125 0.09375 -4.859375q0 -1.03125 -1.0625 -1.03125zm7.627762 12.25l6.9999924 -1.0q1.109375 -0.15625 1.140625 -1.4375q0.0625 -1.59375 -1.21875 -2.84375q-1.359375 -1.328125 -3.765625 -1.1875q-2.3124924 0.140625 -3.7656174 2.234375q-1.171875 1.671875 -1.171875 3.828125q0 2.59375 1.859375 4.125q1.484375 1.21875 3.4843674 1.25q2.703125 0.015625 4.375 -1.46875q0.9375 -0.84375 0.453125 -1.8125q-0.21875 -0.40625 -0.703125 -0.3125q-0.453125 0.09375 -1.15625 0.875q-0.71875 0.8125 -2.84375 0.84375q-1.4687424 0 -2.6249924 -1.03125q-1.015625 -0.875 -1.0625 -2.0625zm0.21875 -1.71875q0.296875 -1.03125 0.75 -1.59375q1.046875 -1.28125 2.4843674 -1.28125q1.03125 -0.015625 1.953125 0.5625q0.78125 0.515625 0.9375 1.421875l-6.1249924 0.890625zm17.433083 -9.578125q-0.9375 0 -0.96875 0.921875l-0.34375 14.265625q-0.03125 1.0625 0.90625 1.078125q1.125 0.03125 1.15625 -1.0625l0.125 -5.5625q0.25 0.03125 0.5625 0q4.375 -0.234375 5.5 -1.625q1.890625 -2.375 0.875 -5.03125q-1.015625 -2.609375 -4.65625 -2.984375q-1.09375 -0.09375 -2.71875 0.046875q-0.1875 -0.046875 -0.4375 -0.046875zm1.03125 2.09375q0.84375 -0.09375 1.46875 -0.09375q2.34375 -0.03125 3.203125 1.5625q0.703125 1.359375 -0.1875 2.90625q-0.921875 1.578125 -4.609375 1.203125l0.125 -5.578125zm13.023331 14.296875q0.96875 0 3.125 -1.09375q0.203125 1.375 1.515625 1.09375q1.125 -0.21875 0.25 -1.75q-0.609375 -1.03125 -0.5625 -3.53125q0.046875 -3.140625 0.28125 -4.4375q0.25 -1.34375 -1.0 -1.609375q-0.640625 -0.15625 -0.9375 0.109375q-2.734375 -0.859375 -5.234375 1.1875q-2.171875 1.78125 -2.140625 5.03125q0.03125 5.015625 4.703125 5.0zm1.203125 -2.09375q-0.78125 0.296875 -1.6875 0.234375q-2.15625 -0.140625 -2.1875 -3.328125q0.09375 -2.453125 1.9375 -3.796875q0.46875 -0.34375 1.234375 -0.53125q1.109375 -0.265625 2.109375 0.359375q-0.46875 1.6875 -0.09375 6.171875q-0.9375 0.765625 -1.3125 0.890625zm7.0702515 -9.875q-0.96875 0 -0.984375 0.96875l-0.234375 9.734375q-0.03125 1.109375 0.90625 1.140625q1.09375 0.015625 1.125 -1.125l0.171875 -6.828125q0.984375 -0.96875 2.15625 -1.203125q1.203125 -0.234375 2.140625 0.40625q1.203125 0.8125 1.65625 -0.53125q0.28125 -0.84375 -1.296875 -1.625q-0.890625 -0.453125 -2.28125 -0.421875q-1.140625 0.015625 -2.296875 0.890625q0 -0.1875 0 -0.375q0 -1.03125 -1.0625 -1.03125zm12.763123 -5.375q-0.9375 0 -0.953125 0.96875l-0.125 4.921875q-1.203125 0.015625 -2.40625 0.015625q-0.984375 0 -0.984375 1.046875q0 1.015625 0.890625 1.015625q1.21875 0 2.453125 0l-0.1875 8.109375q-0.015625 1.109375 0.921875 1.140625q1.125 0.015625 1.125 -1.125l0.1875 -8.125q1.109375 0 2.21875 0q1.21875 0 1.21875 -1.0625q0 -1.046875 -1.28125 -1.03125l-2.109375 0.015625q0.078125 -2.203125 0.09375 -4.859375q0 -1.03125 -1.0625 -1.03125zm8.096512 5.859375q-1.046875 -0.015625 -1.078125 1.359375l-0.171875 8.75q-0.03125 1.3125 1.078125 1.3125q0.984375 0 1.0 -1.40625l0.140625 -8.65625q0.03125 -1.328125 -0.96875 -1.359375zm0.078125 -4.71875q-0.359375 0 -0.640625 0.1875q-0.28125 0.1875 -0.453125 0.484375q-0.171875 0.296875 -0.171875 0.625q0 0.359375 0.1875 0.65625q0.171875 0.296875 0.453125 0.46875q0.265625 0.15625 0.59375 0.171875q0.03125 0 0.0625 0q0.328125 0.015625 0.578125 -0.125q0.25 -0.109375 0.46875 -0.390625q0.21875 -0.296875 0.25 -0.671875q0 -0.046875 0 -0.109375q0 -0.3125 -0.140625 -0.59375q-0.171875 -0.34375 -0.484375 -0.53125q-0.3125 -0.171875 -0.65625 -0.171875q-0.03125 0 -0.046875 0zm7.852707 -1.140625q-0.9375 0 -0.953125 0.96875l-0.125 4.921875q-1.203125 0.015625 -2.40625 0.015625q-0.984375 0 -0.984375 1.046875q0 1.015625 0.890625 1.015625q1.21875 0 2.453125 0l-0.1875 8.109375q-0.015625 1.109375 0.921875 1.140625q1.125 0.015625 1.125 -1.125l0.1875 -8.125q1.109375 0 2.21875 0q1.21875 0 1.21875 -1.0625q0 -1.046875 -1.28125 -1.03125l-2.109375 0.015625q0.078125 -2.203125 0.09375 -4.859375q0 -1.03125 -1.0625 -1.03125zm8.096512 5.859375q-1.046875 -0.015625 -1.078125 1.359375l-0.171875 8.75q-0.03125 1.3125 1.078125 1.3125q0.984375 0 1.0 -1.40625l0.140625 -8.65625q0.03125 -1.328125 -0.96875 -1.359375zm0.078125 -4.71875q-0.359375 0 -0.640625 0.1875q-0.28125 0.1875 -0.453125 0.484375q-0.171875 0.296875 -0.171875 0.625q0 0.359375 0.1875 0.65625q0.171875 0.296875 0.453125 0.46875q0.265625 0.15625 0.59375 0.171875q0.03125 0 0.0625 0q0.328125 0.015625 0.578125 -0.125q0.25 -0.109375 0.46875 -0.390625q0.21875 -0.296875 0.25 -0.671875q0 -0.046875 0 -0.109375q0 -0.3125 -0.140625 -0.59375q-0.171875 -0.34375 -0.484375 -0.53125q-0.3125 -0.171875 -0.65625 -0.171875q-0.03125 0 -0.046875 0zm8.712082 6.828125q2.1875 -0.046875 2.1875 3.65625q-0.015625 1.96875 -0.84375 2.84375q-0.78125 0.84375 -1.90625 0.84375q-1.0 0 -1.78125 -0.84375q-0.75 -0.8125 -0.75 -2.4375q0 -1.703125 1.046875 -3.125q0.671875 -0.90625 2.046875 -0.9375zm-0.09375 -2.125q-2.265625 -0.015625 -3.640625 1.78125q-1.390625 1.84375 -1.390625 4.21875q0 2.5 1.15625 3.890625q1.296875 1.53125 3.15625 1.546875q2.5625 0.015625 3.8125 -1.578125q1.109375 -1.328125 1.125 -3.859375q0 -5.96875 -4.21875 -6.0zm7.9347687 -0.46875q-0.96875 0 -0.984375 0.96875l-0.234375 9.6875q-0.03125 1.109375 0.90625 1.125q1.109375 0.03125 1.140625 -1.109375l0.171875 -6.296875q1.65625 -1.65625 3.09375 -1.5625q1.71875 0.125 1.65625 3.0l-0.125 4.9375q-0.03125 1.265625 1.09375 1.15625q0.984375 -0.078125 1.0 -1.34375l0.09375 -5.203125q0.0625 -4.734375 -3.875 -4.75q-1.765625 0 -2.90625 1.03125q0.015625 -0.3125 0.03125 -0.609375q0.03125 -1.03125 -1.0625 -1.03125zm17.912384 -4.359375q-0.96875 0.015625 -0.984375 0.90625l-0.34375 14.25q-0.03125 1.046875 0.90625 1.078125q1.125 0 1.140625 -1.0625l0.140625 -6.0l9.0 0q-0.0625 3.0 -0.140625 5.984375q-0.015625 1.046875 0.921875 1.078125q1.125 0.015625 1.125 -1.0625l0.328125 -14.203125q0.015625 -0.96875 -1.0625 -0.96875q-0.9375 0.03125 -0.953125 0.921875l-0.15625 6.078125l-9.015625 0l0.15625 -6.03125q0.015625 -0.96875 -1.0625 -0.96875zm16.568924 4.84375q-1.046875 -0.015625 -1.078125 1.359375l-0.171875 8.75q-0.03125 1.3125 1.078125 1.3125q0.984375 0 1.0 -1.40625l0.140625 -8.65625q0.03125 -1.328125 -0.96875 -1.359375zm0.078125 -4.71875q-0.359375 0 -0.640625 0.1875q-0.28125 0.1875 -0.453125 0.484375q-0.171875 0.296875 -0.171875 0.625q0 0.359375 0.1875 0.65625q0.171875 0.296875 0.453125 0.46875q0.265625 0.15625 0.59375 0.171875q0.03125 0 0.0625 0q0.328125 0.015625 0.578125 -0.125q0.25 -0.109375 0.46875 -0.390625q0.21875 -0.296875 0.25 -0.671875q0 -0.046875 0 -0.109375q0 -0.3125 -0.140625 -0.59375q-0.171875 -0.34375 -0.484375 -0.53125q-0.3125 -0.171875 -0.65625 -0.171875q-0.03125 0 -0.046875 0zm6.805847 14.125q-0.953125 -0.0625 -1.875 -0.6875q-0.75 -0.515625 -1.328125 -0.125q-0.484375 0.3125 -0.4375 1.0q0.046875 0.625 0.765625 1.046875q0.8125 0.46875 1.375 0.625q0.921875 0.25 2.375 0.25q1.734375 -0.015625 2.78125 -0.71875q1.28125 -0.859375 1.453125 -2.203125q0.15625 -1.3125 -0.890625 -2.578125q-0.453125 -0.546875 -1.59375 -1.078125q-0.84375 -0.390625 -1.84375 -0.5q-1.25 -0.140625 -1.4375 -0.703125q-0.21875 -0.640625 0.296875 -1.234375q0.609375 -0.703125 1.859375 -0.765625q1.1875 -0.046875 1.78125 0.53125q1.21875 1.171875 1.8125 0.6875q0.46875 -0.390625 0.375 -1.015625q-0.140625 -0.953125 -1.625 -1.671875q-1.15625 -0.5625 -2.671875 -0.421875q-1.359375 0.125 -2.390625 0.859375q-0.875 0.625 -1.3125 1.828125q-0.421875 1.078125 -0.171875 2.125q0.328125 1.328125 2.453125 1.640625q2.0625 0.28125 2.65625 0.90625q0.875 0.9375 0.453125 1.59375q-0.515625 0.765625 -2.859375 0.609375zm11.429749 -15.265625q-0.9375 0 -0.953125 0.96875l-0.125 4.921875q-1.203125 0.015625 -2.40625 0.015625q-0.984375 0 -0.984375 1.046875q0 1.015625 0.890625 1.015625q1.21875 0 2.453125 0l-0.1875 8.109375q-0.015625 1.109375 0.921875 1.140625q1.125 0.015625 1.125 -1.125l0.1875 -8.125q1.109375 0 2.21875 0q1.21875 0 1.21875 -1.0625q0 -1.046875 -1.28125 -1.03125l-2.109375 0.015625q0.078125 -2.203125 0.09375 -4.859375q0 -1.03125 -1.0625 -1.03125zm10.909027 7.96875q2.1875 -0.046875 2.1875 3.65625q-0.015625 1.96875 -0.84375 2.84375q-0.78125 0.84375 -1.90625 0.84375q-1.0 0 -1.78125 -0.84375q-0.75 -0.8125 -0.75 -2.4375q0 -1.703125 1.046875 -3.125q0.671875 -0.90625 2.046875 -0.9375zm-0.09375 -2.125q-2.265625 -0.015625 -3.640625 1.78125q-1.390625 1.84375 -1.390625 4.21875q0 2.5 1.15625 3.890625q1.296875 1.53125 3.15625 1.546875q2.5625 0.015625 3.8125 -1.578125q1.109375 -1.328125 1.125 -3.859375q0 -5.96875 -4.21875 -6.0zm7.9347534 -0.46875q-0.96875 0 -0.984375 0.96875l-0.234375 9.734375q-0.03125 1.109375 0.90625 1.140625q1.09375 0.015625 1.125 -1.125l0.171875 -6.828125q0.984375 -0.96875 2.15625 -1.203125q1.203125 -0.234375 2.140625 0.40625q1.203125 0.8125 1.65625 -0.53125q0.28125 -0.84375 -1.296875 -1.625q-0.890625 -0.453125 -2.28125 -0.421875q-1.140625 0.015625 -2.296875 0.890625q0 -0.1875 0 -0.375q0 -1.03125 -1.0625 -1.03125zm17.638153 0.671875q-1.0000305 -0.40625 -1.5312805 0.8125l-2.859375 6.578125l-3.484375 -6.640625q-0.65625 -1.234375 -1.625 -0.71875q-0.921875 0.484375 -0.25 1.71875l4.328125 8.015625l-2.0625 4.796875q-0.71875 1.65625 0.375 2.109375q0.90625 0.375 1.625 -1.296875l5.9531555 -13.71875q0.53125 -1.234375 -0.46875 -1.65625zm8.771759 -0.65625q-0.03125 1.03125 0.953125 1.03125l2.84375 0.015625l-1.28125 4.359375l-2.109375 0q-1.390625 0 -1.40625 0.78125q-0.03125 1.03125 0.9375 1.03125l2.046875 0l-0.640625 2.171875q-0.375 1.34375 0.359375 1.578125q0.984375 0.328125 1.265625 -0.609375l0.921875 -3.125l5.203125 0l-0.625 2.15625q-0.390625 1.34375 0.34375 1.578125q0.984375 0.328125 1.265625 -0.609375l0.90625 -3.125q1.53125 0.015625 3.03125 0.015625q1.40625 0 1.453125 -0.984375q0.03125 -0.875 -1.203125 -0.875l-2.71875 0l1.28125 -4.328125q1.09375 0 2.203125 0q1.40625 0 1.453125 -0.984375q0.03125 -0.875 -1.203125 -0.875l-1.90625 0l0.703125 -2.34375q0.390625 -1.359375 -0.546875 -1.671875q-0.828125 -0.28125 -1.171875 0.90625l-0.921875 3.125q-2.578125 0 -5.171875 0l0.703125 -2.359375q0.390625 -1.359375 -0.546875 -1.671875q-0.828125 -0.28125 -1.171875 0.90625l-0.921875 3.125q-1.453125 0 -2.90625 0q-1.390625 0 -1.421875 0.78125zm4.4375 5.390625l1.28125 -4.34375l5.171875 0l-1.25 4.34375l-5.203125 0zm13.943512 5.046875q-0.046875 1.453125 1.03125 1.453125l7.625 0q1.078125 0 1.09375 -1.0q0.015625 -0.953125 -1.09375 -0.953125q-3.3125 -0.015625 -6.609375 -0.015625q0.078125 -1.015625 1.265625 -2.75q1.25 -1.8125 3.625 -2.90625q2.59375 -1.1875 2.671875 -4.421875q0.046875 -2.421875 -1.984375 -3.6875q-0.9375 -0.59375 -2.53125 -0.59375q-1.703125 0 -2.8125 0.65625q-0.84375 0.5 -2.046875 1.96875q-0.578125 0.71875 0.140625 1.296875q0.796875 0.671875 1.65625 -0.3125q1.15625 -1.359375 1.90625 -1.609375q1.265625 -0.40625 2.4375 0.1875q1.21875 0.625 1.1875 1.90625q-0.0625 2.28125 -1.84375 3.140625q-2.75 1.34375 -4.15625 3.34375q-1.5 2.1875 -1.5625 4.296875z" fill-rule="nonzero"/></g></svg>