<svg version="1.1" viewBox="0.0 0.0 447.3543307086614 386.9396325459318" fill="none" stroke="none" stroke-linecap="square" stroke-miterlimit="10" xmlns:xlink="http://www.w3.org/1999/xlink" xmlns="http://www.w3.org/2000/svg"><clipPath id="p.0"><path d="m0 0l447.35434 0l0 386.93964l-447.35434 0l0 -386.93964z" clip-rule="nonzero"/></clipPath><g clip-path="url(#p.0)"><path fill="#ffffff" d="m0 0l447.35434 0l0 386.93964l-447.35434 0z" fill-rule="evenodd"/><path fill="#000000" fill-opacity="0.0" d="m26.79265 -2.5293922l406.36218 0l0 48.472443l-406.36218 0z" fill-rule="evenodd"/><path fill="#000000" d="m46.980152 14.119984q4.6875 0.3125 4.609375 5.09375q-0.046875 3.796875 -2.640625 6.890625q-1.421875 1.734375 -3.9375 1.734375q-2.578125 0 -4.109375 -1.59375q-1.296875 -1.34375 -1.296875 -3.46875q0 -4.234375 2.84375 -6.984375q1.921875 -1.84375 4.53125 -1.671875zm-0.140625 -2.328125q-4.1875 -0.046875 -6.640625 2.78125q-3.0625 3.5625 -3.0625 8.21875q0 2.984375 1.6875 4.84375q2.375 2.609375 6.1875 2.609375q3.671875 0 6.09375 -2.90625q2.828125 -3.390625 2.84375 -8.125q0.015625 -7.34375 -7.109375 -7.421875zm9.503906 5.453125q-0.984375 0.421875 -0.421875 1.90625l3.6875 9.609375q0.5 1.28125 1.421875 1.28125q0.890625 0 1.375 -1.28125l3.6874962 -9.609375q0.5625 -1.484375 -0.421875 -1.90625q-1.171875 -0.484375 -1.7031212 1.0l-2.96875 8.21875l-2.953125 -8.21875q-0.53125 -1.484375 -1.703125 -1.0zm13.312496 7.1875l7.875 -1.140625q1.265625 -0.171875 1.3125 -1.609375q0.046875 -1.796875 -1.390625 -3.203125q-1.515625 -1.5 -4.234375 -1.328125q-2.59375 0.15625 -4.234375 2.515625q-1.3125 1.890625 -1.3125 4.296875q0 2.9375 2.078125 4.640625q1.6875 1.390625 3.921875 1.40625q3.046875 0.03125 4.921875 -1.640625q1.0625 -0.953125 0.515625 -2.03125q-0.234375 -0.46875 -0.796875 -0.359375q-0.5 0.109375 -1.296875 0.984375q-0.8125 0.921875 -3.203125 0.9375q-1.640625 0.015625 -2.953125 -1.140625q-1.140625 -1.0 -1.203125 -2.328125zm0.265625 -1.9375q0.328125 -1.15625 0.84375 -1.796875q1.171875 -1.4375 2.78125 -1.4375q1.171875 -0.015625 2.203125 0.640625q0.890625 0.578125 1.0625 1.59375l-6.890625 1.0zm12.7890625 -5.8125q-1.078125 0 -1.109375 1.09375l-0.265625 10.953125q-0.03125 1.265625 1.015625 1.28125q1.234375 0.03125 1.265625 -1.25l0.203125 -7.6875q1.09375 -1.09375 2.421875 -1.34375q1.359375 -0.28125 2.421875 0.4375q1.34375 0.921875 1.859375 -0.578125q0.3125 -0.953125 -1.46875 -1.84375q-1.0 -0.5 -2.5625 -0.484375q-1.28125 0.03125 -2.59375 1.015625q0 -0.21875 0 -0.421875q0 -1.171875 -1.1875 -1.171875zm14.5 13.484375q1.09375 -0.015625 3.515625 -1.25q0.234375 1.5625 1.703125 1.25q1.28125 -0.25 0.28125 -1.96875q-0.6875 -1.171875 -0.640625 -3.984375q0.0625 -3.53125 0.328125 -5.0q0.28125 -1.5 -1.125 -1.8125q-0.71875 -0.15625 -1.0625 0.125q-3.0625 -0.96875 -5.875 1.34375q-2.453125 2.0 -2.421875 5.671875q0.03125 5.640625 5.296875 5.625zm1.359375 -2.359375q-0.890625 0.328125 -1.90625 0.265625q-2.421875 -0.171875 -2.46875 -3.75q0.109375 -2.765625 2.203125 -4.265625q0.515625 -0.390625 1.375 -0.609375q1.25 -0.296875 2.375 0.421875q-0.53125 1.890625 -0.109375 6.9375q-1.046875 0.84375 -1.46875 1.0zm8.53125 -17.171875q-1.046875 0.03125 -1.078125 1.09375l-0.390625 17.0q-0.03125 1.265625 1.03125 1.28125q1.265625 0.03125 1.265625 -1.25l0.375 -16.953125q0.015625 -1.171875 -1.203125 -1.171875zm6.5742188 0q-1.046875 0.03125 -1.078125 1.09375l-0.390625 17.0q-0.03125 1.265625 1.03125 1.28125q1.265625 0.03125 1.265625 -1.25l0.375 -16.953125q0.015625 -1.171875 -1.203125 -1.171875zm11.980469 -0.015625q-1.109375 0.09375 -0.953125 1.140625l0.625 4.078125q0.234375 1.5 1.140625 1.3125q0.890625 -0.171875 0.75 -1.6875l-0.359375 -3.890625q-0.09375 -1.0625 -1.203125 -0.953125zm5.9960938 4.375q-1.046875 1.765625 -0.578125 3.609375q0.796875 3.28125 5.15625 3.21875q4.5 -0.078125 4.96875 1.640625q0.4375 1.625 -1.125 3.140625q-0.796875 0.765625 -3.046875 1.171875q-1.265625 0.21875 -2.796875 -0.125q-1.125 -0.28125 -1.890625 -0.96875q-1.0 -0.875 -1.671875 -0.6875q-0.59375 0.171875 -0.703125 0.953125q-0.09375 0.703125 0.84375 1.53125q0.65625 0.578125 1.59375 0.953125q1.390625 0.59375 3.5 0.578125q2.859375 0 4.78125 -1.125q2.90625 -1.671875 3.0625 -4.578125q0.109375 -1.890625 -1.375 -3.40625q-1.171875 -1.21875 -3.6875 -1.296875q-2.828125 -0.09375 -3.53125 -0.203125q-1.890625 -0.265625 -1.6875 -2.390625q0.09375 -1.046875 1.21875 -1.921875q1.046875 -0.8125 3.0 -0.9375q1.265625 -0.0625 2.90625 0.5625q1.125 0.453125 1.5625 0.234375q0.671875 -0.328125 0.640625 -0.921875q-0.046875 -0.71875 -1.75 -1.46875q-1.21875 -0.53125 -2.9375 -0.609375q-1.96875 -0.0625 -3.65625 0.75q-2.015625 0.984375 -2.796875 2.296875zm16.796875 2.25q-1.1875 -0.03125 -1.21875 1.53125l-0.203125 9.828125q-0.03125 1.484375 1.21875 1.5q1.109375 0 1.125 -1.59375l0.171875 -9.75q0.015625 -1.5 -1.09375 -1.515625zm0.078125 -5.328125q-0.390625 0 -0.71875 0.203125q-0.3125 0.21875 -0.515625 0.5625q-0.1875 0.328125 -0.1875 0.703125q0 0.390625 0.203125 0.734375q0.203125 0.328125 0.515625 0.515625q0.3125 0.1875 0.671875 0.203125q0.03125 0 0.0625 0q0.375 0.015625 0.65625 -0.140625q0.28125 -0.125 0.515625 -0.4375q0.265625 -0.34375 0.296875 -0.765625q0 -0.0625 0 -0.109375q0 -0.375 -0.15625 -0.6875q-0.1875 -0.375 -0.5625 -0.578125q-0.328125 -0.203125 -0.734375 -0.203125q-0.015625 0 -0.046875 0zm5.7890625 4.765625q-1.078125 0 -1.09375 1.09375l-0.28125 10.859375q-0.03125 1.265625 1.03125 1.28125q1.21875 0.03125 1.25 -1.25l0.203125 -6.484375q0.625 -2.4375 2.65625 -2.359375q1.796875 0.046875 1.734375 3.390625l-0.125 5.375q-0.03125 1.421875 1.171875 1.3125q1.09375 -0.09375 1.125 -1.515625l0.140625 -5.875q0.015625 -0.671875 0.046875 -0.71875q0.78125 -2.015625 2.921875 -1.953125q1.859375 0.046875 1.8125 3.515625l-0.078125 5.40625q-0.015625 1.421875 1.25 1.296875q1.09375 -0.09375 1.125 -1.515625l0.09375 -5.8125q0.078125 -5.34375 -4.359375 -5.34375q-2.40625 -0.015625 -3.609375 1.71875q-0.84375 -1.75 -3.28125 -1.71875q-1.5 0 -2.546875 0.9375l0.015625 -0.46875q0.015625 -1.171875 -1.203125 -1.171875zm26.003906 13.71875q1.0625 0 1.078125 -1.09375l0.28125 -10.9375q0.03125 -1.265625 -1.03125 -1.296875q-1.234375 -0.015625 -1.28125 1.265625l-0.140625 5.921875q-0.046875 1.921875 -1.578125 2.6875q-1.6875 0.84375 -2.90625 0.03125q-0.890625 -0.625 -0.859375 -3.453125l0.015625 -5.125q0.03125 -1.40625 -1.21875 -1.296875q-1.09375 0.09375 -1.125 1.5l-0.046875 5.765625q-0.046875 5.328125 4.359375 5.34375q2.0 0 3.265625 -1.171875l0 0.703125q-0.03125 1.15625 1.1875 1.15625zm5.9179688 -19.765625q-1.046875 0.03125 -1.078125 1.09375l-0.390625 17.0q-0.03125 1.265625 1.03125 1.28125q1.265625 0.03125 1.265625 -1.25l0.375 -16.953125q0.015625 -1.171875 -1.203125 -1.171875zm8.964844 19.53125q1.09375 -0.015625 3.515625 -1.25q0.234375 1.5625 1.703125 1.25q1.28125 -0.25 0.28125 -1.96875q-0.6875 -1.171875 -0.640625 -3.984375q0.0625 -3.53125 0.328125 -5.0q0.28125 -1.5 -1.125 -1.8125q-0.71875 -0.15625 -1.0625 0.125q-3.0625 -0.96875 -5.875 1.34375q-2.453125 2.0 -2.421875 5.671875q0.03125 5.640625 5.296875 5.625zm1.359375 -2.359375q-0.890625 0.328125 -1.90625 0.265625q-2.421875 -0.171875 -2.46875 -3.75q0.109375 -2.765625 2.203125 -4.265625q0.515625 -0.390625 1.375 -0.609375q1.25 -0.296875 2.375 0.421875q-0.53125 1.890625 -0.109375 6.9375q-1.046875 0.84375 -1.46875 1.0zm10.78125 -17.171875q-1.046875 0 -1.078125 1.09375l-0.125 5.546875q-1.359375 0.015625 -2.703125 0.015625q-1.125 0 -1.125 1.171875q0 1.15625 1.015625 1.15625q1.375 0 2.75 0l-0.203125 9.109375q-0.03125 1.265625 1.03125 1.28125q1.265625 0.03125 1.265625 -1.25l0.203125 -9.140625q1.25 0 2.515625 0q1.359375 0 1.359375 -1.203125q0 -1.171875 -1.4375 -1.171875l-2.375 0.015625q0.078125 -2.46875 0.109375 -5.453125q0 -1.171875 -1.203125 -1.171875zm9.121094 6.609375q-1.1875 -0.03125 -1.21875 1.53125l-0.203125 9.828125q-0.03125 1.484375 1.21875 1.5q1.109375 0 1.125 -1.59375l0.171875 -9.75q0.015625 -1.5 -1.09375 -1.515625zm0.078125 -5.328125q-0.390625 0 -0.71875 0.203125q-0.3125 0.21875 -0.515625 0.5625q-0.1875 0.328125 -0.1875 0.703125q0 0.390625 0.203125 0.734375q0.203125 0.328125 0.515625 0.515625q0.3125 0.1875 0.671875 0.203125q0.03125 0 0.0625 0q0.375 0.015625 0.65625 -0.140625q0.28125 -0.125 0.515625 -0.4375q0.265625 -0.34375 0.296875 -0.765625q0 -0.0625 0 -0.109375q0 -0.375 -0.15625 -0.6875q-0.1875 -0.375 -0.5625 -0.578125q-0.328125 -0.203125 -0.734375 -0.203125q-0.015625 0 -0.046875 0zm9.8046875 7.6875q2.46875 -0.046875 2.453125 4.125q-0.015625 2.203125 -0.9375 3.203125q-0.875 0.9375 -2.15625 0.9375q-1.125 0 -1.984375 -0.9375q-0.84375 -0.921875 -0.84375 -2.75q0 -1.921875 1.171875 -3.515625q0.75 -1.03125 2.296875 -1.0625zm-0.09375 -2.390625q-2.5625 -0.015625 -4.109375 2.015625q-1.5625 2.0625 -1.5625 4.734375q0 2.828125 1.3125 4.390625q1.453125 1.71875 3.53125 1.734375q2.890625 0.015625 4.296875 -1.78125q1.25 -1.484375 1.265625 -4.34375q0 -6.71875 -4.734375 -6.75zm8.917969 -0.53125q-1.078125 0 -1.109375 1.09375l-0.265625 10.90625q-0.03125 1.25 1.015625 1.28125q1.25 0.015625 1.296875 -1.265625l0.1875 -7.09375q1.859375 -1.859375 3.484375 -1.734375q1.9375 0.140625 1.859375 3.375l-0.140625 5.546875q-0.046875 1.421875 1.234375 1.3125q1.109375 -0.09375 1.125 -1.515625l0.09375 -5.859375q0.078125 -5.34375 -4.34375 -5.34375q-2.0 0 -3.265625 1.15625q0 -0.359375 0.015625 -0.6875q0.03125 -1.171875 -1.1875 -1.171875zm20.21875 -1.6875q-1.046875 1.765625 -0.578125 3.609375q0.796875 3.28125 5.1562653 3.21875q4.5 -0.078125 4.96875 1.640625q0.4375 1.625 -1.125 3.140625q-0.796875 0.765625 -3.046875 1.171875q-1.265625 0.21875 -2.796875 -0.125q-1.125 -0.28125 -1.890625 -0.96875q-1.0000153 -0.875 -1.6718903 -0.6875q-0.59375 0.171875 -0.703125 0.953125q-0.09375 0.703125 0.84375 1.53125q0.65625 0.578125 1.5937653 0.953125q1.390625 0.59375 3.5 0.578125q2.859375 0 4.78125 -1.125q2.90625 -1.671875 3.0625 -4.578125q0.109375 -1.890625 -1.375 -3.40625q-1.171875 -1.21875 -3.6875 -1.296875q-2.828125 -0.09375 -3.53125 -0.203125q-1.890625 -0.265625 -1.6875 -2.390625q0.09375 -1.046875 1.21875 -1.921875q1.046875 -0.8125 3.0 -0.9375q1.265625 -0.0625 2.90625 0.5625q1.125 0.453125 1.5625 0.234375q0.671875 -0.328125 0.640625 -0.921875q-0.046875 -0.71875 -1.75 -1.46875q-1.21875 -0.53125 -2.9375 -0.609375q-1.96875 -0.0625 -3.65625 0.75q-2.015625 0.984375 -2.7968903 2.296875zm18.98439 -4.359375q-1.046875 0 -1.078125 1.09375l-0.125 5.546875q-1.359375 0.015625 -2.703125 0.015625q-1.125 0 -1.125 1.171875q0 1.15625 1.015625 1.15625q1.375 0 2.75 0l-0.203125 9.109375q-0.03125 1.265625 1.03125 1.28125q1.265625 0.03125 1.265625 -1.25l0.203125 -9.140625q1.25 0 2.515625 0q1.359375 0 1.359375 -1.203125q0 -1.171875 -1.4375 -1.171875l-2.375 0.015625q0.078125 -2.46875 0.109375 -5.453125q0 -1.171875 -1.203125 -1.171875zm11.449219 19.53125q1.09375 -0.015625 3.515625 -1.25q0.234375 1.5625 1.703125 1.25q1.28125 -0.25 0.28125 -1.96875q-0.6875 -1.171875 -0.640625 -3.984375q0.0625 -3.53125 0.328125 -5.0q0.28125 -1.5 -1.125 -1.8125q-0.71875 -0.15625 -1.0625 0.125q-3.0625 -0.96875 -5.875 1.34375q-2.453125 2.0 -2.421875 5.671875q0.03125 5.640625 5.296875 5.625zm1.359375 -2.359375q-0.890625 0.328125 -1.90625 0.265625q-2.421875 -0.171875 -2.46875 -3.75q0.109375 -2.765625 2.203125 -4.265625q0.515625 -0.390625 1.375 -0.609375q1.25 -0.296875 2.375 0.421875q-0.53125 1.890625 -0.109375 6.9375q-1.046875 0.84375 -1.46875 1.0zm10.78125 -17.171875q-1.046875 0 -1.078125 1.09375l-0.125 5.546875q-1.359375 0.015625 -2.703125 0.015625q-1.125 0 -1.125 1.171875q0 1.15625 1.015625 1.15625q1.375 0 2.75 0l-0.203125 9.109375q-0.03125 1.265625 1.03125 1.28125q1.265625 0.03125 1.265625 -1.25l0.203125 -9.140625q1.25 0 2.515625 0q1.359375 0 1.359375 -1.203125q0 -1.171875 -1.4375 -1.171875l-2.375 0.015625q0.078125 -2.46875 0.109375 -5.453125q0 -1.171875 -1.203125 -1.171875zm8.574219 13.796875l7.875 -1.140625q1.265625 -0.171875 1.3125 -1.609375q0.046875 -1.796875 -1.390625 -3.203125q-1.515625 -1.5 -4.234375 -1.328125q-2.59375 0.15625 -4.234375 2.515625q-1.3125 1.890625 -1.3125 4.296875q0 2.9375 2.078125 4.640625q1.6875 1.390625 3.921875 1.40625q3.046875 0.03125 4.921875 -1.640625q1.0625 -0.953125 0.515625 -2.03125q-0.234375 -0.46875 -0.796875 -0.359375q-0.5 0.109375 -1.296875 0.984375q-0.8125 0.921875 -3.203125 0.9375q-1.640625 0.015625 -2.953125 -1.140625q-1.140625 -1.0 -1.203125 -2.328125zm0.265625 -1.9375q0.328125 -1.15625 0.84375 -1.796875q1.171875 -1.4375 2.78125 -1.4375q1.171875 -0.015625 2.203125 0.640625q0.890625 0.578125 1.0625 1.59375l-6.890625 1.0zm12.1796875 -11.875q-1.125 -0.109375 -1.21875 0.953125l-0.34375 3.890625q-0.125 1.515625 0.734375 1.6875q0.921875 0.1875 1.15625 -1.3125l0.609375 -4.078125q0.171875 -1.046875 -0.9375 -1.140625zm12.808594 1.015625q-1.0625 0 -1.078125 1.046875l-0.40625 16.234375q-0.03125 1.203125 1.03125 1.234375q0.234375 0 0.40625 -0.046875q1.09375 0.0625 3.5625 0.03125q4.1875 -0.0625 5.640625 -1.234375q3.15625 -2.53125 3.328125 -5.703125q0.265625 -4.359375 -4.296875 -8.25q-3.203125 -2.734375 -7.390625 -3.21875q-0.140625 -0.015625 -0.28125 -0.03125q-0.234375 -0.0625 -0.515625 -0.0625zm1.15625 2.75q3.109375 0.171875 5.546875 2.453125q3.609375 3.3125 3.421875 6.234375q-0.109375 1.671875 -1.703125 3.453125q-1.1875 1.3125 -5.046875 1.40625l-2.53125 -0.046875l0.3125 -13.5zm18.429688 15.78125q1.09375 -0.015625 3.515625 -1.25q0.234375 1.5625 1.703125 1.25q1.28125 -0.25 0.28125 -1.96875q-0.6875 -1.171875 -0.640625 -3.984375q0.0625 -3.53125 0.328125 -5.0q0.28125 -1.5 -1.125 -1.8125q-0.71875 -0.15625 -1.0625 0.125q-3.0625 -0.96875 -5.875 1.34375q-2.453125 2.0 -2.421875 5.671875q0.03125 5.640625 5.296875 5.625zm1.359375 -2.359375q-0.890625 0.328125 -1.90625 0.265625q-2.421875 -0.171875 -2.46875 -3.75q0.109375 -2.765625 2.203125 -4.265625q0.515625 -0.390625 1.375 -0.609375q1.25 -0.296875 2.375 0.421875q-0.53125 1.890625 -0.109375 6.9375q-1.046875 0.84375 -1.46875 1.0zm10.78125 -17.171875q-1.046875 0 -1.078125 1.09375l-0.125 5.546875q-1.359375 0.015625 -2.703125 0.015625q-1.125 0 -1.125 1.171875q0 1.15625 1.015625 1.15625q1.375 0 2.75 0l-0.203125 9.109375q-0.03125 1.265625 1.03125 1.28125q1.265625 0.03125 1.265625 -1.25l0.203125 -9.140625q1.25 0 2.515625 0q1.359375 0 1.359375 -1.203125q0 -1.171875 -1.4375 -1.171875l-2.375 0.015625q0.078125 -2.46875 0.109375 -5.453125q0 -1.171875 -1.203125 -1.171875zm11.449219 19.53125q1.09375 -0.015625 3.515625 -1.25q0.234375 1.5625 1.703125 1.25q1.28125 -0.25 0.28125 -1.96875q-0.6875 -1.171875 -0.640625 -3.984375q0.0625 -3.53125 0.328125 -5.0q0.28125 -1.5 -1.125 -1.8125q-0.71875 -0.15625 -1.0625 0.125q-3.0625 -0.96875 -5.875 1.34375q-2.453125 2.0 -2.421875 5.671875q0.03125 5.640625 5.296875 5.625zm1.359375 -2.359375q-0.890625 0.328125 -1.90625 0.265625q-2.421875 -0.171875 -2.46875 -3.75q0.109375 -2.765625 2.203125 -4.265625q0.515625 -0.390625 1.375 -0.609375q1.25 -0.296875 2.375 0.421875q-0.53125 1.890625 -0.109375 6.9375q-1.046875 0.84375 -1.46875 1.0z" fill-rule="nonzero"/><path fill="#000000" fill-opacity="0.0" d="m10.732284 45.727776l384.8819 0" fill-rule="evenodd"/><path stroke="#000000" stroke-width="3.0" stroke-linejoin="round" stroke-linecap="butt" d="m10.732284 45.727776l384.8819 0" fill-rule="evenodd"/><path fill="#000000" fill-opacity="0.0" d="m392.34647 45.727776l43.055115 0" fill-rule="evenodd"/><path stroke="#000000" stroke-width="3.0" stroke-linejoin="round" stroke-linecap="butt" stroke-dasharray="3.0,9.0" d="m392.34647 45.727776l43.055115 0" fill-rule="evenodd"/><path fill="#000000" fill-opacity="0.0" d="m10.367455 200.06111l384.88187 0" fill-rule="evenodd"/><path stroke="#000000" stroke-width="3.0" stroke-linejoin="round" stroke-linecap="butt" d="m10.367455 200.06111l384.88187 0" fill-rule="evenodd"/><path fill="#000000" fill-opacity="0.0" d="m391.98163 200.06111l43.055115 0" fill-rule="evenodd"/><path stroke="#000000" stroke-width="3.0" stroke-linejoin="round" stroke-linecap="butt" stroke-dasharray="3.0,9.0" d="m391.98163 200.06111l43.055115 0" fill-rule="evenodd"/><path fill="#000000" fill-opacity="0.0" d="m10.367455 369.3577l384.88187 0" fill-rule="evenodd"/><path stroke="#000000" stroke-width="3.0" stroke-linejoin="round" stroke-linecap="butt" d="m10.367455 369.3577l384.88187 0" fill-rule="evenodd"/><path fill="#000000" fill-opacity="0.0" d="m391.98163 369.3577l43.055115 0" fill-rule="evenodd"/><path stroke="#000000" stroke-width="3.0" stroke-linejoin="round" stroke-linecap="butt" stroke-dasharray="3.0,9.0" d="m391.98163 369.3577l43.055115 0" fill-rule="evenodd"/><path fill="#000000" fill-opacity="0.0" d="m11.6587925 45.727776l0 323.55905" fill-rule="evenodd"/><path stroke="#000000" stroke-width="3.0" stroke-linejoin="round" stroke-linecap="butt" d="m11.6587925 45.727776l0 323.55905" fill-rule="evenodd"/><path fill="#000000" fill-opacity="0.0" d="m175.55511 45.727776l0 323.55905" fill-rule="evenodd"/><path stroke="#000000" stroke-width="3.0" stroke-linejoin="round" stroke-linecap="butt" d="m175.55511 45.727776l0 323.55905" fill-rule="evenodd"/><path fill="#000000" fill-opacity="0.0" d="m333.86877 45.727776l0 323.55905" fill-rule="evenodd"/><path stroke="#000000" stroke-width="3.0" stroke-linejoin="round" stroke-linecap="butt" d="m333.86877 45.727776l0 323.55905" fill-rule="evenodd"/><path fill="#000000" fill-opacity="0.0" d="m43.349083 79.256645l123.30709 0l0 87.2756l-123.30709 0z" fill-rule="evenodd"/><path fill="#000000" d="m55.005333 94.89539q-0.8125 1.375 -0.453125 2.8125q0.625 2.546875 4.015625 2.5q3.484375 -0.0625 3.859375 1.265625q0.34375 1.265625 -0.875 2.4375q-0.625 0.609375 -2.375 0.921875q-0.984375 0.171875 -2.15625 -0.109375q-0.875 -0.203125 -1.484375 -0.75q-0.78125 -0.671875 -1.296875 -0.53125q-0.453125 0.140625 -0.546875 0.734375q-0.0625 0.546875 0.65625 1.203125q0.515625 0.4375 1.25 0.75q1.078125 0.453125 2.71875 0.4375q2.21875 -0.015625 3.71875 -0.875q2.25 -1.296875 2.375 -3.5625q0.078125 -1.46875 -1.0625 -2.65625q-0.921875 -0.9375 -2.875 -1.0q-2.1875 -0.0625 -2.75 -0.15625q-1.46875 -0.203125 -1.3125 -1.84375q0.078125 -0.828125 0.953125 -1.5q0.8125 -0.640625 2.328125 -0.734375q0.984375 -0.046875 2.25 0.4375q0.890625 0.34375 1.234375 0.1875q0.515625 -0.25 0.484375 -0.71875q-0.03125 -0.5625 -1.359375 -1.15625q-0.9375 -0.40625 -2.28125 -0.453125q-1.515625 -0.0625 -2.828125 0.578125q-1.578125 0.75 -2.1875 1.78125zm14.763611 -3.390625q-0.828125 0 -0.84375 0.859375l-0.09375 4.296875q-1.0625 0.015625 -2.109375 0.015625q-0.859375 0 -0.859375 0.921875q0 0.890625 0.78125 0.890625q1.0625 0 2.140625 0l-0.171875 7.09375q-0.015625 0.96875 0.8125 0.984375q0.984375 0.015625 0.984375 -0.96875l0.15625 -7.109375q0.984375 0 1.953125 0q1.0625 0 1.0625 -0.9375q0 -0.90625 -1.125 -0.90625l-1.84375 0.015625q0.0625 -1.921875 0.078125 -4.25q0 -0.90625 -0.921875 -0.90625zm8.90004 15.1875q0.84375 -0.015625 2.734375 -0.96875q0.171875 1.203125 1.3125 0.96875q1.0 -0.203125 0.21875 -1.53125q-0.53125 -0.921875 -0.484375 -3.109375q0.046875 -2.734375 0.25 -3.875q0.21875 -1.171875 -0.875 -1.40625q-0.5625 -0.125 -0.828125 0.09375q-2.390625 -0.75 -4.578125 1.046875q-1.890625 1.546875 -1.875 4.40625q0.03125 4.375 4.125 4.375zm1.046875 -1.84375q-0.6875 0.265625 -1.484375 0.203125q-1.875 -0.125 -1.90625 -2.90625q0.078125 -2.140625 1.703125 -3.3125q0.40625 -0.3125 1.078125 -0.46875q0.96875 -0.234375 1.84375 0.3125q-0.421875 1.484375 -0.09375 5.390625q-0.8125 0.671875 -1.140625 0.78125zm8.390503 -13.34375q-0.828125 0 -0.84375 0.859375l-0.09375 4.296875q-1.0625 0.015625 -2.109375 0.015625q-0.859375 0 -0.859375 0.921875q0 0.890625 0.78125 0.890625q1.0625 0 2.140625 0l-0.171875 7.09375q-0.015625 0.96875 0.8125 0.984375q0.984375 0.015625 0.984375 -0.96875l0.15625 -7.109375q0.984375 0 1.953125 0q1.0625 0 1.0625 -0.9375q0 -0.90625 -1.125 -0.90625l-1.84375 0.015625q0.0625 -1.921875 0.078125 -4.25q0 -0.90625 -0.921875 -0.90625zm6.6656647 10.734375l6.125 -0.890625q0.96875 -0.140625 1.0 -1.25q0.046875 -1.40625 -1.0625 -2.5q-1.1875 -1.15625 -3.296875 -1.03125q-2.015625 0.125 -3.296875 1.953125q-1.015625 1.46875 -1.015625 3.34375q0 2.28125 1.625 3.609375q1.296875 1.078125 3.03125 1.09375q2.375 0.015625 3.828125 -1.28125q0.828125 -0.734375 0.40625 -1.578125q-0.1875 -0.359375 -0.625 -0.265625q-0.390625 0.078125 -1.0 0.75q-0.640625 0.71875 -2.5 0.734375q-1.265625 0.015625 -2.296875 -0.890625q-0.875 -0.78125 -0.921875 -1.796875zm0.203125 -1.515625q0.25 -0.890625 0.65625 -1.390625q0.90625 -1.125 2.171875 -1.125q0.890625 -0.015625 1.703125 0.5q0.6875 0.453125 0.828125 1.234375l-5.359375 0.78125z" fill-rule="nonzero"/><path fill="#000000" d="m54.364708 114.74851q-0.828125 0 -0.84375 0.796875l-0.3125 12.484383q-0.015625 0.921875 0.796875 0.953125q0.984375 0.015625 1.0 -0.9375l0.109375 -4.8750076q0.234375 0.03125 0.5 0.015625q3.828125 -0.21875 4.8125 -1.421875q1.65625 -2.09375 0.765625 -4.40625q-0.890625 -2.296875 -4.078125 -2.609375q-0.953125 -0.09375 -2.375 0.03125q-0.171875 -0.03125 -0.375 -0.03125zm0.90625 1.828125q0.734375 -0.078125 1.265625 -0.09375q2.0625 -0.015625 2.8125 1.375q0.609375 1.1875 -0.171875 2.546875q-0.796875 1.390625 -4.015625 1.046875l0.109375 -4.875zm11.382599 12.515633q0.84375 -0.015625 2.734375 -0.96875q0.171875 1.203125 1.3125 0.96875q1.0 -0.203125 0.21875 -1.5312576q-0.53125 -0.921875 -0.484375 -3.109375q0.046875 -2.734375 0.25 -3.875q0.21875 -1.171875 -0.875 -1.40625q-0.5625 -0.125 -0.828125 0.09375q-2.390625 -0.75 -4.578125 1.046875q-1.890625 1.546875 -1.875 4.40625q0.03125 4.3750076 4.125 4.3750076zm1.046875 -1.8437576q-0.6875 0.265625 -1.484375 0.203125q-1.875 -0.125 -1.90625 -2.90625q0.078125 -2.140625 1.703125 -3.3125q0.40625 -0.3125 1.078125 -0.46875q0.96875 -0.234375 1.84375 0.3125q-0.421875 1.484375 -0.09375 5.390625q-0.8125 0.671875 -1.140625 0.78125zm6.187378 -8.640625q-0.84375 0 -0.859375 0.84375l-0.203125 8.53125q-0.03125 0.9687576 0.78125 0.9843826q0.953125 0.015625 0.984375 -0.9687576l0.15625 -5.984375q0.859375 -0.84375 1.890625 -1.046875q1.046875 -0.203125 1.875 0.34375q1.046875 0.71875 1.453125 -0.453125q0.234375 -0.734375 -1.140625 -1.421875q-0.78125 -0.390625 -2.0 -0.375q-0.984375 0.015625 -2.015625 0.78125q0 -0.171875 0 -0.328125q0 -0.90625 -0.921875 -0.90625zm11.16687 -4.703125q-0.828125 0 -0.84375 0.859375l-0.09375 4.296875q-1.0625 0.015625 -2.109375 0.015625q-0.859375 0 -0.859375 0.921875q0 0.890625 0.78125 0.890625q1.0625 0 2.140625 0l-0.171875 7.09375q-0.015625 0.9687576 0.8125 0.9843826q0.984375 0.015625 0.984375 -0.9687576l0.15625 -7.109375q0.984375 0 1.953125 0q1.0625 0 1.0625 -0.9375q0 -0.90625 -1.125 -0.90625l-1.84375 0.015625q0.0625 -1.921875 0.078125 -4.25q0 -0.90625 -0.921875 -0.90625zm7.0875397 5.140625q-0.921875 -0.03125 -0.953125 1.1875l-0.15625 7.640625q-0.015625 1.1562576 0.953125 1.1562576q0.859375 0 0.875 -1.2343826l0.125 -7.578125q0.015625 -1.15625 -0.84375 -1.171875zm0.0625 -4.140625q-0.3125 0 -0.5625 0.171875q-0.234375 0.15625 -0.390625 0.421875q-0.15625 0.25 -0.15625 0.546875q0 0.3125 0.15625 0.578125q0.15625 0.25 0.40625 0.390625q0.234375 0.15625 0.515625 0.15625q0.03125 0 0.0625 0q0.28125 0.015625 0.5 -0.109375q0.21875 -0.09375 0.40625 -0.328125q0.203125 -0.265625 0.234375 -0.59375q0 -0.046875 0 -0.09375q0 -0.28125 -0.140625 -0.53125q-0.140625 -0.296875 -0.421875 -0.453125q-0.265625 -0.15625 -0.578125 -0.15625q-0.015625 0 -0.03125 0zm6.8694763 -1.0q-0.828125 0 -0.84375 0.859375l-0.09375 4.296875q-1.0625 0.015625 -2.109375 0.015625q-0.859375 0 -0.859375 0.921875q0 0.890625 0.78125 0.890625q1.0625 0 2.140625 0l-0.171875 7.09375q-0.015625 0.9687576 0.8125 0.9843826q0.984375 0.015625 0.984375 -0.9687576l0.15625 -7.109375q0.984375 0 1.953125 0q1.0625 0 1.0625 -0.9375q0 -0.90625 -1.125 -0.90625l-1.84375 0.015625q0.0625 -1.921875 0.078125 -4.25q0 -0.90625 -0.921875 -0.90625zm7.0875397 5.140625q-0.921875 -0.03125 -0.953125 1.1875l-0.15625 7.640625q-0.015625 1.1562576 0.953125 1.1562576q0.859375 0 0.875 -1.2343826l0.125 -7.578125q0.015625 -1.15625 -0.84375 -1.171875zm0.0625 -4.140625q-0.3125 0 -0.5625 0.171875q-0.234375 0.15625 -0.390625 0.421875q-0.15625 0.25 -0.15625 0.546875q0 0.3125 0.15625 0.578125q0.15625 0.25 0.40625 0.390625q0.234375 0.15625 0.515625 0.15625q0.03125 0 0.0625 0q0.28125 0.015625 0.5 -0.109375q0.21875 -0.09375 0.40625 -0.328125q0.203125 -0.265625 0.234375 -0.59375q0 -0.046875 0 -0.09375q0 -0.28125 -0.140625 -0.53125q-0.140625 -0.296875 -0.421875 -0.453125q-0.265625 -0.15625 -0.578125 -0.15625q-0.015625 0 -0.03125 0zm7.6194763 5.96875q1.921875 -0.03125 1.90625 3.21875q-0.015625 1.703125 -0.734375 2.484375q-0.671875 0.71875 -1.671875 0.71875q-0.875 0 -1.546875 -0.71875q-0.65625 -0.71875 -0.65625 -2.140625q0 -1.484375 0.90625 -2.734375q0.59375 -0.796875 1.796875 -0.828125zm-0.078125 -1.859375q-1.984375 -0.015625 -3.1875 1.578125q-1.21875 1.59375 -1.21875 3.671875q0 2.203125 1.015625 3.40625q1.125 1.3437576 2.75 1.3593826q2.25 0.015625 3.34375 -1.3750076q0.96875 -1.171875 0.984375 -3.390625q0 -5.21875 -3.6875 -5.25zm6.9359283 -0.40625q-0.84375 0 -0.859375 0.84375l-0.203125 8.484375q-0.03125 0.9687576 0.78125 0.9843826q0.984375 0.015625 1.0 -0.9687576l0.15625 -5.515625q1.4375 -1.453125 2.703125 -1.359375q1.515625 0.109375 1.453125 2.625l-0.109375 4.3125076q-0.03125 1.109375 0.953125 1.015625q0.859375 -0.078125 0.875 -1.1718826l0.078125 -4.5625q0.0625 -4.140625 -3.375 -4.140625q-1.546875 0 -2.546875 0.890625q0.015625 -0.265625 0.015625 -0.53125q0.03125 -0.90625 -0.921875 -0.90625z" fill-rule="nonzero"/><path fill="#000000" d="m57.614708 152.92976q-1.8125 -1.21875 -2.296875 -5.25q-0.296875 -2.4375 0.203125 -4.8125q0.578125 -2.78125 1.921875 -4.03125q1.671875 -1.5 0.96875 -2.234375q-0.640625 -0.671875 -2.09375 0.859375q-1.046875 1.125 -1.796875 2.890625q-1.0625 2.4375 -1.15625 4.890625q-0.09375 2.84375 0.765625 5.53125q0.609375 1.890625 2.0625 3.203125q1.453125 1.34375 2.125 0.828125q0.96875 -0.75 -0.703125 -1.875zm4.347748 -11.484375q-0.921875 -0.03125 -0.953125 1.1875l-0.15625 7.640625q-0.015625 1.15625 0.953125 1.15625q0.859375 0 0.875 -1.234375l0.125 -7.578125q0.015625 -1.15625 -0.84375 -1.171875zm0.0625 -4.140625q-0.3125 0 -0.5625 0.171875q-0.234375 0.15625 -0.390625 0.421875q-0.15625 0.25 -0.15625 0.546875q0 0.3125 0.15625 0.578125q0.15625 0.25 0.40625 0.390625q0.234375 0.15625 0.515625 0.15625q0.03125 0 0.0625 0q0.28125 0.015625 0.5 -0.109375q0.21875 -0.09375 0.40625 -0.328125q0.203125 -0.265625 0.234375 -0.59375q0 -0.046875 0 -0.09375q0 -0.28125 -0.140625 -0.53125q-0.140625 -0.296875 -0.421875 -0.453125q-0.265625 -0.15625 -0.578125 -0.15625q-0.015625 0 -0.03125 0zm4.6663513 3.703125q-0.84375 0 -0.859375 0.84375l-0.203125 8.484375q-0.03125 0.96875 0.78125 0.984375q0.984375 0.015625 1.0 -0.96875l0.15625 -5.515625q1.4375 -1.453125 2.703125 -1.359375q1.515625 0.109375 1.453125 2.625l-0.109375 4.3125q-0.03125 1.109375 0.953125 1.015625q0.859375 -0.078125 0.875 -1.171875l0.078125 -4.5625q0.0625 -4.140625 -3.375 -4.140625q-1.546875 0 -2.546875 0.890625q0.015625 -0.265625 0.015625 -0.53125q0.03125 -0.90625 -0.921875 -0.90625zm16.60913 -4.703125q-0.8125 0.03125 -0.828125 0.859375l-0.140625 5.25q-0.34375 -0.25 -0.78125 -0.5q-0.8125 -0.453125 -1.90625 -0.453125q-2.046875 0 -3.3125 1.546875q-1.34375 1.65625 -1.25 4.078125q0.0625 1.796875 1.421875 3.140625q1.203125 1.203125 2.78125 1.203125q1.53125 0.015625 2.875 -0.84375q0.0625 0.765625 0.796875 0.78125q0.984375 0.015625 1.0 -0.96875l0.28125 -13.1875q0.015625 -0.90625 -0.9375 -0.90625zm-1.109375 12.21875q-1.625 1.28125 -2.90625 1.125q-1.203125 -0.125 -1.828125 -0.953125q-0.78125 -1.0 -0.765625 -2.046875q0.046875 -1.609375 0.765625 -2.515625q0.515625 -0.625 1.65625 -0.90625q1.5625 -0.390625 3.171875 1.28125q0 2.125 -0.09375 4.015625zm5.302475 -1.484375l6.125 -0.890625q0.96875 -0.140625 1.0 -1.25q0.046875 -1.40625 -1.0625 -2.5q-1.1875 -1.15625 -3.296875 -1.03125q-2.015625 0.125 -3.296875 1.953125q-1.015625 1.46875 -1.015625 3.34375q0 2.28125 1.625 3.609375q1.296875 1.078125 3.03125 1.09375q2.375 0.015625 3.828125 -1.28125q0.828125 -0.734375 0.40625 -1.578125q-0.1875 -0.359375 -0.625 -0.265625q-0.390625 0.078125 -1.0 0.75q-0.640625 0.71875 -2.5 0.734375q-1.265625 0.015625 -2.296875 -0.890625q-0.875 -0.78125 -0.921875 -1.796875zm0.203125 -1.515625q0.25 -0.890625 0.65625 -1.390625q0.90625 -1.125 2.171875 -1.125q0.890625 -0.015625 1.703125 0.5q0.6875 0.453125 0.828125 1.234375l-5.359375 0.78125zm8.752106 -3.90625q-0.734375 0.59375 0.015625 1.421875l3.1875 3.46875l-2.9375 3.125q-0.90625 0.96875 -0.1875 1.59375q0.65625 0.5625 1.515625 -0.40625l2.703125 -3.015625l2.703125 3.015625q0.875 0.96875 1.515625 0.40625q0.71875 -0.625 -0.1875 -1.59375l-2.875 -3.140625l3.125 -3.453125q0.765625 -0.828125 0.015625 -1.421875q-0.6875 -0.546875 -1.5 0.390625l-2.796875 3.21875l-2.78125 -3.21875q-0.828125 -0.9375 -1.515625 -0.390625zm21.38527 -2.734375q3.0 0 3.0 5.140625q0 5.71875 -3.28125 5.71875q-3.25 0 -3.25 -5.578125q0 -5.28125 3.53125 -5.28125zm-0.03125 -1.71875q-5.296875 0 -5.296875 7.03125q0 7.234375 5.046875 7.234375q5.140625 0 5.140625 -7.375q0 -6.890625 -4.890625 -6.890625zm7.6368713 15.765625q-1.671875 1.125 -0.703125 1.875q0.671875 0.515625 2.125 -0.828125q1.4531174 -1.3125 2.0624924 -3.203125q0.859375 -2.6875 0.765625 -5.53125q-0.09375 -2.453125 -1.15625 -4.890625q-0.7343674 -1.765625 -1.7968674 -2.890625q-1.453125 -1.53125 -2.09375 -0.859375q-0.6875 0.734375 0.96875 2.234375q1.34375 1.25 1.921875 4.03125q0.49999237 2.375 0.203125 4.8125q-0.484375 4.03125 -2.296875 5.25z" fill-rule="nonzero"/><path fill="#000000" fill-opacity="0.0" d="m208.71507 79.25726l123.30708 0l0 87.27559l-123.30708 0z" fill-rule="evenodd"/><path fill="#000000" d="m220.37132 94.89601q-0.8125 1.375 -0.453125 2.8125q0.625 2.546875 4.015625 2.5q3.484375 -0.0625 3.859375 1.265625q0.34375 1.265625 -0.875 2.4375q-0.625 0.609375 -2.375 0.921875q-0.984375 0.171875 -2.15625 -0.109375q-0.875 -0.203125 -1.484375 -0.75q-0.78125 -0.671875 -1.296875 -0.53125q-0.453125 0.140625 -0.546875 0.734375q-0.0625 0.546875 0.65625 1.203125q0.515625 0.4375 1.25 0.75q1.078125 0.453125 2.71875 0.4375q2.21875 -0.015625 3.71875 -0.875q2.25 -1.296875 2.375 -3.5625q0.078125 -1.46875 -1.0625 -2.65625q-0.921875 -0.9375 -2.875 -1.0q-2.1875 -0.0625 -2.75 -0.15625q-1.46875 -0.203125 -1.3125 -1.84375q0.078125 -0.828125 0.953125 -1.5q0.8125 -0.640625 2.328125 -0.734375q0.984375 -0.046875 2.25 0.4375q0.890625 0.34375 1.234375 0.1875q0.515625 -0.25 0.484375 -0.71875q-0.03125 -0.5625 -1.359375 -1.15625q-0.9375 -0.40625 -2.28125 -0.453125q-1.515625 -0.0625 -2.828125 0.578125q-1.578125 0.75 -2.1875 1.78125zm14.763611 -3.390625q-0.828125 0 -0.84375 0.859375l-0.09375 4.296875q-1.0625 0.015625 -2.109375 0.015625q-0.859375 0 -0.859375 0.921875q0 0.890625 0.78125 0.890625q1.0625 0 2.140625 0l-0.171875 7.09375q-0.015625 0.96875 0.8125 0.984375q0.984375 0.015625 0.984375 -0.96875l0.15625 -7.109375q0.984375 0 1.953125 0q1.0625 0 1.0625 -0.9375q0 -0.90625 -1.125 -0.90625l-1.84375 0.015625q0.0625 -1.921875 0.078125 -4.25q0 -0.90625 -0.921875 -0.90625zm8.90004 15.1875q0.84375 -0.015625 2.734375 -0.96875q0.171875 1.203125 1.3125 0.96875q1.0 -0.203125 0.21875 -1.53125q-0.53125 -0.921875 -0.484375 -3.109375q0.046875 -2.734375 0.25 -3.875q0.21875 -1.171875 -0.875 -1.40625q-0.5625 -0.125 -0.828125 0.09375q-2.390625 -0.75 -4.578125 1.046875q-1.890625 1.546875 -1.875 4.40625q0.03125 4.375 4.125 4.375zm1.046875 -1.84375q-0.6875 0.265625 -1.484375 0.203125q-1.875 -0.125 -1.90625 -2.90625q0.078125 -2.140625 1.703125 -3.3125q0.40625 -0.3125 1.078125 -0.46875q0.96875 -0.234375 1.84375 0.3125q-0.421875 1.484375 -0.09375 5.390625q-0.8125 0.671875 -1.140625 0.78125zm8.390503 -13.34375q-0.828125 0 -0.84375 0.859375l-0.09375 4.296875q-1.0625 0.015625 -2.109375 0.015625q-0.859375 0 -0.859375 0.921875q0 0.890625 0.78125 0.890625q1.0625 0 2.140625 0l-0.171875 7.09375q-0.015625 0.96875 0.8125 0.984375q0.984375 0.015625 0.984375 -0.96875l0.15625 -7.109375q0.984375 0 1.953125 0q1.0625 0 1.0625 -0.9375q0 -0.90625 -1.125 -0.90625l-1.84375 0.015625q0.0625 -1.921875 0.078125 -4.25q0 -0.90625 -0.921875 -0.90625zm6.66568 10.734375l6.125 -0.890625q0.96875 -0.140625 1.0 -1.25q0.046875 -1.40625 -1.0625 -2.5q-1.1875 -1.15625 -3.296875 -1.03125q-2.015625 0.125 -3.296875 1.953125q-1.015625 1.46875 -1.015625 3.34375q0 2.28125 1.625 3.609375q1.296875 1.078125 3.03125 1.09375q2.375 0.015625 3.828125 -1.28125q0.828125 -0.734375 0.40625 -1.578125q-0.1875 -0.359375 -0.625 -0.265625q-0.390625 0.078125 -1.0 0.75q-0.640625 0.71875 -2.5 0.734375q-1.265625 0.015625 -2.296875 -0.890625q-0.875 -0.78125 -0.921875 -1.796875zm0.203125 -1.515625q0.25 -0.890625 0.65625 -1.390625q0.90625 -1.125 2.171875 -1.125q0.890625 -0.015625 1.703125 0.5q0.6875 0.453125 0.828125 1.234375l-5.359375 0.78125z" fill-rule="nonzero"/><path fill="#000000" d="m219.7307 114.74914q-0.828125 0 -0.84375 0.796875l-0.3125 12.484367q-0.015625 0.921875 0.796875 0.953125q0.984375 0.015625 1.0 -0.9375l0.109375 -4.8749924q0.234375 0.03125 0.5 0.015625q3.828125 -0.21875 4.8125 -1.421875q1.65625 -2.09375 0.765625 -4.40625q-0.890625 -2.296875 -4.078125 -2.609375q-0.953125 -0.09375 -2.375 0.03125q-0.171875 -0.03125 -0.375 -0.03125zm0.90625 1.828125q0.734375 -0.078125 1.265625 -0.09375q2.0625 -0.015625 2.8125 1.375q0.609375 1.1875 -0.171875 2.546875q-0.796875 1.390625 -4.015625 1.046875l0.109375 -4.875zm11.382599 12.515617q0.84375 -0.015625 2.734375 -0.96875q0.171875 1.203125 1.3125 0.96875q1.0 -0.203125 0.21875 -1.5312424q-0.53125 -0.921875 -0.484375 -3.109375q0.046875 -2.734375 0.25 -3.875q0.21875 -1.171875 -0.875 -1.40625q-0.5625 -0.125 -0.828125 0.09375q-2.390625 -0.75 -4.578125 1.046875q-1.890625 1.546875 -1.875 4.40625q0.03125 4.3749924 4.125 4.3749924zm1.046875 -1.8437424q-0.6875 0.265625 -1.484375 0.203125q-1.875 -0.125 -1.90625 -2.90625q0.078125 -2.140625 1.703125 -3.3125q0.40625 -0.3125 1.078125 -0.46875q0.96875 -0.234375 1.84375 0.3125q-0.421875 1.484375 -0.09375 5.390625q-0.8125 0.671875 -1.140625 0.78125zm6.187378 -8.640625q-0.84375 0 -0.859375 0.84375l-0.203125 8.53125q-0.03125 0.9687424 0.78125 0.9843674q0.953125 0.015625 0.984375 -0.9687424l0.15625 -5.984375q0.859375 -0.84375 1.890625 -1.046875q1.046875 -0.203125 1.875 0.34375q1.046875 0.71875 1.453125 -0.453125q0.234375 -0.734375 -1.140625 -1.421875q-0.78125 -0.390625 -2.0 -0.375q-0.984375 0.015625 -2.015625 0.78125q0 -0.171875 0 -0.328125q0 -0.90625 -0.921875 -0.90625zm11.16687 -4.703125q-0.828125 0 -0.84375 0.859375l-0.09375 4.296875q-1.0625 0.015625 -2.109375 0.015625q-0.859375 0 -0.859375 0.921875q0 0.890625 0.78125 0.890625q1.0625 0 2.140625 0l-0.171875 7.09375q-0.015625 0.9687424 0.8125 0.9843674q0.984375 0.015625 0.984375 -0.9687424l0.15625 -7.109375q0.984375 0 1.953125 0q1.0625 0 1.0625 -0.9375q0 -0.90625 -1.125 -0.90625l-1.84375 0.015625q0.0625 -1.921875 0.078125 -4.25q0 -0.90625 -0.921875 -0.90625zm7.0875397 5.140625q-0.921875 -0.03125 -0.953125 1.1875l-0.15625 7.640625q-0.015625 1.1562424 0.953125 1.1562424q0.859375 0 0.875 -1.2343674l0.125 -7.578125q0.015625 -1.15625 -0.84375 -1.171875zm0.0625 -4.140625q-0.3125 0 -0.5625 0.171875q-0.234375 0.15625 -0.390625 0.421875q-0.15625 0.25 -0.15625 0.546875q0 0.3125 0.15625 0.578125q0.15625 0.25 0.40625 0.390625q0.234375 0.15625 0.515625 0.15625q0.03125 0 0.0625 0q0.28125 0.015625 0.5 -0.109375q0.21875 -0.09375 0.40625 -0.328125q0.203125 -0.265625 0.234375 -0.59375q0 -0.046875 0 -0.09375q0 -0.28125 -0.140625 -0.53125q-0.140625 -0.296875 -0.421875 -0.453125q-0.265625 -0.15625 -0.578125 -0.15625q-0.015625 0 -0.03125 0zm6.8694763 -1.0q-0.828125 0 -0.84375 0.859375l-0.09375 4.296875q-1.0625 0.015625 -2.109375 0.015625q-0.859375 0 -0.859375 0.921875q0 0.890625 0.78125 0.890625q1.0625 0 2.140625 0l-0.171875 7.09375q-0.015625 0.9687424 0.8125 0.9843674q0.984375 0.015625 0.984375 -0.9687424l0.15625 -7.109375q0.984375 0 1.953125 0q1.0625 0 1.0625 -0.9375q0 -0.90625 -1.125 -0.90625l-1.84375 0.015625q0.0625 -1.921875 0.078125 -4.25q0 -0.90625 -0.921875 -0.90625zm7.087555 5.140625q-0.921875 -0.03125 -0.953125 1.1875l-0.15625 7.640625q-0.015625 1.1562424 0.953125 1.1562424q0.859375 0 0.875 -1.2343674l0.125 -7.578125q0.015625 -1.15625 -0.84375 -1.171875zm0.0625 -4.140625q-0.3125 0 -0.5625 0.171875q-0.234375 0.15625 -0.390625 0.421875q-0.15625 0.25 -0.15625 0.546875q0 0.3125 0.15625 0.578125q0.15625 0.25 0.40625 0.390625q0.234375 0.15625 0.515625 0.15625q0.03125 0 0.0625 0q0.28125 0.015625 0.5 -0.109375q0.21875 -0.09375 0.40625 -0.328125q0.203125 -0.265625 0.234375 -0.59375q0 -0.046875 0 -0.09375q0 -0.28125 -0.140625 -0.53125q-0.140625 -0.296875 -0.421875 -0.453125q-0.265625 -0.15625 -0.578125 -0.15625q-0.015625 0 -0.03125 0zm7.6194763 5.96875q1.921875 -0.03125 1.90625 3.21875q-0.015625 1.703125 -0.734375 2.484375q-0.671875 0.71875 -1.671875 0.71875q-0.875 0 -1.546875 -0.71875q-0.65625 -0.71875 -0.65625 -2.140625q0 -1.484375 0.90625 -2.734375q0.59375 -0.796875 1.796875 -0.828125zm-0.078125 -1.859375q-1.984375 -0.015625 -3.1875 1.578125q-1.21875 1.59375 -1.21875 3.671875q0 2.203125 1.015625 3.40625q1.125 1.3437424 2.75 1.3593674q2.25 0.015625 3.34375 -1.3749924q0.96875 -1.171875 0.984375 -3.390625q0 -5.21875 -3.6875 -5.25zm6.935913 -0.40625q-0.84375 0 -0.859375 0.84375l-0.203125 8.484375q-0.03125 0.9687424 0.78125 0.9843674q0.984375 0.015625 1.0 -0.9687424l0.15625 -5.515625q1.4375 -1.453125 2.703125 -1.359375q1.515625 0.109375 1.453125 2.625l-0.109375 4.3124924q-0.03125 1.109375 0.953125 1.015625q0.859375 -0.078125 0.875 -1.1718674l0.078125 -4.5625q0.0625 -4.140625 -3.375 -4.140625q-1.546875 0 -2.546875 0.890625q0.015625 -0.265625 0.015625 -0.53125q0.03125 -0.90625 -0.921875 -0.90625z" fill-rule="nonzero"/><path fill="#000000" d="m222.9807 152.93039q-1.8125 -1.21875 -2.296875 -5.25q-0.296875 -2.4375 0.203125 -4.8125q0.578125 -2.78125 1.921875 -4.03125q1.671875 -1.5 0.96875 -2.234375q-0.640625 -0.671875 -2.09375 0.859375q-1.046875 1.125 -1.796875 2.890625q-1.0625 2.4375 -1.15625 4.890625q-0.09375 2.84375 0.765625 5.53125q0.609375 1.890625 2.0625 3.203125q1.453125 1.34375 2.125 0.828125q0.96875 -0.75 -0.703125 -1.875zm4.347748 -11.484375q-0.921875 -0.03125 -0.953125 1.1875l-0.15625 7.640625q-0.015625 1.15625 0.953125 1.15625q0.859375 0 0.875 -1.234375l0.125 -7.578125q0.015625 -1.15625 -0.84375 -1.171875zm0.0625 -4.140625q-0.3125 0 -0.5625 0.171875q-0.234375 0.15625 -0.390625 0.421875q-0.15625 0.25 -0.15625 0.546875q0 0.3125 0.15625 0.578125q0.15625 0.25 0.40625 0.390625q0.234375 0.15625 0.515625 0.15625q0.03125 0 0.0625 0q0.28125 0.015625 0.5 -0.109375q0.21875 -0.09375 0.40625 -0.328125q0.203125 -0.265625 0.234375 -0.59375q0 -0.046875 0 -0.09375q0 -0.28125 -0.140625 -0.53125q-0.140625 -0.296875 -0.421875 -0.453125q-0.265625 -0.15625 -0.578125 -0.15625q-0.015625 0 -0.03125 0zm4.6663513 3.703125q-0.84375 0 -0.859375 0.84375l-0.203125 8.484375q-0.03125 0.96875 0.78125 0.984375q0.984375 0.015625 1.0 -0.96875l0.15625 -5.515625q1.4375 -1.453125 2.703125 -1.359375q1.515625 0.109375 1.453125 2.625l-0.109375 4.3125q-0.03125 1.109375 0.953125 1.015625q0.859375 -0.078125 0.875 -1.171875l0.078125 -4.5625q0.0625 -4.140625 -3.375 -4.140625q-1.546875 0 -2.546875 0.890625q0.015625 -0.265625 0.015625 -0.53125q0.03125 -0.90625 -0.921875 -0.90625zm16.60913 -4.703125q-0.8125 0.03125 -0.828125 0.859375l-0.140625 5.25q-0.34375 -0.25 -0.78125 -0.5q-0.8125 -0.453125 -1.90625 -0.453125q-2.046875 0 -3.3125 1.546875q-1.34375 1.65625 -1.25 4.078125q0.0625 1.796875 1.421875 3.140625q1.203125 1.203125 2.78125 1.203125q1.53125 0.015625 2.875 -0.84375q0.0625 0.765625 0.796875 0.78125q0.984375 0.015625 1.0 -0.96875l0.28125 -13.1875q0.015625 -0.90625 -0.9375 -0.90625zm-1.109375 12.21875q-1.625 1.28125 -2.90625 1.125q-1.203125 -0.125 -1.828125 -0.953125q-0.78125 -1.0 -0.765625 -2.046875q0.046875 -1.609375 0.765625 -2.515625q0.515625 -0.625 1.65625 -0.90625q1.5625 -0.390625 3.171875 1.28125q0 2.125 -0.09375 4.015625zm5.302475 -1.484375l6.125 -0.890625q0.96875 -0.140625 1.0 -1.25q0.046875 -1.40625 -1.0625 -2.5q-1.1875 -1.15625 -3.296875 -1.03125q-2.015625 0.125 -3.296875 1.953125q-1.015625 1.46875 -1.015625 3.34375q0 2.28125 1.625 3.609375q1.296875 1.078125 3.03125 1.09375q2.375 0.015625 3.828125 -1.28125q0.828125 -0.734375 0.40625 -1.578125q-0.1875 -0.359375 -0.625 -0.265625q-0.390625 0.078125 -1.0 0.75q-0.640625 0.71875 -2.5 0.734375q-1.265625 0.015625 -2.296875 -0.890625q-0.875 -0.78125 -0.921875 -1.796875zm0.203125 -1.515625q0.25 -0.890625 0.65625 -1.390625q0.90625 -1.125 2.171875 -1.125q0.890625 -0.015625 1.703125 0.5q0.6875 0.453125 0.828125 1.234375l-5.359375 0.78125zm8.752106 -3.90625q-0.734375 0.59375 0.015625 1.421875l3.1875 3.46875l-2.9375 3.125q-0.90625 0.96875 -0.1875 1.59375q0.65625 0.5625 1.515625 -0.40625l2.703125 -3.015625l2.703125 3.015625q0.875 0.96875 1.515625 0.40625q0.71875 -0.625 -0.1875 -1.59375l-2.875 -3.140625l3.125 -3.453125q0.765625 -0.828125 0.015625 -1.421875q-0.6875 -0.546875 -1.5 0.390625l-2.796875 3.21875l-2.78125 -3.21875q-0.828125 -0.9375 -1.515625 -0.390625zm20.979034 -3.453125q0.015625 -0.8125 -0.5 -0.921875q-0.609375 -0.15625 -1.34375 0.546875l-1.8125 1.703125q-0.65625 0.609375 -0.171875 1.25q0.578125 0.796875 1.453125 -0.03125l0.671875 -0.640625l-0.015625 9.671875q-0.6875 0 -1.359375 0q-0.90625 0 -0.90625 0.90625q0 0.765625 0.8125 0.765625l4.140625 0q0.90625 0 0.90625 -0.8125q0 -0.859375 -0.9375 -0.859375q-0.484375 0 -1.0 0q0.0625 -11.578125 0.0625 -11.578125zm5.0239563 14.765625q-1.671875 1.125 -0.703125 1.875q0.671875 0.515625 2.125 -0.828125q1.453125 -1.3125 2.0625 -3.203125q0.859375 -2.6875 0.765625 -5.53125q-0.09375 -2.453125 -1.15625 -4.890625q-0.734375 -1.765625 -1.796875 -2.890625q-1.453125 -1.53125 -2.09375 -0.859375q-0.6875 0.734375 0.96875 2.234375q1.34375 1.25 1.921875 4.03125q0.5 2.375 0.203125 4.8125q-0.484375 4.03125 -2.296875 5.25z" fill-rule="nonzero"/><path fill="#000000" fill-opacity="0.0" d="m43.349083 238.33618l123.30709 0l0 87.275604l-123.30709 0z" fill-rule="evenodd"/><path fill="#000000" d="m55.005333 253.97493q-0.8125 1.375 -0.453125 2.8125153q0.625 2.546875 4.015625 2.5q3.484375 -0.0625 3.859375 1.265625q0.34375 1.265625 -0.875 2.4375q-0.625 0.609375 -2.375 0.921875q-0.984375 0.171875 -2.15625 -0.109375q-0.875 -0.203125 -1.484375 -0.75q-0.78125 -0.671875 -1.296875 -0.53125q-0.453125 0.140625 -0.546875 0.734375q-0.0625 0.546875 0.65625 1.203125q0.515625 0.4375 1.25 0.75q1.078125 0.453125 2.71875 0.4375q2.21875 -0.015625 3.71875 -0.875q2.25 -1.296875 2.375 -3.5625q0.078125 -1.46875 -1.0625 -2.65625q-0.921875 -0.9375 -2.875 -1.0q-2.1875 -0.0625 -2.75 -0.15625q-1.46875 -0.203125 -1.3125 -1.8437653q0.078125 -0.828125 0.953125 -1.5q0.8125 -0.640625 2.328125 -0.734375q0.984375 -0.046875 2.25 0.4375q0.890625 0.34375 1.234375 0.1875q0.515625 -0.25 0.484375 -0.71875q-0.03125 -0.5625 -1.359375 -1.15625q-0.9375 -0.40625 -2.28125 -0.453125q-1.515625 -0.0625 -2.828125 0.578125q-1.578125 0.75 -2.1875 1.78125zm14.763611 -3.390625q-0.828125 0 -0.84375 0.859375l-0.09375 4.296875q-1.0625 0.015625 -2.109375 0.015625q-0.859375 0 -0.859375 0.92189026q0 0.890625 0.78125 0.890625q1.0625 0 2.140625 0l-0.171875 7.09375q-0.015625 0.96875 0.8125 0.984375q0.984375 0.015625 0.984375 -0.96875l0.15625 -7.109375q0.984375 0 1.953125 0q1.0625 0 1.0625 -0.9375q0 -0.90626526 -1.125 -0.90626526l-1.84375 0.015625q0.0625 -1.921875 0.078125 -4.25q0 -0.90625 -0.921875 -0.90625zm8.90004 15.187515q0.84375 -0.015625 2.734375 -0.96875q0.171875 1.203125 1.3125 0.96875q1.0 -0.203125 0.21875 -1.53125q-0.53125 -0.921875 -0.484375 -3.109375q0.046875 -2.734375 0.25 -3.875q0.21875 -1.171875 -0.875 -1.4062653q-0.5625 -0.125 -0.828125 0.09375q-2.390625 -0.75 -4.578125 1.0468903q-1.890625 1.546875 -1.875 4.40625q0.03125 4.375 4.125 4.375zm1.046875 -1.84375q-0.6875 0.265625 -1.484375 0.203125q-1.875 -0.125 -1.90625 -2.90625q0.078125 -2.140625 1.703125 -3.3125q0.40625 -0.3125 1.078125 -0.46875q0.96875 -0.234375 1.84375 0.3125q-0.421875 1.484375 -0.09375 5.390625q-0.8125 0.671875 -1.140625 0.78125zm8.390503 -13.343765q-0.828125 0 -0.84375 0.859375l-0.09375 4.296875q-1.0625 0.015625 -2.109375 0.015625q-0.859375 0 -0.859375 0.92189026q0 0.890625 0.78125 0.890625q1.0625 0 2.140625 0l-0.171875 7.09375q-0.015625 0.96875 0.8125 0.984375q0.984375 0.015625 0.984375 -0.96875l0.15625 -7.109375q0.984375 0 1.953125 0q1.0625 0 1.0625 -0.9375q0 -0.90626526 -1.125 -0.90626526l-1.84375 0.015625q0.0625 -1.921875 0.078125 -4.25q0 -0.90625 -0.921875 -0.90625zm6.6656647 10.73439l6.125 -0.890625q0.96875 -0.140625 1.0 -1.25q0.046875 -1.40625 -1.0625 -2.5q-1.1875 -1.1562653 -3.296875 -1.0312653q-2.015625 0.125 -3.296875 1.9531403q-1.015625 1.46875 -1.015625 3.34375q0 2.28125 1.625 3.609375q1.296875 1.078125 3.03125 1.09375q2.375 0.015625 3.828125 -1.28125q0.828125 -0.734375 0.40625 -1.578125q-0.1875 -0.359375 -0.625 -0.265625q-0.390625 0.078125 -1.0 0.75q-0.640625 0.71875 -2.5 0.734375q-1.265625 0.015625 -2.296875 -0.890625q-0.875 -0.78125 -0.921875 -1.796875zm0.203125 -1.515625q0.25 -0.890625 0.65625 -1.390625q0.90625 -1.125 2.171875 -1.125q0.890625 -0.015625 1.703125 0.5q0.6875 0.453125 0.828125 1.234375l-5.359375 0.78125z" fill-rule="nonzero"/><path fill="#000000" d="m54.364708 273.82806q-0.828125 0 -0.84375 0.796875l-0.3125 12.484375q-0.015625 0.921875 0.796875 0.953125q0.984375 0.015625 1.0 -0.9375l0.109375 -4.875q0.234375 0.03125 0.5 0.015625q3.828125 -0.21875 4.8125 -1.421875q1.65625 -2.09375 0.765625 -4.40625q-0.890625 -2.296875 -4.078125 -2.609375q-0.953125 -0.09375 -2.375 0.03125q-0.171875 -0.03125 -0.375 -0.03125zm0.90625 1.828125q0.734375 -0.078125 1.265625 -0.09375q2.0625 -0.015625 2.8125 1.375q0.609375 1.1875 -0.171875 2.546875q-0.796875 1.390625 -4.015625 1.046875l0.109375 -4.875zm11.382599 12.515625q0.84375 -0.015625 2.734375 -0.96875q0.171875 1.203125 1.3125 0.96875q1.0 -0.203125 0.21875 -1.53125q-0.53125 -0.921875 -0.484375 -3.109375q0.046875 -2.734375 0.25 -3.875q0.21875 -1.171875 -0.875 -1.40625q-0.5625 -0.125 -0.828125 0.09375q-2.390625 -0.75 -4.578125 1.046875q-1.890625 1.546875 -1.875 4.40625q0.03125 4.375 4.125 4.375zm1.046875 -1.84375q-0.6875 0.265625 -1.484375 0.203125q-1.875 -0.125 -1.90625 -2.90625q0.078125 -2.140625 1.703125 -3.3125q0.40625 -0.3125 1.078125 -0.46875q0.96875 -0.234375 1.84375 0.3125q-0.421875 1.484375 -0.09375 5.390625q-0.8125 0.671875 -1.140625 0.78125zm6.187378 -8.640625q-0.84375 0 -0.859375 0.84375l-0.203125 8.53125q-0.03125 0.96875 0.78125 0.984375q0.953125 0.015625 0.984375 -0.96875l0.15625 -5.984375q0.859375 -0.84375 1.890625 -1.046875q1.046875 -0.203125 1.875 0.34375q1.046875 0.71875 1.453125 -0.453125q0.234375 -0.734375 -1.140625 -1.421875q-0.78125 -0.390625 -2.0 -0.375q-0.984375 0.015625 -2.015625 0.78125q0 -0.171875 0 -0.328125q0 -0.90625 -0.921875 -0.90625zm11.16687 -4.703125q-0.828125 0 -0.84375 0.859375l-0.09375 4.296875q-1.0625 0.015625 -2.109375 0.015625q-0.859375 0 -0.859375 0.921875q0 0.890625 0.78125 0.890625q1.0625 0 2.140625 0l-0.171875 7.09375q-0.015625 0.96875 0.8125 0.984375q0.984375 0.015625 0.984375 -0.96875l0.15625 -7.109375q0.984375 0 1.953125 0q1.0625 0 1.0625 -0.9375q0 -0.90625 -1.125 -0.90625l-1.84375 0.015625q0.0625 -1.921875 0.078125 -4.25q0 -0.90625 -0.921875 -0.90625zm7.0875397 5.140625q-0.921875 -0.03125 -0.953125 1.1875l-0.15625 7.640625q-0.015625 1.15625 0.953125 1.15625q0.859375 0 0.875 -1.234375l0.125 -7.578125q0.015625 -1.15625 -0.84375 -1.171875zm0.0625 -4.140625q-0.3125 0 -0.5625 0.171875q-0.234375 0.15625 -0.390625 0.421875q-0.15625 0.25 -0.15625 0.546875q0 0.3125 0.15625 0.578125q0.15625 0.25 0.40625 0.390625q0.234375 0.15625 0.515625 0.15625q0.03125 0 0.0625 0q0.28125 0.015625 0.5 -0.109375q0.21875 -0.09375 0.40625 -0.328125q0.203125 -0.265625 0.234375 -0.59375q0 -0.046875 0 -0.09375q0 -0.28125 -0.140625 -0.53125q-0.140625 -0.296875 -0.421875 -0.453125q-0.265625 -0.15625 -0.578125 -0.15625q-0.015625 0 -0.03125 0zm6.8694763 -1.0q-0.828125 0 -0.84375 0.859375l-0.09375 4.296875q-1.0625 0.015625 -2.109375 0.015625q-0.859375 0 -0.859375 0.921875q0 0.890625 0.78125 0.890625q1.0625 0 2.140625 0l-0.171875 7.09375q-0.015625 0.96875 0.8125 0.984375q0.984375 0.015625 0.984375 -0.96875l0.15625 -7.109375q0.984375 0 1.953125 0q1.0625 0 1.0625 -0.9375q0 -0.90625 -1.125 -0.90625l-1.84375 0.015625q0.0625 -1.921875 0.078125 -4.25q0 -0.90625 -0.921875 -0.90625zm7.0875397 5.140625q-0.921875 -0.03125 -0.953125 1.1875l-0.15625 7.640625q-0.015625 1.15625 0.953125 1.15625q0.859375 0 0.875 -1.234375l0.125 -7.578125q0.015625 -1.15625 -0.84375 -1.171875zm0.0625 -4.140625q-0.3125 0 -0.5625 0.171875q-0.234375 0.15625 -0.390625 0.421875q-0.15625 0.25 -0.15625 0.546875q0 0.3125 0.15625 0.578125q0.15625 0.25 0.40625 0.390625q0.234375 0.15625 0.515625 0.15625q0.03125 0 0.0625 0q0.28125 0.015625 0.5 -0.109375q0.21875 -0.09375 0.40625 -0.328125q0.203125 -0.265625 0.234375 -0.59375q0 -0.046875 0 -0.09375q0 -0.28125 -0.140625 -0.53125q-0.140625 -0.296875 -0.421875 -0.453125q-0.265625 -0.15625 -0.578125 -0.15625q-0.015625 0 -0.03125 0zm7.6194763 5.96875q1.921875 -0.03125 1.90625 3.21875q-0.015625 1.703125 -0.734375 2.484375q-0.671875 0.71875 -1.671875 0.71875q-0.875 0 -1.546875 -0.71875q-0.65625 -0.71875 -0.65625 -2.140625q0 -1.484375 0.90625 -2.734375q0.59375 -0.796875 1.796875 -0.828125zm-0.078125 -1.859375q-1.984375 -0.015625 -3.1875 1.578125q-1.21875 1.59375 -1.21875 3.671875q0 2.203125 1.015625 3.40625q1.125 1.34375 2.75 1.359375q2.25 0.015625 3.34375 -1.375q0.96875 -1.171875 0.984375 -3.390625q0 -5.21875 -3.6875 -5.25zm6.9359283 -0.40625q-0.84375 0 -0.859375 0.84375l-0.203125 8.484375q-0.03125 0.96875 0.78125 0.984375q0.984375 0.015625 1.0 -0.96875l0.15625 -5.515625q1.4375 -1.453125 2.703125 -1.359375q1.515625 0.109375 1.453125 2.625l-0.109375 4.3125q-0.03125 1.109375 0.953125 1.015625q0.859375 -0.078125 0.875 -1.171875l0.078125 -4.5625q0.0625 -4.140625 -3.375 -4.140625q-1.546875 0 -2.546875 0.890625q0.015625 -0.265625 0.015625 -0.53125q0.03125 -0.90625 -0.921875 -0.90625z" fill-rule="nonzero"/><path fill="#000000" d="m57.614708 312.0093q-1.8125 -1.21875 -2.296875 -5.25q-0.296875 -2.4375 0.203125 -4.8125q0.578125 -2.78125 1.921875 -4.03125q1.671875 -1.5 0.96875 -2.234375q-0.640625 -0.671875 -2.09375 0.859375q-1.046875 1.125 -1.796875 2.890625q-1.0625 2.4375 -1.15625 4.890625q-0.09375 2.84375 0.765625 5.53125q0.609375 1.890625 2.0625 3.203125q1.453125 1.34375 2.125 0.828125q0.96875 -0.75 -0.703125 -1.875zm4.347748 -11.484375q-0.921875 -0.03125 -0.953125 1.1875l-0.15625 7.640625q-0.015625 1.15625 0.953125 1.15625q0.859375 0 0.875 -1.234375l0.125 -7.578125q0.015625 -1.15625 -0.84375 -1.171875zm0.0625 -4.140625q-0.3125 0 -0.5625 0.171875q-0.234375 0.15625 -0.390625 0.421875q-0.15625 0.25 -0.15625 0.546875q0 0.3125 0.15625 0.578125q0.15625 0.25 0.40625 0.390625q0.234375 0.15625 0.515625 0.15625q0.03125 0 0.0625 0q0.28125 0.015625 0.5 -0.109375q0.21875 -0.09375 0.40625 -0.328125q0.203125 -0.265625 0.234375 -0.59375q0 -0.046875 0 -0.09375q0 -0.28125 -0.140625 -0.53125q-0.140625 -0.296875 -0.421875 -0.453125q-0.265625 -0.15625 -0.578125 -0.15625q-0.015625 0 -0.03125 0zm4.6663513 3.703125q-0.84375 0 -0.859375 0.84375l-0.203125 8.484375q-0.03125 0.96875 0.78125 0.984375q0.984375 0.015625 1.0 -0.96875l0.15625 -5.515625q1.4375 -1.453125 2.703125 -1.359375q1.515625 0.109375 1.453125 2.625l-0.109375 4.3125q-0.03125 1.109375 0.953125 1.015625q0.859375 -0.078125 0.875 -1.171875l0.078125 -4.5625q0.0625 -4.140625 -3.375 -4.140625q-1.546875 0 -2.546875 0.890625q0.015625 -0.265625 0.015625 -0.53125q0.03125 -0.90625 -0.921875 -0.90625zm16.60913 -4.703125q-0.8125 0.03125 -0.828125 0.859375l-0.140625 5.25q-0.34375 -0.25 -0.78125 -0.5q-0.8125 -0.453125 -1.90625 -0.453125q-2.046875 0 -3.3125 1.546875q-1.34375 1.65625 -1.25 4.078125q0.0625 1.796875 1.421875 3.140625q1.203125 1.203125 2.78125 1.203125q1.53125 0.015625 2.875 -0.84375q0.0625 0.765625 0.796875 0.78125q0.984375 0.015625 1.0 -0.96875l0.28125 -13.1875q0.015625 -0.90625 -0.9375 -0.90625zm-1.109375 12.21875q-1.625 1.28125 -2.90625 1.125q-1.203125 -0.125 -1.828125 -0.953125q-0.78125 -1.0 -0.765625 -2.046875q0.046875 -1.609375 0.765625 -2.515625q0.515625 -0.625 1.65625 -0.90625q1.5625 -0.390625 3.171875 1.28125q0 2.125 -0.09375 4.015625zm5.302475 -1.484375l6.125 -0.890625q0.96875 -0.140625 1.0 -1.25q0.046875 -1.40625 -1.0625 -2.5q-1.1875 -1.15625 -3.296875 -1.03125q-2.015625 0.125 -3.296875 1.953125q-1.015625 1.46875 -1.015625 3.34375q0 2.28125 1.625 3.609375q1.296875 1.078125 3.03125 1.09375q2.375 0.015625 3.828125 -1.28125q0.828125 -0.734375 0.40625 -1.578125q-0.1875 -0.359375 -0.625 -0.265625q-0.390625 0.078125 -1.0 0.75q-0.640625 0.71875 -2.5 0.734375q-1.265625 0.015625 -2.296875 -0.890625q-0.875 -0.78125 -0.921875 -1.796875zm0.203125 -1.515625q0.25 -0.890625 0.65625 -1.390625q0.90625 -1.125 2.171875 -1.125q0.890625 -0.015625 1.703125 0.5q0.6875 0.453125 0.828125 1.234375l-5.359375 0.78125zm8.752106 -3.90625q-0.734375 0.59375 0.015625 1.421875l3.1875 3.46875l-2.9375 3.125q-0.90625 0.96875 -0.1875 1.59375q0.65625 0.5625 1.515625 -0.40625l2.703125 -3.015625l2.703125 3.015625q0.875 0.96875 1.515625 0.40625q0.71875 -0.625 -0.1875 -1.59375l-2.875 -3.140625l3.125 -3.453125q0.765625 -0.828125 0.015625 -1.421875q-0.6875 -0.546875 -1.5 0.390625l-2.796875 3.21875l-2.78125 -3.21875q-0.828125 -0.9375 -1.515625 -0.390625zm17.97902 7.96875q-0.265625 0 -0.484375 0.140625q-0.203125 0.140625 -0.328125 0.390625q-0.125 0.21875 -0.125 0.484375q0 0.28125 0.125 0.515625q0.140625 0.234375 0.34375 0.359375q0.203125 0.140625 0.4375 0.140625q0.03125 0 0.046875 0q0.25 0.015625 0.4375 -0.09375q0.1875 -0.09375 0.34375 -0.296875q0.171875 -0.25 0.203125 -0.546875q0 -0.03125 0 -0.078125q0 -0.25 -0.109375 -0.46875q-0.125 -0.265625 -0.375 -0.40625q-0.21875 -0.140625 -0.484375 -0.140625q-0.015625 0 -0.03125 0zm3.8125 0q-0.25 0 -0.46875 0.140625q-0.203125 0.140625 -0.34375 0.390625q-0.125 0.21875 -0.125 0.484375q0 0.28125 0.140625 0.515625q0.125 0.234375 0.34375 0.359375q0.203125 0.140625 0.4375 0.140625q0.015625 0 0.046875 0q0.234375 0.015625 0.4375 -0.09375q0.171875 -0.09375 0.328125 -0.296875q0.171875 -0.25 0.203125 -0.546875q0 -0.03125 0 -0.078125q0 -0.25 -0.109375 -0.46875q-0.125 -0.265625 -0.359375 -0.40625q-0.234375 -0.140625 -0.5 -0.140625q-0.015625 0 -0.03125 0zm4.0625 0q-0.25 0 -0.46875 0.140625q-0.203125 0.140625 -0.34375 0.390625q-0.125 0.21875 -0.125 0.484375q0 0.28125 0.140625 0.515625q0.125 0.234375 0.34375 0.359375q0.203125 0.140625 0.4375 0.140625q0.015625 0 0.046875 0q0.234375 0.015625 0.4375 -0.09375q0.171875 -0.09375 0.328125 -0.296875q0.171875 -0.25 0.203125 -0.546875q0 -0.03125 0 -0.078125q0 -0.25 -0.109375 -0.46875q-0.125 -0.265625 -0.359375 -0.40625q-0.234375 -0.140625 -0.5 -0.140625q-0.015625 0 -0.03125 0zm4.3484344 3.34375q-1.671875 1.125 -0.703125 1.875q0.671875 0.515625 2.1249924 -0.828125q1.453125 -1.3125 2.0625 -3.203125q0.859375 -2.6875 0.765625 -5.53125q-0.09375 -2.453125 -1.15625 -4.890625q-0.734375 -1.765625 -1.7968674 -2.890625q-1.453125 -1.53125 -2.09375 -0.859375q-0.6875 0.734375 0.96875 2.234375q1.3437424 1.25 1.9218674 4.03125q0.5 2.375 0.203125 4.8125q-0.484375 4.03125 -2.2968674 5.25z" fill-rule="nonzero"/><path fill="#000000" fill-opacity="0.0" d="m208.71507 238.3368l123.30708 0l0 87.27559l-123.30708 0z" fill-rule="evenodd"/><path fill="#000000" d="m220.37132 253.97556q-0.8125 1.375 -0.453125 2.8125q0.625 2.546875 4.015625 2.5q3.484375 -0.0625 3.859375 1.265625q0.34375 1.265625 -0.875 2.4375q-0.625 0.609375 -2.375 0.921875q-0.984375 0.171875 -2.15625 -0.109375q-0.875 -0.203125 -1.484375 -0.75q-0.78125 -0.671875 -1.296875 -0.53125q-0.453125 0.140625 -0.546875 0.734375q-0.0625 0.546875 0.65625 1.203125q0.515625 0.4375 1.25 0.75q1.078125 0.453125 2.71875 0.4375q2.21875 -0.015625 3.71875 -0.875q2.25 -1.296875 2.375 -3.5625q0.078125 -1.46875 -1.0625 -2.65625q-0.921875 -0.9375 -2.875 -1.0q-2.1875 -0.0625 -2.75 -0.15625q-1.46875 -0.203125 -1.3125 -1.84375q0.078125 -0.828125 0.953125 -1.5q0.8125 -0.640625 2.328125 -0.734375q0.984375 -0.046875 2.25 0.4375q0.890625 0.34375 1.234375 0.1875q0.515625 -0.25 0.484375 -0.71875q-0.03125 -0.5625 -1.359375 -1.15625q-0.9375 -0.40625 -2.28125 -0.453125q-1.515625 -0.0625 -2.828125 0.578125q-1.578125 0.75 -2.1875 1.78125zm14.763611 -3.390625q-0.828125 0 -0.84375 0.859375l-0.09375 4.296875q-1.0625 0.015625 -2.109375 0.015625q-0.859375 0 -0.859375 0.921875q0 0.890625 0.78125 0.890625q1.0625 0 2.140625 0l-0.171875 7.09375q-0.015625 0.96875 0.8125 0.984375q0.984375 0.015625 0.984375 -0.96875l0.15625 -7.109375q0.984375 0 1.953125 0q1.0625 0 1.0625 -0.9375q0 -0.90625 -1.125 -0.90625l-1.84375 0.015625q0.0625 -1.921875 0.078125 -4.25q0 -0.90625 -0.921875 -0.90625zm8.90004 15.1875q0.84375 -0.015625 2.734375 -0.96875q0.171875 1.203125 1.3125 0.96875q1.0 -0.203125 0.21875 -1.53125q-0.53125 -0.921875 -0.484375 -3.109375q0.046875 -2.734375 0.25 -3.875q0.21875 -1.171875 -0.875 -1.40625q-0.5625 -0.125 -0.828125 0.09375q-2.390625 -0.75 -4.578125 1.046875q-1.890625 1.546875 -1.875 4.40625q0.03125 4.375 4.125 4.375zm1.046875 -1.84375q-0.6875 0.265625 -1.484375 0.203125q-1.875 -0.125 -1.90625 -2.90625q0.078125 -2.140625 1.703125 -3.3125q0.40625 -0.3125 1.078125 -0.46875q0.96875 -0.234375 1.84375 0.3125q-0.421875 1.484375 -0.09375 5.390625q-0.8125 0.671875 -1.140625 0.78125zm8.390503 -13.34375q-0.828125 0 -0.84375 0.859375l-0.09375 4.296875q-1.0625 0.015625 -2.109375 0.015625q-0.859375 0 -0.859375 0.921875q0 0.890625 0.78125 0.890625q1.0625 0 2.140625 0l-0.171875 7.09375q-0.015625 0.96875 0.8125 0.984375q0.984375 0.015625 0.984375 -0.96875l0.15625 -7.109375q0.984375 0 1.953125 0q1.0625 0 1.0625 -0.9375q0 -0.90625 -1.125 -0.90625l-1.84375 0.015625q0.0625 -1.921875 0.078125 -4.25q0 -0.90625 -0.921875 -0.90625zm6.66568 10.734375l6.125 -0.890625q0.96875 -0.140625 1.0 -1.25q0.046875 -1.40625 -1.0625 -2.5q-1.1875 -1.15625 -3.296875 -1.03125q-2.015625 0.125 -3.296875 1.953125q-1.015625 1.46875 -1.015625 3.34375q0 2.28125 1.625 3.609375q1.296875 1.078125 3.03125 1.09375q2.375 0.015625 3.828125 -1.28125q0.828125 -0.734375 0.40625 -1.578125q-0.1875 -0.359375 -0.625 -0.265625q-0.390625 0.078125 -1.0 0.75q-0.640625 0.71875 -2.5 0.734375q-1.265625 0.015625 -2.296875 -0.890625q-0.875 -0.78125 -0.921875 -1.796875zm0.203125 -1.515625q0.25 -0.890625 0.65625 -1.390625q0.90625 -1.125 2.171875 -1.125q0.890625 -0.015625 1.703125 0.5q0.6875 0.453125 0.828125 1.234375l-5.359375 0.78125z" fill-rule="nonzero"/><path fill="#000000" d="m219.7307 273.82867q-0.828125 0 -0.84375 0.796875l-0.3125 12.484375q-0.015625 0.921875 0.796875 0.953125q0.984375 0.015625 1.0 -0.9375l0.109375 -4.875q0.234375 0.03125 0.5 0.015625q3.828125 -0.21875 4.8125 -1.421875q1.65625 -2.09375 0.765625 -4.40625q-0.890625 -2.296875 -4.078125 -2.609375q-0.953125 -0.09375 -2.375 0.03125q-0.171875 -0.03125 -0.375 -0.03125zm0.90625 1.828125q0.734375 -0.078125 1.265625 -0.09375q2.0625 -0.015625 2.8125 1.375q0.609375 1.1875 -0.171875 2.546875q-0.796875 1.390625 -4.015625 1.046875l0.109375 -4.875zm11.382599 12.515625q0.84375 -0.015625 2.734375 -0.96875q0.171875 1.203125 1.3125 0.96875q1.0 -0.203125 0.21875 -1.53125q-0.53125 -0.921875 -0.484375 -3.109375q0.046875 -2.734375 0.25 -3.875q0.21875 -1.171875 -0.875 -1.40625q-0.5625 -0.125 -0.828125 0.09375q-2.390625 -0.75 -4.578125 1.046875q-1.890625 1.546875 -1.875 4.40625q0.03125 4.375 4.125 4.375zm1.046875 -1.84375q-0.6875 0.265625 -1.484375 0.203125q-1.875 -0.125 -1.90625 -2.90625q0.078125 -2.140625 1.703125 -3.3125q0.40625 -0.3125 1.078125 -0.46875q0.96875 -0.234375 1.84375 0.3125q-0.421875 1.484375 -0.09375 5.390625q-0.8125 0.671875 -1.140625 0.78125zm6.187378 -8.640625q-0.84375 0 -0.859375 0.84375l-0.203125 8.53125q-0.03125 0.96875 0.78125 0.984375q0.953125 0.015625 0.984375 -0.96875l0.15625 -5.984375q0.859375 -0.84375 1.890625 -1.046875q1.046875 -0.203125 1.875 0.34375q1.046875 0.71875 1.453125 -0.453125q0.234375 -0.734375 -1.140625 -1.421875q-0.78125 -0.390625 -2.0 -0.375q-0.984375 0.015625 -2.015625 0.78125q0 -0.171875 0 -0.328125q0 -0.90625 -0.921875 -0.90625zm11.16687 -4.703125q-0.828125 0 -0.84375 0.859375l-0.09375 4.296875q-1.0625 0.015625 -2.109375 0.015625q-0.859375 0 -0.859375 0.921875q0 0.890625 0.78125 0.890625q1.0625 0 2.140625 0l-0.171875 7.09375q-0.015625 0.96875 0.8125 0.984375q0.984375 0.015625 0.984375 -0.96875l0.15625 -7.109375q0.984375 0 1.953125 0q1.0625 0 1.0625 -0.9375q0 -0.90625 -1.125 -0.90625l-1.84375 0.015625q0.0625 -1.921875 0.078125 -4.25q0 -0.90625 -0.921875 -0.90625zm7.0875397 5.140625q-0.921875 -0.03125 -0.953125 1.1875l-0.15625 7.640625q-0.015625 1.15625 0.953125 1.15625q0.859375 0 0.875 -1.234375l0.125 -7.578125q0.015625 -1.15625 -0.84375 -1.171875zm0.0625 -4.140625q-0.3125 0 -0.5625 0.171875q-0.234375 0.15625 -0.390625 0.421875q-0.15625 0.25 -0.15625 0.546875q0 0.3125 0.15625 0.578125q0.15625 0.25 0.40625 0.390625q0.234375 0.15625 0.515625 0.15625q0.03125 0 0.0625 0q0.28125 0.015625 0.5 -0.109375q0.21875 -0.09375 0.40625 -0.328125q0.203125 -0.265625 0.234375 -0.59375q0 -0.046875 0 -0.09375q0 -0.28125 -0.140625 -0.53125q-0.140625 -0.296875 -0.421875 -0.453125q-0.265625 -0.15625 -0.578125 -0.15625q-0.015625 0 -0.03125 0zm6.8694763 -1.0q-0.828125 0 -0.84375 0.859375l-0.09375 4.296875q-1.0625 0.015625 -2.109375 0.015625q-0.859375 0 -0.859375 0.921875q0 0.890625 0.78125 0.890625q1.0625 0 2.140625 0l-0.171875 7.09375q-0.015625 0.96875 0.8125 0.984375q0.984375 0.015625 0.984375 -0.96875l0.15625 -7.109375q0.984375 0 1.953125 0q1.0625 0 1.0625 -0.9375q0 -0.90625 -1.125 -0.90625l-1.84375 0.015625q0.0625 -1.921875 0.078125 -4.25q0 -0.90625 -0.921875 -0.90625zm7.087555 5.140625q-0.921875 -0.03125 -0.953125 1.1875l-0.15625 7.640625q-0.015625 1.15625 0.953125 1.15625q0.859375 0 0.875 -1.234375l0.125 -7.578125q0.015625 -1.15625 -0.84375 -1.171875zm0.0625 -4.140625q-0.3125 0 -0.5625 0.171875q-0.234375 0.15625 -0.390625 0.421875q-0.15625 0.25 -0.15625 0.546875q0 0.3125 0.15625 0.578125q0.15625 0.25 0.40625 0.390625q0.234375 0.15625 0.515625 0.15625q0.03125 0 0.0625 0q0.28125 0.015625 0.5 -0.109375q0.21875 -0.09375 0.40625 -0.328125q0.203125 -0.265625 0.234375 -0.59375q0 -0.046875 0 -0.09375q0 -0.28125 -0.140625 -0.53125q-0.140625 -0.296875 -0.421875 -0.453125q-0.265625 -0.15625 -0.578125 -0.15625q-0.015625 0 -0.03125 0zm7.6194763 5.96875q1.921875 -0.03125 1.90625 3.21875q-0.015625 1.703125 -0.734375 2.484375q-0.671875 0.71875 -1.671875 0.71875q-0.875 0 -1.546875 -0.71875q-0.65625 -0.71875 -0.65625 -2.140625q0 -1.484375 0.90625 -2.734375q0.59375 -0.796875 1.796875 -0.828125zm-0.078125 -1.859375q-1.984375 -0.015625 -3.1875 1.578125q-1.21875 1.59375 -1.21875 3.671875q0 2.203125 1.015625 3.40625q1.125 1.34375 2.75 1.359375q2.25 0.015625 3.34375 -1.375q0.96875 -1.171875 0.984375 -3.390625q0 -5.21875 -3.6875 -5.25zm6.935913 -0.40625q-0.84375 0 -0.859375 0.84375l-0.203125 8.484375q-0.03125 0.96875 0.78125 0.984375q0.984375 0.015625 1.0 -0.96875l0.15625 -5.515625q1.4375 -1.453125 2.703125 -1.359375q1.515625 0.109375 1.453125 2.625l-0.109375 4.3125q-0.03125 1.109375 0.953125 1.015625q0.859375 -0.078125 0.875 -1.171875l0.078125 -4.5625q0.0625 -4.140625 -3.375 -4.140625q-1.546875 0 -2.546875 0.890625q0.015625 -0.265625 0.015625 -0.53125q0.03125 -0.90625 -0.921875 -0.90625z" fill-rule="nonzero"/><path fill="#000000" d="m222.9807 312.00992q-1.8125 -1.21875 -2.296875 -5.25q-0.296875 -2.4375 0.203125 -4.8125q0.578125 -2.78125 1.921875 -4.03125q1.671875 -1.5 0.96875 -2.234375q-0.640625 -0.671875 -2.09375 0.859375q-1.046875 1.125 -1.796875 2.890625q-1.0625 2.4375 -1.15625 4.890625q-0.09375 2.84375 0.765625 5.53125q0.609375 1.890625 2.0625 3.203125q1.453125 1.34375 2.125 0.828125q0.96875 -0.75 -0.703125 -1.875zm4.347748 -11.484375q-0.921875 -0.03125 -0.953125 1.1875l-0.15625 7.640625q-0.015625 1.15625 0.953125 1.15625q0.859375 0 0.875 -1.234375l0.125 -7.578125q0.015625 -1.15625 -0.84375 -1.171875zm0.0625 -4.140625q-0.3125 0 -0.5625 0.171875q-0.234375 0.15625 -0.390625 0.421875q-0.15625 0.25 -0.15625 0.546875q0 0.3125 0.15625 0.578125q0.15625 0.25 0.40625 0.390625q0.234375 0.15625 0.515625 0.15625q0.03125 0 0.0625 0q0.28125 0.015625 0.5 -0.109375q0.21875 -0.09375 0.40625 -0.328125q0.203125 -0.265625 0.234375 -0.59375q0 -0.046875 0 -0.09375q0 -0.28125 -0.140625 -0.53125q-0.140625 -0.296875 -0.421875 -0.453125q-0.265625 -0.15625 -0.578125 -0.15625q-0.015625 0 -0.03125 0zm4.6663513 3.703125q-0.84375 0 -0.859375 0.84375l-0.203125 8.484375q-0.03125 0.96875 0.78125 0.984375q0.984375 0.015625 1.0 -0.96875l0.15625 -5.515625q1.4375 -1.453125 2.703125 -1.359375q1.515625 0.109375 1.453125 2.625l-0.109375 4.3125q-0.03125 1.109375 0.953125 1.015625q0.859375 -0.078125 0.875 -1.171875l0.078125 -4.5625q0.0625 -4.140625 -3.375 -4.140625q-1.546875 0 -2.546875 0.890625q0.015625 -0.265625 0.015625 -0.53125q0.03125 -0.90625 -0.921875 -0.90625zm16.60913 -4.703125q-0.8125 0.03125 -0.828125 0.859375l-0.140625 5.25q-0.34375 -0.25 -0.78125 -0.5q-0.8125 -0.453125 -1.90625 -0.453125q-2.046875 0 -3.3125 1.546875q-1.34375 1.65625 -1.25 4.078125q0.0625 1.796875 1.421875 3.140625q1.203125 1.203125 2.78125 1.203125q1.53125 0.015625 2.875 -0.84375q0.0625 0.765625 0.796875 0.78125q0.984375 0.015625 1.0 -0.96875l0.28125 -13.1875q0.015625 -0.90625 -0.9375 -0.90625zm-1.109375 12.21875q-1.625 1.28125 -2.90625 1.125q-1.203125 -0.125 -1.828125 -0.953125q-0.78125 -1.0 -0.765625 -2.046875q0.046875 -1.609375 0.765625 -2.515625q0.515625 -0.625 1.65625 -0.90625q1.5625 -0.390625 3.171875 1.28125q0 2.125 -0.09375 4.015625zm5.302475 -1.484375l6.125 -0.890625q0.96875 -0.140625 1.0 -1.25q0.046875 -1.40625 -1.0625 -2.5q-1.1875 -1.15625 -3.296875 -1.03125q-2.015625 0.125 -3.296875 1.953125q-1.015625 1.46875 -1.015625 3.34375q0 2.28125 1.625 3.609375q1.296875 1.078125 3.03125 1.09375q2.375 0.015625 3.828125 -1.28125q0.828125 -0.734375 0.40625 -1.578125q-0.1875 -0.359375 -0.625 -0.265625q-0.390625 0.078125 -1.0 0.75q-0.640625 0.71875 -2.5 0.734375q-1.265625 0.015625 -2.296875 -0.890625q-0.875 -0.78125 -0.921875 -1.796875zm0.203125 -1.515625q0.25 -0.890625 0.65625 -1.390625q0.90625 -1.125 2.171875 -1.125q0.890625 -0.015625 1.703125 0.5q0.6875 0.453125 0.828125 1.234375l-5.359375 0.78125zm8.752106 -3.90625q-0.734375 0.59375 0.015625 1.421875l3.1875 3.46875l-2.9375 3.125q-0.90625 0.96875 -0.1875 1.59375q0.65625 0.5625 1.515625 -0.40625l2.703125 -3.015625l2.703125 3.015625q0.875 0.96875 1.515625 0.40625q0.71875 -0.625 -0.1875 -1.59375l-2.875 -3.140625l3.125 -3.453125q0.765625 -0.828125 0.015625 -1.421875q-0.6875 -0.546875 -1.5 0.390625l-2.796875 3.21875l-2.78125 -3.21875q-0.828125 -0.9375 -1.515625 -0.390625zm17.979034 7.96875q-0.265625 0 -0.484375 0.140625q-0.203125 0.140625 -0.328125 0.390625q-0.125 0.21875 -0.125 0.484375q0 0.28125 0.125 0.515625q0.140625 0.234375 0.34375 0.359375q0.203125 0.140625 0.4375 0.140625q0.03125 0 0.046875 0q0.25 0.015625 0.4375 -0.09375q0.1875 -0.09375 0.34375 -0.296875q0.171875 -0.25 0.203125 -0.546875q0 -0.03125 0 -0.078125q0 -0.25 -0.109375 -0.46875q-0.125 -0.265625 -0.375 -0.40625q-0.21875 -0.140625 -0.484375 -0.140625q-0.015625 0 -0.03125 0zm3.8125 0q-0.25 0 -0.46875 0.140625q-0.203125 0.140625 -0.34375 0.390625q-0.125 0.21875 -0.125 0.484375q0 0.28125 0.140625 0.515625q0.125 0.234375 0.34375 0.359375q0.203125 0.140625 0.4375 0.140625q0.015625 0 0.046875 0q0.234375 0.015625 0.4375 -0.09375q0.171875 -0.09375 0.328125 -0.296875q0.171875 -0.25 0.203125 -0.546875q0 -0.03125 0 -0.078125q0 -0.25 -0.109375 -0.46875q-0.125 -0.265625 -0.359375 -0.40625q-0.234375 -0.140625 -0.5 -0.140625q-0.015625 0 -0.03125 0zm4.0625 0q-0.25 0 -0.46875 0.140625q-0.203125 0.140625 -0.34375 0.390625q-0.125 0.21875 -0.125 0.484375q0 0.28125 0.140625 0.515625q0.125 0.234375 0.34375 0.359375q0.203125 0.140625 0.4375 0.140625q0.015625 0 0.046875 0q0.234375 0.015625 0.4375 -0.09375q0.171875 -0.09375 0.328125 -0.296875q0.171875 -0.25 0.203125 -0.546875q0 -0.03125 0 -0.078125q0 -0.25 -0.109375 -0.46875q-0.125 -0.265625 -0.359375 -0.40625q-0.234375 -0.140625 -0.5 -0.140625q-0.015625 0 -0.03125 0zm4.348419 3.34375q-1.671875 1.125 -0.703125 1.875q0.671875 0.515625 2.125 -0.828125q1.453125 -1.3125 2.0625 -3.203125q0.859375 -2.6875 0.765625 -5.53125q-0.09375 -2.453125 -1.15625 -4.890625q-0.734375 -1.765625 -1.796875 -2.890625q-1.453125 -1.53125 -2.09375 -0.859375q-0.6875 0.734375 0.96875 2.234375q1.34375 1.25 1.921875 4.03125q0.5 2.375 0.203125 4.8125q-0.484375 4.03125 -2.296875 5.25z" fill-rule="nonzero"/></g></svg>