<svg version="1.1" viewBox="0.0 0.0 749.6509186351706 213.40682414698162" fill="none" stroke="none" stroke-linecap="square" stroke-miterlimit="10" xmlns:xlink="http://www.w3.org/1999/xlink" xmlns="http://www.w3.org/2000/svg"><clipPath id="p.0"><path d="m0 0l749.65094 0l0 213.40683l-749.65094 0l0 -213.40683z" clip-rule="nonzero"/></clipPath><g clip-path="url(#p.0)"><path fill="#ffffff" d="m0 0l749.65094 0l0 213.40683l-749.65094 0z" fill-rule="evenodd"/><path fill="#000000" fill-opacity="0.0" d="m13.336381 26.736044l0 0c0 -5.3808975 4.3620806 -9.742977 9.742978 -9.742977l273.36444 0c2.584015 0 5.0621643 1.0264893 6.8893433 2.853653c1.8271484 1.8271618 2.8536377 4.3053265 2.8536377 6.889324l0 38.970734c0 5.3808975 -4.3620605 9.742981 -9.742981 9.742981l-273.36444 0l0 0c-5.3808975 0 -9.742978 -4.3620834 -9.742978 -9.742981z" fill-rule="evenodd"/><path stroke="#3c78d8" stroke-width="3.0" stroke-linejoin="round" stroke-linecap="butt" d="m13.336381 26.736044l0 0c0 -5.3808975 4.3620806 -9.742977 9.742978 -9.742977l273.36444 0c2.584015 0 5.0621643 1.0264893 6.8893433 2.853653c1.8271484 1.8271618 2.8536377 4.3053265 2.8536377 6.889324l0 38.970734c0 5.3808975 -4.3620605 9.742981 -9.742981 9.742981l-273.36444 0l0 0c-5.3808975 0 -9.742978 -4.3620834 -9.742978 -9.742981z" fill-rule="evenodd"/><path fill="#3c78d8" d="m34.756027 41.813286q1.03125 -0.6875 2.25 -0.40625q0.8125 0.1875 1.4375 0.609375q0.6875 0.46875 1.328125 -0.125q0.359375 -0.34375 0.3125 -1.015625q-0.03125 -0.515625 -1.1875 -1.109375q-1.515625 -0.765625 -3.421875 -0.46875q-1.984375 0.3125 -3.765625 2.828125q-1.21875 1.734375 -1.21875 5.109375q-0.015625 2.8125 1.3125 4.5625q1.3125 1.71875 3.515625 1.796875q1.6875 0.0625 3.125 -0.53125q1.765625 -0.71875 1.84375 -1.421875q0.125 -1.21875 -0.75 -1.390625q-0.515625 -0.109375 -1.8125 0.71875q-0.890625 0.59375 -2.53125 0.5q-1.15625 -0.046875 -1.859375 -1.09375q-0.859375 -1.328125 -0.859375 -3.359375q0 -2.203125 0.75 -3.5q0.65625 -1.140625 1.53125 -1.703125zm14.100494 12.015625q0.828125 0 0.84375 -0.84375l0.21875 -8.5q0.015625 -0.984375 -0.796875 -1.015625q-0.96875 0 -1.0 0.984375l-0.109375 4.609375q-0.046875 1.484375 -1.234375 2.09375q-1.296875 0.65625 -2.25 0.015625q-0.6875 -0.484375 -0.671875 -2.6875l0.015625 -3.984375q0.015625 -1.09375 -0.953125 -1.0q-0.859375 0.078125 -0.875 1.171875l-0.03125 4.46875q-0.03125 4.140625 3.390625 4.15625q1.546875 0 2.546875 -0.90625l-0.015625 0.546875q-0.015625 0.890625 0.921875 0.890625zm3.9828644 -10.65625q-0.828125 0 -0.859375 0.84375l-0.203125 8.453125q-0.03125 0.96875 0.796875 0.984375q0.9375 0.03125 0.96875 -0.96875l0.15625 -5.03125q0.5 -1.90625 2.0625 -1.84375q1.40625 0.046875 1.359375 2.640625l-0.09375 4.1875q-0.03125 1.078125 0.90625 1.0q0.84375 -0.0625 0.875 -1.171875l0.109375 -4.5625q0.015625 -0.53125 0.03125 -0.5625q0.609375 -1.5625 2.28125 -1.515625q1.4375 0.03125 1.390625 2.734375l-0.046875 4.203125q-0.015625 1.09375 0.96875 1.0q0.859375 -0.0625 0.875 -1.171875l0.0625 -4.53125q0.0625 -4.140625 -3.390625 -4.140625q-1.859375 -0.015625 -2.796875 1.328125q-0.65625 -1.359375 -2.546875 -1.328125q-1.171875 0 -1.984375 0.734375l0.015625 -0.375q0.015625 -0.90625 -0.9375 -0.90625zm20.21196 10.65625q0.828125 0 0.84375 -0.84375l0.21875 -8.5q0.015625 -0.984375 -0.796875 -1.015625q-0.96875 0 -1.0 0.984375l-0.109375 4.609375q-0.046875 1.484375 -1.234375 2.09375q-1.296875 0.65625 -2.25 0.015625q-0.6875 -0.484375 -0.671875 -2.6875l0.015625 -3.984375q0.015625 -1.09375 -0.953125 -1.0q-0.859375 0.078125 -0.875 1.171875l-0.03125 4.46875q-0.03125 4.140625 3.390625 4.15625q1.546875 0 2.546875 -0.90625l-0.015625 0.546875q-0.015625 0.890625 0.921875 0.890625zm4.6078644 -15.359375q-0.828125 0.03125 -0.84375 0.859375l-0.3125 13.21875q-0.015625 0.96875 0.8125 0.984375q0.984375 0.015625 0.984375 -0.96875l0.28125 -13.1875q0.03125 -0.90625 -0.921875 -0.90625zm6.969803 15.1875q0.84375 -0.015625 2.734375 -0.96875q0.171875 1.203125 1.3125 0.96875q1.0 -0.203125 0.21875 -1.53125q-0.53125 -0.921875 -0.484375 -3.109375q0.046875 -2.734375 0.25 -3.875q0.21875 -1.171875 -0.875 -1.40625q-0.5625 -0.125 -0.828125 0.09375q-2.390625 -0.75 -4.578125 1.046875q-1.890625 1.546875 -1.875 4.40625q0.03125 4.375 4.125 4.375zm1.046875 -1.84375q-0.6875 0.265625 -1.484375 0.203125q-1.875 -0.125 -1.90625 -2.90625q0.078125 -2.140625 1.703125 -3.3125q0.40625 -0.3125 1.078125 -0.46875q0.96875 -0.234375 1.84375 0.3125q-0.421875 1.484375 -0.09375 5.390625q-0.8125 0.671875 -1.140625 0.78125zm8.390503 -13.34375q-0.828125 0 -0.84375 0.859375l-0.09375 4.296875q-1.0625 0.015625 -2.109375 0.015625q-0.859375 0 -0.859375 0.921875q0 0.890625 0.78125 0.890625q1.0625 0 2.140625 0l-0.171875 7.09375q-0.015625 0.96875 0.8125 0.984375q0.984375 0.015625 0.984375 -0.96875l0.15625 -7.109375q0.984375 0 1.953125 0q1.0625 0 1.0625 -0.9375q0 -0.90625 -1.125 -0.90625l-1.84375 0.015625q0.0625 -1.921875 0.078125 -4.25q0 -0.90625 -0.921875 -0.90625zm7.0875397 5.140625q-0.921875 -0.03125 -0.953125 1.1875l-0.15625 7.640625q-0.015625 1.15625 0.953125 1.15625q0.859375 0 0.875 -1.234375l0.125 -7.578125q0.015625 -1.15625 -0.84375 -1.171875zm0.0625 -4.140625q-0.3125 0 -0.5625 0.171875q-0.234375 0.15625 -0.390625 0.421875q-0.15625 0.25 -0.15625 0.546875q0 0.3125 0.15625 0.578125q0.15625 0.25 0.40625 0.390625q0.234375 0.15625 0.515625 0.15625q0.03125 0 0.0625 0q0.28125 0.015625 0.5 -0.109375q0.21875 -0.09375 0.40625 -0.328125q0.203125 -0.265625 0.234375 -0.59375q0 -0.046875 0 -0.09375q0 -0.28125 -0.140625 -0.53125q-0.140625 -0.296875 -0.421875 -0.453125q-0.265625 -0.15625 -0.578125 -0.15625q-0.015625 0 -0.03125 0zm3.4632263 4.140625q-0.765625 0.328125 -0.328125 1.484375l2.859375 7.46875q0.40625 0.984375 1.109375 0.984375q0.6875 0 1.078125 -0.984375l2.859375 -7.46875q0.4375 -1.15625 -0.328125 -1.484375q-0.90625 -0.375 -1.328125 0.78125l-2.296875 6.375l-2.296875 -6.375q-0.421875 -1.15625 -1.328125 -0.78125zm10.354309 5.59375l6.125 -0.890625q0.96875 -0.140625 1.0 -1.25q0.046875 -1.40625 -1.0625 -2.5q-1.1875 -1.15625 -3.296875 -1.03125q-2.015625 0.125 -3.296875 1.953125q-1.015625 1.46875 -1.015625 3.34375q0 2.28125 1.625 3.609375q1.296875 1.078125 3.03125 1.09375q2.375 0.015625 3.828125 -1.28125q0.828125 -0.734375 0.40625 -1.578125q-0.1875 -0.359375 -0.625 -0.265625q-0.390625 0.078125 -1.0 0.75q-0.640625 0.71875 -2.5 0.734375q-1.265625 0.015625 -2.296875 -0.890625q-0.875 -0.78125 -0.921875 -1.796875zm0.203125 -1.515625q0.25 -0.890625 0.65625 -1.390625q0.90625 -1.125 2.171875 -1.125q0.890625 -0.015625 1.703125 0.5q0.6875 0.453125 0.828125 1.234375l-5.359375 0.78125zm15.530243 -8.21875q-1.234375 0 -1.234375 0.8125q0 0.953125 1.15625 0.953125q2.140625 0 4.296875 -0.015625l-0.28125 11.453125q-0.015625 0.90625 0.796875 0.921875q0.96875 0.015625 1.0 -0.90625l0.265625 -11.46875l3.84375 -0.015625q1.21875 0 1.203125 -0.828125q-0.03125 -0.90625 -1.203125 -0.90625l-9.84375 0zm13.164795 4.140625q-0.921875 -0.03125 -0.953125 1.1875l-0.15625 7.640625q-0.015625 1.15625 0.953125 1.15625q0.859375 0 0.875 -1.234375l0.125 -7.578125q0.015625 -1.15625 -0.84375 -1.171875zm0.0625 -4.140625q-0.3125 0 -0.5625 0.171875q-0.234375 0.15625 -0.390625 0.421875q-0.15625 0.25 -0.15625 0.546875q0 0.3125 0.15625 0.578125q0.15625 0.25 0.40625 0.390625q0.234375 0.15625 0.515625 0.15625q0.03125 0 0.0625 0q0.28125 0.015625 0.5 -0.109375q0.21875 -0.09375 0.40625 -0.328125q0.203125 -0.265625 0.234375 -0.59375q0 -0.046875 0 -0.09375q0 -0.28125 -0.140625 -0.53125q-0.140625 -0.296875 -0.421875 -0.453125q-0.265625 -0.15625 -0.578125 -0.15625q-0.015625 0 -0.03125 0zm4.4944763 3.703125q-0.828125 0 -0.859375 0.84375l-0.203125 8.453125q-0.03125 0.96875 0.796875 0.984375q0.9375 0.03125 0.96875 -0.96875l0.15625 -5.03125q0.5 -1.90625 2.0625 -1.84375q1.40625 0.046875 1.359375 2.640625l-0.09375 4.1875q-0.03125 1.078125 0.90625 1.0q0.84375 -0.0625 0.875 -1.171875l0.109375 -4.5625q0.015625 -0.53125 0.03125 -0.5625q0.609375 -1.5625 2.28125 -1.515625q1.4375 0.03125 1.390625 2.734375l-0.046875 4.203125q-0.015625 1.09375 0.96875 1.0q0.859375 -0.0625 0.875 -1.171875l0.0625 -4.53125q0.0625 -4.140625 -3.390625 -4.140625q-1.859375 -0.015625 -2.796875 1.328125q-0.65625 -1.359375 -2.546875 -1.328125q-1.171875 0 -1.984375 0.734375l0.015625 -0.375q0.015625 -0.90625 -0.9375 -0.90625zm14.74321 6.03125l6.125 -0.890625q0.96875 -0.140625 1.0 -1.25q0.046875 -1.40625 -1.0625 -2.5q-1.1875 -1.15625 -3.296875 -1.03125q-2.015625 0.125 -3.296875 1.953125q-1.015625 1.46875 -1.015625 3.34375q0 2.28125 1.625 3.609375q1.296875 1.078125 3.03125 1.09375q2.375 0.015625 3.828125 -1.28125q0.828125 -0.734375 0.40625 -1.578125q-0.1875 -0.359375 -0.625 -0.265625q-0.390625 0.078125 -1.0 0.75q-0.640625 0.71875 -2.5 0.734375q-1.265625 0.015625 -2.296875 -0.890625q-0.875 -0.78125 -0.921875 -1.796875zm0.203125 -1.515625q0.25 -0.890625 0.65625 -1.390625q0.90625 -1.125 2.171875 -1.125q0.890625 -0.015625 1.703125 0.5q0.6875 0.453125 0.828125 1.234375l-5.359375 0.78125zm11.236481 4.140625q-0.84375 -0.046875 -1.640625 -0.59375q-0.65625 -0.453125 -1.171875 -0.109375q-0.421875 0.265625 -0.390625 0.875q0.046875 0.546875 0.6875 0.90625q0.703125 0.40625 1.203125 0.546875q0.796875 0.21875 2.078125 0.21875q1.5 -0.015625 2.421875 -0.625q1.125 -0.75 1.265625 -1.921875q0.140625 -1.15625 -0.78125 -2.265625q-0.390625 -0.46875 -1.390625 -0.9375q-0.734375 -0.34375 -1.609375 -0.4375q-1.09375 -0.125 -1.265625 -0.609375q-0.171875 -0.5625 0.265625 -1.078125q0.53125 -0.625 1.625 -0.6875q1.03125 -0.03125 1.5625 0.484375q1.0625 1.015625 1.578125 0.59375q0.421875 -0.34375 0.34375 -0.890625q-0.140625 -0.828125 -1.4375 -1.46875q-1.0 -0.484375 -2.328125 -0.375q-1.1875 0.109375 -2.09375 0.765625q-0.765625 0.546875 -1.15625 1.59375q-0.359375 0.953125 -0.140625 1.859375q0.28125 1.171875 2.15625 1.4375q1.796875 0.25 2.3125 0.796875q0.765625 0.828125 0.390625 1.390625q-0.453125 0.671875 -2.484375 0.53125zm9.988419 -13.359375q-0.828125 0 -0.84375 0.859375l-0.09375 4.296875q-1.0625 0.015625 -2.109375 0.015625q-0.859375 0 -0.859375 0.921875q0 0.890625 0.78125 0.890625q1.0625 0 2.140625 0l-0.171875 7.09375q-0.015625 0.96875 0.8125 0.984375q0.984375 0.015625 0.984375 -0.96875l0.15625 -7.109375q0.984375 0 1.953125 0q1.0625 0 1.0625 -0.9375q0 -0.90625 -1.125 -0.90625l-1.84375 0.015625q0.0625 -1.921875 0.078125 -4.25q0 -0.90625 -0.921875 -0.90625zm6.6656647 10.734375l6.125 -0.890625q0.96875 -0.140625 1.0 -1.25q0.046875 -1.40625 -1.0625 -2.5q-1.1875 -1.15625 -3.296875 -1.03125q-2.015625 0.125 -3.296875 1.953125q-1.015625 1.46875 -1.015625 3.34375q0 2.28125 1.625 3.609375q1.296875 1.078125 3.03125 1.09375q2.375 0.015625 3.828125 -1.28125q0.828125 -0.734375 0.40625 -1.578125q-0.1875 -0.359375 -0.625 -0.265625q-0.390625 0.078125 -1.0 0.75q-0.640625 0.71875 -2.5 0.734375q-1.265625 0.015625 -2.296875 -0.890625q-0.875 -0.78125 -0.921875 -1.796875zm0.203125 -1.515625q0.25 -0.890625 0.65625 -1.390625q0.90625 -1.125 2.171875 -1.125q0.890625 -0.015625 1.703125 0.5q0.6875 0.453125 0.828125 1.234375l-5.359375 0.78125zm9.720856 10.65625q0.828125 0 0.84375 -0.859375l0.109375 -4.859375q0.015625 0.015625 0.03125 0.03125q0.609375 0.609375 2.15625 0.484375q1.78125 -0.125 2.984375 -1.625q1.0625 -1.328125 1.0625 -3.78125q0 -1.703125 -1.1875 -2.96875q-1.1875 -1.296875 -2.8125 -1.296875q-1.671875 -0.015625 -2.140625 0.328125q-0.21875 -0.515625 -0.703125 -0.515625q-0.96875 -0.03125 -0.984375 0.96875l-0.296875 13.1875q-0.015625 0.90625 0.9375 0.90625zm1.109375 -12.5625q0.765625 -0.734375 2.0 -0.5625q1.171875 0.15625 1.765625 0.90625q0.703125 0.859375 0.6875 2.046875q-0.015625 1.25 -0.609375 2.125q-0.6875 1.015625 -2.046875 1.109375q-1.015625 0.078125 -1.90625 -0.90625l0.109375 -4.71875zm10.381149 6.046875q-0.84375 -0.046875 -1.640625 -0.59375q-0.65625 -0.453125 -1.171875 -0.109375q-0.421875 0.265625 -0.390625 0.875q0.046875 0.546875 0.6875 0.90625q0.703125 0.40625 1.203125 0.546875q0.796875 0.21875 2.078125 0.21875q1.5 -0.015625 2.421875 -0.625q1.125 -0.75 1.265625 -1.921875q0.140625 -1.15625 -0.78125 -2.265625q-0.390625 -0.46875 -1.390625 -0.9375q-0.734375 -0.34375 -1.609375 -0.4375q-1.09375 -0.125 -1.265625 -0.609375q-0.171875 -0.5625 0.265625 -1.078125q0.53125 -0.625 1.625 -0.6875q1.03125 -0.03125 1.5625 0.484375q1.0625 1.015625 1.578125 0.59375q0.421875 -0.34375 0.34375 -0.890625q-0.140625 -0.828125 -1.4375 -1.46875q-1.0 -0.484375 -2.328125 -0.375q-1.1875 0.109375 -2.09375 0.765625q-0.765625 0.546875 -1.15625 1.59375q-0.359375 0.953125 -0.140625 1.859375q0.28125 1.171875 2.15625 1.4375q1.796875 0.25 2.3125 0.796875q0.765625 0.828125 0.390625 1.390625q-0.453125 0.671875 -2.484375 0.53125zm13.688431 -12.46875q-0.84375 0.015625 -0.859375 0.796875l-0.296875 12.46875q-0.03125 0.921875 0.78125 0.9375q0.984375 0 1.015625 -0.9375l0.109375 -5.234375l7.875 0q-0.0625 2.609375 -0.125 5.234375q-0.015625 0.921875 0.8125 0.9375q0.984375 0.015625 0.984375 -0.921875l0.28125 -12.421875q0.015625 -0.859375 -0.921875 -0.859375q-0.828125 0.03125 -0.84375 0.8125l-0.140625 5.3125l-7.875 0l0.125 -5.28125q0.015625 -0.84375 -0.921875 -0.84375zm14.501114 4.25q-0.921875 -0.03125 -0.953125 1.1875l-0.15625 7.640625q-0.015625 1.15625 0.953125 1.15625q0.859375 0 0.875 -1.234375l0.125 -7.578125q0.015625 -1.15625 -0.84375 -1.171875zm0.0625 -4.140625q-0.3125 0 -0.5625 0.171875q-0.234375 0.15625 -0.390625 0.421875q-0.15625 0.25 -0.15625 0.546875q0 0.3125 0.15625 0.578125q0.15625 0.25 0.40625 0.390625q0.234375 0.15625 0.515625 0.15625q0.03125 0 0.0625 0q0.28125 0.015625 0.5 -0.109375q0.21875 -0.09375 0.40625 -0.328125q0.203125 -0.265625 0.234375 -0.59375q0 -0.046875 0 -0.09375q0 -0.28125 -0.140625 -0.53125q-0.140625 -0.296875 -0.421875 -0.453125q-0.265625 -0.15625 -0.578125 -0.15625q-0.015625 0 -0.03125 0zm5.9632263 12.359375q-0.84375 -0.046875 -1.640625 -0.59375q-0.65625 -0.453125 -1.171875 -0.109375q-0.421875 0.265625 -0.390625 0.875q0.046875 0.546875 0.6875 0.90625q0.703125 0.40625 1.203125 0.546875q0.796875 0.21875 2.078125 0.21875q1.5 -0.015625 2.421875 -0.625q1.125 -0.75 1.265625 -1.921875q0.140625 -1.15625 -0.78125 -2.265625q-0.390625 -0.46875 -1.390625 -0.9375q-0.734375 -0.34375 -1.609375 -0.4375q-1.09375 -0.125 -1.265625 -0.609375q-0.171875 -0.5625 0.265625 -1.078125q0.53125 -0.625 1.625 -0.6875q1.03125 -0.03125 1.5625 0.484375q1.0625 1.015625 1.578125 0.59375q0.421875 -0.34375 0.34375 -0.890625q-0.140625 -0.828125 -1.4375 -1.46875q-1.0 -0.484375 -2.328125 -0.375q-1.1875 0.109375 -2.09375 0.765625q-0.765625 0.546875 -1.15625 1.59375q-0.359375 0.953125 -0.140625 1.859375q0.28125 1.171875 2.15625 1.4375q1.796875 0.25 2.3125 0.796875q0.765625 0.828125 0.390625 1.390625q-0.453125 0.671875 -2.484375 0.53125zm9.988403 -13.359375q-0.828125 0 -0.84375 0.859375l-0.09375 4.296875q-1.0624847 0.015625 -2.1093597 0.015625q-0.859375 0 -0.859375 0.921875q0 0.890625 0.78125 0.890625q1.0625 0 2.140625 0l-0.171875 7.09375q-0.015625 0.96875 0.81248474 0.984375q0.984375 0.015625 0.984375 -0.96875l0.15625 -7.109375q0.984375 0 1.953125 0q1.0625 0 1.0625 -0.9375q0 -0.90625 -1.125 -0.90625l-1.84375 0.015625q0.0625 -1.921875 0.078125 -4.25q0 -0.90625 -0.921875 -0.90625zm9.54068 6.96875q1.921875 -0.03125 1.90625 3.21875q-0.015625 1.703125 -0.734375 2.484375q-0.671875 0.71875 -1.671875 0.71875q-0.875 0 -1.546875 -0.71875q-0.65625 -0.71875 -0.65625 -2.140625q0 -1.484375 0.90625 -2.734375q0.59375 -0.796875 1.796875 -0.828125zm-0.078125 -1.859375q-1.984375 -0.015625 -3.1875 1.578125q-1.21875 1.59375 -1.21875 3.671875q0 2.203125 1.015625 3.40625q1.125 1.34375 2.75 1.359375q2.25 0.015625 3.34375 -1.375q0.96875 -1.171875 0.984375 -3.390625q0 -5.21875 -3.6875 -5.25zm6.935913 -0.40625q-0.84375 0 -0.859375 0.84375l-0.203125 8.53125q-0.03125 0.96875 0.78125 0.984375q0.953125 0.015625 0.984375 -0.96875l0.15625 -5.984375q0.859375 -0.84375 1.890625 -1.046875q1.046875 -0.203125 1.875 0.34375q1.046875 0.71875 1.453125 -0.453125q0.234375 -0.734375 -1.140625 -1.421875q-0.78125 -0.390625 -2.0 -0.375q-0.984375 0.015625 -2.015625 0.78125q0 -0.171875 0 -0.328125q0 -0.90625 -0.921875 -0.90625zm15.432495 0.59375q-0.875 -0.359375 -1.34375 0.71875l-2.5 5.734375l-3.046875 -5.796875q-0.578125 -1.078125 -1.421875 -0.625q-0.796875 0.421875 -0.21875 1.5l3.796875 7.015625l-1.8125 4.1875q-0.640625 1.453125 0.3125 1.84375q0.8125 0.328125 1.4375 -1.125l5.203125 -12.0q0.46875 -1.078125 -0.40625 -1.453125z" fill-rule="nonzero"/><path fill="#000000" fill-opacity="0.0" d="m393.33942 106.427895l0 0c0 -43.756607 35.47174 -79.22835 79.22833 -79.22835l0 0c21.012665 0 41.164734 8.347248 56.02289 23.205444c14.858215 14.8582 23.205444 35.01024 23.205444 56.022903l0 0c0 43.7566 -35.47174 79.22834 -79.22833 79.22834l0 0c-43.75659 0 -79.22833 -35.47174 -79.22833 -79.22834z" fill-rule="evenodd"/><path stroke="#000000" stroke-width="3.0" stroke-linejoin="round" stroke-linecap="butt" d="m393.33942 106.427895l0 0c0 -43.756607 35.47174 -79.22835 79.22833 -79.22835l0 0c21.012665 0 41.164734 8.347248 56.02289 23.205444c14.858215 14.8582 23.205444 35.01024 23.205444 56.022903l0 0c0 43.7566 -35.47174 79.22834 -79.22833 79.22834l0 0c-43.75659 0 -79.22833 -35.47174 -79.22833 -79.22834z" fill-rule="evenodd"/><path fill="#000000" d="m429.90927 77.67602q-1.234375 0 -1.234375 0.8125q0 0.953125 1.15625 0.953125q2.140625 0 4.296875 -0.015625l-0.28125 11.453125q-0.015625 0.90625 0.796875 0.921875q0.96875 0.015625 1.0 -0.90625l0.265625 -11.46875l3.84375 -0.015625q1.21875 0 1.203125 -0.828125q-0.03125 -0.90625 -1.203125 -0.90625l-9.84375 0zm12.74292 9.734375l6.125 -0.890625q0.96875 -0.140625 1.0 -1.25q0.046875 -1.40625 -1.0625 -2.5q-1.1875 -1.15625 -3.296875 -1.03125q-2.015625 0.125 -3.296875 1.953125q-1.015625 1.46875 -1.015625 3.34375q0 2.28125 1.625 3.609375q1.296875 1.078125 3.03125 1.09375q2.375 0.015625 3.828125 -1.28125q0.828125 -0.734375 0.40625 -1.578125q-0.1875 -0.359375 -0.625 -0.265625q-0.390625 0.078125 -1.0 0.75q-0.640625 0.71875 -2.5 0.734375q-1.265625 0.015625 -2.296875 -0.890625q-0.875 -0.78125 -0.921875 -1.796875zm0.203125 -1.515625q0.25 -0.890625 0.65625 -1.390625q0.90625 -1.125 2.171875 -1.125q0.890625 -0.015625 1.703125 0.5q0.6875 0.453125 0.828125 1.234375l-5.359375 0.78125zm9.939606 -4.515625q-0.84375 0 -0.859375 0.84375l-0.203125 8.53125q-0.03125 0.96875 0.78125 0.984375q0.953125 0.015625 0.984375 -0.96875l0.15625 -5.984375q0.859375 -0.84375 1.890625 -1.046875q1.046875 -0.203125 1.875 0.34375q1.046875 0.71875 1.453125 -0.453125q0.234375 -0.734375 -1.140625 -1.421875q-0.78125 -0.390625 -2.0 -0.375q-0.984375 0.015625 -2.015625 0.78125q0 -0.171875 0 -0.328125q0 -0.90625 -0.921875 -0.90625zm8.79187 0q-0.828125 0 -0.859375 0.84375l-0.203125 8.453125q-0.03125 0.96875 0.796875 0.984375q0.9375 0.03125 0.96875 -0.96875l0.15625 -5.03125q0.5 -1.90625 2.0625 -1.84375q1.40625 0.046875 1.359375 2.640625l-0.09375 4.1875q-0.03125 1.078125 0.90625 1.0q0.84375 -0.0625 0.875 -1.171875l0.109375 -4.5625q0.015625 -0.53125 0.03125 -0.5625q0.609375 -1.5625 2.28125 -1.515625q1.4375 0.03125 1.390625 2.734375l-0.046875 4.203125q-0.015625 1.09375 0.96875 1.0q0.859375 -0.0625 0.875 -1.171875l0.0625 -4.53125q0.0625 -4.140625 -3.390625 -4.140625q-1.859375 -0.015625 -2.796875 1.328125q-0.65625 -1.359375 -2.546875 -1.328125q-1.171875 0 -1.984375 0.734375l0.015625 -0.375q0.015625 -0.90625 -0.9375 -0.90625zm15.16507 0.4375q-0.921875 -0.03125 -0.953125 1.1875l-0.15625 7.640625q-0.015625 1.15625 0.953125 1.15625q0.859375 0 0.875 -1.234375l0.125 -7.578125q0.015625 -1.15625 -0.84375 -1.171875zm0.0625 -4.140625q-0.3125 0 -0.5625 0.171875q-0.234375 0.15625 -0.390625 0.421875q-0.15625 0.25 -0.15625 0.546875q0 0.3125 0.15625 0.578125q0.15625 0.25 0.40625 0.390625q0.234375 0.15625 0.515625 0.15625q0.03125 0 0.0625 0q0.28125 0.015625 0.5 -0.109375q0.21875 -0.09375 0.40625 -0.328125q0.203125 -0.265625 0.234375 -0.59375q0 -0.046875 0 -0.09375q0 -0.28125 -0.140625 -0.53125q-0.140625 -0.296875 -0.421875 -0.453125q-0.265625 -0.15625 -0.578125 -0.15625q-0.015625 0 -0.03125 0zm4.6663513 3.703125q-0.84375 0 -0.859375 0.84375l-0.203125 8.484375q-0.03125 0.96875 0.78125 0.984375q0.984375 0.015625 1.0 -0.96875l0.15625 -5.515625q1.4375 -1.453125 2.703125 -1.359375q1.515625 0.109375 1.453125 2.625l-0.109375 4.3125q-0.03125 1.109375 0.953125 1.015625q0.859375 -0.078125 0.875 -1.171875l0.078125 -4.5625q0.0625 -4.140625 -3.375 -4.140625q-1.546875 0 -2.546875 0.890625q0.015625 -0.265625 0.015625 -0.53125q0.03125 -0.90625 -0.921875 -0.90625zm12.077881 10.484375q0.84375 -0.015625 2.734375 -0.96875q0.171875 1.203125 1.3125 0.96875q1.0 -0.203125 0.21875 -1.53125q-0.53125 -0.921875 -0.484375 -3.109375q0.046875 -2.734375 0.25 -3.875q0.21875 -1.171875 -0.875 -1.40625q-0.5625 -0.125 -0.828125 0.09375q-2.390625 -0.75 -4.578125 1.046875q-1.890625 1.546875 -1.875 4.40625q0.03125 4.375 4.125 4.375zm1.046875 -1.84375q-0.6875 0.265625 -1.484375 0.203125q-1.875 -0.125 -1.90625 -2.90625q0.078125 -2.140625 1.703125 -3.3125q0.40625 -0.3125 1.078125 -0.46875q0.96875 -0.234375 1.84375 0.3125q-0.421875 1.484375 -0.09375 5.390625q-0.8125 0.671875 -1.140625 0.78125zm8.390503 -13.34375q-0.828125 0 -0.84375 0.859375l-0.09375 4.296875q-1.0625 0.015625 -2.109375 0.015625q-0.859375 0 -0.859375 0.921875q0 0.890625 0.78125 0.890625q1.0625 0 2.140625 0l-0.171875 7.09375q-0.015625 0.96875 0.8125 0.984375q0.984375 0.015625 0.984375 -0.96875l0.15625 -7.109375q0.984375 0 1.953125 0q1.0625 0 1.0625 -0.9375q0 -0.90625 -1.125 -0.90625l-1.84375 0.015625q0.0625 -1.921875 0.078125 -4.25q0 -0.90625 -0.921875 -0.90625zm6.66568 10.734375l6.1249695 -0.890625q0.96875 -0.140625 1.0 -1.25q0.046875 -1.40625 -1.0625 -2.5q-1.1875 -1.15625 -3.296875 -1.03125q-2.0155945 0.125 -3.2968445 1.953125q-1.015625 1.46875 -1.015625 3.34375q0 2.28125 1.625 3.609375q1.296875 1.078125 3.0312195 1.09375q2.375 0.015625 3.828125 -1.28125q0.828125 -0.734375 0.40625 -1.578125q-0.1875 -0.359375 -0.625 -0.265625q-0.390625 0.078125 -1.0 0.75q-0.640625 0.71875 -2.5 0.734375q-1.2655945 0.015625 -2.2968445 -0.890625q-0.875 -0.78125 -0.921875 -1.796875zm0.203125 -1.515625q0.25 -0.890625 0.65625 -1.390625q0.90625 -1.125 2.1718445 -1.125q0.890625 -0.015625 1.703125 0.5q0.6875 0.453125 0.828125 1.234375l-5.3593445 0.78125z" fill-rule="nonzero"/><path fill="#000000" d="m429.9179 102.06664q-0.8125 1.375 -0.453125 2.8125q0.625 2.546875 4.015625 2.5q3.484375 -0.0625 3.859375 1.265625q0.34375 1.265625 -0.875 2.4375q-0.625 0.609375 -2.375 0.921875q-0.984375 0.171875 -2.15625 -0.109375q-0.875 -0.203125 -1.484375 -0.75q-0.78125 -0.671875 -1.296875 -0.53125q-0.453125 0.140625 -0.546875 0.734375q-0.0625 0.546875 0.65625 1.203125q0.515625 0.4375 1.25 0.75q1.078125 0.453125 2.71875 0.4375q2.21875 -0.015625 3.71875 -0.875q2.25 -1.296875 2.375 -3.5625q0.078125 -1.46875 -1.0625 -2.65625q-0.921875 -0.9375 -2.875 -1.0q-2.1875 -0.0625 -2.75 -0.15625q-1.46875 -0.203125 -1.3125 -1.84375q0.078125 -0.828125 0.953125 -1.5q0.8125 -0.640625 2.328125 -0.734375q0.984375 -0.046875 2.25 0.4375q0.890625 0.34375 1.234375 0.1875q0.515625 -0.25 0.484375 -0.71875q-0.03125 -0.5625 -1.359375 -1.15625q-0.9375 -0.40625 -2.28125 -0.453125q-1.515625 -0.0625 -2.828125 0.578125q-1.578125 0.75 -2.1875 1.78125zm13.060486 1.75q-0.921875 -0.03125 -0.953125 1.1875l-0.15625 7.640625q-0.015625 1.15625 0.953125 1.15625q0.859375 0 0.875 -1.234375l0.125 -7.578125q0.015625 -1.15625 -0.84375 -1.171875zm0.0625 -4.140625q-0.3125 0 -0.5625 0.171875q-0.234375 0.15625 -0.390625 0.421875q-0.15625 0.25 -0.15625 0.546875q0 0.3125 0.15625 0.578125q0.15625 0.25 0.40625 0.390625q0.234375 0.15625 0.515625 0.15625q0.03125 0 0.0625 0q0.28125 0.015625 0.5 -0.109375q0.21875 -0.09375 0.40625 -0.328125q0.203125 -0.265625 0.234375 -0.59375q0 -0.046875 0 -0.09375q0 -0.28125 -0.140625 -0.53125q-0.140625 -0.296875 -0.421875 -0.453125q-0.265625 -0.15625 -0.578125 -0.15625q-0.015625 0 -0.03125 0zm4.4944763 3.703125q-0.828125 0 -0.859375 0.84375l-0.203125 8.453125q-0.03125 0.96875 0.796875 0.984375q0.9375 0.03125 0.96875 -0.96875l0.15625 -5.03125q0.5 -1.90625 2.0625 -1.84375q1.40625 0.046875 1.359375 2.640625l-0.09375 4.1875q-0.03125 1.078125 0.90625 1.0q0.84375 -0.0625 0.875 -1.171875l0.109375 -4.5625q0.015625 -0.53125 0.03125 -0.5625q0.609375 -1.5625 2.28125 -1.515625q1.4375 0.03125 1.390625 2.734375l-0.046875 4.203125q-0.015625 1.09375 0.96875 1.0q0.859375 -0.0625 0.875 -1.171875l0.0625 -4.53125q0.0625 -4.140625 -3.390625 -4.140625q-1.859375 -0.015625 -2.796875 1.328125q-0.65625 -1.359375 -2.546875 -1.328125q-1.171875 0 -1.984375 0.734375l0.015625 -0.375q0.015625 -0.90625 -0.9375 -0.90625zm20.211975 10.65625q0.828125 0 0.84375 -0.84375l0.21875 -8.5q0.015625 -0.984375 -0.796875 -1.015625q-0.96875 0 -1.0 0.984375l-0.109375 4.609375q-0.046875 1.484375 -1.234375 2.09375q-1.296875 0.65625 -2.25 0.015625q-0.6875 -0.484375 -0.671875 -2.6875l0.015625 -3.984375q0.015625 -1.09375 -0.953125 -1.0q-0.859375 0.078125 -0.875 1.171875l-0.03125 4.46875q-0.03125 4.140625 3.390625 4.15625q1.546875 0 2.546875 -0.90625l-0.015625 0.546875q-0.015625 0.890625 0.921875 0.890625zm4.607849 -15.359375q-0.828125 0.03125 -0.84375 0.859375l-0.3125 13.21875q-0.015625 0.96875 0.8125 0.984375q0.984375 0.015625 0.984375 -0.96875l0.28125 -13.1875q0.03125 -0.90625 -0.921875 -0.90625zm6.969818 15.1875q0.84375 -0.015625 2.734375 -0.96875q0.171875 1.203125 1.3125 0.96875q1.0 -0.203125 0.21875 -1.53125q-0.53125 -0.921875 -0.484375 -3.109375q0.046875 -2.734375 0.25 -3.875q0.21875 -1.171875 -0.875 -1.40625q-0.5625 -0.125 -0.828125 0.09375q-2.390625 -0.75 -4.578125 1.046875q-1.890625 1.546875 -1.875 4.40625q0.03125 4.375 4.125 4.375zm1.046875 -1.84375q-0.6875 0.265625 -1.484375 0.203125q-1.875 -0.125 -1.90625 -2.90625q0.078125 -2.140625 1.703125 -3.3125q0.40625 -0.3125 1.078125 -0.46875q0.96875 -0.234375 1.84375 0.3125q-0.421875 1.484375 -0.09375 5.390625q-0.8125 0.671875 -1.140625 0.78125zm8.390503 -13.34375q-0.828125 0 -0.84375 0.859375l-0.09375 4.296875q-1.0625 0.015625 -2.109375 0.015625q-0.859375 0 -0.859375 0.921875q0 0.890625 0.78125 0.890625q1.0625 0 2.140625 0l-0.171875 7.09375q-0.015625 0.96875 0.8125 0.984375q0.984375 0.015625 0.984375 -0.96875l0.15625 -7.109375q0.984375 0 1.953125 0q1.0625 0 1.0625 -0.9375q0 -0.90625 -1.125 -0.90625l-1.84375 0.015625q0.0625 -1.921875 0.078125 -4.25q0 -0.90625 -0.921875 -0.90625zm7.0875244 5.140625q-0.921875 -0.03125 -0.953125 1.1875l-0.15625 7.640625q-0.015625 1.15625 0.953125 1.15625q0.859375 0 0.875 -1.234375l0.125 -7.578125q0.015625 -1.15625 -0.84375 -1.171875zm0.0625 -4.140625q-0.3125 0 -0.5625 0.171875q-0.234375 0.15625 -0.390625 0.421875q-0.15625 0.25 -0.15625 0.546875q0 0.3125 0.15625 0.578125q0.15625 0.25 0.40625 0.390625q0.234375 0.15625 0.515625 0.15625q0.03125 0 0.0625 0q0.28125 0.015625 0.5 -0.109375q0.21875 -0.09375 0.40625 -0.328125q0.203125 -0.265625 0.234375 -0.59375q0 -0.046875 0 -0.09375q0 -0.28125 -0.140625 -0.53125q-0.140625 -0.296875 -0.421875 -0.453125q-0.265625 -0.15625 -0.578125 -0.15625q-0.015625 0 -0.03125 0zm7.6194763 5.96875q1.921875 -0.03125 1.90625 3.21875q-0.015625 1.703125 -0.734375 2.484375q-0.671875 0.71875 -1.671875 0.71875q-0.875 0 -1.546875 -0.71875q-0.65625 -0.71875 -0.65625 -2.140625q0 -1.484375 0.90625 -2.734375q0.59375 -0.796875 1.796875 -0.828125zm-0.078125 -1.859375q-1.984375 -0.015625 -3.1875 1.578125q-1.21875 1.59375 -1.21875 3.671875q0 2.203125 1.015625 3.40625q1.125 1.34375 2.75 1.359375q2.25 0.015625 3.34375 -1.375q0.96875 -1.171875 0.984375 -3.390625q0 -5.21875 -3.6875 -5.25zm6.9359436 -0.40625q-0.84375 0 -0.859375 0.84375l-0.203125 8.484375q-0.03125 0.96875 0.78125 0.984375q0.984375 0.015625 1.0 -0.96875l0.15625 -5.515625q1.4375 -1.453125 2.703125 -1.359375q1.515625 0.109375 1.453125 2.625l-0.109375 4.3125q-0.03125 1.109375 0.953125 1.015625q0.859375 -0.078125 0.875 -1.171875l0.078125 -4.5625q0.0625 -4.140625 -3.375 -4.140625q-1.546875 0 -2.546875 0.890625q0.015625 -0.265625 0.015625 -0.53125q0.03125 -0.90625 -0.921875 -0.90625z" fill-rule="nonzero"/><path fill="#000000" d="m470.83676 133.73853q-0.28125 0.078125 -0.453125 0.25q-0.21875 0.171875 -0.3125 0.421875q-0.078125 0.203125 -0.078125 0.4375q0 0.3125 0.140625 0.578125q0.171875 0.296875 0.484375 0.4375q0.234375 0.125 0.5 0.125q0.078125 -0.015625 0.15625 -0.015625q0.34375 -0.046875 0.609375 -0.28125q0.25 -0.21875 0.328125 -0.5625q0.03125 -0.09375 0.03125 -0.28125q0 -0.15625 -0.03125 -0.296875q-0.0625 -0.28125 -0.296875 -0.5q-0.21875 -0.21875 -0.5 -0.296875q-0.140625 -0.03125 -0.296875 -0.03125q-0.15625 -0.015625 -0.28125 0.015625zm-2.015625 -10.593758q-0.921875 1.078125 -0.078125 1.734375q0.484375 0.375 1.609375 -0.640625q0.734375 -0.640625 2.0 -0.484375q1.359375 0.15625 1.609375 1.390625q0.375 1.875 -1.484375 2.453125q-1.875 0.5781326 -2.09375 2.4687576q-0.265625 2.078125 0.984375 2.015625q0.8125 -0.046875 0.84375 -1.859375q0 -0.765625 1.71875 -1.21875q2.421875 -0.671875 1.90625 -4.1875076q-0.40625 -2.984375 -3.5625 -2.921875q-2.375 0.046875 -3.453125 1.25z" fill-rule="nonzero"/><path fill="#000000" fill-opacity="0.0" d="m657.34467 36.32309l0 0c0 -5.0387936 4.084717 -9.123543 9.123535 -9.123543l59.26471 0c2.4197388 0 4.7403564 0.9612274 6.451355 2.672224c1.7109985 1.7109966 2.6721802 4.031603 2.6721802 6.4513187l0 36.493073c0 5.0387955 -4.084717 9.123543 -9.123535 9.123543l-59.26471 0c-5.0388184 0 -9.123535 -4.0847473 -9.123535 -9.123543z" fill-rule="evenodd"/><path stroke="#3c78d8" stroke-width="3.0" stroke-linejoin="round" stroke-linecap="butt" d="m657.34467 36.32309l0 0c0 -5.0387936 4.084717 -9.123543 9.123535 -9.123543l59.26471 0c2.4197388 0 4.7403564 0.9612274 6.451355 2.672224c1.7109985 1.7109966 2.6721802 4.031603 2.6721802 6.4513187l0 36.493073c0 5.0387955 -4.084717 9.123543 -9.123535 9.123543l-59.26471 0c-5.0388184 0 -9.123535 -4.0847473 -9.123535 -9.123543z" fill-rule="evenodd"/><path fill="#3c78d8" d="m691.1952 47.864624q-0.8125 -0.4375 -1.265625 0.5l-3.21875 6.640625l-4.125 -6.6875q-0.59375 -0.953125 -1.375 -0.40625q-0.71875 0.484375 -0.265625 1.203125l4.828125 7.8125l-1.4375 3.015625q-0.71875 1.46875 0.015625 1.8125q1.015625 0.53125 1.59375 -0.6875l5.6875 -12.0625q0.34375 -0.71875 -0.4375 -1.140625zm3.5389404 9.6875l6.125 -0.890625q0.96875 -0.140625 1.0 -1.25q0.046875 -1.40625 -1.0625 -2.5q-1.1875 -1.15625 -3.296875 -1.03125q-2.015625 0.125 -3.296875 1.953125q-1.015625 1.46875 -1.015625 3.34375q0 2.28125 1.625 3.609375q1.296875 1.078125 3.03125 1.09375q2.375 0.015625 3.828125 -1.28125q0.828125 -0.734375 0.40625 -1.578125q-0.1875 -0.359375 -0.625 -0.265625q-0.390625 0.078125 -1.0 0.75q-0.640625 0.71875 -2.5 0.734375q-1.265625 0.015625 -2.296875 -0.890625q-0.875 -0.78125 -0.921875 -1.796875zm0.203125 -1.515625q0.25 -0.890625 0.65625 -1.390625q0.90625 -1.125 2.171875 -1.125q0.890625 -0.015625 1.703125 0.5q0.6875 0.453125 0.828125 1.234375l-5.359375 0.78125zm11.236511 4.140625q-0.84375 -0.046875 -1.640625 -0.59375q-0.65625 -0.453125 -1.171875 -0.109375q-0.421875 0.265625 -0.390625 0.875q0.046875 0.546875 0.6875 0.90625q0.703125 0.40625 1.203125 0.546875q0.796875 0.21875 2.078125 0.21875q1.5 -0.015625 2.421875 -0.625q1.125 -0.75 1.265625 -1.921875q0.140625 -1.15625 -0.78125 -2.265625q-0.390625 -0.46875 -1.390625 -0.9375q-0.734375 -0.34375 -1.609375 -0.4375q-1.09375 -0.125 -1.265625 -0.609375q-0.171875 -0.5625 0.265625 -1.078125q0.53125 -0.625 1.625 -0.6875q1.03125 -0.03125 1.5625 0.484375q1.0625 1.015625 1.578125 0.59375q0.421875 -0.34375 0.34375 -0.890625q-0.140625 -0.828125 -1.4375 -1.46875q-1.0 -0.484375 -2.328125 -0.375q-1.1875 0.109375 -2.09375 0.765625q-0.765625 0.546875 -1.15625 1.59375q-0.359375 0.953125 -0.140625 1.859375q0.28125 1.171875 2.15625 1.4375q1.796875 0.25 2.3125 0.796875q0.765625 0.828125 0.390625 1.390625q-0.453125 0.671875 -2.484375 0.53125z" fill-rule="nonzero"/><path fill="#000000" fill-opacity="0.0" d="m50.54898 148.00075l0 0c0 -5.380905 4.3620796 -9.742981 9.742977 -9.742981l236.67151 0c2.584015 0 5.0621643 1.0264893 6.8893433 2.853653c1.8271484 1.8271637 2.8536377 4.3053284 2.8536377 6.889328l0 38.970734c0 5.380905 -4.3620605 9.742981 -9.742981 9.742981l-236.67151 0c-5.3808975 0 -9.742977 -4.362076 -9.742977 -9.742981z" fill-rule="evenodd"/><path stroke="#3c78d8" stroke-width="3.0" stroke-linejoin="round" stroke-linecap="butt" d="m50.54898 148.00075l0 0c0 -5.380905 4.3620796 -9.742981 9.742977 -9.742981l236.67151 0c2.584015 0 5.0621643 1.0264893 6.8893433 2.853653c1.8271484 1.8271637 2.8536377 4.3053284 2.8536377 6.889328l0 38.970734c0 5.380905 -4.3620605 9.742981 -9.742981 9.742981l-236.67151 0c-5.3808975 0 -9.742977 -4.362076 -9.742977 -9.742981z" fill-rule="evenodd"/><path fill="#3c78d8" d="m72.27973 163.12486q-0.8125 1.375 -0.453125 2.8125q0.625 2.546875 4.015625 2.5q3.484375 -0.0625 3.859375 1.265625q0.34375 1.265625 -0.875 2.4375q-0.625 0.609375 -2.375 0.921875q-0.984375 0.171875 -2.15625 -0.109375q-0.875 -0.203125 -1.484375 -0.75q-0.78125 -0.671875 -1.296875 -0.53125q-0.453125 0.140625 -0.546875 0.734375q-0.0625 0.546875 0.65625 1.203125q0.515625 0.4375 1.25 0.75q1.078125 0.453125 2.71875 0.4375q2.21875 -0.015625 3.71875 -0.875q2.25 -1.296875 2.375 -3.5625q0.078125 -1.46875 -1.0625 -2.65625q-0.921875 -0.9375 -2.875 -1.0q-2.1875 -0.0625 -2.75 -0.15625q-1.46875 -0.203125 -1.3125 -1.84375q0.078125 -0.828125 0.953125 -1.5q0.8125 -0.640625 2.328125 -0.734375q0.984375 -0.046875 2.25 0.4375q0.890625 0.34375 1.234375 0.1875q0.515625 -0.25 0.484375 -0.71875q-0.03125 -0.5625 -1.359375 -1.15625q-0.9375 -0.40625 -2.28125 -0.453125q-1.515625 -0.0625 -2.828125 0.578125q-1.578125 0.75 -2.1875 1.78125zm14.763611 -3.390625q-0.828125 0 -0.84375 0.859375l-0.09375 4.296875q-1.0625 0.015625 -2.109375 0.015625q-0.859375 0 -0.859375 0.921875q0 0.890625 0.78125 0.890625q1.0625 0 2.140625 0l-0.171875 7.09375q-0.015625 0.96875 0.8125 0.984375q0.984375 0.015625 0.984375 -0.96875l0.15625 -7.109375q0.984375 0 1.953125 0q1.0625 0 1.0625 -0.9375q0 -0.90625 -1.125 -0.90625l-1.84375 0.015625q0.0625 -1.921875 0.078125 -4.25q0 -0.90625 -0.921875 -0.90625zm8.90004 15.1875q0.84375 -0.015625 2.734375 -0.96875q0.171875 1.203125 1.3125 0.96875q1.0 -0.203125 0.21875 -1.53125q-0.53125 -0.921875 -0.484375 -3.109375q0.046875 -2.734375 0.25 -3.875q0.21875 -1.171875 -0.875 -1.40625q-0.5625 -0.125 -0.828125 0.09375q-2.390625 -0.75 -4.578125 1.046875q-1.890625 1.546875 -1.875 4.40625q0.03125 4.375 4.125 4.375zm1.046875 -1.84375q-0.6875 0.265625 -1.484375 0.203125q-1.875 -0.125 -1.90625 -2.90625q0.078125 -2.140625 1.703125 -3.3125q0.40625 -0.3125 1.078125 -0.46875q0.96875 -0.234375 1.84375 0.3125q-0.421875 1.484375 -0.09375 5.390625q-0.8125 0.671875 -1.140625 0.78125zm8.390503 -13.34375q-0.828125 0 -0.84375 0.859375l-0.09375 4.296875q-1.0625 0.015625 -2.109375 0.015625q-0.859375 0 -0.859375 0.921875q0 0.890625 0.78125 0.890625q1.0625 0 2.140625 0l-0.171875 7.09375q-0.015625 0.96875 0.8125 0.984375q0.984375 0.015625 0.984375 -0.96875l0.15625 -7.109375q0.984375 0 1.953125 0q1.0625 0 1.0625 -0.9375q0 -0.90625 -1.125 -0.90625l-1.84375 0.015625q0.0625 -1.921875 0.078125 -4.25q0 -0.90625 -0.921875 -0.90625zm6.6656647 10.734375l6.125 -0.890625q0.96875 -0.140625 1.0 -1.25q0.046875 -1.40625 -1.0625 -2.5q-1.1875 -1.15625 -3.296875 -1.03125q-2.015625 0.125 -3.296875 1.953125q-1.015625 1.46875 -1.015625 3.34375q0 2.28125 1.625 3.609375q1.296875 1.078125 3.03125 1.09375q2.375 0.015625 3.828125 -1.28125q0.828125 -0.734375 0.40625 -1.578125q-0.1875 -0.359375 -0.625 -0.265625q-0.390625 0.078125 -1.0 0.75q-0.640625 0.71875 -2.5 0.734375q-1.265625 0.015625 -2.296875 -0.890625q-0.875 -0.78125 -0.921875 -1.796875zm0.203125 -1.515625q0.25 -0.890625 0.65625 -1.390625q0.90625 -1.125 2.171875 -1.125q0.890625 -0.015625 1.703125 0.5q0.6875 0.453125 0.828125 1.234375l-5.359375 0.78125zm15.248993 -8.375q-0.828125 0 -0.84375 0.796875l-0.3125 12.484375q-0.015625 0.921875 0.796875 0.953125q0.9843674 0.015625 0.9999924 -0.9375l0.109375 -4.875q0.234375 0.03125 0.5 0.015625q3.828125 -0.21875 4.8125 -1.421875q1.65625 -2.09375 0.765625 -4.40625q-0.890625 -2.296875 -4.078125 -2.609375q-0.953125 -0.09375 -2.3749924 0.03125q-0.171875 -0.03125 -0.375 -0.03125zm0.9062424 1.828125q0.734375 -0.078125 1.265625 -0.09375q2.0625 -0.015625 2.8125 1.375q0.609375 1.1875 -0.171875 2.546875q-0.796875 1.390625 -4.015625 1.046875l0.109375 -4.875zm11.382599 12.515625q0.84375 -0.015625 2.734375 -0.96875q0.171875 1.203125 1.3125 0.96875q1.0 -0.203125 0.21875 -1.53125q-0.53125 -0.921875 -0.484375 -3.109375q0.046875 -2.734375 0.25 -3.875q0.21875 -1.171875 -0.875 -1.40625q-0.5625 -0.125 -0.828125 0.09375q-2.390625 -0.75 -4.578125 1.046875q-1.890625 1.546875 -1.875 4.40625q0.03125 4.375 4.125 4.375zm1.046875 -1.84375q-0.6875 0.265625 -1.484375 0.203125q-1.875 -0.125 -1.90625 -2.90625q0.078125 -2.140625 1.703125 -3.3125q0.40625 -0.3125 1.078125 -0.46875q0.96875 -0.234375 1.84375 0.3125q-0.421875 1.484375 -0.09375 5.390625q-0.8125 0.671875 -1.140625 0.78125zm6.187378 -8.640625q-0.84375 0 -0.859375 0.84375l-0.203125 8.53125q-0.03125 0.96875 0.78125 0.984375q0.953125 0.015625 0.984375 -0.96875l0.15625 -5.984375q0.859375 -0.84375 1.890625 -1.046875q1.046875 -0.203125 1.875 0.34375q1.046875 0.71875 1.453125 -0.453125q0.234375 -0.734375 -1.140625 -1.421875q-0.78125 -0.390625 -2.0 -0.375q-0.984375 0.015625 -2.015625 0.78125q0 -0.171875 0 -0.328125q0 -0.90625 -0.921875 -0.90625zm11.16687 -4.703125q-0.828125 0 -0.84375 0.859375l-0.09375 4.296875q-1.0625 0.015625 -2.109375 0.015625q-0.859375 0 -0.859375 0.921875q0 0.890625 0.78125 0.890625q1.0625 0 2.140625 0l-0.171875 7.09375q-0.015625 0.96875 0.8125 0.984375q0.984375 0.015625 0.984375 -0.96875l0.15625 -7.109375q0.984375 0 1.953125 0q1.0625 0 1.0625 -0.9375q0 -0.90625 -1.125 -0.90625l-1.84375 0.015625q0.0625 -1.921875 0.078125 -4.25q0 -0.90625 -0.921875 -0.90625zm7.0875397 5.140625q-0.921875 -0.03125 -0.953125 1.1875l-0.15625 7.640625q-0.015625 1.15625 0.953125 1.15625q0.859375 0 0.875 -1.234375l0.125 -7.578125q0.015625 -1.15625 -0.84375 -1.171875zm0.0625 -4.140625q-0.3125 0 -0.5625 0.171875q-0.234375 0.15625 -0.390625 0.421875q-0.15625 0.25 -0.15625 0.546875q0 0.3125 0.15625 0.578125q0.15625 0.25 0.40625 0.390625q0.234375 0.15625 0.515625 0.15625q0.03125 0 0.0625 0q0.28125 0.015625 0.5 -0.109375q0.21875 -0.09375 0.40625 -0.328125q0.203125 -0.265625 0.234375 -0.59375q0 -0.046875 0 -0.09375q0 -0.28125 -0.140625 -0.53125q-0.140625 -0.296875 -0.421875 -0.453125q-0.265625 -0.15625 -0.578125 -0.15625q-0.015625 0 -0.03125 0zm6.8694763 -1.0q-0.828125 0 -0.84375 0.859375l-0.09375 4.296875q-1.0625 0.015625 -2.109375 0.015625q-0.859375 0 -0.859375 0.921875q0 0.890625 0.78125 0.890625q1.0625 0 2.140625 0l-0.171875 7.09375q-0.015625 0.96875 0.8125 0.984375q0.984375 0.015625 0.984375 -0.96875l0.15625 -7.109375q0.984375 0 1.953125 0q1.0625 0 1.0625 -0.9375q0 -0.90625 -1.125 -0.90625l-1.84375 0.015625q0.0625 -1.921875 0.078125 -4.25q0 -0.90625 -0.921875 -0.90625zm7.0875397 5.140625q-0.921875 -0.03125 -0.953125 1.1875l-0.15625 7.640625q-0.015625 1.15625 0.953125 1.15625q0.859375 0 0.875 -1.234375l0.125 -7.578125q0.015625 -1.15625 -0.84375 -1.171875zm0.0625 -4.140625q-0.3125 0 -0.5625 0.171875q-0.234375 0.15625 -0.390625 0.421875q-0.15625 0.25 -0.15625 0.546875q0 0.3125 0.15625 0.578125q0.15625 0.25 0.40625 0.390625q0.234375 0.15625 0.515625 0.15625q0.03125 0 0.0625 0q0.28125 0.015625 0.5 -0.109375q0.21875 -0.09375 0.40625 -0.328125q0.203125 -0.265625 0.234375 -0.59375q0 -0.046875 0 -0.09375q0 -0.28125 -0.140625 -0.53125q-0.140625 -0.296875 -0.421875 -0.453125q-0.265625 -0.15625 -0.578125 -0.15625q-0.015625 0 -0.03125 0zm7.6194916 5.96875q1.921875 -0.03125 1.90625 3.21875q-0.015625 1.703125 -0.734375 2.484375q-0.671875 0.71875 -1.671875 0.71875q-0.875 0 -1.546875 -0.71875q-0.65625 -0.71875 -0.65625 -2.140625q0 -1.484375 0.90625 -2.734375q0.59375 -0.796875 1.796875 -0.828125zm-0.078125 -1.859375q-1.984375 -0.015625 -3.1875 1.578125q-1.21875 1.59375 -1.21875 3.671875q0 2.203125 1.015625 3.40625q1.125 1.34375 2.75 1.359375q2.25 0.015625 3.34375 -1.375q0.96875 -1.171875 0.984375 -3.390625q0 -5.21875 -3.6875 -5.25zm6.935913 -0.40625q-0.84375 0 -0.859375 0.84375l-0.203125 8.484375q-0.03125 0.96875 0.78125 0.984375q0.984375 0.015625 1.0 -0.96875l0.15625 -5.515625q1.4375 -1.453125 2.703125 -1.359375q1.515625 0.109375 1.453125 2.625l-0.109375 4.3125q-0.03125 1.109375 0.953125 1.015625q0.859375 -0.078125 0.875 -1.171875l0.078125 -4.5625q0.0625 -4.140625 -3.375 -4.140625q-1.546875 0 -2.546875 0.890625q0.015625 -0.265625 0.015625 -0.53125q0.03125 -0.90625 -0.921875 -0.90625zm15.668518 -3.8125q-0.84375 0.015625 -0.859375 0.796875l-0.296875 12.46875q-0.03125 0.921875 0.78125 0.9375q0.984375 0 1.015625 -0.9375l0.109375 -5.234375l7.875 0q-0.0625 2.609375 -0.125 5.234375q-0.015625 0.921875 0.8125 0.9375q0.984375 0.015625 0.984375 -0.921875l0.28125 -12.421875q0.015625 -0.859375 -0.921875 -0.859375q-0.828125 0.03125 -0.84375 0.8125l-0.140625 5.3125l-7.875 0l0.125 -5.28125q0.015625 -0.84375 -0.921875 -0.84375zm14.501129 4.25q-0.921875 -0.03125 -0.953125 1.1875l-0.15625 7.640625q-0.015625 1.15625 0.953125 1.15625q0.859375 0 0.875 -1.234375l0.125 -7.578125q0.015625 -1.15625 -0.84375 -1.171875zm0.0625 -4.140625q-0.3125 0 -0.5625 0.171875q-0.234375 0.15625 -0.390625 0.421875q-0.15625 0.25 -0.15625 0.546875q0 0.3125 0.15625 0.578125q0.15625 0.25 0.40625 0.390625q0.234375 0.15625 0.515625 0.15625q0.03125 0 0.0625 0q0.28125 0.015625 0.5 -0.109375q0.21875 -0.09375 0.40625 -0.328125q0.203125 -0.265625 0.234375 -0.59375q0 -0.046875 0 -0.09375q0 -0.28125 -0.140625 -0.53125q-0.140625 -0.296875 -0.421875 -0.453125q-0.265625 -0.15625 -0.578125 -0.15625q-0.015625 0 -0.03125 0zm5.9632263 12.359375q-0.84375 -0.046875 -1.640625 -0.59375q-0.65625 -0.453125 -1.171875 -0.109375q-0.421875 0.265625 -0.390625 0.875q0.046875 0.546875 0.6875 0.90625q0.703125 0.40625 1.203125 0.546875q0.796875 0.21875 2.078125 0.21875q1.5 -0.015625 2.421875 -0.625q1.125 -0.75 1.265625 -1.921875q0.140625 -1.15625 -0.78125 -2.265625q-0.390625 -0.46875 -1.390625 -0.9375q-0.734375 -0.34375 -1.609375 -0.4375q-1.09375 -0.125 -1.265625 -0.609375q-0.171875 -0.5625 0.265625 -1.078125q0.53125 -0.625 1.625 -0.6875q1.03125 -0.03125 1.5625 0.484375q1.0625 1.015625 1.578125 0.59375q0.421875 -0.34375 0.34375 -0.890625q-0.140625 -0.828125 -1.4375 -1.46875q-1.0 -0.484375 -2.328125 -0.375q-1.1875 0.109375 -2.09375 0.765625q-0.765625 0.546875 -1.15625 1.59375q-0.359375 0.953125 -0.140625 1.859375q0.28125 1.171875 2.15625 1.4375q1.796875 0.25 2.3125 0.796875q0.765625 0.828125 0.390625 1.390625q-0.453125 0.671875 -2.484375 0.53125zm9.988403 -13.359375q-0.828125 0 -0.84375 0.859375l-0.09375 4.296875q-1.0625 0.015625 -2.109375 0.015625q-0.859375 0 -0.859375 0.921875q0 0.890625 0.78125 0.890625q1.0625 0 2.140625 0l-0.171875 7.09375q-0.015625 0.96875 0.8125 0.984375q0.984375 0.015625 0.984375 -0.96875l0.15625 -7.109375q0.984375 0 1.953125 0q1.0625 0 1.0625 -0.9375q0 -0.90625 -1.125 -0.90625l-1.84375 0.015625q0.0625 -1.921875 0.078125 -4.25q0 -0.90625 -0.921875 -0.90625zm9.54068 6.96875q1.921875 -0.03125 1.90625 3.21875q-0.015625 1.703125 -0.734375 2.484375q-0.671875 0.71875 -1.671875 0.71875q-0.875 0 -1.546875 -0.71875q-0.65625 -0.71875 -0.65625 -2.140625q0 -1.484375 0.90625 -2.734375q0.59375 -0.796875 1.796875 -0.828125zm-0.078125 -1.859375q-1.984375 -0.015625 -3.1875 1.578125q-1.21875 1.59375 -1.21875 3.671875q0 2.203125 1.015625 3.40625q1.125 1.34375 2.75 1.359375q2.25 0.015625 3.34375 -1.375q0.96875 -1.171875 0.984375 -3.390625q0 -5.21875 -3.6875 -5.25zm6.935898 -0.40625q-0.84373474 0 -0.85935974 0.84375l-0.203125 8.53125q-0.03125 0.96875 0.78123474 0.984375q0.953125 0.015625 0.984375 -0.96875l0.15625 -5.984375q0.859375 -0.84375 1.890625 -1.046875q1.046875 -0.203125 1.875 0.34375q1.046875 0.71875 1.453125 -0.453125q0.234375 -0.734375 -1.140625 -1.421875q-0.78125 -0.390625 -2.0 -0.375q-0.984375 0.015625 -2.015625 0.78125q0 -0.171875 0 -0.328125q0 -0.90625 -0.921875 -0.90625zm9.463745 0.4375q-0.921875 -0.03125 -0.953125 1.1875l-0.15625 7.640625q-0.015625 1.15625 0.953125 1.15625q0.859375 0 0.875 -1.234375l0.125 -7.578125q0.015625 -1.15625 -0.84375 -1.171875zm0.0625 -4.140625q-0.3125 0 -0.5625 0.171875q-0.234375 0.15625 -0.390625 0.421875q-0.15625 0.25 -0.15625 0.546875q0 0.3125 0.15625 0.578125q0.15625 0.25 0.40625 0.390625q0.234375 0.15625 0.515625 0.15625q0.03125 0 0.0625 0q0.28125 0.015625 0.5 -0.109375q0.21875 -0.09375 0.40625 -0.328125q0.203125 -0.265625 0.234375 -0.59375q0 -0.046875 0 -0.09375q0 -0.28125 -0.140625 -0.53125q-0.140625 -0.296875 -0.421875 -0.453125q-0.265625 -0.15625 -0.578125 -0.15625q-0.015625 0 -0.03125 0zm4.7444763 9.734375l6.125 -0.890625q0.96875 -0.140625 1.0 -1.25q0.046875 -1.40625 -1.0625 -2.5q-1.1875 -1.15625 -3.296875 -1.03125q-2.015625 0.125 -3.296875 1.953125q-1.015625 1.46875 -1.015625 3.34375q0 2.28125 1.625 3.609375q1.296875 1.078125 3.03125 1.09375q2.375 0.015625 3.828125 -1.28125q0.828125 -0.734375 0.40625 -1.578125q-0.1875 -0.359375 -0.625 -0.265625q-0.390625 0.078125 -1.0 0.75q-0.640625 0.71875 -2.5 0.734375q-1.265625 0.015625 -2.296875 -0.890625q-0.875 -0.78125 -0.921875 -1.796875zm0.203125 -1.515625q0.25 -0.890625 0.65625 -1.390625q0.90625 -1.125 2.171875 -1.125q0.890625 -0.015625 1.703125 0.5q0.6875 0.453125 0.828125 1.234375l-5.359375 0.78125zm11.236481 4.140625q-0.84375 -0.046875 -1.640625 -0.59375q-0.65625 -0.453125 -1.171875 -0.109375q-0.421875 0.265625 -0.390625 0.875q0.046875 0.546875 0.6875 0.90625q0.703125 0.40625 1.203125 0.546875q0.796875 0.21875 2.078125 0.21875q1.5 -0.015625 2.421875 -0.625q1.125 -0.75 1.265625 -1.921875q0.140625 -1.15625 -0.78125 -2.265625q-0.390625 -0.46875 -1.390625 -0.9375q-0.734375 -0.34375 -1.609375 -0.4375q-1.09375 -0.125 -1.265625 -0.609375q-0.171875 -0.5625 0.265625 -1.078125q0.53125 -0.625 1.625 -0.6875q1.03125 -0.03125 1.5625 0.484375q1.0625 1.015625 1.578125 0.59375q0.421875 -0.34375 0.34375 -0.890625q-0.140625 -0.828125 -1.4375 -1.46875q-1.0 -0.484375 -2.328125 -0.375q-1.1875 0.109375 -2.09375 0.765625q-0.765625 0.546875 -1.15625 1.59375q-0.359375 0.953125 -0.140625 1.859375q0.28125 1.171875 2.15625 1.4375q1.796875 0.25 2.3125 0.796875q0.765625 0.828125 0.390625 1.390625q-0.453125 0.671875 -2.484375 0.53125z" fill-rule="nonzero"/><path fill="#000000" fill-opacity="0.0" d="m306.70578 45.70433c33.273712 2.4422379 65.21713 17.394379 91.928345 35.039436" fill-rule="evenodd"/><path stroke="#000000" stroke-width="3.0" stroke-linejoin="round" stroke-linecap="butt" d="m306.70578 45.70433c16.63684 1.2211189 32.94113 5.5697136 48.42508 11.818661c7.7420044 3.1244736 15.278931 6.7240334 22.549805 10.645298c3.6354065 1.9606247 7.2043457 4.0016785 10.699127 6.103981c0.43685913 0.2627945 0.8725586 0.52653503 1.3070374 0.79120636l0.27020264 0.16558075" fill-rule="evenodd"/><path fill="#000000" stroke="#000000" stroke-width="3.0" stroke-linecap="butt" d="m389.95703 75.22906l-4.6569824 1.0377274l9.63269 2.1245575l-6.0134277 -7.819275z" fill-rule="evenodd"/><path fill="#000000" fill-opacity="0.0" d="m306.18677 168.67767c23.321533 -1.9260101 47.893097 -3.658844 68.66968 -13.473404c9.782318 -4.6210327 17.054504 -12.986099 26.91632 -17.465515" fill-rule="evenodd"/><path stroke="#000000" stroke-width="3.0" stroke-linejoin="round" stroke-linecap="butt" d="m306.18677 168.67767c23.321533 -1.9260101 47.893066 -3.658844 68.66965 -13.473404c4.891205 -2.310501 9.154816 -5.5570374 13.428406 -8.785858c1.0683594 -0.8072052 2.1373901 -1.6133118 3.21698 -2.4033966c0.26989746 -0.19752502 0.5404358 -0.39405823 0.81185913 -0.5893402l0.6174927 -0.43998718" fill-rule="evenodd"/><path fill="#000000" stroke="#000000" stroke-width="3.0" stroke-linecap="butt" d="m392.93115 142.98569l-1.1795654 4.6230927l6.2495728 -7.631836l-9.693085 1.8291626z" fill-rule="evenodd"/><path fill="#000000" fill-opacity="0.0" d="m657.34467 140.03963l0 0c0 -5.038803 4.084717 -9.12355 9.123535 -9.12355l59.26471 0c2.4197388 0 4.7403564 0.9612274 6.451355 2.672226c1.7109985 1.7109985 2.6721802 4.031601 2.6721802 6.4513245l0 36.493073c0 5.038788 -4.084717 9.123535 -9.123535 9.123535l-59.26471 0c-5.0388184 0 -9.123535 -4.0847473 -9.123535 -9.123535z" fill-rule="evenodd"/><path stroke="#3c78d8" stroke-width="3.0" stroke-linejoin="round" stroke-linecap="butt" d="m657.34467 140.03963l0 0c0 -5.038803 4.084717 -9.12355 9.123535 -9.12355l59.26471 0c2.4197388 0 4.7403564 0.9612274 6.451355 2.672226c1.7109985 1.7109985 2.6721802 4.031601 2.6721802 6.4513245l0 36.493073c0 5.038788 -4.084717 9.123535 -9.123535 9.123535l-59.26471 0c-5.0388184 0 -9.123535 -4.0847473 -9.123535 -9.123535z" fill-rule="evenodd"/><path fill="#3c78d8" d="m695.83984 162.19054l-9.03125 -10.40625q-0.234375 -0.265625 -0.71875 -0.265625q-0.8125 0.015625 -0.828125 0.796875l-0.3125 12.34375q-0.03125 0.90625 0.796875 0.921875q0.96875 0.03125 1.0 -0.90625l0.203125 -9.90625l8.96875 10.234375q0.265625 0.28125 0.671875 0.296875q0.984375 0.046875 1.0 -0.90625l0.28125 -12.3125q0.015625 -0.84375 -0.921875 -0.84375q-0.828125 0.015625 -0.859375 0.796875l-0.25 10.15625zm8.022949 -4.6875q1.921875 -0.03125 1.90625 3.21875q-0.015625 1.703125 -0.734375 2.484375q-0.671875 0.71875 -1.671875 0.71875q-0.875 0 -1.546875 -0.71875q-0.65625 -0.71875 -0.65625 -2.140625q0 -1.484375 0.90625 -2.734375q0.59375 -0.796875 1.796875 -0.828125zm-0.078125 -1.859375q-1.984375 -0.015625 -3.1875 1.578125q-1.21875 1.59375 -1.21875 3.671875q0 2.203125 1.015625 3.40625q1.125 1.34375 2.75 1.359375q2.25 0.015625 3.34375 -1.375q0.96875 -1.171875 0.984375 -3.390625q0 -5.21875 -3.6875 -5.25z" fill-rule="nonzero"/><path fill="#000000" fill-opacity="0.0" d="m551.7961 106.427895l61.763794 0" fill-rule="evenodd"/><path stroke="#000000" stroke-width="3.0" stroke-linejoin="round" stroke-linecap="butt" d="m551.7961 106.427895l61.763794 0" fill-rule="evenodd"/><path fill="#000000" fill-opacity="0.0" d="m613.0402 106.43009c18.878357 -1.9905243 38.20691 -14.839096 46.710266 -30.939209" fill-rule="evenodd"/><path stroke="#000000" stroke-width="3.0" stroke-linejoin="round" stroke-linecap="butt" stroke-dasharray="12.0,9.0" d="m613.04016 106.4301c9.439209 -0.99526215 18.990967 -4.7050476 27.245789 -10.17852c4.1275024 -2.7367325 7.930664 -5.9143906 11.233459 -9.414124c0.8257446 -0.87493896 1.6201782 -1.7700043 2.3805542 -2.683342l0.10974121 -0.13398743" fill-rule="evenodd"/><path fill="#000000" stroke="#000000" stroke-width="3.0" stroke-linecap="butt" d="m654.0097 84.02013l0.91503906 4.68264l2.376892 -9.57354l-7.9745483 5.8059235z" fill-rule="evenodd"/><path fill="#000000" fill-opacity="0.0" d="m615.11365 106.42791c17.359558 3.710434 34.201416 13.613724 46.709534 26.99015" fill-rule="evenodd"/><path stroke="#000000" stroke-width="3.0" stroke-linejoin="round" stroke-linecap="butt" stroke-dasharray="12.0,9.0" d="m615.1137 106.4279c8.679749 1.855217 17.230103 5.2586517 25.17395 9.870338c3.972046 2.305832 7.7923584 4.913742 11.401489 7.781204c0.9022827 0.71687317 1.7913208 1.4499588 2.6662598 2.1986084l0.038330078 0.033096313" fill-rule="evenodd"/><path fill="#000000" stroke="#000000" stroke-width="3.0" stroke-linecap="butt" d="m654.39374 126.31115l-4.7700195 0.1058197l9.030273 3.9694748l-4.366028 -8.845329z" fill-rule="evenodd"/></g></svg>