<svg version="1.1" viewBox="0.0 0.0 811.2440944881889 284.8923884514436" fill="none" stroke="none" stroke-linecap="square" stroke-miterlimit="10" xmlns:xlink="http://www.w3.org/1999/xlink" xmlns="http://www.w3.org/2000/svg"><clipPath id="p.0"><path d="m0 0l811.2441 0l0 284.8924l-811.2441 0l0 -284.8924z" clip-rule="nonzero"/></clipPath><g clip-path="url(#p.0)"><path fill="#ffffff" d="m0 0l811.2441 0l0 284.8924l-811.2441 0z" fill-rule="evenodd"/><path fill="#000000" fill-opacity="0.0" d="m14.388549 81.4546l654.1417 0" fill-rule="evenodd"/><path stroke="#000000" stroke-width="3.0" stroke-linejoin="round" stroke-linecap="butt" d="m14.388549 81.454605l643.8605 0" fill-rule="evenodd"/><path fill="#000000" stroke="#000000" stroke-width="3.0" stroke-linecap="butt" d="m658.249 81.454605l-3.3737793 3.3737488l9.269287 -3.3737488l-9.269287 -3.3737564z" fill-rule="evenodd"/><path fill="#000000" fill-opacity="0.0" d="m671.9974 42.6672l176.31494 0l0 77.57481l-176.31494 0z" fill-rule="evenodd"/><path fill="#000000" d="m684.41925 60.191574q-1.046875 1.765625 -0.578125 3.609375q0.796875 3.28125 5.15625 3.21875q4.5 -0.078125 4.96875 1.640625q0.4375 1.625 -1.125 3.140625q-0.796875 0.765625 -3.046875 1.171875q-1.265625 0.21875 -2.796875 -0.125q-1.125 -0.28125 -1.890625 -0.96875q-1.0 -0.875 -1.671875 -0.6875q-0.59375 0.171875 -0.703125 0.953125q-0.09375 0.703125 0.84375 1.53125q0.65625 0.578125 1.59375 0.953125q1.390625 0.59375 3.5 0.578125q2.859375 0 4.78125 -1.125q2.90625 -1.671875 3.0625 -4.578125q0.109375 -1.890625 -1.375 -3.40625q-1.171875 -1.21875 -3.6875 -1.296875q-2.828125 -0.09375 -3.53125 -0.203125q-1.890625 -0.265625 -1.6875 -2.390625q0.09375 -1.046875 1.21875 -1.921875q1.046875 -0.8125 3.0 -0.9375q1.265625 -0.0625 2.90625 0.5625q1.125 0.453125 1.5625 0.234375q0.671875 -0.328125 0.640625 -0.921875q-0.046875 -0.71875 -1.75 -1.46875q-1.21875 -0.53125 -2.9375 -0.609375q-1.96875 -0.0625 -3.65625 0.75q-2.015625 0.984375 -2.796875 2.296875zm16.796875 2.25q-1.1875 -0.03125 -1.21875 1.53125l-0.203125 9.828125q-0.03125 1.484375 1.21875 1.5q1.109375 0 1.125 -1.59375l0.171875 -9.75q0.015625 -1.5 -1.09375 -1.515625zm0.078125 -5.328125q-0.390625 0 -0.71875 0.203125q-0.3125 0.21875 -0.515625 0.5625q-0.1875 0.328125 -0.1875 0.703125q0 0.390625 0.203125 0.734375q0.203125 0.328125 0.515625 0.515625q0.3125 0.1875 0.671875 0.203125q0.03125 0 0.0625 0q0.375 0.015625 0.65625 -0.140625q0.28125 -0.125 0.515625 -0.4375q0.265625 -0.34375 0.296875 -0.765625q0 -0.0625 0 -0.109375q0 -0.375 -0.15625 -0.6875q-0.1875 -0.375 -0.5625 -0.578125q-0.328125 -0.203125 -0.734375 -0.203125q-0.015625 0 -0.046875 0zm5.7890625 4.765625q-1.078125 0 -1.09375 1.09375l-0.28125 10.859375q-0.03125 1.265625 1.03125 1.28125q1.21875 0.03125 1.25 -1.25l0.203125 -6.484375q0.625 -2.4375 2.65625 -2.359375q1.796875 0.046875 1.734375 3.390625l-0.125 5.375q-0.03125 1.421875 1.171875 1.3125q1.09375 -0.09375 1.125 -1.515625l0.140625 -5.875q0.015625 -0.671875 0.046875 -0.71875q0.78125 -2.015625 2.921875 -1.953125q1.859375 0.046875 1.8125 3.515625l-0.078125 5.40625q-0.015625 1.421875 1.25 1.296875q1.09375 -0.09375 1.125 -1.515625l0.09375 -5.8125q0.078125 -5.34375 -4.359375 -5.34375q-2.40625 -0.015625 -3.609375 1.71875q-0.84375 -1.75 -3.28125 -1.71875q-1.5 0 -2.546875 0.9375l0.015625 -0.46875q0.015625 -1.171875 -1.203125 -1.171875zm26.003906 13.71875q1.0625 0 1.078125 -1.09375l0.28125 -10.9375q0.03125 -1.265625 -1.03125 -1.296875q-1.234375 -0.015625 -1.28125 1.265625l-0.140625 5.921875q-0.046875 1.921875 -1.578125 2.6875q-1.6875 0.84375 -2.90625 0.03125q-0.890625 -0.625 -0.859375 -3.453125l0.015625 -5.125q0.03125 -1.40625 -1.21875 -1.296875q-1.09375 0.09375 -1.125 1.5l-0.046875 5.765625q-0.046875 5.328125 4.359375 5.34375q2.0 0 3.265625 -1.171875l0 0.703125q-0.03125 1.15625 1.1875 1.15625zm5.9179688 -19.765625q-1.046875 0.03125 -1.078125 1.09375l-0.390625 17.0q-0.03125 1.265625 1.03125 1.28125q1.265625 0.03125 1.265625 -1.25l0.375 -16.953125q0.015625 -1.171875 -1.203125 -1.171875zm8.964844 19.53125q1.09375 -0.015625 3.515625 -1.25q0.234375 1.5625 1.703125 1.25q1.28125 -0.25 0.28125 -1.96875q-0.6875 -1.171875 -0.640625 -3.984375q0.0625 -3.53125 0.328125 -5.0q0.28125 -1.5 -1.125 -1.8125q-0.71875 -0.15625 -1.0625 0.125q-3.0625 -0.96875 -5.875 1.34375q-2.453125 2.0 -2.421875 5.671875q0.03125 5.640625 5.296875 5.625zm1.359375 -2.359375q-0.890625 0.328125 -1.90625 0.265625q-2.421875 -0.171875 -2.46875 -3.75q0.109375 -2.765625 2.203125 -4.265625q0.515625 -0.390625 1.375 -0.609375q1.25 -0.296875 2.375 0.421875q-0.53125 1.890625 -0.109375 6.9375q-1.046875 0.84375 -1.46875 1.0zm10.78125 -17.171875q-1.046875 0 -1.078125 1.09375l-0.125 5.546875q-1.359375 0.015625 -2.703125 0.015625q-1.125 0 -1.125 1.171875q0 1.15625 1.015625 1.15625q1.375 0 2.75 0l-0.203125 9.109375q-0.03125 1.265625 1.03125 1.28125q1.265625 0.03125 1.265625 -1.25l0.203125 -9.140625q1.25 0 2.515625 0q1.359375 0 1.359375 -1.203125q0 -1.171875 -1.4375 -1.171875l-2.375 0.015625q0.078125 -2.46875 0.109375 -5.453125q0 -1.171875 -1.203125 -1.171875zm9.121094 6.609375q-1.1875 -0.03125 -1.21875 1.53125l-0.203125 9.828125q-0.03125 1.484375 1.21875 1.5q1.109375 0 1.125 -1.59375l0.171875 -9.75q0.015625 -1.5 -1.09375 -1.515625zm0.078125 -5.328125q-0.390625 0 -0.71875 0.203125q-0.3125 0.21875 -0.515625 0.5625q-0.1875 0.328125 -0.1875 0.703125q0 0.390625 0.203125 0.734375q0.203125 0.328125 0.515625 0.515625q0.3125 0.1875 0.671875 0.203125q0.03125 0 0.0625 0q0.375 0.015625 0.65625 -0.140625q0.28125 -0.125 0.515625 -0.4375q0.265625 -0.34375 0.296875 -0.765625q0 -0.0625 0 -0.109375q0 -0.375 -0.15625 -0.6875q-0.1875 -0.375 -0.5625 -0.578125q-0.328125 -0.203125 -0.734375 -0.203125q-0.015625 0 -0.046875 0zm9.8046875 7.6875q2.46875 -0.046875 2.453125 4.125q-0.015625 2.203125 -0.9375 3.203125q-0.875 0.9375 -2.15625 0.9375q-1.125 0 -1.984375 -0.9375q-0.84375 -0.921875 -0.84375 -2.75q0 -1.921875 1.171875 -3.515625q0.75 -1.03125 2.296875 -1.0625zm-0.09375 -2.390625q-2.5625 -0.015625 -4.109375 2.015625q-1.5625 2.0625 -1.5625 4.734375q0 2.828125 1.3125 4.390625q1.453125 1.71875 3.53125 1.734375q2.890625 0.015625 4.296875 -1.78125q1.25 -1.484375 1.265625 -4.34375q0 -6.71875 -4.734375 -6.75zm8.917969 -0.53125q-1.078125 0 -1.109375 1.09375l-0.265625 10.90625q-0.03125 1.25 1.015625 1.28125q1.25 0.015625 1.296875 -1.265625l0.1875 -7.09375q1.859375 -1.859375 3.484375 -1.734375q1.9375 0.140625 1.859375 3.375l-0.140625 5.546875q-0.046875 1.421875 1.234375 1.3125q1.109375 -0.09375 1.125 -1.515625l0.09375 -5.859375q0.078125 -5.34375 -4.34375 -5.34375q-2.0 0 -3.265625 1.15625q0 -0.359375 0.015625 -0.6875q0.03125 -1.171875 -1.1875 -1.171875z" fill-rule="nonzero"/><path fill="#000000" d="m683.9505 85.92908q-1.578125 0 -1.578125 1.03125q0 1.234375 1.46875 1.234375q2.765625 0 5.53125 -0.015625l-0.359375 14.71875q-0.015625 1.171875 1.03125 1.203125q1.25 0.015625 1.28125 -1.1875l0.34375 -14.75l4.9375 -0.015625q1.578125 0 1.546875 -1.078125q-0.015625 -1.140625 -1.546875 -1.140625l-12.65625 0zm16.9375 5.3125q-1.1875 -0.03125 -1.21875 1.53125l-0.203125 9.828125q-0.03125 1.484375 1.21875 1.5q1.109375 0 1.125 -1.59375l0.171875 -9.75q0.015625 -1.5 -1.09375 -1.515625zm0.078125 -5.328125q-0.390625 0 -0.71875 0.203125q-0.3125 0.21875 -0.515625 0.5625q-0.1875 0.328125 -0.1875 0.703125q0 0.390625 0.203125 0.734375q0.203125 0.328125 0.515625 0.515625q0.3125 0.1875 0.671875 0.203125q0.03125 0 0.0625 0q0.375 0.015625 0.65625 -0.140625q0.28125 -0.125 0.515625 -0.4375q0.265625 -0.34375 0.296875 -0.765625q0 -0.0625 0 -0.109375q0 -0.375 -0.15625 -0.6875q-0.1875 -0.375 -0.5625 -0.578125q-0.328125 -0.203125 -0.734375 -0.203125q-0.015625 0 -0.046875 0zm5.7890625 4.765625q-1.078125 0 -1.09375 1.09375l-0.28125 10.859375q-0.03125 1.265625 1.03125 1.28125q1.21875 0.03125 1.25 -1.25l0.203125 -6.484375q0.625 -2.4375 2.65625 -2.359375q1.796875 0.046875 1.734375 3.390625l-0.125 5.375q-0.03125 1.421875 1.171875 1.3125q1.09375 -0.09375 1.125 -1.515625l0.140625 -5.875q0.015625 -0.671875 0.046875 -0.71875q0.78125 -2.015625 2.921875 -1.953125q1.859375 0.046875 1.8125 3.515625l-0.078125 5.40625q-0.015625 1.421875 1.25 1.296875q1.09375 -0.09375 1.125 -1.515625l0.09375 -5.8125q0.078125 -5.34375 -4.359375 -5.34375q-2.40625 -0.015625 -3.609375 1.71875q-0.84375 -1.75 -3.28125 -1.71875q-1.5 0 -2.546875 0.9375l0.015625 -0.46875q0.015625 -1.171875 -1.203125 -1.171875zm18.957031 7.75l7.875 -1.140625q1.265625 -0.171875 1.3125 -1.609375q0.046875 -1.796875 -1.390625 -3.203125q-1.515625 -1.5 -4.234375 -1.328125q-2.59375 0.15625 -4.234375 2.515625q-1.3125 1.890625 -1.3125 4.296875q0 2.9375 2.078125 4.640625q1.6875 1.390625 3.921875 1.40625q3.046875 0.03125 4.921875 -1.640625q1.0625 -0.953125 0.515625 -2.03125q-0.234375 -0.46875 -0.796875 -0.359375q-0.5 0.109375 -1.296875 0.984375q-0.8125 0.921875 -3.203125 0.9375q-1.640625 0.015625 -2.953125 -1.140625q-1.140625 -1.0 -1.203125 -2.328125zm0.265625 -1.9375q0.328125 -1.15625 0.84375 -1.796875q1.171875 -1.4375 2.78125 -1.4375q1.171875 -0.015625 2.203125 0.640625q0.890625 0.578125 1.0625 1.59375l-6.890625 1.0zm13.3671875 -11.859375q-1.046875 0.03125 -1.078125 1.09375l-0.390625 17.0q-0.03125 1.265625 1.03125 1.28125q1.265625 0.03125 1.265625 -1.25l0.375 -16.953125q0.015625 -1.171875 -1.203125 -1.171875zm6.6367188 6.609375q-1.1875 -0.03125 -1.21875 1.53125l-0.203125 9.828125q-0.03125 1.484375 1.21875 1.5q1.109375 0 1.125 -1.59375l0.171875 -9.75q0.015625 -1.5 -1.09375 -1.515625zm0.078125 -5.328125q-0.390625 0 -0.71875 0.203125q-0.3125 0.21875 -0.515625 0.5625q-0.1875 0.328125 -0.1875 0.703125q0 0.390625 0.203125 0.734375q0.203125 0.328125 0.515625 0.515625q0.3125 0.1875 0.671875 0.203125q0.03125 0 0.0625 0q0.375 0.015625 0.65625 -0.140625q0.28125 -0.125 0.515625 -0.4375q0.265625 -0.34375 0.296875 -0.765625q0 -0.0625 0 -0.109375q0 -0.375 -0.15625 -0.6875q-0.1875 -0.375 -0.5625 -0.578125q-0.328125 -0.203125 -0.734375 -0.203125q-0.015625 0 -0.046875 0zm6.0078125 4.765625q-1.078125 0 -1.109375 1.09375l-0.265625 10.90625q-0.03125 1.25 1.015625 1.28125q1.25 0.015625 1.296875 -1.265625l0.1875 -7.09375q1.859375 -1.859375 3.484375 -1.734375q1.9375 0.140625 1.859375 3.375l-0.140625 5.546875q-0.046875 1.421875 1.234375 1.3125q1.109375 -0.09375 1.125 -1.515625l0.09375 -5.859375q0.078125 -5.34375 -4.34375 -5.34375q-2.0 0 -3.265625 1.15625q0 -0.359375 0.015625 -0.6875q0.03125 -1.171875 -1.1875 -1.171875zm12.65625 7.75l7.875 -1.140625q1.265625 -0.171875 1.3125 -1.609375q0.046875 -1.796875 -1.390625 -3.203125q-1.515625 -1.5 -4.234375 -1.328125q-2.59375 0.15625 -4.234375 2.515625q-1.3125 1.890625 -1.3125 4.296875q0 2.9375 2.078125 4.640625q1.6875 1.390625 3.921875 1.40625q3.046875 0.03125 4.921875 -1.640625q1.0625 -0.953125 0.515625 -2.03125q-0.234375 -0.46875 -0.796875 -0.359375q-0.5 0.109375 -1.296875 0.984375q-0.8125 0.921875 -3.203125 0.9375q-1.640625 0.015625 -2.953125 -1.140625q-1.140625 -1.0 -1.203125 -2.328125zm0.265625 -1.9375q0.328125 -1.15625 0.84375 -1.796875q1.171875 -1.4375 2.78125 -1.4375q1.171875 -0.015625 2.203125 0.640625q0.890625 0.578125 1.0625 1.59375l-6.890625 1.0z" fill-rule="nonzero"/><path fill="#000000" fill-opacity="0.0" d="m62.929134 53.716225l0 28.88189" fill-rule="evenodd"/><path stroke="#3c78d8" stroke-width="3.0" stroke-linejoin="round" stroke-linecap="butt" d="m62.929134 53.716225l0 28.88189" fill-rule="evenodd"/><path fill="#000000" fill-opacity="0.0" d="m111.28871 53.716225l0 28.88189" fill-rule="evenodd"/><path stroke="#3c78d8" stroke-width="3.0" stroke-linejoin="round" stroke-linecap="butt" d="m111.28871 53.716225l0 28.88189" fill-rule="evenodd"/><path fill="#000000" fill-opacity="0.0" d="m159.46982 53.716225l0 28.88189" fill-rule="evenodd"/><path stroke="#3c78d8" stroke-width="3.0" stroke-linejoin="round" stroke-linecap="butt" d="m159.46982 53.716225l0 28.88189" fill-rule="evenodd"/><path fill="#000000" fill-opacity="0.0" d="m206.05716 53.716225l0 28.88189" fill-rule="evenodd"/><path stroke="#3c78d8" stroke-width="3.0" stroke-linejoin="round" stroke-linecap="butt" d="m206.05716 53.716225l0 28.88189" fill-rule="evenodd"/><path fill="#000000" fill-opacity="0.0" d="m254.41673 53.716225l0 28.88189" fill-rule="evenodd"/><path stroke="#3c78d8" stroke-width="3.0" stroke-linejoin="round" stroke-linecap="butt" d="m254.41673 53.716225l0 28.88189" fill-rule="evenodd"/><path fill="#000000" fill-opacity="0.0" d="m302.59784 53.716225l0 28.88189" fill-rule="evenodd"/><path stroke="#3c78d8" stroke-width="3.0" stroke-linejoin="round" stroke-linecap="butt" d="m302.59784 53.716225l0 28.88189" fill-rule="evenodd"/><path fill="#000000" fill-opacity="0.0" d="m350.3069 53.716225l0 28.88189" fill-rule="evenodd"/><path stroke="#3c78d8" stroke-width="3.0" stroke-linejoin="round" stroke-linecap="butt" d="m350.3069 53.716225l0 28.88189" fill-rule="evenodd"/><path fill="#000000" fill-opacity="0.0" d="m398.66647 53.716225l0 28.88189" fill-rule="evenodd"/><path stroke="#3c78d8" stroke-width="3.0" stroke-linejoin="round" stroke-linecap="butt" d="m398.66647 53.716225l0 28.88189" fill-rule="evenodd"/><path fill="#000000" fill-opacity="0.0" d="m446.84756 53.716225l0 28.88189" fill-rule="evenodd"/><path stroke="#3c78d8" stroke-width="3.0" stroke-linejoin="round" stroke-linecap="butt" d="m446.84756 53.716225l0 28.88189" fill-rule="evenodd"/><path fill="#000000" fill-opacity="0.0" d="m493.4349 53.716225l0 28.88189" fill-rule="evenodd"/><path stroke="#3c78d8" stroke-width="3.0" stroke-linejoin="round" stroke-linecap="butt" d="m493.4349 53.716225l0 28.88189" fill-rule="evenodd"/><path fill="#000000" fill-opacity="0.0" d="m541.7945 53.716225l0 28.88189" fill-rule="evenodd"/><path stroke="#3c78d8" stroke-width="3.0" stroke-linejoin="round" stroke-linecap="butt" d="m541.7945 53.716225l0 28.88189" fill-rule="evenodd"/><path fill="#000000" fill-opacity="0.0" d="m589.9756 53.716225l0 28.88189" fill-rule="evenodd"/><path stroke="#3c78d8" stroke-width="3.0" stroke-linejoin="round" stroke-linecap="butt" d="m589.9756 53.716225l0 28.88189" fill-rule="evenodd"/><path fill="#000000" fill-opacity="0.0" d="m72.37795 0.6218331l313.22833 0l0 48.47244l-313.22833 0z" fill-rule="evenodd"/><path fill="#3c78d8" d="m84.79983 18.14621q-1.046875 1.765625 -0.578125 3.609375q0.796875 3.28125 5.15625 3.21875q4.5 -0.078125 4.96875 1.640625q0.4375 1.625 -1.125 3.140625q-0.796875 0.765625 -3.046875 1.171875q-1.265625 0.21875 -2.796875 -0.125q-1.125 -0.28125 -1.890625 -0.96875q-1.0 -0.875 -1.671875 -0.6875q-0.59375 0.171875 -0.703125 0.953125q-0.09375 0.703125 0.84375 1.53125q0.65625 0.578125 1.59375 0.953125q1.390625 0.59375 3.5 0.578125q2.859375 0 4.78125 -1.125q2.90625 -1.671875 3.0625 -4.578125q0.109375 -1.890625 -1.375 -3.40625q-1.171875 -1.21875 -3.6875 -1.296875q-2.828125 -0.09375 -3.53125 -0.203125q-1.890625 -0.265625 -1.6875 -2.390625q0.09375 -1.046875 1.21875 -1.921875q1.046875 -0.8125 3.0 -0.9375q1.265625 -0.0625 2.90625 0.5625q1.125 0.453125 1.5625 0.234375q0.671875 -0.328125 0.640625 -0.921875q-0.046875 -0.71875 -1.75 -1.468751q-1.21875 -0.53125 -2.9375 -0.609375q-1.96875 -0.0625 -3.65625 0.75q-2.015625 0.98437595 -2.796875 2.296876zm18.984375 -4.359376q-1.046875 0 -1.078125 1.09375l-0.125 5.546876q-1.359375 0.015625 -2.703125 0.015625q-1.125 0 -1.125 1.171875q0 1.15625 1.015625 1.15625q1.375 0 2.75 0l-0.203125 9.109375q-0.03125 1.265625 1.03125 1.28125q1.265625 0.03125 1.265625 -1.25l0.203125 -9.140625q1.25 0 2.515625 0q1.359375 0 1.359375 -1.203125q0 -1.171875 -1.4375 -1.171875l-2.375 0.015625q0.078125 -2.46875 0.109375 -5.453126q0 -1.171875 -1.203125 -1.171875zm8.480469 6.046876q-1.078125 0 -1.109375 1.09375l-0.265625 10.953125q-0.03125 1.265625 1.015625 1.28125q1.234375 0.03125 1.265625 -1.25l0.203125 -7.6875q1.09375 -1.09375 2.421875 -1.34375q1.359375 -0.28125 2.421875 0.4375q1.34375 0.921875 1.859375 -0.578125q0.3125 -0.953125 -1.46875 -1.84375q-1.0 -0.5 -2.5625 -0.484375q-1.28125 0.03125 -2.59375 1.015625q0 -0.21875 0 -0.421875q0 -1.171875 -1.1875 -1.171875zm18.671883 13.71875q1.0625 0 1.078125 -1.09375l0.28125 -10.9375q0.03125 -1.265625 -1.03125 -1.296875q-1.234375 -0.015625 -1.28125 1.265625l-0.140625 5.921875q-0.046875 1.921875 -1.578125 2.6875q-1.6875076 0.84375 -2.9062576 0.03125q-0.890625 -0.625 -0.859375 -3.453125l0.015625 -5.125q0.03125 -1.40625 -1.21875 -1.296875q-1.09375 0.09375 -1.125 1.5l-0.046875 5.765625q-0.046875 5.328125 4.359375 5.34375q2.0000076 0 3.2656326 -1.171875l0 0.703125q-0.03125 1.15625 1.1875 1.15625zm11.902344 -3.359375q-1.375 0.9375 -2.96875 0.875q-1.546875 -0.0625 -2.421875 -1.21875q-0.9375 -1.296875 -0.90625 -2.875q0.03125 -1.65625 0.921875 -2.953125q0.78125 -1.125 1.765625 -1.421875q1.734375 -0.5625 3.09375 0.46875q1.140625 0.84375 1.6875 0.4375q0.796875 -0.578125 0.09375 -1.703125q-0.46875 -0.71875 -1.890625 -1.203125q-1.15625 -0.375 -2.546875 -0.265625q-2.390625 0.171875 -3.9375 2.40625q-1.28125 1.84375 -1.28125 4.734375q0 2.609375 1.796875 4.34375q1.4375 1.390625 3.625 1.40625q2.765625 0.015625 4.046875 -1.09375q1.0 -0.875 0.609375 -1.53125q-0.65625 -1.109375 -1.6875 -0.40625zm8.59375 -16.40625q-1.046875 0 -1.078125 1.09375l-0.125 5.546876q-1.359375 0.015625 -2.703125 0.015625q-1.125 0 -1.125 1.171875q0 1.15625 1.015625 1.15625q1.375 0 2.75 0l-0.203125 9.109375q-0.03125 1.265625 1.03125 1.28125q1.265625 0.03125 1.265625 -1.25l0.203125 -9.140625q1.25 0 2.515625 0q1.359375 0 1.359375 -1.203125q0 -1.171875 -1.4375 -1.171875l-2.375 0.015625q0.078125 -2.46875 0.109375 -5.453126q0 -1.171875 -1.203125 -1.171875zm15.621094 19.765625q1.0625 0 1.078125 -1.09375l0.28125 -10.9375q0.03125 -1.265625 -1.03125 -1.296875q-1.234375 -0.015625 -1.28125 1.265625l-0.140625 5.921875q-0.046875 1.921875 -1.578125 2.6875q-1.6875 0.84375 -2.90625 0.03125q-0.890625 -0.625 -0.859375 -3.453125l0.015625 -5.125q0.03125 -1.40625 -1.21875 -1.296875q-1.09375 0.09375 -1.125 1.5l-0.046875 5.765625q-0.046875 5.328125 4.359375 5.34375q2.0 0 3.265625 -1.171875l0 0.703125q-0.03125 1.15625 1.1875 1.15625zm5.3398438 -13.71875q-1.078125 0 -1.109375 1.09375l-0.265625 10.953125q-0.03125 1.265625 1.015625 1.28125q1.234375 0.03125 1.265625 -1.25l0.203125 -7.6875q1.09375 -1.09375 2.421875 -1.34375q1.359375 -0.28125 2.421875 0.4375q1.34375 0.921875 1.859375 -0.578125q0.3125 -0.953125 -1.46875 -1.84375q-1.0 -0.5 -2.5625 -0.484375q-1.28125 0.03125 -2.59375 1.015625q0 -0.21875 0 -0.421875q0 -1.171875 -1.1875 -1.171875zm11.625 7.75l7.875 -1.140625q1.265625 -0.171875 1.3125 -1.609375q0.046875 -1.796875 -1.390625 -3.203125q-1.515625 -1.5 -4.234375 -1.328125q-2.59375 0.15625 -4.234375 2.515625q-1.3125 1.890625 -1.3125 4.296875q0 2.9375 2.078125 4.640625q1.6875 1.390625 3.921875 1.40625q3.046875 0.03125 4.921875 -1.640625q1.0625 -0.953125 0.515625 -2.03125q-0.234375 -0.46875 -0.796875 -0.359375q-0.5 0.109375 -1.296875 0.984375q-0.8125 0.921875 -3.203125 0.9375q-1.640625 0.015625 -2.953125 -1.140625q-1.140625 -1.0 -1.203125 -2.328125zm0.265625 -1.9375q0.328125 -1.15625 0.84375 -1.796875q1.171875 -1.4375 2.78125 -1.4375q1.171875 -0.015625 2.203125 0.640625q0.890625 0.578125 1.0625 1.59375l-6.890625 1.0zm21.601562 -11.859376q-1.0625 0.03125 -1.078125 1.09375l-0.171875 6.765626q-0.453125 -0.3125 -1.0 -0.640625q-1.0625 -0.59375 -2.46875 -0.59375q-2.625 0 -4.25 2.0q-1.71875 2.125 -1.625 5.25q0.09375 2.296875 1.828125 4.03125q1.5625 1.546875 3.59375 1.5625q1.96875 0 3.703125 -1.09375q0.078125 0.984375 1.015625 1.0q1.265625 0.03125 1.28125 -1.25l0.359375 -16.953125q0.03125 -1.171875 -1.1875 -1.171875zm-1.4375 15.718751q-2.09375 1.640625 -3.734375 1.453125q-1.5625 -0.171875 -2.359375 -1.234375q-1.0 -1.296875 -0.96875 -2.625q0.046875 -2.078125 0.96875 -3.234375q0.65625 -0.8125 2.140625 -1.171875q2.015625 -0.5 4.078125 1.640625q0 2.734375 -0.125 5.171875zm13.910156 -14.421876q-1.578125 0 -1.578125 1.031251q0 1.234375 1.46875 1.234375q2.765625 0 5.53125 -0.015625l-0.359375 14.71875q-0.015625 1.171875 1.03125 1.203125q1.25 0.015625 1.28125 -1.1875l0.34375 -14.75l4.9375 -0.015625q1.578125 0 1.546875 -1.078125q-0.015625 -1.140626 -1.546875 -1.140626l-12.65625 0zm16.9375 5.312501q-1.1875 -0.03125 -1.21875 1.53125l-0.203125 9.828125q-0.03125 1.484375 1.21875 1.5q1.109375 0 1.125 -1.59375l0.171875 -9.75q0.015625 -1.5 -1.09375 -1.515625zm0.078125 -5.328126q-0.390625 0 -0.71875 0.203125q-0.3125 0.21875 -0.515625 0.5625q-0.1875 0.32812595 -0.1875 0.70312595q0 0.390625 0.203125 0.734375q0.203125 0.328125 0.515625 0.515625q0.3125 0.1875 0.671875 0.203125q0.03125 0 0.0625 0q0.375 0.015625 0.65625 -0.140625q0.28125 -0.125 0.515625 -0.4375q0.265625 -0.34375 0.296875 -0.765625q0 -0.0625 0 -0.109375q0 -0.375 -0.15625 -0.68750095q-0.1875 -0.375 -0.5625 -0.578125q-0.328125 -0.203125 -0.734375 -0.203125q-0.015625 0 -0.046875 0zm5.7890625 4.765626q-1.078125 0 -1.09375 1.09375l-0.28125 10.859375q-0.03125 1.265625 1.03125 1.28125q1.21875 0.03125 1.25 -1.25l0.203125 -6.484375q0.625 -2.4375 2.65625 -2.359375q1.796875 0.046875 1.734375 3.390625l-0.125 5.375q-0.03125 1.421875 1.171875 1.3125q1.09375 -0.09375 1.125 -1.515625l0.140625 -5.875q0.015625 -0.671875 0.046875 -0.71875q0.78125 -2.015625 2.921875 -1.953125q1.859375 0.046875 1.8125 3.515625l-0.078125 5.40625q-0.015625 1.421875 1.25 1.296875q1.09375 -0.09375 1.125 -1.515625l0.09375 -5.8125q0.078125 -5.34375 -4.359375 -5.34375q-2.40625 -0.015625 -3.609375 1.71875q-0.84375 -1.75 -3.28125 -1.71875q-1.5 0 -2.546875 0.9375l0.015625 -0.46875q0.015625 -1.171875 -1.203125 -1.171875zm18.957031 7.75l7.875 -1.140625q1.265625 -0.171875 1.3125 -1.609375q0.046875 -1.796875 -1.390625 -3.203125q-1.515625 -1.5 -4.234375 -1.328125q-2.59375 0.15625 -4.234375 2.515625q-1.3125 1.890625 -1.3125 4.296875q0 2.9375 2.078125 4.640625q1.6875 1.390625 3.921875 1.40625q3.046875 0.03125 4.921875 -1.640625q1.0625 -0.953125 0.515625 -2.03125q-0.234375 -0.46875 -0.796875 -0.359375q-0.5 0.109375 -1.296875 0.984375q-0.8125 0.921875 -3.203125 0.9375q-1.640625 0.015625 -2.953125 -1.140625q-1.140625 -1.0 -1.203125 -2.328125zm0.265625 -1.9375q0.328125 -1.15625 0.84375 -1.796875q1.171875 -1.4375 2.78125 -1.4375q1.171875 -0.015625 2.203125 0.640625q0.890625 0.578125 1.0625 1.59375l-6.890625 1.0zm14.4453125 5.328125q-1.078125 -0.078125 -2.109375 -0.78125q-0.84375 -0.5625 -1.5 -0.140625q-0.53125 0.359375 -0.484375 1.125q0.046875 0.703125 0.859375 1.171875q0.921875 0.53125 1.546875 0.71875q1.03125 0.28125 2.671875 0.28125q1.953125 -0.015625 3.125 -0.8125q1.453125 -0.96875 1.640625 -2.484375q0.171875 -1.46875 -1.015625 -2.90625q-0.5 -0.609375 -1.796875 -1.203125q-0.9375 -0.4375 -2.0625 -0.5625q-1.40625 -0.15625 -1.625 -0.78125q-0.234375 -0.734375 0.34375 -1.390625q0.671875 -0.796875 2.09375 -0.875q1.328125 -0.046875 2.0 0.609375q1.359375 1.3125 2.03125 0.765625q0.546875 -0.4375 0.4375 -1.140625q-0.171875 -1.0625 -1.84375 -1.890625q-1.28125 -0.625 -3.0 -0.46875q-1.515625 0.140625 -2.6875 0.984375q-0.984375 0.703125 -1.484375 2.046875q-0.46875 1.21875 -0.1875 2.390625q0.359375 1.5 2.765625 1.84375q2.328125 0.328125 2.984375 1.03125q0.984375 1.046875 0.515625 1.78125q-0.59375 0.859375 -3.21875 0.6875zm11.152344 -0.375q-0.359375 0.09375 -0.59375 0.3125q-0.265625 0.21875 -0.390625 0.546875q-0.109375 0.265625 -0.109375 0.5625q0 0.390625 0.203125 0.734375q0.21875 0.390625 0.609375 0.578125q0.296875 0.15625 0.640625 0.15625q0.109375 -0.015625 0.203125 -0.03125q0.453125 -0.0625 0.78125 -0.34375q0.3125 -0.296875 0.4375 -0.734375q0.03125 -0.125 0.03125 -0.359375q-0.015625 -0.203125 -0.046875 -0.390625q-0.078125 -0.359375 -0.390625 -0.640625q-0.265625 -0.28125 -0.625 -0.375q-0.1875 -0.046875 -0.390625 -0.046875q-0.1875 -0.015625 -0.359375 0.03125zm-2.578125 -13.625q-1.203125 1.359375 -0.125 2.203125q0.640625 0.5 2.09375 -0.796875q0.9375 -0.84375 2.546875 -0.640625q1.765625 0.21875 2.078125 1.796875q0.484375 2.40625 -1.90625 3.15625q-2.40625 0.75 -2.703125 3.171875q-0.328125 2.6875 1.265625 2.59375q1.0625 -0.046875 1.109375 -2.390625q0 -0.984375 2.203125 -1.578125q3.109375 -0.859375 2.453125 -5.375q-0.53125 -3.843751 -4.59375 -3.765626q-3.046875 0.0625 -4.421875 1.625001z" fill-rule="nonzero"/><path fill="#000000" fill-opacity="0.0" d="m14.388549 217.64882l654.1417 0" fill-rule="evenodd"/><path stroke="#000000" stroke-width="3.0" stroke-linejoin="round" stroke-linecap="butt" d="m14.388549 217.64883l643.8605 0" fill-rule="evenodd"/><path fill="#000000" stroke="#000000" stroke-width="3.0" stroke-linecap="butt" d="m658.249 217.64883l-3.3737793 3.3737488l9.269287 -3.3737488l-9.269287 -3.373764z" fill-rule="evenodd"/><path fill="#000000" fill-opacity="0.0" d="m671.9974 178.86142l176.31494 0l0 77.5748l-176.31494 0z" fill-rule="evenodd"/><path fill="#000000" d="m684.41925 196.3858q-1.046875 1.765625 -0.578125 3.609375q0.796875 3.28125 5.15625 3.21875q4.5 -0.078125 4.96875 1.640625q0.4375 1.625 -1.125 3.140625q-0.796875 0.765625 -3.046875 1.171875q-1.265625 0.21875 -2.796875 -0.125q-1.125 -0.28125 -1.890625 -0.96875q-1.0 -0.875 -1.671875 -0.6875q-0.59375 0.171875 -0.703125 0.953125q-0.09375 0.703125 0.84375 1.53125q0.65625 0.578125 1.59375 0.953125q1.390625 0.59375 3.5 0.578125q2.859375 0 4.78125 -1.125q2.90625 -1.671875 3.0625 -4.578125q0.109375 -1.890625 -1.375 -3.40625q-1.171875 -1.21875 -3.6875 -1.296875q-2.828125 -0.09375 -3.53125 -0.203125q-1.890625 -0.265625 -1.6875 -2.390625q0.09375 -1.046875 1.21875 -1.921875q1.046875 -0.8125 3.0 -0.9375q1.265625 -0.0625 2.90625 0.5625q1.125 0.453125 1.5625 0.234375q0.671875 -0.328125 0.640625 -0.921875q-0.046875 -0.71875 -1.75 -1.46875q-1.21875 -0.53125 -2.9375 -0.609375q-1.96875 -0.0625 -3.65625 0.75q-2.015625 0.984375 -2.796875 2.296875zm16.796875 2.25q-1.1875 -0.03125 -1.21875 1.53125l-0.203125 9.828125q-0.03125 1.484375 1.21875 1.5q1.109375 0 1.125 -1.59375l0.171875 -9.75q0.015625 -1.5 -1.09375 -1.515625zm0.078125 -5.328125q-0.390625 0 -0.71875 0.203125q-0.3125 0.21875 -0.515625 0.5625q-0.1875 0.328125 -0.1875 0.703125q0 0.390625 0.203125 0.734375q0.203125 0.328125 0.515625 0.515625q0.3125 0.1875 0.671875 0.203125q0.03125 0 0.0625 0q0.375 0.015625 0.65625 -0.140625q0.28125 -0.125 0.515625 -0.4375q0.265625 -0.34375 0.296875 -0.765625q0 -0.0625 0 -0.109375q0 -0.375 -0.15625 -0.6875q-0.1875 -0.375 -0.5625 -0.578125q-0.328125 -0.203125 -0.734375 -0.203125q-0.015625 0 -0.046875 0zm5.7890625 4.765625q-1.078125 0 -1.09375 1.09375l-0.28125 10.859375q-0.03125 1.265625 1.03125 1.28125q1.21875 0.03125 1.25 -1.25l0.203125 -6.484375q0.625 -2.4375 2.65625 -2.359375q1.796875 0.046875 1.734375 3.390625l-0.125 5.375q-0.03125 1.421875 1.171875 1.3125q1.09375 -0.09375 1.125 -1.515625l0.140625 -5.875q0.015625 -0.671875 0.046875 -0.71875q0.78125 -2.015625 2.921875 -1.953125q1.859375 0.046875 1.8125 3.515625l-0.078125 5.40625q-0.015625 1.421875 1.25 1.296875q1.09375 -0.09375 1.125 -1.515625l0.09375 -5.8125q0.078125 -5.34375 -4.359375 -5.34375q-2.40625 -0.015625 -3.609375 1.71875q-0.84375 -1.75 -3.28125 -1.71875q-1.5 0 -2.546875 0.9375l0.015625 -0.46875q0.015625 -1.171875 -1.203125 -1.171875zm26.003906 13.71875q1.0625 0 1.078125 -1.09375l0.28125 -10.9375q0.03125 -1.265625 -1.03125 -1.296875q-1.234375 -0.015625 -1.28125 1.265625l-0.140625 5.921875q-0.046875 1.921875 -1.578125 2.6875q-1.6875 0.84375 -2.90625 0.03125q-0.890625 -0.625 -0.859375 -3.453125l0.015625 -5.125q0.03125 -1.40625 -1.21875 -1.296875q-1.09375 0.09375 -1.125 1.5l-0.046875 5.765625q-0.046875 5.328125 4.359375 5.34375q2.0 0 3.265625 -1.171875l0 0.703125q-0.03125 1.15625 1.1875 1.15625zm5.9179688 -19.765625q-1.046875 0.03125 -1.078125 1.09375l-0.390625 17.0q-0.03125 1.265625 1.03125 1.28125q1.265625 0.03125 1.265625 -1.25l0.375 -16.953125q0.015625 -1.171875 -1.203125 -1.171875zm8.964844 19.53125q1.09375 -0.015625 3.515625 -1.25q0.234375 1.5625 1.703125 1.25q1.28125 -0.25 0.28125 -1.96875q-0.6875 -1.171875 -0.640625 -3.984375q0.0625 -3.53125 0.328125 -5.0q0.28125 -1.5 -1.125 -1.8125q-0.71875 -0.15625 -1.0625 0.125q-3.0625 -0.96875 -5.875 1.34375q-2.453125 2.0 -2.421875 5.671875q0.03125 5.640625 5.296875 5.625zm1.359375 -2.359375q-0.890625 0.328125 -1.90625 0.265625q-2.421875 -0.171875 -2.46875 -3.75q0.109375 -2.765625 2.203125 -4.265625q0.515625 -0.390625 1.375 -0.609375q1.25 -0.296875 2.375 0.421875q-0.53125 1.890625 -0.109375 6.9375q-1.046875 0.84375 -1.46875 1.0zm10.78125 -17.171875q-1.046875 0 -1.078125 1.09375l-0.125 5.546875q-1.359375 0.015625 -2.703125 0.015625q-1.125 0 -1.125 1.171875q0 1.15625 1.015625 1.15625q1.375 0 2.75 0l-0.203125 9.109375q-0.03125 1.265625 1.03125 1.28125q1.265625 0.03125 1.265625 -1.25l0.203125 -9.140625q1.25 0 2.515625 0q1.359375 0 1.359375 -1.203125q0 -1.171875 -1.4375 -1.171875l-2.375 0.015625q0.078125 -2.46875 0.109375 -5.453125q0 -1.171875 -1.203125 -1.171875zm9.121094 6.609375q-1.1875 -0.03125 -1.21875 1.53125l-0.203125 9.828125q-0.03125 1.484375 1.21875 1.5q1.109375 0 1.125 -1.59375l0.171875 -9.75q0.015625 -1.5 -1.09375 -1.515625zm0.078125 -5.328125q-0.390625 0 -0.71875 0.203125q-0.3125 0.21875 -0.515625 0.5625q-0.1875 0.328125 -0.1875 0.703125q0 0.390625 0.203125 0.734375q0.203125 0.328125 0.515625 0.515625q0.3125 0.1875 0.671875 0.203125q0.03125 0 0.0625 0q0.375 0.015625 0.65625 -0.140625q0.28125 -0.125 0.515625 -0.4375q0.265625 -0.34375 0.296875 -0.765625q0 -0.0625 0 -0.109375q0 -0.375 -0.15625 -0.6875q-0.1875 -0.375 -0.5625 -0.578125q-0.328125 -0.203125 -0.734375 -0.203125q-0.015625 0 -0.046875 0zm9.8046875 7.6875q2.46875 -0.046875 2.453125 4.125q-0.015625 2.203125 -0.9375 3.203125q-0.875 0.9375 -2.15625 0.9375q-1.125 0 -1.984375 -0.9375q-0.84375 -0.921875 -0.84375 -2.75q0 -1.921875 1.171875 -3.515625q0.75 -1.03125 2.296875 -1.0625zm-0.09375 -2.390625q-2.5625 -0.015625 -4.109375 2.015625q-1.5625 2.0625 -1.5625 4.734375q0 2.828125 1.3125 4.390625q1.453125 1.71875 3.53125 1.734375q2.890625 0.015625 4.296875 -1.78125q1.25 -1.484375 1.265625 -4.34375q0 -6.71875 -4.734375 -6.75zm8.917969 -0.53125q-1.078125 0 -1.109375 1.09375l-0.265625 10.90625q-0.03125 1.25 1.015625 1.28125q1.25 0.015625 1.296875 -1.265625l0.1875 -7.09375q1.859375 -1.859375 3.484375 -1.734375q1.9375 0.140625 1.859375 3.375l-0.140625 5.546875q-0.046875 1.421875 1.234375 1.3125q1.109375 -0.09375 1.125 -1.515625l0.09375 -5.859375q0.078125 -5.34375 -4.34375 -5.34375q-2.0 0 -3.265625 1.15625q0 -0.359375 0.015625 -0.6875q0.03125 -1.171875 -1.1875 -1.171875z" fill-rule="nonzero"/><path fill="#000000" d="m683.9505 222.1233q-1.578125 0 -1.578125 1.03125q0 1.234375 1.46875 1.234375q2.765625 0 5.53125 -0.015625l-0.359375 14.71875q-0.015625 1.171875 1.03125 1.203125q1.25 0.015625 1.28125 -1.1875l0.34375 -14.75l4.9375 -0.015625q1.578125 0 1.546875 -1.078125q-0.015625 -1.140625 -1.546875 -1.140625l-12.65625 0zm16.9375 5.3125q-1.1875 -0.03125 -1.21875 1.53125l-0.203125 9.828125q-0.03125 1.484375 1.21875 1.5q1.109375 0 1.125 -1.59375l0.171875 -9.75q0.015625 -1.5 -1.09375 -1.515625zm0.078125 -5.328125q-0.390625 0 -0.71875 0.203125q-0.3125 0.21875 -0.515625 0.5625q-0.1875 0.328125 -0.1875 0.703125q0 0.390625 0.203125 0.734375q0.203125 0.328125 0.515625 0.515625q0.3125 0.1875 0.671875 0.203125q0.03125 0 0.0625 0q0.375 0.015625 0.65625 -0.140625q0.28125 -0.125 0.515625 -0.4375q0.265625 -0.34375 0.296875 -0.765625q0 -0.0625 0 -0.109375q0 -0.375 -0.15625 -0.6875q-0.1875 -0.375 -0.5625 -0.578125q-0.328125 -0.203125 -0.734375 -0.203125q-0.015625 0 -0.046875 0zm5.7890625 4.765625q-1.078125 0 -1.09375 1.09375l-0.28125 10.859375q-0.03125 1.265625 1.03125 1.28125q1.21875 0.03125 1.25 -1.25l0.203125 -6.484375q0.625 -2.4375 2.65625 -2.359375q1.796875 0.046875 1.734375 3.390625l-0.125 5.375q-0.03125 1.421875 1.171875 1.3125q1.09375 -0.09375 1.125 -1.515625l0.140625 -5.875q0.015625 -0.671875 0.046875 -0.71875q0.78125 -2.015625 2.921875 -1.953125q1.859375 0.046875 1.8125 3.515625l-0.078125 5.40625q-0.015625 1.421875 1.25 1.296875q1.09375 -0.09375 1.125 -1.515625l0.09375 -5.8125q0.078125 -5.34375 -4.359375 -5.34375q-2.40625 -0.015625 -3.609375 1.71875q-0.84375 -1.75 -3.28125 -1.71875q-1.5 0 -2.546875 0.9375l0.015625 -0.46875q0.015625 -1.171875 -1.203125 -1.171875zm18.957031 7.75l7.875 -1.140625q1.265625 -0.171875 1.3125 -1.609375q0.046875 -1.796875 -1.390625 -3.203125q-1.515625 -1.5 -4.234375 -1.328125q-2.59375 0.15625 -4.234375 2.515625q-1.3125 1.890625 -1.3125 4.296875q0 2.9375 2.078125 4.640625q1.6875 1.390625 3.921875 1.40625q3.046875 0.03125 4.921875 -1.640625q1.0625 -0.953125 0.515625 -2.03125q-0.234375 -0.46875 -0.796875 -0.359375q-0.5 0.109375 -1.296875 0.984375q-0.8125 0.921875 -3.203125 0.9375q-1.640625 0.015625 -2.953125 -1.140625q-1.140625 -1.0 -1.203125 -2.328125zm0.265625 -1.9375q0.328125 -1.15625 0.84375 -1.796875q1.171875 -1.4375 2.78125 -1.4375q1.171875 -0.015625 2.203125 0.640625q0.890625 0.578125 1.0625 1.59375l-6.890625 1.0zm13.3671875 -11.859375q-1.046875 0.03125 -1.078125 1.09375l-0.390625 17.0q-0.03125 1.265625 1.03125 1.28125q1.265625 0.03125 1.265625 -1.25l0.375 -16.953125q0.015625 -1.171875 -1.203125 -1.171875zm6.6367188 6.609375q-1.1875 -0.03125 -1.21875 1.53125l-0.203125 9.828125q-0.03125 1.484375 1.21875 1.5q1.109375 0 1.125 -1.59375l0.171875 -9.75q0.015625 -1.5 -1.09375 -1.515625zm0.078125 -5.328125q-0.390625 0 -0.71875 0.203125q-0.3125 0.21875 -0.515625 0.5625q-0.1875 0.328125 -0.1875 0.703125q0 0.390625 0.203125 0.734375q0.203125 0.328125 0.515625 0.515625q0.3125 0.1875 0.671875 0.203125q0.03125 0 0.0625 0q0.375 0.015625 0.65625 -0.140625q0.28125 -0.125 0.515625 -0.4375q0.265625 -0.34375 0.296875 -0.765625q0 -0.0625 0 -0.109375q0 -0.375 -0.15625 -0.6875q-0.1875 -0.375 -0.5625 -0.578125q-0.328125 -0.203125 -0.734375 -0.203125q-0.015625 0 -0.046875 0zm6.0078125 4.765625q-1.078125 0 -1.109375 1.09375l-0.265625 10.90625q-0.03125 1.25 1.015625 1.28125q1.25 0.015625 1.296875 -1.265625l0.1875 -7.09375q1.859375 -1.859375 3.484375 -1.734375q1.9375 0.140625 1.859375 3.375l-0.140625 5.546875q-0.046875 1.421875 1.234375 1.3125q1.109375 -0.09375 1.125 -1.515625l0.09375 -5.859375q0.078125 -5.34375 -4.34375 -5.34375q-2.0 0 -3.265625 1.15625q0 -0.359375 0.015625 -0.6875q0.03125 -1.171875 -1.1875 -1.171875zm12.65625 7.75l7.875 -1.140625q1.265625 -0.171875 1.3125 -1.609375q0.046875 -1.796875 -1.390625 -3.203125q-1.515625 -1.5 -4.234375 -1.328125q-2.59375 0.15625 -4.234375 2.515625q-1.3125 1.890625 -1.3125 4.296875q0 2.9375 2.078125 4.640625q1.6875 1.390625 3.921875 1.40625q3.046875 0.03125 4.921875 -1.640625q1.0625 -0.953125 0.515625 -2.03125q-0.234375 -0.46875 -0.796875 -0.359375q-0.5 0.109375 -1.296875 0.984375q-0.8125 0.921875 -3.203125 0.9375q-1.640625 0.015625 -2.953125 -1.140625q-1.140625 -1.0 -1.203125 -2.328125zm0.265625 -1.9375q0.328125 -1.15625 0.84375 -1.796875q1.171875 -1.4375 2.78125 -1.4375q1.171875 -0.015625 2.203125 0.640625q0.890625 0.578125 1.0625 1.59375l-6.890625 1.0z" fill-rule="nonzero"/><path fill="#000000" fill-opacity="0.0" d="m35.62992 189.91045l0 28.881897" fill-rule="evenodd"/><path stroke="#3c78d8" stroke-width="3.0" stroke-linejoin="round" stroke-linecap="butt" d="m35.62992 189.91045l0 28.881897" fill-rule="evenodd"/><path fill="#000000" fill-opacity="0.0" d="m144.80577 189.91045l0 28.881897" fill-rule="evenodd"/><path stroke="#3c78d8" stroke-width="3.0" stroke-linejoin="round" stroke-linecap="butt" d="m144.80577 189.91045l0 28.881897" fill-rule="evenodd"/><path fill="#000000" fill-opacity="0.0" d="m159.46982 189.91045l0 28.881897" fill-rule="evenodd"/><path stroke="#3c78d8" stroke-width="3.0" stroke-linejoin="round" stroke-linecap="butt" d="m159.46982 189.91045l0 28.881897" fill-rule="evenodd"/><path fill="#000000" fill-opacity="0.0" d="m195.65558 189.91045l0 28.881897" fill-rule="evenodd"/><path stroke="#3c78d8" stroke-width="3.0" stroke-linejoin="round" stroke-linecap="butt" d="m195.65558 189.91045l0 28.881897" fill-rule="evenodd"/><path fill="#000000" fill-opacity="0.0" d="m283.30914 188.18295l0 28.881882" fill-rule="evenodd"/><path stroke="#3c78d8" stroke-width="3.0" stroke-linejoin="round" stroke-linecap="butt" d="m283.30914 188.18295l0 28.881882" fill-rule="evenodd"/><path fill="#000000" fill-opacity="0.0" d="m336.43814 189.91045l0 28.881897" fill-rule="evenodd"/><path stroke="#3c78d8" stroke-width="3.0" stroke-linejoin="round" stroke-linecap="butt" d="m336.43814 189.91045l0 28.881897" fill-rule="evenodd"/><path fill="#000000" fill-opacity="0.0" d="m377.8633 189.91045l0 28.881897" fill-rule="evenodd"/><path stroke="#3c78d8" stroke-width="3.0" stroke-linejoin="round" stroke-linecap="butt" d="m377.8633 189.91045l0 28.881897" fill-rule="evenodd"/><path fill="#000000" fill-opacity="0.0" d="m479.20715 189.91045l0 28.881897" fill-rule="evenodd"/><path stroke="#3c78d8" stroke-width="3.0" stroke-linejoin="round" stroke-linecap="butt" d="m479.20715 189.91045l0 28.881897" fill-rule="evenodd"/><path fill="#000000" fill-opacity="0.0" d="m493.4349 189.91045l0 28.881897" fill-rule="evenodd"/><path stroke="#3c78d8" stroke-width="3.0" stroke-linejoin="round" stroke-linecap="butt" d="m493.4349 189.91045l0 28.881897" fill-rule="evenodd"/><path fill="#000000" fill-opacity="0.0" d="m507.9546 189.91045l0 28.881897" fill-rule="evenodd"/><path stroke="#3c78d8" stroke-width="3.0" stroke-linejoin="round" stroke-linecap="butt" d="m507.9546 189.91045l0 28.881897" fill-rule="evenodd"/><path fill="#000000" fill-opacity="0.0" d="m604.9992 189.91045l0 28.881897" fill-rule="evenodd"/><path stroke="#3c78d8" stroke-width="3.0" stroke-linejoin="round" stroke-linecap="butt" d="m604.9992 189.91045l0 28.881897" fill-rule="evenodd"/><path fill="#000000" fill-opacity="0.0" d="m72.37795 136.8168l566.07874 0l0 48.472443l-566.07874 0z" fill-rule="evenodd"/><path fill="#3c78d8" d="m74.50295 145.43494l0 0zm21.9375 6.015625q-1.15625 -0.015625 -1.203125 1.796875l-0.140625 6.640625q-0.140625 7.265625 -4.671875 7.34375q-4.859375 0.078125 -4.8125 -7.484375l0.03125 -6.40625q0.015625 -2.03125 -1.15625 -2.046875q-1.1875 0 -1.203125 2.34375l-0.03125 6.28125q-0.0625 9.390625 7.109375 9.40625q6.890625 0.015625 7.125 -9.1875l0.1875 -6.640625q0.046875 -2.015625 -1.234375 -2.046875zm5.5585938 4.578125q-1.078125 0 -1.109375 1.09375l-0.265625 10.90625q-0.03125 1.25 1.015625 1.28125q1.25 0.015625 1.296875 -1.265625l0.1875 -7.09375q1.859375 -1.859375 3.484375 -1.734375q1.9375 0.140625 1.859375 3.375l-0.140625 5.546875q-0.046875 1.421875 1.234375 1.3125q1.109375 -0.09375 1.125 -1.515625l0.09375 -5.859375q0.078125 -5.34375 -4.34375 -5.34375q-2.0 0 -3.265625 1.15625q0 -0.359375 0.015625 -0.6875q0.03125 -1.171875 -1.1875 -1.171875zm14.21875 11.140625q-1.078125 -0.078125 -2.109375 -0.78125q-0.84375 -0.5625 -1.5 -0.140625q-0.53125 0.359375 -0.484375 1.125q0.046875 0.703125 0.859375 1.171875q0.921875 0.53125 1.546875 0.71875q1.03125 0.28125 2.671875 0.28125q1.953125 -0.015625 3.125 -0.8125q1.453125 -0.96875 1.640625 -2.484375q0.171875 -1.46875 -1.015625 -2.90625q-0.5 -0.609375 -1.796875 -1.203125q-0.9375 -0.4375 -2.0625 -0.5625q-1.40625 -0.15625 -1.625 -0.78125q-0.234375 -0.734375 0.34375 -1.390625q0.671875 -0.796875 2.09375 -0.875q1.328125 -0.046875 2.0 0.609375q1.359375 1.3125 2.03125 0.765625q0.546875 -0.4375 0.4375 -1.140625q-0.171875 -1.0625 -1.84375 -1.890625q-1.28125 -0.625 -3.0 -0.46875q-1.515625 0.140625 -2.6875 0.984375q-0.984375 0.703125 -1.484375 2.046875q-0.46875 1.21875 -0.1875 2.390625q0.359375 1.5 2.765625 1.84375q2.328125 0.328125 2.984375 1.03125q0.984375 1.046875 0.515625 1.78125q-0.59375 0.859375 -3.21875 0.6875zm12.855476 -17.1875q-1.046875 0 -1.0781326 1.09375l-0.125 5.546875q-1.359375 0.015625 -2.703125 0.015625q-1.125 0 -1.125 1.171875q0 1.15625 1.015625 1.15625q1.375 0 2.75 0l-0.203125 9.109375q-0.03125 1.265625 1.0312576 1.28125q1.265625 0.03125 1.265625 -1.25l0.203125 -9.140625q1.25 0 2.515625 0q1.359375 0 1.359375 -1.203125q0 -1.171875 -1.4375 -1.171875l-2.375 0.015625q0.078125 -2.46875 0.109375 -5.453125q0 -1.171875 -1.203125 -1.171875zm8.480469 6.046875q-1.078125 0 -1.109375 1.09375l-0.265625 10.953125q-0.03125 1.265625 1.015625 1.28125q1.234375 0.03125 1.265625 -1.25l0.203125 -7.6875q1.09375 -1.09375 2.421875 -1.34375q1.359375 -0.28125 2.421875 0.4375q1.34375 0.921875 1.859375 -0.578125q0.3125 -0.953125 -1.46875 -1.84375q-1.0 -0.5 -2.5625 -0.484375q-1.28125 0.03125 -2.59375 1.015625q0 -0.21875 0 -0.421875q0 -1.171875 -1.1875 -1.171875zm18.671875 13.71875q1.0625 0 1.078125 -1.09375l0.28125 -10.9375q0.03125 -1.265625 -1.03125 -1.296875q-1.234375 -0.015625 -1.28125 1.265625l-0.140625 5.921875q-0.046875 1.921875 -1.578125 2.6875q-1.6875 0.84375 -2.90625 0.03125q-0.890625 -0.625 -0.859375 -3.453125l0.015625 -5.125q0.03125 -1.40625 -1.21875 -1.296875q-1.09375 0.09375 -1.125 1.5l-0.046875 5.765625q-0.046875 5.328125 4.359375 5.34375q2.0 0 3.265625 -1.171875l0 0.703125q-0.03125 1.15625 1.1875 1.15625zm11.902344 -3.359375q-1.375 0.9375 -2.96875 0.875q-1.546875 -0.0625 -2.421875 -1.21875q-0.9375 -1.296875 -0.90625 -2.875q0.03125 -1.65625 0.921875 -2.953125q0.78125 -1.125 1.765625 -1.421875q1.734375 -0.5625 3.09375 0.46875q1.140625 0.84375 1.6875 0.4375q0.796875 -0.578125 0.09375 -1.703125q-0.46875 -0.71875 -1.890625 -1.203125q-1.15625 -0.375 -2.546875 -0.265625q-2.390625 0.171875 -3.9375 2.40625q-1.28125 1.84375 -1.28125 4.734375q0 2.609375 1.796875 4.34375q1.4375 1.390625 3.625 1.40625q2.765625 0.015625 4.046875 -1.09375q1.0 -0.875 0.609375 -1.53125q-0.65625 -1.109375 -1.6875 -0.40625zm8.59375 -16.40625q-1.046875 0 -1.078125 1.09375l-0.125 5.546875q-1.359375 0.015625 -2.703125 0.015625q-1.125 0 -1.125 1.171875q0 1.15625 1.015625 1.15625q1.375 0 2.75 0l-0.203125 9.109375q-0.03125 1.265625 1.03125 1.28125q1.265625 0.03125 1.265625 -1.25l0.203125 -9.140625q1.25 0 2.515625 0q1.359375 0 1.359375 -1.203125q0 -1.171875 -1.4375 -1.171875l-2.375 0.015625q0.078125 -2.46875 0.109375 -5.453125q0 -1.171875 -1.203125 -1.171875zm15.621094 19.765625q1.0625 0 1.078125 -1.09375l0.28125 -10.9375q0.03125 -1.265625 -1.03125 -1.296875q-1.234375 -0.015625 -1.28125 1.265625l-0.140625 5.921875q-0.046875 1.921875 -1.578125 2.6875q-1.6875 0.84375 -2.90625 0.03125q-0.890625 -0.625 -0.859375 -3.453125l0.015625 -5.125q0.03125 -1.40625 -1.21875 -1.296875q-1.09375 0.09375 -1.125 1.5l-0.046875 5.765625q-0.046875 5.328125 4.359375 5.34375q2.0 0 3.265625 -1.171875l0 0.703125q-0.03125 1.15625 1.1875 1.15625zm5.3398438 -13.71875q-1.078125 0 -1.109375 1.09375l-0.265625 10.953125q-0.03125 1.265625 1.015625 1.28125q1.234375 0.03125 1.265625 -1.25l0.203125 -7.6875q1.09375 -1.09375 2.421875 -1.34375q1.359375 -0.28125 2.421875 0.4375q1.34375 0.921875 1.859375 -0.578125q0.3125 -0.953125 -1.46875 -1.84375q-1.0 -0.5 -2.5625 -0.484375q-1.28125 0.03125 -2.59375 1.015625q0 -0.21875 0 -0.421875q0 -1.171875 -1.1875 -1.171875zm11.625 7.75l7.875 -1.140625q1.265625 -0.171875 1.3125 -1.609375q0.046875 -1.796875 -1.390625 -3.203125q-1.515625 -1.5 -4.234375 -1.328125q-2.59375 0.15625 -4.234375 2.515625q-1.3125 1.890625 -1.3125 4.296875q0 2.9375 2.078125 4.640625q1.6875 1.390625 3.921875 1.40625q3.046875 0.03125 4.921875 -1.640625q1.0625 -0.953125 0.515625 -2.03125q-0.234375 -0.46875 -0.796875 -0.359375q-0.5 0.109375 -1.296875 0.984375q-0.8125 0.921875 -3.203125 0.9375q-1.640625 0.015625 -2.953125 -1.140625q-1.140625 -1.0 -1.203125 -2.328125zm0.265625 -1.9375q0.328125 -1.15625 0.84375 -1.796875q1.171875 -1.4375 2.78125 -1.4375q1.171875 -0.015625 2.203125 0.640625q0.890625 0.578125 1.0625 1.59375l-6.890625 1.0zm21.601562 -11.859375q-1.0625 0.03125 -1.078125 1.09375l-0.171875 6.765625q-0.453125 -0.3125 -1.0 -0.640625q-1.0625 -0.59375 -2.46875 -0.59375q-2.625 0 -4.25 2.0q-1.71875 2.125 -1.625 5.25q0.09375 2.296875 1.828125 4.03125q1.5625 1.546875 3.59375 1.5625q1.96875 0 3.703125 -1.09375q0.078125 0.984375 1.015625 1.0q1.265625 0.03125 1.28125 -1.25l0.359375 -16.953125q0.03125 -1.171875 -1.1875 -1.171875zm-1.4375 15.71875q-2.09375 1.640625 -3.734375 1.453125q-1.5625 -0.171875 -2.359375 -1.234375q-1.0 -1.296875 -0.96875 -2.625q0.046875 -2.078125 0.96875 -3.234375q0.65625 -0.8125 2.140625 -1.171875q2.015625 -0.5 4.078125 1.640625q0 2.734375 -0.125 5.171875zm17.691406 -6.75q2.46875 -0.046875 2.453125 4.125q-0.015625 2.203125 -0.9375 3.203125q-0.875 0.9375 -2.15625 0.9375q-1.125 0 -1.984375 -0.9375q-0.84375 -0.921875 -0.84375 -2.75q0 -1.921875 1.171875 -3.515625q0.75 -1.03125 2.296875 -1.0625zm-0.09375 -2.390625q-2.5625 -0.015625 -4.109375 2.015625q-1.5625 2.0625 -1.5625 4.734375q0 2.828125 1.3125 4.390625q1.453125 1.71875 3.53125 1.734375q2.890625 0.015625 4.296875 -1.78125q1.25 -1.484375 1.265625 -4.34375q0 -6.71875 -4.734375 -6.75zm8.917969 -0.53125q-1.078125 0 -1.109375 1.09375l-0.265625 10.953125q-0.03125 1.265625 1.015625 1.28125q1.234375 0.03125 1.265625 -1.25l0.203125 -7.6875q1.09375 -1.09375 2.421875 -1.34375q1.359375 -0.28125 2.421875 0.4375q1.34375 0.921875 1.859375 -0.578125q0.3125 -0.953125 -1.46875 -1.84375q-1.0 -0.5 -2.5625 -0.484375q-1.28125 0.03125 -2.59375 1.015625q0 -0.21875 0 -0.421875q0 -1.171875 -1.1875 -1.171875zm28.71875 12.59375l0 0l0 0q1.53125 -0.828125 0.171875 -2.09375l-5.265625 -4.890625q2.109375 -0.515625 2.875 -1.359375q2.296875 -2.5625 1.0625 -5.703125q-1.21875 -3.09375 -5.453125 -3.40625q-1.484375 -0.109375 -2.84375 0.015625q-0.21875 -0.046875 -0.484375 -0.046875q-1.0625 0 -1.09375 1.03125l-0.390625 16.109375q-0.03125 1.203125 1.03125 1.21875q1.265625 0.03125 1.28125 -1.1875l0.140625 -6.265625q0.296875 0.03125 0.640625 0.015625q0.203125 -0.015625 0.390625 -0.03125l5.796875 5.75q1.296875 1.296875 2.140625 0.84375zm-8.78125 -15.203125q0.828125 0.015625 1.640625 0.03125q2.75 0.03125 3.6875 1.59375q0.984375 1.640625 -0.203125 3.375q-1.265625 1.828125 -5.265625 1.40625l0.140625 -6.40625zm16.816406 16.09375q1.09375 -0.015625 3.515625 -1.25q0.234375 1.5625 1.703125 1.25q1.28125 -0.25 0.28125 -1.96875q-0.6875 -1.171875 -0.640625 -3.984375q0.0625 -3.53125 0.328125 -5.0q0.28125 -1.5 -1.125 -1.8125q-0.71875 -0.15625 -1.0625 0.125q-3.0625 -0.96875 -5.875 1.34375q-2.453125 2.0 -2.421875 5.671875q0.03125 5.640625 5.296875 5.625zm1.359375 -2.359375q-0.890625 0.328125 -1.90625 0.265625q-2.421875 -0.171875 -2.46875 -3.75q0.109375 -2.765625 2.203125 -4.265625q0.515625 -0.390625 1.375 -0.609375q1.25 -0.296875 2.375 0.421875q-0.53125 1.890625 -0.109375 6.9375q-1.046875 0.84375 -1.46875 1.0zm7.953125 -11.125q-1.078125 0 -1.109375 1.09375l-0.265625 10.90625q-0.03125 1.25 1.015625 1.28125q1.25 0.015625 1.296875 -1.265625l0.1875 -7.09375q1.859375 -1.859375 3.484375 -1.734375q1.9375 0.140625 1.859375 3.375l-0.140625 5.546875q-0.046875 1.421875 1.234375 1.3125q1.109375 -0.09375 1.125 -1.515625l0.09375 -5.859375q0.078125 -5.34375 -4.34375 -5.34375q-2.0 0 -3.265625 1.15625q0 -0.359375 0.015625 -0.6875q0.03125 -1.171875 -1.1875 -1.171875zm21.375 -6.046875q-1.0625 0.03125 -1.078125 1.09375l-0.171875 6.765625q-0.453125 -0.3125 -1.0 -0.640625q-1.0625 -0.59375 -2.46875 -0.59375q-2.625 0 -4.25 2.0q-1.71875 2.125 -1.625 5.25q0.09375 2.296875 1.828125 4.03125q1.5625 1.546875 3.59375 1.5625q1.96875 0 3.703125 -1.09375q0.078125 0.984375 1.015625 1.0q1.265625 0.03125 1.28125 -1.25l0.359375 -16.953125q0.03125 -1.171875 -1.1875 -1.171875zm-1.4375 15.71875q-2.09375 1.640625 -3.734375 1.453125q-1.5625 -0.171875 -2.359375 -1.234375q-1.0 -1.296875 -0.96875 -2.625q0.046875 -2.078125 0.96875 -3.234375q0.65625 -0.8125 2.140625 -1.171875q2.015625 -0.5 4.078125 1.640625q0 2.734375 -0.125 5.171875zm10.519531 -6.75q2.46875 -0.046875 2.453125 4.125q-0.015625 2.203125 -0.9375 3.203125q-0.875 0.9375 -2.15625 0.9375q-1.125 0 -1.984375 -0.9375q-0.84375 -0.921875 -0.84375 -2.75q0 -1.921875 1.171875 -3.515625q0.75 -1.03125 2.296875 -1.0625zm-0.09375 -2.390625q-2.5625 -0.015625 -4.109375 2.015625q-1.5625 2.0625 -1.5625 4.734375q0 2.828125 1.3125 4.390625q1.453125 1.71875 3.53125 1.734375q2.890625 0.015625 4.296875 -1.78125q1.25 -1.484375 1.265625 -4.34375q0 -6.71875 -4.734375 -6.75zm8.699219 -0.53125q-1.078125 0 -1.09375 1.09375l-0.28125 10.859375q-0.03125 1.265625 1.03125 1.28125q1.21875 0.03125 1.25 -1.25l0.203125 -6.484375q0.625 -2.4375 2.65625 -2.359375q1.796875 0.046875 1.734375 3.390625l-0.125 5.375q-0.03125 1.421875 1.171875 1.3125q1.09375 -0.09375 1.125 -1.515625l0.140625 -5.875q0.015625 -0.671875 0.046875 -0.71875q0.78125 -2.015625 2.921875 -1.953125q1.859375 0.046875 1.8125 3.515625l-0.078125 5.40625q-0.015625 1.421875 1.25 1.296875q1.09375 -0.09375 1.125 -1.515625l0.09375 -5.8125q0.078125 -5.34375 -4.359375 -5.34375q-2.40625 -0.015625 -3.609375 1.71875q-0.84375 -1.75 -3.28125 -1.71875q-1.5 0 -2.546875 0.9375l0.015625 -0.46875q0.015625 -1.171875 -1.203125 -1.171875zm19.441406 -6.046875q-1.046875 0.03125 -1.078125 1.09375l-0.390625 17.0q-0.03125 1.265625 1.03125 1.28125q1.265625 0.03125 1.265625 -1.25l0.375 -16.953125q0.015625 -1.171875 -1.203125 -1.171875zm14.308594 6.8125q-1.125 -0.46875 -1.71875 0.921875l-3.21875 7.390625l-3.921875 -7.46875q-0.734375 -1.390625 -1.828125 -0.8125q-1.03125 0.5625 -0.28125 1.9375l4.875 9.03125l-2.328125 5.390625q-0.8125 1.859375 0.421875 2.359375q1.03125 0.421875 1.84375 -1.453125l6.6875 -15.4375q0.59375 -1.375 -0.53125 -1.859375zm3.3984375 4.796875q-0.84375 0 -0.84375 0.90625q0 0.859375 0.78125 0.859375l5.75 0.015625q1.046875 0 1.046875 -0.921875q0 -0.890625 -1.109375 -0.890625l-5.625 0.03125zm19.589844 -11.609375q-1.0625 0.03125 -1.078125 1.09375l-0.171875 6.765625q-0.453125 -0.3125 -1.0 -0.640625q-1.0625 -0.59375 -2.46875 -0.59375q-2.625 0 -4.25 2.0q-1.71875 2.125 -1.625 5.25q0.09375 2.296875 1.828125 4.03125q1.5625 1.546875 3.59375 1.5625q1.96875 0 3.703125 -1.09375q0.078125 0.984375 1.015625 1.0q1.265625 0.03125 1.28125 -1.25l0.359375 -16.953125q0.03125 -1.171875 -1.1875 -1.171875zm-1.4375 15.71875q-2.09375 1.640625 -3.734375 1.453125q-1.5625 -0.171875 -2.359375 -1.234375q-1.0 -1.296875 -0.96875 -2.625q0.046875 -2.078125 0.96875 -3.234375q0.65625 -0.8125 2.140625 -1.171875q2.015625 -0.5 4.078125 1.640625q0 2.734375 -0.125 5.171875zm6.7226562 -9.671875q-1.078125 0 -1.109375 1.09375l-0.265625 10.953125q-0.03125 1.265625 1.015625 1.28125q1.234375 0.03125 1.265625 -1.25l0.203125 -7.6875q1.09375 -1.09375 2.421875 -1.34375q1.359375 -0.28125 2.421875 0.4375q1.34375 0.921875 1.859375 -0.578125q0.3125 -0.953125 -1.46875 -1.84375q-1.0 -0.5 -2.5625 -0.484375q-1.28125 0.03125 -2.59375 1.015625q0 -0.21875 0 -0.421875q0 -1.171875 -1.1875 -1.171875zm14.5 13.484375q1.09375 -0.015625 3.515625 -1.25q0.234375 1.5625 1.703125 1.25q1.28125 -0.25 0.28125 -1.96875q-0.6875 -1.171875 -0.640625 -3.984375q0.0625 -3.53125 0.328125 -5.0q0.28125 -1.5 -1.125 -1.8125q-0.71875 -0.15625 -1.0625 0.125q-3.0625 -0.96875 -5.875 1.34375q-2.453125 2.0 -2.421875 5.671875q0.03125 5.640625 5.296875 5.625zm1.359375 -2.359375q-0.890625 0.328125 -1.90625 0.265625q-2.421875 -0.171875 -2.46875 -3.75q0.109375 -2.765625 2.203125 -4.265625q0.515625 -0.390625 1.375 -0.609375q1.25 -0.296875 2.375 0.421875q-0.53125 1.890625 -0.109375 6.9375q-1.046875 0.84375 -1.46875 1.0zm14.59375 -9.015625q-0.265625 -1.546875 -1.203125 -1.546875q-0.796875 0 -1.28125 1.546875l-2.609375 8.125l-1.359375 -8.125q-0.28125 -1.6875 -1.3125 -1.53125q-1.078125 0.171875 -0.796875 1.640625l1.84375 9.765625q0.265625 1.4375 1.484375 1.4375q0.96875 0 1.46875 -1.4375l2.265625 -6.4375l1.234375 6.4375q0.28125 1.4375 1.484375 1.4375q0.984375 0 1.46875 -1.4375l3.390625 -9.765625q0.5 -1.453125 -0.71875 -1.640625q-0.859375 -0.125 -1.390625 1.53125l-2.59375 8.125l-1.375 -8.125zm9.777344 -2.109375q-1.078125 0 -1.109375 1.09375l-0.265625 10.90625q-0.03125 1.25 1.015625 1.28125q1.25 0.015625 1.296875 -1.265625l0.1875 -7.09375q1.859375 -1.859375 3.484375 -1.734375q1.9375 0.140625 1.859375 3.375l-0.140625 5.546875q-0.046875 1.421875 1.234375 1.3125q1.109375 -0.09375 1.125 -1.515625l0.09375 -5.859375q0.078125 -5.34375 -4.34375 -5.34375q-2.0 0 -3.265625 1.15625q0 -0.359375 0.015625 -0.6875q0.03125 -1.171875 -1.1875 -1.171875zm19.75 -4.75q-1.578125 0 -1.578125 1.03125q0 1.234375 1.46875 1.234375q2.765625 0 5.53125 -0.015625l-0.359375 14.71875q-0.015625 1.171875 1.03125 1.203125q1.25 0.015625 1.28125 -1.1875l0.34375 -14.75l4.9375 -0.015625q1.578125 0 1.546875 -1.078125q-0.015625 -1.140625 -1.546875 -1.140625l-12.65625 0zm16.9375 5.3125q-1.1875 -0.03125 -1.21875 1.53125l-0.203125 9.828125q-0.03125 1.484375 1.21875 1.5q1.109375 0 1.125 -1.59375l0.171875 -9.75q0.015625 -1.5 -1.09375 -1.515625zm0.078125 -5.328125q-0.390625 0 -0.71875 0.203125q-0.3125 0.21875 -0.515625 0.5625q-0.1875 0.328125 -0.1875 0.703125q0 0.390625 0.203125 0.734375q0.203125 0.328125 0.515625 0.515625q0.3125 0.1875 0.671875 0.203125q0.03125 0 0.0625 0q0.375 0.015625 0.65625 -0.140625q0.28125 -0.125 0.515625 -0.4375q0.265625 -0.34375 0.296875 -0.765625q0 -0.0625 0 -0.109375q0 -0.375 -0.15625 -0.6875q-0.1875 -0.375 -0.5625 -0.578125q-0.328125 -0.203125 -0.734375 -0.203125q-0.015625 0 -0.046875 0zm5.7890625 4.765625q-1.078125 0 -1.09375 1.09375l-0.28125 10.859375q-0.03125 1.265625 1.03125 1.28125q1.21875 0.03125 1.25 -1.25l0.203125 -6.484375q0.625 -2.4375 2.65625 -2.359375q1.796875 0.046875 1.734375 3.390625l-0.125 5.375q-0.03125 1.421875 1.171875 1.3125q1.09375 -0.09375 1.125 -1.515625l0.140625 -5.875q0.015625 -0.671875 0.046875 -0.71875q0.78125 -2.015625 2.921875 -1.953125q1.859375 0.046875 1.8125 3.515625l-0.078125 5.40625q-0.015625 1.421875 1.25 1.296875q1.09375 -0.09375 1.125 -1.515625l0.09375 -5.8125q0.078125 -5.34375 -4.359375 -5.34375q-2.40625 -0.015625 -3.609375 1.71875q-0.84375 -1.75 -3.28125 -1.71875q-1.5 0 -2.546875 0.9375l0.015625 -0.46875q0.015625 -1.171875 -1.203125 -1.171875zm18.957031 7.75l7.8749695 -1.140625q1.265625 -0.171875 1.3125 -1.609375q0.046875 -1.796875 -1.390625 -3.203125q-1.5155945 -1.5 -4.2343445 -1.328125q-2.59375 0.15625 -4.234375 2.515625q-1.3125 1.890625 -1.3125 4.296875q0 2.9375 2.078125 4.640625q1.6875 1.390625 3.921875 1.40625q3.0468445 0.03125 4.9218445 -1.640625q1.0625 -0.953125 0.515625 -2.03125q-0.234375 -0.46875 -0.796875 -0.359375q-0.5 0.109375 -1.296875 0.984375q-0.8124695 0.921875 -3.2030945 0.9375q-1.640625 0.015625 -2.953125 -1.140625q-1.140625 -1.0 -1.203125 -2.328125zm0.265625 -1.9375q0.328125 -1.15625 0.84375 -1.796875q1.171875 -1.4375 2.78125 -1.4375q1.171875 -0.015625 2.203125 0.640625q0.8905945 0.578125 1.0624695 1.59375l-6.8905945 1.0zm14.445282 5.328125q-1.078125 -0.078125 -2.109375 -0.78125q-0.84375 -0.5625 -1.5 -0.140625q-0.53125 0.359375 -0.484375 1.125q0.046875 0.703125 0.859375 1.171875q0.921875 0.53125 1.546875 0.71875q1.03125 0.28125 2.671875 0.28125q1.953125 -0.015625 3.125 -0.8125q1.453125 -0.96875 1.640625 -2.484375q0.171875 -1.46875 -1.015625 -2.90625q-0.5 -0.609375 -1.796875 -1.203125q-0.9375 -0.4375 -2.0625 -0.5625q-1.40625 -0.15625 -1.625 -0.78125q-0.234375 -0.734375 0.34375 -1.390625q0.671875 -0.796875 2.09375 -0.875q1.328125 -0.046875 2.0 0.609375q1.359375 1.3125 2.03125 0.765625q0.546875 -0.4375 0.4375 -1.140625q-0.171875 -1.0625 -1.84375 -1.890625q-1.28125 -0.625 -3.0 -0.46875q-1.515625 0.140625 -2.6875 0.984375q-0.984375 0.703125 -1.484375 2.046875q-0.46875 1.21875 -0.1875 2.390625q0.359375 1.5 2.765625 1.84375q2.328125 0.328125 2.984375 1.03125q0.984375 1.046875 0.515625 1.78125q-0.59375 0.859375 -3.21875 0.6875zm11.152344 -0.375q-0.359375 0.09375 -0.59375 0.3125q-0.265625 0.21875 -0.390625 0.546875q-0.109375 0.265625 -0.109375 0.5625q0 0.390625 0.203125 0.734375q0.21875 0.390625 0.609375 0.578125q0.296875 0.15625 0.640625 0.15625q0.109375 -0.015625 0.203125 -0.03125q0.453125 -0.0625 0.78125 -0.34375q0.3125 -0.296875 0.4375 -0.734375q0.03125 -0.125 0.03125 -0.359375q-0.015625 -0.203125 -0.046875 -0.390625q-0.078125 -0.359375 -0.390625 -0.640625q-0.265625 -0.28125 -0.625 -0.375q-0.1875 -0.046875 -0.390625 -0.046875q-0.1875 -0.015625 -0.359375 0.03125zm-2.578125 -13.625q-1.203125 1.359375 -0.125 2.203125q0.640625 0.5 2.09375 -0.796875q0.9375 -0.84375 2.546875 -0.640625q1.765625 0.21875 2.078125 1.796875q0.484375 2.40625 -1.90625 3.15625q-2.40625 0.75 -2.703125 3.171875q-0.328125 2.6875 1.265625 2.59375q1.0625 -0.046875 1.109375 -2.390625q0 -0.984375 2.203125 -1.578125q3.109375 -0.859375 2.453125 -5.375q-0.53125 -3.84375 -4.59375 -3.765625q-3.046875 0.0625 -4.421875 1.625z" fill-rule="nonzero"/><path fill="#000000" fill-opacity="0.0" d="m196.9895 221.2945c7.632141 10.174271 18.733887 19.459305 31.204727 21.958008c18.450241 3.6967468 52.005234 -3.1410522 52.005234 -21.958008" fill-rule="evenodd"/><path stroke="#3c78d8" stroke-width="2.0" stroke-linejoin="round" stroke-linecap="butt" d="m196.9895 221.2945c7.6321564 10.174271 18.733887 19.459305 31.204727 21.958008c9.225128 1.8483887 22.22644 1.0631104 32.921463 -2.536377c5.347534 -1.7997284 10.118469 -4.3030243 13.552521 -7.53244c0.21463013 -0.201828 0.42404175 -0.4065094 0.62805176 -0.61402893l0.21890259 -0.22721863" fill-rule="evenodd"/><path stroke="#3c78d8" stroke-width="2.0" stroke-linecap="butt" d="m278.55652 233.63199l0.50161743 -9.64566l-6.5843506 7.066574z" fill-rule="evenodd"/><path fill="#000000" fill-opacity="0.0" d="m160.00787 221.2945c9.505493 21.004364 25.01744 15.639618 35.648056 0" fill-rule="evenodd"/><path stroke="#3c78d8" stroke-width="2.0" stroke-linejoin="round" stroke-linecap="butt" d="m160.00787 221.2945c4.7527466 10.502182 11.007111 14.412094 17.402115 13.741486c3.1974945 -0.33528137 6.4301453 -1.8157196 9.527863 -4.1897736c0.19358826 -0.14839172 0.3866577 -0.3002472 0.5791931 -0.4555664l0.16137695 -0.13180542" fill-rule="evenodd"/><path stroke="#3c78d8" stroke-width="2.0" stroke-linecap="butt" d="m190.1462 232.45496l3.5660095 -8.976288l-8.501572 4.5840454z" fill-rule="evenodd"/><path fill="#000000" fill-opacity="0.0" d="m284.7743 221.29451c12.901794 25.753006 33.956146 19.175385 48.38507 0" fill-rule="evenodd"/><path stroke="#3c78d8" stroke-width="2.0" stroke-linejoin="round" stroke-linecap="butt" d="m284.7743 221.2945c6.450897 12.876526 14.939941 17.670364 23.619873 16.84816c4.3399353 -0.4111023 8.727631 -2.2262115 12.932129 -5.1370087c1.051117 -0.72772217 2.0907898 -1.5238953 3.1154175 -2.3837433c0.12808228 -0.10746765 0.25595093 -0.21594238 0.3835144 -0.32539368l0.20339966 -0.1763916" fill-rule="evenodd"/><path stroke="#3c78d8" stroke-width="2.0" stroke-linecap="butt" d="m327.45822 232.35841l3.7200623 -8.913559l-8.579254 4.436966z" fill-rule="evenodd"/><path fill="#000000" fill-opacity="0.0" d="m143.79959 242.48947l566.07874 0l0 42.015747l-566.07874 0z" fill-rule="evenodd"/><path fill="#3c78d8" d="m155.09647 255.7376q-1.234375 0 -1.234375 0.81248474q0 0.953125 1.15625 0.953125q2.140625 0 4.296875 -0.015625l-0.28125 11.453125q-0.015625 0.90625 0.796875 0.921875q0.96875 0.015625 1.0 -0.90625l0.265625 -11.46875l3.84375 -0.015625q1.21875 0 1.203125 -0.828125q-0.03125 -0.90623474 -1.203125 -0.90623474l-9.84375 0zm12.883545 -1.0q-0.84375 0.015625 -0.859375 0.859375l-0.296875 13.218735q-0.015625 0.96875 0.78125 0.984375q0.96875 0.015625 1.015625 -0.96875l0.1875 -5.265625q1.421875 -1.703125 3.109375 -1.546875q1.484375 0.109375 1.453125 2.53125l-0.015625 4.375q-0.015625 1.078125 0.96875 1.0q0.859375 -0.0625 0.859375 -1.171875l0.046875 -4.625q0.03125 -4.140625 -3.375 -4.140625q-1.90625 0 -3.046875 1.046875l0.09375 -5.3906097q0.015625 -0.90625 -0.921875 -0.90625zm10.63591 10.73436l6.125 -0.890625q0.96875 -0.140625 1.0 -1.25q0.046875 -1.40625 -1.0625 -2.5q-1.1875 -1.15625 -3.296875 -1.03125q-2.015625 0.125 -3.296875 1.953125q-1.015625 1.46875 -1.015625 3.34375q0 2.28125 1.625 3.609375q1.296875 1.078125 3.03125 1.09375q2.375 0.015625 3.828125 -1.28125q0.828125 -0.734375 0.40625 -1.578125q-0.1875 -0.359375 -0.625 -0.265625q-0.390625 0.078125 -1.0 0.75q-0.640625 0.71875 -2.5 0.734375q-1.265625 0.015625 -2.296875 -0.890625q-0.875 -0.78125 -0.921875 -1.796875zm0.203125 -1.515625q0.25 -0.890625 0.65625 -1.390625q0.90625 -1.125 2.171875 -1.125q0.890625 -0.015625 1.703125 0.5q0.6875 0.453125 0.828125 1.234375l-5.359375 0.78125zm11.236481 4.140625q-0.84375 -0.046875 -1.640625 -0.59375q-0.65625 -0.453125 -1.171875 -0.109375q-0.421875 0.265625 -0.390625 0.875q0.046875 0.546875 0.6875 0.90625q0.703125 0.40625 1.203125 0.546875q0.796875 0.21875 2.078125 0.21875q1.5 -0.015625 2.421875 -0.625q1.125 -0.75 1.265625 -1.921875q0.140625 -1.15625 -0.78125 -2.265625q-0.390625 -0.46875 -1.390625 -0.9375q-0.734375 -0.34375 -1.609375 -0.4375q-1.09375 -0.125 -1.265625 -0.609375q-0.171875 -0.5625 0.265625 -1.078125q0.53125 -0.625 1.625 -0.6875q1.03125 -0.03125 1.5625 0.484375q1.0625 1.015625 1.578125 0.59375q0.421875 -0.34375 0.34375 -0.890625q-0.140625 -0.828125 -1.4375 -1.46875q-1.0 -0.484375 -2.328125 -0.375q-1.1875 0.109375 -2.09375 0.765625q-0.765625 0.546875 -1.15625 1.59375q-0.359375 0.953125 -0.140625 1.859375q0.28125 1.171875 2.15625 1.4375q1.796875 0.25 2.3125 0.796875q0.765625 0.828125 0.390625 1.390625q-0.453125 0.671875 -2.484375 0.53125zm7.8634186 -2.625l6.125 -0.890625q0.96875 -0.140625 1.0 -1.25q0.046875 -1.40625 -1.0625 -2.5q-1.1875 -1.15625 -3.296875 -1.03125q-2.015625 0.125 -3.296875 1.953125q-1.015625 1.46875 -1.015625 3.34375q0 2.28125 1.625 3.609375q1.296875 1.078125 3.03125 1.09375q2.375 0.015625 3.828125 -1.28125q0.828125 -0.734375 0.40625 -1.578125q-0.1875 -0.359375 -0.625 -0.265625q-0.390625 0.078125 -1.0 0.75q-0.640625 0.71875 -2.5 0.734375q-1.265625 0.015625 -2.296875 -0.890625q-0.875 -0.78125 -0.921875 -1.796875zm0.203125 -1.515625q0.25 -0.890625 0.65625 -1.390625q0.90625 -1.125 2.171875 -1.125q0.890625 -0.015625 1.703125 0.5q0.6875 0.453125 0.828125 1.234375l-5.359375 0.78125zm17.827118 5.96875q0.84375 -0.015625 2.734375 -0.96875q0.171875 1.203125 1.3125 0.96875q1.0 -0.203125 0.21875 -1.53125q-0.53125 -0.921875 -0.484375 -3.109375q0.046875 -2.734375 0.25 -3.875q0.21875 -1.171875 -0.875 -1.40625q-0.5625 -0.125 -0.828125 0.09375q-2.390625 -0.75 -4.578125 1.046875q-1.890625 1.546875 -1.875 4.40625q0.03125 4.375 4.125 4.375zm1.046875 -1.84375q-0.6875 0.265625 -1.484375 0.203125q-1.875 -0.125 -1.90625 -2.90625q0.078125 -2.140625 1.703125 -3.3125q0.40625 -0.3125 1.078125 -0.46875q0.96875 -0.234375 1.84375 0.3125q-0.421875 1.484375 -0.09375 5.390625q-0.8125 0.671875 -1.140625 0.78125zm6.187378 -8.640625q-0.84375 0 -0.859375 0.84375l-0.203125 8.53125q-0.03125 0.96875 0.78125 0.984375q0.953125 0.015625 0.984375 -0.96875l0.15625 -5.984375q0.859375 -0.84375 1.890625 -1.046875q1.046875 -0.203125 1.875 0.34375q1.046875 0.71875 1.453125 -0.453125q0.234375 -0.734375 -1.140625 -1.421875q-0.78125 -0.390625 -2.0 -0.375q-0.984375 0.015625 -2.015625 0.78125q0 -0.171875 0 -0.328125q0 -0.90625 -0.921875 -0.90625zm9.04187 6.03125l6.125 -0.890625q0.96875 -0.140625 1.0 -1.25q0.046875 -1.40625 -1.0625 -2.5q-1.1875 -1.15625 -3.296875 -1.03125q-2.015625 0.125 -3.296875 1.953125q-1.015625 1.46875 -1.015625 3.34375q0 2.28125 1.625 3.609375q1.296875 1.078125 3.03125 1.09375q2.375 0.015625 3.828125 -1.28125q0.828125 -0.734375 0.40625 -1.578125q-0.1875 -0.359375 -0.625 -0.265625q-0.390625 0.078125 -1.0 0.75q-0.640625 0.71875 -2.5 0.734375q-1.265625 0.015625 -2.296875 -0.890625q-0.875 -0.78125 -0.921875 -1.796875zm0.203125 -1.515625q0.25 -0.890625 0.65625 -1.390625q0.90625 -1.125 2.171875 -1.125q0.890625 -0.015625 1.703125 0.5q0.6875 0.453125 0.828125 1.234375l-5.359375 0.78125zm15.530243 -8.218735q-1.234375 0 -1.234375 0.81248474q0 0.953125 1.15625 0.953125q2.140625 0 4.296875 -0.015625l-0.28125 11.453125q-0.015625 0.90625 0.796875 0.921875q0.96875 0.015625 1.0 -0.90625l0.265625 -11.46875l3.84375 -0.015625q1.21875 0 1.203125 -0.828125q-0.03125 -0.90623474 -1.203125 -0.90623474l-9.84375 0zm13.164795 4.1406097q-0.921875 -0.03125 -0.953125 1.1875l-0.15625 7.640625q-0.015625 1.15625 0.953125 1.15625q0.859375 0 0.875 -1.234375l0.125 -7.578125q0.015625 -1.15625 -0.84375 -1.171875zm0.0625 -4.1406097q-0.3125 0 -0.5625 0.171875q-0.234375 0.15623474 -0.390625 0.42185974q-0.15625 0.25 -0.15625 0.546875q0 0.3125 0.15625 0.578125q0.15625 0.25 0.40625 0.390625q0.234375 0.15625 0.515625 0.15625q0.03125 0 0.0625 0q0.28125 0.015625 0.5 -0.109375q0.21875 -0.09375 0.40625 -0.328125q0.203125 -0.265625 0.234375 -0.59375q0 -0.046875 0 -0.09375q0 -0.28125 -0.140625 -0.53125q-0.140625 -0.296875 -0.421875 -0.45310974q-0.265625 -0.15625 -0.578125 -0.15625q-0.015625 0 -0.03125 0zm4.4944763 3.7031097q-0.828125 0 -0.859375 0.84375l-0.203125 8.453125q-0.03125 0.96875 0.796875 0.984375q0.9375 0.03125 0.96875 -0.96875l0.15625 -5.03125q0.5 -1.90625 2.0625 -1.84375q1.40625 0.046875 1.359375 2.640625l-0.09375 4.1875q-0.03125 1.078125 0.90625 1.0q0.84375 -0.0625 0.875 -1.171875l0.109375 -4.5625q0.015625 -0.53125 0.03125 -0.5625q0.609375 -1.5625 2.28125 -1.515625q1.4375 0.03125 1.390625 2.734375l-0.046875 4.203125q-0.015625 1.09375 0.96875 1.0q0.859375 -0.0625 0.875 -1.171875l0.0625 -4.53125q0.0625 -4.140625 -3.390625 -4.140625q-1.859375 -0.015625 -2.796875 1.328125q-0.65625 -1.359375 -2.546875 -1.328125q-1.171875 0 -1.984375 0.734375l0.015625 -0.375q0.015625 -0.90625 -0.9375 -0.90625zm14.743195 6.03125l6.125 -0.890625q0.96875 -0.140625 1.0 -1.25q0.046875 -1.40625 -1.0625 -2.5q-1.1875 -1.15625 -3.296875 -1.03125q-2.015625 0.125 -3.296875 1.953125q-1.015625 1.46875 -1.015625 3.34375q0 2.28125 1.625 3.609375q1.296875 1.078125 3.03125 1.09375q2.375 0.015625 3.828125 -1.28125q0.828125 -0.734375 0.40625 -1.578125q-0.1875 -0.359375 -0.625 -0.265625q-0.390625 0.078125 -1.0 0.75q-0.640625 0.71875 -2.5 0.734375q-1.265625 0.015625 -2.296875 -0.890625q-0.875 -0.78125 -0.921875 -1.796875zm0.203125 -1.515625q0.25 -0.890625 0.65625 -1.390625q0.90625 -1.125 2.171875 -1.125q0.890625 -0.015625 1.703125 0.5q0.6875 0.453125 0.828125 1.234375l-5.359375 0.78125zm11.236481 4.140625q-0.84375 -0.046875 -1.640625 -0.59375q-0.65625 -0.453125 -1.171875 -0.109375q-0.421875 0.265625 -0.390625 0.875q0.046875 0.546875 0.6875 0.90625q0.703125 0.40625 1.203125 0.546875q0.796875 0.21875 2.078125 0.21875q1.5 -0.015625 2.421875 -0.625q1.125 -0.75 1.265625 -1.921875q0.140625 -1.15625 -0.78125 -2.265625q-0.390625 -0.46875 -1.390625 -0.9375q-0.734375 -0.34375 -1.609375 -0.4375q-1.09375 -0.125 -1.265625 -0.609375q-0.171875 -0.5625 0.265625 -1.078125q0.53125 -0.625 1.625 -0.6875q1.03125 -0.03125 1.5625 0.484375q1.0625 1.015625 1.578125 0.59375q0.421875 -0.34375 0.34375 -0.890625q-0.140625 -0.828125 -1.4375 -1.46875q-1.0 -0.484375 -2.328125 -0.375q-1.1875 0.109375 -2.09375 0.765625q-0.765625 0.546875 -1.15625 1.59375q-0.359375 0.953125 -0.140625 1.859375q0.28125 1.171875 2.15625 1.4375q1.796875 0.25 2.3125 0.796875q0.765625 0.828125 0.390625 1.390625q-0.453125 0.671875 -2.484375 0.53125zm9.988434 -13.35936q-0.828125 0 -0.84375 0.859375l-0.09375 4.2968597q-1.0625 0.015625 -2.109375 0.015625q-0.859375 0 -0.859375 0.921875q0 0.890625 0.78125 0.890625q1.0625 0 2.140625 0l-0.171875 7.09375q-0.015625 0.96875 0.8125 0.984375q0.984375 0.015625 0.984375 -0.96875l0.15625 -7.109375q0.984375 0 1.953125 0q1.0625 0 1.0625 -0.9375q0 -0.90625 -1.125 -0.90625l-1.84375 0.015625q0.0625 -1.921875 0.078125 -4.2499847q0 -0.90625 -0.921875 -0.90625zm6.6656494 10.73436l6.125 -0.890625q0.96875 -0.140625 1.0 -1.25q0.046875 -1.40625 -1.0625 -2.5q-1.1875 -1.15625 -3.296875 -1.03125q-2.015625 0.125 -3.296875 1.953125q-1.015625 1.46875 -1.015625 3.34375q0 2.28125 1.625 3.609375q1.296875 1.078125 3.03125 1.09375q2.375 0.015625 3.828125 -1.28125q0.828125 -0.734375 0.40625 -1.578125q-0.1875 -0.359375 -0.625 -0.265625q-0.390625 0.078125 -1.0 0.75q-0.640625 0.71875 -2.5 0.734375q-1.265625 0.015625 -2.296875 -0.890625q-0.875 -0.78125 -0.921875 -1.796875zm0.203125 -1.515625q0.25 -0.890625 0.65625 -1.390625q0.90625 -1.125 2.171875 -1.125q0.890625 -0.015625 1.703125 0.5q0.6875 0.453125 0.828125 1.234375l-5.359375 0.78125zm9.720856 10.65625q0.828125 0 0.84375 -0.859375l0.109375 -4.859375q0.015625 0.015625 0.03125 0.03125q0.609375 0.609375 2.15625 0.484375q1.78125 -0.125 2.984375 -1.625q1.0625 -1.328125 1.0625 -3.78125q0 -1.703125 -1.1875 -2.96875q-1.1875 -1.296875 -2.8125 -1.296875q-1.671875 -0.015625 -2.140625 0.328125q-0.21875 -0.515625 -0.703125 -0.515625q-0.96875 -0.03125 -0.984375 0.96875l-0.296875 13.1875q-0.015625 0.90625 0.9375 0.90625zm1.109375 -12.5625q0.765625 -0.734375 2.0 -0.5625q1.171875 0.15625 1.765625 0.90625q0.703125 0.859375 0.6875 2.046875q-0.015625 1.25 -0.609375 2.125q-0.6875 1.015625 -2.046875 1.109375q-1.015625 0.078125 -1.90625 -0.90625l0.109375 -4.71875zm10.381165 6.046875q-0.84375 -0.046875 -1.640625 -0.59375q-0.65625 -0.453125 -1.171875 -0.109375q-0.421875 0.265625 -0.390625 0.875q0.046875 0.546875 0.6875 0.90625q0.703125 0.40625 1.203125 0.546875q0.796875 0.21875 2.078125 0.21875q1.5 -0.015625 2.421875 -0.625q1.125 -0.75 1.265625 -1.921875q0.140625 -1.15625 -0.78125 -2.265625q-0.390625 -0.46875 -1.390625 -0.9375q-0.734375 -0.34375 -1.609375 -0.4375q-1.09375 -0.125 -1.265625 -0.609375q-0.171875 -0.5625 0.265625 -1.078125q0.53125 -0.625 1.625 -0.6875q1.03125 -0.03125 1.5625 0.484375q1.0625 1.015625 1.578125 0.59375q0.421875 -0.34375 0.34375 -0.890625q-0.140625 -0.828125 -1.4375 -1.46875q-1.0 -0.484375 -2.328125 -0.375q-1.1875 0.109375 -2.09375 0.765625q-0.765625 0.546875 -1.15625 1.59375q-0.359375 0.953125 -0.140625 1.859375q0.28125 1.171875 2.15625 1.4375q1.796875 0.25 2.3125 0.796875q0.765625 0.828125 0.390625 1.390625q-0.453125 0.671875 -2.484375 0.53125z" fill-rule="nonzero"/></g></svg>